<?xml version="1.0" encoding="UTF-8" standalone="no"?>
<!DOCTYPE svg PUBLIC "-//W3C//DTD SVG 1.1//EN"
        "http://www.w3.org/Graphics/SVG/1.1/DTD/svg11.dtd">
<!-- Generated by graphviz version 3.0.0 (20220226.1711)
 -->
<!-- Title: ERD Pages: 1 -->
<svg width="175pt" height="1154pt"
     viewBox="0.00 0.00 175.00 1154.00" xmlns="http://www.w3.org/2000/svg">
    <g id="graph0" class="graph" transform="scale(1 1) rotate(0) translate(4 1150)">
        <title>ERD</title>
        <polygon fill="white" stroke="transparent" points="-4,4 -4,-1150 171,-1150 171,4 -4,4"/>
        <g id="clust2" class="cluster">
            <title>cluster_PG_CATALOG</title>
            <polygon fill="lightyellow" stroke="black" points="8,-91 8,-1138 159,-1138 159,-91 8,-91"/>
            <text text-anchor="middle" x="83.5" y="-1122.8" font-family="Times New Roman,serif" font-size="14.00">
                PG_CATALOG
            </text>
        </g>
        <g id="clust1" class="cluster">
            <title>cluster_PUBLIC</title>
            <polygon fill="lightyellow" stroke="black" points="48.5,-8 48.5,-83 118.5,-83 118.5,-8 48.5,-8"/>
            <text text-anchor="middle" x="83.5" y="-67.8" font-family="Times New Roman,serif" font-size="14.00">PUBLIC
            </text>
        </g>
        <!-- PUBLIC.USR -->
        <g id="node1" class="node">
            <title>PUBLIC.USR</title>
            <polygon fill="#eedd82" stroke="black" points="110.5,-52 56.5,-52 56.5,-16 110.5,-16 110.5,-52"/>
            <text text-anchor="middle" x="83.5" y="-30.3" font-family="Times New Roman,serif" font-size="14.00">USR
            </text>
        </g>
        <!-- PG_CATALOG.PG_ATTRDEF -->
        <g id="node2" class="node">
            <title>PG_CATALOG.PG_ATTRDEF</title>
            <polygon fill="#eedd82" stroke="black" points="137,-1107 30,-1107 30,-1071 137,-1071 137,-1107"/>
            <text text-anchor="middle" x="83.5" y="-1085.3" font-family="Times New Roman,serif" font-size="14.00">
                PG_ATTRDEF
            </text>
        </g>
        <!-- PG_CATALOG.PG_CONSTRAINT -->
        <g id="node3" class="node">
            <title>PG_CATALOG.PG_CONSTRAINT</title>
            <polygon fill="#eedd82" stroke="black" points="150,-1053 17,-1053 17,-1017 150,-1017 150,-1053"/>
            <text text-anchor="middle" x="83.5" y="-1031.3" font-family="Times New Roman,serif" font-size="14.00">
                PG_CONSTRAINT
            </text>
        </g>
        <!-- PG_CATALOG.PG_PROC -->
        <g id="node4" class="node">
            <title>PG_CATALOG.PG_PROC</title>
            <polygon fill="#eedd82" stroke="black" points="124,-999 43,-999 43,-963 124,-963 124,-999"/>
            <text text-anchor="middle" x="83.5" y="-977.3" font-family="Times New Roman,serif" font-size="14.00">
                PG_PROC
            </text>
        </g>
        <!-- PG_CATALOG.PG_ATTRIBUTE -->
        <g id="node5" class="node">
            <title>PG_CATALOG.PG_ATTRIBUTE</title>
            <polygon fill="#eedd82" stroke="black" points="144,-945 23,-945 23,-909 144,-909 144,-945"/>
            <text text-anchor="middle" x="83.5" y="-923.3" font-family="Times New Roman,serif" font-size="14.00">
                PG_ATTRIBUTE
            </text>
        </g>
        <!-- PG_CATALOG.PG_INHERITS -->
        <g id="node6" class="node">
            <title>PG_CATALOG.PG_INHERITS</title>
            <polygon fill="#eedd82" stroke="black" points="137,-891 30,-891 30,-855 137,-855 137,-891"/>
            <text text-anchor="middle" x="83.5" y="-869.3" font-family="Times New Roman,serif" font-size="14.00">
                PG_INHERITS
            </text>
        </g>
        <!-- PG_CATALOG.PG_ROLES -->
        <g id="node7" class="node">
            <title>PG_CATALOG.PG_ROLES</title>
            <polygon fill="#eedd82" stroke="black" points="127.5,-837 39.5,-837 39.5,-801 127.5,-801 127.5,-837"/>
            <text text-anchor="middle" x="83.5" y="-815.3" font-family="Times New Roman,serif" font-size="14.00">
                PG_ROLES
            </text>
        </g>
        <!-- PG_CATALOG.PG_DATABASE -->
        <g id="node8" class="node">
            <title>PG_CATALOG.PG_DATABASE</title>
            <polygon fill="#eedd82" stroke="black" points="141.5,-783 25.5,-783 25.5,-747 141.5,-747 141.5,-783"/>
            <text text-anchor="middle" x="83.5" y="-761.3" font-family="Times New Roman,serif" font-size="14.00">
                PG_DATABASE
            </text>
        </g>
        <!-- PG_CATALOG.PG_TABLESPACE -->
        <g id="node9" class="node">
            <title>PG_CATALOG.PG_TABLESPACE</title>
            <polygon fill="#eedd82" stroke="black" points="149,-729 18,-729 18,-693 149,-693 149,-729"/>
            <text text-anchor="middle" x="83.5" y="-707.3" font-family="Times New Roman,serif" font-size="14.00">
                PG_TABLESPACE
            </text>
        </g>
        <!-- PG_CATALOG.PG_TRIGGER -->
        <g id="node10" class="node">
            <title>PG_CATALOG.PG_TRIGGER</title>
            <polygon fill="#eedd82" stroke="black" points="136,-675 31,-675 31,-639 136,-639 136,-675"/>
            <text text-anchor="middle" x="83.5" y="-653.3" font-family="Times New Roman,serif" font-size="14.00">
                PG_TRIGGER
            </text>
        </g>
        <!-- PG_CATALOG.PG_AUTHID -->
        <g id="node11" class="node">
            <title>PG_CATALOG.PG_AUTHID</title>
            <polygon fill="#eedd82" stroke="black" points="131,-621 36,-621 36,-585 131,-585 131,-621"/>
            <text text-anchor="middle" x="83.5" y="-599.3" font-family="Times New Roman,serif" font-size="14.00">
                PG_AUTHID
            </text>
        </g>
        <!-- PG_CATALOG.PG_USER -->
        <g id="node12" class="node">
            <title>PG_CATALOG.PG_USER</title>
            <polygon fill="#eedd82" stroke="black" points="123,-567 44,-567 44,-531 123,-531 123,-567"/>
            <text text-anchor="middle" x="83.5" y="-545.3" font-family="Times New Roman,serif" font-size="14.00">
                PG_USER
            </text>
        </g>
        <!-- PG_CATALOG.PG_DESCRIPTION -->
        <g id="node13" class="node">
            <title>PG_CATALOG.PG_DESCRIPTION</title>
            <polygon fill="#eedd82" stroke="black" points="151,-513 16,-513 16,-477 151,-477 151,-513"/>
            <text text-anchor="middle" x="83.5" y="-491.3" font-family="Times New Roman,serif" font-size="14.00">
                PG_DESCRIPTION
            </text>
        </g>
        <!-- PG_CATALOG.PG_SETTINGS -->
        <g id="node14" class="node">
            <title>PG_CATALOG.PG_SETTINGS</title>
            <polygon fill="#eedd82" stroke="black" points="138.5,-459 28.5,-459 28.5,-423 138.5,-423 138.5,-459"/>
            <text text-anchor="middle" x="83.5" y="-437.3" font-family="Times New Roman,serif" font-size="14.00">
                PG_SETTINGS
            </text>
        </g>
        <!-- PG_CATALOG.PG_GROUP -->
        <g id="node15" class="node">
            <title>PG_CATALOG.PG_GROUP</title>
            <polygon fill="#eedd82" stroke="black" points="129.5,-405 37.5,-405 37.5,-369 129.5,-369 129.5,-405"/>
            <text text-anchor="middle" x="83.5" y="-383.3" font-family="Times New Roman,serif" font-size="14.00">
                PG_GROUP
            </text>
        </g>
        <!-- PG_CATALOG.PG_INDEX -->
        <g id="node16" class="node">
            <title>PG_CATALOG.PG_INDEX</title>
            <polygon fill="#eedd82" stroke="black" points="126,-351 41,-351 41,-315 126,-315 126,-351"/>
            <text text-anchor="middle" x="83.5" y="-329.3" font-family="Times New Roman,serif" font-size="14.00">
                PG_INDEX
            </text>
        </g>
        <!-- PG_CATALOG.PG_CLASS -->
        <g id="node17" class="node">
            <title>PG_CATALOG.PG_CLASS</title>
            <polygon fill="#eedd82" stroke="black" points="127,-297 40,-297 40,-261 127,-261 127,-297"/>
            <text text-anchor="middle" x="83.5" y="-275.3" font-family="Times New Roman,serif" font-size="14.00">
                PG_CLASS
            </text>
        </g>
        <!-- PG_CATALOG.PG_AM -->
        <g id="node18" class="node">
            <title>PG_CATALOG.PG_AM</title>
            <polygon fill="#eedd82" stroke="black" points="116,-243 51,-243 51,-207 116,-207 116,-243"/>
            <text text-anchor="middle" x="83.5" y="-221.3" font-family="Times New Roman,serif" font-size="14.00">PG_AM
            </text>
        </g>
        <!-- PG_CATALOG.PG_NAMESPACE -->
        <g id="node19" class="node">
            <title>PG_CATALOG.PG_NAMESPACE</title>
            <polygon fill="#eedd82" stroke="black" points="147,-189 20,-189 20,-153 147,-153 147,-189"/>
            <text text-anchor="middle" x="83.5" y="-167.3" font-family="Times New Roman,serif" font-size="14.00">
                PG_NAMESPACE
            </text>
        </g>
        <!-- PG_CATALOG.PG_TYPE -->
        <g id="node20" class="node">
            <title>PG_CATALOG.PG_TYPE</title>
            <polygon fill="#eedd82" stroke="black" points="122.5,-135 44.5,-135 44.5,-99 122.5,-99 122.5,-135"/>
            <text text-anchor="middle" x="83.5" y="-113.3" font-family="Times New Roman,serif" font-size="14.00">
                PG_TYPE
            </text>
        </g>
    </g>
</svg>
