<?xml version="1.0" encoding="UTF-8" standalone="no"?>
<!DOCTYPE svg PUBLIC "-//W3C//DTD SVG 1.1//EN"
        "http://www.w3.org/Graphics/SVG/1.1/DTD/svg11.dtd">
<!-- Generated by graphviz version 3.0.0 (20220226.1711)
 -->
<!-- Title: ERD Pages: 1 -->
<svg width="197pt" height="1154pt"
     viewBox="0.00 0.00 197.00 1154.00" xmlns="http://www.w3.org/2000/svg">
    <g id="graph0" class="graph" transform="scale(1 1) rotate(0) translate(4 1150)">
        <title>ERD</title>
        <polygon fill="white" stroke="transparent" points="-4,4 -4,-1150 193,-1150 193,4 -4,4"/>
        <g id="clust1" class="cluster">
            <title>cluster_PUBLIC</title>
            <polygon fill="lightyellow" stroke="black" points="58,-8 58,-83 131,-83 131,-8 58,-8"/>
            <text text-anchor="middle" x="94.5" y="-67.8" font-family="Times New Roman,serif" font-size="14.00">PUBLIC
            </text>
        </g>
        <g id="clust2" class="cluster">
            <title>cluster_PG_CATALOG</title>
            <polygon fill="lightyellow" stroke="black" points="8,-91 8,-1138 181,-1138 181,-91 8,-91"/>
            <text text-anchor="middle" x="94.5" y="-1122.8" font-family="Times New Roman,serif" font-size="14.00">
                PG_CATALOG
            </text>
        </g>
        <!-- PUBLIC.USR -->
        <g id="node1" class="node">
            <title>PUBLIC.USR</title>
            <polygon fill="#eee9bf" stroke="transparent" points="74,-20.5 74,-47.5 115,-47.5 115,-20.5 74,-20.5"/>
            <polygon fill="#eedd82" stroke="transparent" points="74.5,-20 74.5,-47 115.5,-47 115.5,-20 74.5,-20"/>
            <polygon fill="none" stroke="black" points="74.5,-20 74.5,-47 115.5,-47 115.5,-20 74.5,-20"/>
            <text text-anchor="start" x="80.5" y="-30.8" font-family="Times New Roman,serif" font-weight="bold"
                  font-size="14.00">USR
            </text>
        </g>
        <!-- PG_CATALOG.PG_ATTRDEF -->
        <g id="node2" class="node">
            <title>PG_CATALOG.PG_ATTRDEF</title>
            <polygon fill="#eee9bf" stroke="transparent"
                     points="40,-1075.5 40,-1102.5 149,-1102.5 149,-1075.5 40,-1075.5"/>
            <polygon fill="#eedd82" stroke="transparent"
                     points="40.5,-1075 40.5,-1102 149.5,-1102 149.5,-1075 40.5,-1075"/>
            <polygon fill="none" stroke="black" points="40.5,-1075 40.5,-1102 149.5,-1102 149.5,-1075 40.5,-1075"/>
            <text text-anchor="start" x="46.5" y="-1085.8" font-family="Times New Roman,serif" font-weight="bold"
                  font-size="14.00">PG_ATTRDEF
            </text>
        </g>
        <!-- PG_CATALOG.PG_CONSTRAINT -->
        <g id="node3" class="node">
            <title>PG_CATALOG.PG_CONSTRAINT</title>
            <polygon fill="#eee9bf" stroke="transparent"
                     points="26.5,-1021.5 26.5,-1048.5 162.5,-1048.5 162.5,-1021.5 26.5,-1021.5"/>
            <polygon fill="#eedd82" stroke="transparent"
                     points="26.5,-1021 26.5,-1048 162.5,-1048 162.5,-1021 26.5,-1021"/>
            <polygon fill="none" stroke="black" points="26.5,-1021 26.5,-1048 162.5,-1048 162.5,-1021 26.5,-1021"/>
            <text text-anchor="start" x="32.5" y="-1031.8" font-family="Times New Roman,serif" font-weight="bold"
                  font-size="14.00">PG_CONSTRAINT
            </text>
        </g>
        <!-- PG_CATALOG.PG_PROC -->
        <g id="node4" class="node">
            <title>PG_CATALOG.PG_PROC</title>
            <polygon fill="#eee9bf" stroke="transparent"
                     points="53.5,-967.5 53.5,-994.5 135.5,-994.5 135.5,-967.5 53.5,-967.5"/>
            <polygon fill="#eedd82" stroke="transparent" points="53.5,-967 53.5,-994 135.5,-994 135.5,-967 53.5,-967"/>
            <polygon fill="none" stroke="black" points="53.5,-967 53.5,-994 135.5,-994 135.5,-967 53.5,-967"/>
            <text text-anchor="start" x="59.5" y="-977.8" font-family="Times New Roman,serif" font-weight="bold"
                  font-size="14.00">PG_PROC
            </text>
        </g>
        <!-- PG_CATALOG.PG_ATTRIBUTE -->
        <g id="node5" class="node">
            <title>PG_CATALOG.PG_ATTRIBUTE</title>
            <polygon fill="#eee9bf" stroke="transparent"
                     points="32.5,-913.5 32.5,-940.5 156.5,-940.5 156.5,-913.5 32.5,-913.5"/>
            <polygon fill="#eedd82" stroke="transparent" points="32.5,-913 32.5,-940 156.5,-940 156.5,-913 32.5,-913"/>
            <polygon fill="none" stroke="black" points="32.5,-913 32.5,-940 156.5,-940 156.5,-913 32.5,-913"/>
            <text text-anchor="start" x="38.5" y="-923.8" font-family="Times New Roman,serif" font-weight="bold"
                  font-size="14.00">PG_ATTRIBUTE
            </text>
        </g>
        <!-- PG_CATALOG.PG_INHERITS -->
        <g id="node6" class="node">
            <title>PG_CATALOG.PG_INHERITS</title>
            <polygon fill="#eee9bf" stroke="transparent"
                     points="39.5,-859.5 39.5,-886.5 149.5,-886.5 149.5,-859.5 39.5,-859.5"/>
            <polygon fill="#eedd82" stroke="transparent" points="39.5,-859 39.5,-886 149.5,-886 149.5,-859 39.5,-859"/>
            <polygon fill="none" stroke="black" points="39.5,-859 39.5,-886 149.5,-886 149.5,-859 39.5,-859"/>
            <text text-anchor="start" x="45.5" y="-869.8" font-family="Times New Roman,serif" font-weight="bold"
                  font-size="14.00">PG_INHERITS
            </text>
        </g>
        <!-- PG_CATALOG.PG_ROLES -->
        <g id="node7" class="node">
            <title>PG_CATALOG.PG_ROLES</title>
            <polygon fill="#eee9bf" stroke="transparent" points="50,-805.5 50,-832.5 139,-832.5 139,-805.5 50,-805.5"/>
            <polygon fill="#eedd82" stroke="transparent" points="50.5,-805 50.5,-832 139.5,-832 139.5,-805 50.5,-805"/>
            <polygon fill="none" stroke="black" points="50.5,-805 50.5,-832 139.5,-832 139.5,-805 50.5,-805"/>
            <text text-anchor="start" x="56.5" y="-815.8" font-family="Times New Roman,serif" font-weight="bold"
                  font-size="14.00">PG_ROLES
            </text>
        </g>
        <!-- PG_CATALOG.PG_DATABASE -->
        <g id="node8" class="node">
            <title>PG_CATALOG.PG_DATABASE</title>
            <polygon fill="#eee9bf" stroke="transparent"
                     points="35.5,-751.5 35.5,-778.5 153.5,-778.5 153.5,-751.5 35.5,-751.5"/>
            <polygon fill="#eedd82" stroke="transparent" points="35.5,-751 35.5,-778 153.5,-778 153.5,-751 35.5,-751"/>
            <polygon fill="none" stroke="black" points="35.5,-751 35.5,-778 153.5,-778 153.5,-751 35.5,-751"/>
            <text text-anchor="start" x="41.5" y="-761.8" font-family="Times New Roman,serif" font-weight="bold"
                  font-size="14.00">PG_DATABASE
            </text>
        </g>
        <!-- PG_CATALOG.PG_TABLESPACE -->
        <g id="node9" class="node">
            <title>PG_CATALOG.PG_TABLESPACE</title>
            <polygon fill="#eee9bf" stroke="transparent"
                     points="26.5,-697.5 26.5,-724.5 162.5,-724.5 162.5,-697.5 26.5,-697.5"/>
            <polygon fill="#eedd82" stroke="transparent" points="26.5,-697 26.5,-724 162.5,-724 162.5,-697 26.5,-697"/>
            <polygon fill="none" stroke="black" points="26.5,-697 26.5,-724 162.5,-724 162.5,-697 26.5,-697"/>
            <text text-anchor="start" x="32.5" y="-707.8" font-family="Times New Roman,serif" font-weight="bold"
                  font-size="14.00">PG_TABLESPACE
            </text>
        </g>
        <!-- PG_CATALOG.PG_TRIGGER -->
        <g id="node10" class="node">
            <title>PG_CATALOG.PG_TRIGGER</title>
            <polygon fill="#eee9bf" stroke="transparent" points="40,-643.5 40,-670.5 149,-670.5 149,-643.5 40,-643.5"/>
            <polygon fill="#eedd82" stroke="transparent" points="40.5,-643 40.5,-670 149.5,-670 149.5,-643 40.5,-643"/>
            <polygon fill="none" stroke="black" points="40.5,-643 40.5,-670 149.5,-670 149.5,-643 40.5,-643"/>
            <text text-anchor="start" x="46.5" y="-653.8" font-family="Times New Roman,serif" font-weight="bold"
                  font-size="14.00">PG_TRIGGER
            </text>
        </g>
        <!-- PG_CATALOG.PG_AUTHID -->
        <g id="node11" class="node">
            <title>PG_CATALOG.PG_AUTHID</title>
            <polygon fill="#eee9bf" stroke="transparent"
                     points="46.5,-589.5 46.5,-616.5 142.5,-616.5 142.5,-589.5 46.5,-589.5"/>
            <polygon fill="#eedd82" stroke="transparent" points="46.5,-589 46.5,-616 142.5,-616 142.5,-589 46.5,-589"/>
            <polygon fill="none" stroke="black" points="46.5,-589 46.5,-616 142.5,-616 142.5,-589 46.5,-589"/>
            <text text-anchor="start" x="52.5" y="-599.8" font-family="Times New Roman,serif" font-weight="bold"
                  font-size="14.00">PG_AUTHID
            </text>
        </g>
        <!-- PG_CATALOG.PG_USER -->
        <g id="node12" class="node">
            <title>PG_CATALOG.PG_USER</title>
            <polygon fill="#eee9bf" stroke="transparent" points="55,-535.5 55,-562.5 134,-562.5 134,-535.5 55,-535.5"/>
            <polygon fill="#eedd82" stroke="transparent" points="55.5,-535 55.5,-562 134.5,-562 134.5,-535 55.5,-535"/>
            <polygon fill="none" stroke="black" points="55.5,-535 55.5,-562 134.5,-562 134.5,-535 55.5,-535"/>
            <text text-anchor="start" x="61.5" y="-545.8" font-family="Times New Roman,serif" font-weight="bold"
                  font-size="14.00">PG_USER
            </text>
        </g>
        <!-- PG_CATALOG.PG_DESCRIPTION -->
        <g id="node13" class="node">
            <title>PG_CATALOG.PG_DESCRIPTION</title>
            <polygon fill="#eee9bf" stroke="transparent" points="24,-481.5 24,-508.5 165,-508.5 165,-481.5 24,-481.5"/>
            <polygon fill="#eedd82" stroke="transparent" points="24.5,-481 24.5,-508 165.5,-508 165.5,-481 24.5,-481"/>
            <polygon fill="none" stroke="black" points="24.5,-481 24.5,-508 165.5,-508 165.5,-481 24.5,-481"/>
            <text text-anchor="start" x="30.5" y="-491.8" font-family="Times New Roman,serif" font-weight="bold"
                  font-size="14.00">PG_DESCRIPTION
            </text>
        </g>
        <!-- PG_CATALOG.PG_SETTINGS -->
        <g id="node14" class="node">
            <title>PG_CATALOG.PG_SETTINGS</title>
            <polygon fill="#eee9bf" stroke="transparent" points="38,-427.5 38,-454.5 151,-454.5 151,-427.5 38,-427.5"/>
            <polygon fill="#eedd82" stroke="transparent" points="38.5,-427 38.5,-454 151.5,-454 151.5,-427 38.5,-427"/>
            <polygon fill="none" stroke="black" points="38.5,-427 38.5,-454 151.5,-454 151.5,-427 38.5,-427"/>
            <text text-anchor="start" x="44.5" y="-437.8" font-family="Times New Roman,serif" font-weight="bold"
                  font-size="14.00">PG_SETTINGS
            </text>
        </g>
        <!-- PG_CATALOG.PG_GROUP -->
        <g id="node15" class="node">
            <title>PG_CATALOG.PG_GROUP</title>
            <polygon fill="#eee9bf" stroke="transparent"
                     points="48.5,-373.5 48.5,-400.5 140.5,-400.5 140.5,-373.5 48.5,-373.5"/>
            <polygon fill="#eedd82" stroke="transparent" points="48.5,-373 48.5,-400 140.5,-400 140.5,-373 48.5,-373"/>
            <polygon fill="none" stroke="black" points="48.5,-373 48.5,-400 140.5,-400 140.5,-373 48.5,-373"/>
            <text text-anchor="start" x="54.5" y="-383.8" font-family="Times New Roman,serif" font-weight="bold"
                  font-size="14.00">PG_GROUP
            </text>
        </g>
        <!-- PG_CATALOG.PG_INDEX -->
        <g id="node16" class="node">
            <title>PG_CATALOG.PG_INDEX</title>
            <polygon fill="#eee9bf" stroke="transparent"
                     points="51.5,-319.5 51.5,-346.5 137.5,-346.5 137.5,-319.5 51.5,-319.5"/>
            <polygon fill="#eedd82" stroke="transparent" points="51.5,-319 51.5,-346 137.5,-346 137.5,-319 51.5,-319"/>
            <polygon fill="none" stroke="black" points="51.5,-319 51.5,-346 137.5,-346 137.5,-319 51.5,-319"/>
            <text text-anchor="start" x="57.5" y="-329.8" font-family="Times New Roman,serif" font-weight="bold"
                  font-size="14.00">PG_INDEX
            </text>
        </g>
        <!-- PG_CATALOG.PG_CLASS -->
        <g id="node17" class="node">
            <title>PG_CATALOG.PG_CLASS</title>
            <polygon fill="#eee9bf" stroke="transparent"
                     points="51.5,-265.5 51.5,-292.5 137.5,-292.5 137.5,-265.5 51.5,-265.5"/>
            <polygon fill="#eedd82" stroke="transparent" points="51.5,-265 51.5,-292 137.5,-292 137.5,-265 51.5,-265"/>
            <polygon fill="none" stroke="black" points="51.5,-265 51.5,-292 137.5,-292 137.5,-265 51.5,-265"/>
            <text text-anchor="start" x="57.5" y="-275.8" font-family="Times New Roman,serif" font-weight="bold"
                  font-size="14.00">PG_CLASS
            </text>
        </g>
        <!-- PG_CATALOG.PG_AM -->
        <g id="node18" class="node">
            <title>PG_CATALOG.PG_AM</title>
            <polygon fill="#eee9bf" stroke="transparent"
                     points="62.5,-211.5 62.5,-238.5 126.5,-238.5 126.5,-211.5 62.5,-211.5"/>
            <polygon fill="#eedd82" stroke="transparent" points="62.5,-211 62.5,-238 126.5,-238 126.5,-211 62.5,-211"/>
            <polygon fill="none" stroke="black" points="62.5,-211 62.5,-238 126.5,-238 126.5,-211 62.5,-211"/>
            <text text-anchor="start" x="68.5" y="-221.8" font-family="Times New Roman,serif" font-weight="bold"
                  font-size="14.00">PG_AM
            </text>
        </g>
        <!-- PG_CATALOG.PG_NAMESPACE -->
        <g id="node19" class="node">
            <title>PG_CATALOG.PG_NAMESPACE</title>
            <polygon fill="#eee9bf" stroke="transparent" points="29,-157.5 29,-184.5 160,-184.5 160,-157.5 29,-157.5"/>
            <polygon fill="#eedd82" stroke="transparent" points="29.5,-157 29.5,-184 160.5,-184 160.5,-157 29.5,-157"/>
            <polygon fill="none" stroke="black" points="29.5,-157 29.5,-184 160.5,-184 160.5,-157 29.5,-157"/>
            <text text-anchor="start" x="35.5" y="-167.8" font-family="Times New Roman,serif" font-weight="bold"
                  font-size="14.00">PG_NAMESPACE
            </text>
        </g>
        <!-- PG_CATALOG.PG_TYPE -->
        <g id="node20" class="node">
            <title>PG_CATALOG.PG_TYPE</title>
            <polygon fill="#eee9bf" stroke="transparent" points="55,-103.5 55,-130.5 134,-130.5 134,-103.5 55,-103.5"/>
            <polygon fill="#eedd82" stroke="transparent" points="55.5,-103 55.5,-130 134.5,-130 134.5,-103 55.5,-103"/>
            <polygon fill="none" stroke="black" points="55.5,-103 55.5,-130 134.5,-130 134.5,-103 55.5,-103"/>
            <text text-anchor="start" x="61.5" y="-113.8" font-family="Times New Roman,serif" font-weight="bold"
                  font-size="14.00">PG_TYPE
            </text>
        </g>
    </g>
</svg>
