<?xml version="1.0" encoding="UTF-8" standalone="no"?>
<!DOCTYPE svg PUBLIC "-//W3C//DTD SVG 1.1//EN"
        "http://www.w3.org/Graphics/SVG/1.1/DTD/svg11.dtd">
<!-- Generated by graphviz version 3.0.0 (20220226.1711)
 -->
<!-- Title: アーキテクチャ図 Pages: 1 -->
<svg width="611pt" height="227pt"
     viewBox="0.00 0.00 611.00 227.00" xmlns="http://www.w3.org/2000/svg">
    <g id="graph0" class="graph" transform="scale(1 1) rotate(0) translate(4 223)">
        <title>アーキテクチャ図</title>
        <polygon fill="white" stroke="transparent" points="-4,4 -4,-223 607,-223 607,4 -4,4"/>
        <text text-anchor="middle" x="301.5" y="-7.8" font-family="Times New Roman,serif" font-size="14.00">アーキテクチャ図
        </text>
        <g id="clust1" class="cluster">
            <title>clusterArchitecture</title>
            <polygon fill="lightyellow" stroke="#eedd82" points="8,-31 8,-155 461,-155 461,-31 8,-31"/>
        </g>
        <!-- bouquet.application -->
        <g id="node1" class="node">
            <title>bouquet.application</title>
            <polygon fill="#eedd82" stroke="black"
                     points="215.5,-147 16.5,-147 16.5,-143 12.5,-143 12.5,-139 16.5,-139 16.5,-119 12.5,-119 12.5,-115 16.5,-115 16.5,-111 215.5,-111 215.5,-147"/>
            <polyline fill="none" stroke="black" points="16.5,-143 20.5,-143 20.5,-139 16.5,-139 "/>
            <polyline fill="none" stroke="black" points="16.5,-119 20.5,-119 20.5,-115 16.5,-115 "/>
            <text text-anchor="middle" x="116" y="-124" font-family="Times New Roman,serif" font-size="20.00">
                アプリケーション層
            </text>
        </g>
        <!-- bouquet.domain -->
        <g id="node2" class="node">
            <title>bouquet.domain</title>
            <polygon fill="#eedd82" stroke="black"
                     points="175,-75 57,-75 57,-71 53,-71 53,-67 57,-67 57,-47 53,-47 53,-43 57,-43 57,-39 175,-39 175,-75"/>
            <polyline fill="none" stroke="black" points="57,-71 61,-71 61,-67 57,-67 "/>
            <polyline fill="none" stroke="black" points="57,-47 61,-47 61,-43 57,-43 "/>
            <text text-anchor="middle" x="116" y="-52" font-family="Times New Roman,serif" font-size="20.00">ドメイン層
            </text>
        </g>
        <!-- bouquet.application&#45;&gt;bouquet.domain -->
        <g id="edge5" class="edge">
            <title>bouquet.application&#45;&gt;bouquet.domain</title>
            <path fill="none" stroke="black" d="M116,-110.83C116,-110.83 116,-85.41 116,-85.41"/>
            <polygon fill="black" stroke="black" points="119.5,-85.41 116,-75.41 112.5,-85.41 119.5,-85.41"/>
        </g>
        <!-- org.springframework -->
        <g id="node5" class="node">
            <title>org.springframework</title>
            <polygon fill="lightgrey" stroke="black"
                     points="603,-75 469,-75 469,-71 465,-71 465,-67 469,-67 469,-47 465,-47 465,-43 469,-43 469,-39 603,-39 603,-75"/>
            <polyline fill="none" stroke="black" points="469,-71 473,-71 473,-67 469,-67 "/>
            <polyline fill="none" stroke="black" points="469,-47 473,-47 473,-43 469,-43 "/>
            <text text-anchor="middle" x="536" y="-53.3" font-family="Times New Roman,serif" font-size="14.00">
                org.springframework
            </text>
        </g>
        <!-- bouquet.application&#45;&gt;org.springframework -->
        <g id="edge3" class="edge">
            <title>bouquet.application&#45;&gt;org.springframework</title>
            <path fill="none" stroke="black"
                  d="M195.25,-110.83C195.25,-89.5 195.25,-57 195.25,-57 195.25,-57 458.68,-57 458.68,-57"/>
            <polygon fill="black" stroke="black" points="458.68,-60.5 468.68,-57 458.68,-53.5 458.68,-60.5"/>
        </g>
        <!-- bouquet.presentation -->
        <g id="node3" class="node">
            <title>bouquet.presentation</title>
            <polygon fill="#eedd82" stroke="black"
                     points="452.5,-147 233.5,-147 233.5,-143 229.5,-143 229.5,-139 233.5,-139 233.5,-119 229.5,-119 229.5,-115 233.5,-115 233.5,-111 452.5,-111 452.5,-147"/>
            <polyline fill="none" stroke="black" points="233.5,-143 237.5,-143 237.5,-139 233.5,-139 "/>
            <polyline fill="none" stroke="black" points="233.5,-119 237.5,-119 237.5,-115 233.5,-115 "/>
            <text text-anchor="middle" x="343" y="-124" font-family="Times New Roman,serif" font-size="20.00">
                プレゼンテーション層
            </text>
        </g>
        <!-- bouquet.presentation&#45;&gt;org.springframework -->
        <g id="edge2" class="edge">
            <title>bouquet.presentation&#45;&gt;org.springframework</title>
            <path fill="none" stroke="black"
                  d="M452.53,-129C485.77,-129 513.67,-129 513.67,-129 513.67,-129 513.67,-85.17 513.67,-85.17"/>
            <polygon fill="black" stroke="black" points="517.17,-85.17 513.67,-75.17 510.17,-85.17 517.17,-85.17"/>
        </g>
        <!-- bouquet -->
        <g id="node4" class="node">
            <title>bouquet</title>
            <polygon fill="lightgrey" stroke="black"
                     points="343,-219 281,-219 281,-215 277,-215 277,-211 281,-211 281,-191 277,-191 277,-187 281,-187 281,-183 343,-183 343,-219"/>
            <polyline fill="none" stroke="black" points="281,-215 285,-215 285,-211 281,-211 "/>
            <polyline fill="none" stroke="black" points="281,-191 285,-191 285,-187 281,-187 "/>
            <text text-anchor="middle" x="312" y="-197.3" font-family="Times New Roman,serif" font-size="14.00">
                bouquet
            </text>
        </g>
        <!-- bouquet&#45;&gt;bouquet.application -->
        <g id="edge1" class="edge">
            <title>bouquet&#45;&gt;bouquet.application</title>
            <path fill="none" stroke="black"
                  d="M280.94,-201C225.68,-201 116,-201 116,-201 116,-201 116,-157.17 116,-157.17"/>
            <polygon fill="black" stroke="black" points="119.5,-157.17 116,-147.17 112.5,-157.17 119.5,-157.17"/>
        </g>
        <!-- bouquet&#45;&gt;org.springframework -->
        <g id="edge4" class="edge">
            <title>bouquet&#45;&gt;org.springframework</title>
            <path fill="none" stroke="black"
                  d="M343.2,-201C409.48,-201 558.33,-201 558.33,-201 558.33,-201 558.33,-85.24 558.33,-85.24"/>
            <polygon fill="black" stroke="black" points="561.83,-85.24 558.33,-75.24 554.83,-85.24 561.83,-85.24"/>
        </g>
    </g>
</svg>
