<?xml version="1.0" encoding="UTF-8" standalone="no"?>
<!DOCTYPE svg PUBLIC "-//W3C//DTD SVG 1.1//EN"
        "http://www.w3.org/Graphics/SVG/1.1/DTD/svg11.dtd">
<!-- Generated by graphviz version 3.0.0 (20220226.1711)
 -->
<!-- Title: アーキテクチャ図 Pages: 1 -->
<svg width="762pt" height="371pt"
     viewBox="0.00 0.00 761.50 371.00" xmlns="http://www.w3.org/2000/svg">
    <g id="graph0" class="graph" transform="scale(1 1) rotate(0) translate(4 367)">
        <title>アーキテクチャ図</title>
        <polygon fill="white" stroke="transparent" points="-4,4 -4,-367 757.5,-367 757.5,4 -4,4"/>
        <text text-anchor="middle" x="376.75" y="-7.8" font-family="Times New Roman,serif" font-size="14.00">アーキテクチャ図
        </text>
        <g id="clust1" class="cluster">
            <title>clusterArchitecture</title>
            <polygon fill="lightyellow" stroke="#eedd82" points="427.5,-87 427.5,-355 683.5,-355 683.5,-87 427.5,-87"/>
        </g>
        <!-- bouquet.application -->
        <g id="node1" class="node">
            <title>bouquet.application</title>
            <polygon fill="#eedd82" stroke="black"
                     points="655,-203 456,-203 456,-199 452,-199 452,-195 456,-195 456,-175 452,-175 452,-171 456,-171 456,-167 655,-167 655,-203"/>
            <polyline fill="none" stroke="black" points="456,-199 460,-199 460,-195 456,-195 "/>
            <polyline fill="none" stroke="black" points="456,-175 460,-175 460,-171 456,-171 "/>
            <text text-anchor="middle" x="555.5" y="-180" font-family="Times New Roman,serif" font-size="20.00">
                アプリケーション層
            </text>
        </g>
        <!-- bouquet.domain -->
        <g id="node2" class="node">
            <title>bouquet.domain</title>
            <polygon fill="#eedd82" stroke="black"
                     points="614.5,-131 496.5,-131 496.5,-127 492.5,-127 492.5,-123 496.5,-123 496.5,-103 492.5,-103 492.5,-99 496.5,-99 496.5,-95 614.5,-95 614.5,-131"/>
            <polyline fill="none" stroke="black" points="496.5,-127 500.5,-127 500.5,-123 496.5,-123 "/>
            <polyline fill="none" stroke="black" points="496.5,-103 500.5,-103 500.5,-99 496.5,-99 "/>
            <text text-anchor="middle" x="555.5" y="-108" font-family="Times New Roman,serif" font-size="20.00">ドメイン層
            </text>
        </g>
        <!-- bouquet.application&#45;&gt;bouquet.domain -->
        <g id="edge18" class="edge">
            <title>bouquet.application&#45;&gt;bouquet.domain</title>
            <path fill="none" stroke="black" d="M555.5,-166.83C555.5,-166.83 555.5,-141.41 555.5,-141.41"/>
            <polygon fill="black" stroke="black" points="559,-141.41 555.5,-131.41 552,-141.41 559,-141.41"/>
        </g>
        <!-- org.springframework -->
        <g id="node5" class="node">
            <title>org.springframework</title>
            <polygon fill="lightgrey" stroke="black"
                     points="535.5,-59 401.5,-59 401.5,-55 397.5,-55 397.5,-51 401.5,-51 401.5,-31 397.5,-31 397.5,-27 401.5,-27 401.5,-23 535.5,-23 535.5,-59"/>
            <polyline fill="none" stroke="black" points="401.5,-55 405.5,-55 405.5,-51 401.5,-51 "/>
            <polyline fill="none" stroke="black" points="401.5,-31 405.5,-31 405.5,-27 401.5,-27 "/>
            <text text-anchor="middle" x="468.5" y="-37.3" font-family="Times New Roman,serif" font-size="14.00">
                org.springframework
            </text>
        </g>
        <!-- bouquet.application&#45;&gt;org.springframework -->
        <g id="edge13" class="edge">
            <title>bouquet.application&#45;&gt;org.springframework</title>
            <path fill="none" stroke="black" d="M476.25,-166.76C476.25,-166.76 476.25,-69.09 476.25,-69.09"/>
            <polygon fill="black" stroke="black" points="479.75,-69.09 476.25,-59.09 472.75,-69.09 479.75,-69.09"/>
        </g>
        <!-- bouquet.domain&#45;&gt;org.springframework -->
        <g id="edge11" class="edge">
            <title>bouquet.domain&#45;&gt;org.springframework</title>
            <path fill="none" stroke="black" d="M516,-94.83C516,-94.83 516,-69.41 516,-69.41"/>
            <polygon fill="black" stroke="black" points="519.5,-69.41 516,-59.41 512.5,-69.41 519.5,-69.41"/>
        </g>
        <!-- bouquet.infrastructure -->
        <g id="node3" class="node">
            <title>bouquet.infrastructure</title>
            <polygon fill="#eedd82" stroke="black"
                     points="553.5,-275 435.5,-275 435.5,-271 431.5,-271 431.5,-267 435.5,-267 435.5,-247 431.5,-247 431.5,-243 435.5,-243 435.5,-239 553.5,-239 553.5,-275"/>
            <polyline fill="none" stroke="black" points="435.5,-271 439.5,-271 439.5,-267 435.5,-267 "/>
            <polyline fill="none" stroke="black" points="435.5,-247 439.5,-247 439.5,-243 435.5,-243 "/>
            <text text-anchor="middle" x="494.5" y="-252" font-family="Times New Roman,serif" font-size="20.00">インフラ層
            </text>
        </g>
        <!-- bouquet.infrastructure&#45;&gt;bouquet.application -->
        <g id="edge4" class="edge">
            <title>bouquet.infrastructure&#45;&gt;bouquet.application</title>
            <path fill="none" stroke="black" d="M504.75,-238.83C504.75,-238.83 504.75,-213.41 504.75,-213.41"/>
            <polygon fill="black" stroke="black" points="508.25,-213.41 504.75,-203.41 501.25,-213.41 508.25,-213.41"/>
        </g>
        <!-- bouquet.infrastructure&#45;&gt;bouquet.domain -->
        <g id="edge17" class="edge">
            <title>bouquet.infrastructure&#45;&gt;bouquet.domain</title>
            <path fill="none" stroke="black"
                  d="M450.88,-238.76C450.88,-200.01 450.88,-113 450.88,-113 450.88,-113 486.46,-113 486.46,-113"/>
            <polygon fill="black" stroke="black" points="486.46,-116.5 496.46,-113 486.46,-109.5 486.46,-116.5"/>
        </g>
        <!-- bouquet.infrastructure&#45;&gt;org.springframework -->
        <g id="edge12" class="edge">
            <title>bouquet.infrastructure&#45;&gt;org.springframework</title>
            <path fill="none" stroke="black" d="M445.75,-238.96C445.75,-238.96 445.75,-69.15 445.75,-69.15"/>
            <polygon fill="black" stroke="black" points="449.25,-69.15 445.75,-59.15 442.25,-69.15 449.25,-69.15"/>
        </g>
        <!-- io.jsonwebtoken -->
        <g id="node7" class="node">
            <title>io.jsonwebtoken</title>
            <polygon fill="lightgrey" stroke="black"
                     points="337.5,-203 229.5,-203 229.5,-199 225.5,-199 225.5,-195 229.5,-195 229.5,-175 225.5,-175 225.5,-171 229.5,-171 229.5,-167 337.5,-167 337.5,-203"/>
            <polyline fill="none" stroke="black" points="229.5,-199 233.5,-199 233.5,-195 229.5,-195 "/>
            <polyline fill="none" stroke="black" points="229.5,-175 233.5,-175 233.5,-171 229.5,-171 "/>
            <text text-anchor="middle" x="283.5" y="-181.3" font-family="Times New Roman,serif" font-size="14.00">
                io.jsonwebtoken
            </text>
        </g>
        <!-- bouquet.infrastructure&#45;&gt;io.jsonwebtoken -->
        <g id="edge6" class="edge">
            <title>bouquet.infrastructure&#45;&gt;io.jsonwebtoken</title>
            <path fill="none" stroke="black"
                  d="M435.44,-248C373.02,-248 283.5,-248 283.5,-248 283.5,-248 283.5,-213.22 283.5,-213.22"/>
            <polygon fill="black" stroke="black" points="287,-213.22 283.5,-203.22 280,-213.22 287,-213.22"/>
        </g>
        <!-- io.swagger -->
        <g id="node8" class="node">
            <title>io.swagger</title>
            <polygon fill="lightgrey" stroke="black"
                     points="77,-203 0,-203 0,-199 -4,-199 -4,-195 0,-195 0,-175 -4,-175 -4,-171 0,-171 0,-167 77,-167 77,-203"/>
            <polyline fill="none" stroke="black" points="0,-199 4,-199 4,-195 0,-195 "/>
            <polyline fill="none" stroke="black" points="0,-175 4,-175 4,-171 0,-171 "/>
            <text text-anchor="middle" x="38.5" y="-181.3" font-family="Times New Roman,serif" font-size="14.00">
                io.swagger
            </text>
        </g>
        <!-- bouquet.infrastructure&#45;&gt;io.swagger -->
        <g id="edge9" class="edge">
            <title>bouquet.infrastructure&#45;&gt;io.swagger</title>
            <path fill="none" stroke="black"
                  d="M435.19,-266C314.43,-266 51.33,-266 51.33,-266 51.33,-266 51.33,-213.38 51.33,-213.38"/>
            <polygon fill="black" stroke="black" points="54.83,-213.38 51.33,-203.38 47.83,-213.38 54.83,-213.38"/>
        </g>
        <!-- org.slf4j -->
        <g id="node9" class="node">
            <title>org.slf4j</title>
            <polygon fill="lightgrey" stroke="black"
                     points="417.5,-203 355.5,-203 355.5,-199 351.5,-199 351.5,-195 355.5,-195 355.5,-175 351.5,-175 351.5,-171 355.5,-171 355.5,-167 417.5,-167 417.5,-203"/>
            <polyline fill="none" stroke="black" points="355.5,-199 359.5,-199 359.5,-195 355.5,-195 "/>
            <polyline fill="none" stroke="black" points="355.5,-175 359.5,-175 359.5,-171 355.5,-171 "/>
            <text text-anchor="middle" x="386.5" y="-181.3" font-family="Times New Roman,serif" font-size="14.00">
                org.slf4j
            </text>
        </g>
        <!-- bouquet.infrastructure&#45;&gt;org.slf4j -->
        <g id="edge10" class="edge">
            <title>bouquet.infrastructure&#45;&gt;org.slf4j</title>
            <path fill="none" stroke="black"
                  d="M440.62,-238.83C440.62,-217.5 440.62,-185 440.62,-185 440.62,-185 427.67,-185 427.67,-185"/>
            <polygon fill="black" stroke="black" points="427.67,-181.5 417.67,-185 427.67,-188.5 427.67,-181.5"/>
        </g>
        <!-- org.apache -->
        <g id="node10" class="node">
            <title>org.apache</title>
            <polygon fill="lightgrey" stroke="black"
                     points="173.5,-203 95.5,-203 95.5,-199 91.5,-199 91.5,-195 95.5,-195 95.5,-175 91.5,-175 91.5,-171 95.5,-171 95.5,-167 173.5,-167 173.5,-203"/>
            <polyline fill="none" stroke="black" points="95.5,-199 99.5,-199 99.5,-195 95.5,-195 "/>
            <polyline fill="none" stroke="black" points="95.5,-175 99.5,-175 99.5,-171 95.5,-171 "/>
            <text text-anchor="middle" x="134.5" y="-181.3" font-family="Times New Roman,serif" font-size="14.00">
                org.apache
            </text>
        </g>
        <!-- bouquet.infrastructure&#45;&gt;org.apache -->
        <g id="edge15" class="edge">
            <title>bouquet.infrastructure&#45;&gt;org.apache</title>
            <path fill="none" stroke="black"
                  d="M435.46,-257C333.33,-257 134.5,-257 134.5,-257 134.5,-257 134.5,-213.17 134.5,-213.17"/>
            <polygon fill="black" stroke="black" points="138,-213.17 134.5,-203.17 131,-213.17 138,-213.17"/>
        </g>
        <!-- bouquet.presentation -->
        <g id="node4" class="node">
            <title>bouquet.presentation</title>
            <polygon fill="#eedd82" stroke="black"
                     points="655,-347 436,-347 436,-343 432,-343 432,-339 436,-339 436,-319 432,-319 432,-315 436,-315 436,-311 655,-311 655,-347"/>
            <polyline fill="none" stroke="black" points="436,-343 440,-343 440,-339 436,-339 "/>
            <polyline fill="none" stroke="black" points="436,-319 440,-319 440,-315 436,-315 "/>
            <text text-anchor="middle" x="545.5" y="-324" font-family="Times New Roman,serif" font-size="20.00">
                プレゼンテーション層
            </text>
        </g>
        <!-- bouquet.presentation&#45;&gt;bouquet.application -->
        <g id="edge7" class="edge">
            <title>bouquet.presentation&#45;&gt;bouquet.application</title>
            <path fill="none" stroke="black" d="M604.25,-310.76C604.25,-310.76 604.25,-213.09 604.25,-213.09"/>
            <polygon fill="black" stroke="black" points="607.75,-213.09 604.25,-203.09 600.75,-213.09 607.75,-213.09"/>
        </g>
        <!-- bouquet.presentation&#45;&gt;bouquet.domain -->
        <g id="edge3" class="edge">
            <title>bouquet.presentation&#45;&gt;bouquet.domain</title>
            <path fill="none" stroke="black"
                  d="M655.22,-329C666.12,-329 673.25,-329 673.25,-329 673.25,-329 673.25,-113 673.25,-113 673.25,-113 624.72,-113 624.72,-113"/>
            <polygon fill="black" stroke="black" points="624.72,-109.5 614.72,-113 624.72,-116.5 624.72,-109.5"/>
        </g>
        <!-- bouquet.presentation&#45;&gt;bouquet.infrastructure -->
        <g id="edge5" class="edge">
            <title>bouquet.presentation&#45;&gt;bouquet.infrastructure</title>
            <path fill="none" stroke="black" d="M494.75,-310.83C494.75,-310.83 494.75,-285.41 494.75,-285.41"/>
            <polygon fill="black" stroke="black" points="498.25,-285.41 494.75,-275.41 491.25,-285.41 498.25,-285.41"/>
        </g>
        <!-- bouquet.presentation&#45;&gt;org.springframework -->
        <g id="edge1" class="edge">
            <title>bouquet.presentation&#45;&gt;org.springframework</title>
            <path fill="none" stroke="black"
                  d="M435.84,-323C430.02,-323 426.5,-323 426.5,-323 426.5,-323 426.5,-69.07 426.5,-69.07"/>
            <polygon fill="black" stroke="black" points="430,-69.07 426.5,-59.07 423,-69.07 430,-69.07"/>
        </g>
        <!-- bouquet.presentation&#45;&gt;io.swagger -->
        <g id="edge14" class="edge">
            <title>bouquet.presentation&#45;&gt;io.swagger</title>
            <path fill="none" stroke="black"
                  d="M435.89,-335C283.38,-335 25.67,-335 25.67,-335 25.67,-335 25.67,-213.09 25.67,-213.09"/>
            <polygon fill="black" stroke="black" points="29.17,-213.09 25.67,-203.09 22.17,-213.09 29.17,-213.09"/>
        </g>
        <!-- bouquet -->
        <g id="node6" class="node">
            <title>bouquet</title>
            <polygon fill="lightgrey" stroke="black"
                     points="753.5,-347 691.5,-347 691.5,-343 687.5,-343 687.5,-339 691.5,-339 691.5,-319 687.5,-319 687.5,-315 691.5,-315 691.5,-311 753.5,-311 753.5,-347"/>
            <polyline fill="none" stroke="black" points="691.5,-343 695.5,-343 695.5,-339 691.5,-339 "/>
            <polyline fill="none" stroke="black" points="691.5,-319 695.5,-319 695.5,-315 691.5,-315 "/>
            <text text-anchor="middle" x="722.5" y="-325.3" font-family="Times New Roman,serif" font-size="14.00">
                bouquet
            </text>
        </g>
        <!-- bouquet&#45;&gt;bouquet.application -->
        <g id="edge8" class="edge">
            <title>bouquet&#45;&gt;bouquet.application</title>
            <path fill="none" stroke="black"
                  d="M722.5,-310.76C722.5,-272.01 722.5,-185 722.5,-185 722.5,-185 665.06,-185 665.06,-185"/>
            <polygon fill="black" stroke="black" points="665.06,-181.5 655.06,-185 665.06,-188.5 665.06,-181.5"/>
        </g>
        <!-- bouquet&#45;&gt;bouquet.infrastructure -->
        <g id="edge2" class="edge">
            <title>bouquet&#45;&gt;bouquet.infrastructure</title>
            <path fill="none" stroke="black"
                  d="M707,-310.83C707,-289.5 707,-257 707,-257 707,-257 563.69,-257 563.69,-257"/>
            <polygon fill="black" stroke="black" points="563.69,-253.5 553.69,-257 563.69,-260.5 563.69,-253.5"/>
        </g>
        <!-- bouquet&#45;&gt;org.springframework -->
        <g id="edge16" class="edge">
            <title>bouquet&#45;&gt;org.springframework</title>
            <path fill="none" stroke="black"
                  d="M738,-310.98C738,-247.93 738,-41 738,-41 738,-41 545.81,-41 545.81,-41"/>
            <polygon fill="black" stroke="black" points="545.81,-37.5 535.81,-41 545.81,-44.5 545.81,-37.5"/>
        </g>
    </g>
</svg>
