<?xml version="1.0" encoding="UTF-8" standalone="no"?>
<!DOCTYPE svg PUBLIC "-//W3C//DTD SVG 1.1//EN"
        "http://www.w3.org/Graphics/SVG/1.1/DTD/svg11.dtd">
<!-- Generated by graphviz version 3.0.0 (20220226.1711)
 -->
<!-- Title: アーキテクチャ図 Pages: 1 -->
<svg width="608pt" height="243pt"
     viewBox="0.00 0.00 608.00 243.00" xmlns="http://www.w3.org/2000/svg">
    <g id="graph0" class="graph" transform="scale(1 1) rotate(0) translate(4 239)">
        <title>アーキテクチャ図</title>
        <polygon fill="white" stroke="transparent" points="-4,4 -4,-239 604,-239 604,4 -4,4"/>
        <text text-anchor="middle" x="300" y="-7.8" font-family="Times New Roman,serif" font-size="14.00">アーキテクチャ図
        </text>
        <g id="clust1" class="cluster">
            <title>clusterArchitecture</title>
            <polygon fill="lightyellow" stroke="#eedd82" points="86,-31 86,-227 458,-227 458,-31 86,-31"/>
        </g>
        <!-- bouquet.application -->
        <g id="node1" class="node">
            <title>bouquet.application</title>
            <polygon fill="#eedd82" stroke="black"
                     points="392.5,-147 193.5,-147 193.5,-143 189.5,-143 189.5,-139 193.5,-139 193.5,-119 189.5,-119 189.5,-115 193.5,-115 193.5,-111 392.5,-111 392.5,-147"/>
            <polyline fill="none" stroke="black" points="193.5,-143 197.5,-143 197.5,-139 193.5,-139 "/>
            <polyline fill="none" stroke="black" points="193.5,-119 197.5,-119 197.5,-115 193.5,-115 "/>
            <text text-anchor="middle" x="293" y="-124" font-family="Times New Roman,serif" font-size="20.00">
                アプリケーション層
            </text>
        </g>
        <!-- bouquet.domain -->
        <g id="node2" class="node">
            <title>bouquet.domain</title>
            <polygon fill="#eedd82" stroke="black"
                     points="277,-75 159,-75 159,-71 155,-71 155,-67 159,-67 159,-47 155,-47 155,-43 159,-43 159,-39 277,-39 277,-75"/>
            <polyline fill="none" stroke="black" points="159,-71 163,-71 163,-67 159,-67 "/>
            <polyline fill="none" stroke="black" points="159,-47 163,-47 163,-43 159,-43 "/>
            <text text-anchor="middle" x="218" y="-52" font-family="Times New Roman,serif" font-size="20.00">ドメイン層
            </text>
        </g>
        <!-- bouquet.application&#45;&gt;bouquet.domain -->
        <g id="edge9" class="edge">
            <title>bouquet.application&#45;&gt;bouquet.domain</title>
            <path fill="none" stroke="black" d="M235.25,-110.83C235.25,-110.83 235.25,-85.41 235.25,-85.41"/>
            <polygon fill="black" stroke="black" points="238.75,-85.41 235.25,-75.41 231.75,-85.41 238.75,-85.41"/>
        </g>
        <!-- org.springframework -->
        <g id="node6" class="node">
            <title>org.springframework</title>
            <polygon fill="lightgrey" stroke="black"
                     points="600,-75 466,-75 466,-71 462,-71 462,-67 466,-67 466,-47 462,-47 462,-43 466,-43 466,-39 600,-39 600,-75"/>
            <polyline fill="none" stroke="black" points="466,-71 470,-71 470,-67 466,-67 "/>
            <polyline fill="none" stroke="black" points="466,-47 470,-47 470,-43 466,-43 "/>
            <text text-anchor="middle" x="533" y="-53.3" font-family="Times New Roman,serif" font-size="14.00">
                org.springframework
            </text>
        </g>
        <!-- bouquet.application&#45;&gt;org.springframework -->
        <g id="edge5" class="edge">
            <title>bouquet.application&#45;&gt;org.springframework</title>
            <path fill="none" stroke="black"
                  d="M392.53,-123C433.14,-123 470.75,-123 470.75,-123 470.75,-123 470.75,-85.03 470.75,-85.03"/>
            <polygon fill="black" stroke="black" points="474.25,-85.03 470.75,-75.03 467.25,-85.03 474.25,-85.03"/>
        </g>
        <!-- bouquet.infrastructure -->
        <g id="node3" class="node">
            <title>bouquet.infrastructure</title>
            <polygon fill="#eedd82" stroke="black"
                     points="212,-219 94,-219 94,-215 90,-215 90,-211 94,-211 94,-191 90,-191 90,-187 94,-187 94,-183 212,-183 212,-219"/>
            <polyline fill="none" stroke="black" points="94,-215 98,-215 98,-211 94,-211 "/>
            <polyline fill="none" stroke="black" points="94,-191 98,-191 98,-187 94,-187 "/>
            <text text-anchor="middle" x="153" y="-196" font-family="Times New Roman,serif" font-size="20.00">インフラ層
            </text>
        </g>
        <!-- bouquet.infrastructure&#45;&gt;bouquet.application -->
        <g id="edge3" class="edge">
            <title>bouquet.infrastructure&#45;&gt;bouquet.application</title>
            <path fill="none" stroke="black" d="M199.67,-182.83C199.67,-182.83 199.67,-157.41 199.67,-157.41"/>
            <polygon fill="black" stroke="black" points="203.17,-157.41 199.67,-147.41 196.17,-157.41 203.17,-157.41"/>
        </g>
        <!-- bouquet.infrastructure&#45;&gt;bouquet.domain -->
        <g id="edge8" class="edge">
            <title>bouquet.infrastructure&#45;&gt;bouquet.domain</title>
            <path fill="none" stroke="black" d="M176.25,-182.76C176.25,-182.76 176.25,-85.09 176.25,-85.09"/>
            <polygon fill="black" stroke="black" points="179.75,-85.09 176.25,-75.09 172.75,-85.09 179.75,-85.09"/>
        </g>
        <!-- bouquet.infrastructure&#45;&gt;org.springframework -->
        <g id="edge4" class="edge">
            <title>bouquet.infrastructure&#45;&gt;org.springframework</title>
            <path fill="none" stroke="black"
                  d="M205.83,-182.58C205.83,-173.72 205.83,-165 205.83,-165 205.83,-165 475.5,-165 475.5,-165 475.5,-165 475.5,-85.32 475.5,-85.32"/>
            <polygon fill="black" stroke="black" points="479,-85.32 475.5,-75.32 472,-85.32 479,-85.32"/>
        </g>
        <!-- org.apache -->
        <g id="node7" class="node">
            <title>org.apache</title>
            <polygon fill="lightgrey" stroke="black"
                     points="78,-147 0,-147 0,-143 -4,-143 -4,-139 0,-139 0,-119 -4,-119 -4,-115 0,-115 0,-111 78,-111 78,-147"/>
            <polyline fill="none" stroke="black" points="0,-143 4,-143 4,-139 0,-139 "/>
            <polyline fill="none" stroke="black" points="0,-119 4,-119 4,-115 0,-115 "/>
            <text text-anchor="middle" x="39" y="-125.3" font-family="Times New Roman,serif" font-size="14.00">
                org.apache
            </text>
        </g>
        <!-- bouquet.infrastructure&#45;&gt;org.apache -->
        <g id="edge6" class="edge">
            <title>bouquet.infrastructure&#45;&gt;org.apache</title>
            <path fill="none" stroke="black"
                  d="M126.5,-182.83C126.5,-161.5 126.5,-129 126.5,-129 126.5,-129 88.14,-129 88.14,-129"/>
            <polygon fill="black" stroke="black" points="88.14,-125.5 78.14,-129 88.14,-132.5 88.14,-125.5"/>
        </g>
        <!-- bouquet.presentation -->
        <g id="node4" class="node">
            <title>bouquet.presentation</title>
            <polygon fill="#eedd82" stroke="black"
                     points="449.5,-219 230.5,-219 230.5,-215 226.5,-215 226.5,-211 230.5,-211 230.5,-191 226.5,-191 226.5,-187 230.5,-187 230.5,-183 449.5,-183 449.5,-219"/>
            <polyline fill="none" stroke="black" points="230.5,-215 234.5,-215 234.5,-211 230.5,-211 "/>
            <polyline fill="none" stroke="black" points="230.5,-191 234.5,-191 234.5,-187 230.5,-187 "/>
            <text text-anchor="middle" x="340" y="-196" font-family="Times New Roman,serif" font-size="20.00">
                プレゼンテーション層
            </text>
        </g>
        <!-- bouquet.presentation&#45;&gt;org.springframework -->
        <g id="edge2" class="edge">
            <title>bouquet.presentation&#45;&gt;org.springframework</title>
            <path fill="none" stroke="black"
                  d="M449.82,-201C467.56,-201 480.25,-201 480.25,-201 480.25,-201 480.25,-85.24 480.25,-85.24"/>
            <polygon fill="black" stroke="black" points="483.75,-85.24 480.25,-75.24 476.75,-85.24 483.75,-85.24"/>
        </g>
        <!-- bouquet -->
        <g id="node5" class="node">
            <title>bouquet</title>
            <polygon fill="lightgrey" stroke="black"
                     points="547,-219 485,-219 485,-215 481,-215 481,-211 485,-211 485,-191 481,-191 481,-187 485,-187 485,-183 547,-183 547,-219"/>
            <polyline fill="none" stroke="black" points="485,-215 489,-215 489,-211 485,-211 "/>
            <polyline fill="none" stroke="black" points="485,-191 489,-191 489,-187 485,-187 "/>
            <text text-anchor="middle" x="516" y="-197.3" font-family="Times New Roman,serif" font-size="14.00">
                bouquet
            </text>
        </g>
        <!-- bouquet&#45;&gt;bouquet.application -->
        <g id="edge1" class="edge">
            <title>bouquet&#45;&gt;bouquet.application</title>
            <path fill="none" stroke="black"
                  d="M505.67,-182.97C505.67,-163.42 505.67,-135 505.67,-135 505.67,-135 402.8,-135 402.8,-135"/>
            <polygon fill="black" stroke="black" points="402.8,-131.5 392.8,-135 402.79,-138.5 402.8,-131.5"/>
        </g>
        <!-- bouquet&#45;&gt;org.springframework -->
        <g id="edge7" class="edge">
            <title>bouquet&#45;&gt;org.springframework</title>
            <path fill="none" stroke="black" d="M526.33,-182.76C526.33,-182.76 526.33,-85.09 526.33,-85.09"/>
            <polygon fill="black" stroke="black" points="529.83,-85.09 526.33,-75.09 522.83,-85.09 529.83,-85.09"/>
        </g>
    </g>
</svg>
