<?xml version="1.0" encoding="UTF-8" standalone="no"?>
<!DOCTYPE svg PUBLIC "-//W3C//DTD SVG 1.1//EN"
        "http://www.w3.org/Graphics/SVG/1.1/DTD/svg11.dtd">
<!-- Generated by graphviz version 3.0.0 (20220226.1711)
 -->
<!-- Title: ビジネスルール関連図 Pages: 1 -->
<svg width="567pt" height="272pt"
     viewBox="0.00 0.00 567.00 272.00" xmlns="http://www.w3.org/2000/svg">
    <g id="graph0" class="graph" transform="scale(1 1) rotate(0) translate(4 268)">
        <title>ビジネスルール関連図</title>
        <polygon fill="white" stroke="transparent" points="-4,4 -4,-268 563,-268 563,4 -4,4"/>
        <text text-anchor="middle" x="279.5" y="-7.8" font-family="Times New Roman,serif" font-size="14.00">
            ビジネスルール関連図
        </text>
        <g id="clust1" class="cluster">
            <title>cluster_bouquet.domain.model.auth</title>
            <polygon fill="lemonchiffon" stroke="#eedd82" stroke-width="2"
                     points="8,-31 8,-256 456,-256 456,-31 8,-31"/>
            <text text-anchor="middle" x="232" y="-240.8" font-family="Times New Roman,serif" font-size="14.00">auth
            </text>
        </g>
        <g id="clust2" class="cluster">
            <title>cluster_bouquet.domain.model.autogen.auth</title>
            <polygon fill="lemonchiffon" stroke="#eedd82" stroke-width="2"
                     points="464,-180 464,-255 551,-255 551,-180 464,-180"/>
            <text text-anchor="middle" x="507.5" y="-239.8" font-family="Times New Roman,serif" font-size="14.00">
                autogen.auth
            </text>
        </g>
        <!-- bouquet.domain.model.auth.Name -->
        <g id="node1" class="node">
            <title>bouquet.domain.model.auth.Name</title>
            <polygon fill="#eedd82" stroke="black" points="330,-77 276,-77 276,-39 330,-39 330,-77"/>
            <text text-anchor="middle" x="303" y="-61.8" font-family="Times New Roman,serif" font-size="14.00">名前
            </text>
            <text text-anchor="middle" x="303" y="-46.8" font-family="Times New Roman,serif" font-size="14.00">Name
            </text>
        </g>
        <!-- bouquet.domain.model.auth.Password -->
        <g id="node2" class="node">
            <title>bouquet.domain.model.auth.Password</title>
            <polygon fill="#eedd82" stroke="black" points="119.5,-77 16.5,-77 16.5,-39 119.5,-39 119.5,-77"/>
            <text text-anchor="middle" x="68" y="-61.8" font-family="Times New Roman,serif" font-size="14.00">パスワード
            </text>
            <text text-anchor="middle" x="68" y="-46.8" font-family="Times New Roman,serif" font-size="14.00">Password
            </text>
        </g>
        <!-- bouquet.domain.model.auth.RoleName -->
        <g id="node3" class="node">
            <title>bouquet.domain.model.auth.RoleName</title>
            <polygon fill="#eedd82" stroke="black" points="258,-77 138,-77 138,-39 258,-39 258,-77"/>
            <text text-anchor="middle" x="198" y="-61.8" font-family="Times New Roman,serif" font-size="14.00">
                ユーザー区分
            </text>
            <text text-anchor="middle" x="198" y="-46.8" font-family="Times New Roman,serif" font-size="14.00">
                RoleName
            </text>
        </g>
        <!-- bouquet.domain.model.auth.User -->
        <g id="node4" class="node">
            <title>bouquet.domain.model.auth.User</title>
            <polygon fill="#eedd82" stroke="black" points="303,-151 217,-151 217,-113 303,-113 303,-151"/>
            <text text-anchor="middle" x="260" y="-135.8" font-family="Times New Roman,serif" font-size="14.00">ユーザー
            </text>
            <text text-anchor="middle" x="260" y="-120.8" font-family="Times New Roman,serif" font-size="14.00">User
            </text>
        </g>
        <!-- bouquet.domain.model.auth.User&#45;&gt;bouquet.domain.model.auth.Name -->
        <g id="edge1" class="edge">
            <title>bouquet.domain.model.auth.User&#45;&gt;bouquet.domain.model.auth.Name</title>
            <path fill="none" stroke="black" d="M270.85,-112.83C275.7,-104.71 281.52,-94.96 286.87,-86.01"/>
            <polygon fill="black" stroke="black" points="289.88,-87.79 292,-77.41 283.87,-84.2 289.88,-87.79"/>
        </g>
        <!-- bouquet.domain.model.auth.User&#45;&gt;bouquet.domain.model.auth.Password -->
        <g id="edge2" class="edge">
            <title>bouquet.domain.model.auth.User&#45;&gt;bouquet.domain.model.auth.Password</title>
            <path fill="none" stroke="black" d="M216.91,-114.84C189.99,-104.75 155,-91.63 125.7,-80.64"/>
            <polygon fill="black" stroke="black" points="126.6,-77.24 116,-77 124.14,-83.79 126.6,-77.24"/>
        </g>
        <!-- bouquet.domain.model.auth.User&#45;&gt;bouquet.domain.model.auth.RoleName -->
        <g id="edge3" class="edge">
            <title>bouquet.domain.model.auth.User&#45;&gt;bouquet.domain.model.auth.RoleName</title>
            <path fill="none" stroke="black" d="M244.35,-112.83C237.14,-104.45 228.44,-94.35 220.54,-85.17"/>
            <polygon fill="black" stroke="black" points="223.03,-82.71 213.86,-77.41 217.73,-87.27 223.03,-82.71"/>
        </g>
        <!-- bouquet.domain.model.auth.UserId -->
        <g id="node6" class="node">
            <title>bouquet.domain.model.auth.UserId</title>
            <polygon fill="#eedd82" stroke="black" points="448,-77 348,-77 348,-39 448,-39 448,-77"/>
            <text text-anchor="middle" x="398" y="-61.8" font-family="Times New Roman,serif" font-size="14.00">ユーザーID
            </text>
            <text text-anchor="middle" x="398" y="-46.8" font-family="Times New Roman,serif" font-size="14.00">UserId
            </text>
        </g>
        <!-- bouquet.domain.model.auth.User&#45;&gt;bouquet.domain.model.auth.UserId -->
        <g id="edge4" class="edge">
            <title>bouquet.domain.model.auth.User&#45;&gt;bouquet.domain.model.auth.UserId</title>
            <path fill="none" stroke="black" d="M294.82,-112.83C312.8,-103.45 334.92,-91.91 354.06,-81.92"/>
            <polygon fill="black" stroke="black" points="355.94,-84.89 363.19,-77.16 352.7,-78.69 355.94,-84.89"/>
        </g>
        <!-- bouquet.domain.model.auth.UserDetailsImpl -->
        <g id="node5" class="node">
            <title>bouquet.domain.model.auth.UserDetailsImpl</title>
            <polygon fill="#eedd82" stroke="black" points="289,-225 169,-225 169,-187 289,-187 289,-225"/>
            <text text-anchor="middle" x="229" y="-209.8" font-family="Times New Roman,serif" font-size="14.00">
                認証ユーザー
            </text>
            <text text-anchor="middle" x="229" y="-194.8" font-family="Times New Roman,serif" font-size="14.00">
                UserDetailsImpl
            </text>
        </g>
        <!-- bouquet.domain.model.auth.UserDetailsImpl&#45;&gt;bouquet.domain.model.auth.Password -->
        <g id="edge5" class="edge">
            <title>bouquet.domain.model.auth.UserDetailsImpl&#45;&gt;bouquet.domain.model.auth.Password</title>
            <path fill="none" stroke="black" d="M208.93,-186.8C180.42,-160.94 128.05,-113.45 95.8,-84.21"/>
            <polygon fill="black" stroke="black" points="97.82,-81.32 88.06,-77.2 93.12,-86.51 97.82,-81.32"/>
        </g>
        <!-- bouquet.domain.model.auth.UserDetailsImpl&#45;&gt;bouquet.domain.model.auth.RoleName -->
        <g id="edge6" class="edge">
            <title>bouquet.domain.model.auth.UserDetailsImpl&#45;&gt;bouquet.domain.model.auth.RoleName</title>
            <path fill="none" stroke="black"
                  d="M220.58,-186.89C216.14,-176.59 211.01,-163.31 208,-151 202.87,-129.99 200.37,-105.65 199.15,-87.28"/>
            <polygon fill="black" stroke="black" points="202.64,-87.01 198.57,-77.22 195.65,-87.41 202.64,-87.01"/>
        </g>
        <!-- bouquet.domain.model.auth.UserDetailsImpl&#45;&gt;bouquet.domain.model.auth.User -->
        <g id="edge7" class="edge">
            <title>bouquet.domain.model.auth.UserDetailsImpl&#45;&gt;bouquet.domain.model.auth.User</title>
            <path fill="none" stroke="black" d="M236.82,-186.83C240.21,-178.96 244.25,-169.57 248.01,-160.85"/>
            <polygon fill="black" stroke="black" points="251.33,-161.98 252.07,-151.41 244.9,-159.21 251.33,-161.98"/>
        </g>
        <!-- bouquet.domain.model.auth.UserDetailsImpl&#45;&gt;bouquet.domain.model.auth.UserId -->
        <g id="edge8" class="edge">
            <title>bouquet.domain.model.auth.UserDetailsImpl&#45;&gt;bouquet.domain.model.auth.UserId</title>
            <path fill="none" stroke="black"
                  d="M260.61,-186.94C276.65,-177.16 296.06,-164.37 312,-151 336.04,-130.84 360.15,-104.37 376.7,-85"/>
            <polygon fill="black" stroke="black" points="379.53,-87.08 383.31,-77.18 374.18,-82.56 379.53,-87.08"/>
        </g>
        <!-- bouquet.domain.model.autogen.auth.Usr -->
        <g id="node7" class="node">
            <title>bouquet.domain.model.autogen.auth.Usr</title>
            <polygon fill="#eedd82" stroke="red" points="534,-224 480,-224 480,-188 534,-188 534,-224"/>
            <text text-anchor="middle" x="507" y="-202.3" font-family="Times New Roman,serif" font-size="14.00">Usr
            </text>
        </g>
    </g>
</svg>
