<?xml version="1.0" encoding="UTF-8" standalone="no"?>
<!DOCTYPE svg PUBLIC "-//W3C//DTD SVG 1.1//EN"
        "http://www.w3.org/Graphics/SVG/1.1/DTD/svg11.dtd">
<!-- Generated by graphviz version 3.0.0 (20220226.1711)
 -->
<!-- Title: 集中ビジネスルールツリー図 Pages: 1 -->
<svg width="343pt" height="105pt"
     viewBox="0.00 0.00 343.00 105.00" xmlns="http://www.w3.org/2000/svg">
    <g id="graph0" class="graph" transform="scale(1 1) rotate(0) translate(4 101)">
        <title>集中ビジネスルールツリー図</title>
        <polygon fill="white" stroke="transparent" points="-4,4 -4,-101 339,-101 339,4 -4,4"/>
        <text text-anchor="middle" x="167.5" y="-7.8" font-family="Times New Roman,serif" font-size="14.00">
            集中ビジネスルールツリー図
        </text>
        <!-- bouquet.domain.model.RoleName -->
        <g id="node1" class="node">
            <title>bouquet.domain.model.RoleName</title>
            <polygon fill="#eedd82" stroke="black" points="335,-97 122,-97 122,-23 335,-23 335,-97"/>
            <text text-anchor="middle" x="228.5" y="-69" font-family="Times New Roman,serif" font-size="30.00">
                ユーザー区分
            </text>
            <text text-anchor="middle" x="228.5" y="-36" font-family="Times New Roman,serif" font-size="30.00">
                RoleName
            </text>
        </g>
        <!-- bouquet.domain.model.User -->
        <g id="node2" class="node">
            <title>bouquet.domain.model.User</title>
            <polygon fill="lemonchiffon" stroke="black" points="86,-79 0,-79 0,-41 86,-41 86,-79"/>
            <text text-anchor="middle" x="43" y="-63.8" font-family="Times New Roman,serif" font-size="14.00">ユーザー
            </text>
            <text text-anchor="middle" x="43" y="-48.8" font-family="Times New Roman,serif" font-size="14.00">User
            </text>
        </g>
        <!-- bouquet.domain.model.User&#45;&gt;bouquet.domain.model.RoleName -->
        <g id="edge1" class="edge">
            <title>bouquet.domain.model.User&#45;&gt;bouquet.domain.model.RoleName</title>
            <path fill="none" stroke="black" d="M86.1,-60C94.02,-60 102.64,-60 111.6,-60"/>
            <polygon fill="black" stroke="black" points="111.83,-63.5 121.83,-60 111.83,-56.5 111.83,-63.5"/>
        </g>
    </g>
</svg>
