<?xml version="1.0" encoding="UTF-8" standalone="no"?>
<!DOCTYPE svg PUBLIC "-//W3C//DTD SVG 1.1//EN"
        "http://www.w3.org/Graphics/SVG/1.1/DTD/svg11.dtd">
<!-- Generated by graphviz version 3.0.0 (20220226.1711)
 -->
<!-- Title: ビジネスルール関連図 Pages: 1 -->
<svg width="567pt" height="198pt"
     viewBox="0.00 0.00 567.00 198.00" xmlns="http://www.w3.org/2000/svg">
    <g id="graph0" class="graph" transform="scale(1 1) rotate(0) translate(4 194)">
        <title>ビジネスルール関連図</title>
        <polygon fill="white" stroke="transparent" points="-4,4 -4,-194 563,-194 563,4 -4,4"/>
        <text text-anchor="middle" x="279.5" y="-7.8" font-family="Times New Roman,serif" font-size="14.00">
            ビジネスルール関連図
        </text>
        <g id="clust2" class="cluster">
            <title>cluster_bouquet.domain.model.autogen.auth</title>
            <polygon fill="lemonchiffon" stroke="#eedd82" stroke-width="2"
                     points="464,-106 464,-181 551,-181 551,-106 464,-106"/>
            <text text-anchor="middle" x="507.5" y="-165.8" font-family="Times New Roman,serif" font-size="14.00">
                autogen.auth
            </text>
        </g>
        <g id="clust1" class="cluster">
            <title>cluster_bouquet.domain.model.auth</title>
            <polygon fill="lemonchiffon" stroke="#eedd82" stroke-width="2"
                     points="8,-31 8,-182 456,-182 456,-31 8,-31"/>
            <text text-anchor="middle" x="232" y="-166.8" font-family="Times New Roman,serif" font-size="14.00">auth
            </text>
        </g>
        <!-- bouquet.domain.model.auth.Name -->
        <g id="node1" class="node">
            <title>bouquet.domain.model.auth.Name</title>
            <polygon fill="#eedd82" stroke="black" points="70,-77 16,-77 16,-39 70,-39 70,-77"/>
            <text text-anchor="middle" x="43" y="-61.8" font-family="Times New Roman,serif" font-size="14.00">名前
            </text>
            <text text-anchor="middle" x="43" y="-46.8" font-family="Times New Roman,serif" font-size="14.00">Name
            </text>
        </g>
        <!-- bouquet.domain.model.auth.Password -->
        <g id="node2" class="node">
            <title>bouquet.domain.model.auth.Password</title>
            <polygon fill="#eedd82" stroke="black" points="191.5,-77 88.5,-77 88.5,-39 191.5,-39 191.5,-77"/>
            <text text-anchor="middle" x="140" y="-61.8" font-family="Times New Roman,serif" font-size="14.00">パスワード
            </text>
            <text text-anchor="middle" x="140" y="-46.8" font-family="Times New Roman,serif" font-size="14.00">
                Password
            </text>
        </g>
        <!-- bouquet.domain.model.auth.RoleName -->
        <g id="node3" class="node">
            <title>bouquet.domain.model.auth.RoleName</title>
            <polygon fill="#eedd82" stroke="black" points="330,-77 210,-77 210,-39 330,-39 330,-77"/>
            <text text-anchor="middle" x="270" y="-61.8" font-family="Times New Roman,serif" font-size="14.00">
                ユーザー区分
            </text>
            <text text-anchor="middle" x="270" y="-46.8" font-family="Times New Roman,serif" font-size="14.00">
                RoleName
            </text>
        </g>
        <!-- bouquet.domain.model.auth.User -->
        <g id="node4" class="node">
            <title>bouquet.domain.model.auth.User</title>
            <polygon fill="#eedd82" stroke="black" points="248,-151 162,-151 162,-113 248,-113 248,-151"/>
            <text text-anchor="middle" x="205" y="-135.8" font-family="Times New Roman,serif" font-size="14.00">ユーザー
            </text>
            <text text-anchor="middle" x="205" y="-120.8" font-family="Times New Roman,serif" font-size="14.00">User
            </text>
        </g>
        <!-- bouquet.domain.model.auth.User&#45;&gt;bouquet.domain.model.auth.Name -->
        <g id="edge1" class="edge">
            <title>bouquet.domain.model.auth.User&#45;&gt;bouquet.domain.model.auth.Name</title>
            <path fill="none" stroke="black"
                  d="M161.98,-112.98C137.78,-102.7 107.07,-89.42 80,-77 79.7,-76.86 79.39,-76.72 79.08,-76.58"/>
            <polygon fill="black" stroke="black" points="80.55,-73.4 70.01,-72.31 77.57,-79.74 80.55,-73.4"/>
        </g>
        <!-- bouquet.domain.model.auth.User&#45;&gt;bouquet.domain.model.auth.Password -->
        <g id="edge2" class="edge">
            <title>bouquet.domain.model.auth.User&#45;&gt;bouquet.domain.model.auth.Password</title>
            <path fill="none" stroke="black" d="M188.6,-112.83C180.96,-104.37 171.73,-94.15 163.38,-84.9"/>
            <polygon fill="black" stroke="black" points="165.92,-82.49 156.62,-77.41 160.73,-87.18 165.92,-82.49"/>
        </g>
        <!-- bouquet.domain.model.auth.User&#45;&gt;bouquet.domain.model.auth.RoleName -->
        <g id="edge3" class="edge">
            <title>bouquet.domain.model.auth.User&#45;&gt;bouquet.domain.model.auth.RoleName</title>
            <path fill="none" stroke="black" d="M221.4,-112.83C229.04,-104.37 238.27,-94.15 246.62,-84.9"/>
            <polygon fill="black" stroke="black" points="249.27,-87.18 253.38,-77.41 244.08,-82.49 249.27,-87.18"/>
        </g>
        <!-- bouquet.domain.model.auth.UserId -->
        <g id="node5" class="node">
            <title>bouquet.domain.model.auth.UserId</title>
            <polygon fill="#eedd82" stroke="black" points="448,-77 348,-77 348,-39 448,-39 448,-77"/>
            <text text-anchor="middle" x="398" y="-61.8" font-family="Times New Roman,serif" font-size="14.00">ユーザーID
            </text>
            <text text-anchor="middle" x="398" y="-46.8" font-family="Times New Roman,serif" font-size="14.00">UserId
            </text>
        </g>
        <!-- bouquet.domain.model.auth.User&#45;&gt;bouquet.domain.model.auth.UserId -->
        <g id="edge4" class="edge">
            <title>bouquet.domain.model.auth.User&#45;&gt;bouquet.domain.model.auth.UserId</title>
            <path fill="none" stroke="black" d="M248.31,-114.84C275.37,-104.75 310.55,-91.63 340,-80.64"/>
            <polygon fill="black" stroke="black" points="341.6,-83.78 349.75,-77 339.15,-77.22 341.6,-83.78"/>
        </g>
        <!-- bouquet.domain.model.autogen.auth.Usr -->
        <g id="node6" class="node">
            <title>bouquet.domain.model.autogen.auth.Usr</title>
            <polygon fill="#eedd82" stroke="red" points="534,-150 480,-150 480,-114 534,-114 534,-150"/>
            <text text-anchor="middle" x="507" y="-128.3" font-family="Times New Roman,serif" font-size="14.00">Usr
            </text>
        </g>
    </g>
</svg>
