<?xml version="1.0" encoding="UTF-8" standalone="no"?>
<!DOCTYPE svg PUBLIC "-//W3C//DTD SVG 1.1//EN"
        "http://www.w3.org/Graphics/SVG/1.1/DTD/svg11.dtd">
<!-- Generated by graphviz version 3.0.0 (20220226.1711)
 -->
<!-- Title: 集中ビジネスルールツリー図 Pages: 1 -->
<svg width="549pt" height="381pt"
     viewBox="0.00 0.00 549.00 381.00" xmlns="http://www.w3.org/2000/svg">
    <g id="graph0" class="graph" transform="scale(1 1) rotate(0) translate(4 377)">
        <title>集中ビジネスルールツリー図</title>
        <polygon fill="white" stroke="transparent" points="-4,4 -4,-377 545,-377 545,4 -4,4"/>
        <text text-anchor="middle" x="270.5" y="-7.8" font-family="Times New Roman,serif" font-size="14.00">
            集中ビジネスルールツリー図
        </text>
        <!-- bouquet.domain.model.auth.Name -->
        <g id="node1" class="node">
            <title>bouquet.domain.model.auth.Name</title>
            <polygon fill="#eedd82" stroke="black" points="482,-281 394,-281 394,-207 482,-207 482,-281"/>
            <text text-anchor="middle" x="438" y="-253" font-family="Times New Roman,serif" font-size="30.00">名前
            </text>
            <text text-anchor="middle" x="438" y="-220" font-family="Times New Roman,serif" font-size="30.00">Name
            </text>
        </g>
        <!-- bouquet.domain.model.auth.Password -->
        <g id="node2" class="node">
            <title>bouquet.domain.model.auth.Password</title>
            <polygon fill="#eedd82" stroke="black" points="525,-373 351,-373 351,-299 525,-299 525,-373"/>
            <text text-anchor="middle" x="438" y="-345" font-family="Times New Roman,serif" font-size="30.00">パスワード
            </text>
            <text text-anchor="middle" x="438" y="-312" font-family="Times New Roman,serif" font-size="30.00">Password
            </text>
        </g>
        <!-- bouquet.domain.model.auth.RoleName -->
        <g id="node3" class="node">
            <title>bouquet.domain.model.auth.RoleName</title>
            <polygon fill="#eedd82" stroke="black" points="541,-189 335,-189 335,-115 541,-115 541,-189"/>
            <text text-anchor="middle" x="438" y="-161" font-family="Times New Roman,serif" font-size="30.00">ユーザー区分
            </text>
            <text text-anchor="middle" x="438" y="-128" font-family="Times New Roman,serif" font-size="30.00">RoleName
            </text>
        </g>
        <!-- bouquet.domain.model.auth.User -->
        <g id="node4" class="node">
            <title>bouquet.domain.model.auth.User</title>
            <polygon fill="#eedd82" stroke="black" points="299,-254 156,-254 156,-180 299,-180 299,-254"/>
            <text text-anchor="middle" x="227.5" y="-226" font-family="Times New Roman,serif" font-size="30.00">ユーザー
            </text>
            <text text-anchor="middle" x="227.5" y="-193" font-family="Times New Roman,serif" font-size="30.00">User
            </text>
        </g>
        <!-- bouquet.domain.model.auth.User&#45;&gt;bouquet.domain.model.auth.Name -->
        <g id="edge1" class="edge">
            <title>bouquet.domain.model.auth.User&#45;&gt;bouquet.domain.model.auth.Name</title>
            <path fill="none" stroke="black" d="M299.09,-226.14C326.83,-229.73 358.14,-233.79 383.9,-237.12"/>
            <polygon fill="black" stroke="black" points="383.48,-240.6 393.85,-238.41 384.38,-233.66 383.48,-240.6"/>
        </g>
        <!-- bouquet.domain.model.auth.User&#45;&gt;bouquet.domain.model.auth.Password -->
        <g id="edge2" class="edge">
            <title>bouquet.domain.model.auth.User&#45;&gt;bouquet.domain.model.auth.Password</title>
            <path fill="none" stroke="black"
                  d="M278.78,-254.17C296.17,-266.28 316.05,-279.34 335,-290 337.54,-291.43 340.13,-292.85 342.76,-294.25"/>
            <polygon fill="black" stroke="black" points="341.34,-297.46 351.83,-298.98 344.58,-291.25 341.34,-297.46"/>
        </g>
        <!-- bouquet.domain.model.auth.User&#45;&gt;bouquet.domain.model.auth.RoleName -->
        <g id="edge5" class="edge">
            <title>bouquet.domain.model.auth.User&#45;&gt;bouquet.domain.model.auth.RoleName</title>
            <path fill="none" stroke="black" d="M299.09,-194.99C307.5,-192.37 316.25,-189.64 325.06,-186.9"/>
            <polygon fill="black" stroke="black" points="326.14,-190.23 334.65,-183.91 324.06,-183.54 326.14,-190.23"/>
        </g>
        <!-- bouquet.domain.model.auth.UserId -->
        <g id="node6" class="node">
            <title>bouquet.domain.model.auth.UserId</title>
            <polygon fill="#eedd82" stroke="black" points="525,-97 351,-97 351,-23 525,-23 525,-97"/>
            <text text-anchor="middle" x="438" y="-69" font-family="Times New Roman,serif" font-size="30.00">ユーザーID
            </text>
            <text text-anchor="middle" x="438" y="-36" font-family="Times New Roman,serif" font-size="30.00">UserId
            </text>
        </g>
        <!-- bouquet.domain.model.auth.User&#45;&gt;bouquet.domain.model.auth.UserId -->
        <g id="edge7" class="edge">
            <title>bouquet.domain.model.auth.User&#45;&gt;bouquet.domain.model.auth.UserId</title>
            <path fill="none" stroke="black"
                  d="M257.65,-179.99C277.54,-156.53 305.55,-126.8 335,-106 337.34,-104.35 339.76,-102.73 342.22,-101.15"/>
            <polygon fill="black" stroke="black" points="344.06,-104.13 350.78,-95.94 340.42,-98.15 344.06,-104.13"/>
        </g>
        <!-- bouquet.domain.model.auth.UserDetailsImpl -->
        <g id="node5" class="node">
            <title>bouquet.domain.model.auth.UserDetailsImpl</title>
            <polygon fill="lemonchiffon" stroke="black" points="120,-203 0,-203 0,-165 120,-165 120,-203"/>
            <text text-anchor="middle" x="60" y="-187.8" font-family="Times New Roman,serif" font-size="14.00">
                認証ユーザー
            </text>
            <text text-anchor="middle" x="60" y="-172.8" font-family="Times New Roman,serif" font-size="14.00">
                UserDetailsImpl
            </text>
        </g>
        <!-- bouquet.domain.model.auth.UserDetailsImpl&#45;&gt;bouquet.domain.model.auth.Password -->
        <g id="edge3" class="edge">
            <title>bouquet.domain.model.auth.UserDetailsImpl&#45;&gt;bouquet.domain.model.auth.Password</title>
            <path fill="none" stroke="black"
                  d="M78.85,-203.07C96.72,-221.06 125.84,-247.53 156,-263 213.86,-292.68 284.76,-310.98 340.87,-321.84"/>
            <polygon fill="black" stroke="black" points="340.33,-325.3 350.81,-323.71 341.63,-318.42 340.33,-325.3"/>
        </g>
        <!-- bouquet.domain.model.auth.UserDetailsImpl&#45;&gt;bouquet.domain.model.auth.RoleName -->
        <g id="edge6" class="edge">
            <title>bouquet.domain.model.auth.UserDetailsImpl&#45;&gt;bouquet.domain.model.auth.RoleName</title>
            <path fill="none" stroke="black"
                  d="M120.22,-175.26C132.05,-173.69 144.41,-172.18 156,-171 211.41,-165.34 273.14,-160.96 324.6,-157.83"/>
            <polygon fill="black" stroke="black" points="324.98,-161.32 334.75,-157.23 324.56,-154.33 324.98,-161.32"/>
        </g>
        <!-- bouquet.domain.model.auth.UserDetailsImpl&#45;&gt;bouquet.domain.model.auth.User -->
        <g id="edge4" class="edge">
            <title>bouquet.domain.model.auth.UserDetailsImpl&#45;&gt;bouquet.domain.model.auth.User</title>
            <path fill="none" stroke="black" d="M120.28,-195.82C128.55,-197.47 137.16,-199.19 145.73,-200.9"/>
            <polygon fill="black" stroke="black" points="145.28,-204.37 155.77,-202.9 146.65,-197.51 145.28,-204.37"/>
        </g>
        <!-- bouquet.domain.model.auth.UserDetailsImpl&#45;&gt;bouquet.domain.model.auth.UserId -->
        <g id="edge8" class="edge">
            <title>bouquet.domain.model.auth.UserDetailsImpl&#45;&gt;bouquet.domain.model.auth.UserId</title>
            <path fill="none" stroke="black" d="M118.93,-164.9C178.05,-145.4 270.83,-114.8 340.96,-91.67"/>
            <polygon fill="black" stroke="black" points="342.3,-94.92 350.7,-88.46 340.11,-88.27 342.3,-94.92"/>
        </g>
    </g>
</svg>
