<?xml version="1.0" encoding="UTF-8" standalone="no"?>
<!DOCTYPE svg PUBLIC "-//W3C//DTD SVG 1.1//EN"
        "http://www.w3.org/Graphics/SVG/1.1/DTD/svg11.dtd">
<!-- Generated by graphviz version 3.0.0 (20220226.1711)
 -->
<!-- Title: 集中ビジネスルールツリー図 Pages: 1 -->
<svg width="336pt" height="381pt"
     viewBox="0.00 0.00 336.00 381.00" xmlns="http://www.w3.org/2000/svg">
    <g id="graph0" class="graph" transform="scale(1 1) rotate(0) translate(4 377)">
        <title>集中ビジネスルールツリー図</title>
        <polygon fill="white" stroke="transparent" points="-4,4 -4,-377 332,-377 332,4 -4,4"/>
        <text text-anchor="middle" x="164" y="-7.8" font-family="Times New Roman,serif" font-size="14.00">
            集中ビジネスルールツリー図
        </text>
        <!-- bouquet.domain.model.auth.Name -->
        <g id="node1" class="node">
            <title>bouquet.domain.model.auth.Name</title>
            <polygon fill="#eedd82" stroke="black" points="269,-373 181,-373 181,-299 269,-299 269,-373"/>
            <text text-anchor="middle" x="225" y="-345" font-family="Times New Roman,serif" font-size="30.00">名前
            </text>
            <text text-anchor="middle" x="225" y="-312" font-family="Times New Roman,serif" font-size="30.00">Name
            </text>
        </g>
        <!-- bouquet.domain.model.auth.Password -->
        <g id="node2" class="node">
            <title>bouquet.domain.model.auth.Password</title>
            <polygon fill="#eedd82" stroke="black" points="312,-281 138,-281 138,-207 312,-207 312,-281"/>
            <text text-anchor="middle" x="225" y="-253" font-family="Times New Roman,serif" font-size="30.00">パスワード
            </text>
            <text text-anchor="middle" x="225" y="-220" font-family="Times New Roman,serif" font-size="30.00">Password
            </text>
        </g>
        <!-- bouquet.domain.model.auth.RoleName -->
        <g id="node3" class="node">
            <title>bouquet.domain.model.auth.RoleName</title>
            <polygon fill="#eedd82" stroke="black" points="328,-189 122,-189 122,-115 328,-115 328,-189"/>
            <text text-anchor="middle" x="225" y="-161" font-family="Times New Roman,serif" font-size="30.00">ユーザー区分
            </text>
            <text text-anchor="middle" x="225" y="-128" font-family="Times New Roman,serif" font-size="30.00">RoleName
            </text>
        </g>
        <!-- bouquet.domain.model.auth.User -->
        <g id="node4" class="node">
            <title>bouquet.domain.model.auth.User</title>
            <polygon fill="lemonchiffon" stroke="black" points="86,-217 0,-217 0,-179 86,-179 86,-217"/>
            <text text-anchor="middle" x="43" y="-201.8" font-family="Times New Roman,serif" font-size="14.00">ユーザー
            </text>
            <text text-anchor="middle" x="43" y="-186.8" font-family="Times New Roman,serif" font-size="14.00">User
            </text>
        </g>
        <!-- bouquet.domain.model.auth.User&#45;&gt;bouquet.domain.model.auth.Name -->
        <g id="edge4" class="edge">
            <title>bouquet.domain.model.auth.User&#45;&gt;bouquet.domain.model.auth.Name</title>
            <path fill="none" stroke="black"
                  d="M56.35,-217.1C70.27,-237.39 94.57,-269.34 122,-290 136.79,-301.14 154.7,-310.36 171.36,-317.55"/>
            <polygon fill="black" stroke="black" points="170.42,-320.94 180.99,-321.54 173.1,-314.48 170.42,-320.94"/>
        </g>
        <!-- bouquet.domain.model.auth.User&#45;&gt;bouquet.domain.model.auth.Password -->
        <g id="edge1" class="edge">
            <title>bouquet.domain.model.auth.User&#45;&gt;bouquet.domain.model.auth.Password</title>
            <path fill="none" stroke="black" d="M86.2,-208.78C98.78,-212 113.12,-215.66 127.67,-219.38"/>
            <polygon fill="black" stroke="black" points="127.21,-222.88 137.77,-221.96 128.95,-216.1 127.21,-222.88"/>
        </g>
        <!-- bouquet.domain.model.auth.User&#45;&gt;bouquet.domain.model.auth.RoleName -->
        <g id="edge3" class="edge">
            <title>bouquet.domain.model.auth.User&#45;&gt;bouquet.domain.model.auth.RoleName</title>
            <path fill="none" stroke="black" d="M86.2,-187.22C94.21,-185.17 102.94,-182.94 111.98,-180.63"/>
            <polygon fill="black" stroke="black" points="113.07,-183.96 121.89,-178.09 111.34,-177.18 113.07,-183.96"/>
        </g>
        <!-- bouquet.domain.model.auth.UserId -->
        <g id="node5" class="node">
            <title>bouquet.domain.model.auth.UserId</title>
            <polygon fill="#eedd82" stroke="black" points="312,-97 138,-97 138,-23 312,-23 312,-97"/>
            <text text-anchor="middle" x="225" y="-69" font-family="Times New Roman,serif" font-size="30.00">ユーザーID
            </text>
            <text text-anchor="middle" x="225" y="-36" font-family="Times New Roman,serif" font-size="30.00">UserId
            </text>
        </g>
        <!-- bouquet.domain.model.auth.User&#45;&gt;bouquet.domain.model.auth.UserId -->
        <g id="edge2" class="edge">
            <title>bouquet.domain.model.auth.User&#45;&gt;bouquet.domain.model.auth.UserId</title>
            <path fill="none" stroke="black"
                  d="M56.35,-178.9C70.27,-158.61 94.57,-126.66 122,-106 124.33,-104.25 126.73,-102.54 129.2,-100.88"/>
            <polygon fill="black" stroke="black" points="131.22,-103.75 137.79,-95.43 127.47,-97.84 131.22,-103.75"/>
        </g>
    </g>
</svg>
