<?xml version="1.0" encoding="UTF-8" standalone="no"?>
<!DOCTYPE svg PUBLIC "-//W3C//DTD SVG 1.1//EN"
        "http://www.w3.org/Graphics/SVG/1.1/DTD/svg11.dtd">
<!-- Generated by graphviz version 3.0.0 (20220226.1711)
 -->
<!-- Title: ビジネスルール関連図 Pages: 1 -->
<svg width="197pt" height="198pt"
     viewBox="0.00 0.00 197.00 198.00" xmlns="http://www.w3.org/2000/svg">
    <g id="graph0" class="graph" transform="scale(1 1) rotate(0) translate(4 194)">
        <title>ビジネスルール関連図</title>
        <polygon fill="white" stroke="transparent" points="-4,4 -4,-194 193,-194 193,4 -4,4"/>
        <text text-anchor="middle" x="94.5" y="-7.8" font-family="Times New Roman,serif" font-size="14.00">
            ビジネスルール関連図
        </text>
        <g id="clust1" class="cluster">
            <title>cluster_bouquet.domain.model</title>
            <polygon fill="lemonchiffon" stroke="#eedd82" stroke-width="2"
                     points="21.5,-31 21.5,-182 167.5,-182 167.5,-31 21.5,-31"/>
            <text text-anchor="middle" x="94.5" y="-166.8" font-family="Times New Roman,serif" font-size="14.00">
                bouquet.domain.model
            </text>
        </g>
        <!-- bouquet.domain.model.RoleName -->
        <g id="node1" class="node">
            <title>bouquet.domain.model.RoleName</title>
            <polygon fill="#eedd82" stroke="black" points="156.5,-77 32.5,-77 32.5,-39 156.5,-39 156.5,-77"/>
            <text text-anchor="middle" x="94.5" y="-61.8" font-family="Times New Roman,serif" font-size="14.00">
                ユーザー区分
            </text>
            <text text-anchor="middle" x="94.5" y="-46.8" font-family="Times New Roman,serif" font-size="14.00">
                RoleName
            </text>
        </g>
        <!-- bouquet.domain.model.User -->
        <g id="node2" class="node">
            <title>bouquet.domain.model.User</title>
            <polygon fill="#eedd82" stroke="black" points="137.5,-151 51.5,-151 51.5,-113 137.5,-113 137.5,-151"/>
            <text text-anchor="middle" x="94.5" y="-135.8" font-family="Times New Roman,serif" font-size="14.00">ユーザー
            </text>
            <text text-anchor="middle" x="94.5" y="-120.8" font-family="Times New Roman,serif" font-size="14.00">User
            </text>
        </g>
        <!-- bouquet.domain.model.User&#45;&gt;bouquet.domain.model.RoleName -->
        <g id="edge1" class="edge">
            <title>bouquet.domain.model.User&#45;&gt;bouquet.domain.model.RoleName</title>
            <path fill="none" stroke="black" d="M94.5,-112.83C94.5,-105.13 94.5,-95.97 94.5,-87.42"/>
            <polygon fill="black" stroke="black" points="98,-87.41 94.5,-77.41 91,-87.41 98,-87.41"/>
        </g>
    </g>
</svg>
