<?xml version="1.0" encoding="UTF-8" standalone="no"?>
<!DOCTYPE svg PUBLIC "-//W3C//DTD SVG 1.1//EN"
        "http://www.w3.org/Graphics/SVG/1.1/DTD/svg11.dtd">
<!-- Generated by graphviz version 3.0.0 (20220226.1711)
 -->
<!-- Title: 集中ビジネスルールツリー図 Pages: 1 -->
<svg width="336pt" height="105pt"
     viewBox="0.00 0.00 336.00 105.00" xmlns="http://www.w3.org/2000/svg">
    <g id="graph0" class="graph" transform="scale(1 1) rotate(0) translate(4 101)">
        <title>集中ビジネスルールツリー図</title>
        <polygon fill="white" stroke="transparent" points="-4,4 -4,-101 332,-101 332,4 -4,4"/>
        <text text-anchor="middle" x="164" y="-7.8" font-family="Times New Roman,serif" font-size="14.00">
            集中ビジネスルールツリー図
        </text>
        <!-- bouquet.domain.model.auth.RoleName -->
        <g id="node1" class="node">
            <title>bouquet.domain.model.auth.RoleName</title>
            <polygon fill="#eedd82" stroke="black" points="328,-97 122,-97 122,-23 328,-23 328,-97"/>
            <text text-anchor="middle" x="225" y="-69" font-family="Times New Roman,serif" font-size="30.00">ユーザー区分
            </text>
            <text text-anchor="middle" x="225" y="-36" font-family="Times New Roman,serif" font-size="30.00">RoleName
            </text>
        </g>
        <!-- bouquet.domain.model.auth.User -->
        <g id="node2" class="node">
            <title>bouquet.domain.model.auth.User</title>
            <polygon fill="lemonchiffon" stroke="black" points="86,-79 0,-79 0,-41 86,-41 86,-79"/>
            <text text-anchor="middle" x="43" y="-63.8" font-family="Times New Roman,serif" font-size="14.00">ユーザー
            </text>
            <text text-anchor="middle" x="43" y="-48.8" font-family="Times New Roman,serif" font-size="14.00">User
            </text>
        </g>
        <!-- bouquet.domain.model.auth.User&#45;&gt;bouquet.domain.model.auth.RoleName -->
        <g id="edge1" class="edge">
            <title>bouquet.domain.model.auth.User&#45;&gt;bouquet.domain.model.auth.RoleName</title>
            <path fill="none" stroke="black" d="M86.2,-60C94.13,-60 102.75,-60 111.69,-60"/>
            <polygon fill="black" stroke="black" points="111.89,-63.5 121.89,-60 111.89,-56.5 111.89,-63.5"/>
        </g>
    </g>
</svg>
