<?xml version="1.0" encoding="UTF-8" standalone="no"?>
<!DOCTYPE svg PUBLIC "-//W3C//DTD SVG 1.1//EN"
        "http://www.w3.org/Graphics/SVG/1.1/DTD/svg11.dtd">
<!-- Generated by graphviz version 3.0.0 (20220226.1711)
 -->
<!-- Title: 区分使用図 Pages: 1 -->
<svg width="254pt" height="69pt"
     viewBox="0.00 0.00 254.00 69.00" xmlns="http://www.w3.org/2000/svg">
    <g id="graph0" class="graph" transform="scale(1 1) rotate(0) translate(4 65)">
        <title>区分使用図</title>
        <polygon fill="white" stroke="transparent" points="-4,4 -4,-65 250,-65 250,4 -4,4"/>
        <text text-anchor="middle" x="123" y="-7.8" font-family="Times New Roman,serif" font-size="14.00">区分使用図
        </text>
        <!-- bouquet.domain.model.RoleName -->
        <g id="node1" class="node">
            <title>bouquet.domain.model.RoleName</title>
            <polygon fill="#eedd82" stroke="black" points="246,-61 126,-61 122,-57 122,-23 242,-23 246,-27 246,-61"/>
            <polyline fill="none" stroke="black" points="242,-57 122,-57 "/>
            <polyline fill="none" stroke="black" points="242,-57 242,-23 "/>
            <polyline fill="none" stroke="black" points="242,-57 246,-61 "/>
            <text text-anchor="middle" x="184" y="-45.8" font-family="Times New Roman,serif" font-size="14.00">
                ユーザー区分
            </text>
            <text text-anchor="middle" x="184" y="-30.8" font-family="Times New Roman,serif" font-size="14.00">
                RoleName
            </text>
        </g>
        <!-- bouquet.domain.model.User -->
        <g id="node2" class="node">
            <title>bouquet.domain.model.User</title>
            <polygon fill="white" stroke="black" points="86,-61 0,-61 0,-23 86,-23 86,-61"/>
            <text text-anchor="middle" x="43" y="-45.8" font-family="Times New Roman,serif" font-size="14.00">ユーザー
            </text>
            <text text-anchor="middle" x="43" y="-30.8" font-family="Times New Roman,serif" font-size="14.00">User
            </text>
        </g>
        <!-- bouquet.domain.model.User&#45;&gt;bouquet.domain.model.RoleName -->
        <g id="edge1" class="edge">
            <title>bouquet.domain.model.User&#45;&gt;bouquet.domain.model.RoleName</title>
            <path fill="none" stroke="black" d="M86.08,-42C94.18,-42 102.87,-42 111.6,-42"/>
            <polygon fill="black" stroke="black" points="111.83,-45.5 121.83,-42 111.83,-38.5 111.83,-45.5"/>
        </g>
    </g>
</svg>
