<?xml version="1.0" encoding="UTF-8" standalone="no"?>
<!DOCTYPE svg PUBLIC "-//W3C//DTD SVG 1.1//EN"
        "http://www.w3.org/Graphics/SVG/1.1/DTD/svg11.dtd">
<!-- Generated by graphviz version 3.0.0 (20220226.1711)
 -->
<!-- Title: 区分使用図 Pages: 1 -->
<svg xmlns:xlink="http://www.w3.org/1999/xlink" width="637pt"
     height="100pt" viewBox="0.00 0.00 637.16 99.87" xmlns="http://www.w3.org/2000/svg">
    <g id="graph0" class="graph" transform="scale(1 1) rotate(0) translate(4 95.87)">
        <title>区分使用図</title>
        <polygon fill="white" stroke="transparent" points="-4,4 -4,-95.87 633.16,-95.87 633.16,4 -4,4"/>
        <text text-anchor="middle" x="314.58" y="-7.8" font-family="Times New Roman,serif" font-size="14.00">
            区分使用図
        </text>
        <!-- bouquet.domain.model.auth.RoleName -->
        <g id="node1" class="node">
            <title>bouquet.domain.model.auth.RoleName</title>
            <polygon fill="#eedd82" stroke="black"
                     points="629.16,-84 513.16,-84 509.16,-80 509.16,-46 625.16,-46 629.16,-50 629.16,-84"/>
            <polyline fill="none" stroke="black" points="625.16,-80 509.16,-80 "/>
            <polyline fill="none" stroke="black" points="625.16,-80 625.16,-46 "/>
            <polyline fill="none" stroke="black" points="625.16,-80 629.16,-84 "/>
            <text text-anchor="middle" x="569.16" y="-68.8" font-family="Times New Roman,serif" font-size="14.00">
                ユーザー区分
            </text>
            <text text-anchor="middle" x="569.16" y="-53.8" font-family="Times New Roman,serif" font-size="14.00">
                RoleName
            </text>
        </g>
        <!-- bouquet.application.service.auth.UserAuthService#loadUserByUsername(java.lang.String) -->
        <g id="node2" class="node">
            <title>bouquet.application.service.auth.UserAuthService#loadUserByUsername(java.lang.String)</title>
            <g id="a_node2">
                <a xlink:href="https://github.com/k2works/application_programing_excercise_2022/tree/take15/src/main/java/bouquet/application/service/auth/UserAuthService.java"
                   xlink:title="UserAuthService.loadUserByUsername(String)">
                    <ellipse fill="#eedd82" stroke="black" cx="97.58" cy="-65" rx="97.66" ry="26.74"/>
                    <text text-anchor="middle" x="97.58" y="-68.8" font-family="Times New Roman,serif"
                          font-size="14.00">UserAuthService
                    </text>
                    <text text-anchor="middle" x="97.58" y="-53.8" font-family="Times New Roman,serif"
                          font-size="14.00">loadUserByUsername
                    </text>
                </a>
            </g>
        </g>
        <!-- bouquet.domain.model.auth.UserDetailsImpl -->
        <g id="node4" class="node">
            <title>bouquet.domain.model.auth.UserDetailsImpl</title>
            <polygon fill="white" stroke="black" points="351.16,-84 231.16,-84 231.16,-46 351.16,-46 351.16,-84"/>
            <text text-anchor="middle" x="291.16" y="-68.8" font-family="Times New Roman,serif" font-size="14.00">
                認証ユーザー
            </text>
            <text text-anchor="middle" x="291.16" y="-53.8" font-family="Times New Roman,serif" font-size="14.00">
                UserDetailsImpl
            </text>
        </g>
        <!-- bouquet.application.service.auth.UserAuthService#loadUserByUsername(java.lang.String)&#45;&gt;bouquet.domain.model.auth.UserDetailsImpl -->
        <g id="edge4" class="edge">
            <title>bouquet.application.service.auth.UserAuthService#loadUserByUsername(java.lang.String)&#45;&gt;bouquet.domain.model.auth.UserDetailsImpl</title>
            <path fill="none" stroke="black" d="M195.21,-65C203.87,-65 212.53,-65 220.88,-65"/>
            <polygon fill="black" stroke="black" points="220.92,-68.5 230.92,-65 220.92,-61.5 220.92,-68.5"/>
        </g>
        <!-- bouquet.domain.model.auth.User -->
        <g id="node3" class="node">
            <title>bouquet.domain.model.auth.User</title>
            <polygon fill="white" stroke="black" points="473.16,-61 387.16,-61 387.16,-23 473.16,-23 473.16,-61"/>
            <text text-anchor="middle" x="430.16" y="-45.8" font-family="Times New Roman,serif" font-size="14.00">ユーザー
            </text>
            <text text-anchor="middle" x="430.16" y="-30.8" font-family="Times New Roman,serif" font-size="14.00">User
            </text>
        </g>
        <!-- bouquet.domain.model.auth.User&#45;&gt;bouquet.domain.model.auth.RoleName -->
        <g id="edge2" class="edge">
            <title>bouquet.domain.model.auth.User&#45;&gt;bouquet.domain.model.auth.RoleName</title>
            <path fill="none" stroke="black" d="M473.38,-49.09C481.55,-50.46 490.31,-51.93 499.08,-53.4"/>
            <polygon fill="black" stroke="black" points="498.51,-56.86 508.95,-55.06 499.67,-49.95 498.51,-56.86"/>
        </g>
        <!-- bouquet.domain.model.auth.UserDetailsImpl&#45;&gt;bouquet.domain.model.auth.RoleName -->
        <g id="edge1" class="edge">
            <title>bouquet.domain.model.auth.UserDetailsImpl&#45;&gt;bouquet.domain.model.auth.RoleName</title>
            <path fill="none" stroke="black"
                  d="M351.18,-68.59C363.09,-69.18 375.52,-69.69 387.16,-70 425.37,-71 434.95,-71 473.16,-70 481.53,-69.78 490.3,-69.45 499,-69.07"/>
            <polygon fill="black" stroke="black" points="499.32,-72.55 509.14,-68.59 498.99,-65.56 499.32,-72.55"/>
        </g>
        <!-- bouquet.domain.model.auth.UserDetailsImpl&#45;&gt;bouquet.domain.model.auth.User -->
        <g id="edge3" class="edge">
            <title>bouquet.domain.model.auth.UserDetailsImpl&#45;&gt;bouquet.domain.model.auth.User</title>
            <path fill="none" stroke="black" d="M351.45,-55.05C359.99,-53.61 368.72,-52.15 377.1,-50.74"/>
            <polygon fill="black" stroke="black" points="377.83,-54.17 387.11,-49.06 376.67,-47.26 377.83,-54.17"/>
        </g>
    </g>
</svg>
