<?xml version="1.0" encoding="UTF-8" standalone="no"?>
<!DOCTYPE svg PUBLIC "-//W3C//DTD SVG 1.1//EN"
        "http://www.w3.org/Graphics/SVG/1.1/DTD/svg11.dtd">
<!-- Generated by graphviz version 3.0.0 (20220226.1711)
 -->
<!-- Title: コンポーネント関連図 Pages: 1 -->
<svg width="197pt" height="115pt"
     viewBox="0.00 0.00 197.00 115.00" xmlns="http://www.w3.org/2000/svg">
    <g id="graph0" class="graph" transform="scale(1 1) rotate(0) translate(12.5 88)">
        <title>コンポーネント関連図</title>
        <polygon fill="white" stroke="transparent" points="-12.5,27 -12.5,-88 184.5,-88 184.5,27 -12.5,27"/>
        <text text-anchor="middle" x="86" y="15.2" font-family="Times New Roman,serif" font-size="14.00">コンポーネント関連図
        </text>
        <!-- SPRING_SERVICE -->
        <g id="node1" class="node">
            <title>SPRING_SERVICE</title>
            <polygon fill="#eedd82" stroke="black"
                     points="148.14,-84.3 90.14,-84.3 90.14,-80.3 86.14,-80.3 86.14,-76.3 90.14,-76.3 90.14,-56.3 86.14,-56.3 86.14,-52.3 90.14,-52.3 90.14,-48.3 148.14,-48.3 148.14,-84.3"/>
            <polyline fill="none" stroke="black" points="90.14,-80.3 94.14,-80.3 94.14,-76.3 90.14,-76.3 "/>
            <polyline fill="none" stroke="black" points="90.14,-56.3 94.14,-56.3 94.14,-52.3 90.14,-52.3 "/>
            <text text-anchor="middle" x="119.14" y="-62.6" font-family="Times New Roman,serif" font-size="14.00">
                Service
            </text>
        </g>
        <!-- SPRING_CONTROLLER -->
        <g id="node2" class="node">
            <title>SPRING_CONTROLLER</title>
            <polygon fill="#eedd82" stroke="black"
                     points="96.64,-36.3 23.64,-36.3 23.64,-32.3 19.64,-32.3 19.64,-28.3 23.64,-28.3 23.64,-8.3 19.64,-8.3 19.64,-4.3 23.64,-4.3 23.64,-0.3 96.64,-0.3 96.64,-36.3"/>
            <polyline fill="none" stroke="black" points="23.64,-32.3 27.64,-32.3 27.64,-28.3 23.64,-28.3 "/>
            <polyline fill="none" stroke="black" points="23.64,-8.3 27.64,-8.3 27.64,-4.3 23.64,-4.3 "/>
            <text text-anchor="middle" x="60.14" y="-14.6" font-family="Times New Roman,serif" font-size="14.00">
                Controller
            </text>
        </g>
    </g>
</svg>
