<?xml version="1.0" encoding="UTF-8" standalone="no"?>
<!DOCTYPE svg PUBLIC "-//W3C//DTD SVG 1.1//EN"
        "http://www.w3.org/Graphics/SVG/1.1/DTD/svg11.dtd">
<!-- Generated by graphviz version 3.0.0 (20220226.1711)
 -->
<!-- Title: コンポーネント関連図 Pages: 1 -->
<svg width="340pt" height="232pt"
     viewBox="0.00 0.00 340.00 232.00" xmlns="http://www.w3.org/2000/svg">
    <g id="graph0" class="graph" transform="scale(1 1) rotate(0) translate(4 205)">
        <title>コンポーネント関連図</title>
        <polygon fill="white" stroke="transparent" points="-4,27 -4,-205 336,-205 336,27 -4,27"/>
        <text text-anchor="middle" x="166" y="15.2" font-family="Times New Roman,serif" font-size="14.00">
            コンポーネント関連図
        </text>
        <!-- bouquet.infrastructure.security.jwt.AuthEntryPointJwt -->
        <g id="node1" class="node">
            <title>bouquet.infrastructure.security.jwt.AuthEntryPointJwt</title>
            <polygon fill="lightgrey" stroke="black"
                     points="332.14,-201.3 210.14,-201.3 210.14,-165.3 332.14,-165.3 332.14,-201.3"/>
            <text text-anchor="middle" x="271.14" y="-179.6" font-family="Times New Roman,serif" font-size="14.00">
                AuthEntryPointJwt
            </text>
        </g>
        <!-- bouquet.infrastructure.security.jwt.JwtUtils -->
        <g id="node2" class="node">
            <title>bouquet.infrastructure.security.jwt.JwtUtils</title>
            <polygon fill="lightgrey" stroke="black"
                     points="60.5,-45.11 -0.5,-45.11 -0.5,-9.11 60.5,-9.11 60.5,-45.11"/>
            <text text-anchor="middle" x="30" y="-23.41" font-family="Times New Roman,serif" font-size="14.00">
                JwtUtils
            </text>
        </g>
        <!-- SPRING_CONTROLLER -->
        <g id="node3" class="node">
            <title>SPRING_CONTROLLER</title>
            <polygon fill="#eedd82" stroke="black"
                     points="86.11,-90.44 13.11,-90.44 13.11,-86.44 9.11,-86.44 9.11,-82.44 13.11,-82.44 13.11,-62.44 9.11,-62.44 9.11,-58.44 13.11,-58.44 13.11,-54.44 86.11,-54.44 86.11,-90.44"/>
            <polyline fill="none" stroke="black" points="13.11,-86.44 17.11,-86.44 17.11,-82.44 13.11,-82.44 "/>
            <polyline fill="none" stroke="black" points="13.11,-62.44 17.11,-62.44 17.11,-58.44 13.11,-58.44 "/>
            <text text-anchor="middle" x="49.61" y="-68.74" font-family="Times New Roman,serif" font-size="14.00">
                Controller
            </text>
        </g>
        <!-- SPRING_CONTROLLER&#45;&gt;bouquet.infrastructure.security.jwt.JwtUtils -->
        <g id="edge2" class="edge">
            <title>SPRING_CONTROLLER&#45;&gt;bouquet.infrastructure.security.jwt.JwtUtils</title>
            <path fill="none" stroke="black" d="M41.75,-54.26C41.71,-54.17 41.67,-54.08 41.63,-53.98"/>
            <polygon fill="black" stroke="black" points="45.05,-53.08 37.87,-45.29 38.62,-55.85 45.05,-53.08"/>
        </g>
        <!-- bouquet.application.service.auth.UserRepository -->
        <g id="node4" class="node">
            <title>bouquet.application.service.auth.UserRepository</title>
            <ellipse fill="lightgrey" stroke="black" cx="162.16" cy="-69.46" rx="43.1" ry="18"/>
            <text text-anchor="middle" x="162.16" y="-67.26" font-family="Times New Roman,serif" font-size="9.00">
                UserRepository
            </text>
        </g>
        <!-- SPRING_CONTROLLER&#45;&gt;bouquet.application.service.auth.UserRepository -->
        <g id="edge1" class="edge">
            <title>SPRING_CONTROLLER&#45;&gt;bouquet.application.service.auth.UserRepository</title>
            <path fill="none" stroke="black" d="M86.15,-71.47C93.3,-71.28 100.93,-71.08 108.51,-70.88"/>
            <polygon fill="black" stroke="black" points="108.84,-74.37 118.74,-70.61 108.65,-67.37 108.84,-74.37"/>
        </g>
        <!-- SPRING_REPOSITORY -->
        <g id="node5" class="node">
            <title>SPRING_REPOSITORY</title>
            <polygon fill="#eedd82" stroke="black"
                     points="200.11,-133.86 121.11,-133.86 121.11,-129.86 117.11,-129.86 117.11,-125.86 121.11,-125.86 121.11,-105.86 117.11,-105.86 117.11,-101.86 121.11,-101.86 121.11,-97.86 200.11,-97.86 200.11,-133.86"/>
            <polyline fill="none" stroke="black" points="121.11,-129.86 125.11,-129.86 125.11,-125.86 121.11,-125.86 "/>
            <polyline fill="none" stroke="black" points="121.11,-105.86 125.11,-105.86 125.11,-101.86 121.11,-101.86 "/>
            <text text-anchor="middle" x="160.61" y="-112.16" font-family="Times New Roman,serif" font-size="14.00">
                Repository
            </text>
        </g>
        <!-- SPRING_REPOSITORY&#45;&gt;bouquet.application.service.auth.UserRepository -->
        <g id="edge3" class="edge">
            <title>SPRING_REPOSITORY&#45;&gt;bouquet.application.service.auth.UserRepository</title>
            <path fill="none" stroke="black" d="M161.21,-97.79C161.22,-97.68 161.22,-97.58 161.22,-97.47"/>
            <polygon fill="black" stroke="black" points="164.72,-97.67 161.55,-87.56 157.72,-97.44 164.72,-97.67"/>
        </g>
        <!-- SPRING_SERVICE -->
        <g id="node6" class="node">
            <title>SPRING_SERVICE</title>
            <polygon fill="#eedd82" stroke="black"
                     points="233.25,-36.11 175.25,-36.11 175.25,-32.11 171.25,-32.11 171.25,-28.11 175.25,-28.11 175.25,-8.11 171.25,-8.11 171.25,-4.11 175.25,-4.11 175.25,-0.11 233.25,-0.11 233.25,-36.11"/>
            <polyline fill="none" stroke="black" points="175.25,-32.11 179.25,-32.11 179.25,-28.11 175.25,-28.11 "/>
            <polyline fill="none" stroke="black" points="175.25,-8.11 179.25,-8.11 179.25,-4.11 175.25,-4.11 "/>
            <text text-anchor="middle" x="204.25" y="-14.41" font-family="Times New Roman,serif" font-size="14.00">
                Service
            </text>
        </g>
        <!-- SPRING_SERVICE&#45;&gt;bouquet.application.service.auth.UserRepository -->
        <g id="edge4" class="edge">
            <title>SPRING_SERVICE&#45;&gt;bouquet.application.service.auth.UserRepository</title>
            <path fill="none" stroke="black" d="M189.29,-36.36C187.17,-38.96 184.95,-41.66 182.74,-44.36"/>
            <polygon fill="black" stroke="black" points="179.86,-42.35 176.22,-52.3 185.27,-46.79 179.86,-42.35"/>
        </g>
    </g>
</svg>
