<?xml version="1.0" encoding="UTF-8" standalone="no"?>
<!DOCTYPE svg PUBLIC "-//W3C//DTD SVG 1.1//EN"
        "http://www.w3.org/Graphics/SVG/1.1/DTD/svg11.dtd">
<!-- Generated by graphviz version 3.0.0 (20220226.1711)
 -->
<!-- Title: コンポーネント関連図 Pages: 1 -->
<svg width="280pt" height="190pt"
     viewBox="0.00 0.00 280.00 190.00" xmlns="http://www.w3.org/2000/svg">
    <g id="graph0" class="graph" transform="scale(1 1) rotate(0) translate(4 163)">
        <title>コンポーネント関連図</title>
        <polygon fill="white" stroke="transparent" points="-4,27 -4,-163 276,-163 276,27 -4,27"/>
        <text text-anchor="middle" x="136" y="15.2" font-family="Times New Roman,serif" font-size="14.00">
            コンポーネント関連図
        </text>
        <!-- SPRING_REPOSITORY -->
        <g id="node1" class="node">
            <title>SPRING_REPOSITORY</title>
            <polygon fill="#eedd82" stroke="black"
                     points="90.75,-54.66 11.75,-54.66 11.75,-50.66 7.75,-50.66 7.75,-46.66 11.75,-46.66 11.75,-26.66 7.75,-26.66 7.75,-22.66 11.75,-22.66 11.75,-18.66 90.75,-18.66 90.75,-54.66"/>
            <polyline fill="none" stroke="black" points="11.75,-50.66 15.75,-50.66 15.75,-46.66 11.75,-46.66 "/>
            <polyline fill="none" stroke="black" points="11.75,-26.66 15.75,-26.66 15.75,-22.66 11.75,-22.66 "/>
            <text text-anchor="middle" x="51.25" y="-32.96" font-family="Times New Roman,serif" font-size="14.00">
                Repository
            </text>
        </g>
        <!-- bouquet.application.service.auth.UserRepository -->
        <g id="node2" class="node">
            <title>bouquet.application.service.auth.UserRepository</title>
            <ellipse fill="lightgrey" stroke="black" cx="73.69" cy="-85.86" rx="43.1" ry="18"/>
            <text text-anchor="middle" x="73.69" y="-83.66" font-family="Times New Roman,serif" font-size="9.00">
                UserRepository
            </text>
        </g>
        <!-- SPRING_REPOSITORY&#45;&gt;bouquet.application.service.auth.UserRepository -->
        <g id="edge3" class="edge">
            <title>SPRING_REPOSITORY&#45;&gt;bouquet.application.service.auth.UserRepository</title>
            <path fill="none" stroke="black" d="M59.48,-54.7C60.11,-56.08 60.74,-57.48 61.39,-58.89"/>
            <polygon fill="black" stroke="black" points="58.28,-60.51 65.61,-68.15 64.65,-57.6 58.28,-60.51"/>
        </g>
        <!-- bouquet.infrastructure.security.jwt.AuthEntryPointJwt -->
        <g id="node3" class="node">
            <title>bouquet.infrastructure.security.jwt.AuthEntryPointJwt</title>
            <polygon fill="lightgrey" stroke="black"
                     points="272.14,-141.3 150.14,-141.3 150.14,-105.3 272.14,-105.3 272.14,-141.3"/>
            <text text-anchor="middle" x="211.14" y="-119.6" font-family="Times New Roman,serif" font-size="14.00">
                AuthEntryPointJwt
            </text>
        </g>
        <!-- bouquet.infrastructure.security.jwt.JwtUtils -->
        <g id="node4" class="node">
            <title>bouquet.infrastructure.security.jwt.JwtUtils</title>
            <polygon fill="lightgrey" stroke="black"
                     points="201.53,-36.13 140.53,-36.13 140.53,-0.13 201.53,-0.13 201.53,-36.13"/>
            <text text-anchor="middle" x="171.03" y="-14.43" font-family="Times New Roman,serif" font-size="14.00">
                JwtUtils
            </text>
        </g>
        <!-- SPRING_SERVICE -->
        <g id="node5" class="node">
            <title>SPRING_SERVICE</title>
            <polygon fill="#eedd82" stroke="black"
                     points="58.05,-158.55 0.05,-158.55 0.05,-154.55 -3.95,-154.55 -3.95,-150.55 0.05,-150.55 0.05,-130.55 -3.95,-130.55 -3.95,-126.55 0.05,-126.55 0.05,-122.55 58.05,-122.55 58.05,-158.55"/>
            <polyline fill="none" stroke="black" points="0.05,-154.55 4.05,-154.55 4.05,-150.55 0.05,-150.55 "/>
            <polyline fill="none" stroke="black" points="0.05,-130.55 4.05,-130.55 4.05,-126.55 0.05,-126.55 "/>
            <text text-anchor="middle" x="29.05" y="-136.85" font-family="Times New Roman,serif" font-size="14.00">
                Service
            </text>
        </g>
        <!-- SPRING_SERVICE&#45;&gt;bouquet.application.service.auth.UserRepository -->
        <g id="edge4" class="edge">
            <title>SPRING_SERVICE&#45;&gt;bouquet.application.service.auth.UserRepository</title>
            <path fill="none" stroke="black" d="M43.92,-122.34C46.93,-118.65 50.14,-114.71 53.31,-110.84"/>
            <polygon fill="black" stroke="black" points="56.04,-113.03 59.65,-103.07 50.61,-108.6 56.04,-113.03"/>
        </g>
        <!-- SPRING_CONTROLLER -->
        <g id="node6" class="node">
            <title>SPRING_CONTROLLER</title>
            <polygon fill="#eedd82" stroke="black"
                     points="203.42,-82.52 130.42,-82.52 130.42,-78.52 126.42,-78.52 126.42,-74.52 130.42,-74.52 130.42,-54.52 126.42,-54.52 126.42,-50.52 130.42,-50.52 130.42,-46.52 203.42,-46.52 203.42,-82.52"/>
            <polyline fill="none" stroke="black" points="130.42,-78.52 134.42,-78.52 134.42,-74.52 130.42,-74.52 "/>
            <polyline fill="none" stroke="black" points="130.42,-54.52 134.42,-54.52 134.42,-50.52 130.42,-50.52 "/>
            <text text-anchor="middle" x="166.92" y="-60.82" font-family="Times New Roman,serif" font-size="14.00">
                Controller
            </text>
        </g>
        <!-- SPRING_CONTROLLER&#45;&gt;bouquet.application.service.auth.UserRepository -->
        <g id="edge1" class="edge">
            <title>SPRING_CONTROLLER&#45;&gt;bouquet.application.service.auth.UserRepository</title>
            <path fill="none" stroke="black" d="M130.34,-72.89C127.47,-73.55 124.55,-74.22 121.62,-74.89"/>
            <polygon fill="black" stroke="black" points="120.67,-71.52 111.7,-77.16 122.23,-78.34 120.67,-71.52"/>
        </g>
        <!-- SPRING_CONTROLLER&#45;&gt;bouquet.infrastructure.security.jwt.JwtUtils -->
        <g id="edge2" class="edge">
            <title>SPRING_CONTROLLER&#45;&gt;bouquet.infrastructure.security.jwt.JwtUtils</title>
            <path fill="none" stroke="black" d="M168.52,-46.45C168.53,-46.35 168.54,-46.24 168.55,-46.14"/>
            <polygon fill="black" stroke="black" points="172.03,-46.5 169.43,-36.23 165.06,-45.88 172.03,-46.5"/>
        </g>
    </g>
</svg>
