<?xml version="1.0" encoding="UTF-8" standalone="no"?>
<!DOCTYPE svg PUBLIC "-//W3C//DTD SVG 1.1//EN"
        "http://www.w3.org/Graphics/SVG/1.1/DTD/svg11.dtd">
<!-- Generated by graphviz version 3.0.0 (20220226.1711)
 -->
<!-- Title: コンポーネント関連図 Pages: 1 -->
<svg width="246pt" height="122pt"
     viewBox="0.00 0.00 246.00 122.00" xmlns="http://www.w3.org/2000/svg">
    <g id="graph0" class="graph" transform="scale(1 1) rotate(0) translate(4 95)">
        <title>コンポーネント関連図</title>
        <polygon fill="white" stroke="transparent" points="-4,27 -4,-95 242,-95 242,27 -4,27"/>
        <text text-anchor="middle" x="119" y="15.2" font-family="Times New Roman,serif" font-size="14.00">
            コンポーネント関連図
        </text>
        <!-- SPRING_REPOSITORY -->
        <g id="node1" class="node">
            <title>SPRING_REPOSITORY</title>
            <polygon fill="#eedd82" stroke="black"
                     points="78.72,-37 -0.28,-37 -0.28,-33 -4.28,-33 -4.28,-29 -0.28,-29 -0.28,-9 -4.28,-9 -4.28,-5 -0.28,-5 -0.28,-1 78.72,-1 78.72,-37"/>
            <polyline fill="none" stroke="black" points="-0.28,-33 3.72,-33 3.72,-29 -0.28,-29 "/>
            <polyline fill="none" stroke="black" points="-0.28,-9 3.72,-9 3.72,-5 -0.28,-5 "/>
            <text text-anchor="middle" x="39.22" y="-15.3" font-family="Times New Roman,serif" font-size="14.00">
                Repository
            </text>
        </g>
        <!-- bouquet.application.service.auth.UserRepository -->
        <g id="node2" class="node">
            <title>bouquet.application.service.auth.UserRepository</title>
            <ellipse fill="lightgrey" stroke="black" cx="104.85" cy="-66.29" rx="43.1" ry="18"/>
            <text text-anchor="middle" x="104.85" y="-64.09" font-family="Times New Roman,serif" font-size="9.00">
                UserRepository
            </text>
        </g>
        <!-- SPRING_REPOSITORY&#45;&gt;bouquet.application.service.auth.UserRepository -->
        <g id="edge1" class="edge">
            <title>SPRING_REPOSITORY&#45;&gt;bouquet.application.service.auth.UserRepository</title>
            <path fill="none" stroke="black" d="M64.41,-37.15C67.73,-39.54 71.16,-42.01 74.55,-44.46"/>
            <polygon fill="black" stroke="black" points="72.68,-47.42 82.84,-50.43 76.77,-41.74 72.68,-47.42"/>
        </g>
        <!-- SPRING_SERVICE -->
        <g id="node3" class="node">
            <title>SPRING_SERVICE</title>
            <polygon fill="#eedd82" stroke="black"
                     points="202.42,-35.83 144.42,-35.83 144.42,-31.83 140.42,-31.83 140.42,-27.83 144.42,-27.83 144.42,-7.83 140.42,-7.83 140.42,-3.83 144.42,-3.83 144.42,0.17 202.42,0.17 202.42,-35.83"/>
            <polyline fill="none" stroke="black" points="144.42,-31.83 148.42,-31.83 148.42,-27.83 144.42,-27.83 "/>
            <polyline fill="none" stroke="black" points="144.42,-7.83 148.42,-7.83 148.42,-3.83 144.42,-3.83 "/>
            <text text-anchor="middle" x="173.42" y="-14.13" font-family="Times New Roman,serif" font-size="14.00">
                Service
            </text>
        </g>
        <!-- SPRING_SERVICE&#45;&gt;bouquet.application.service.auth.UserRepository -->
        <g id="edge2" class="edge">
            <title>SPRING_SERVICE&#45;&gt;bouquet.application.service.auth.UserRepository</title>
            <path fill="none" stroke="black" d="M147.89,-35.88C143.82,-38.75 139.57,-41.75 135.4,-44.7"/>
            <polygon fill="black" stroke="black" points="133.17,-41.99 127.02,-50.62 137.21,-47.71 133.17,-41.99"/>
        </g>
        <!-- SPRING_CONTROLLER -->
        <g id="node4" class="node">
            <title>SPRING_CONTROLLER</title>
            <polygon fill="#eedd82" stroke="black"
                     points="237.64,-91.3 164.64,-91.3 164.64,-87.3 160.64,-87.3 160.64,-83.3 164.64,-83.3 164.64,-63.3 160.64,-63.3 160.64,-59.3 164.64,-59.3 164.64,-55.3 237.64,-55.3 237.64,-91.3"/>
            <polyline fill="none" stroke="black" points="164.64,-87.3 168.64,-87.3 168.64,-83.3 164.64,-83.3 "/>
            <polyline fill="none" stroke="black" points="164.64,-63.3 168.64,-63.3 168.64,-59.3 164.64,-59.3 "/>
            <text text-anchor="middle" x="201.14" y="-69.6" font-family="Times New Roman,serif" font-size="14.00">
                Controller
            </text>
        </g>
    </g>
</svg>
