<?xml version="1.0" encoding="UTF-8" standalone="no"?><svg xmlns="http://www.w3.org/2000/svg" xmlns:xlink="http://www.w3.org/1999/xlink" contentStyleType="text/css" height="816px" preserveAspectRatio="none" style="width:3115px;height:816px;background:#FFFFFF;" version="1.1" viewBox="0 0 3115 816" width="3115px" zoomAndPan="magnify"><defs/><g><path d="M1808,37 L1967,37 A3.75,3.75 0 0 1 1969.5,39.5 L1976.5,59.2969 L1981,59.2969 A2.5,2.5 0 0 1 1983.5,61.7969 L1983.5,87.0938 A2.5,2.5 0 0 1 1981,89.5938 L1808,89.5938 A2.5,2.5 0 0 1 1805.5,87.0938 L1805.5,39.5 A2.5,2.5 0 0 1 1808,37 " fill="#F1F1F1" style="stroke:#181818;stroke-width:0.5;"/><line style="stroke:#181818;stroke-width:0.5;" x1="1805.5" x2="1976.5" y1="59.2969" y2="59.2969"/><text fill="#000000" font-family="sans-serif" font-size="14" lengthAdjust="spacing" textLength="158" x="1809.5" y="51.9951">TodoStatusTypeEnum</text><!--MD5=[67f100d94b12044e782866d6f1627f13]
class CompletedAt--><g id="elem_CompletedAt"><rect codeLine="1" fill="#F1F1F1" height="96.8906" id="CompletedAt" rx="2.5" ry="2.5" style="stroke:#181818;stroke-width:0.5;" width="351" x="7" y="15"/><ellipse cx="129.25" cy="31" fill="#ADD1B2" rx="11" ry="11" style="stroke:#181818;stroke-width:1.0;"/><path d="M131.5938,26.6719 C130.6563,26.2344 130.0625,26.0938 129.1875,26.0938 C126.5625,26.0938 124.5625,28.1719 124.5625,30.8906 L124.5625,32.0156 C124.5625,34.5938 126.6719,36.4844 129.5625,36.4844 C130.7813,36.4844 131.9375,36.1875 132.6875,35.6406 C133.2656,35.2344 133.5938,34.7813 133.5938,34.3906 C133.5938,33.9375 133.2031,33.5469 132.7344,33.5469 C132.5156,33.5469 132.3125,33.625 132.125,33.8125 C131.6719,34.2969 131.6719,34.2969 131.4844,34.3906 C131.0625,34.6563 130.375,34.7813 129.6094,34.7813 C127.5625,34.7813 126.2656,33.6875 126.2656,31.9844 L126.2656,30.8906 C126.2656,29.1094 127.5156,27.7969 129.25,27.7969 C129.8281,27.7969 130.4375,27.9531 130.9063,28.2031 C131.3906,28.4844 131.5625,28.7031 131.6563,29.1094 C131.7188,29.5156 131.75,29.6406 131.8906,29.7656 C132.0313,29.9063 132.2656,30.0156 132.4844,30.0156 C132.75,30.0156 133.0156,29.875 133.1875,29.6563 C133.2969,29.5 133.3281,29.3125 133.3281,28.8906 L133.3281,27.4688 C133.3281,27.0313 133.3125,26.9063 133.2188,26.75 C133.0625,26.4844 132.7813,26.3438 132.4844,26.3438 C132.1875,26.3438 131.9844,26.4375 131.7656,26.75 L131.5938,26.6719 Z " fill="#000000"/><text fill="#000000" font-family="sans-serif" font-size="14" lengthAdjust="spacing" textLength="98" x="149.75" y="35.8467">CompletedAt</text><line style="stroke:#181818;stroke-width:0.5;" x1="8" x2="357" y1="47" y2="47"/><rect fill="none" height="6" style="stroke:#C82930;stroke-width:1.0;" width="6" x="15" y="55"/><text fill="#000000" font-family="sans-serif" font-size="14" lengthAdjust="spacing" textLength="119" x="27" y="63.9951">value: Date | null</text><ellipse cx="18" cy="74.2969" fill="none" rx="3" ry="3" style="stroke:#038048;stroke-width:1.0;"/><text fill="#000000" font-family="sans-serif" font-size="14" lengthAdjust="spacing" textLength="121" x="27" y="80.292">Value: Date | null</text><line style="stroke:#181818;stroke-width:0.5;" x1="8" x2="357" y1="87.5938" y2="87.5938"/><ellipse cx="18" cy="98.5938" fill="#84BE84" rx="3" ry="3" style="stroke:#038048;stroke-width:1.0;"/><text fill="#000000" font-family="sans-serif" font-size="14" lengthAdjust="spacing" textLength="325" x="27" y="104.5889">equals(completedAt: CompletedAt): boolean</text></g><!--MD5=[dde4359a43de047b4d984bc31705a409]
class CreatedAt--><g id="elem_CreatedAt"><rect codeLine="6" fill="#F1F1F1" height="96.8906" id="CreatedAt" rx="2.5" ry="2.5" style="stroke:#181818;stroke-width:0.5;" width="305" x="393" y="15"/><ellipse cx="503.75" cy="31" fill="#ADD1B2" rx="11" ry="11" style="stroke:#181818;stroke-width:1.0;"/><path d="M506.0938,26.6719 C505.1563,26.2344 504.5625,26.0938 503.6875,26.0938 C501.0625,26.0938 499.0625,28.1719 499.0625,30.8906 L499.0625,32.0156 C499.0625,34.5938 501.1719,36.4844 504.0625,36.4844 C505.2813,36.4844 506.4375,36.1875 507.1875,35.6406 C507.7656,35.2344 508.0938,34.7813 508.0938,34.3906 C508.0938,33.9375 507.7031,33.5469 507.2344,33.5469 C507.0156,33.5469 506.8125,33.625 506.625,33.8125 C506.1719,34.2969 506.1719,34.2969 505.9844,34.3906 C505.5625,34.6563 504.875,34.7813 504.1094,34.7813 C502.0625,34.7813 500.7656,33.6875 500.7656,31.9844 L500.7656,30.8906 C500.7656,29.1094 502.0156,27.7969 503.75,27.7969 C504.3281,27.7969 504.9375,27.9531 505.4063,28.2031 C505.8906,28.4844 506.0625,28.7031 506.1563,29.1094 C506.2188,29.5156 506.25,29.6406 506.3906,29.7656 C506.5313,29.9063 506.7656,30.0156 506.9844,30.0156 C507.25,30.0156 507.5156,29.875 507.6875,29.6563 C507.7969,29.5 507.8281,29.3125 507.8281,28.8906 L507.8281,27.4688 C507.8281,27.0313 507.8125,26.9063 507.7188,26.75 C507.5625,26.4844 507.2813,26.3438 506.9844,26.3438 C506.6875,26.3438 506.4844,26.4375 506.2656,26.75 L506.0938,26.6719 Z " fill="#000000"/><text fill="#000000" font-family="sans-serif" font-size="14" lengthAdjust="spacing" textLength="75" x="524.25" y="35.8467">CreatedAt</text><line style="stroke:#181818;stroke-width:0.5;" x1="394" x2="697" y1="47" y2="47"/><rect fill="none" height="6" style="stroke:#C82930;stroke-width:1.0;" width="6" x="401" y="55"/><text fill="#000000" font-family="sans-serif" font-size="14" lengthAdjust="spacing" textLength="81" x="413" y="63.9951">value: Date</text><ellipse cx="404" cy="74.2969" fill="none" rx="3" ry="3" style="stroke:#038048;stroke-width:1.0;"/><text fill="#000000" font-family="sans-serif" font-size="14" lengthAdjust="spacing" textLength="83" x="413" y="80.292">Value: Date</text><line style="stroke:#181818;stroke-width:0.5;" x1="394" x2="697" y1="87.5938" y2="87.5938"/><ellipse cx="404" cy="98.5938" fill="#84BE84" rx="3" ry="3" style="stroke:#038048;stroke-width:1.0;"/><text fill="#000000" font-family="sans-serif" font-size="14" lengthAdjust="spacing" textLength="279" x="413" y="104.5889">equals(createdAt: CreatedAt): boolean</text></g><!--MD5=[cf3bb39649ce7f8bfa01714f85686c3f]
class DueDate--><g id="elem_DueDate"><rect codeLine="11" fill="#F1F1F1" height="113.1875" id="DueDate" rx="2.5" ry="2.5" style="stroke:#181818;stroke-width:0.5;" width="281" x="733" y="7"/><ellipse cx="837.75" cy="23" fill="#ADD1B2" rx="11" ry="11" style="stroke:#181818;stroke-width:1.0;"/><path d="M840.0938,18.6719 C839.1563,18.2344 838.5625,18.0938 837.6875,18.0938 C835.0625,18.0938 833.0625,20.1719 833.0625,22.8906 L833.0625,24.0156 C833.0625,26.5938 835.1719,28.4844 838.0625,28.4844 C839.2813,28.4844 840.4375,28.1875 841.1875,27.6406 C841.7656,27.2344 842.0938,26.7813 842.0938,26.3906 C842.0938,25.9375 841.7031,25.5469 841.2344,25.5469 C841.0156,25.5469 840.8125,25.625 840.625,25.8125 C840.1719,26.2969 840.1719,26.2969 839.9844,26.3906 C839.5625,26.6563 838.875,26.7813 838.1094,26.7813 C836.0625,26.7813 834.7656,25.6875 834.7656,23.9844 L834.7656,22.8906 C834.7656,21.1094 836.0156,19.7969 837.75,19.7969 C838.3281,19.7969 838.9375,19.9531 839.4063,20.2031 C839.8906,20.4844 840.0625,20.7031 840.1563,21.1094 C840.2188,21.5156 840.25,21.6406 840.3906,21.7656 C840.5313,21.9063 840.7656,22.0156 840.9844,22.0156 C841.25,22.0156 841.5156,21.875 841.6875,21.6563 C841.7969,21.5 841.8281,21.3125 841.8281,20.8906 L841.8281,19.4688 C841.8281,19.0313 841.8125,18.9063 841.7188,18.75 C841.5625,18.4844 841.2813,18.3438 840.9844,18.3438 C840.6875,18.3438 840.4844,18.4375 840.2656,18.75 L840.0938,18.6719 Z " fill="#000000"/><text fill="#000000" font-family="sans-serif" font-size="14" lengthAdjust="spacing" textLength="63" x="858.25" y="27.8467">DueDate</text><line style="stroke:#181818;stroke-width:0.5;" x1="734" x2="1013" y1="39" y2="39"/><rect fill="none" height="6" style="stroke:#C82930;stroke-width:1.0;" width="6" x="741" y="47"/><text fill="#000000" font-family="sans-serif" font-size="14" lengthAdjust="spacing" textLength="119" x="753" y="55.9951">value: Date | null</text><ellipse cx="744" cy="66.2969" fill="none" rx="3" ry="3" style="stroke:#038048;stroke-width:1.0;"/><text fill="#000000" font-family="sans-serif" font-size="14" lengthAdjust="spacing" textLength="121" x="753" y="72.292">Value: Date | null</text><line style="stroke:#181818;stroke-width:0.5;" x1="734" x2="1013" y1="79.5938" y2="79.5938"/><ellipse cx="744" cy="90.5938" fill="#84BE84" rx="3" ry="3" style="stroke:#038048;stroke-width:1.0;"/><text fill="#000000" font-family="sans-serif" font-size="14" lengthAdjust="spacing" textLength="255" x="753" y="96.5889">equals(dueDate: DueDate): boolean</text><ellipse cx="744" cy="106.8906" fill="#84BE84" rx="3" ry="3" style="stroke:#038048;stroke-width:1.0;"/><text fill="#000000" font-family="sans-serif" font-size="14" lengthAdjust="spacing" textLength="213" x="753" y="112.8857">overDue(day?: Date): boolean</text></g><!--MD5=[e3d83ec5fd90ea9f3f2bfe265cb53458]
class Status--><g id="elem_Status"><rect codeLine="17" fill="#F1F1F1" height="96.8906" id="Status" rx="2.5" ry="2.5" style="stroke:#181818;stroke-width:0.5;" width="116" x="2510.5" y="15"/><ellipse cx="2543.5" cy="31" fill="#B4A7E5" rx="11" ry="11" style="stroke:#181818;stroke-width:1.0;"/><path d="M2544.4531,27.7813 L2546.1719,27.7813 C2546.5625,27.7813 2546.75,27.75 2546.875,27.6719 C2547.1406,27.5156 2547.2813,27.2344 2547.2813,26.9375 C2547.2813,26.6719 2547.1719,26.4063 2546.9375,26.2344 C2546.7656,26.125 2546.625,26.0938 2546.1719,26.0938 L2541.0313,26.0938 C2540.5938,26.0938 2540.4688,26.1094 2540.3125,26.2031 C2540.0625,26.3594 2539.9063,26.6563 2539.9063,26.9375 C2539.9063,27.2188 2540.0469,27.4688 2540.2656,27.6406 C2540.4219,27.75 2540.6094,27.7813 2541.0313,27.7813 L2542.75,27.7813 L2542.75,34.2969 L2541.0313,34.2969 C2540.5938,34.2969 2540.4688,34.3125 2540.3125,34.4219 C2540.0625,34.5781 2539.9063,34.8594 2539.9063,35.1563 C2539.9063,35.4063 2540.0469,35.6719 2540.2656,35.8281 C2540.4219,35.9531 2540.625,36 2541.0313,36 L2546.1719,36 C2546.9219,36 2547.2813,35.7188 2547.2813,35.1563 C2547.2813,34.875 2547.1719,34.625 2546.9375,34.4531 C2546.7656,34.3281 2546.625,34.2969 2546.1719,34.2969 L2544.4531,34.2969 L2544.4531,27.7813 Z " fill="#000000"/><text fill="#000000" font-family="sans-serif" font-size="14" font-style="italic" lengthAdjust="spacing" textLength="44" x="2561.5" y="35.8467">Status</text><line style="stroke:#181818;stroke-width:0.5;" x1="2511.5" x2="2625.5" y1="47" y2="47"/><ellipse cx="2521.5" cy="58" fill="none" rx="3" ry="3" style="stroke:#038048;stroke-width:1.0;"/><text fill="#000000" font-family="sans-serif" font-size="14" lengthAdjust="spacing" textLength="90" x="2530.5" y="63.9951">Value: string</text><ellipse cx="2521.5" cy="74.2969" fill="none" rx="3" ry="3" style="stroke:#038048;stroke-width:1.0;"/><text fill="#000000" font-family="sans-serif" font-size="14" lengthAdjust="spacing" textLength="87" x="2530.5" y="80.292">Type: string</text><ellipse cx="2521.5" cy="90.5938" fill="none" rx="3" ry="3" style="stroke:#038048;stroke-width:1.0;"/><text fill="#000000" font-family="sans-serif" font-size="14" lengthAdjust="spacing" textLength="88" x="2530.5" y="96.5889">Code: string</text><line style="stroke:#181818;stroke-width:0.5;" x1="2511.5" x2="2625.5" y1="103.8906" y2="103.8906"/></g><!--MD5=[90111e5cdc788a7ef73a3273c23dcc2b]
class Title--><g id="elem_Title"><rect codeLine="22" fill="#F1F1F1" height="96.8906" id="Title" rx="2.5" ry="2.5" style="stroke:#181818;stroke-width:0.5;" width="230" x="1049.5" y="15"/><ellipse cx="1143.75" cy="31" fill="#ADD1B2" rx="11" ry="11" style="stroke:#181818;stroke-width:1.0;"/><path d="M1146.0938,26.6719 C1145.1563,26.2344 1144.5625,26.0938 1143.6875,26.0938 C1141.0625,26.0938 1139.0625,28.1719 1139.0625,30.8906 L1139.0625,32.0156 C1139.0625,34.5938 1141.1719,36.4844 1144.0625,36.4844 C1145.2813,36.4844 1146.4375,36.1875 1147.1875,35.6406 C1147.7656,35.2344 1148.0938,34.7813 1148.0938,34.3906 C1148.0938,33.9375 1147.7031,33.5469 1147.2344,33.5469 C1147.0156,33.5469 1146.8125,33.625 1146.625,33.8125 C1146.1719,34.2969 1146.1719,34.2969 1145.9844,34.3906 C1145.5625,34.6563 1144.875,34.7813 1144.1094,34.7813 C1142.0625,34.7813 1140.7656,33.6875 1140.7656,31.9844 L1140.7656,30.8906 C1140.7656,29.1094 1142.0156,27.7969 1143.75,27.7969 C1144.3281,27.7969 1144.9375,27.9531 1145.4063,28.2031 C1145.8906,28.4844 1146.0625,28.7031 1146.1563,29.1094 C1146.2188,29.5156 1146.25,29.6406 1146.3906,29.7656 C1146.5313,29.9063 1146.7656,30.0156 1146.9844,30.0156 C1147.25,30.0156 1147.5156,29.875 1147.6875,29.6563 C1147.7969,29.5 1147.8281,29.3125 1147.8281,28.8906 L1147.8281,27.4688 C1147.8281,27.0313 1147.8125,26.9063 1147.7188,26.75 C1147.5625,26.4844 1147.2813,26.3438 1146.9844,26.3438 C1146.6875,26.3438 1146.4844,26.4375 1146.2656,26.75 L1146.0938,26.6719 Z " fill="#000000"/><text fill="#000000" font-family="sans-serif" font-size="14" lengthAdjust="spacing" textLength="33" x="1164.25" y="35.8467">Title</text><line style="stroke:#181818;stroke-width:0.5;" x1="1050.5" x2="1278.5" y1="47" y2="47"/><rect fill="none" height="6" style="stroke:#C82930;stroke-width:1.0;" width="6" x="1057.5" y="55"/><text fill="#000000" font-family="sans-serif" font-size="14" lengthAdjust="spacing" textLength="88" x="1069.5" y="63.9951">value: string</text><ellipse cx="1060.5" cy="74.2969" fill="none" rx="3" ry="3" style="stroke:#038048;stroke-width:1.0;"/><text fill="#000000" font-family="sans-serif" font-size="14" lengthAdjust="spacing" textLength="90" x="1069.5" y="80.292">Value: string</text><line style="stroke:#181818;stroke-width:0.5;" x1="1050.5" x2="1278.5" y1="87.5938" y2="87.5938"/><ellipse cx="1060.5" cy="98.5938" fill="#84BE84" rx="3" ry="3" style="stroke:#038048;stroke-width:1.0;"/><text fill="#000000" font-family="sans-serif" font-size="14" lengthAdjust="spacing" textLength="204" x="1069.5" y="104.5889">equals(other: Title): boolean</text></g><!--MD5=[8b45b78e7bc2d73538542b608f866059]
class TodoStatusType--><g id="elem_TodoStatusType"><rect codeLine="27" fill="#F1F1F1" height="113.1875" id="TodoStatusType" rx="2.5" ry="2.5" style="stroke:#181818;stroke-width:0.5;" width="150" x="107.5" y="327"/><ellipse cx="122.5" cy="343" fill="#EB937F" rx="11" ry="11" style="stroke:#181818;stroke-width:1.0;"/><path d="M121.2969,343.875 L122.75,343.875 L122.75,343.9844 C122.75,344.3906 122.7813,344.5469 122.8594,344.7031 C123.0156,344.9531 123.2969,345.1094 123.5938,345.1094 C123.8438,345.1094 124.1094,344.9688 124.2656,344.75 C124.3906,344.5938 124.4219,344.4375 124.4219,343.9844 L124.4219,342.0625 C124.4219,341.9063 124.4219,341.8594 124.4063,341.7031 C124.3438,341.2344 124.0313,340.9219 123.5781,340.9219 C123.3281,340.9219 123.0625,341.0625 122.8906,341.2813 C122.7813,341.4531 122.75,341.6094 122.75,342.0625 L122.75,342.1875 L121.2969,342.1875 L121.2969,339.7813 L125.2813,339.7813 L125.2813,340.6406 C125.2813,341.0469 125.3125,341.2188 125.3906,341.375 C125.5625,341.625 125.8438,341.7813 126.125,341.7813 C126.3906,341.7813 126.6563,341.6406 126.8281,341.4219 C126.9375,341.25 126.9688,341.1094 126.9688,340.6406 L126.9688,338.0938 L119.3438,338.0938 C118.9063,338.0938 118.7813,338.1094 118.625,338.2031 C118.375,338.3594 118.2188,338.6563 118.2188,338.9375 C118.2188,339.2188 118.3594,339.4688 118.5781,339.6406 C118.7344,339.75 118.9219,339.7813 119.3438,339.7813 L119.5938,339.7813 L119.5938,346.2969 L119.3438,346.2969 C118.9375,346.2969 118.7813,346.3125 118.625,346.4219 C118.375,346.5938 118.2188,346.8594 118.2188,347.1563 C118.2188,347.4219 118.3594,347.6719 118.5781,347.8281 C118.7188,347.9531 118.9531,348 119.3438,348 L127.3438,348 L127.3438,345.4219 C127.3438,344.9844 127.3125,344.8438 127.2344,344.6875 C127.0625,344.4375 126.7813,344.2813 126.5,344.2813 C126.2344,344.2813 125.9688,344.3906 125.7969,344.6406 C125.6875,344.7969 125.6563,344.9375 125.6563,345.4219 L125.6563,346.2969 L121.2969,346.2969 L121.2969,343.875 Z " fill="#000000"/><text fill="#000000" font-family="sans-serif" font-size="14" lengthAdjust="spacing" textLength="118" x="136.5" y="347.8467">TodoStatusType</text><line style="stroke:#181818;stroke-width:0.5;" x1="108.5" x2="256.5" y1="359" y2="359"/><text fill="#000000" font-family="sans-serif" font-size="14" lengthAdjust="spacing" textLength="81" x="113.5" y="375.9951">UNDEFINED</text><text fill="#000000" font-family="sans-serif" font-size="14" lengthAdjust="spacing" textLength="104" x="113.5" y="392.292">NOT_STARTED</text><text fill="#000000" font-family="sans-serif" font-size="14" lengthAdjust="spacing" textLength="99" x="113.5" y="408.5889">IN_PROGRESS</text><text fill="#000000" font-family="sans-serif" font-size="14" lengthAdjust="spacing" textLength="88" x="113.5" y="424.8857">COMPLETED</text><line style="stroke:#181818;stroke-width:0.5;" x1="108.5" x2="256.5" y1="432.1875" y2="432.1875"/></g><!--MD5=[866844b0821af1c4534b10e65e4bdf58]
class TodoStatus--><g id="elem_TodoStatus"><rect codeLine="35" fill="#F1F1F1" height="162.0781" id="TodoStatus" rx="2.5" ry="2.5" style="stroke:#181818;stroke-width:0.5;" width="253" x="2442" y="302.5"/><ellipse cx="2524.25" cy="318.5" fill="#A9DCDF" rx="11" ry="11" style="stroke:#181818;stroke-width:1.0;"/><path d="M2526.3281,320.3125 L2526.7188,321.2969 L2526.3281,321.2969 C2525.875,321.2969 2525.7656,321.3125 2525.6094,321.4219 C2525.3594,321.5781 2525.2031,321.8594 2525.2031,322.1563 C2525.2031,322.4219 2525.3438,322.6719 2525.5625,322.8281 C2525.7031,322.9531 2525.9063,323 2526.3281,323 L2528.6875,323 C2529.0469,323 2529.2656,322.9688 2529.4063,322.875 C2529.6563,322.7344 2529.8125,322.4375 2529.8125,322.1563 C2529.8125,321.875 2529.6719,321.625 2529.4531,321.4688 C2529.2813,321.3281 2529.125,321.2969 2528.6563,321.2969 L2525.2656,313.0938 L2521.5938,313.0938 C2521.1406,313.0938 2521.0156,313.1094 2520.8594,313.2031 C2520.6094,313.375 2520.4531,313.6563 2520.4531,313.9375 C2520.4531,314.2188 2520.5938,314.4688 2520.8125,314.6406 C2520.9844,314.75 2521.1563,314.7813 2521.5938,314.7813 L2522.6719,314.7813 L2520.0313,321.2969 C2519.6094,321.2969 2519.4531,321.3125 2519.2969,321.4219 C2519.0469,321.5781 2518.8906,321.8594 2518.8906,322.1563 C2518.8906,322.7188 2519.2656,323 2520.0156,323 L2522.2813,323 C2522.6406,323 2522.8594,322.9688 2522.9844,322.875 C2523.25,322.7344 2523.3906,322.4375 2523.3906,322.1563 C2523.3906,321.875 2523.2656,321.625 2523.0469,321.4531 C2522.875,321.3281 2522.7344,321.2969 2522.2813,321.2969 L2521.8906,321.2969 L2522.2813,320.3125 L2526.3281,320.3125 Z M2525.625,318.6094 L2522.9531,318.6094 L2524.2969,315.3438 L2525.625,318.6094 Z " fill="#000000"/><text fill="#000000" font-family="sans-serif" font-size="14" font-style="italic" lengthAdjust="spacing" textLength="80" x="2544.75" y="323.3467">TodoStatus</text><line style="stroke:#181818;stroke-width:0.5;" x1="2443" x2="2694" y1="334.5" y2="334.5"/><polygon fill="none" points="2453,340.5,2457,344.5,2453,348.5,2449,344.5" style="stroke:#B38D22;stroke-width:1.0;"/><text fill="#000000" font-family="sans-serif" font-size="14" lengthAdjust="spacing" textLength="88" x="2462" y="351.4951">value: string</text><polygon fill="none" points="2453,356.7969,2457,360.7969,2453,364.7969,2449,360.7969" style="stroke:#B38D22;stroke-width:1.0;"/><text fill="#000000" font-family="sans-serif" font-size="14" lengthAdjust="spacing" textLength="85" x="2462" y="367.792">type: string</text><polygon fill="none" points="2453,373.0938,2457,377.0938,2453,381.0938,2449,377.0938" style="stroke:#B38D22;stroke-width:1.0;"/><text fill="#000000" font-family="sans-serif" font-size="14" lengthAdjust="spacing" textLength="86" x="2462" y="384.0889">code: string</text><ellipse cx="2453" cy="394.3906" fill="none" rx="3" ry="3" style="stroke:#038048;stroke-width:1.0;"/><text fill="#000000" font-family="sans-serif" font-size="14" lengthAdjust="spacing" textLength="90" x="2462" y="400.3857">Value: string</text><ellipse cx="2453" cy="410.6875" fill="none" rx="3" ry="3" style="stroke:#038048;stroke-width:1.0;"/><text fill="#000000" font-family="sans-serif" font-size="14" lengthAdjust="spacing" textLength="87" x="2462" y="416.6826">Type: string</text><ellipse cx="2453" cy="426.9844" fill="none" rx="3" ry="3" style="stroke:#038048;stroke-width:1.0;"/><text fill="#000000" font-family="sans-serif" font-size="14" lengthAdjust="spacing" textLength="88" x="2462" y="432.9795">Code: string</text><line style="stroke:#181818;stroke-width:0.5;" x1="2443" x2="2694" y1="440.2813" y2="440.2813"/><ellipse cx="2453" cy="451.2813" fill="#84BE84" rx="3" ry="3" style="stroke:#038048;stroke-width:1.0;"/><text fill="#000000" font-family="sans-serif" font-size="14" lengthAdjust="spacing" text-decoration="underline" textLength="227" x="2462" y="457.2764">create(todo: Todo): TodoStatus</text></g><!--MD5=[ebaed48d3e23019637b78bc7bca197b8]
class NotStarted--><g id="elem_NotStarted"><rect codeLine="44" fill="#F1F1F1" height="48" id="NotStarted" rx="2.5" ry="2.5" style="stroke:#181818;stroke-width:0.5;" width="113" x="2294" y="704"/><ellipse cx="2309" cy="720" fill="#ADD1B2" rx="11" ry="11" style="stroke:#181818;stroke-width:1.0;"/><path d="M2311.3438,715.6719 C2310.4063,715.2344 2309.8125,715.0938 2308.9375,715.0938 C2306.3125,715.0938 2304.3125,717.1719 2304.3125,719.8906 L2304.3125,721.0156 C2304.3125,723.5938 2306.4219,725.4844 2309.3125,725.4844 C2310.5313,725.4844 2311.6875,725.1875 2312.4375,724.6406 C2313.0156,724.2344 2313.3438,723.7813 2313.3438,723.3906 C2313.3438,722.9375 2312.9531,722.5469 2312.4844,722.5469 C2312.2656,722.5469 2312.0625,722.625 2311.875,722.8125 C2311.4219,723.2969 2311.4219,723.2969 2311.2344,723.3906 C2310.8125,723.6563 2310.125,723.7813 2309.3594,723.7813 C2307.3125,723.7813 2306.0156,722.6875 2306.0156,720.9844 L2306.0156,719.8906 C2306.0156,718.1094 2307.2656,716.7969 2309,716.7969 C2309.5781,716.7969 2310.1875,716.9531 2310.6563,717.2031 C2311.1406,717.4844 2311.3125,717.7031 2311.4063,718.1094 C2311.4688,718.5156 2311.5,718.6406 2311.6406,718.7656 C2311.7813,718.9063 2312.0156,719.0156 2312.2344,719.0156 C2312.5,719.0156 2312.7656,718.875 2312.9375,718.6563 C2313.0469,718.5 2313.0781,718.3125 2313.0781,717.8906 L2313.0781,716.4688 C2313.0781,716.0313 2313.0625,715.9063 2312.9688,715.75 C2312.8125,715.4844 2312.5313,715.3438 2312.2344,715.3438 C2311.9375,715.3438 2311.7344,715.4375 2311.5156,715.75 L2311.3438,715.6719 Z " fill="#000000"/><text fill="#000000" font-family="sans-serif" font-size="14" lengthAdjust="spacing" textLength="81" x="2323" y="724.8467">NotStarted</text><line style="stroke:#181818;stroke-width:0.5;" x1="2295" x2="2406" y1="736" y2="736"/><line style="stroke:#181818;stroke-width:0.5;" x1="2295" x2="2406" y1="744" y2="744"/></g><!--MD5=[4c0b4f1cd20d09e88ae73cd356825288]
class InProgress--><g id="elem_InProgress"><rect codeLine="45" fill="#F1F1F1" height="48" id="InProgress" rx="2.5" ry="2.5" style="stroke:#181818;stroke-width:0.5;" width="107" x="2442" y="704"/><ellipse cx="2457" cy="720" fill="#ADD1B2" rx="11" ry="11" style="stroke:#181818;stroke-width:1.0;"/><path d="M2459.3438,715.6719 C2458.4063,715.2344 2457.8125,715.0938 2456.9375,715.0938 C2454.3125,715.0938 2452.3125,717.1719 2452.3125,719.8906 L2452.3125,721.0156 C2452.3125,723.5938 2454.4219,725.4844 2457.3125,725.4844 C2458.5313,725.4844 2459.6875,725.1875 2460.4375,724.6406 C2461.0156,724.2344 2461.3438,723.7813 2461.3438,723.3906 C2461.3438,722.9375 2460.9531,722.5469 2460.4844,722.5469 C2460.2656,722.5469 2460.0625,722.625 2459.875,722.8125 C2459.4219,723.2969 2459.4219,723.2969 2459.2344,723.3906 C2458.8125,723.6563 2458.125,723.7813 2457.3594,723.7813 C2455.3125,723.7813 2454.0156,722.6875 2454.0156,720.9844 L2454.0156,719.8906 C2454.0156,718.1094 2455.2656,716.7969 2457,716.7969 C2457.5781,716.7969 2458.1875,716.9531 2458.6563,717.2031 C2459.1406,717.4844 2459.3125,717.7031 2459.4063,718.1094 C2459.4688,718.5156 2459.5,718.6406 2459.6406,718.7656 C2459.7813,718.9063 2460.0156,719.0156 2460.2344,719.0156 C2460.5,719.0156 2460.7656,718.875 2460.9375,718.6563 C2461.0469,718.5 2461.0781,718.3125 2461.0781,717.8906 L2461.0781,716.4688 C2461.0781,716.0313 2461.0625,715.9063 2460.9688,715.75 C2460.8125,715.4844 2460.5313,715.3438 2460.2344,715.3438 C2459.9375,715.3438 2459.7344,715.4375 2459.5156,715.75 L2459.3438,715.6719 Z " fill="#000000"/><text fill="#000000" font-family="sans-serif" font-size="14" lengthAdjust="spacing" textLength="75" x="2471" y="724.8467">InProgress</text><line style="stroke:#181818;stroke-width:0.5;" x1="2443" x2="2548" y1="736" y2="736"/><line style="stroke:#181818;stroke-width:0.5;" x1="2443" x2="2548" y1="744" y2="744"/></g><!--MD5=[cc11643e10bfa99d218cb499c8643474]
class Completed--><g id="elem_Completed"><rect codeLine="46" fill="#F1F1F1" height="48" id="Completed" rx="2.5" ry="2.5" style="stroke:#181818;stroke-width:0.5;" width="113" x="2584" y="704"/><ellipse cx="2599" cy="720" fill="#ADD1B2" rx="11" ry="11" style="stroke:#181818;stroke-width:1.0;"/><path d="M2601.3438,715.6719 C2600.4063,715.2344 2599.8125,715.0938 2598.9375,715.0938 C2596.3125,715.0938 2594.3125,717.1719 2594.3125,719.8906 L2594.3125,721.0156 C2594.3125,723.5938 2596.4219,725.4844 2599.3125,725.4844 C2600.5313,725.4844 2601.6875,725.1875 2602.4375,724.6406 C2603.0156,724.2344 2603.3438,723.7813 2603.3438,723.3906 C2603.3438,722.9375 2602.9531,722.5469 2602.4844,722.5469 C2602.2656,722.5469 2602.0625,722.625 2601.875,722.8125 C2601.4219,723.2969 2601.4219,723.2969 2601.2344,723.3906 C2600.8125,723.6563 2600.125,723.7813 2599.3594,723.7813 C2597.3125,723.7813 2596.0156,722.6875 2596.0156,720.9844 L2596.0156,719.8906 C2596.0156,718.1094 2597.2656,716.7969 2599,716.7969 C2599.5781,716.7969 2600.1875,716.9531 2600.6563,717.2031 C2601.1406,717.4844 2601.3125,717.7031 2601.4063,718.1094 C2601.4688,718.5156 2601.5,718.6406 2601.6406,718.7656 C2601.7813,718.9063 2602.0156,719.0156 2602.2344,719.0156 C2602.5,719.0156 2602.7656,718.875 2602.9375,718.6563 C2603.0469,718.5 2603.0781,718.3125 2603.0781,717.8906 L2603.0781,716.4688 C2603.0781,716.0313 2603.0625,715.9063 2602.9688,715.75 C2602.8125,715.4844 2602.5313,715.3438 2602.2344,715.3438 C2601.9375,715.3438 2601.7344,715.4375 2601.5156,715.75 L2601.3438,715.6719 Z " fill="#000000"/><text fill="#000000" font-family="sans-serif" font-size="14" lengthAdjust="spacing" textLength="81" x="2613" y="724.8467">Completed</text><line style="stroke:#181818;stroke-width:0.5;" x1="2585" x2="2696" y1="736" y2="736"/><line style="stroke:#181818;stroke-width:0.5;" x1="2585" x2="2696" y1="744" y2="744"/></g><!--MD5=[b9e37f36ecae42e7f00ee8b8247f48e6]
class Undefined--><g id="elem_Undefined"><rect codeLine="47" fill="#F1F1F1" height="48" id="Undefined" rx="2.5" ry="2.5" style="stroke:#181818;stroke-width:0.5;" width="105" x="2732" y="704"/><ellipse cx="2747" cy="720" fill="#ADD1B2" rx="11" ry="11" style="stroke:#181818;stroke-width:1.0;"/><path d="M2749.3438,715.6719 C2748.4063,715.2344 2747.8125,715.0938 2746.9375,715.0938 C2744.3125,715.0938 2742.3125,717.1719 2742.3125,719.8906 L2742.3125,721.0156 C2742.3125,723.5938 2744.4219,725.4844 2747.3125,725.4844 C2748.5313,725.4844 2749.6875,725.1875 2750.4375,724.6406 C2751.0156,724.2344 2751.3438,723.7813 2751.3438,723.3906 C2751.3438,722.9375 2750.9531,722.5469 2750.4844,722.5469 C2750.2656,722.5469 2750.0625,722.625 2749.875,722.8125 C2749.4219,723.2969 2749.4219,723.2969 2749.2344,723.3906 C2748.8125,723.6563 2748.125,723.7813 2747.3594,723.7813 C2745.3125,723.7813 2744.0156,722.6875 2744.0156,720.9844 L2744.0156,719.8906 C2744.0156,718.1094 2745.2656,716.7969 2747,716.7969 C2747.5781,716.7969 2748.1875,716.9531 2748.6563,717.2031 C2749.1406,717.4844 2749.3125,717.7031 2749.4063,718.1094 C2749.4688,718.5156 2749.5,718.6406 2749.6406,718.7656 C2749.7813,718.9063 2750.0156,719.0156 2750.2344,719.0156 C2750.5,719.0156 2750.7656,718.875 2750.9375,718.6563 C2751.0469,718.5 2751.0781,718.3125 2751.0781,717.8906 L2751.0781,716.4688 C2751.0781,716.0313 2751.0625,715.9063 2750.9688,715.75 C2750.8125,715.4844 2750.5313,715.3438 2750.2344,715.3438 C2749.9375,715.3438 2749.7344,715.4375 2749.5156,715.75 L2749.3438,715.6719 Z " fill="#000000"/><text fill="#000000" font-family="sans-serif" font-size="14" lengthAdjust="spacing" textLength="73" x="2761" y="724.8467">Undefined</text><line style="stroke:#181818;stroke-width:0.5;" x1="2733" x2="2836" y1="736" y2="736"/><line style="stroke:#181818;stroke-width:0.5;" x1="2733" x2="2836" y1="744" y2="744"/></g><!--MD5=[d304ca89bdbd8073bbc1ba7ea9e70f7d]
class Todo--><g id="elem_Todo"><rect codeLine="48" fill="#F1F1F1" height="406.5313" id="Todo" rx="2.5" ry="2.5" style="stroke:#181818;stroke-width:0.5;" width="1627" x="293" y="180"/><ellipse cx="1084.25" cy="196" fill="#ADD1B2" rx="11" ry="11" style="stroke:#181818;stroke-width:1.0;"/><path d="M1086.5938,191.6719 C1085.6563,191.2344 1085.0625,191.0938 1084.1875,191.0938 C1081.5625,191.0938 1079.5625,193.1719 1079.5625,195.8906 L1079.5625,197.0156 C1079.5625,199.5938 1081.6719,201.4844 1084.5625,201.4844 C1085.7813,201.4844 1086.9375,201.1875 1087.6875,200.6406 C1088.2656,200.2344 1088.5938,199.7813 1088.5938,199.3906 C1088.5938,198.9375 1088.2031,198.5469 1087.7344,198.5469 C1087.5156,198.5469 1087.3125,198.625 1087.125,198.8125 C1086.6719,199.2969 1086.6719,199.2969 1086.4844,199.3906 C1086.0625,199.6563 1085.375,199.7813 1084.6094,199.7813 C1082.5625,199.7813 1081.2656,198.6875 1081.2656,196.9844 L1081.2656,195.8906 C1081.2656,194.1094 1082.5156,192.7969 1084.25,192.7969 C1084.8281,192.7969 1085.4375,192.9531 1085.9063,193.2031 C1086.3906,193.4844 1086.5625,193.7031 1086.6563,194.1094 C1086.7188,194.5156 1086.75,194.6406 1086.8906,194.7656 C1087.0313,194.9063 1087.2656,195.0156 1087.4844,195.0156 C1087.75,195.0156 1088.0156,194.875 1088.1875,194.6563 C1088.2969,194.5 1088.3281,194.3125 1088.3281,193.8906 L1088.3281,192.4688 C1088.3281,192.0313 1088.3125,191.9063 1088.2188,191.75 C1088.0625,191.4844 1087.7813,191.3438 1087.4844,191.3438 C1087.1875,191.3438 1086.9844,191.4375 1086.7656,191.75 L1086.5938,191.6719 Z " fill="#000000"/><text fill="#000000" font-family="sans-serif" font-size="14" lengthAdjust="spacing" textLength="36" x="1104.75" y="200.8467">Todo</text><line style="stroke:#181818;stroke-width:0.5;" x1="294" x2="1919" y1="212" y2="212"/><rect fill="none" height="6" style="stroke:#C82930;stroke-width:1.0;" width="6" x="301" y="220"/><text fill="#000000" font-family="sans-serif" font-size="14" lengthAdjust="spacing" textLength="73" x="313" y="228.9951">title: Title</text><rect fill="none" height="6" style="stroke:#C82930;stroke-width:1.0;" width="6" x="301" y="236.2969"/><text fill="#000000" font-family="sans-serif" font-size="14" lengthAdjust="spacing" textLength="159" x="313" y="245.292">isCompleted: boolean</text><rect fill="none" height="6" style="stroke:#C82930;stroke-width:1.0;" width="6" x="301" y="252.5938"/><text fill="#000000" font-family="sans-serif" font-size="14" lengthAdjust="spacing" textLength="157" x="313" y="261.5889">createdAt: CreatedAt</text><rect fill="none" height="6" style="stroke:#C82930;stroke-width:1.0;" width="6" x="301" y="268.8906"/><text fill="#000000" font-family="sans-serif" font-size="14" lengthAdjust="spacing" textLength="203" x="313" y="277.8857">completedAt: CompletedAt</text><rect fill="none" height="6" style="stroke:#C82930;stroke-width:1.0;" width="6" x="301" y="285.1875"/><text fill="#000000" font-family="sans-serif" font-size="14" lengthAdjust="spacing" textLength="133" x="313" y="294.1826">dueDate: DueDate</text><rect fill="none" height="6" style="stroke:#C82930;stroke-width:1.0;" width="6" x="301" y="301.4844"/><text fill="#000000" font-family="sans-serif" font-size="14" lengthAdjust="spacing" textLength="140" x="313" y="310.4795">isOverDue: boolean</text><rect fill="none" height="6" style="stroke:#C82930;stroke-width:1.0;" width="6" x="301" y="317.7813"/><text fill="#000000" font-family="sans-serif" font-size="14" lengthAdjust="spacing" textLength="99" x="313" y="326.7764">status: Status</text><rect fill="none" height="6" style="stroke:#C82930;stroke-width:1.0;" width="6" x="301" y="334.0781"/><text fill="#000000" font-family="sans-serif" font-size="14" lengthAdjust="spacing" textLength="116" x="313" y="343.0732">id: number | null</text><ellipse cx="304" cy="353.375" fill="none" rx="3" ry="3" style="stroke:#038048;stroke-width:1.0;"/><text fill="#000000" font-family="sans-serif" font-size="14" lengthAdjust="spacing" textLength="84" x="313" y="359.3701">Title: string</text><ellipse cx="304" cy="369.6719" fill="none" rx="3" ry="3" style="stroke:#038048;stroke-width:1.0;"/><text fill="#000000" font-family="sans-serif" font-size="14" lengthAdjust="spacing" textLength="148" x="313" y="375.667">Completed: boolean</text><ellipse cx="304" cy="385.9688" fill="none" rx="3" ry="3" style="stroke:#038048;stroke-width:1.0;"/><text fill="#000000" font-family="sans-serif" font-size="14" lengthAdjust="spacing" textLength="119" x="313" y="391.9639">CreatedAt: Date</text><ellipse cx="304" cy="402.2656" fill="none" rx="3" ry="3" style="stroke:#038048;stroke-width:1.0;"/><text fill="#000000" font-family="sans-serif" font-size="14" lengthAdjust="spacing" textLength="180" x="313" y="408.2607">CompletedAt: Date | null</text><ellipse cx="304" cy="418.5625" fill="none" rx="3" ry="3" style="stroke:#038048;stroke-width:1.0;"/><text fill="#000000" font-family="sans-serif" font-size="14" lengthAdjust="spacing" textLength="145" x="313" y="424.5576">DueDate: Date | null</text><ellipse cx="304" cy="434.8594" fill="none" rx="3" ry="3" style="stroke:#038048;stroke-width:1.0;"/><text fill="#000000" font-family="sans-serif" font-size="14" lengthAdjust="spacing" textLength="129" x="313" y="440.8545">OverDue: boolean</text><ellipse cx="304" cy="451.1563" fill="none" rx="3" ry="3" style="stroke:#038048;stroke-width:1.0;"/><text fill="#000000" font-family="sans-serif" font-size="14" lengthAdjust="spacing" textLength="97" x="313" y="457.1514">Status: string</text><ellipse cx="304" cy="467.4531" fill="none" rx="3" ry="3" style="stroke:#038048;stroke-width:1.0;"/><text fill="#000000" font-family="sans-serif" font-size="14" lengthAdjust="spacing" textLength="116" x="313" y="473.4482">Id: number | null</text><ellipse cx="304" cy="483.75" fill="none" rx="3" ry="3" style="stroke:#038048;stroke-width:1.0;"/><text fill="#000000" font-family="sans-serif" font-size="14" lengthAdjust="spacing" textLength="134" x="313" y="489.7451">StatusCode: string</text><ellipse cx="304" cy="500.0469" fill="none" rx="3" ry="3" style="stroke:#038048;stroke-width:1.0;"/><text fill="#000000" font-family="sans-serif" font-size="14" lengthAdjust="spacing" textLength="133" x="313" y="506.042">StatusType: string</text><line style="stroke:#181818;stroke-width:0.5;" x1="294" x2="1919" y1="513.3438" y2="513.3438"/><ellipse cx="304" cy="524.3438" fill="#84BE84" rx="3" ry="3" style="stroke:#038048;stroke-width:1.0;"/><text fill="#000000" font-family="sans-serif" font-size="14" lengthAdjust="spacing" textLength="125" x="313" y="530.3389">complete(): Todo</text><ellipse cx="304" cy="540.6406" fill="#84BE84" rx="3" ry="3" style="stroke:#038048;stroke-width:1.0;"/><text fill="#000000" font-family="sans-serif" font-size="14" lengthAdjust="spacing" textLength="239" x="313" y="546.6357">setDueDate(due: DueDate): Todo</text><ellipse cx="304" cy="556.9375" fill="#84BE84" rx="3" ry="3" style="stroke:#038048;stroke-width:1.0;"/><text fill="#000000" font-family="sans-serif" font-size="14" lengthAdjust="spacing" textLength="207" x="313" y="562.9326">equals(other: Todo): boolean</text><ellipse cx="304" cy="573.2344" fill="#84BE84" rx="3" ry="3" style="stroke:#038048;stroke-width:1.0;"/><text fill="#000000" font-family="sans-serif" font-size="14" lengthAdjust="spacing" text-decoration="underline" textLength="1601" x="313" y="579.2295">create(params: { title: string; completed?: boolean | undefined; createdAt?: CreatedAt | undefined; completedAt?: CompletedAt | undefined; dueDate?: DueDate | undefined; id?: number | ... 1 more ... | undefined; }): Todo</text></g><!--MD5=[e94d231384a51b05733b2dafe609b38f]
class TodoList--><g id="elem_TodoList"><rect codeLine="72" fill="#F1F1F1" height="96.8906" id="TodoList" rx="2.5" ry="2.5" style="stroke:#181818;stroke-width:0.5;" width="212" x="1955.5" y="335"/><ellipse cx="2026.25" cy="351" fill="#ADD1B2" rx="11" ry="11" style="stroke:#181818;stroke-width:1.0;"/><path d="M2028.5938,346.6719 C2027.6563,346.2344 2027.0625,346.0938 2026.1875,346.0938 C2023.5625,346.0938 2021.5625,348.1719 2021.5625,350.8906 L2021.5625,352.0156 C2021.5625,354.5938 2023.6719,356.4844 2026.5625,356.4844 C2027.7813,356.4844 2028.9375,356.1875 2029.6875,355.6406 C2030.2656,355.2344 2030.5938,354.7813 2030.5938,354.3906 C2030.5938,353.9375 2030.2031,353.5469 2029.7344,353.5469 C2029.5156,353.5469 2029.3125,353.625 2029.125,353.8125 C2028.6719,354.2969 2028.6719,354.2969 2028.4844,354.3906 C2028.0625,354.6563 2027.375,354.7813 2026.6094,354.7813 C2024.5625,354.7813 2023.2656,353.6875 2023.2656,351.9844 L2023.2656,350.8906 C2023.2656,349.1094 2024.5156,347.7969 2026.25,347.7969 C2026.8281,347.7969 2027.4375,347.9531 2027.9063,348.2031 C2028.3906,348.4844 2028.5625,348.7031 2028.6563,349.1094 C2028.7188,349.5156 2028.75,349.6406 2028.8906,349.7656 C2029.0313,349.9063 2029.2656,350.0156 2029.4844,350.0156 C2029.75,350.0156 2030.0156,349.875 2030.1875,349.6563 C2030.2969,349.5 2030.3281,349.3125 2030.3281,348.8906 L2030.3281,347.4688 C2030.3281,347.0313 2030.3125,346.9063 2030.2188,346.75 C2030.0625,346.4844 2029.7813,346.3438 2029.4844,346.3438 C2029.1875,346.3438 2028.9844,346.4375 2028.7656,346.75 L2028.5938,346.6719 Z " fill="#000000"/><text fill="#000000" font-family="sans-serif" font-size="14" lengthAdjust="spacing" textLength="62" x="2046.75" y="355.8467">TodoList</text><line style="stroke:#181818;stroke-width:0.5;" x1="1956.5" x2="2166.5" y1="367" y2="367"/><rect fill="none" height="6" style="stroke:#C82930;stroke-width:1.0;" width="6" x="1963.5" y="375"/><text fill="#000000" font-family="sans-serif" font-size="14" lengthAdjust="spacing" textLength="92" x="1975.5" y="383.9951">value: Todo[]</text><ellipse cx="1966.5" cy="394.2969" fill="none" rx="3" ry="3" style="stroke:#038048;stroke-width:1.0;"/><text fill="#000000" font-family="sans-serif" font-size="14" lengthAdjust="spacing" textLength="94" x="1975.5" y="400.292">Value: Todo[]</text><line style="stroke:#181818;stroke-width:0.5;" x1="1956.5" x2="2166.5" y1="407.5938" y2="407.5938"/><ellipse cx="1966.5" cy="418.5938" fill="#84BE84" rx="3" ry="3" style="stroke:#038048;stroke-width:1.0;"/><text fill="#000000" font-family="sans-serif" font-size="14" lengthAdjust="spacing" textLength="186" x="1975.5" y="424.5889">add(todo: Todo): TodoList</text></g><!--MD5=[cf45e8ad0333bb05467ac0b4d70787c5]
class TodoEntity--><g id="elem_TodoEntity"><rect codeLine="77" fill="#F1F1F1" height="162.0781" id="TodoEntity" rx="2.5" ry="2.5" style="stroke:#181818;stroke-width:0.5;" width="204" x="2202.5" y="302.5"/><ellipse cx="2260.25" cy="318.5" fill="#ADD1B2" rx="11" ry="11" style="stroke:#181818;stroke-width:1.0;"/><path d="M2262.5938,314.1719 C2261.6563,313.7344 2261.0625,313.5938 2260.1875,313.5938 C2257.5625,313.5938 2255.5625,315.6719 2255.5625,318.3906 L2255.5625,319.5156 C2255.5625,322.0938 2257.6719,323.9844 2260.5625,323.9844 C2261.7813,323.9844 2262.9375,323.6875 2263.6875,323.1406 C2264.2656,322.7344 2264.5938,322.2813 2264.5938,321.8906 C2264.5938,321.4375 2264.2031,321.0469 2263.7344,321.0469 C2263.5156,321.0469 2263.3125,321.125 2263.125,321.3125 C2262.6719,321.7969 2262.6719,321.7969 2262.4844,321.8906 C2262.0625,322.1563 2261.375,322.2813 2260.6094,322.2813 C2258.5625,322.2813 2257.2656,321.1875 2257.2656,319.4844 L2257.2656,318.3906 C2257.2656,316.6094 2258.5156,315.2969 2260.25,315.2969 C2260.8281,315.2969 2261.4375,315.4531 2261.9063,315.7031 C2262.3906,315.9844 2262.5625,316.2031 2262.6563,316.6094 C2262.7188,317.0156 2262.75,317.1406 2262.8906,317.2656 C2263.0313,317.4063 2263.2656,317.5156 2263.4844,317.5156 C2263.75,317.5156 2264.0156,317.375 2264.1875,317.1563 C2264.2969,317 2264.3281,316.8125 2264.3281,316.3906 L2264.3281,314.9688 C2264.3281,314.5313 2264.3125,314.4063 2264.2188,314.25 C2264.0625,313.9844 2263.7813,313.8438 2263.4844,313.8438 C2263.1875,313.8438 2262.9844,313.9375 2262.7656,314.25 L2262.5938,314.1719 Z " fill="#000000"/><text fill="#000000" font-family="sans-serif" font-size="14" lengthAdjust="spacing" textLength="80" x="2280.75" y="323.3467">TodoEntity</text><line style="stroke:#181818;stroke-width:0.5;" x1="2203.5" x2="2405.5" y1="334.5" y2="334.5"/><ellipse cx="2213.5" cy="345.5" fill="none" rx="3" ry="3" style="stroke:#038048;stroke-width:1.0;"/><text fill="#000000" font-family="sans-serif" font-size="14" lengthAdjust="spacing" textLength="78" x="2222.5" y="351.4951">id: number</text><ellipse cx="2213.5" cy="361.7969" fill="none" rx="3" ry="3" style="stroke:#038048;stroke-width:1.0;"/><text fill="#000000" font-family="sans-serif" font-size="14" lengthAdjust="spacing" textLength="82" x="2222.5" y="367.792">title: string</text><ellipse cx="2213.5" cy="378.0938" fill="none" rx="3" ry="3" style="stroke:#038048;stroke-width:1.0;"/><text fill="#000000" font-family="sans-serif" font-size="14" lengthAdjust="spacing" textLength="146" x="2222.5" y="384.0889">completed: boolean</text><ellipse cx="2213.5" cy="394.3906" fill="none" rx="3" ry="3" style="stroke:#038048;stroke-width:1.0;"/><text fill="#000000" font-family="sans-serif" font-size="14" lengthAdjust="spacing" textLength="143" x="2222.5" y="400.3857">dueDate: Date | null</text><ellipse cx="2213.5" cy="410.6875" fill="none" rx="3" ry="3" style="stroke:#038048;stroke-width:1.0;"/><text fill="#000000" font-family="sans-serif" font-size="14" lengthAdjust="spacing" textLength="117" x="2222.5" y="416.6826">createdAt: Date</text><ellipse cx="2213.5" cy="426.9844" fill="none" rx="3" ry="3" style="stroke:#038048;stroke-width:1.0;"/><text fill="#000000" font-family="sans-serif" font-size="14" lengthAdjust="spacing" textLength="178" x="2222.5" y="432.9795">completedAt: Date | null</text><ellipse cx="2213.5" cy="443.2813" fill="none" rx="3" ry="3" style="stroke:#038048;stroke-width:1.0;"/><text fill="#000000" font-family="sans-serif" font-size="14" lengthAdjust="spacing" textLength="143" x="2222.5" y="449.2764">status: StatusEntity</text><line style="stroke:#181818;stroke-width:0.5;" x1="2203.5" x2="2405.5" y1="456.5781" y2="456.5781"/></g><!--MD5=[da1e831f50d675d9fa023d040e038ce0]
class StatusEntity--><g id="elem_StatusEntity"><rect codeLine="86" fill="#F1F1F1" height="129.4844" id="StatusEntity" rx="2.5" ry="2.5" style="stroke:#181818;stroke-width:0.5;" width="166" x="99.5" y="663.5"/><ellipse cx="134.3" cy="679.5" fill="#ADD1B2" rx="11" ry="11" style="stroke:#181818;stroke-width:1.0;"/><path d="M136.6438,675.1719 C135.7063,674.7344 135.1125,674.5938 134.2375,674.5938 C131.6125,674.5938 129.6125,676.6719 129.6125,679.3906 L129.6125,680.5156 C129.6125,683.0938 131.7219,684.9844 134.6125,684.9844 C135.8313,684.9844 136.9875,684.6875 137.7375,684.1406 C138.3156,683.7344 138.6438,683.2813 138.6438,682.8906 C138.6438,682.4375 138.2531,682.0469 137.7844,682.0469 C137.5656,682.0469 137.3625,682.125 137.175,682.3125 C136.7219,682.7969 136.7219,682.7969 136.5344,682.8906 C136.1125,683.1563 135.425,683.2813 134.6594,683.2813 C132.6125,683.2813 131.3156,682.1875 131.3156,680.4844 L131.3156,679.3906 C131.3156,677.6094 132.5656,676.2969 134.3,676.2969 C134.8781,676.2969 135.4875,676.4531 135.9563,676.7031 C136.4406,676.9844 136.6125,677.2031 136.7063,677.6094 C136.7688,678.0156 136.8,678.1406 136.9406,678.2656 C137.0813,678.4063 137.3156,678.5156 137.5344,678.5156 C137.8,678.5156 138.0656,678.375 138.2375,678.1563 C138.3469,678 138.3781,677.8125 138.3781,677.3906 L138.3781,675.9688 C138.3781,675.5313 138.3625,675.4063 138.2688,675.25 C138.1125,674.9844 137.8313,674.8438 137.5344,674.8438 C137.2375,674.8438 137.0344,674.9375 136.8156,675.25 L136.6438,675.1719 Z " fill="#000000"/><text fill="#000000" font-family="sans-serif" font-size="14" lengthAdjust="spacing" textLength="90" x="152.7" y="684.3467">StatusEntity</text><line style="stroke:#181818;stroke-width:0.5;" x1="100.5" x2="264.5" y1="695.5" y2="695.5"/><ellipse cx="110.5" cy="706.5" fill="none" rx="3" ry="3" style="stroke:#038048;stroke-width:1.0;"/><text fill="#000000" font-family="sans-serif" font-size="14" lengthAdjust="spacing" textLength="78" x="119.5" y="712.4951">id: number</text><ellipse cx="110.5" cy="722.7969" fill="none" rx="3" ry="3" style="stroke:#038048;stroke-width:1.0;"/><text fill="#000000" font-family="sans-serif" font-size="14" lengthAdjust="spacing" textLength="85" x="119.5" y="728.792">type: string</text><ellipse cx="110.5" cy="739.0938" fill="none" rx="3" ry="3" style="stroke:#038048;stroke-width:1.0;"/><text fill="#000000" font-family="sans-serif" font-size="14" lengthAdjust="spacing" textLength="86" x="119.5" y="745.0889">code: string</text><ellipse cx="110.5" cy="755.3906" fill="none" rx="3" ry="3" style="stroke:#038048;stroke-width:1.0;"/><text fill="#000000" font-family="sans-serif" font-size="14" lengthAdjust="spacing" textLength="91" x="119.5" y="761.3857">name: string</text><ellipse cx="110.5" cy="771.6875" fill="none" rx="3" ry="3" style="stroke:#038048;stroke-width:1.0;"/><text fill="#000000" font-family="sans-serif" font-size="14" lengthAdjust="spacing" textLength="140" x="119.5" y="777.6826">todos: TodoEntity[]</text><line style="stroke:#181818;stroke-width:0.5;" x1="100.5" x2="264.5" y1="784.9844" y2="784.9844"/></g><!--MD5=[4c557e82ab1fd837e5a934d1e0e1cd2c]
class TodoRepository--><g id="elem_TodoRepository"><rect codeLine="93" fill="#F1F1F1" height="162.0781" id="TodoRepository" rx="2.5" ry="2.5" style="stroke:#181818;stroke-width:0.5;" width="545" x="301" y="647"/><ellipse cx="511.75" cy="663" fill="#ADD1B2" rx="11" ry="11" style="stroke:#181818;stroke-width:1.0;"/><path d="M514.0938,658.6719 C513.1563,658.2344 512.5625,658.0938 511.6875,658.0938 C509.0625,658.0938 507.0625,660.1719 507.0625,662.8906 L507.0625,664.0156 C507.0625,666.5938 509.1719,668.4844 512.0625,668.4844 C513.2813,668.4844 514.4375,668.1875 515.1875,667.6406 C515.7656,667.2344 516.0938,666.7813 516.0938,666.3906 C516.0938,665.9375 515.7031,665.5469 515.2344,665.5469 C515.0156,665.5469 514.8125,665.625 514.625,665.8125 C514.1719,666.2969 514.1719,666.2969 513.9844,666.3906 C513.5625,666.6563 512.875,666.7813 512.1094,666.7813 C510.0625,666.7813 508.7656,665.6875 508.7656,663.9844 L508.7656,662.8906 C508.7656,661.1094 510.0156,659.7969 511.75,659.7969 C512.3281,659.7969 512.9375,659.9531 513.4063,660.2031 C513.8906,660.4844 514.0625,660.7031 514.1563,661.1094 C514.2188,661.5156 514.25,661.6406 514.3906,661.7656 C514.5313,661.9063 514.7656,662.0156 514.9844,662.0156 C515.25,662.0156 515.5156,661.875 515.6875,661.6563 C515.7969,661.5 515.8281,661.3125 515.8281,660.8906 L515.8281,659.4688 C515.8281,659.0313 515.8125,658.9063 515.7188,658.75 C515.5625,658.4844 515.2813,658.3438 514.9844,658.3438 C514.6875,658.3438 514.4844,658.4375 514.2656,658.75 L514.0938,658.6719 Z " fill="#000000"/><text fill="#000000" font-family="sans-serif" font-size="14" lengthAdjust="spacing" textLength="115" x="532.25" y="667.8467">TodoRepository</text><line style="stroke:#181818;stroke-width:0.5;" x1="302" x2="845" y1="679" y2="679"/><rect fill="none" height="6" style="stroke:#C82930;stroke-width:1.0;" width="6" x="309" y="687"/><text fill="#000000" font-family="sans-serif" font-size="14" lengthAdjust="spacing" textLength="229" x="321" y="695.9951">repository: Repository&lt;Entity&gt;</text><line style="stroke:#181818;stroke-width:0.5;" x1="302" x2="845" y1="703.2969" y2="703.2969"/><rect fill="#F24D5C" height="6" style="stroke:#C82930;stroke-width:1.0;" width="6" x="309" y="711.2969"/><text fill="#000000" font-family="sans-serif" font-size="14" lengthAdjust="spacing" textLength="519" x="321" y="720.292">createUpdateStatus(todo: DomainObject): Promise&lt;StatusEntity | null&gt;</text><ellipse cx="312" cy="730.5938" fill="#84BE84" rx="3" ry="3" style="stroke:#038048;stroke-width:1.0;"/><text fill="#000000" font-family="sans-serif" font-size="14" lengthAdjust="spacing" textLength="308" x="321" y="736.5889">getTodos(): Promise&lt;FirstClassCollection&gt;</text><ellipse cx="312" cy="746.8906" fill="#84BE84" rx="3" ry="3" style="stroke:#038048;stroke-width:1.0;"/><text fill="#000000" font-family="sans-serif" font-size="14" lengthAdjust="spacing" textLength="380" x="321" y="752.8857">getTodo(id: number): Promise&lt;DomainObject | null&gt;</text><ellipse cx="312" cy="763.1875" fill="#84BE84" rx="3" ry="3" style="stroke:#038048;stroke-width:1.0;"/><text fill="#000000" font-family="sans-serif" font-size="14" lengthAdjust="spacing" textLength="338" x="321" y="769.1826">addTodo(todo: DomainObject): Promise&lt;void&gt;</text><ellipse cx="312" cy="779.4844" fill="#84BE84" rx="3" ry="3" style="stroke:#038048;stroke-width:1.0;"/><text fill="#000000" font-family="sans-serif" font-size="14" lengthAdjust="spacing" textLength="359" x="321" y="785.4795">deleteTodo(todo: DomainObject): Promise&lt;void&gt;</text><ellipse cx="312" cy="795.7813" fill="#84BE84" rx="3" ry="3" style="stroke:#038048;stroke-width:1.0;"/><text fill="#000000" font-family="sans-serif" font-size="14" lengthAdjust="spacing" textLength="363" x="321" y="801.7764">updateTodo(todo: DomainObject): Promise&lt;void&gt;</text></g><!--MD5=[607c01281c15983c44675f9e6dea3db6]
class TodoService--><g id="elem_TodoService"><rect codeLine="102" fill="#F1F1F1" height="129.4844" id="TodoService" rx="2.5" ry="2.5" style="stroke:#181818;stroke-width:0.5;" width="363" x="2730" y="319"/><ellipse cx="2862.75" cy="335" fill="#ADD1B2" rx="11" ry="11" style="stroke:#181818;stroke-width:1.0;"/><path d="M2865.0938,330.6719 C2864.1563,330.2344 2863.5625,330.0938 2862.6875,330.0938 C2860.0625,330.0938 2858.0625,332.1719 2858.0625,334.8906 L2858.0625,336.0156 C2858.0625,338.5938 2860.1719,340.4844 2863.0625,340.4844 C2864.2813,340.4844 2865.4375,340.1875 2866.1875,339.6406 C2866.7656,339.2344 2867.0938,338.7813 2867.0938,338.3906 C2867.0938,337.9375 2866.7031,337.5469 2866.2344,337.5469 C2866.0156,337.5469 2865.8125,337.625 2865.625,337.8125 C2865.1719,338.2969 2865.1719,338.2969 2864.9844,338.3906 C2864.5625,338.6563 2863.875,338.7813 2863.1094,338.7813 C2861.0625,338.7813 2859.7656,337.6875 2859.7656,335.9844 L2859.7656,334.8906 C2859.7656,333.1094 2861.0156,331.7969 2862.75,331.7969 C2863.3281,331.7969 2863.9375,331.9531 2864.4063,332.2031 C2864.8906,332.4844 2865.0625,332.7031 2865.1563,333.1094 C2865.2188,333.5156 2865.25,333.6406 2865.3906,333.7656 C2865.5313,333.9063 2865.7656,334.0156 2865.9844,334.0156 C2866.25,334.0156 2866.5156,333.875 2866.6875,333.6563 C2866.7969,333.5 2866.8281,333.3125 2866.8281,332.8906 L2866.8281,331.4688 C2866.8281,331.0313 2866.8125,330.9063 2866.7188,330.75 C2866.5625,330.4844 2866.2813,330.3438 2865.9844,330.3438 C2865.6875,330.3438 2865.4844,330.4375 2865.2656,330.75 L2865.0938,330.6719 Z " fill="#000000"/><text fill="#000000" font-family="sans-serif" font-size="14" lengthAdjust="spacing" textLength="89" x="2883.25" y="339.8467">TodoService</text><line style="stroke:#181818;stroke-width:0.5;" x1="2731" x2="3092" y1="351" y2="351"/><rect fill="none" height="6" style="stroke:#C82930;stroke-width:1.0;" width="6" x="2738" y="359"/><text fill="#000000" font-family="sans-serif" font-size="14" lengthAdjust="spacing" textLength="199" x="2750" y="367.9951">repository: TodoRepository</text><line style="stroke:#181818;stroke-width:0.5;" x1="2731" x2="3092" y1="375.2969" y2="375.2969"/><ellipse cx="2741" cy="386.2969" fill="#84BE84" rx="3" ry="3" style="stroke:#038048;stroke-width:1.0;"/><text fill="#000000" font-family="sans-serif" font-size="14" lengthAdjust="spacing" textLength="223" x="2750" y="392.292">selectAll(): Promise&lt;TodoList&gt;</text><ellipse cx="2741" cy="402.5938" fill="#84BE84" rx="3" ry="3" style="stroke:#038048;stroke-width:1.0;"/><text fill="#000000" font-family="sans-serif" font-size="14" lengthAdjust="spacing" textLength="333" x="2750" y="408.5889">create(params: TodoRequest): Promise&lt;void&gt;</text><ellipse cx="2741" cy="418.8906" fill="#84BE84" rx="3" ry="3" style="stroke:#038048;stroke-width:1.0;"/><text fill="#000000" font-family="sans-serif" font-size="14" lengthAdjust="spacing" textLength="333" x="2750" y="424.8857">delete(params: TodoRequest): Promise&lt;void&gt;</text><ellipse cx="2741" cy="435.1875" fill="#84BE84" rx="3" ry="3" style="stroke:#038048;stroke-width:1.0;"/><text fill="#000000" font-family="sans-serif" font-size="14" lengthAdjust="spacing" textLength="337" x="2750" y="441.1826">update(params: TodoRequest): Promise&lt;void&gt;</text></g><!--MD5=[dbb8b4f13c7b21394f9d757e58732f45]
class Service--><g id="elem_Service"><rect codeLine="116" fill="#F1F1F1" height="113.1875" id="Service" rx="2.5" ry="2.5" style="stroke:#181818;stroke-width:0.5;" width="393" x="2715" y="7"/><ellipse cx="2880.75" cy="23" fill="#B4A7E5" rx="11" ry="11" style="stroke:#181818;stroke-width:1.0;"/><path d="M2881.7031,19.7813 L2883.4219,19.7813 C2883.8125,19.7813 2884,19.75 2884.125,19.6719 C2884.3906,19.5156 2884.5313,19.2344 2884.5313,18.9375 C2884.5313,18.6719 2884.4219,18.4063 2884.1875,18.2344 C2884.0156,18.125 2883.875,18.0938 2883.4219,18.0938 L2878.2813,18.0938 C2877.8438,18.0938 2877.7188,18.1094 2877.5625,18.2031 C2877.3125,18.3594 2877.1563,18.6563 2877.1563,18.9375 C2877.1563,19.2188 2877.2969,19.4688 2877.5156,19.6406 C2877.6719,19.75 2877.8594,19.7813 2878.2813,19.7813 L2880,19.7813 L2880,26.2969 L2878.2813,26.2969 C2877.8438,26.2969 2877.7188,26.3125 2877.5625,26.4219 C2877.3125,26.5781 2877.1563,26.8594 2877.1563,27.1563 C2877.1563,27.4063 2877.2969,27.6719 2877.5156,27.8281 C2877.6719,27.9531 2877.875,28 2878.2813,28 L2883.4219,28 C2884.1719,28 2884.5313,27.7188 2884.5313,27.1563 C2884.5313,26.875 2884.4219,26.625 2884.1875,26.4531 C2884.0156,26.3281 2883.875,26.2969 2883.4219,26.2969 L2881.7031,26.2969 L2881.7031,19.7813 Z " fill="#000000"/><text fill="#000000" font-family="sans-serif" font-size="14" font-style="italic" lengthAdjust="spacing" textLength="53" x="2901.25" y="27.8467">Service</text><line style="stroke:#181818;stroke-width:0.5;" x1="2716" x2="3107" y1="39" y2="39"/><line style="stroke:#181818;stroke-width:0.5;" x1="2716" x2="3107" y1="47" y2="47"/><ellipse cx="2726" cy="58" fill="#84BE84" rx="3" ry="3" style="stroke:#038048;stroke-width:1.0;"/><text fill="#000000" font-family="sans-serif" font-size="14" lengthAdjust="spacing" textLength="363" x="2735" y="63.9951">create(params: TodoRequest): PromiseLike&lt;void&gt;</text><ellipse cx="2726" cy="74.2969" fill="#84BE84" rx="3" ry="3" style="stroke:#038048;stroke-width:1.0;"/><text fill="#000000" font-family="sans-serif" font-size="14" lengthAdjust="spacing" textLength="253" x="2735" y="80.292">selectAll(): PromiseLike&lt;TodoList&gt;</text><ellipse cx="2726" cy="90.5938" fill="#84BE84" rx="3" ry="3" style="stroke:#038048;stroke-width:1.0;"/><text fill="#000000" font-family="sans-serif" font-size="14" lengthAdjust="spacing" textLength="367" x="2735" y="96.5889">update(params: TodoRequest): PromiseLike&lt;void&gt;</text><ellipse cx="2726" cy="106.8906" fill="#84BE84" rx="3" ry="3" style="stroke:#038048;stroke-width:1.0;"/><text fill="#000000" font-family="sans-serif" font-size="14" lengthAdjust="spacing" textLength="363" x="2735" y="112.8857">delete(params: TodoRequest): PromiseLike&lt;void&gt;</text></g><!--MD5=[a25ccc1209b4bad4051a7be06c87c7b8]
class TodoController--><g id="elem_TodoController"><rect codeLine="109" fill="#F1F1F1" height="129.4844" id="TodoController" rx="2.5" ry="2.5" style="stroke:#181818;stroke-width:0.5;" width="344" x="881.5" y="663.5"/><ellipse cx="994.75" cy="679.5" fill="#ADD1B2" rx="11" ry="11" style="stroke:#181818;stroke-width:1.0;"/><path d="M997.0938,675.1719 C996.1563,674.7344 995.5625,674.5938 994.6875,674.5938 C992.0625,674.5938 990.0625,676.6719 990.0625,679.3906 L990.0625,680.5156 C990.0625,683.0938 992.1719,684.9844 995.0625,684.9844 C996.2813,684.9844 997.4375,684.6875 998.1875,684.1406 C998.7656,683.7344 999.0938,683.2813 999.0938,682.8906 C999.0938,682.4375 998.7031,682.0469 998.2344,682.0469 C998.0156,682.0469 997.8125,682.125 997.625,682.3125 C997.1719,682.7969 997.1719,682.7969 996.9844,682.8906 C996.5625,683.1563 995.875,683.2813 995.1094,683.2813 C993.0625,683.2813 991.7656,682.1875 991.7656,680.4844 L991.7656,679.3906 C991.7656,677.6094 993.0156,676.2969 994.75,676.2969 C995.3281,676.2969 995.9375,676.4531 996.4063,676.7031 C996.8906,676.9844 997.0625,677.2031 997.1563,677.6094 C997.2188,678.0156 997.25,678.1406 997.3906,678.2656 C997.5313,678.4063 997.7656,678.5156 997.9844,678.5156 C998.25,678.5156 998.5156,678.375 998.6875,678.1563 C998.7969,678 998.8281,677.8125 998.8281,677.3906 L998.8281,675.9688 C998.8281,675.5313 998.8125,675.4063 998.7188,675.25 C998.5625,674.9844 998.2813,674.8438 997.9844,674.8438 C997.6875,674.8438 997.4844,674.9375 997.2656,675.25 L997.0938,675.1719 Z " fill="#000000"/><text fill="#000000" font-family="sans-serif" font-size="14" lengthAdjust="spacing" textLength="109" x="1015.25" y="684.3467">TodoController</text><line style="stroke:#181818;stroke-width:0.5;" x1="882.5" x2="1224.5" y1="695.5" y2="695.5"/><rect fill="none" height="6" style="stroke:#C82930;stroke-width:1.0;" width="6" x="889.5" y="703.5"/><text fill="#000000" font-family="sans-serif" font-size="14" lengthAdjust="spacing" textLength="113" x="901.5" y="712.4951">service: Service</text><line style="stroke:#181818;stroke-width:0.5;" x1="882.5" x2="1224.5" y1="719.7969" y2="719.7969"/><ellipse cx="892.5" cy="730.7969" fill="#84BE84" rx="3" ry="3" style="stroke:#038048;stroke-width:1.0;"/><text fill="#000000" font-family="sans-serif" font-size="14" lengthAdjust="spacing" textLength="223" x="901.5" y="736.792">selectAll(): Promise&lt;TodoList&gt;</text><ellipse cx="892.5" cy="747.0938" fill="#84BE84" rx="3" ry="3" style="stroke:#038048;stroke-width:1.0;"/><text fill="#000000" font-family="sans-serif" font-size="14" lengthAdjust="spacing" textLength="314" x="901.5" y="753.0889">create(todo: TodoRequest): Promise&lt;void&gt;</text><ellipse cx="892.5" cy="763.3906" fill="#84BE84" rx="3" ry="3" style="stroke:#038048;stroke-width:1.0;"/><text fill="#000000" font-family="sans-serif" font-size="14" lengthAdjust="spacing" textLength="314" x="901.5" y="769.3857">delete(todo: TodoRequest): Promise&lt;void&gt;</text><ellipse cx="892.5" cy="779.6875" fill="#84BE84" rx="3" ry="3" style="stroke:#038048;stroke-width:1.0;"/><text fill="#000000" font-family="sans-serif" font-size="14" lengthAdjust="spacing" textLength="318" x="901.5" y="785.6826">update(todo: TodoRequest): Promise&lt;void&gt;</text></g><!--MD5=[90c2eeb5b1c43f41de2a9553c00dd5e7]
reverse link Status to TodoStatus--><g id="link_Status_TodoStatus"><path d="M2568.5,132.251 C2568.5,182.059 2568.5,249.926 2568.5,302.419 " fill="none" id="Status-backto-TodoStatus" style="stroke:#181818;stroke-width:1.0;stroke-dasharray:7.0,7.0;"/><polygon fill="none" points="2561.5,132.108,2568.5,112.108,2575.5,132.108,2561.5,132.108" style="stroke:#181818;stroke-width:1.0;"/></g><!--MD5=[ebb592ff29e93e2dfd26247b56493251]
reverse link TodoStatus to NotStarted--><g id="link_TodoStatus_NotStarted"><path d="M2506.65,481.679 C2458.03,558.062 2393.91,658.797 2365.34,703.685 " fill="none" id="TodoStatus-backto-NotStarted" style="stroke:#181818;stroke-width:1.0;"/><polygon fill="none" points="2500.74,477.915,2517.39,464.801,2512.55,485.432,2500.74,477.915" style="stroke:#181818;stroke-width:1.0;"/></g><!--MD5=[63986a0e5cc34f102e943fcb74e6a640]
reverse link TodoStatus to InProgress--><g id="link_TodoStatus_InProgress"><path d="M2547.17,484.579 C2530.97,560.592 2509.92,659.363 2500.47,703.685 " fill="none" id="TodoStatus-backto-InProgress" style="stroke:#181818;stroke-width:1.0;"/><polygon fill="none" points="2540.37,482.902,2551.38,464.801,2554.06,485.821,2540.37,482.902" style="stroke:#181818;stroke-width:1.0;"/></g><!--MD5=[6e26457b256553e6fb06ab3173327d68]
reverse link TodoStatus to Completed--><g id="link_TodoStatus_Completed"><path d="M2589.54,484.579 C2605.52,560.592 2626.28,659.363 2635.6,703.685 " fill="none" id="TodoStatus-backto-Completed" style="stroke:#181818;stroke-width:1.0;"/><polygon fill="none" points="2582.65,485.813,2585.38,464.801,2596.35,482.933,2582.65,485.813" style="stroke:#181818;stroke-width:1.0;"/></g><!--MD5=[119361190cdd54cf66ab20ad6dd3660c]
reverse link TodoStatus to Undefined--><g id="link_TodoStatus_Undefined"><path d="M2630.09,482.161 C2678.22,558.485 2741.55,658.892 2769.8,703.685 " fill="none" id="TodoStatus-backto-Undefined" style="stroke:#181818;stroke-width:1.0;"/><polygon fill="none" points="2623.89,485.452,2619.14,464.801,2635.73,477.984,2623.89,485.452" style="stroke:#181818;stroke-width:1.0;"/></g><!--MD5=[cf6bf8784ce41bc80f656847812dbf59]
reverse link Service to TodoService--><g id="link_Service_TodoService"><path d="M2911.5,140.528 C2911.5,194.983 2911.5,267.477 2911.5,318.877 " fill="none" id="Service-backto-TodoService" style="stroke:#181818;stroke-width:1.0;stroke-dasharray:7.0,7.0;"/><polygon fill="none" points="2904.5,140.255,2911.5,120.255,2918.5,140.255,2904.5,140.255" style="stroke:#181818;stroke-width:1.0;"/></g><!--MD5=[770cf862c4b03f8e1693e82d63f18da7]
@startuml
class CompletedAt {
    -value: Date | null
    +Value: Date | null
    +equals(completedAt: CompletedAt): boolean
}
class CreatedAt {
    -value: Date
    +Value: Date
    +equals(createdAt: CreatedAt): boolean
}
class DueDate {
    -value: Date | null
    +Value: Date | null
    +equals(dueDate: DueDate): boolean
    +overDue(day?: Date): boolean
}
interface Status {
    +Value: string
    +Type: string
    +Code: string
}
class Title {
    -value: string
    +Value: string
    +equals(other: Title): boolean
}
enum TodoStatusType {
    UNDEFINED
    NOT_STARTED
    IN_PROGRESS
    COMPLETED
}
namespace TodoStatusTypeEnum {
}
abstract class TodoStatus implements Status {
    #value: string
    #type: string
    #code: string
    +Value: string
    +Type: string
    +Code: string
    +{static} create(todo: Todo): TodoStatus
}
class NotStarted extends TodoStatus
class InProgress extends TodoStatus
class Completed extends TodoStatus
class Undefined extends TodoStatus
class Todo {
    -title: Title
    -isCompleted: boolean
    -createdAt: CreatedAt
    -completedAt: CompletedAt
    -dueDate: DueDate
    -isOverDue: boolean
    -status: Status
    -id: number | null
    +Title: string
    +Completed: boolean
    +CreatedAt: Date
    +CompletedAt: Date | null
    +DueDate: Date | null
    +OverDue: boolean
    +Status: string
    +Id: number | null
    +StatusCode: string
    +StatusType: string
    +complete(): Todo
    +setDueDate(due: DueDate): Todo
    +equals(other: Todo): boolean
    +{static} create(params: { title: string; completed?: boolean | undefined; createdAt?: CreatedAt | undefined; completedAt?: CompletedAt | undefined; dueDate?: DueDate | undefined; id?: number | ... 1 more ... | undefined; }): Todo
}
class TodoList {
    -value: Todo[]
    +Value: Todo[]
    +add(todo: Todo): TodoList
}
class TodoEntity {
    +id: number
    +title: string
    +completed: boolean
    +dueDate: Date | null
    +createdAt: Date
    +completedAt: Date | null
    +status: StatusEntity
}
class StatusEntity {
    +id: number
    +type: string
    +code: string
    +name: string
    +todos: TodoEntity[]
}
class TodoRepository {
    -repository: Repository<Entity>
    -createUpdateStatus(todo: DomainObject): Promise<StatusEntity | null>
    +getTodos(): Promise<FirstClassCollection>
    +getTodo(id: number): Promise<DomainObject | null>
    +addTodo(todo: DomainObject): Promise<void>
    +deleteTodo(todo: DomainObject): Promise<void>
    +updateTodo(todo: DomainObject): Promise<void>
}
class TodoService implements Service {
    -repository: TodoRepository
    +selectAll(): Promise<TodoList>
    +create(params: TodoRequest): Promise<void>
    +delete(params: TodoRequest): Promise<void>
    +update(params: TodoRequest): Promise<void>
}
class TodoController {
    -service: Service
    +selectAll(): Promise<TodoList>
    +create(todo: TodoRequest): Promise<void>
    +delete(todo: TodoRequest): Promise<void>
    +update(todo: TodoRequest): Promise<void>
}
interface Service {
    +create(params: TodoRequest): PromiseLike<void>
    +selectAll(): PromiseLike<TodoList>
    +update(params: TodoRequest): PromiseLike<void>
    +delete(params: TodoRequest): PromiseLike<void>
}
@enduml

PlantUML version 1.2022.4beta2(Unknown compile time)
(GPL source distribution)
Java Runtime: Java(TM) SE Runtime Environment
JVM: Java HotSpot(TM) 64-Bit Server VM
Default Encoding: UTF-8
Language: en
Country: US
--></g></svg>