<?xml version="1.0" encoding="UTF-8" standalone="no"?><svg xmlns="http://www.w3.org/2000/svg" xmlns:xlink="http://www.w3.org/1999/xlink" contentStyleType="text/css" height="865px" preserveAspectRatio="none" style="width:3405px;height:865px;background:#FFFFFF;" version="1.1" viewBox="0 0 3405 865" width="3405px" zoomAndPan="magnify"><defs/><g><path d="M1811,61.5 L1970,61.5 A3.75,3.75 0 0 1 1972.5,64 L1979.5,83.7969 L1984,83.7969 A2.5,2.5 0 0 1 1986.5,86.2969 L1986.5,111.5938 A2.5,2.5 0 0 1 1984,114.0938 L1811,114.0938 A2.5,2.5 0 0 1 1808.5,111.5938 L1808.5,64 A2.5,2.5 0 0 1 1811,61.5 " fill="#F1F1F1" style="stroke:#181818;stroke-width:0.5;"/><line style="stroke:#181818;stroke-width:0.5;" x1="1808.5" x2="1979.5" y1="83.7969" y2="83.7969"/><text fill="#000000" font-family="sans-serif" font-size="14" lengthAdjust="spacing" textLength="158" x="1812.5" y="76.4951">TodoStatusTypeEnum</text><!--MD5=[67f100d94b12044e782866d6f1627f13]
class CompletedAt--><g id="elem_CompletedAt"><rect codeLine="1" fill="#F1F1F1" height="96.8906" id="CompletedAt" rx="2.5" ry="2.5" style="stroke:#181818;stroke-width:0.5;" width="351" x="7" y="39.5"/><ellipse cx="129.25" cy="55.5" fill="#ADD1B2" rx="11" ry="11" style="stroke:#181818;stroke-width:1.0;"/><path d="M131.5938,51.1719 C130.6563,50.7344 130.0625,50.5938 129.1875,50.5938 C126.5625,50.5938 124.5625,52.6719 124.5625,55.3906 L124.5625,56.5156 C124.5625,59.0938 126.6719,60.9844 129.5625,60.9844 C130.7813,60.9844 131.9375,60.6875 132.6875,60.1406 C133.2656,59.7344 133.5938,59.2813 133.5938,58.8906 C133.5938,58.4375 133.2031,58.0469 132.7344,58.0469 C132.5156,58.0469 132.3125,58.125 132.125,58.3125 C131.6719,58.7969 131.6719,58.7969 131.4844,58.8906 C131.0625,59.1563 130.375,59.2813 129.6094,59.2813 C127.5625,59.2813 126.2656,58.1875 126.2656,56.4844 L126.2656,55.3906 C126.2656,53.6094 127.5156,52.2969 129.25,52.2969 C129.8281,52.2969 130.4375,52.4531 130.9063,52.7031 C131.3906,52.9844 131.5625,53.2031 131.6563,53.6094 C131.7188,54.0156 131.75,54.1406 131.8906,54.2656 C132.0313,54.4063 132.2656,54.5156 132.4844,54.5156 C132.75,54.5156 133.0156,54.375 133.1875,54.1563 C133.2969,54 133.3281,53.8125 133.3281,53.3906 L133.3281,51.9688 C133.3281,51.5313 133.3125,51.4063 133.2188,51.25 C133.0625,50.9844 132.7813,50.8438 132.4844,50.8438 C132.1875,50.8438 131.9844,50.9375 131.7656,51.25 L131.5938,51.1719 Z " fill="#000000"/><text fill="#000000" font-family="sans-serif" font-size="14" lengthAdjust="spacing" textLength="98" x="149.75" y="60.3467">CompletedAt</text><line style="stroke:#181818;stroke-width:0.5;" x1="8" x2="357" y1="71.5" y2="71.5"/><rect fill="none" height="6" style="stroke:#C82930;stroke-width:1.0;" width="6" x="15" y="79.5"/><text fill="#000000" font-family="sans-serif" font-size="14" lengthAdjust="spacing" textLength="119" x="27" y="88.4951">value: Date | null</text><ellipse cx="18" cy="98.7969" fill="none" rx="3" ry="3" style="stroke:#038048;stroke-width:1.0;"/><text fill="#000000" font-family="sans-serif" font-size="14" lengthAdjust="spacing" textLength="121" x="27" y="104.792">Value: Date | null</text><line style="stroke:#181818;stroke-width:0.5;" x1="8" x2="357" y1="112.0938" y2="112.0938"/><ellipse cx="18" cy="123.0938" fill="#84BE84" rx="3" ry="3" style="stroke:#038048;stroke-width:1.0;"/><text fill="#000000" font-family="sans-serif" font-size="14" lengthAdjust="spacing" textLength="325" x="27" y="129.0889">equals(completedAt: CompletedAt): boolean</text></g><!--MD5=[dde4359a43de047b4d984bc31705a409]
class CreatedAt--><g id="elem_CreatedAt"><rect codeLine="6" fill="#F1F1F1" height="96.8906" id="CreatedAt" rx="2.5" ry="2.5" style="stroke:#181818;stroke-width:0.5;" width="305" x="393" y="39.5"/><ellipse cx="503.75" cy="55.5" fill="#ADD1B2" rx="11" ry="11" style="stroke:#181818;stroke-width:1.0;"/><path d="M506.0938,51.1719 C505.1563,50.7344 504.5625,50.5938 503.6875,50.5938 C501.0625,50.5938 499.0625,52.6719 499.0625,55.3906 L499.0625,56.5156 C499.0625,59.0938 501.1719,60.9844 504.0625,60.9844 C505.2813,60.9844 506.4375,60.6875 507.1875,60.1406 C507.7656,59.7344 508.0938,59.2813 508.0938,58.8906 C508.0938,58.4375 507.7031,58.0469 507.2344,58.0469 C507.0156,58.0469 506.8125,58.125 506.625,58.3125 C506.1719,58.7969 506.1719,58.7969 505.9844,58.8906 C505.5625,59.1563 504.875,59.2813 504.1094,59.2813 C502.0625,59.2813 500.7656,58.1875 500.7656,56.4844 L500.7656,55.3906 C500.7656,53.6094 502.0156,52.2969 503.75,52.2969 C504.3281,52.2969 504.9375,52.4531 505.4063,52.7031 C505.8906,52.9844 506.0625,53.2031 506.1563,53.6094 C506.2188,54.0156 506.25,54.1406 506.3906,54.2656 C506.5313,54.4063 506.7656,54.5156 506.9844,54.5156 C507.25,54.5156 507.5156,54.375 507.6875,54.1563 C507.7969,54 507.8281,53.8125 507.8281,53.3906 L507.8281,51.9688 C507.8281,51.5313 507.8125,51.4063 507.7188,51.25 C507.5625,50.9844 507.2813,50.8438 506.9844,50.8438 C506.6875,50.8438 506.4844,50.9375 506.2656,51.25 L506.0938,51.1719 Z " fill="#000000"/><text fill="#000000" font-family="sans-serif" font-size="14" lengthAdjust="spacing" textLength="75" x="524.25" y="60.3467">CreatedAt</text><line style="stroke:#181818;stroke-width:0.5;" x1="394" x2="697" y1="71.5" y2="71.5"/><rect fill="none" height="6" style="stroke:#C82930;stroke-width:1.0;" width="6" x="401" y="79.5"/><text fill="#000000" font-family="sans-serif" font-size="14" lengthAdjust="spacing" textLength="81" x="413" y="88.4951">value: Date</text><ellipse cx="404" cy="98.7969" fill="none" rx="3" ry="3" style="stroke:#038048;stroke-width:1.0;"/><text fill="#000000" font-family="sans-serif" font-size="14" lengthAdjust="spacing" textLength="83" x="413" y="104.792">Value: Date</text><line style="stroke:#181818;stroke-width:0.5;" x1="394" x2="697" y1="112.0938" y2="112.0938"/><ellipse cx="404" cy="123.0938" fill="#84BE84" rx="3" ry="3" style="stroke:#038048;stroke-width:1.0;"/><text fill="#000000" font-family="sans-serif" font-size="14" lengthAdjust="spacing" textLength="279" x="413" y="129.0889">equals(createdAt: CreatedAt): boolean</text></g><!--MD5=[cf3bb39649ce7f8bfa01714f85686c3f]
class DueDate--><g id="elem_DueDate"><rect codeLine="11" fill="#F1F1F1" height="113.1875" id="DueDate" rx="2.5" ry="2.5" style="stroke:#181818;stroke-width:0.5;" width="281" x="733" y="31.5"/><ellipse cx="837.75" cy="47.5" fill="#ADD1B2" rx="11" ry="11" style="stroke:#181818;stroke-width:1.0;"/><path d="M840.0938,43.1719 C839.1563,42.7344 838.5625,42.5938 837.6875,42.5938 C835.0625,42.5938 833.0625,44.6719 833.0625,47.3906 L833.0625,48.5156 C833.0625,51.0938 835.1719,52.9844 838.0625,52.9844 C839.2813,52.9844 840.4375,52.6875 841.1875,52.1406 C841.7656,51.7344 842.0938,51.2813 842.0938,50.8906 C842.0938,50.4375 841.7031,50.0469 841.2344,50.0469 C841.0156,50.0469 840.8125,50.125 840.625,50.3125 C840.1719,50.7969 840.1719,50.7969 839.9844,50.8906 C839.5625,51.1563 838.875,51.2813 838.1094,51.2813 C836.0625,51.2813 834.7656,50.1875 834.7656,48.4844 L834.7656,47.3906 C834.7656,45.6094 836.0156,44.2969 837.75,44.2969 C838.3281,44.2969 838.9375,44.4531 839.4063,44.7031 C839.8906,44.9844 840.0625,45.2031 840.1563,45.6094 C840.2188,46.0156 840.25,46.1406 840.3906,46.2656 C840.5313,46.4063 840.7656,46.5156 840.9844,46.5156 C841.25,46.5156 841.5156,46.375 841.6875,46.1563 C841.7969,46 841.8281,45.8125 841.8281,45.3906 L841.8281,43.9688 C841.8281,43.5313 841.8125,43.4063 841.7188,43.25 C841.5625,42.9844 841.2813,42.8438 840.9844,42.8438 C840.6875,42.8438 840.4844,42.9375 840.2656,43.25 L840.0938,43.1719 Z " fill="#000000"/><text fill="#000000" font-family="sans-serif" font-size="14" lengthAdjust="spacing" textLength="63" x="858.25" y="52.3467">DueDate</text><line style="stroke:#181818;stroke-width:0.5;" x1="734" x2="1013" y1="63.5" y2="63.5"/><rect fill="none" height="6" style="stroke:#C82930;stroke-width:1.0;" width="6" x="741" y="71.5"/><text fill="#000000" font-family="sans-serif" font-size="14" lengthAdjust="spacing" textLength="119" x="753" y="80.4951">value: Date | null</text><ellipse cx="744" cy="90.7969" fill="none" rx="3" ry="3" style="stroke:#038048;stroke-width:1.0;"/><text fill="#000000" font-family="sans-serif" font-size="14" lengthAdjust="spacing" textLength="121" x="753" y="96.792">Value: Date | null</text><line style="stroke:#181818;stroke-width:0.5;" x1="734" x2="1013" y1="104.0938" y2="104.0938"/><ellipse cx="744" cy="115.0938" fill="#84BE84" rx="3" ry="3" style="stroke:#038048;stroke-width:1.0;"/><text fill="#000000" font-family="sans-serif" font-size="14" lengthAdjust="spacing" textLength="255" x="753" y="121.0889">equals(dueDate: DueDate): boolean</text><ellipse cx="744" cy="131.3906" fill="#84BE84" rx="3" ry="3" style="stroke:#038048;stroke-width:1.0;"/><text fill="#000000" font-family="sans-serif" font-size="14" lengthAdjust="spacing" textLength="213" x="753" y="137.3857">overDue(day?: Date): boolean</text></g><!--MD5=[90111e5cdc788a7ef73a3273c23dcc2b]
class Title--><g id="elem_Title"><rect codeLine="17" fill="#F1F1F1" height="96.8906" id="Title" rx="2.5" ry="2.5" style="stroke:#181818;stroke-width:0.5;" width="230" x="1049.5" y="39.5"/><ellipse cx="1143.75" cy="55.5" fill="#ADD1B2" rx="11" ry="11" style="stroke:#181818;stroke-width:1.0;"/><path d="M1146.0938,51.1719 C1145.1563,50.7344 1144.5625,50.5938 1143.6875,50.5938 C1141.0625,50.5938 1139.0625,52.6719 1139.0625,55.3906 L1139.0625,56.5156 C1139.0625,59.0938 1141.1719,60.9844 1144.0625,60.9844 C1145.2813,60.9844 1146.4375,60.6875 1147.1875,60.1406 C1147.7656,59.7344 1148.0938,59.2813 1148.0938,58.8906 C1148.0938,58.4375 1147.7031,58.0469 1147.2344,58.0469 C1147.0156,58.0469 1146.8125,58.125 1146.625,58.3125 C1146.1719,58.7969 1146.1719,58.7969 1145.9844,58.8906 C1145.5625,59.1563 1144.875,59.2813 1144.1094,59.2813 C1142.0625,59.2813 1140.7656,58.1875 1140.7656,56.4844 L1140.7656,55.3906 C1140.7656,53.6094 1142.0156,52.2969 1143.75,52.2969 C1144.3281,52.2969 1144.9375,52.4531 1145.4063,52.7031 C1145.8906,52.9844 1146.0625,53.2031 1146.1563,53.6094 C1146.2188,54.0156 1146.25,54.1406 1146.3906,54.2656 C1146.5313,54.4063 1146.7656,54.5156 1146.9844,54.5156 C1147.25,54.5156 1147.5156,54.375 1147.6875,54.1563 C1147.7969,54 1147.8281,53.8125 1147.8281,53.3906 L1147.8281,51.9688 C1147.8281,51.5313 1147.8125,51.4063 1147.7188,51.25 C1147.5625,50.9844 1147.2813,50.8438 1146.9844,50.8438 C1146.6875,50.8438 1146.4844,50.9375 1146.2656,51.25 L1146.0938,51.1719 Z " fill="#000000"/><text fill="#000000" font-family="sans-serif" font-size="14" lengthAdjust="spacing" textLength="33" x="1164.25" y="60.3467">Title</text><line style="stroke:#181818;stroke-width:0.5;" x1="1050.5" x2="1278.5" y1="71.5" y2="71.5"/><rect fill="none" height="6" style="stroke:#C82930;stroke-width:1.0;" width="6" x="1057.5" y="79.5"/><text fill="#000000" font-family="sans-serif" font-size="14" lengthAdjust="spacing" textLength="88" x="1069.5" y="88.4951">value: string</text><ellipse cx="1060.5" cy="98.7969" fill="none" rx="3" ry="3" style="stroke:#038048;stroke-width:1.0;"/><text fill="#000000" font-family="sans-serif" font-size="14" lengthAdjust="spacing" textLength="90" x="1069.5" y="104.792">Value: string</text><line style="stroke:#181818;stroke-width:0.5;" x1="1050.5" x2="1278.5" y1="112.0938" y2="112.0938"/><ellipse cx="1060.5" cy="123.0938" fill="#84BE84" rx="3" ry="3" style="stroke:#038048;stroke-width:1.0;"/><text fill="#000000" font-family="sans-serif" font-size="14" lengthAdjust="spacing" textLength="204" x="1069.5" y="129.0889">equals(other: Title): boolean</text></g><!--MD5=[8b45b78e7bc2d73538542b608f866059]
class TodoStatusType--><g id="elem_TodoStatusType"><rect codeLine="22" fill="#F1F1F1" height="113.1875" id="TodoStatusType" rx="2.5" ry="2.5" style="stroke:#181818;stroke-width:0.5;" width="150" x="107.5" y="376"/><ellipse cx="122.5" cy="392" fill="#EB937F" rx="11" ry="11" style="stroke:#181818;stroke-width:1.0;"/><path d="M121.2969,392.875 L122.75,392.875 L122.75,392.9844 C122.75,393.3906 122.7813,393.5469 122.8594,393.7031 C123.0156,393.9531 123.2969,394.1094 123.5938,394.1094 C123.8438,394.1094 124.1094,393.9688 124.2656,393.75 C124.3906,393.5938 124.4219,393.4375 124.4219,392.9844 L124.4219,391.0625 C124.4219,390.9063 124.4219,390.8594 124.4063,390.7031 C124.3438,390.2344 124.0313,389.9219 123.5781,389.9219 C123.3281,389.9219 123.0625,390.0625 122.8906,390.2813 C122.7813,390.4531 122.75,390.6094 122.75,391.0625 L122.75,391.1875 L121.2969,391.1875 L121.2969,388.7813 L125.2813,388.7813 L125.2813,389.6406 C125.2813,390.0469 125.3125,390.2188 125.3906,390.375 C125.5625,390.625 125.8438,390.7813 126.125,390.7813 C126.3906,390.7813 126.6563,390.6406 126.8281,390.4219 C126.9375,390.25 126.9688,390.1094 126.9688,389.6406 L126.9688,387.0938 L119.3438,387.0938 C118.9063,387.0938 118.7813,387.1094 118.625,387.2031 C118.375,387.3594 118.2188,387.6563 118.2188,387.9375 C118.2188,388.2188 118.3594,388.4688 118.5781,388.6406 C118.7344,388.75 118.9219,388.7813 119.3438,388.7813 L119.5938,388.7813 L119.5938,395.2969 L119.3438,395.2969 C118.9375,395.2969 118.7813,395.3125 118.625,395.4219 C118.375,395.5938 118.2188,395.8594 118.2188,396.1563 C118.2188,396.4219 118.3594,396.6719 118.5781,396.8281 C118.7188,396.9531 118.9531,397 119.3438,397 L127.3438,397 L127.3438,394.4219 C127.3438,393.9844 127.3125,393.8438 127.2344,393.6875 C127.0625,393.4375 126.7813,393.2813 126.5,393.2813 C126.2344,393.2813 125.9688,393.3906 125.7969,393.6406 C125.6875,393.7969 125.6563,393.9375 125.6563,394.4219 L125.6563,395.2969 L121.2969,395.2969 L121.2969,392.875 Z " fill="#000000"/><text fill="#000000" font-family="sans-serif" font-size="14" lengthAdjust="spacing" textLength="118" x="136.5" y="396.8467">TodoStatusType</text><line style="stroke:#181818;stroke-width:0.5;" x1="108.5" x2="256.5" y1="408" y2="408"/><text fill="#000000" font-family="sans-serif" font-size="14" lengthAdjust="spacing" textLength="81" x="113.5" y="424.9951">UNDEFINED</text><text fill="#000000" font-family="sans-serif" font-size="14" lengthAdjust="spacing" textLength="104" x="113.5" y="441.292">NOT_STARTED</text><text fill="#000000" font-family="sans-serif" font-size="14" lengthAdjust="spacing" textLength="99" x="113.5" y="457.5889">IN_PROGRESS</text><text fill="#000000" font-family="sans-serif" font-size="14" lengthAdjust="spacing" textLength="88" x="113.5" y="473.8857">COMPLETED</text><line style="stroke:#181818;stroke-width:0.5;" x1="108.5" x2="256.5" y1="481.1875" y2="481.1875"/></g><!--MD5=[866844b0821af1c4534b10e65e4bdf58]
class TodoStatus--><g id="elem_TodoStatus"><rect codeLine="30" fill="#F1F1F1" height="162.0781" id="TodoStatus" rx="2.5" ry="2.5" style="stroke:#181818;stroke-width:0.5;" width="253" x="2589" y="7"/><ellipse cx="2671.25" cy="23" fill="#A9DCDF" rx="11" ry="11" style="stroke:#181818;stroke-width:1.0;"/><path d="M2673.3281,24.8125 L2673.7188,25.7969 L2673.3281,25.7969 C2672.875,25.7969 2672.7656,25.8125 2672.6094,25.9219 C2672.3594,26.0781 2672.2031,26.3594 2672.2031,26.6563 C2672.2031,26.9219 2672.3438,27.1719 2672.5625,27.3281 C2672.7031,27.4531 2672.9063,27.5 2673.3281,27.5 L2675.6875,27.5 C2676.0469,27.5 2676.2656,27.4688 2676.4063,27.375 C2676.6563,27.2344 2676.8125,26.9375 2676.8125,26.6563 C2676.8125,26.375 2676.6719,26.125 2676.4531,25.9688 C2676.2813,25.8281 2676.125,25.7969 2675.6563,25.7969 L2672.2656,17.5938 L2668.5938,17.5938 C2668.1406,17.5938 2668.0156,17.6094 2667.8594,17.7031 C2667.6094,17.875 2667.4531,18.1563 2667.4531,18.4375 C2667.4531,18.7188 2667.5938,18.9688 2667.8125,19.1406 C2667.9844,19.25 2668.1563,19.2813 2668.5938,19.2813 L2669.6719,19.2813 L2667.0313,25.7969 C2666.6094,25.7969 2666.4531,25.8125 2666.2969,25.9219 C2666.0469,26.0781 2665.8906,26.3594 2665.8906,26.6563 C2665.8906,27.2188 2666.2656,27.5 2667.0156,27.5 L2669.2813,27.5 C2669.6406,27.5 2669.8594,27.4688 2669.9844,27.375 C2670.25,27.2344 2670.3906,26.9375 2670.3906,26.6563 C2670.3906,26.375 2670.2656,26.125 2670.0469,25.9531 C2669.875,25.8281 2669.7344,25.7969 2669.2813,25.7969 L2668.8906,25.7969 L2669.2813,24.8125 L2673.3281,24.8125 Z M2672.625,23.1094 L2669.9531,23.1094 L2671.2969,19.8438 L2672.625,23.1094 Z " fill="#000000"/><text fill="#000000" font-family="sans-serif" font-size="14" font-style="italic" lengthAdjust="spacing" textLength="80" x="2691.75" y="27.8467">TodoStatus</text><line style="stroke:#181818;stroke-width:0.5;" x1="2590" x2="2841" y1="39" y2="39"/><polygon fill="none" points="2600,45,2604,49,2600,53,2596,49" style="stroke:#B38D22;stroke-width:1.0;"/><text fill="#000000" font-family="sans-serif" font-size="14" lengthAdjust="spacing" textLength="88" x="2609" y="55.9951">value: string</text><polygon fill="none" points="2600,61.2969,2604,65.2969,2600,69.2969,2596,65.2969" style="stroke:#B38D22;stroke-width:1.0;"/><text fill="#000000" font-family="sans-serif" font-size="14" lengthAdjust="spacing" textLength="85" x="2609" y="72.292">type: string</text><polygon fill="none" points="2600,77.5938,2604,81.5938,2600,85.5938,2596,81.5938" style="stroke:#B38D22;stroke-width:1.0;"/><text fill="#000000" font-family="sans-serif" font-size="14" lengthAdjust="spacing" textLength="86" x="2609" y="88.5889">code: string</text><ellipse cx="2600" cy="98.8906" fill="none" rx="3" ry="3" style="stroke:#038048;stroke-width:1.0;"/><text fill="#000000" font-family="sans-serif" font-size="14" lengthAdjust="spacing" textLength="90" x="2609" y="104.8857">Value: string</text><ellipse cx="2600" cy="115.1875" fill="none" rx="3" ry="3" style="stroke:#038048;stroke-width:1.0;"/><text fill="#000000" font-family="sans-serif" font-size="14" lengthAdjust="spacing" textLength="87" x="2609" y="121.1826">Type: string</text><ellipse cx="2600" cy="131.4844" fill="none" rx="3" ry="3" style="stroke:#038048;stroke-width:1.0;"/><text fill="#000000" font-family="sans-serif" font-size="14" lengthAdjust="spacing" textLength="88" x="2609" y="137.4795">Code: string</text><line style="stroke:#181818;stroke-width:0.5;" x1="2590" x2="2841" y1="144.7813" y2="144.7813"/><ellipse cx="2600" cy="155.7813" fill="#84BE84" rx="3" ry="3" style="stroke:#038048;stroke-width:1.0;"/><text fill="#000000" font-family="sans-serif" font-size="14" lengthAdjust="spacing" text-decoration="underline" textLength="227" x="2609" y="161.7764">create(todo: Todo): TodoStatus</text></g><!--MD5=[ebaed48d3e23019637b78bc7bca197b8]
class NotStarted--><g id="elem_NotStarted"><rect codeLine="39" fill="#F1F1F1" height="48" id="NotStarted" rx="2.5" ry="2.5" style="stroke:#181818;stroke-width:0.5;" width="113" x="2442" y="408.5"/><ellipse cx="2457" cy="424.5" fill="#ADD1B2" rx="11" ry="11" style="stroke:#181818;stroke-width:1.0;"/><path d="M2459.3438,420.1719 C2458.4063,419.7344 2457.8125,419.5938 2456.9375,419.5938 C2454.3125,419.5938 2452.3125,421.6719 2452.3125,424.3906 L2452.3125,425.5156 C2452.3125,428.0938 2454.4219,429.9844 2457.3125,429.9844 C2458.5313,429.9844 2459.6875,429.6875 2460.4375,429.1406 C2461.0156,428.7344 2461.3438,428.2813 2461.3438,427.8906 C2461.3438,427.4375 2460.9531,427.0469 2460.4844,427.0469 C2460.2656,427.0469 2460.0625,427.125 2459.875,427.3125 C2459.4219,427.7969 2459.4219,427.7969 2459.2344,427.8906 C2458.8125,428.1563 2458.125,428.2813 2457.3594,428.2813 C2455.3125,428.2813 2454.0156,427.1875 2454.0156,425.4844 L2454.0156,424.3906 C2454.0156,422.6094 2455.2656,421.2969 2457,421.2969 C2457.5781,421.2969 2458.1875,421.4531 2458.6563,421.7031 C2459.1406,421.9844 2459.3125,422.2031 2459.4063,422.6094 C2459.4688,423.0156 2459.5,423.1406 2459.6406,423.2656 C2459.7813,423.4063 2460.0156,423.5156 2460.2344,423.5156 C2460.5,423.5156 2460.7656,423.375 2460.9375,423.1563 C2461.0469,423 2461.0781,422.8125 2461.0781,422.3906 L2461.0781,420.9688 C2461.0781,420.5313 2461.0625,420.4063 2460.9688,420.25 C2460.8125,419.9844 2460.5313,419.8438 2460.2344,419.8438 C2459.9375,419.8438 2459.7344,419.9375 2459.5156,420.25 L2459.3438,420.1719 Z " fill="#000000"/><text fill="#000000" font-family="sans-serif" font-size="14" lengthAdjust="spacing" textLength="81" x="2471" y="429.3467">NotStarted</text><line style="stroke:#181818;stroke-width:0.5;" x1="2443" x2="2554" y1="440.5" y2="440.5"/><line style="stroke:#181818;stroke-width:0.5;" x1="2443" x2="2554" y1="448.5" y2="448.5"/></g><!--MD5=[4c0b4f1cd20d09e88ae73cd356825288]
class InProgress--><g id="elem_InProgress"><rect codeLine="40" fill="#F1F1F1" height="48" id="InProgress" rx="2.5" ry="2.5" style="stroke:#181818;stroke-width:0.5;" width="107" x="2590" y="408.5"/><ellipse cx="2605" cy="424.5" fill="#ADD1B2" rx="11" ry="11" style="stroke:#181818;stroke-width:1.0;"/><path d="M2607.3438,420.1719 C2606.4063,419.7344 2605.8125,419.5938 2604.9375,419.5938 C2602.3125,419.5938 2600.3125,421.6719 2600.3125,424.3906 L2600.3125,425.5156 C2600.3125,428.0938 2602.4219,429.9844 2605.3125,429.9844 C2606.5313,429.9844 2607.6875,429.6875 2608.4375,429.1406 C2609.0156,428.7344 2609.3438,428.2813 2609.3438,427.8906 C2609.3438,427.4375 2608.9531,427.0469 2608.4844,427.0469 C2608.2656,427.0469 2608.0625,427.125 2607.875,427.3125 C2607.4219,427.7969 2607.4219,427.7969 2607.2344,427.8906 C2606.8125,428.1563 2606.125,428.2813 2605.3594,428.2813 C2603.3125,428.2813 2602.0156,427.1875 2602.0156,425.4844 L2602.0156,424.3906 C2602.0156,422.6094 2603.2656,421.2969 2605,421.2969 C2605.5781,421.2969 2606.1875,421.4531 2606.6563,421.7031 C2607.1406,421.9844 2607.3125,422.2031 2607.4063,422.6094 C2607.4688,423.0156 2607.5,423.1406 2607.6406,423.2656 C2607.7813,423.4063 2608.0156,423.5156 2608.2344,423.5156 C2608.5,423.5156 2608.7656,423.375 2608.9375,423.1563 C2609.0469,423 2609.0781,422.8125 2609.0781,422.3906 L2609.0781,420.9688 C2609.0781,420.5313 2609.0625,420.4063 2608.9688,420.25 C2608.8125,419.9844 2608.5313,419.8438 2608.2344,419.8438 C2607.9375,419.8438 2607.7344,419.9375 2607.5156,420.25 L2607.3438,420.1719 Z " fill="#000000"/><text fill="#000000" font-family="sans-serif" font-size="14" lengthAdjust="spacing" textLength="75" x="2619" y="429.3467">InProgress</text><line style="stroke:#181818;stroke-width:0.5;" x1="2591" x2="2696" y1="440.5" y2="440.5"/><line style="stroke:#181818;stroke-width:0.5;" x1="2591" x2="2696" y1="448.5" y2="448.5"/></g><!--MD5=[cc11643e10bfa99d218cb499c8643474]
class Completed--><g id="elem_Completed"><rect codeLine="41" fill="#F1F1F1" height="48" id="Completed" rx="2.5" ry="2.5" style="stroke:#181818;stroke-width:0.5;" width="113" x="2732" y="408.5"/><ellipse cx="2747" cy="424.5" fill="#ADD1B2" rx="11" ry="11" style="stroke:#181818;stroke-width:1.0;"/><path d="M2749.3438,420.1719 C2748.4063,419.7344 2747.8125,419.5938 2746.9375,419.5938 C2744.3125,419.5938 2742.3125,421.6719 2742.3125,424.3906 L2742.3125,425.5156 C2742.3125,428.0938 2744.4219,429.9844 2747.3125,429.9844 C2748.5313,429.9844 2749.6875,429.6875 2750.4375,429.1406 C2751.0156,428.7344 2751.3438,428.2813 2751.3438,427.8906 C2751.3438,427.4375 2750.9531,427.0469 2750.4844,427.0469 C2750.2656,427.0469 2750.0625,427.125 2749.875,427.3125 C2749.4219,427.7969 2749.4219,427.7969 2749.2344,427.8906 C2748.8125,428.1563 2748.125,428.2813 2747.3594,428.2813 C2745.3125,428.2813 2744.0156,427.1875 2744.0156,425.4844 L2744.0156,424.3906 C2744.0156,422.6094 2745.2656,421.2969 2747,421.2969 C2747.5781,421.2969 2748.1875,421.4531 2748.6563,421.7031 C2749.1406,421.9844 2749.3125,422.2031 2749.4063,422.6094 C2749.4688,423.0156 2749.5,423.1406 2749.6406,423.2656 C2749.7813,423.4063 2750.0156,423.5156 2750.2344,423.5156 C2750.5,423.5156 2750.7656,423.375 2750.9375,423.1563 C2751.0469,423 2751.0781,422.8125 2751.0781,422.3906 L2751.0781,420.9688 C2751.0781,420.5313 2751.0625,420.4063 2750.9688,420.25 C2750.8125,419.9844 2750.5313,419.8438 2750.2344,419.8438 C2749.9375,419.8438 2749.7344,419.9375 2749.5156,420.25 L2749.3438,420.1719 Z " fill="#000000"/><text fill="#000000" font-family="sans-serif" font-size="14" lengthAdjust="spacing" textLength="81" x="2761" y="429.3467">Completed</text><line style="stroke:#181818;stroke-width:0.5;" x1="2733" x2="2844" y1="440.5" y2="440.5"/><line style="stroke:#181818;stroke-width:0.5;" x1="2733" x2="2844" y1="448.5" y2="448.5"/></g><!--MD5=[b9e37f36ecae42e7f00ee8b8247f48e6]
class Undefined--><g id="elem_Undefined"><rect codeLine="42" fill="#F1F1F1" height="48" id="Undefined" rx="2.5" ry="2.5" style="stroke:#181818;stroke-width:0.5;" width="105" x="2880" y="408.5"/><ellipse cx="2895" cy="424.5" fill="#ADD1B2" rx="11" ry="11" style="stroke:#181818;stroke-width:1.0;"/><path d="M2897.3438,420.1719 C2896.4063,419.7344 2895.8125,419.5938 2894.9375,419.5938 C2892.3125,419.5938 2890.3125,421.6719 2890.3125,424.3906 L2890.3125,425.5156 C2890.3125,428.0938 2892.4219,429.9844 2895.3125,429.9844 C2896.5313,429.9844 2897.6875,429.6875 2898.4375,429.1406 C2899.0156,428.7344 2899.3438,428.2813 2899.3438,427.8906 C2899.3438,427.4375 2898.9531,427.0469 2898.4844,427.0469 C2898.2656,427.0469 2898.0625,427.125 2897.875,427.3125 C2897.4219,427.7969 2897.4219,427.7969 2897.2344,427.8906 C2896.8125,428.1563 2896.125,428.2813 2895.3594,428.2813 C2893.3125,428.2813 2892.0156,427.1875 2892.0156,425.4844 L2892.0156,424.3906 C2892.0156,422.6094 2893.2656,421.2969 2895,421.2969 C2895.5781,421.2969 2896.1875,421.4531 2896.6563,421.7031 C2897.1406,421.9844 2897.3125,422.2031 2897.4063,422.6094 C2897.4688,423.0156 2897.5,423.1406 2897.6406,423.2656 C2897.7813,423.4063 2898.0156,423.5156 2898.2344,423.5156 C2898.5,423.5156 2898.7656,423.375 2898.9375,423.1563 C2899.0469,423 2899.0781,422.8125 2899.0781,422.3906 L2899.0781,420.9688 C2899.0781,420.5313 2899.0625,420.4063 2898.9688,420.25 C2898.8125,419.9844 2898.5313,419.8438 2898.2344,419.8438 C2897.9375,419.8438 2897.7344,419.9375 2897.5156,420.25 L2897.3438,420.1719 Z " fill="#000000"/><text fill="#000000" font-family="sans-serif" font-size="14" lengthAdjust="spacing" textLength="73" x="2909" y="429.3467">Undefined</text><line style="stroke:#181818;stroke-width:0.5;" x1="2881" x2="2984" y1="440.5" y2="440.5"/><line style="stroke:#181818;stroke-width:0.5;" x1="2881" x2="2984" y1="448.5" y2="448.5"/></g><!--MD5=[d304ca89bdbd8073bbc1ba7ea9e70f7d]
class Todo--><g id="elem_Todo"><rect codeLine="43" fill="#F1F1F1" height="406.5313" id="Todo" rx="2.5" ry="2.5" style="stroke:#181818;stroke-width:0.5;" width="1627" x="293" y="229"/><ellipse cx="1084.25" cy="245" fill="#ADD1B2" rx="11" ry="11" style="stroke:#181818;stroke-width:1.0;"/><path d="M1086.5938,240.6719 C1085.6563,240.2344 1085.0625,240.0938 1084.1875,240.0938 C1081.5625,240.0938 1079.5625,242.1719 1079.5625,244.8906 L1079.5625,246.0156 C1079.5625,248.5938 1081.6719,250.4844 1084.5625,250.4844 C1085.7813,250.4844 1086.9375,250.1875 1087.6875,249.6406 C1088.2656,249.2344 1088.5938,248.7813 1088.5938,248.3906 C1088.5938,247.9375 1088.2031,247.5469 1087.7344,247.5469 C1087.5156,247.5469 1087.3125,247.625 1087.125,247.8125 C1086.6719,248.2969 1086.6719,248.2969 1086.4844,248.3906 C1086.0625,248.6563 1085.375,248.7813 1084.6094,248.7813 C1082.5625,248.7813 1081.2656,247.6875 1081.2656,245.9844 L1081.2656,244.8906 C1081.2656,243.1094 1082.5156,241.7969 1084.25,241.7969 C1084.8281,241.7969 1085.4375,241.9531 1085.9063,242.2031 C1086.3906,242.4844 1086.5625,242.7031 1086.6563,243.1094 C1086.7188,243.5156 1086.75,243.6406 1086.8906,243.7656 C1087.0313,243.9063 1087.2656,244.0156 1087.4844,244.0156 C1087.75,244.0156 1088.0156,243.875 1088.1875,243.6563 C1088.2969,243.5 1088.3281,243.3125 1088.3281,242.8906 L1088.3281,241.4688 C1088.3281,241.0313 1088.3125,240.9063 1088.2188,240.75 C1088.0625,240.4844 1087.7813,240.3438 1087.4844,240.3438 C1087.1875,240.3438 1086.9844,240.4375 1086.7656,240.75 L1086.5938,240.6719 Z " fill="#000000"/><text fill="#000000" font-family="sans-serif" font-size="14" lengthAdjust="spacing" textLength="36" x="1104.75" y="249.8467">Todo</text><line style="stroke:#181818;stroke-width:0.5;" x1="294" x2="1919" y1="261" y2="261"/><rect fill="none" height="6" style="stroke:#C82930;stroke-width:1.0;" width="6" x="301" y="269"/><text fill="#000000" font-family="sans-serif" font-size="14" lengthAdjust="spacing" textLength="73" x="313" y="277.9951">title: Title</text><rect fill="none" height="6" style="stroke:#C82930;stroke-width:1.0;" width="6" x="301" y="285.2969"/><text fill="#000000" font-family="sans-serif" font-size="14" lengthAdjust="spacing" textLength="159" x="313" y="294.292">isCompleted: boolean</text><rect fill="none" height="6" style="stroke:#C82930;stroke-width:1.0;" width="6" x="301" y="301.5938"/><text fill="#000000" font-family="sans-serif" font-size="14" lengthAdjust="spacing" textLength="157" x="313" y="310.5889">createdAt: CreatedAt</text><rect fill="none" height="6" style="stroke:#C82930;stroke-width:1.0;" width="6" x="301" y="317.8906"/><text fill="#000000" font-family="sans-serif" font-size="14" lengthAdjust="spacing" textLength="203" x="313" y="326.8857">completedAt: CompletedAt</text><rect fill="none" height="6" style="stroke:#C82930;stroke-width:1.0;" width="6" x="301" y="334.1875"/><text fill="#000000" font-family="sans-serif" font-size="14" lengthAdjust="spacing" textLength="133" x="313" y="343.1826">dueDate: DueDate</text><rect fill="none" height="6" style="stroke:#C82930;stroke-width:1.0;" width="6" x="301" y="350.4844"/><text fill="#000000" font-family="sans-serif" font-size="14" lengthAdjust="spacing" textLength="140" x="313" y="359.4795">isOverDue: boolean</text><rect fill="none" height="6" style="stroke:#C82930;stroke-width:1.0;" width="6" x="301" y="366.7813"/><text fill="#000000" font-family="sans-serif" font-size="14" lengthAdjust="spacing" textLength="135" x="313" y="375.7764">status: TodoStatus</text><rect fill="none" height="6" style="stroke:#C82930;stroke-width:1.0;" width="6" x="301" y="383.0781"/><text fill="#000000" font-family="sans-serif" font-size="14" lengthAdjust="spacing" textLength="116" x="313" y="392.0732">id: number | null</text><ellipse cx="304" cy="402.375" fill="none" rx="3" ry="3" style="stroke:#038048;stroke-width:1.0;"/><text fill="#000000" font-family="sans-serif" font-size="14" lengthAdjust="spacing" textLength="84" x="313" y="408.3701">Title: string</text><ellipse cx="304" cy="418.6719" fill="none" rx="3" ry="3" style="stroke:#038048;stroke-width:1.0;"/><text fill="#000000" font-family="sans-serif" font-size="14" lengthAdjust="spacing" textLength="148" x="313" y="424.667">Completed: boolean</text><ellipse cx="304" cy="434.9688" fill="none" rx="3" ry="3" style="stroke:#038048;stroke-width:1.0;"/><text fill="#000000" font-family="sans-serif" font-size="14" lengthAdjust="spacing" textLength="119" x="313" y="440.9639">CreatedAt: Date</text><ellipse cx="304" cy="451.2656" fill="none" rx="3" ry="3" style="stroke:#038048;stroke-width:1.0;"/><text fill="#000000" font-family="sans-serif" font-size="14" lengthAdjust="spacing" textLength="180" x="313" y="457.2607">CompletedAt: Date | null</text><ellipse cx="304" cy="467.5625" fill="none" rx="3" ry="3" style="stroke:#038048;stroke-width:1.0;"/><text fill="#000000" font-family="sans-serif" font-size="14" lengthAdjust="spacing" textLength="145" x="313" y="473.5576">DueDate: Date | null</text><ellipse cx="304" cy="483.8594" fill="none" rx="3" ry="3" style="stroke:#038048;stroke-width:1.0;"/><text fill="#000000" font-family="sans-serif" font-size="14" lengthAdjust="spacing" textLength="129" x="313" y="489.8545">OverDue: boolean</text><ellipse cx="304" cy="500.1563" fill="none" rx="3" ry="3" style="stroke:#038048;stroke-width:1.0;"/><text fill="#000000" font-family="sans-serif" font-size="14" lengthAdjust="spacing" textLength="97" x="313" y="506.1514">Status: string</text><ellipse cx="304" cy="516.4531" fill="none" rx="3" ry="3" style="stroke:#038048;stroke-width:1.0;"/><text fill="#000000" font-family="sans-serif" font-size="14" lengthAdjust="spacing" textLength="116" x="313" y="522.4482">Id: number | null</text><ellipse cx="304" cy="532.75" fill="none" rx="3" ry="3" style="stroke:#038048;stroke-width:1.0;"/><text fill="#000000" font-family="sans-serif" font-size="14" lengthAdjust="spacing" textLength="134" x="313" y="538.7451">StatusCode: string</text><ellipse cx="304" cy="549.0469" fill="none" rx="3" ry="3" style="stroke:#038048;stroke-width:1.0;"/><text fill="#000000" font-family="sans-serif" font-size="14" lengthAdjust="spacing" textLength="133" x="313" y="555.042">StatusType: string</text><line style="stroke:#181818;stroke-width:0.5;" x1="294" x2="1919" y1="562.3438" y2="562.3438"/><ellipse cx="304" cy="573.3438" fill="#84BE84" rx="3" ry="3" style="stroke:#038048;stroke-width:1.0;"/><text fill="#000000" font-family="sans-serif" font-size="14" lengthAdjust="spacing" textLength="125" x="313" y="579.3389">complete(): Todo</text><ellipse cx="304" cy="589.6406" fill="#84BE84" rx="3" ry="3" style="stroke:#038048;stroke-width:1.0;"/><text fill="#000000" font-family="sans-serif" font-size="14" lengthAdjust="spacing" textLength="239" x="313" y="595.6357">setDueDate(due: DueDate): Todo</text><ellipse cx="304" cy="605.9375" fill="#84BE84" rx="3" ry="3" style="stroke:#038048;stroke-width:1.0;"/><text fill="#000000" font-family="sans-serif" font-size="14" lengthAdjust="spacing" textLength="207" x="313" y="611.9326">equals(other: Todo): boolean</text><ellipse cx="304" cy="622.2344" fill="#84BE84" rx="3" ry="3" style="stroke:#038048;stroke-width:1.0;"/><text fill="#000000" font-family="sans-serif" font-size="14" lengthAdjust="spacing" text-decoration="underline" textLength="1601" x="313" y="628.2295">create(params: { title: string; completed?: boolean | undefined; createdAt?: CreatedAt | undefined; completedAt?: CompletedAt | undefined; dueDate?: DueDate | undefined; id?: number | ... 1 more ... | undefined; }): Todo</text></g><!--MD5=[e94d231384a51b05733b2dafe609b38f]
class TodoList--><g id="elem_TodoList"><rect codeLine="67" fill="#F1F1F1" height="96.8906" id="TodoList" rx="2.5" ry="2.5" style="stroke:#181818;stroke-width:0.5;" width="212" x="1955.5" y="384"/><ellipse cx="2026.25" cy="400" fill="#ADD1B2" rx="11" ry="11" style="stroke:#181818;stroke-width:1.0;"/><path d="M2028.5938,395.6719 C2027.6563,395.2344 2027.0625,395.0938 2026.1875,395.0938 C2023.5625,395.0938 2021.5625,397.1719 2021.5625,399.8906 L2021.5625,401.0156 C2021.5625,403.5938 2023.6719,405.4844 2026.5625,405.4844 C2027.7813,405.4844 2028.9375,405.1875 2029.6875,404.6406 C2030.2656,404.2344 2030.5938,403.7813 2030.5938,403.3906 C2030.5938,402.9375 2030.2031,402.5469 2029.7344,402.5469 C2029.5156,402.5469 2029.3125,402.625 2029.125,402.8125 C2028.6719,403.2969 2028.6719,403.2969 2028.4844,403.3906 C2028.0625,403.6563 2027.375,403.7813 2026.6094,403.7813 C2024.5625,403.7813 2023.2656,402.6875 2023.2656,400.9844 L2023.2656,399.8906 C2023.2656,398.1094 2024.5156,396.7969 2026.25,396.7969 C2026.8281,396.7969 2027.4375,396.9531 2027.9063,397.2031 C2028.3906,397.4844 2028.5625,397.7031 2028.6563,398.1094 C2028.7188,398.5156 2028.75,398.6406 2028.8906,398.7656 C2029.0313,398.9063 2029.2656,399.0156 2029.4844,399.0156 C2029.75,399.0156 2030.0156,398.875 2030.1875,398.6563 C2030.2969,398.5 2030.3281,398.3125 2030.3281,397.8906 L2030.3281,396.4688 C2030.3281,396.0313 2030.3125,395.9063 2030.2188,395.75 C2030.0625,395.4844 2029.7813,395.3438 2029.4844,395.3438 C2029.1875,395.3438 2028.9844,395.4375 2028.7656,395.75 L2028.5938,395.6719 Z " fill="#000000"/><text fill="#000000" font-family="sans-serif" font-size="14" lengthAdjust="spacing" textLength="62" x="2046.75" y="404.8467">TodoList</text><line style="stroke:#181818;stroke-width:0.5;" x1="1956.5" x2="2166.5" y1="416" y2="416"/><rect fill="none" height="6" style="stroke:#C82930;stroke-width:1.0;" width="6" x="1963.5" y="424"/><text fill="#000000" font-family="sans-serif" font-size="14" lengthAdjust="spacing" textLength="92" x="1975.5" y="432.9951">value: Todo[]</text><ellipse cx="1966.5" cy="443.2969" fill="none" rx="3" ry="3" style="stroke:#038048;stroke-width:1.0;"/><text fill="#000000" font-family="sans-serif" font-size="14" lengthAdjust="spacing" textLength="94" x="1975.5" y="449.292">Value: Todo[]</text><line style="stroke:#181818;stroke-width:0.5;" x1="1956.5" x2="2166.5" y1="456.5938" y2="456.5938"/><ellipse cx="1966.5" cy="467.5938" fill="#84BE84" rx="3" ry="3" style="stroke:#038048;stroke-width:1.0;"/><text fill="#000000" font-family="sans-serif" font-size="14" lengthAdjust="spacing" textLength="186" x="1975.5" y="473.5889">add(todo: Todo): TodoList</text></g><!--MD5=[cf45e8ad0333bb05467ac0b4d70787c5]
class TodoEntity--><g id="elem_TodoEntity"><rect codeLine="72" fill="#F1F1F1" height="162.0781" id="TodoEntity" rx="2.5" ry="2.5" style="stroke:#181818;stroke-width:0.5;" width="204" x="2202.5" y="351.5"/><ellipse cx="2260.25" cy="367.5" fill="#ADD1B2" rx="11" ry="11" style="stroke:#181818;stroke-width:1.0;"/><path d="M2262.5938,363.1719 C2261.6563,362.7344 2261.0625,362.5938 2260.1875,362.5938 C2257.5625,362.5938 2255.5625,364.6719 2255.5625,367.3906 L2255.5625,368.5156 C2255.5625,371.0938 2257.6719,372.9844 2260.5625,372.9844 C2261.7813,372.9844 2262.9375,372.6875 2263.6875,372.1406 C2264.2656,371.7344 2264.5938,371.2813 2264.5938,370.8906 C2264.5938,370.4375 2264.2031,370.0469 2263.7344,370.0469 C2263.5156,370.0469 2263.3125,370.125 2263.125,370.3125 C2262.6719,370.7969 2262.6719,370.7969 2262.4844,370.8906 C2262.0625,371.1563 2261.375,371.2813 2260.6094,371.2813 C2258.5625,371.2813 2257.2656,370.1875 2257.2656,368.4844 L2257.2656,367.3906 C2257.2656,365.6094 2258.5156,364.2969 2260.25,364.2969 C2260.8281,364.2969 2261.4375,364.4531 2261.9063,364.7031 C2262.3906,364.9844 2262.5625,365.2031 2262.6563,365.6094 C2262.7188,366.0156 2262.75,366.1406 2262.8906,366.2656 C2263.0313,366.4063 2263.2656,366.5156 2263.4844,366.5156 C2263.75,366.5156 2264.0156,366.375 2264.1875,366.1563 C2264.2969,366 2264.3281,365.8125 2264.3281,365.3906 L2264.3281,363.9688 C2264.3281,363.5313 2264.3125,363.4063 2264.2188,363.25 C2264.0625,362.9844 2263.7813,362.8438 2263.4844,362.8438 C2263.1875,362.8438 2262.9844,362.9375 2262.7656,363.25 L2262.5938,363.1719 Z " fill="#000000"/><text fill="#000000" font-family="sans-serif" font-size="14" lengthAdjust="spacing" textLength="80" x="2280.75" y="372.3467">TodoEntity</text><line style="stroke:#181818;stroke-width:0.5;" x1="2203.5" x2="2405.5" y1="383.5" y2="383.5"/><ellipse cx="2213.5" cy="394.5" fill="none" rx="3" ry="3" style="stroke:#038048;stroke-width:1.0;"/><text fill="#000000" font-family="sans-serif" font-size="14" lengthAdjust="spacing" textLength="78" x="2222.5" y="400.4951">id: number</text><ellipse cx="2213.5" cy="410.7969" fill="none" rx="3" ry="3" style="stroke:#038048;stroke-width:1.0;"/><text fill="#000000" font-family="sans-serif" font-size="14" lengthAdjust="spacing" textLength="82" x="2222.5" y="416.792">title: string</text><ellipse cx="2213.5" cy="427.0938" fill="none" rx="3" ry="3" style="stroke:#038048;stroke-width:1.0;"/><text fill="#000000" font-family="sans-serif" font-size="14" lengthAdjust="spacing" textLength="146" x="2222.5" y="433.0889">completed: boolean</text><ellipse cx="2213.5" cy="443.3906" fill="none" rx="3" ry="3" style="stroke:#038048;stroke-width:1.0;"/><text fill="#000000" font-family="sans-serif" font-size="14" lengthAdjust="spacing" textLength="143" x="2222.5" y="449.3857">dueDate: Date | null</text><ellipse cx="2213.5" cy="459.6875" fill="none" rx="3" ry="3" style="stroke:#038048;stroke-width:1.0;"/><text fill="#000000" font-family="sans-serif" font-size="14" lengthAdjust="spacing" textLength="117" x="2222.5" y="465.6826">createdAt: Date</text><ellipse cx="2213.5" cy="475.9844" fill="none" rx="3" ry="3" style="stroke:#038048;stroke-width:1.0;"/><text fill="#000000" font-family="sans-serif" font-size="14" lengthAdjust="spacing" textLength="178" x="2222.5" y="481.9795">completedAt: Date | null</text><ellipse cx="2213.5" cy="492.2813" fill="none" rx="3" ry="3" style="stroke:#038048;stroke-width:1.0;"/><text fill="#000000" font-family="sans-serif" font-size="14" lengthAdjust="spacing" textLength="143" x="2222.5" y="498.2764">status: StatusEntity</text><line style="stroke:#181818;stroke-width:0.5;" x1="2203.5" x2="2405.5" y1="505.5781" y2="505.5781"/></g><!--MD5=[da1e831f50d675d9fa023d040e038ce0]
class StatusEntity--><g id="elem_StatusEntity"><rect codeLine="81" fill="#F1F1F1" height="129.4844" id="StatusEntity" rx="2.5" ry="2.5" style="stroke:#181818;stroke-width:0.5;" width="166" x="99.5" y="712.5"/><ellipse cx="134.3" cy="728.5" fill="#ADD1B2" rx="11" ry="11" style="stroke:#181818;stroke-width:1.0;"/><path d="M136.6438,724.1719 C135.7063,723.7344 135.1125,723.5938 134.2375,723.5938 C131.6125,723.5938 129.6125,725.6719 129.6125,728.3906 L129.6125,729.5156 C129.6125,732.0938 131.7219,733.9844 134.6125,733.9844 C135.8313,733.9844 136.9875,733.6875 137.7375,733.1406 C138.3156,732.7344 138.6438,732.2813 138.6438,731.8906 C138.6438,731.4375 138.2531,731.0469 137.7844,731.0469 C137.5656,731.0469 137.3625,731.125 137.175,731.3125 C136.7219,731.7969 136.7219,731.7969 136.5344,731.8906 C136.1125,732.1563 135.425,732.2813 134.6594,732.2813 C132.6125,732.2813 131.3156,731.1875 131.3156,729.4844 L131.3156,728.3906 C131.3156,726.6094 132.5656,725.2969 134.3,725.2969 C134.8781,725.2969 135.4875,725.4531 135.9563,725.7031 C136.4406,725.9844 136.6125,726.2031 136.7063,726.6094 C136.7688,727.0156 136.8,727.1406 136.9406,727.2656 C137.0813,727.4063 137.3156,727.5156 137.5344,727.5156 C137.8,727.5156 138.0656,727.375 138.2375,727.1563 C138.3469,727 138.3781,726.8125 138.3781,726.3906 L138.3781,724.9688 C138.3781,724.5313 138.3625,724.4063 138.2688,724.25 C138.1125,723.9844 137.8313,723.8438 137.5344,723.8438 C137.2375,723.8438 137.0344,723.9375 136.8156,724.25 L136.6438,724.1719 Z " fill="#000000"/><text fill="#000000" font-family="sans-serif" font-size="14" lengthAdjust="spacing" textLength="90" x="152.7" y="733.3467">StatusEntity</text><line style="stroke:#181818;stroke-width:0.5;" x1="100.5" x2="264.5" y1="744.5" y2="744.5"/><ellipse cx="110.5" cy="755.5" fill="none" rx="3" ry="3" style="stroke:#038048;stroke-width:1.0;"/><text fill="#000000" font-family="sans-serif" font-size="14" lengthAdjust="spacing" textLength="78" x="119.5" y="761.4951">id: number</text><ellipse cx="110.5" cy="771.7969" fill="none" rx="3" ry="3" style="stroke:#038048;stroke-width:1.0;"/><text fill="#000000" font-family="sans-serif" font-size="14" lengthAdjust="spacing" textLength="85" x="119.5" y="777.792">type: string</text><ellipse cx="110.5" cy="788.0938" fill="none" rx="3" ry="3" style="stroke:#038048;stroke-width:1.0;"/><text fill="#000000" font-family="sans-serif" font-size="14" lengthAdjust="spacing" textLength="86" x="119.5" y="794.0889">code: string</text><ellipse cx="110.5" cy="804.3906" fill="none" rx="3" ry="3" style="stroke:#038048;stroke-width:1.0;"/><text fill="#000000" font-family="sans-serif" font-size="14" lengthAdjust="spacing" textLength="91" x="119.5" y="810.3857">name: string</text><ellipse cx="110.5" cy="820.6875" fill="none" rx="3" ry="3" style="stroke:#038048;stroke-width:1.0;"/><text fill="#000000" font-family="sans-serif" font-size="14" lengthAdjust="spacing" textLength="140" x="119.5" y="826.6826">todos: TodoEntity[]</text><line style="stroke:#181818;stroke-width:0.5;" x1="100.5" x2="264.5" y1="833.9844" y2="833.9844"/></g><!--MD5=[4c557e82ab1fd837e5a934d1e0e1cd2c]
class TodoRepository--><g id="elem_TodoRepository"><rect codeLine="88" fill="#F1F1F1" height="162.0781" id="TodoRepository" rx="2.5" ry="2.5" style="stroke:#181818;stroke-width:0.5;" width="545" x="301" y="696"/><ellipse cx="511.75" cy="712" fill="#ADD1B2" rx="11" ry="11" style="stroke:#181818;stroke-width:1.0;"/><path d="M514.0938,707.6719 C513.1563,707.2344 512.5625,707.0938 511.6875,707.0938 C509.0625,707.0938 507.0625,709.1719 507.0625,711.8906 L507.0625,713.0156 C507.0625,715.5938 509.1719,717.4844 512.0625,717.4844 C513.2813,717.4844 514.4375,717.1875 515.1875,716.6406 C515.7656,716.2344 516.0938,715.7813 516.0938,715.3906 C516.0938,714.9375 515.7031,714.5469 515.2344,714.5469 C515.0156,714.5469 514.8125,714.625 514.625,714.8125 C514.1719,715.2969 514.1719,715.2969 513.9844,715.3906 C513.5625,715.6563 512.875,715.7813 512.1094,715.7813 C510.0625,715.7813 508.7656,714.6875 508.7656,712.9844 L508.7656,711.8906 C508.7656,710.1094 510.0156,708.7969 511.75,708.7969 C512.3281,708.7969 512.9375,708.9531 513.4063,709.2031 C513.8906,709.4844 514.0625,709.7031 514.1563,710.1094 C514.2188,710.5156 514.25,710.6406 514.3906,710.7656 C514.5313,710.9063 514.7656,711.0156 514.9844,711.0156 C515.25,711.0156 515.5156,710.875 515.6875,710.6563 C515.7969,710.5 515.8281,710.3125 515.8281,709.8906 L515.8281,708.4688 C515.8281,708.0313 515.8125,707.9063 515.7188,707.75 C515.5625,707.4844 515.2813,707.3438 514.9844,707.3438 C514.6875,707.3438 514.4844,707.4375 514.2656,707.75 L514.0938,707.6719 Z " fill="#000000"/><text fill="#000000" font-family="sans-serif" font-size="14" lengthAdjust="spacing" textLength="115" x="532.25" y="716.8467">TodoRepository</text><line style="stroke:#181818;stroke-width:0.5;" x1="302" x2="845" y1="728" y2="728"/><rect fill="none" height="6" style="stroke:#C82930;stroke-width:1.0;" width="6" x="309" y="736"/><text fill="#000000" font-family="sans-serif" font-size="14" lengthAdjust="spacing" textLength="229" x="321" y="744.9951">repository: Repository&lt;Entity&gt;</text><line style="stroke:#181818;stroke-width:0.5;" x1="302" x2="845" y1="752.2969" y2="752.2969"/><rect fill="#F24D5C" height="6" style="stroke:#C82930;stroke-width:1.0;" width="6" x="309" y="760.2969"/><text fill="#000000" font-family="sans-serif" font-size="14" lengthAdjust="spacing" textLength="519" x="321" y="769.292">createUpdateStatus(todo: DomainObject): Promise&lt;StatusEntity | null&gt;</text><ellipse cx="312" cy="779.5938" fill="#84BE84" rx="3" ry="3" style="stroke:#038048;stroke-width:1.0;"/><text fill="#000000" font-family="sans-serif" font-size="14" lengthAdjust="spacing" textLength="308" x="321" y="785.5889">getTodos(): Promise&lt;FirstClassCollection&gt;</text><ellipse cx="312" cy="795.8906" fill="#84BE84" rx="3" ry="3" style="stroke:#038048;stroke-width:1.0;"/><text fill="#000000" font-family="sans-serif" font-size="14" lengthAdjust="spacing" textLength="380" x="321" y="801.8857">getTodo(id: number): Promise&lt;DomainObject | null&gt;</text><ellipse cx="312" cy="812.1875" fill="#84BE84" rx="3" ry="3" style="stroke:#038048;stroke-width:1.0;"/><text fill="#000000" font-family="sans-serif" font-size="14" lengthAdjust="spacing" textLength="338" x="321" y="818.1826">addTodo(todo: DomainObject): Promise&lt;void&gt;</text><ellipse cx="312" cy="828.4844" fill="#84BE84" rx="3" ry="3" style="stroke:#038048;stroke-width:1.0;"/><text fill="#000000" font-family="sans-serif" font-size="14" lengthAdjust="spacing" textLength="359" x="321" y="834.4795">deleteTodo(todo: DomainObject): Promise&lt;void&gt;</text><ellipse cx="312" cy="844.7813" fill="#84BE84" rx="3" ry="3" style="stroke:#038048;stroke-width:1.0;"/><text fill="#000000" font-family="sans-serif" font-size="14" lengthAdjust="spacing" textLength="363" x="321" y="850.7764">updateTodo(todo: DomainObject): Promise&lt;void&gt;</text></g><!--MD5=[607c01281c15983c44675f9e6dea3db6]
class TodoService--><g id="elem_TodoService"><rect codeLine="97" fill="#F1F1F1" height="129.4844" id="TodoService" rx="2.5" ry="2.5" style="stroke:#181818;stroke-width:0.5;" width="363" x="3020" y="368"/><ellipse cx="3152.75" cy="384" fill="#ADD1B2" rx="11" ry="11" style="stroke:#181818;stroke-width:1.0;"/><path d="M3155.0938,379.6719 C3154.1563,379.2344 3153.5625,379.0938 3152.6875,379.0938 C3150.0625,379.0938 3148.0625,381.1719 3148.0625,383.8906 L3148.0625,385.0156 C3148.0625,387.5938 3150.1719,389.4844 3153.0625,389.4844 C3154.2813,389.4844 3155.4375,389.1875 3156.1875,388.6406 C3156.7656,388.2344 3157.0938,387.7813 3157.0938,387.3906 C3157.0938,386.9375 3156.7031,386.5469 3156.2344,386.5469 C3156.0156,386.5469 3155.8125,386.625 3155.625,386.8125 C3155.1719,387.2969 3155.1719,387.2969 3154.9844,387.3906 C3154.5625,387.6563 3153.875,387.7813 3153.1094,387.7813 C3151.0625,387.7813 3149.7656,386.6875 3149.7656,384.9844 L3149.7656,383.8906 C3149.7656,382.1094 3151.0156,380.7969 3152.75,380.7969 C3153.3281,380.7969 3153.9375,380.9531 3154.4063,381.2031 C3154.8906,381.4844 3155.0625,381.7031 3155.1563,382.1094 C3155.2188,382.5156 3155.25,382.6406 3155.3906,382.7656 C3155.5313,382.9063 3155.7656,383.0156 3155.9844,383.0156 C3156.25,383.0156 3156.5156,382.875 3156.6875,382.6563 C3156.7969,382.5 3156.8281,382.3125 3156.8281,381.8906 L3156.8281,380.4688 C3156.8281,380.0313 3156.8125,379.9063 3156.7188,379.75 C3156.5625,379.4844 3156.2813,379.3438 3155.9844,379.3438 C3155.6875,379.3438 3155.4844,379.4375 3155.2656,379.75 L3155.0938,379.6719 Z " fill="#000000"/><text fill="#000000" font-family="sans-serif" font-size="14" lengthAdjust="spacing" textLength="89" x="3173.25" y="388.8467">TodoService</text><line style="stroke:#181818;stroke-width:0.5;" x1="3021" x2="3382" y1="400" y2="400"/><rect fill="none" height="6" style="stroke:#C82930;stroke-width:1.0;" width="6" x="3028" y="408"/><text fill="#000000" font-family="sans-serif" font-size="14" lengthAdjust="spacing" textLength="199" x="3040" y="416.9951">repository: TodoRepository</text><line style="stroke:#181818;stroke-width:0.5;" x1="3021" x2="3382" y1="424.2969" y2="424.2969"/><ellipse cx="3031" cy="435.2969" fill="#84BE84" rx="3" ry="3" style="stroke:#038048;stroke-width:1.0;"/><text fill="#000000" font-family="sans-serif" font-size="14" lengthAdjust="spacing" textLength="223" x="3040" y="441.292">selectAll(): Promise&lt;TodoList&gt;</text><ellipse cx="3031" cy="451.5938" fill="#84BE84" rx="3" ry="3" style="stroke:#038048;stroke-width:1.0;"/><text fill="#000000" font-family="sans-serif" font-size="14" lengthAdjust="spacing" textLength="333" x="3040" y="457.5889">create(params: TodoRequest): Promise&lt;void&gt;</text><ellipse cx="3031" cy="467.8906" fill="#84BE84" rx="3" ry="3" style="stroke:#038048;stroke-width:1.0;"/><text fill="#000000" font-family="sans-serif" font-size="14" lengthAdjust="spacing" textLength="333" x="3040" y="473.8857">delete(params: TodoRequest): Promise&lt;void&gt;</text><ellipse cx="3031" cy="484.1875" fill="#84BE84" rx="3" ry="3" style="stroke:#038048;stroke-width:1.0;"/><text fill="#000000" font-family="sans-serif" font-size="14" lengthAdjust="spacing" textLength="337" x="3040" y="490.1826">update(params: TodoRequest): Promise&lt;void&gt;</text></g><!--MD5=[dbb8b4f13c7b21394f9d757e58732f45]
class Service--><g id="elem_Service"><rect codeLine="111" fill="#F1F1F1" height="113.1875" id="Service" rx="2.5" ry="2.5" style="stroke:#181818;stroke-width:0.5;" width="393" x="3005" y="31.5"/><ellipse cx="3170.75" cy="47.5" fill="#B4A7E5" rx="11" ry="11" style="stroke:#181818;stroke-width:1.0;"/><path d="M3171.7031,44.2813 L3173.4219,44.2813 C3173.8125,44.2813 3174,44.25 3174.125,44.1719 C3174.3906,44.0156 3174.5313,43.7344 3174.5313,43.4375 C3174.5313,43.1719 3174.4219,42.9063 3174.1875,42.7344 C3174.0156,42.625 3173.875,42.5938 3173.4219,42.5938 L3168.2813,42.5938 C3167.8438,42.5938 3167.7188,42.6094 3167.5625,42.7031 C3167.3125,42.8594 3167.1563,43.1563 3167.1563,43.4375 C3167.1563,43.7188 3167.2969,43.9688 3167.5156,44.1406 C3167.6719,44.25 3167.8594,44.2813 3168.2813,44.2813 L3170,44.2813 L3170,50.7969 L3168.2813,50.7969 C3167.8438,50.7969 3167.7188,50.8125 3167.5625,50.9219 C3167.3125,51.0781 3167.1563,51.3594 3167.1563,51.6563 C3167.1563,51.9063 3167.2969,52.1719 3167.5156,52.3281 C3167.6719,52.4531 3167.875,52.5 3168.2813,52.5 L3173.4219,52.5 C3174.1719,52.5 3174.5313,52.2188 3174.5313,51.6563 C3174.5313,51.375 3174.4219,51.125 3174.1875,50.9531 C3174.0156,50.8281 3173.875,50.7969 3173.4219,50.7969 L3171.7031,50.7969 L3171.7031,44.2813 Z " fill="#000000"/><text fill="#000000" font-family="sans-serif" font-size="14" font-style="italic" lengthAdjust="spacing" textLength="53" x="3191.25" y="52.3467">Service</text><line style="stroke:#181818;stroke-width:0.5;" x1="3006" x2="3397" y1="63.5" y2="63.5"/><line style="stroke:#181818;stroke-width:0.5;" x1="3006" x2="3397" y1="71.5" y2="71.5"/><ellipse cx="3016" cy="82.5" fill="#84BE84" rx="3" ry="3" style="stroke:#038048;stroke-width:1.0;"/><text fill="#000000" font-family="sans-serif" font-size="14" lengthAdjust="spacing" textLength="363" x="3025" y="88.4951">create(params: TodoRequest): PromiseLike&lt;void&gt;</text><ellipse cx="3016" cy="98.7969" fill="#84BE84" rx="3" ry="3" style="stroke:#038048;stroke-width:1.0;"/><text fill="#000000" font-family="sans-serif" font-size="14" lengthAdjust="spacing" textLength="253" x="3025" y="104.792">selectAll(): PromiseLike&lt;TodoList&gt;</text><ellipse cx="3016" cy="115.0938" fill="#84BE84" rx="3" ry="3" style="stroke:#038048;stroke-width:1.0;"/><text fill="#000000" font-family="sans-serif" font-size="14" lengthAdjust="spacing" textLength="367" x="3025" y="121.0889">update(params: TodoRequest): PromiseLike&lt;void&gt;</text><ellipse cx="3016" cy="131.3906" fill="#84BE84" rx="3" ry="3" style="stroke:#038048;stroke-width:1.0;"/><text fill="#000000" font-family="sans-serif" font-size="14" lengthAdjust="spacing" textLength="363" x="3025" y="137.3857">delete(params: TodoRequest): PromiseLike&lt;void&gt;</text></g><!--MD5=[a25ccc1209b4bad4051a7be06c87c7b8]
class TodoController--><g id="elem_TodoController"><rect codeLine="104" fill="#F1F1F1" height="129.4844" id="TodoController" rx="2.5" ry="2.5" style="stroke:#181818;stroke-width:0.5;" width="344" x="881.5" y="712.5"/><ellipse cx="994.75" cy="728.5" fill="#ADD1B2" rx="11" ry="11" style="stroke:#181818;stroke-width:1.0;"/><path d="M997.0938,724.1719 C996.1563,723.7344 995.5625,723.5938 994.6875,723.5938 C992.0625,723.5938 990.0625,725.6719 990.0625,728.3906 L990.0625,729.5156 C990.0625,732.0938 992.1719,733.9844 995.0625,733.9844 C996.2813,733.9844 997.4375,733.6875 998.1875,733.1406 C998.7656,732.7344 999.0938,732.2813 999.0938,731.8906 C999.0938,731.4375 998.7031,731.0469 998.2344,731.0469 C998.0156,731.0469 997.8125,731.125 997.625,731.3125 C997.1719,731.7969 997.1719,731.7969 996.9844,731.8906 C996.5625,732.1563 995.875,732.2813 995.1094,732.2813 C993.0625,732.2813 991.7656,731.1875 991.7656,729.4844 L991.7656,728.3906 C991.7656,726.6094 993.0156,725.2969 994.75,725.2969 C995.3281,725.2969 995.9375,725.4531 996.4063,725.7031 C996.8906,725.9844 997.0625,726.2031 997.1563,726.6094 C997.2188,727.0156 997.25,727.1406 997.3906,727.2656 C997.5313,727.4063 997.7656,727.5156 997.9844,727.5156 C998.25,727.5156 998.5156,727.375 998.6875,727.1563 C998.7969,727 998.8281,726.8125 998.8281,726.3906 L998.8281,724.9688 C998.8281,724.5313 998.8125,724.4063 998.7188,724.25 C998.5625,723.9844 998.2813,723.8438 997.9844,723.8438 C997.6875,723.8438 997.4844,723.9375 997.2656,724.25 L997.0938,724.1719 Z " fill="#000000"/><text fill="#000000" font-family="sans-serif" font-size="14" lengthAdjust="spacing" textLength="109" x="1015.25" y="733.3467">TodoController</text><line style="stroke:#181818;stroke-width:0.5;" x1="882.5" x2="1224.5" y1="744.5" y2="744.5"/><rect fill="none" height="6" style="stroke:#C82930;stroke-width:1.0;" width="6" x="889.5" y="752.5"/><text fill="#000000" font-family="sans-serif" font-size="14" lengthAdjust="spacing" textLength="113" x="901.5" y="761.4951">service: Service</text><line style="stroke:#181818;stroke-width:0.5;" x1="882.5" x2="1224.5" y1="768.7969" y2="768.7969"/><ellipse cx="892.5" cy="779.7969" fill="#84BE84" rx="3" ry="3" style="stroke:#038048;stroke-width:1.0;"/><text fill="#000000" font-family="sans-serif" font-size="14" lengthAdjust="spacing" textLength="223" x="901.5" y="785.792">selectAll(): Promise&lt;TodoList&gt;</text><ellipse cx="892.5" cy="796.0938" fill="#84BE84" rx="3" ry="3" style="stroke:#038048;stroke-width:1.0;"/><text fill="#000000" font-family="sans-serif" font-size="14" lengthAdjust="spacing" textLength="314" x="901.5" y="802.0889">create(todo: TodoRequest): Promise&lt;void&gt;</text><ellipse cx="892.5" cy="812.3906" fill="#84BE84" rx="3" ry="3" style="stroke:#038048;stroke-width:1.0;"/><text fill="#000000" font-family="sans-serif" font-size="14" lengthAdjust="spacing" textLength="314" x="901.5" y="818.3857">delete(todo: TodoRequest): Promise&lt;void&gt;</text><ellipse cx="892.5" cy="828.6875" fill="#84BE84" rx="3" ry="3" style="stroke:#038048;stroke-width:1.0;"/><text fill="#000000" font-family="sans-serif" font-size="14" lengthAdjust="spacing" textLength="318" x="901.5" y="834.6826">update(todo: TodoRequest): Promise&lt;void&gt;</text></g><!--MD5=[ebb592ff29e93e2dfd26247b56493251]
reverse link TodoStatus to NotStarted--><g id="link_TodoStatus_NotStarted"><path d="M2607.77,183.65 C2594.83,198.003 2582.64,213.293 2572.5,229 C2534.44,287.965 2512.44,369.185 2503.38,408.429 " fill="none" id="TodoStatus-backto-NotStarted" style="stroke:#181818;stroke-width:1.0;"/><polygon fill="none" points="2602.68,178.848,2621.47,169.053,2612.89,188.428,2602.68,178.848" style="stroke:#181818;stroke-width:1.0;"/></g><!--MD5=[63986a0e5cc34f102e943fcb74e6a640]
reverse link TodoStatus to InProgress--><g id="link_TodoStatus_InProgress"><path d="M2694.46,189.079 C2678.48,265.092 2657.72,363.863 2648.4,408.185 " fill="none" id="TodoStatus-backto-InProgress" style="stroke:#181818;stroke-width:1.0;"/><polygon fill="none" points="2687.65,187.433,2698.62,169.301,2701.35,190.313,2687.65,187.433" style="stroke:#181818;stroke-width:1.0;"/></g><!--MD5=[6e26457b256553e6fb06ab3173327d68]
reverse link TodoStatus to Completed--><g id="link_TodoStatus_Completed"><path d="M2736.83,189.079 C2753.03,265.092 2774.08,363.863 2783.53,408.185 " fill="none" id="TodoStatus-backto-Completed" style="stroke:#181818;stroke-width:1.0;"/><polygon fill="none" points="2729.94,190.321,2732.62,169.301,2743.63,187.402,2729.94,190.321" style="stroke:#181818;stroke-width:1.0;"/></g><!--MD5=[119361190cdd54cf66ab20ad6dd3660c]
reverse link TodoStatus to Undefined--><g id="link_TodoStatus_Undefined"><path d="M2827.1,183.789 C2840.15,198.042 2852.39,213.268 2862.5,229 C2900.21,287.67 2920.23,369.027 2928.25,408.365 " fill="none" id="TodoStatus-backto-Undefined" style="stroke:#181818;stroke-width:1.0;"/><polygon fill="none" points="2822.02,188.605,2813.27,169.307,2832.15,178.935,2822.02,188.605" style="stroke:#181818;stroke-width:1.0;"/></g><!--MD5=[cf6bf8784ce41bc80f656847812dbf59]
reverse link Service to TodoService--><g id="link_Service_TodoService"><path d="M3201.5,164.878 C3201.5,225.822 3201.5,310.427 3201.5,367.869 " fill="none" id="Service-backto-TodoService" style="stroke:#181818;stroke-width:1.0;stroke-dasharray:7.0,7.0;"/><polygon fill="none" points="3194.5,164.791,3201.5,144.791,3208.5,164.791,3194.5,164.791" style="stroke:#181818;stroke-width:1.0;"/></g><!--MD5=[fb2055f72dc4d9ea9b5f1da04ed6c008]
@startuml
class CompletedAt {
    -value: Date | null
    +Value: Date | null
    +equals(completedAt: CompletedAt): boolean
}
class CreatedAt {
    -value: Date
    +Value: Date
    +equals(createdAt: CreatedAt): boolean
}
class DueDate {
    -value: Date | null
    +Value: Date | null
    +equals(dueDate: DueDate): boolean
    +overDue(day?: Date): boolean
}
class Title {
    -value: string
    +Value: string
    +equals(other: Title): boolean
}
enum TodoStatusType {
    UNDEFINED
    NOT_STARTED
    IN_PROGRESS
    COMPLETED
}
namespace TodoStatusTypeEnum {
}
abstract class TodoStatus {
    #value: string
    #type: string
    #code: string
    +Value: string
    +Type: string
    +Code: string
    +{static} create(todo: Todo): TodoStatus
}
class NotStarted extends TodoStatus
class InProgress extends TodoStatus
class Completed extends TodoStatus
class Undefined extends TodoStatus
class Todo {
    -title: Title
    -isCompleted: boolean
    -createdAt: CreatedAt
    -completedAt: CompletedAt
    -dueDate: DueDate
    -isOverDue: boolean
    -status: TodoStatus
    -id: number | null
    +Title: string
    +Completed: boolean
    +CreatedAt: Date
    +CompletedAt: Date | null
    +DueDate: Date | null
    +OverDue: boolean
    +Status: string
    +Id: number | null
    +StatusCode: string
    +StatusType: string
    +complete(): Todo
    +setDueDate(due: DueDate): Todo
    +equals(other: Todo): boolean
    +{static} create(params: { title: string; completed?: boolean | undefined; createdAt?: CreatedAt | undefined; completedAt?: CompletedAt | undefined; dueDate?: DueDate | undefined; id?: number | ... 1 more ... | undefined; }): Todo
}
class TodoList {
    -value: Todo[]
    +Value: Todo[]
    +add(todo: Todo): TodoList
}
class TodoEntity {
    +id: number
    +title: string
    +completed: boolean
    +dueDate: Date | null
    +createdAt: Date
    +completedAt: Date | null
    +status: StatusEntity
}
class StatusEntity {
    +id: number
    +type: string
    +code: string
    +name: string
    +todos: TodoEntity[]
}
class TodoRepository {
    -repository: Repository<Entity>
    -createUpdateStatus(todo: DomainObject): Promise<StatusEntity | null>
    +getTodos(): Promise<FirstClassCollection>
    +getTodo(id: number): Promise<DomainObject | null>
    +addTodo(todo: DomainObject): Promise<void>
    +deleteTodo(todo: DomainObject): Promise<void>
    +updateTodo(todo: DomainObject): Promise<void>
}
class TodoService implements Service {
    -repository: TodoRepository
    +selectAll(): Promise<TodoList>
    +create(params: TodoRequest): Promise<void>
    +delete(params: TodoRequest): Promise<void>
    +update(params: TodoRequest): Promise<void>
}
class TodoController {
    -service: Service
    +selectAll(): Promise<TodoList>
    +create(todo: TodoRequest): Promise<void>
    +delete(todo: TodoRequest): Promise<void>
    +update(todo: TodoRequest): Promise<void>
}
interface Service {
    +create(params: TodoRequest): PromiseLike<void>
    +selectAll(): PromiseLike<TodoList>
    +update(params: TodoRequest): PromiseLike<void>
    +delete(params: TodoRequest): PromiseLike<void>
}
@enduml

PlantUML version 1.2022.4beta2(Unknown compile time)
(GPL source distribution)
Java Runtime: Java(TM) SE Runtime Environment
JVM: Java HotSpot(TM) 64-Bit Server VM
Default Encoding: UTF-8
Language: en
Country: US
--></g></svg>