<?xml version="1.0" encoding="UTF-8" standalone="no"?><svg xmlns="http://www.w3.org/2000/svg" xmlns:xlink="http://www.w3.org/1999/xlink" contentStyleType="text/css" height="802px" preserveAspectRatio="none" style="width:3634px;height:802px;background:#FFFFFF;" version="1.1" viewBox="0 0 3634 802" width="3634px" zoomAndPan="magnify"><defs/><g><path d="M1763,48 L1922,48 A3.75,3.75 0 0 1 1924.5,50.5 L1931.5,70.2969 L1936,70.2969 A2.5,2.5 0 0 1 1938.5,72.7969 L1938.5,98.0938 A2.5,2.5 0 0 1 1936,100.5938 L1763,100.5938 A2.5,2.5 0 0 1 1760.5,98.0938 L1760.5,50.5 A2.5,2.5 0 0 1 1763,48 " fill="#F1F1F1" style="stroke:#181818;stroke-width:0.5;"/><line style="stroke:#181818;stroke-width:0.5;" x1="1760.5" x2="1931.5" y1="70.2969" y2="70.2969"/><text fill="#000000" font-family="sans-serif" font-size="14" lengthAdjust="spacing" textLength="158" x="1764.5" y="62.9951">TodoStatusTypeEnum</text><!--MD5=[dbb8b4f13c7b21394f9d757e58732f45]
class Service--><g id="elem_Service"><rect codeLine="1" fill="#F1F1F1" height="113.1875" id="Service" rx="2.5" ry="2.5" style="stroke:#181818;stroke-width:0.5;" width="316" x="2419.5" y="18"/><ellipse cx="2525.75" cy="34" fill="#B4A7E5" rx="11" ry="11" style="stroke:#181818;stroke-width:1.0;"/><path d="M2526.7031,30.7813 L2528.4219,30.7813 C2528.8125,30.7813 2529,30.75 2529.125,30.6719 C2529.3906,30.5156 2529.5313,30.2344 2529.5313,29.9375 C2529.5313,29.6719 2529.4219,29.4063 2529.1875,29.2344 C2529.0156,29.125 2528.875,29.0938 2528.4219,29.0938 L2523.2813,29.0938 C2522.8438,29.0938 2522.7188,29.1094 2522.5625,29.2031 C2522.3125,29.3594 2522.1563,29.6563 2522.1563,29.9375 C2522.1563,30.2188 2522.2969,30.4688 2522.5156,30.6406 C2522.6719,30.75 2522.8594,30.7813 2523.2813,30.7813 L2525,30.7813 L2525,37.2969 L2523.2813,37.2969 C2522.8438,37.2969 2522.7188,37.3125 2522.5625,37.4219 C2522.3125,37.5781 2522.1563,37.8594 2522.1563,38.1563 C2522.1563,38.4063 2522.2969,38.6719 2522.5156,38.8281 C2522.6719,38.9531 2522.875,39 2523.2813,39 L2528.4219,39 C2529.1719,39 2529.5313,38.7188 2529.5313,38.1563 C2529.5313,37.875 2529.4219,37.625 2529.1875,37.4531 C2529.0156,37.3281 2528.875,37.2969 2528.4219,37.2969 L2526.7031,37.2969 L2526.7031,30.7813 Z " fill="#000000"/><text fill="#000000" font-family="sans-serif" font-size="14" font-style="italic" lengthAdjust="spacing" textLength="53" x="2546.25" y="38.8467">Service</text><rect fill="#FFFFFF" height="15.9688" style="stroke:#000000;stroke-width:1.0;stroke-dasharray:2.0,2.0;" width="40" x="2698.5" y="15"/><text fill="#000000" font-family="sans-serif" font-size="12" font-style="italic" lengthAdjust="spacing" textLength="38" x="2699.5" y="27.1387">T1, T2</text><line style="stroke:#181818;stroke-width:0.5;" x1="2420.5" x2="2734.5" y1="50" y2="50"/><line style="stroke:#181818;stroke-width:0.5;" x1="2420.5" x2="2734.5" y1="58" y2="58"/><ellipse cx="2430.5" cy="69" fill="#84BE84" rx="3" ry="3" style="stroke:#038048;stroke-width:1.0;"/><text fill="#000000" font-family="sans-serif" font-size="14" lengthAdjust="spacing" textLength="286" x="2439.5" y="74.9951">create(params: T1): PromiseLike&lt;void&gt;</text><ellipse cx="2430.5" cy="85.2969" fill="#84BE84" rx="3" ry="3" style="stroke:#038048;stroke-width:1.0;"/><text fill="#000000" font-family="sans-serif" font-size="14" lengthAdjust="spacing" textLength="208" x="2439.5" y="91.292">selectAll(): PromiseLike&lt;T2&gt;</text><ellipse cx="2430.5" cy="101.5938" fill="#84BE84" rx="3" ry="3" style="stroke:#038048;stroke-width:1.0;"/><text fill="#000000" font-family="sans-serif" font-size="14" lengthAdjust="spacing" textLength="290" x="2439.5" y="107.5889">update(params: T1): PromiseLike&lt;void&gt;</text><ellipse cx="2430.5" cy="117.8906" fill="#84BE84" rx="3" ry="3" style="stroke:#038048;stroke-width:1.0;"/><text fill="#000000" font-family="sans-serif" font-size="14" lengthAdjust="spacing" textLength="286" x="2439.5" y="123.8857">delete(params: T1): PromiseLike&lt;void&gt;</text></g><!--MD5=[67f100d94b12044e782866d6f1627f13]
class CompletedAt--><g id="elem_CompletedAt"><rect codeLine="7" fill="#F1F1F1" height="96.8906" id="CompletedAt" rx="2.5" ry="2.5" style="stroke:#181818;stroke-width:0.5;" width="351" x="7" y="26"/><ellipse cx="129.25" cy="42" fill="#ADD1B2" rx="11" ry="11" style="stroke:#181818;stroke-width:1.0;"/><path d="M131.5938,37.6719 C130.6563,37.2344 130.0625,37.0938 129.1875,37.0938 C126.5625,37.0938 124.5625,39.1719 124.5625,41.8906 L124.5625,43.0156 C124.5625,45.5938 126.6719,47.4844 129.5625,47.4844 C130.7813,47.4844 131.9375,47.1875 132.6875,46.6406 C133.2656,46.2344 133.5938,45.7813 133.5938,45.3906 C133.5938,44.9375 133.2031,44.5469 132.7344,44.5469 C132.5156,44.5469 132.3125,44.625 132.125,44.8125 C131.6719,45.2969 131.6719,45.2969 131.4844,45.3906 C131.0625,45.6563 130.375,45.7813 129.6094,45.7813 C127.5625,45.7813 126.2656,44.6875 126.2656,42.9844 L126.2656,41.8906 C126.2656,40.1094 127.5156,38.7969 129.25,38.7969 C129.8281,38.7969 130.4375,38.9531 130.9063,39.2031 C131.3906,39.4844 131.5625,39.7031 131.6563,40.1094 C131.7188,40.5156 131.75,40.6406 131.8906,40.7656 C132.0313,40.9063 132.2656,41.0156 132.4844,41.0156 C132.75,41.0156 133.0156,40.875 133.1875,40.6563 C133.2969,40.5 133.3281,40.3125 133.3281,39.8906 L133.3281,38.4688 C133.3281,38.0313 133.3125,37.9063 133.2188,37.75 C133.0625,37.4844 132.7813,37.3438 132.4844,37.3438 C132.1875,37.3438 131.9844,37.4375 131.7656,37.75 L131.5938,37.6719 Z " fill="#000000"/><text fill="#000000" font-family="sans-serif" font-size="14" lengthAdjust="spacing" textLength="98" x="149.75" y="46.8467">CompletedAt</text><line style="stroke:#181818;stroke-width:0.5;" x1="8" x2="357" y1="58" y2="58"/><rect fill="none" height="6" style="stroke:#C82930;stroke-width:1.0;" width="6" x="15" y="66"/><text fill="#000000" font-family="sans-serif" font-size="14" lengthAdjust="spacing" textLength="119" x="27" y="74.9951">value: Date | null</text><ellipse cx="18" cy="85.2969" fill="none" rx="3" ry="3" style="stroke:#038048;stroke-width:1.0;"/><text fill="#000000" font-family="sans-serif" font-size="14" lengthAdjust="spacing" textLength="121" x="27" y="91.292">Value: Date | null</text><line style="stroke:#181818;stroke-width:0.5;" x1="8" x2="357" y1="98.5938" y2="98.5938"/><ellipse cx="18" cy="109.5938" fill="#84BE84" rx="3" ry="3" style="stroke:#038048;stroke-width:1.0;"/><text fill="#000000" font-family="sans-serif" font-size="14" lengthAdjust="spacing" textLength="325" x="27" y="115.5889">equals(completedAt: CompletedAt): boolean</text></g><!--MD5=[dde4359a43de047b4d984bc31705a409]
class CreatedAt--><g id="elem_CreatedAt"><rect codeLine="12" fill="#F1F1F1" height="96.8906" id="CreatedAt" rx="2.5" ry="2.5" style="stroke:#181818;stroke-width:0.5;" width="305" x="393" y="26"/><ellipse cx="503.75" cy="42" fill="#ADD1B2" rx="11" ry="11" style="stroke:#181818;stroke-width:1.0;"/><path d="M506.0938,37.6719 C505.1563,37.2344 504.5625,37.0938 503.6875,37.0938 C501.0625,37.0938 499.0625,39.1719 499.0625,41.8906 L499.0625,43.0156 C499.0625,45.5938 501.1719,47.4844 504.0625,47.4844 C505.2813,47.4844 506.4375,47.1875 507.1875,46.6406 C507.7656,46.2344 508.0938,45.7813 508.0938,45.3906 C508.0938,44.9375 507.7031,44.5469 507.2344,44.5469 C507.0156,44.5469 506.8125,44.625 506.625,44.8125 C506.1719,45.2969 506.1719,45.2969 505.9844,45.3906 C505.5625,45.6563 504.875,45.7813 504.1094,45.7813 C502.0625,45.7813 500.7656,44.6875 500.7656,42.9844 L500.7656,41.8906 C500.7656,40.1094 502.0156,38.7969 503.75,38.7969 C504.3281,38.7969 504.9375,38.9531 505.4063,39.2031 C505.8906,39.4844 506.0625,39.7031 506.1563,40.1094 C506.2188,40.5156 506.25,40.6406 506.3906,40.7656 C506.5313,40.9063 506.7656,41.0156 506.9844,41.0156 C507.25,41.0156 507.5156,40.875 507.6875,40.6563 C507.7969,40.5 507.8281,40.3125 507.8281,39.8906 L507.8281,38.4688 C507.8281,38.0313 507.8125,37.9063 507.7188,37.75 C507.5625,37.4844 507.2813,37.3438 506.9844,37.3438 C506.6875,37.3438 506.4844,37.4375 506.2656,37.75 L506.0938,37.6719 Z " fill="#000000"/><text fill="#000000" font-family="sans-serif" font-size="14" lengthAdjust="spacing" textLength="75" x="524.25" y="46.8467">CreatedAt</text><line style="stroke:#181818;stroke-width:0.5;" x1="394" x2="697" y1="58" y2="58"/><rect fill="none" height="6" style="stroke:#C82930;stroke-width:1.0;" width="6" x="401" y="66"/><text fill="#000000" font-family="sans-serif" font-size="14" lengthAdjust="spacing" textLength="81" x="413" y="74.9951">value: Date</text><ellipse cx="404" cy="85.2969" fill="none" rx="3" ry="3" style="stroke:#038048;stroke-width:1.0;"/><text fill="#000000" font-family="sans-serif" font-size="14" lengthAdjust="spacing" textLength="83" x="413" y="91.292">Value: Date</text><line style="stroke:#181818;stroke-width:0.5;" x1="394" x2="697" y1="98.5938" y2="98.5938"/><ellipse cx="404" cy="109.5938" fill="#84BE84" rx="3" ry="3" style="stroke:#038048;stroke-width:1.0;"/><text fill="#000000" font-family="sans-serif" font-size="14" lengthAdjust="spacing" textLength="279" x="413" y="115.5889">equals(createdAt: CreatedAt): boolean</text></g><!--MD5=[cf3bb39649ce7f8bfa01714f85686c3f]
class DueDate--><g id="elem_DueDate"><rect codeLine="17" fill="#F1F1F1" height="113.1875" id="DueDate" rx="2.5" ry="2.5" style="stroke:#181818;stroke-width:0.5;" width="281" x="733" y="18"/><ellipse cx="837.75" cy="34" fill="#ADD1B2" rx="11" ry="11" style="stroke:#181818;stroke-width:1.0;"/><path d="M840.0938,29.6719 C839.1563,29.2344 838.5625,29.0938 837.6875,29.0938 C835.0625,29.0938 833.0625,31.1719 833.0625,33.8906 L833.0625,35.0156 C833.0625,37.5938 835.1719,39.4844 838.0625,39.4844 C839.2813,39.4844 840.4375,39.1875 841.1875,38.6406 C841.7656,38.2344 842.0938,37.7813 842.0938,37.3906 C842.0938,36.9375 841.7031,36.5469 841.2344,36.5469 C841.0156,36.5469 840.8125,36.625 840.625,36.8125 C840.1719,37.2969 840.1719,37.2969 839.9844,37.3906 C839.5625,37.6563 838.875,37.7813 838.1094,37.7813 C836.0625,37.7813 834.7656,36.6875 834.7656,34.9844 L834.7656,33.8906 C834.7656,32.1094 836.0156,30.7969 837.75,30.7969 C838.3281,30.7969 838.9375,30.9531 839.4063,31.2031 C839.8906,31.4844 840.0625,31.7031 840.1563,32.1094 C840.2188,32.5156 840.25,32.6406 840.3906,32.7656 C840.5313,32.9063 840.7656,33.0156 840.9844,33.0156 C841.25,33.0156 841.5156,32.875 841.6875,32.6563 C841.7969,32.5 841.8281,32.3125 841.8281,31.8906 L841.8281,30.4688 C841.8281,30.0313 841.8125,29.9063 841.7188,29.75 C841.5625,29.4844 841.2813,29.3438 840.9844,29.3438 C840.6875,29.3438 840.4844,29.4375 840.2656,29.75 L840.0938,29.6719 Z " fill="#000000"/><text fill="#000000" font-family="sans-serif" font-size="14" lengthAdjust="spacing" textLength="63" x="858.25" y="38.8467">DueDate</text><line style="stroke:#181818;stroke-width:0.5;" x1="734" x2="1013" y1="50" y2="50"/><rect fill="none" height="6" style="stroke:#C82930;stroke-width:1.0;" width="6" x="741" y="58"/><text fill="#000000" font-family="sans-serif" font-size="14" lengthAdjust="spacing" textLength="119" x="753" y="66.9951">value: Date | null</text><ellipse cx="744" cy="77.2969" fill="none" rx="3" ry="3" style="stroke:#038048;stroke-width:1.0;"/><text fill="#000000" font-family="sans-serif" font-size="14" lengthAdjust="spacing" textLength="121" x="753" y="83.292">Value: Date | null</text><line style="stroke:#181818;stroke-width:0.5;" x1="734" x2="1013" y1="90.5938" y2="90.5938"/><ellipse cx="744" cy="101.5938" fill="#84BE84" rx="3" ry="3" style="stroke:#038048;stroke-width:1.0;"/><text fill="#000000" font-family="sans-serif" font-size="14" lengthAdjust="spacing" textLength="255" x="753" y="107.5889">equals(dueDate: DueDate): boolean</text><ellipse cx="744" cy="117.8906" fill="#84BE84" rx="3" ry="3" style="stroke:#038048;stroke-width:1.0;"/><text fill="#000000" font-family="sans-serif" font-size="14" lengthAdjust="spacing" textLength="213" x="753" y="123.8857">overDue(day?: Date): boolean</text></g><!--MD5=[e3d83ec5fd90ea9f3f2bfe265cb53458]
class Status--><g id="elem_Status"><rect codeLine="23" fill="#F1F1F1" height="96.8906" id="Status" rx="2.5" ry="2.5" style="stroke:#181818;stroke-width:0.5;" width="116" x="2862.5" y="26"/><ellipse cx="2895.5" cy="42" fill="#B4A7E5" rx="11" ry="11" style="stroke:#181818;stroke-width:1.0;"/><path d="M2896.4531,38.7813 L2898.1719,38.7813 C2898.5625,38.7813 2898.75,38.75 2898.875,38.6719 C2899.1406,38.5156 2899.2813,38.2344 2899.2813,37.9375 C2899.2813,37.6719 2899.1719,37.4063 2898.9375,37.2344 C2898.7656,37.125 2898.625,37.0938 2898.1719,37.0938 L2893.0313,37.0938 C2892.5938,37.0938 2892.4688,37.1094 2892.3125,37.2031 C2892.0625,37.3594 2891.9063,37.6563 2891.9063,37.9375 C2891.9063,38.2188 2892.0469,38.4688 2892.2656,38.6406 C2892.4219,38.75 2892.6094,38.7813 2893.0313,38.7813 L2894.75,38.7813 L2894.75,45.2969 L2893.0313,45.2969 C2892.5938,45.2969 2892.4688,45.3125 2892.3125,45.4219 C2892.0625,45.5781 2891.9063,45.8594 2891.9063,46.1563 C2891.9063,46.4063 2892.0469,46.6719 2892.2656,46.8281 C2892.4219,46.9531 2892.625,47 2893.0313,47 L2898.1719,47 C2898.9219,47 2899.2813,46.7188 2899.2813,46.1563 C2899.2813,45.875 2899.1719,45.625 2898.9375,45.4531 C2898.7656,45.3281 2898.625,45.2969 2898.1719,45.2969 L2896.4531,45.2969 L2896.4531,38.7813 Z " fill="#000000"/><text fill="#000000" font-family="sans-serif" font-size="14" font-style="italic" lengthAdjust="spacing" textLength="44" x="2913.5" y="46.8467">Status</text><line style="stroke:#181818;stroke-width:0.5;" x1="2863.5" x2="2977.5" y1="58" y2="58"/><ellipse cx="2873.5" cy="69" fill="none" rx="3" ry="3" style="stroke:#038048;stroke-width:1.0;"/><text fill="#000000" font-family="sans-serif" font-size="14" lengthAdjust="spacing" textLength="90" x="2882.5" y="74.9951">Value: string</text><ellipse cx="2873.5" cy="85.2969" fill="none" rx="3" ry="3" style="stroke:#038048;stroke-width:1.0;"/><text fill="#000000" font-family="sans-serif" font-size="14" lengthAdjust="spacing" textLength="87" x="2882.5" y="91.292">Type: string</text><ellipse cx="2873.5" cy="101.5938" fill="none" rx="3" ry="3" style="stroke:#038048;stroke-width:1.0;"/><text fill="#000000" font-family="sans-serif" font-size="14" lengthAdjust="spacing" textLength="88" x="2882.5" y="107.5889">Code: string</text><line style="stroke:#181818;stroke-width:0.5;" x1="2863.5" x2="2977.5" y1="114.8906" y2="114.8906"/></g><!--MD5=[90111e5cdc788a7ef73a3273c23dcc2b]
class Title--><g id="elem_Title"><rect codeLine="28" fill="#F1F1F1" height="96.8906" id="Title" rx="2.5" ry="2.5" style="stroke:#181818;stroke-width:0.5;" width="230" x="1049.5" y="26"/><ellipse cx="1143.75" cy="42" fill="#ADD1B2" rx="11" ry="11" style="stroke:#181818;stroke-width:1.0;"/><path d="M1146.0938,37.6719 C1145.1563,37.2344 1144.5625,37.0938 1143.6875,37.0938 C1141.0625,37.0938 1139.0625,39.1719 1139.0625,41.8906 L1139.0625,43.0156 C1139.0625,45.5938 1141.1719,47.4844 1144.0625,47.4844 C1145.2813,47.4844 1146.4375,47.1875 1147.1875,46.6406 C1147.7656,46.2344 1148.0938,45.7813 1148.0938,45.3906 C1148.0938,44.9375 1147.7031,44.5469 1147.2344,44.5469 C1147.0156,44.5469 1146.8125,44.625 1146.625,44.8125 C1146.1719,45.2969 1146.1719,45.2969 1145.9844,45.3906 C1145.5625,45.6563 1144.875,45.7813 1144.1094,45.7813 C1142.0625,45.7813 1140.7656,44.6875 1140.7656,42.9844 L1140.7656,41.8906 C1140.7656,40.1094 1142.0156,38.7969 1143.75,38.7969 C1144.3281,38.7969 1144.9375,38.9531 1145.4063,39.2031 C1145.8906,39.4844 1146.0625,39.7031 1146.1563,40.1094 C1146.2188,40.5156 1146.25,40.6406 1146.3906,40.7656 C1146.5313,40.9063 1146.7656,41.0156 1146.9844,41.0156 C1147.25,41.0156 1147.5156,40.875 1147.6875,40.6563 C1147.7969,40.5 1147.8281,40.3125 1147.8281,39.8906 L1147.8281,38.4688 C1147.8281,38.0313 1147.8125,37.9063 1147.7188,37.75 C1147.5625,37.4844 1147.2813,37.3438 1146.9844,37.3438 C1146.6875,37.3438 1146.4844,37.4375 1146.2656,37.75 L1146.0938,37.6719 Z " fill="#000000"/><text fill="#000000" font-family="sans-serif" font-size="14" lengthAdjust="spacing" textLength="33" x="1164.25" y="46.8467">Title</text><line style="stroke:#181818;stroke-width:0.5;" x1="1050.5" x2="1278.5" y1="58" y2="58"/><rect fill="none" height="6" style="stroke:#C82930;stroke-width:1.0;" width="6" x="1057.5" y="66"/><text fill="#000000" font-family="sans-serif" font-size="14" lengthAdjust="spacing" textLength="88" x="1069.5" y="74.9951">value: string</text><ellipse cx="1060.5" cy="85.2969" fill="none" rx="3" ry="3" style="stroke:#038048;stroke-width:1.0;"/><text fill="#000000" font-family="sans-serif" font-size="14" lengthAdjust="spacing" textLength="90" x="1069.5" y="91.292">Value: string</text><line style="stroke:#181818;stroke-width:0.5;" x1="1050.5" x2="1278.5" y1="98.5938" y2="98.5938"/><ellipse cx="1060.5" cy="109.5938" fill="#84BE84" rx="3" ry="3" style="stroke:#038048;stroke-width:1.0;"/><text fill="#000000" font-family="sans-serif" font-size="14" lengthAdjust="spacing" textLength="204" x="1069.5" y="115.5889">equals(other: Title): boolean</text></g><!--MD5=[8b45b78e7bc2d73538542b608f866059]
class TodoStatusType--><g id="elem_TodoStatusType"><rect codeLine="33" fill="#F1F1F1" height="113.1875" id="TodoStatusType" rx="2.5" ry="2.5" style="stroke:#181818;stroke-width:0.5;" width="150" x="107.5" y="346"/><ellipse cx="122.5" cy="362" fill="#EB937F" rx="11" ry="11" style="stroke:#181818;stroke-width:1.0;"/><path d="M121.2969,362.875 L122.75,362.875 L122.75,362.9844 C122.75,363.3906 122.7813,363.5469 122.8594,363.7031 C123.0156,363.9531 123.2969,364.1094 123.5938,364.1094 C123.8438,364.1094 124.1094,363.9688 124.2656,363.75 C124.3906,363.5938 124.4219,363.4375 124.4219,362.9844 L124.4219,361.0625 C124.4219,360.9063 124.4219,360.8594 124.4063,360.7031 C124.3438,360.2344 124.0313,359.9219 123.5781,359.9219 C123.3281,359.9219 123.0625,360.0625 122.8906,360.2813 C122.7813,360.4531 122.75,360.6094 122.75,361.0625 L122.75,361.1875 L121.2969,361.1875 L121.2969,358.7813 L125.2813,358.7813 L125.2813,359.6406 C125.2813,360.0469 125.3125,360.2188 125.3906,360.375 C125.5625,360.625 125.8438,360.7813 126.125,360.7813 C126.3906,360.7813 126.6563,360.6406 126.8281,360.4219 C126.9375,360.25 126.9688,360.1094 126.9688,359.6406 L126.9688,357.0938 L119.3438,357.0938 C118.9063,357.0938 118.7813,357.1094 118.625,357.2031 C118.375,357.3594 118.2188,357.6563 118.2188,357.9375 C118.2188,358.2188 118.3594,358.4688 118.5781,358.6406 C118.7344,358.75 118.9219,358.7813 119.3438,358.7813 L119.5938,358.7813 L119.5938,365.2969 L119.3438,365.2969 C118.9375,365.2969 118.7813,365.3125 118.625,365.4219 C118.375,365.5938 118.2188,365.8594 118.2188,366.1563 C118.2188,366.4219 118.3594,366.6719 118.5781,366.8281 C118.7188,366.9531 118.9531,367 119.3438,367 L127.3438,367 L127.3438,364.4219 C127.3438,363.9844 127.3125,363.8438 127.2344,363.6875 C127.0625,363.4375 126.7813,363.2813 126.5,363.2813 C126.2344,363.2813 125.9688,363.3906 125.7969,363.6406 C125.6875,363.7969 125.6563,363.9375 125.6563,364.4219 L125.6563,365.2969 L121.2969,365.2969 L121.2969,362.875 Z " fill="#000000"/><text fill="#000000" font-family="sans-serif" font-size="14" lengthAdjust="spacing" textLength="118" x="136.5" y="366.8467">TodoStatusType</text><line style="stroke:#181818;stroke-width:0.5;" x1="108.5" x2="256.5" y1="378" y2="378"/><text fill="#000000" font-family="sans-serif" font-size="14" lengthAdjust="spacing" textLength="81" x="113.5" y="394.9951">UNDEFINED</text><text fill="#000000" font-family="sans-serif" font-size="14" lengthAdjust="spacing" textLength="104" x="113.5" y="411.292">NOT_STARTED</text><text fill="#000000" font-family="sans-serif" font-size="14" lengthAdjust="spacing" textLength="99" x="113.5" y="427.5889">IN_PROGRESS</text><text fill="#000000" font-family="sans-serif" font-size="14" lengthAdjust="spacing" textLength="88" x="113.5" y="443.8857">COMPLETED</text><line style="stroke:#181818;stroke-width:0.5;" x1="108.5" x2="256.5" y1="451.1875" y2="451.1875"/></g><!--MD5=[866844b0821af1c4534b10e65e4bdf58]
class TodoStatus--><g id="elem_TodoStatus"><rect codeLine="41" fill="#F1F1F1" height="162.0781" id="TodoStatus" rx="2.5" ry="2.5" style="stroke:#181818;stroke-width:0.5;" width="253" x="2794" y="321.5"/><ellipse cx="2876.25" cy="337.5" fill="#A9DCDF" rx="11" ry="11" style="stroke:#181818;stroke-width:1.0;"/><path d="M2878.3281,339.3125 L2878.7188,340.2969 L2878.3281,340.2969 C2877.875,340.2969 2877.7656,340.3125 2877.6094,340.4219 C2877.3594,340.5781 2877.2031,340.8594 2877.2031,341.1563 C2877.2031,341.4219 2877.3438,341.6719 2877.5625,341.8281 C2877.7031,341.9531 2877.9063,342 2878.3281,342 L2880.6875,342 C2881.0469,342 2881.2656,341.9688 2881.4063,341.875 C2881.6563,341.7344 2881.8125,341.4375 2881.8125,341.1563 C2881.8125,340.875 2881.6719,340.625 2881.4531,340.4688 C2881.2813,340.3281 2881.125,340.2969 2880.6563,340.2969 L2877.2656,332.0938 L2873.5938,332.0938 C2873.1406,332.0938 2873.0156,332.1094 2872.8594,332.2031 C2872.6094,332.375 2872.4531,332.6563 2872.4531,332.9375 C2872.4531,333.2188 2872.5938,333.4688 2872.8125,333.6406 C2872.9844,333.75 2873.1563,333.7813 2873.5938,333.7813 L2874.6719,333.7813 L2872.0313,340.2969 C2871.6094,340.2969 2871.4531,340.3125 2871.2969,340.4219 C2871.0469,340.5781 2870.8906,340.8594 2870.8906,341.1563 C2870.8906,341.7188 2871.2656,342 2872.0156,342 L2874.2813,342 C2874.6406,342 2874.8594,341.9688 2874.9844,341.875 C2875.25,341.7344 2875.3906,341.4375 2875.3906,341.1563 C2875.3906,340.875 2875.2656,340.625 2875.0469,340.4531 C2874.875,340.3281 2874.7344,340.2969 2874.2813,340.2969 L2873.8906,340.2969 L2874.2813,339.3125 L2878.3281,339.3125 Z M2877.625,337.6094 L2874.9531,337.6094 L2876.2969,334.3438 L2877.625,337.6094 Z " fill="#000000"/><text fill="#000000" font-family="sans-serif" font-size="14" font-style="italic" lengthAdjust="spacing" textLength="80" x="2896.75" y="342.3467">TodoStatus</text><line style="stroke:#181818;stroke-width:0.5;" x1="2795" x2="3046" y1="353.5" y2="353.5"/><polygon fill="none" points="2805,359.5,2809,363.5,2805,367.5,2801,363.5" style="stroke:#B38D22;stroke-width:1.0;"/><text fill="#000000" font-family="sans-serif" font-size="14" lengthAdjust="spacing" textLength="88" x="2814" y="370.4951">value: string</text><polygon fill="none" points="2805,375.7969,2809,379.7969,2805,383.7969,2801,379.7969" style="stroke:#B38D22;stroke-width:1.0;"/><text fill="#000000" font-family="sans-serif" font-size="14" lengthAdjust="spacing" textLength="85" x="2814" y="386.792">type: string</text><polygon fill="none" points="2805,392.0938,2809,396.0938,2805,400.0938,2801,396.0938" style="stroke:#B38D22;stroke-width:1.0;"/><text fill="#000000" font-family="sans-serif" font-size="14" lengthAdjust="spacing" textLength="86" x="2814" y="403.0889">code: string</text><ellipse cx="2805" cy="413.3906" fill="none" rx="3" ry="3" style="stroke:#038048;stroke-width:1.0;"/><text fill="#000000" font-family="sans-serif" font-size="14" lengthAdjust="spacing" textLength="90" x="2814" y="419.3857">Value: string</text><ellipse cx="2805" cy="429.6875" fill="none" rx="3" ry="3" style="stroke:#038048;stroke-width:1.0;"/><text fill="#000000" font-family="sans-serif" font-size="14" lengthAdjust="spacing" textLength="87" x="2814" y="435.6826">Type: string</text><ellipse cx="2805" cy="445.9844" fill="none" rx="3" ry="3" style="stroke:#038048;stroke-width:1.0;"/><text fill="#000000" font-family="sans-serif" font-size="14" lengthAdjust="spacing" textLength="88" x="2814" y="451.9795">Code: string</text><line style="stroke:#181818;stroke-width:0.5;" x1="2795" x2="3046" y1="459.2813" y2="459.2813"/><ellipse cx="2805" cy="470.2813" fill="#84BE84" rx="3" ry="3" style="stroke:#038048;stroke-width:1.0;"/><text fill="#000000" font-family="sans-serif" font-size="14" lengthAdjust="spacing" text-decoration="underline" textLength="227" x="2814" y="476.2764">create(todo: Todo): TodoStatus</text></g><!--MD5=[ebaed48d3e23019637b78bc7bca197b8]
class NotStarted--><g id="elem_NotStarted"><rect codeLine="50" fill="#F1F1F1" height="48" id="NotStarted" rx="2.5" ry="2.5" style="stroke:#181818;stroke-width:0.5;" width="113" x="2646" y="706.5"/><ellipse cx="2661" cy="722.5" fill="#ADD1B2" rx="11" ry="11" style="stroke:#181818;stroke-width:1.0;"/><path d="M2663.3438,718.1719 C2662.4063,717.7344 2661.8125,717.5938 2660.9375,717.5938 C2658.3125,717.5938 2656.3125,719.6719 2656.3125,722.3906 L2656.3125,723.5156 C2656.3125,726.0938 2658.4219,727.9844 2661.3125,727.9844 C2662.5313,727.9844 2663.6875,727.6875 2664.4375,727.1406 C2665.0156,726.7344 2665.3438,726.2813 2665.3438,725.8906 C2665.3438,725.4375 2664.9531,725.0469 2664.4844,725.0469 C2664.2656,725.0469 2664.0625,725.125 2663.875,725.3125 C2663.4219,725.7969 2663.4219,725.7969 2663.2344,725.8906 C2662.8125,726.1563 2662.125,726.2813 2661.3594,726.2813 C2659.3125,726.2813 2658.0156,725.1875 2658.0156,723.4844 L2658.0156,722.3906 C2658.0156,720.6094 2659.2656,719.2969 2661,719.2969 C2661.5781,719.2969 2662.1875,719.4531 2662.6563,719.7031 C2663.1406,719.9844 2663.3125,720.2031 2663.4063,720.6094 C2663.4688,721.0156 2663.5,721.1406 2663.6406,721.2656 C2663.7813,721.4063 2664.0156,721.5156 2664.2344,721.5156 C2664.5,721.5156 2664.7656,721.375 2664.9375,721.1563 C2665.0469,721 2665.0781,720.8125 2665.0781,720.3906 L2665.0781,718.9688 C2665.0781,718.5313 2665.0625,718.4063 2664.9688,718.25 C2664.8125,717.9844 2664.5313,717.8438 2664.2344,717.8438 C2663.9375,717.8438 2663.7344,717.9375 2663.5156,718.25 L2663.3438,718.1719 Z " fill="#000000"/><text fill="#000000" font-family="sans-serif" font-size="14" lengthAdjust="spacing" textLength="81" x="2675" y="727.3467">NotStarted</text><line style="stroke:#181818;stroke-width:0.5;" x1="2647" x2="2758" y1="738.5" y2="738.5"/><line style="stroke:#181818;stroke-width:0.5;" x1="2647" x2="2758" y1="746.5" y2="746.5"/></g><!--MD5=[4c0b4f1cd20d09e88ae73cd356825288]
class InProgress--><g id="elem_InProgress"><rect codeLine="51" fill="#F1F1F1" height="48" id="InProgress" rx="2.5" ry="2.5" style="stroke:#181818;stroke-width:0.5;" width="107" x="2794" y="706.5"/><ellipse cx="2809" cy="722.5" fill="#ADD1B2" rx="11" ry="11" style="stroke:#181818;stroke-width:1.0;"/><path d="M2811.3438,718.1719 C2810.4063,717.7344 2809.8125,717.5938 2808.9375,717.5938 C2806.3125,717.5938 2804.3125,719.6719 2804.3125,722.3906 L2804.3125,723.5156 C2804.3125,726.0938 2806.4219,727.9844 2809.3125,727.9844 C2810.5313,727.9844 2811.6875,727.6875 2812.4375,727.1406 C2813.0156,726.7344 2813.3438,726.2813 2813.3438,725.8906 C2813.3438,725.4375 2812.9531,725.0469 2812.4844,725.0469 C2812.2656,725.0469 2812.0625,725.125 2811.875,725.3125 C2811.4219,725.7969 2811.4219,725.7969 2811.2344,725.8906 C2810.8125,726.1563 2810.125,726.2813 2809.3594,726.2813 C2807.3125,726.2813 2806.0156,725.1875 2806.0156,723.4844 L2806.0156,722.3906 C2806.0156,720.6094 2807.2656,719.2969 2809,719.2969 C2809.5781,719.2969 2810.1875,719.4531 2810.6563,719.7031 C2811.1406,719.9844 2811.3125,720.2031 2811.4063,720.6094 C2811.4688,721.0156 2811.5,721.1406 2811.6406,721.2656 C2811.7813,721.4063 2812.0156,721.5156 2812.2344,721.5156 C2812.5,721.5156 2812.7656,721.375 2812.9375,721.1563 C2813.0469,721 2813.0781,720.8125 2813.0781,720.3906 L2813.0781,718.9688 C2813.0781,718.5313 2813.0625,718.4063 2812.9688,718.25 C2812.8125,717.9844 2812.5313,717.8438 2812.2344,717.8438 C2811.9375,717.8438 2811.7344,717.9375 2811.5156,718.25 L2811.3438,718.1719 Z " fill="#000000"/><text fill="#000000" font-family="sans-serif" font-size="14" lengthAdjust="spacing" textLength="75" x="2823" y="727.3467">InProgress</text><line style="stroke:#181818;stroke-width:0.5;" x1="2795" x2="2900" y1="738.5" y2="738.5"/><line style="stroke:#181818;stroke-width:0.5;" x1="2795" x2="2900" y1="746.5" y2="746.5"/></g><!--MD5=[cc11643e10bfa99d218cb499c8643474]
class Completed--><g id="elem_Completed"><rect codeLine="52" fill="#F1F1F1" height="48" id="Completed" rx="2.5" ry="2.5" style="stroke:#181818;stroke-width:0.5;" width="113" x="2936" y="706.5"/><ellipse cx="2951" cy="722.5" fill="#ADD1B2" rx="11" ry="11" style="stroke:#181818;stroke-width:1.0;"/><path d="M2953.3438,718.1719 C2952.4063,717.7344 2951.8125,717.5938 2950.9375,717.5938 C2948.3125,717.5938 2946.3125,719.6719 2946.3125,722.3906 L2946.3125,723.5156 C2946.3125,726.0938 2948.4219,727.9844 2951.3125,727.9844 C2952.5313,727.9844 2953.6875,727.6875 2954.4375,727.1406 C2955.0156,726.7344 2955.3438,726.2813 2955.3438,725.8906 C2955.3438,725.4375 2954.9531,725.0469 2954.4844,725.0469 C2954.2656,725.0469 2954.0625,725.125 2953.875,725.3125 C2953.4219,725.7969 2953.4219,725.7969 2953.2344,725.8906 C2952.8125,726.1563 2952.125,726.2813 2951.3594,726.2813 C2949.3125,726.2813 2948.0156,725.1875 2948.0156,723.4844 L2948.0156,722.3906 C2948.0156,720.6094 2949.2656,719.2969 2951,719.2969 C2951.5781,719.2969 2952.1875,719.4531 2952.6563,719.7031 C2953.1406,719.9844 2953.3125,720.2031 2953.4063,720.6094 C2953.4688,721.0156 2953.5,721.1406 2953.6406,721.2656 C2953.7813,721.4063 2954.0156,721.5156 2954.2344,721.5156 C2954.5,721.5156 2954.7656,721.375 2954.9375,721.1563 C2955.0469,721 2955.0781,720.8125 2955.0781,720.3906 L2955.0781,718.9688 C2955.0781,718.5313 2955.0625,718.4063 2954.9688,718.25 C2954.8125,717.9844 2954.5313,717.8438 2954.2344,717.8438 C2953.9375,717.8438 2953.7344,717.9375 2953.5156,718.25 L2953.3438,718.1719 Z " fill="#000000"/><text fill="#000000" font-family="sans-serif" font-size="14" lengthAdjust="spacing" textLength="81" x="2965" y="727.3467">Completed</text><line style="stroke:#181818;stroke-width:0.5;" x1="2937" x2="3048" y1="738.5" y2="738.5"/><line style="stroke:#181818;stroke-width:0.5;" x1="2937" x2="3048" y1="746.5" y2="746.5"/></g><!--MD5=[b9e37f36ecae42e7f00ee8b8247f48e6]
class Undefined--><g id="elem_Undefined"><rect codeLine="53" fill="#F1F1F1" height="48" id="Undefined" rx="2.5" ry="2.5" style="stroke:#181818;stroke-width:0.5;" width="105" x="3084" y="706.5"/><ellipse cx="3099" cy="722.5" fill="#ADD1B2" rx="11" ry="11" style="stroke:#181818;stroke-width:1.0;"/><path d="M3101.3438,718.1719 C3100.4063,717.7344 3099.8125,717.5938 3098.9375,717.5938 C3096.3125,717.5938 3094.3125,719.6719 3094.3125,722.3906 L3094.3125,723.5156 C3094.3125,726.0938 3096.4219,727.9844 3099.3125,727.9844 C3100.5313,727.9844 3101.6875,727.6875 3102.4375,727.1406 C3103.0156,726.7344 3103.3438,726.2813 3103.3438,725.8906 C3103.3438,725.4375 3102.9531,725.0469 3102.4844,725.0469 C3102.2656,725.0469 3102.0625,725.125 3101.875,725.3125 C3101.4219,725.7969 3101.4219,725.7969 3101.2344,725.8906 C3100.8125,726.1563 3100.125,726.2813 3099.3594,726.2813 C3097.3125,726.2813 3096.0156,725.1875 3096.0156,723.4844 L3096.0156,722.3906 C3096.0156,720.6094 3097.2656,719.2969 3099,719.2969 C3099.5781,719.2969 3100.1875,719.4531 3100.6563,719.7031 C3101.1406,719.9844 3101.3125,720.2031 3101.4063,720.6094 C3101.4688,721.0156 3101.5,721.1406 3101.6406,721.2656 C3101.7813,721.4063 3102.0156,721.5156 3102.2344,721.5156 C3102.5,721.5156 3102.7656,721.375 3102.9375,721.1563 C3103.0469,721 3103.0781,720.8125 3103.0781,720.3906 L3103.0781,718.9688 C3103.0781,718.5313 3103.0625,718.4063 3102.9688,718.25 C3102.8125,717.9844 3102.5313,717.8438 3102.2344,717.8438 C3101.9375,717.8438 3101.7344,717.9375 3101.5156,718.25 L3101.3438,718.1719 Z " fill="#000000"/><text fill="#000000" font-family="sans-serif" font-size="14" lengthAdjust="spacing" textLength="73" x="3113" y="727.3467">Undefined</text><line style="stroke:#181818;stroke-width:0.5;" x1="3085" x2="3188" y1="738.5" y2="738.5"/><line style="stroke:#181818;stroke-width:0.5;" x1="3085" x2="3188" y1="746.5" y2="746.5"/></g><!--MD5=[d304ca89bdbd8073bbc1ba7ea9e70f7d]
class Todo--><g id="elem_Todo"><rect codeLine="54" fill="#F1F1F1" height="406.5313" id="Todo" rx="2.5" ry="2.5" style="stroke:#181818;stroke-width:0.5;" width="1627" x="293" y="199"/><ellipse cx="1084.25" cy="215" fill="#ADD1B2" rx="11" ry="11" style="stroke:#181818;stroke-width:1.0;"/><path d="M1086.5938,210.6719 C1085.6563,210.2344 1085.0625,210.0938 1084.1875,210.0938 C1081.5625,210.0938 1079.5625,212.1719 1079.5625,214.8906 L1079.5625,216.0156 C1079.5625,218.5938 1081.6719,220.4844 1084.5625,220.4844 C1085.7813,220.4844 1086.9375,220.1875 1087.6875,219.6406 C1088.2656,219.2344 1088.5938,218.7813 1088.5938,218.3906 C1088.5938,217.9375 1088.2031,217.5469 1087.7344,217.5469 C1087.5156,217.5469 1087.3125,217.625 1087.125,217.8125 C1086.6719,218.2969 1086.6719,218.2969 1086.4844,218.3906 C1086.0625,218.6563 1085.375,218.7813 1084.6094,218.7813 C1082.5625,218.7813 1081.2656,217.6875 1081.2656,215.9844 L1081.2656,214.8906 C1081.2656,213.1094 1082.5156,211.7969 1084.25,211.7969 C1084.8281,211.7969 1085.4375,211.9531 1085.9063,212.2031 C1086.3906,212.4844 1086.5625,212.7031 1086.6563,213.1094 C1086.7188,213.5156 1086.75,213.6406 1086.8906,213.7656 C1087.0313,213.9063 1087.2656,214.0156 1087.4844,214.0156 C1087.75,214.0156 1088.0156,213.875 1088.1875,213.6563 C1088.2969,213.5 1088.3281,213.3125 1088.3281,212.8906 L1088.3281,211.4688 C1088.3281,211.0313 1088.3125,210.9063 1088.2188,210.75 C1088.0625,210.4844 1087.7813,210.3438 1087.4844,210.3438 C1087.1875,210.3438 1086.9844,210.4375 1086.7656,210.75 L1086.5938,210.6719 Z " fill="#000000"/><text fill="#000000" font-family="sans-serif" font-size="14" lengthAdjust="spacing" textLength="36" x="1104.75" y="219.8467">Todo</text><line style="stroke:#181818;stroke-width:0.5;" x1="294" x2="1919" y1="231" y2="231"/><rect fill="none" height="6" style="stroke:#C82930;stroke-width:1.0;" width="6" x="301" y="239"/><text fill="#000000" font-family="sans-serif" font-size="14" lengthAdjust="spacing" textLength="73" x="313" y="247.9951">title: Title</text><rect fill="none" height="6" style="stroke:#C82930;stroke-width:1.0;" width="6" x="301" y="255.2969"/><text fill="#000000" font-family="sans-serif" font-size="14" lengthAdjust="spacing" textLength="159" x="313" y="264.292">isCompleted: boolean</text><rect fill="none" height="6" style="stroke:#C82930;stroke-width:1.0;" width="6" x="301" y="271.5938"/><text fill="#000000" font-family="sans-serif" font-size="14" lengthAdjust="spacing" textLength="157" x="313" y="280.5889">createdAt: CreatedAt</text><rect fill="none" height="6" style="stroke:#C82930;stroke-width:1.0;" width="6" x="301" y="287.8906"/><text fill="#000000" font-family="sans-serif" font-size="14" lengthAdjust="spacing" textLength="203" x="313" y="296.8857">completedAt: CompletedAt</text><rect fill="none" height="6" style="stroke:#C82930;stroke-width:1.0;" width="6" x="301" y="304.1875"/><text fill="#000000" font-family="sans-serif" font-size="14" lengthAdjust="spacing" textLength="133" x="313" y="313.1826">dueDate: DueDate</text><rect fill="none" height="6" style="stroke:#C82930;stroke-width:1.0;" width="6" x="301" y="320.4844"/><text fill="#000000" font-family="sans-serif" font-size="14" lengthAdjust="spacing" textLength="140" x="313" y="329.4795">isOverDue: boolean</text><rect fill="none" height="6" style="stroke:#C82930;stroke-width:1.0;" width="6" x="301" y="336.7813"/><text fill="#000000" font-family="sans-serif" font-size="14" lengthAdjust="spacing" textLength="99" x="313" y="345.7764">status: Status</text><rect fill="none" height="6" style="stroke:#C82930;stroke-width:1.0;" width="6" x="301" y="353.0781"/><text fill="#000000" font-family="sans-serif" font-size="14" lengthAdjust="spacing" textLength="116" x="313" y="362.0732">id: number | null</text><ellipse cx="304" cy="372.375" fill="none" rx="3" ry="3" style="stroke:#038048;stroke-width:1.0;"/><text fill="#000000" font-family="sans-serif" font-size="14" lengthAdjust="spacing" textLength="84" x="313" y="378.3701">Title: string</text><ellipse cx="304" cy="388.6719" fill="none" rx="3" ry="3" style="stroke:#038048;stroke-width:1.0;"/><text fill="#000000" font-family="sans-serif" font-size="14" lengthAdjust="spacing" textLength="148" x="313" y="394.667">Completed: boolean</text><ellipse cx="304" cy="404.9688" fill="none" rx="3" ry="3" style="stroke:#038048;stroke-width:1.0;"/><text fill="#000000" font-family="sans-serif" font-size="14" lengthAdjust="spacing" textLength="119" x="313" y="410.9639">CreatedAt: Date</text><ellipse cx="304" cy="421.2656" fill="none" rx="3" ry="3" style="stroke:#038048;stroke-width:1.0;"/><text fill="#000000" font-family="sans-serif" font-size="14" lengthAdjust="spacing" textLength="180" x="313" y="427.2607">CompletedAt: Date | null</text><ellipse cx="304" cy="437.5625" fill="none" rx="3" ry="3" style="stroke:#038048;stroke-width:1.0;"/><text fill="#000000" font-family="sans-serif" font-size="14" lengthAdjust="spacing" textLength="145" x="313" y="443.5576">DueDate: Date | null</text><ellipse cx="304" cy="453.8594" fill="none" rx="3" ry="3" style="stroke:#038048;stroke-width:1.0;"/><text fill="#000000" font-family="sans-serif" font-size="14" lengthAdjust="spacing" textLength="129" x="313" y="459.8545">OverDue: boolean</text><ellipse cx="304" cy="470.1563" fill="none" rx="3" ry="3" style="stroke:#038048;stroke-width:1.0;"/><text fill="#000000" font-family="sans-serif" font-size="14" lengthAdjust="spacing" textLength="97" x="313" y="476.1514">Status: string</text><ellipse cx="304" cy="486.4531" fill="none" rx="3" ry="3" style="stroke:#038048;stroke-width:1.0;"/><text fill="#000000" font-family="sans-serif" font-size="14" lengthAdjust="spacing" textLength="116" x="313" y="492.4482">Id: number | null</text><ellipse cx="304" cy="502.75" fill="none" rx="3" ry="3" style="stroke:#038048;stroke-width:1.0;"/><text fill="#000000" font-family="sans-serif" font-size="14" lengthAdjust="spacing" textLength="134" x="313" y="508.7451">StatusCode: string</text><ellipse cx="304" cy="519.0469" fill="none" rx="3" ry="3" style="stroke:#038048;stroke-width:1.0;"/><text fill="#000000" font-family="sans-serif" font-size="14" lengthAdjust="spacing" textLength="133" x="313" y="525.042">StatusType: string</text><line style="stroke:#181818;stroke-width:0.5;" x1="294" x2="1919" y1="532.3438" y2="532.3438"/><ellipse cx="304" cy="543.3438" fill="#84BE84" rx="3" ry="3" style="stroke:#038048;stroke-width:1.0;"/><text fill="#000000" font-family="sans-serif" font-size="14" lengthAdjust="spacing" textLength="125" x="313" y="549.3389">complete(): Todo</text><ellipse cx="304" cy="559.6406" fill="#84BE84" rx="3" ry="3" style="stroke:#038048;stroke-width:1.0;"/><text fill="#000000" font-family="sans-serif" font-size="14" lengthAdjust="spacing" textLength="239" x="313" y="565.6357">setDueDate(due: DueDate): Todo</text><ellipse cx="304" cy="575.9375" fill="#84BE84" rx="3" ry="3" style="stroke:#038048;stroke-width:1.0;"/><text fill="#000000" font-family="sans-serif" font-size="14" lengthAdjust="spacing" textLength="207" x="313" y="581.9326">equals(other: Todo): boolean</text><ellipse cx="304" cy="592.2344" fill="#84BE84" rx="3" ry="3" style="stroke:#038048;stroke-width:1.0;"/><text fill="#000000" font-family="sans-serif" font-size="14" lengthAdjust="spacing" text-decoration="underline" textLength="1601" x="313" y="598.2295">create(params: { title: string; completed?: boolean | undefined; createdAt?: CreatedAt | undefined; completedAt?: CompletedAt | undefined; dueDate?: DueDate | undefined; id?: number | ... 1 more ... | undefined; }): Todo</text></g><!--MD5=[cf45e8ad0333bb05467ac0b4d70787c5]
class TodoEntity--><g id="elem_TodoEntity"><rect codeLine="78" fill="#F1F1F1" height="162.0781" id="TodoEntity" rx="2.5" ry="2.5" style="stroke:#181818;stroke-width:0.5;" width="204" x="1955.5" y="321.5"/><ellipse cx="2013.25" cy="337.5" fill="#ADD1B2" rx="11" ry="11" style="stroke:#181818;stroke-width:1.0;"/><path d="M2015.5938,333.1719 C2014.6563,332.7344 2014.0625,332.5938 2013.1875,332.5938 C2010.5625,332.5938 2008.5625,334.6719 2008.5625,337.3906 L2008.5625,338.5156 C2008.5625,341.0938 2010.6719,342.9844 2013.5625,342.9844 C2014.7813,342.9844 2015.9375,342.6875 2016.6875,342.1406 C2017.2656,341.7344 2017.5938,341.2813 2017.5938,340.8906 C2017.5938,340.4375 2017.2031,340.0469 2016.7344,340.0469 C2016.5156,340.0469 2016.3125,340.125 2016.125,340.3125 C2015.6719,340.7969 2015.6719,340.7969 2015.4844,340.8906 C2015.0625,341.1563 2014.375,341.2813 2013.6094,341.2813 C2011.5625,341.2813 2010.2656,340.1875 2010.2656,338.4844 L2010.2656,337.3906 C2010.2656,335.6094 2011.5156,334.2969 2013.25,334.2969 C2013.8281,334.2969 2014.4375,334.4531 2014.9063,334.7031 C2015.3906,334.9844 2015.5625,335.2031 2015.6563,335.6094 C2015.7188,336.0156 2015.75,336.1406 2015.8906,336.2656 C2016.0313,336.4063 2016.2656,336.5156 2016.4844,336.5156 C2016.75,336.5156 2017.0156,336.375 2017.1875,336.1563 C2017.2969,336 2017.3281,335.8125 2017.3281,335.3906 L2017.3281,333.9688 C2017.3281,333.5313 2017.3125,333.4063 2017.2188,333.25 C2017.0625,332.9844 2016.7813,332.8438 2016.4844,332.8438 C2016.1875,332.8438 2015.9844,332.9375 2015.7656,333.25 L2015.5938,333.1719 Z " fill="#000000"/><text fill="#000000" font-family="sans-serif" font-size="14" lengthAdjust="spacing" textLength="80" x="2033.75" y="342.3467">TodoEntity</text><line style="stroke:#181818;stroke-width:0.5;" x1="1956.5" x2="2158.5" y1="353.5" y2="353.5"/><ellipse cx="1966.5" cy="364.5" fill="none" rx="3" ry="3" style="stroke:#038048;stroke-width:1.0;"/><text fill="#000000" font-family="sans-serif" font-size="14" lengthAdjust="spacing" textLength="78" x="1975.5" y="370.4951">id: number</text><ellipse cx="1966.5" cy="380.7969" fill="none" rx="3" ry="3" style="stroke:#038048;stroke-width:1.0;"/><text fill="#000000" font-family="sans-serif" font-size="14" lengthAdjust="spacing" textLength="82" x="1975.5" y="386.792">title: string</text><ellipse cx="1966.5" cy="397.0938" fill="none" rx="3" ry="3" style="stroke:#038048;stroke-width:1.0;"/><text fill="#000000" font-family="sans-serif" font-size="14" lengthAdjust="spacing" textLength="146" x="1975.5" y="403.0889">completed: boolean</text><ellipse cx="1966.5" cy="413.3906" fill="none" rx="3" ry="3" style="stroke:#038048;stroke-width:1.0;"/><text fill="#000000" font-family="sans-serif" font-size="14" lengthAdjust="spacing" textLength="143" x="1975.5" y="419.3857">dueDate: Date | null</text><ellipse cx="1966.5" cy="429.6875" fill="none" rx="3" ry="3" style="stroke:#038048;stroke-width:1.0;"/><text fill="#000000" font-family="sans-serif" font-size="14" lengthAdjust="spacing" textLength="117" x="1975.5" y="435.6826">createdAt: Date</text><ellipse cx="1966.5" cy="445.9844" fill="none" rx="3" ry="3" style="stroke:#038048;stroke-width:1.0;"/><text fill="#000000" font-family="sans-serif" font-size="14" lengthAdjust="spacing" textLength="178" x="1975.5" y="451.9795">completedAt: Date | null</text><ellipse cx="1966.5" cy="462.2813" fill="none" rx="3" ry="3" style="stroke:#038048;stroke-width:1.0;"/><text fill="#000000" font-family="sans-serif" font-size="14" lengthAdjust="spacing" textLength="143" x="1975.5" y="468.2764">status: StatusEntity</text><line style="stroke:#181818;stroke-width:0.5;" x1="1956.5" x2="2158.5" y1="475.5781" y2="475.5781"/></g><!--MD5=[da1e831f50d675d9fa023d040e038ce0]
class StatusEntity--><g id="elem_StatusEntity"><rect codeLine="87" fill="#F1F1F1" height="129.4844" id="StatusEntity" rx="2.5" ry="2.5" style="stroke:#181818;stroke-width:0.5;" width="166" x="2194.5" y="338"/><ellipse cx="2229.3" cy="354" fill="#ADD1B2" rx="11" ry="11" style="stroke:#181818;stroke-width:1.0;"/><path d="M2231.6438,349.6719 C2230.7063,349.2344 2230.1125,349.0938 2229.2375,349.0938 C2226.6125,349.0938 2224.6125,351.1719 2224.6125,353.8906 L2224.6125,355.0156 C2224.6125,357.5938 2226.7219,359.4844 2229.6125,359.4844 C2230.8313,359.4844 2231.9875,359.1875 2232.7375,358.6406 C2233.3156,358.2344 2233.6438,357.7813 2233.6438,357.3906 C2233.6438,356.9375 2233.2531,356.5469 2232.7844,356.5469 C2232.5656,356.5469 2232.3625,356.625 2232.175,356.8125 C2231.7219,357.2969 2231.7219,357.2969 2231.5344,357.3906 C2231.1125,357.6563 2230.425,357.7813 2229.6594,357.7813 C2227.6125,357.7813 2226.3156,356.6875 2226.3156,354.9844 L2226.3156,353.8906 C2226.3156,352.1094 2227.5656,350.7969 2229.3,350.7969 C2229.8781,350.7969 2230.4875,350.9531 2230.9563,351.2031 C2231.4406,351.4844 2231.6125,351.7031 2231.7063,352.1094 C2231.7688,352.5156 2231.8,352.6406 2231.9406,352.7656 C2232.0813,352.9063 2232.3156,353.0156 2232.5344,353.0156 C2232.8,353.0156 2233.0656,352.875 2233.2375,352.6563 C2233.3469,352.5 2233.3781,352.3125 2233.3781,351.8906 L2233.3781,350.4688 C2233.3781,350.0313 2233.3625,349.9063 2233.2688,349.75 C2233.1125,349.4844 2232.8313,349.3438 2232.5344,349.3438 C2232.2375,349.3438 2232.0344,349.4375 2231.8156,349.75 L2231.6438,349.6719 Z " fill="#000000"/><text fill="#000000" font-family="sans-serif" font-size="14" lengthAdjust="spacing" textLength="90" x="2247.7" y="358.8467">StatusEntity</text><line style="stroke:#181818;stroke-width:0.5;" x1="2195.5" x2="2359.5" y1="370" y2="370"/><ellipse cx="2205.5" cy="381" fill="none" rx="3" ry="3" style="stroke:#038048;stroke-width:1.0;"/><text fill="#000000" font-family="sans-serif" font-size="14" lengthAdjust="spacing" textLength="78" x="2214.5" y="386.9951">id: number</text><ellipse cx="2205.5" cy="397.2969" fill="none" rx="3" ry="3" style="stroke:#038048;stroke-width:1.0;"/><text fill="#000000" font-family="sans-serif" font-size="14" lengthAdjust="spacing" textLength="85" x="2214.5" y="403.292">type: string</text><ellipse cx="2205.5" cy="413.5938" fill="none" rx="3" ry="3" style="stroke:#038048;stroke-width:1.0;"/><text fill="#000000" font-family="sans-serif" font-size="14" lengthAdjust="spacing" textLength="86" x="2214.5" y="419.5889">code: string</text><ellipse cx="2205.5" cy="429.8906" fill="none" rx="3" ry="3" style="stroke:#038048;stroke-width:1.0;"/><text fill="#000000" font-family="sans-serif" font-size="14" lengthAdjust="spacing" textLength="91" x="2214.5" y="435.8857">name: string</text><ellipse cx="2205.5" cy="446.1875" fill="none" rx="3" ry="3" style="stroke:#038048;stroke-width:1.0;"/><text fill="#000000" font-family="sans-serif" font-size="14" lengthAdjust="spacing" textLength="140" x="2214.5" y="452.1826">todos: TodoEntity[]</text><line style="stroke:#181818;stroke-width:0.5;" x1="2195.5" x2="2359.5" y1="459.4844" y2="459.4844"/></g><!--MD5=[e94d231384a51b05733b2dafe609b38f]
class TodoList--><g id="elem_TodoList"><rect codeLine="94" fill="#F1F1F1" height="96.8906" id="TodoList" rx="2.5" ry="2.5" style="stroke:#181818;stroke-width:0.5;" width="212" x="76.5" y="682"/><ellipse cx="147.25" cy="698" fill="#ADD1B2" rx="11" ry="11" style="stroke:#181818;stroke-width:1.0;"/><path d="M149.5938,693.6719 C148.6563,693.2344 148.0625,693.0938 147.1875,693.0938 C144.5625,693.0938 142.5625,695.1719 142.5625,697.8906 L142.5625,699.0156 C142.5625,701.5938 144.6719,703.4844 147.5625,703.4844 C148.7813,703.4844 149.9375,703.1875 150.6875,702.6406 C151.2656,702.2344 151.5938,701.7813 151.5938,701.3906 C151.5938,700.9375 151.2031,700.5469 150.7344,700.5469 C150.5156,700.5469 150.3125,700.625 150.125,700.8125 C149.6719,701.2969 149.6719,701.2969 149.4844,701.3906 C149.0625,701.6563 148.375,701.7813 147.6094,701.7813 C145.5625,701.7813 144.2656,700.6875 144.2656,698.9844 L144.2656,697.8906 C144.2656,696.1094 145.5156,694.7969 147.25,694.7969 C147.8281,694.7969 148.4375,694.9531 148.9063,695.2031 C149.3906,695.4844 149.5625,695.7031 149.6563,696.1094 C149.7188,696.5156 149.75,696.6406 149.8906,696.7656 C150.0313,696.9063 150.2656,697.0156 150.4844,697.0156 C150.75,697.0156 151.0156,696.875 151.1875,696.6563 C151.2969,696.5 151.3281,696.3125 151.3281,695.8906 L151.3281,694.4688 C151.3281,694.0313 151.3125,693.9063 151.2188,693.75 C151.0625,693.4844 150.7813,693.3438 150.4844,693.3438 C150.1875,693.3438 149.9844,693.4375 149.7656,693.75 L149.5938,693.6719 Z " fill="#000000"/><text fill="#000000" font-family="sans-serif" font-size="14" lengthAdjust="spacing" textLength="62" x="167.75" y="702.8467">TodoList</text><line style="stroke:#181818;stroke-width:0.5;" x1="77.5" x2="287.5" y1="714" y2="714"/><rect fill="none" height="6" style="stroke:#C82930;stroke-width:1.0;" width="6" x="84.5" y="722"/><text fill="#000000" font-family="sans-serif" font-size="14" lengthAdjust="spacing" textLength="92" x="96.5" y="730.9951">value: Todo[]</text><ellipse cx="87.5" cy="741.2969" fill="none" rx="3" ry="3" style="stroke:#038048;stroke-width:1.0;"/><text fill="#000000" font-family="sans-serif" font-size="14" lengthAdjust="spacing" textLength="94" x="96.5" y="747.292">Value: Todo[]</text><line style="stroke:#181818;stroke-width:0.5;" x1="77.5" x2="287.5" y1="754.5938" y2="754.5938"/><ellipse cx="87.5" cy="765.5938" fill="#84BE84" rx="3" ry="3" style="stroke:#038048;stroke-width:1.0;"/><text fill="#000000" font-family="sans-serif" font-size="14" lengthAdjust="spacing" textLength="186" x="96.5" y="771.5889">add(todo: Todo): TodoList</text></g><!--MD5=[c05f8d4c5007184b0fb1ea93cdb8d9fe]
class Repository--><g id="elem_Repository"><rect codeLine="99" fill="#F1F1F1" height="129.4844" id="Repository" rx="2.5" ry="2.5" style="stroke:#181818;stroke-width:0.5;" width="329" x="3190" y="10"/><ellipse cx="3291.25" cy="26" fill="#B4A7E5" rx="11" ry="11" style="stroke:#181818;stroke-width:1.0;"/><path d="M3292.2031,22.7813 L3293.9219,22.7813 C3294.3125,22.7813 3294.5,22.75 3294.625,22.6719 C3294.8906,22.5156 3295.0313,22.2344 3295.0313,21.9375 C3295.0313,21.6719 3294.9219,21.4063 3294.6875,21.2344 C3294.5156,21.125 3294.375,21.0938 3293.9219,21.0938 L3288.7813,21.0938 C3288.3438,21.0938 3288.2188,21.1094 3288.0625,21.2031 C3287.8125,21.3594 3287.6563,21.6563 3287.6563,21.9375 C3287.6563,22.2188 3287.7969,22.4688 3288.0156,22.6406 C3288.1719,22.75 3288.3594,22.7813 3288.7813,22.7813 L3290.5,22.7813 L3290.5,29.2969 L3288.7813,29.2969 C3288.3438,29.2969 3288.2188,29.3125 3288.0625,29.4219 C3287.8125,29.5781 3287.6563,29.8594 3287.6563,30.1563 C3287.6563,30.4063 3287.7969,30.6719 3288.0156,30.8281 C3288.1719,30.9531 3288.375,31 3288.7813,31 L3293.9219,31 C3294.6719,31 3295.0313,30.7188 3295.0313,30.1563 C3295.0313,29.875 3294.9219,29.625 3294.6875,29.4531 C3294.5156,29.3281 3294.375,29.2969 3293.9219,29.2969 L3292.2031,29.2969 L3292.2031,22.7813 Z " fill="#000000"/><text fill="#000000" font-family="sans-serif" font-size="14" font-style="italic" lengthAdjust="spacing" textLength="76" x="3311.75" y="30.8467">Repository</text><rect fill="#FFFFFF" height="15.9688" style="stroke:#000000;stroke-width:1.0;stroke-dasharray:2.0,2.0;" width="40" x="3482" y="7"/><text fill="#000000" font-family="sans-serif" font-size="12" font-style="italic" lengthAdjust="spacing" textLength="38" x="3483" y="19.1387">T1, T2</text><line style="stroke:#181818;stroke-width:0.5;" x1="3191" x2="3518" y1="42" y2="42"/><line style="stroke:#181818;stroke-width:0.5;" x1="3191" x2="3518" y1="50" y2="50"/><ellipse cx="3201" cy="61" fill="#84BE84" rx="3" ry="3" style="stroke:#038048;stroke-width:1.0;"/><text fill="#000000" font-family="sans-serif" font-size="14" lengthAdjust="spacing" textLength="159" x="3210" y="66.9951">getAll(): Promise&lt;T2&gt;</text><ellipse cx="3201" cy="77.2969" fill="#84BE84" rx="3" ry="3" style="stroke:#038048;stroke-width:1.0;"/><text fill="#000000" font-family="sans-serif" font-size="14" lengthAdjust="spacing" textLength="220" x="3210" y="83.292">get(id: number): Promise&lt;T1&gt;</text><ellipse cx="3201" cy="93.5938" fill="#84BE84" rx="3" ry="3" style="stroke:#038048;stroke-width:1.0;"/><text fill="#000000" font-family="sans-serif" font-size="14" lengthAdjust="spacing" textLength="303" x="3210" y="99.5889">update(updatedTodo: T1): Promise&lt;void&gt;</text><ellipse cx="3201" cy="109.8906" fill="#84BE84" rx="3" ry="3" style="stroke:#038048;stroke-width:1.0;"/><text fill="#000000" font-family="sans-serif" font-size="14" lengthAdjust="spacing" textLength="237" x="3210" y="115.8857">delete(todo: T1): Promise&lt;void&gt;</text><ellipse cx="3201" cy="126.1875" fill="#84BE84" rx="3" ry="3" style="stroke:#038048;stroke-width:1.0;"/><text fill="#000000" font-family="sans-serif" font-size="14" lengthAdjust="spacing" textLength="216" x="3210" y="132.1826">add(todo: T1): Promise&lt;void&gt;</text></g><!--MD5=[4c557e82ab1fd837e5a934d1e0e1cd2c]
class TodoRepository--><g id="elem_TodoRepository"><rect codeLine="106" fill="#F1F1F1" height="162.0781" id="TodoRepository" rx="2.5" ry="2.5" style="stroke:#181818;stroke-width:0.5;" width="545" x="3082" y="321.5"/><ellipse cx="3292.75" cy="337.5" fill="#ADD1B2" rx="11" ry="11" style="stroke:#181818;stroke-width:1.0;"/><path d="M3295.0938,333.1719 C3294.1563,332.7344 3293.5625,332.5938 3292.6875,332.5938 C3290.0625,332.5938 3288.0625,334.6719 3288.0625,337.3906 L3288.0625,338.5156 C3288.0625,341.0938 3290.1719,342.9844 3293.0625,342.9844 C3294.2813,342.9844 3295.4375,342.6875 3296.1875,342.1406 C3296.7656,341.7344 3297.0938,341.2813 3297.0938,340.8906 C3297.0938,340.4375 3296.7031,340.0469 3296.2344,340.0469 C3296.0156,340.0469 3295.8125,340.125 3295.625,340.3125 C3295.1719,340.7969 3295.1719,340.7969 3294.9844,340.8906 C3294.5625,341.1563 3293.875,341.2813 3293.1094,341.2813 C3291.0625,341.2813 3289.7656,340.1875 3289.7656,338.4844 L3289.7656,337.3906 C3289.7656,335.6094 3291.0156,334.2969 3292.75,334.2969 C3293.3281,334.2969 3293.9375,334.4531 3294.4063,334.7031 C3294.8906,334.9844 3295.0625,335.2031 3295.1563,335.6094 C3295.2188,336.0156 3295.25,336.1406 3295.3906,336.2656 C3295.5313,336.4063 3295.7656,336.5156 3295.9844,336.5156 C3296.25,336.5156 3296.5156,336.375 3296.6875,336.1563 C3296.7969,336 3296.8281,335.8125 3296.8281,335.3906 L3296.8281,333.9688 C3296.8281,333.5313 3296.8125,333.4063 3296.7188,333.25 C3296.5625,332.9844 3296.2813,332.8438 3295.9844,332.8438 C3295.6875,332.8438 3295.4844,332.9375 3295.2656,333.25 L3295.0938,333.1719 Z " fill="#000000"/><text fill="#000000" font-family="sans-serif" font-size="14" lengthAdjust="spacing" textLength="115" x="3313.25" y="342.3467">TodoRepository</text><line style="stroke:#181818;stroke-width:0.5;" x1="3083" x2="3626" y1="353.5" y2="353.5"/><rect fill="none" height="6" style="stroke:#C82930;stroke-width:1.0;" width="6" x="3090" y="361.5"/><text fill="#000000" font-family="sans-serif" font-size="14" lengthAdjust="spacing" textLength="262" x="3102" y="370.4951">repository: ORMRepository&lt;Entity&gt;</text><line style="stroke:#181818;stroke-width:0.5;" x1="3083" x2="3626" y1="377.7969" y2="377.7969"/><rect fill="#F24D5C" height="6" style="stroke:#C82930;stroke-width:1.0;" width="6" x="3090" y="385.7969"/><text fill="#000000" font-family="sans-serif" font-size="14" lengthAdjust="spacing" textLength="519" x="3102" y="394.792">createUpdateStatus(todo: DomainObject): Promise&lt;StatusEntity | null&gt;</text><ellipse cx="3093" cy="405.0938" fill="#84BE84" rx="3" ry="3" style="stroke:#038048;stroke-width:1.0;"/><text fill="#000000" font-family="sans-serif" font-size="14" lengthAdjust="spacing" textLength="283" x="3102" y="411.0889">getAll(): Promise&lt;FirstClassCollection&gt;</text><ellipse cx="3093" cy="421.3906" fill="#84BE84" rx="3" ry="3" style="stroke:#038048;stroke-width:1.0;"/><text fill="#000000" font-family="sans-serif" font-size="14" lengthAdjust="spacing" textLength="306" x="3102" y="427.3857">get(id: number): Promise&lt;DomainObject&gt;</text><ellipse cx="3093" cy="437.6875" fill="#84BE84" rx="3" ry="3" style="stroke:#038048;stroke-width:1.0;"/><text fill="#000000" font-family="sans-serif" font-size="14" lengthAdjust="spacing" textLength="302" x="3102" y="443.6826">add(todo: DomainObject): Promise&lt;void&gt;</text><ellipse cx="3093" cy="453.9844" fill="#84BE84" rx="3" ry="3" style="stroke:#038048;stroke-width:1.0;"/><text fill="#000000" font-family="sans-serif" font-size="14" lengthAdjust="spacing" textLength="323" x="3102" y="459.9795">delete(todo: DomainObject): Promise&lt;void&gt;</text><ellipse cx="3093" cy="470.2813" fill="#84BE84" rx="3" ry="3" style="stroke:#038048;stroke-width:1.0;"/><text fill="#000000" font-family="sans-serif" font-size="14" lengthAdjust="spacing" textLength="327" x="3102" y="476.2764">update(todo: DomainObject): Promise&lt;void&gt;</text></g><!--MD5=[a25ccc1209b4bad4051a7be06c87c7b8]
class TodoController--><g id="elem_TodoController"><rect codeLine="115" fill="#F1F1F1" height="129.4844" id="TodoController" rx="2.5" ry="2.5" style="stroke:#181818;stroke-width:0.5;" width="344" x="323.5" y="666"/><ellipse cx="436.75" cy="682" fill="#ADD1B2" rx="11" ry="11" style="stroke:#181818;stroke-width:1.0;"/><path d="M439.0938,677.6719 C438.1563,677.2344 437.5625,677.0938 436.6875,677.0938 C434.0625,677.0938 432.0625,679.1719 432.0625,681.8906 L432.0625,683.0156 C432.0625,685.5938 434.1719,687.4844 437.0625,687.4844 C438.2813,687.4844 439.4375,687.1875 440.1875,686.6406 C440.7656,686.2344 441.0938,685.7813 441.0938,685.3906 C441.0938,684.9375 440.7031,684.5469 440.2344,684.5469 C440.0156,684.5469 439.8125,684.625 439.625,684.8125 C439.1719,685.2969 439.1719,685.2969 438.9844,685.3906 C438.5625,685.6563 437.875,685.7813 437.1094,685.7813 C435.0625,685.7813 433.7656,684.6875 433.7656,682.9844 L433.7656,681.8906 C433.7656,680.1094 435.0156,678.7969 436.75,678.7969 C437.3281,678.7969 437.9375,678.9531 438.4063,679.2031 C438.8906,679.4844 439.0625,679.7031 439.1563,680.1094 C439.2188,680.5156 439.25,680.6406 439.3906,680.7656 C439.5313,680.9063 439.7656,681.0156 439.9844,681.0156 C440.25,681.0156 440.5156,680.875 440.6875,680.6563 C440.7969,680.5 440.8281,680.3125 440.8281,679.8906 L440.8281,678.4688 C440.8281,678.0313 440.8125,677.9063 440.7188,677.75 C440.5625,677.4844 440.2813,677.3438 439.9844,677.3438 C439.6875,677.3438 439.4844,677.4375 439.2656,677.75 L439.0938,677.6719 Z " fill="#000000"/><text fill="#000000" font-family="sans-serif" font-size="14" lengthAdjust="spacing" textLength="109" x="457.25" y="686.8467">TodoController</text><line style="stroke:#181818;stroke-width:0.5;" x1="324.5" x2="666.5" y1="698" y2="698"/><rect fill="none" height="6" style="stroke:#C82930;stroke-width:1.0;" width="6" x="331.5" y="706"/><text fill="#000000" font-family="sans-serif" font-size="14" lengthAdjust="spacing" textLength="300" x="343.5" y="714.9951">service: Service&lt;TodoRequest, TodoList&gt;</text><line style="stroke:#181818;stroke-width:0.5;" x1="324.5" x2="666.5" y1="722.2969" y2="722.2969"/><ellipse cx="334.5" cy="733.2969" fill="#84BE84" rx="3" ry="3" style="stroke:#038048;stroke-width:1.0;"/><text fill="#000000" font-family="sans-serif" font-size="14" lengthAdjust="spacing" textLength="223" x="343.5" y="739.292">selectAll(): Promise&lt;TodoList&gt;</text><ellipse cx="334.5" cy="749.5938" fill="#84BE84" rx="3" ry="3" style="stroke:#038048;stroke-width:1.0;"/><text fill="#000000" font-family="sans-serif" font-size="14" lengthAdjust="spacing" textLength="314" x="343.5" y="755.5889">create(todo: TodoRequest): Promise&lt;void&gt;</text><ellipse cx="334.5" cy="765.8906" fill="#84BE84" rx="3" ry="3" style="stroke:#038048;stroke-width:1.0;"/><text fill="#000000" font-family="sans-serif" font-size="14" lengthAdjust="spacing" textLength="314" x="343.5" y="771.8857">delete(todo: TodoRequest): Promise&lt;void&gt;</text><ellipse cx="334.5" cy="782.1875" fill="#84BE84" rx="3" ry="3" style="stroke:#038048;stroke-width:1.0;"/><text fill="#000000" font-family="sans-serif" font-size="14" lengthAdjust="spacing" textLength="318" x="343.5" y="788.1826">update(todo: TodoRequest): Promise&lt;void&gt;</text></g><!--MD5=[607c01281c15983c44675f9e6dea3db6]
class TodoService--><g id="elem_TodoService"><rect codeLine="122" fill="#F1F1F1" height="129.4844" id="TodoService" rx="2.5" ry="2.5" style="stroke:#181818;stroke-width:0.5;" width="363" x="2396" y="338"/><ellipse cx="2528.75" cy="354" fill="#ADD1B2" rx="11" ry="11" style="stroke:#181818;stroke-width:1.0;"/><path d="M2531.0938,349.6719 C2530.1563,349.2344 2529.5625,349.0938 2528.6875,349.0938 C2526.0625,349.0938 2524.0625,351.1719 2524.0625,353.8906 L2524.0625,355.0156 C2524.0625,357.5938 2526.1719,359.4844 2529.0625,359.4844 C2530.2813,359.4844 2531.4375,359.1875 2532.1875,358.6406 C2532.7656,358.2344 2533.0938,357.7813 2533.0938,357.3906 C2533.0938,356.9375 2532.7031,356.5469 2532.2344,356.5469 C2532.0156,356.5469 2531.8125,356.625 2531.625,356.8125 C2531.1719,357.2969 2531.1719,357.2969 2530.9844,357.3906 C2530.5625,357.6563 2529.875,357.7813 2529.1094,357.7813 C2527.0625,357.7813 2525.7656,356.6875 2525.7656,354.9844 L2525.7656,353.8906 C2525.7656,352.1094 2527.0156,350.7969 2528.75,350.7969 C2529.3281,350.7969 2529.9375,350.9531 2530.4063,351.2031 C2530.8906,351.4844 2531.0625,351.7031 2531.1563,352.1094 C2531.2188,352.5156 2531.25,352.6406 2531.3906,352.7656 C2531.5313,352.9063 2531.7656,353.0156 2531.9844,353.0156 C2532.25,353.0156 2532.5156,352.875 2532.6875,352.6563 C2532.7969,352.5 2532.8281,352.3125 2532.8281,351.8906 L2532.8281,350.4688 C2532.8281,350.0313 2532.8125,349.9063 2532.7188,349.75 C2532.5625,349.4844 2532.2813,349.3438 2531.9844,349.3438 C2531.6875,349.3438 2531.4844,349.4375 2531.2656,349.75 L2531.0938,349.6719 Z " fill="#000000"/><text fill="#000000" font-family="sans-serif" font-size="14" lengthAdjust="spacing" textLength="89" x="2549.25" y="358.8467">TodoService</text><line style="stroke:#181818;stroke-width:0.5;" x1="2397" x2="2758" y1="370" y2="370"/><rect fill="none" height="6" style="stroke:#C82930;stroke-width:1.0;" width="6" x="2404" y="378"/><text fill="#000000" font-family="sans-serif" font-size="14" lengthAdjust="spacing" textLength="291" x="2416" y="386.9951">repository: Repository&lt;Todo, TodoList&gt;</text><line style="stroke:#181818;stroke-width:0.5;" x1="2397" x2="2758" y1="394.2969" y2="394.2969"/><ellipse cx="2407" cy="405.2969" fill="#84BE84" rx="3" ry="3" style="stroke:#038048;stroke-width:1.0;"/><text fill="#000000" font-family="sans-serif" font-size="14" lengthAdjust="spacing" textLength="223" x="2416" y="411.292">selectAll(): Promise&lt;TodoList&gt;</text><ellipse cx="2407" cy="421.5938" fill="#84BE84" rx="3" ry="3" style="stroke:#038048;stroke-width:1.0;"/><text fill="#000000" font-family="sans-serif" font-size="14" lengthAdjust="spacing" textLength="333" x="2416" y="427.5889">create(params: TodoRequest): Promise&lt;void&gt;</text><ellipse cx="2407" cy="437.8906" fill="#84BE84" rx="3" ry="3" style="stroke:#038048;stroke-width:1.0;"/><text fill="#000000" font-family="sans-serif" font-size="14" lengthAdjust="spacing" textLength="333" x="2416" y="443.8857">delete(params: TodoRequest): Promise&lt;void&gt;</text><ellipse cx="2407" cy="454.1875" fill="#84BE84" rx="3" ry="3" style="stroke:#038048;stroke-width:1.0;"/><text fill="#000000" font-family="sans-serif" font-size="14" lengthAdjust="spacing" textLength="337" x="2416" y="460.1826">update(params: TodoRequest): Promise&lt;void&gt;</text></g><!--MD5=[90c2eeb5b1c43f41de2a9553c00dd5e7]
reverse link Status to TodoStatus--><g id="link_Status_TodoStatus"><path d="M2920.5,143.455 C2920.5,195.277 2920.5,266.799 2920.5,321.404 " fill="none" id="Status-backto-TodoStatus" style="stroke:#181818;stroke-width:1.0;stroke-dasharray:7.0,7.0;"/><polygon fill="none" points="2913.5,143.252,2920.5,123.252,2927.5,143.252,2913.5,143.252" style="stroke:#181818;stroke-width:1.0;"/></g><!--MD5=[ebb592ff29e93e2dfd26247b56493251]
reverse link TodoStatus to NotStarted--><g id="link_TodoStatus_NotStarted"><path d="M2855.66,500.462 C2807.76,572.091 2746.17,664.196 2717.91,706.451 " fill="none" id="TodoStatus-backto-NotStarted" style="stroke:#181818;stroke-width:1.0;"/><polygon fill="none" points="2849.96,496.4,2866.89,483.666,2861.59,504.183,2849.96,496.4" style="stroke:#181818;stroke-width:1.0;"/></g><!--MD5=[63986a0e5cc34f102e943fcb74e6a640]
reverse link TodoStatus to InProgress--><g id="link_TodoStatus_InProgress"><path d="M2898.18,503.192 C2882.23,574.415 2862,664.731 2852.66,706.451 " fill="none" id="TodoStatus-backto-InProgress" style="stroke:#181818;stroke-width:1.0;"/><polygon fill="none" points="2891.35,501.653,2902.55,483.666,2905.01,504.712,2891.35,501.653" style="stroke:#181818;stroke-width:1.0;"/></g><!--MD5=[6e26457b256553e6fb06ab3173327d68]
reverse link TodoStatus to Completed--><g id="link_TodoStatus_Completed"><path d="M2942.62,503.649 C2958.33,574.801 2978.21,664.82 2987.41,706.451 " fill="none" id="TodoStatus-backto-Completed" style="stroke:#181818;stroke-width:1.0;"/><polygon fill="none" points="2935.68,504.705,2938.21,483.666,2949.35,501.686,2935.68,504.705" style="stroke:#181818;stroke-width:1.0;"/></g><!--MD5=[119361190cdd54cf66ab20ad6dd3660c]
reverse link TodoStatus to Undefined--><g id="link_TodoStatus_Undefined"><path d="M2984.74,500.462 C3032.2,572.091 3093.23,664.196 3121.23,706.451 " fill="none" id="TodoStatus-backto-Undefined" style="stroke:#181818;stroke-width:1.0;"/><polygon fill="none" points="2978.83,504.205,2973.62,483.666,2990.5,496.472,2978.83,504.205" style="stroke:#181818;stroke-width:1.0;"/></g><!--MD5=[1b6a82b39fa22465f7b12426f312311f]
reverse link Repository to TodoRepository--><g id="link_Repository_TodoRepository"><path d="M3354.5,159.27 C3354.5,209.126 3354.5,272.049 3354.5,321.267 " fill="none" id="Repository-backto-TodoRepository" style="stroke:#181818;stroke-width:1.0;stroke-dasharray:7.0,7.0;"/><polygon fill="none" points="3347.5,159.13,3354.5,139.13,3361.5,159.13,3347.5,159.13" style="stroke:#181818;stroke-width:1.0;"/></g><!--MD5=[cf6bf8784ce41bc80f656847812dbf59]
reverse link Service to TodoService--><g id="link_Service_TodoService"><path d="M2577.5,151.437 C2577.5,208.07 2577.5,284.55 2577.5,337.963 " fill="none" id="Service-backto-TodoService" style="stroke:#181818;stroke-width:1.0;stroke-dasharray:7.0,7.0;"/><polygon fill="none" points="2570.5,151.171,2577.5,131.171,2584.5,151.171,2570.5,151.171" style="stroke:#181818;stroke-width:1.0;"/></g><!--MD5=[8c6934fb2788d4bf3f29f7104a3d606e]
@startuml
interface Service<T1, T2> {
    +create(params: T1): PromiseLike<void>
    +selectAll(): PromiseLike<T2>
    +update(params: T1): PromiseLike<void>
    +delete(params: T1): PromiseLike<void>
}
class CompletedAt {
    -value: Date | null
    +Value: Date | null
    +equals(completedAt: CompletedAt): boolean
}
class CreatedAt {
    -value: Date
    +Value: Date
    +equals(createdAt: CreatedAt): boolean
}
class DueDate {
    -value: Date | null
    +Value: Date | null
    +equals(dueDate: DueDate): boolean
    +overDue(day?: Date): boolean
}
interface Status {
    +Value: string
    +Type: string
    +Code: string
}
class Title {
    -value: string
    +Value: string
    +equals(other: Title): boolean
}
enum TodoStatusType {
    UNDEFINED
    NOT_STARTED
    IN_PROGRESS
    COMPLETED
}
namespace TodoStatusTypeEnum {
}
abstract class TodoStatus implements Status {
    #value: string
    #type: string
    #code: string
    +Value: string
    +Type: string
    +Code: string
    +{static} create(todo: Todo): TodoStatus
}
class NotStarted extends TodoStatus
class InProgress extends TodoStatus
class Completed extends TodoStatus
class Undefined extends TodoStatus
class Todo {
    -title: Title
    -isCompleted: boolean
    -createdAt: CreatedAt
    -completedAt: CompletedAt
    -dueDate: DueDate
    -isOverDue: boolean
    -status: Status
    -id: number | null
    +Title: string
    +Completed: boolean
    +CreatedAt: Date
    +CompletedAt: Date | null
    +DueDate: Date | null
    +OverDue: boolean
    +Status: string
    +Id: number | null
    +StatusCode: string
    +StatusType: string
    +complete(): Todo
    +setDueDate(due: DueDate): Todo
    +equals(other: Todo): boolean
    +{static} create(params: { title: string; completed?: boolean | undefined; createdAt?: CreatedAt | undefined; completedAt?: CompletedAt | undefined; dueDate?: DueDate | undefined; id?: number | ... 1 more ... | undefined; }): Todo
}
class TodoEntity {
    +id: number
    +title: string
    +completed: boolean
    +dueDate: Date | null
    +createdAt: Date
    +completedAt: Date | null
    +status: StatusEntity
}
class StatusEntity {
    +id: number
    +type: string
    +code: string
    +name: string
    +todos: TodoEntity[]
}
class TodoList {
    -value: Todo[]
    +Value: Todo[]
    +add(todo: Todo): TodoList
}
interface Repository<T1, T2> {
    +getAll(): Promise<T2>
    +get(id: number): Promise<T1>
    +update(updatedTodo: T1): Promise<void>
    +delete(todo: T1): Promise<void>
    +add(todo: T1): Promise<void>
}
class TodoRepository implements Repository {
    -repository: ORMRepository<Entity>
    -createUpdateStatus(todo: DomainObject): Promise<StatusEntity | null>
    +getAll(): Promise<FirstClassCollection>
    +get(id: number): Promise<DomainObject>
    +add(todo: DomainObject): Promise<void>
    +delete(todo: DomainObject): Promise<void>
    +update(todo: DomainObject): Promise<void>
}
class TodoController {
    -service: Service<TodoRequest, TodoList>
    +selectAll(): Promise<TodoList>
    +create(todo: TodoRequest): Promise<void>
    +delete(todo: TodoRequest): Promise<void>
    +update(todo: TodoRequest): Promise<void>
}
class TodoService implements Service {
    -repository: Repository<Todo, TodoList>
    +selectAll(): Promise<TodoList>
    +create(params: TodoRequest): Promise<void>
    +delete(params: TodoRequest): Promise<void>
    +update(params: TodoRequest): Promise<void>
}
@enduml

PlantUML version 1.2022.4beta2(Unknown compile time)
(GPL source distribution)
Java Runtime: Java(TM) SE Runtime Environment
JVM: Java HotSpot(TM) 64-Bit Server VM
Default Encoding: UTF-8
Language: en
Country: US
--></g></svg>