<?xml version="1.0" encoding="UTF-8" standalone="no"?><svg xmlns="http://www.w3.org/2000/svg" xmlns:xlink="http://www.w3.org/1999/xlink" contentStyleType="text/css" height="733px" preserveAspectRatio="none" style="width:1048px;height:733px;background:#FFFFFF;" version="1.1" viewBox="0 0 1048 733" width="1048px" zoomAndPan="magnify"><defs/><g><!--MD5=[67f100d94b12044e782866d6f1627f13]
class CompletedAt--><g id="elem_CompletedAt"><rect codeLine="1" fill="#F1F1F1" height="96.8906" id="CompletedAt" rx="2.5" ry="2.5" style="stroke:#181818;stroke-width:0.5;" width="351" x="34.5" y="15"/><ellipse cx="156.75" cy="31" fill="#ADD1B2" rx="11" ry="11" style="stroke:#181818;stroke-width:1.0;"/><path d="M159.0938,26.6719 C158.1563,26.2344 157.5625,26.0938 156.6875,26.0938 C154.0625,26.0938 152.0625,28.1719 152.0625,30.8906 L152.0625,32.0156 C152.0625,34.5938 154.1719,36.4844 157.0625,36.4844 C158.2813,36.4844 159.4375,36.1875 160.1875,35.6406 C160.7656,35.2344 161.0938,34.7813 161.0938,34.3906 C161.0938,33.9375 160.7031,33.5469 160.2344,33.5469 C160.0156,33.5469 159.8125,33.625 159.625,33.8125 C159.1719,34.2969 159.1719,34.2969 158.9844,34.3906 C158.5625,34.6563 157.875,34.7813 157.1094,34.7813 C155.0625,34.7813 153.7656,33.6875 153.7656,31.9844 L153.7656,30.8906 C153.7656,29.1094 155.0156,27.7969 156.75,27.7969 C157.3281,27.7969 157.9375,27.9531 158.4063,28.2031 C158.8906,28.4844 159.0625,28.7031 159.1563,29.1094 C159.2188,29.5156 159.25,29.6406 159.3906,29.7656 C159.5313,29.9063 159.7656,30.0156 159.9844,30.0156 C160.25,30.0156 160.5156,29.875 160.6875,29.6563 C160.7969,29.5 160.8281,29.3125 160.8281,28.8906 L160.8281,27.4688 C160.8281,27.0313 160.8125,26.9063 160.7188,26.75 C160.5625,26.4844 160.2813,26.3438 159.9844,26.3438 C159.6875,26.3438 159.4844,26.4375 159.2656,26.75 L159.0938,26.6719 Z " fill="#000000"/><text fill="#000000" font-family="sans-serif" font-size="14" lengthAdjust="spacing" textLength="98" x="177.25" y="35.8467">CompletedAt</text><line style="stroke:#181818;stroke-width:0.5;" x1="35.5" x2="384.5" y1="47" y2="47"/><rect fill="none" height="6" style="stroke:#C82930;stroke-width:1.0;" width="6" x="42.5" y="55"/><text fill="#000000" font-family="sans-serif" font-size="14" lengthAdjust="spacing" textLength="119" x="54.5" y="63.9951">value: Date | null</text><ellipse cx="45.5" cy="74.2969" fill="none" rx="3" ry="3" style="stroke:#038048;stroke-width:1.0;"/><text fill="#000000" font-family="sans-serif" font-size="14" lengthAdjust="spacing" textLength="121" x="54.5" y="80.292">Value: Date | null</text><line style="stroke:#181818;stroke-width:0.5;" x1="35.5" x2="384.5" y1="87.5938" y2="87.5938"/><ellipse cx="45.5" cy="98.5938" fill="#84BE84" rx="3" ry="3" style="stroke:#038048;stroke-width:1.0;"/><text fill="#000000" font-family="sans-serif" font-size="14" lengthAdjust="spacing" textLength="325" x="54.5" y="104.5889">equals(completedAt: CompletedAt): boolean</text></g><!--MD5=[dde4359a43de047b4d984bc31705a409]
class CreatedAt--><g id="elem_CreatedAt"><rect codeLine="6" fill="#F1F1F1" height="96.8906" id="CreatedAt" rx="2.5" ry="2.5" style="stroke:#181818;stroke-width:0.5;" width="305" x="420.5" y="15"/><ellipse cx="531.25" cy="31" fill="#ADD1B2" rx="11" ry="11" style="stroke:#181818;stroke-width:1.0;"/><path d="M533.5938,26.6719 C532.6563,26.2344 532.0625,26.0938 531.1875,26.0938 C528.5625,26.0938 526.5625,28.1719 526.5625,30.8906 L526.5625,32.0156 C526.5625,34.5938 528.6719,36.4844 531.5625,36.4844 C532.7813,36.4844 533.9375,36.1875 534.6875,35.6406 C535.2656,35.2344 535.5938,34.7813 535.5938,34.3906 C535.5938,33.9375 535.2031,33.5469 534.7344,33.5469 C534.5156,33.5469 534.3125,33.625 534.125,33.8125 C533.6719,34.2969 533.6719,34.2969 533.4844,34.3906 C533.0625,34.6563 532.375,34.7813 531.6094,34.7813 C529.5625,34.7813 528.2656,33.6875 528.2656,31.9844 L528.2656,30.8906 C528.2656,29.1094 529.5156,27.7969 531.25,27.7969 C531.8281,27.7969 532.4375,27.9531 532.9063,28.2031 C533.3906,28.4844 533.5625,28.7031 533.6563,29.1094 C533.7188,29.5156 533.75,29.6406 533.8906,29.7656 C534.0313,29.9063 534.2656,30.0156 534.4844,30.0156 C534.75,30.0156 535.0156,29.875 535.1875,29.6563 C535.2969,29.5 535.3281,29.3125 535.3281,28.8906 L535.3281,27.4688 C535.3281,27.0313 535.3125,26.9063 535.2188,26.75 C535.0625,26.4844 534.7813,26.3438 534.4844,26.3438 C534.1875,26.3438 533.9844,26.4375 533.7656,26.75 L533.5938,26.6719 Z " fill="#000000"/><text fill="#000000" font-family="sans-serif" font-size="14" lengthAdjust="spacing" textLength="75" x="551.75" y="35.8467">CreatedAt</text><line style="stroke:#181818;stroke-width:0.5;" x1="421.5" x2="724.5" y1="47" y2="47"/><rect fill="none" height="6" style="stroke:#C82930;stroke-width:1.0;" width="6" x="428.5" y="55"/><text fill="#000000" font-family="sans-serif" font-size="14" lengthAdjust="spacing" textLength="81" x="440.5" y="63.9951">value: Date</text><ellipse cx="431.5" cy="74.2969" fill="none" rx="3" ry="3" style="stroke:#038048;stroke-width:1.0;"/><text fill="#000000" font-family="sans-serif" font-size="14" lengthAdjust="spacing" textLength="83" x="440.5" y="80.292">Value: Date</text><line style="stroke:#181818;stroke-width:0.5;" x1="421.5" x2="724.5" y1="87.5938" y2="87.5938"/><ellipse cx="431.5" cy="98.5938" fill="#84BE84" rx="3" ry="3" style="stroke:#038048;stroke-width:1.0;"/><text fill="#000000" font-family="sans-serif" font-size="14" lengthAdjust="spacing" textLength="279" x="440.5" y="104.5889">equals(createdAt: CreatedAt): boolean</text></g><!--MD5=[cf3bb39649ce7f8bfa01714f85686c3f]
class DueDate--><g id="elem_DueDate"><rect codeLine="11" fill="#F1F1F1" height="113.1875" id="DueDate" rx="2.5" ry="2.5" style="stroke:#181818;stroke-width:0.5;" width="281" x="760.5" y="7"/><ellipse cx="865.25" cy="23" fill="#ADD1B2" rx="11" ry="11" style="stroke:#181818;stroke-width:1.0;"/><path d="M867.5938,18.6719 C866.6563,18.2344 866.0625,18.0938 865.1875,18.0938 C862.5625,18.0938 860.5625,20.1719 860.5625,22.8906 L860.5625,24.0156 C860.5625,26.5938 862.6719,28.4844 865.5625,28.4844 C866.7813,28.4844 867.9375,28.1875 868.6875,27.6406 C869.2656,27.2344 869.5938,26.7813 869.5938,26.3906 C869.5938,25.9375 869.2031,25.5469 868.7344,25.5469 C868.5156,25.5469 868.3125,25.625 868.125,25.8125 C867.6719,26.2969 867.6719,26.2969 867.4844,26.3906 C867.0625,26.6563 866.375,26.7813 865.6094,26.7813 C863.5625,26.7813 862.2656,25.6875 862.2656,23.9844 L862.2656,22.8906 C862.2656,21.1094 863.5156,19.7969 865.25,19.7969 C865.8281,19.7969 866.4375,19.9531 866.9063,20.2031 C867.3906,20.4844 867.5625,20.7031 867.6563,21.1094 C867.7188,21.5156 867.75,21.6406 867.8906,21.7656 C868.0313,21.9063 868.2656,22.0156 868.4844,22.0156 C868.75,22.0156 869.0156,21.875 869.1875,21.6563 C869.2969,21.5 869.3281,21.3125 869.3281,20.8906 L869.3281,19.4688 C869.3281,19.0313 869.3125,18.9063 869.2188,18.75 C869.0625,18.4844 868.7813,18.3438 868.4844,18.3438 C868.1875,18.3438 867.9844,18.4375 867.7656,18.75 L867.5938,18.6719 Z " fill="#000000"/><text fill="#000000" font-family="sans-serif" font-size="14" lengthAdjust="spacing" textLength="63" x="885.75" y="27.8467">DueDate</text><line style="stroke:#181818;stroke-width:0.5;" x1="761.5" x2="1040.5" y1="39" y2="39"/><rect fill="none" height="6" style="stroke:#C82930;stroke-width:1.0;" width="6" x="768.5" y="47"/><text fill="#000000" font-family="sans-serif" font-size="14" lengthAdjust="spacing" textLength="119" x="780.5" y="55.9951">value: Date | null</text><ellipse cx="771.5" cy="66.2969" fill="none" rx="3" ry="3" style="stroke:#038048;stroke-width:1.0;"/><text fill="#000000" font-family="sans-serif" font-size="14" lengthAdjust="spacing" textLength="121" x="780.5" y="72.292">Value: Date | null</text><line style="stroke:#181818;stroke-width:0.5;" x1="761.5" x2="1040.5" y1="79.5938" y2="79.5938"/><ellipse cx="771.5" cy="90.5938" fill="#84BE84" rx="3" ry="3" style="stroke:#038048;stroke-width:1.0;"/><text fill="#000000" font-family="sans-serif" font-size="14" lengthAdjust="spacing" textLength="255" x="780.5" y="96.5889">equals(dueDate: DueDate): boolean</text><ellipse cx="771.5" cy="106.8906" fill="#84BE84" rx="3" ry="3" style="stroke:#038048;stroke-width:1.0;"/><text fill="#000000" font-family="sans-serif" font-size="14" lengthAdjust="spacing" textLength="137" x="780.5" y="112.8857">overDue(): boolean</text></g><!--MD5=[90111e5cdc788a7ef73a3273c23dcc2b]
class Title--><g id="elem_Title"><rect codeLine="17" fill="#F1F1F1" height="96.8906" id="Title" rx="2.5" ry="2.5" style="stroke:#181818;stroke-width:0.5;" width="230" x="95" y="302"/><ellipse cx="189.25" cy="318" fill="#ADD1B2" rx="11" ry="11" style="stroke:#181818;stroke-width:1.0;"/><path d="M191.5938,313.6719 C190.6563,313.2344 190.0625,313.0938 189.1875,313.0938 C186.5625,313.0938 184.5625,315.1719 184.5625,317.8906 L184.5625,319.0156 C184.5625,321.5938 186.6719,323.4844 189.5625,323.4844 C190.7813,323.4844 191.9375,323.1875 192.6875,322.6406 C193.2656,322.2344 193.5938,321.7813 193.5938,321.3906 C193.5938,320.9375 193.2031,320.5469 192.7344,320.5469 C192.5156,320.5469 192.3125,320.625 192.125,320.8125 C191.6719,321.2969 191.6719,321.2969 191.4844,321.3906 C191.0625,321.6563 190.375,321.7813 189.6094,321.7813 C187.5625,321.7813 186.2656,320.6875 186.2656,318.9844 L186.2656,317.8906 C186.2656,316.1094 187.5156,314.7969 189.25,314.7969 C189.8281,314.7969 190.4375,314.9531 190.9063,315.2031 C191.3906,315.4844 191.5625,315.7031 191.6563,316.1094 C191.7188,316.5156 191.75,316.6406 191.8906,316.7656 C192.0313,316.9063 192.2656,317.0156 192.4844,317.0156 C192.75,317.0156 193.0156,316.875 193.1875,316.6563 C193.2969,316.5 193.3281,316.3125 193.3281,315.8906 L193.3281,314.4688 C193.3281,314.0313 193.3125,313.9063 193.2188,313.75 C193.0625,313.4844 192.7813,313.3438 192.4844,313.3438 C192.1875,313.3438 191.9844,313.4375 191.7656,313.75 L191.5938,313.6719 Z " fill="#000000"/><text fill="#000000" font-family="sans-serif" font-size="14" lengthAdjust="spacing" textLength="33" x="209.75" y="322.8467">Title</text><line style="stroke:#181818;stroke-width:0.5;" x1="96" x2="324" y1="334" y2="334"/><rect fill="none" height="6" style="stroke:#C82930;stroke-width:1.0;" width="6" x="103" y="342"/><text fill="#000000" font-family="sans-serif" font-size="14" lengthAdjust="spacing" textLength="88" x="115" y="350.9951">value: string</text><ellipse cx="106" cy="361.2969" fill="none" rx="3" ry="3" style="stroke:#038048;stroke-width:1.0;"/><text fill="#000000" font-family="sans-serif" font-size="14" lengthAdjust="spacing" textLength="90" x="115" y="367.292">Value: string</text><line style="stroke:#181818;stroke-width:0.5;" x1="96" x2="324" y1="374.5938" y2="374.5938"/><ellipse cx="106" cy="385.5938" fill="#84BE84" rx="3" ry="3" style="stroke:#038048;stroke-width:1.0;"/><text fill="#000000" font-family="sans-serif" font-size="14" lengthAdjust="spacing" textLength="204" x="115" y="391.5889">equals(other: Title): boolean</text></g><!--MD5=[d304ca89bdbd8073bbc1ba7ea9e70f7d]
class Todo--><g id="elem_Todo"><rect codeLine="22" fill="#F1F1F1" height="341.3438" id="Todo" rx="2.5" ry="2.5" style="stroke:#181818;stroke-width:0.5;" width="265" x="360.5" y="180"/><ellipse cx="470.75" cy="196" fill="#ADD1B2" rx="11" ry="11" style="stroke:#181818;stroke-width:1.0;"/><path d="M473.0938,191.6719 C472.1563,191.2344 471.5625,191.0938 470.6875,191.0938 C468.0625,191.0938 466.0625,193.1719 466.0625,195.8906 L466.0625,197.0156 C466.0625,199.5938 468.1719,201.4844 471.0625,201.4844 C472.2813,201.4844 473.4375,201.1875 474.1875,200.6406 C474.7656,200.2344 475.0938,199.7813 475.0938,199.3906 C475.0938,198.9375 474.7031,198.5469 474.2344,198.5469 C474.0156,198.5469 473.8125,198.625 473.625,198.8125 C473.1719,199.2969 473.1719,199.2969 472.9844,199.3906 C472.5625,199.6563 471.875,199.7813 471.1094,199.7813 C469.0625,199.7813 467.7656,198.6875 467.7656,196.9844 L467.7656,195.8906 C467.7656,194.1094 469.0156,192.7969 470.75,192.7969 C471.3281,192.7969 471.9375,192.9531 472.4063,193.2031 C472.8906,193.4844 473.0625,193.7031 473.1563,194.1094 C473.2188,194.5156 473.25,194.6406 473.3906,194.7656 C473.5313,194.9063 473.7656,195.0156 473.9844,195.0156 C474.25,195.0156 474.5156,194.875 474.6875,194.6563 C474.7969,194.5 474.8281,194.3125 474.8281,193.8906 L474.8281,192.4688 C474.8281,192.0313 474.8125,191.9063 474.7188,191.75 C474.5625,191.4844 474.2813,191.3438 473.9844,191.3438 C473.6875,191.3438 473.4844,191.4375 473.2656,191.75 L473.0938,191.6719 Z " fill="#000000"/><text fill="#000000" font-family="sans-serif" font-size="14" lengthAdjust="spacing" textLength="36" x="491.25" y="200.8467">Todo</text><line style="stroke:#181818;stroke-width:0.5;" x1="361.5" x2="624.5" y1="212" y2="212"/><rect fill="none" height="6" style="stroke:#C82930;stroke-width:1.0;" width="6" x="368.5" y="220"/><text fill="#000000" font-family="sans-serif" font-size="14" lengthAdjust="spacing" textLength="73" x="380.5" y="228.9951">title: Title</text><rect fill="none" height="6" style="stroke:#C82930;stroke-width:1.0;" width="6" x="368.5" y="236.2969"/><text fill="#000000" font-family="sans-serif" font-size="14" lengthAdjust="spacing" textLength="146" x="380.5" y="245.292">completed: boolean</text><rect fill="none" height="6" style="stroke:#C82930;stroke-width:1.0;" width="6" x="368.5" y="252.5938"/><text fill="#000000" font-family="sans-serif" font-size="14" lengthAdjust="spacing" textLength="157" x="380.5" y="261.5889">createdAt: CreatedAt</text><rect fill="none" height="6" style="stroke:#C82930;stroke-width:1.0;" width="6" x="368.5" y="268.8906"/><text fill="#000000" font-family="sans-serif" font-size="14" lengthAdjust="spacing" textLength="203" x="380.5" y="277.8857">completedAt: CompletedAt</text><rect fill="none" height="6" style="stroke:#C82930;stroke-width:1.0;" width="6" x="368.5" y="285.1875"/><text fill="#000000" font-family="sans-serif" font-size="14" lengthAdjust="spacing" textLength="133" x="380.5" y="294.1826">dueDate: DueDate</text><rect fill="none" height="6" style="stroke:#C82930;stroke-width:1.0;" width="6" x="368.5" y="301.4844"/><text fill="#000000" font-family="sans-serif" font-size="14" lengthAdjust="spacing" textLength="95" x="380.5" y="310.4795">status: string</text><rect fill="none" height="6" style="stroke:#C82930;stroke-width:1.0;" width="6" x="368.5" y="317.7813"/><text fill="#000000" font-family="sans-serif" font-size="14" lengthAdjust="spacing" textLength="116" x="380.5" y="326.7764">id: number | null</text><ellipse cx="371.5" cy="337.0781" fill="none" rx="3" ry="3" style="stroke:#038048;stroke-width:1.0;"/><text fill="#000000" font-family="sans-serif" font-size="14" lengthAdjust="spacing" textLength="84" x="380.5" y="343.0732">Title: string</text><ellipse cx="371.5" cy="353.375" fill="none" rx="3" ry="3" style="stroke:#038048;stroke-width:1.0;"/><text fill="#000000" font-family="sans-serif" font-size="14" lengthAdjust="spacing" textLength="148" x="380.5" y="359.3701">Completed: boolean</text><ellipse cx="371.5" cy="369.6719" fill="none" rx="3" ry="3" style="stroke:#038048;stroke-width:1.0;"/><text fill="#000000" font-family="sans-serif" font-size="14" lengthAdjust="spacing" textLength="119" x="380.5" y="375.667">CreatedAt: Date</text><ellipse cx="371.5" cy="385.9688" fill="none" rx="3" ry="3" style="stroke:#038048;stroke-width:1.0;"/><text fill="#000000" font-family="sans-serif" font-size="14" lengthAdjust="spacing" textLength="180" x="380.5" y="391.9639">CompletedAt: Date | null</text><ellipse cx="371.5" cy="402.2656" fill="none" rx="3" ry="3" style="stroke:#038048;stroke-width:1.0;"/><text fill="#000000" font-family="sans-serif" font-size="14" lengthAdjust="spacing" textLength="145" x="380.5" y="408.2607">DueDate: Date | null</text><ellipse cx="371.5" cy="418.5625" fill="none" rx="3" ry="3" style="stroke:#038048;stroke-width:1.0;"/><text fill="#000000" font-family="sans-serif" font-size="14" lengthAdjust="spacing" textLength="97" x="380.5" y="424.5576">Status: string</text><ellipse cx="371.5" cy="434.8594" fill="none" rx="3" ry="3" style="stroke:#038048;stroke-width:1.0;"/><text fill="#000000" font-family="sans-serif" font-size="14" lengthAdjust="spacing" textLength="116" x="380.5" y="440.8545">Id: number | null</text><line style="stroke:#181818;stroke-width:0.5;" x1="361.5" x2="624.5" y1="448.1563" y2="448.1563"/><ellipse cx="371.5" cy="459.1563" fill="#84BE84" rx="3" ry="3" style="stroke:#038048;stroke-width:1.0;"/><text fill="#000000" font-family="sans-serif" font-size="14" lengthAdjust="spacing" textLength="119" x="380.5" y="465.1514">complete(): void</text><ellipse cx="371.5" cy="475.4531" fill="#84BE84" rx="3" ry="3" style="stroke:#038048;stroke-width:1.0;"/><text fill="#000000" font-family="sans-serif" font-size="14" lengthAdjust="spacing" textLength="137" x="380.5" y="481.4482">overDue(): boolean</text><ellipse cx="371.5" cy="491.75" fill="#84BE84" rx="3" ry="3" style="stroke:#038048;stroke-width:1.0;"/><text fill="#000000" font-family="sans-serif" font-size="14" lengthAdjust="spacing" textLength="239" x="380.5" y="497.7451">setDueDate(due: DueDate): Todo</text><ellipse cx="371.5" cy="508.0469" fill="#84BE84" rx="3" ry="3" style="stroke:#038048;stroke-width:1.0;"/><text fill="#000000" font-family="sans-serif" font-size="14" lengthAdjust="spacing" textLength="207" x="380.5" y="514.042">equals(other: Todo): boolean</text></g><!--MD5=[cf45e8ad0333bb05467ac0b4d70787c5]
class TodoEntity--><g id="elem_TodoEntity"><rect codeLine="42" fill="#F1F1F1" height="162.0781" id="TodoEntity" rx="2.5" ry="2.5" style="stroke:#181818;stroke-width:0.5;" width="204" x="661" y="269.5"/><ellipse cx="718.75" cy="285.5" fill="#ADD1B2" rx="11" ry="11" style="stroke:#181818;stroke-width:1.0;"/><path d="M721.0938,281.1719 C720.1563,280.7344 719.5625,280.5938 718.6875,280.5938 C716.0625,280.5938 714.0625,282.6719 714.0625,285.3906 L714.0625,286.5156 C714.0625,289.0938 716.1719,290.9844 719.0625,290.9844 C720.2813,290.9844 721.4375,290.6875 722.1875,290.1406 C722.7656,289.7344 723.0938,289.2813 723.0938,288.8906 C723.0938,288.4375 722.7031,288.0469 722.2344,288.0469 C722.0156,288.0469 721.8125,288.125 721.625,288.3125 C721.1719,288.7969 721.1719,288.7969 720.9844,288.8906 C720.5625,289.1563 719.875,289.2813 719.1094,289.2813 C717.0625,289.2813 715.7656,288.1875 715.7656,286.4844 L715.7656,285.3906 C715.7656,283.6094 717.0156,282.2969 718.75,282.2969 C719.3281,282.2969 719.9375,282.4531 720.4063,282.7031 C720.8906,282.9844 721.0625,283.2031 721.1563,283.6094 C721.2188,284.0156 721.25,284.1406 721.3906,284.2656 C721.5313,284.4063 721.7656,284.5156 721.9844,284.5156 C722.25,284.5156 722.5156,284.375 722.6875,284.1563 C722.7969,284 722.8281,283.8125 722.8281,283.3906 L722.8281,281.9688 C722.8281,281.5313 722.8125,281.4063 722.7188,281.25 C722.5625,280.9844 722.2813,280.8438 721.9844,280.8438 C721.6875,280.8438 721.4844,280.9375 721.2656,281.25 L721.0938,281.1719 Z " fill="#000000"/><text fill="#000000" font-family="sans-serif" font-size="14" lengthAdjust="spacing" textLength="80" x="739.25" y="290.3467">TodoEntity</text><line style="stroke:#181818;stroke-width:0.5;" x1="662" x2="864" y1="301.5" y2="301.5"/><ellipse cx="672" cy="312.5" fill="none" rx="3" ry="3" style="stroke:#038048;stroke-width:1.0;"/><text fill="#000000" font-family="sans-serif" font-size="14" lengthAdjust="spacing" textLength="78" x="681" y="318.4951">id: number</text><ellipse cx="672" cy="328.7969" fill="none" rx="3" ry="3" style="stroke:#038048;stroke-width:1.0;"/><text fill="#000000" font-family="sans-serif" font-size="14" lengthAdjust="spacing" textLength="82" x="681" y="334.792">title: string</text><ellipse cx="672" cy="345.0938" fill="none" rx="3" ry="3" style="stroke:#038048;stroke-width:1.0;"/><text fill="#000000" font-family="sans-serif" font-size="14" lengthAdjust="spacing" textLength="146" x="681" y="351.0889">completed: boolean</text><ellipse cx="672" cy="361.3906" fill="none" rx="3" ry="3" style="stroke:#038048;stroke-width:1.0;"/><text fill="#000000" font-family="sans-serif" font-size="14" lengthAdjust="spacing" textLength="143" x="681" y="367.3857">dueDate: Date | null</text><ellipse cx="672" cy="377.6875" fill="none" rx="3" ry="3" style="stroke:#038048;stroke-width:1.0;"/><text fill="#000000" font-family="sans-serif" font-size="14" lengthAdjust="spacing" textLength="117" x="681" y="383.6826">createdAt: Date</text><ellipse cx="672" cy="393.9844" fill="none" rx="3" ry="3" style="stroke:#038048;stroke-width:1.0;"/><text fill="#000000" font-family="sans-serif" font-size="14" lengthAdjust="spacing" textLength="178" x="681" y="399.9795">completedAt: Date | null</text><ellipse cx="672" cy="410.2813" fill="none" rx="3" ry="3" style="stroke:#038048;stroke-width:1.0;"/><text fill="#000000" font-family="sans-serif" font-size="14" lengthAdjust="spacing" textLength="95" x="681" y="416.2764">status: string</text><line style="stroke:#181818;stroke-width:0.5;" x1="662" x2="864" y1="423.5781" y2="423.5781"/></g><!--MD5=[4c557e82ab1fd837e5a934d1e0e1cd2c]
class TodoRepository--><g id="elem_TodoRepository"><rect codeLine="51" fill="#F1F1F1" height="145.7813" id="TodoRepository" rx="2.5" ry="2.5" style="stroke:#181818;stroke-width:0.5;" width="406" x="7" y="581"/><ellipse cx="148.25" cy="597" fill="#ADD1B2" rx="11" ry="11" style="stroke:#181818;stroke-width:1.0;"/><path d="M150.5938,592.6719 C149.6563,592.2344 149.0625,592.0938 148.1875,592.0938 C145.5625,592.0938 143.5625,594.1719 143.5625,596.8906 L143.5625,598.0156 C143.5625,600.5938 145.6719,602.4844 148.5625,602.4844 C149.7813,602.4844 150.9375,602.1875 151.6875,601.6406 C152.2656,601.2344 152.5938,600.7813 152.5938,600.3906 C152.5938,599.9375 152.2031,599.5469 151.7344,599.5469 C151.5156,599.5469 151.3125,599.625 151.125,599.8125 C150.6719,600.2969 150.6719,600.2969 150.4844,600.3906 C150.0625,600.6563 149.375,600.7813 148.6094,600.7813 C146.5625,600.7813 145.2656,599.6875 145.2656,597.9844 L145.2656,596.8906 C145.2656,595.1094 146.5156,593.7969 148.25,593.7969 C148.8281,593.7969 149.4375,593.9531 149.9063,594.2031 C150.3906,594.4844 150.5625,594.7031 150.6563,595.1094 C150.7188,595.5156 150.75,595.6406 150.8906,595.7656 C151.0313,595.9063 151.2656,596.0156 151.4844,596.0156 C151.75,596.0156 152.0156,595.875 152.1875,595.6563 C152.2969,595.5 152.3281,595.3125 152.3281,594.8906 L152.3281,593.4688 C152.3281,593.0313 152.3125,592.9063 152.2188,592.75 C152.0625,592.4844 151.7813,592.3438 151.4844,592.3438 C151.1875,592.3438 150.9844,592.4375 150.7656,592.75 L150.5938,592.6719 Z " fill="#000000"/><text fill="#000000" font-family="sans-serif" font-size="14" lengthAdjust="spacing" textLength="115" x="168.75" y="601.8467">TodoRepository</text><line style="stroke:#181818;stroke-width:0.5;" x1="8" x2="412" y1="613" y2="613"/><rect fill="none" height="6" style="stroke:#C82930;stroke-width:1.0;" width="6" x="15" y="621"/><text fill="#000000" font-family="sans-serif" font-size="14" lengthAdjust="spacing" textLength="229" x="27" y="629.9951">repository: Repository&lt;Entity&gt;</text><line style="stroke:#181818;stroke-width:0.5;" x1="8" x2="412" y1="637.2969" y2="637.2969"/><ellipse cx="18" cy="648.2969" fill="#84BE84" rx="3" ry="3" style="stroke:#038048;stroke-width:1.0;"/><text fill="#000000" font-family="sans-serif" font-size="14" lengthAdjust="spacing" textLength="281" x="27" y="654.292">getTodos(): Promise&lt;DomainObject[]&gt;</text><ellipse cx="18" cy="664.5938" fill="#84BE84" rx="3" ry="3" style="stroke:#038048;stroke-width:1.0;"/><text fill="#000000" font-family="sans-serif" font-size="14" lengthAdjust="spacing" textLength="380" x="27" y="670.5889">getTodo(id: number): Promise&lt;DomainObject | null&gt;</text><ellipse cx="18" cy="680.8906" fill="#84BE84" rx="3" ry="3" style="stroke:#038048;stroke-width:1.0;"/><text fill="#000000" font-family="sans-serif" font-size="14" lengthAdjust="spacing" textLength="338" x="27" y="686.8857">addTodo(todo: DomainObject): Promise&lt;void&gt;</text><ellipse cx="18" cy="697.1875" fill="#84BE84" rx="3" ry="3" style="stroke:#038048;stroke-width:1.0;"/><text fill="#000000" font-family="sans-serif" font-size="14" lengthAdjust="spacing" textLength="359" x="27" y="703.1826">deleteTodo(todo: DomainObject): Promise&lt;void&gt;</text><ellipse cx="18" cy="713.4844" fill="#84BE84" rx="3" ry="3" style="stroke:#038048;stroke-width:1.0;"/><text fill="#000000" font-family="sans-serif" font-size="14" lengthAdjust="spacing" textLength="363" x="27" y="719.4795">updateTodo(todo: DomainObject): Promise&lt;void&gt;</text></g><!--MD5=[607c01281c15983c44675f9e6dea3db6]
class TodoService--><g id="elem_TodoService"><rect codeLine="59" fill="#F1F1F1" height="129.4844" id="TodoService" rx="2.5" ry="2.5" style="stroke:#181818;stroke-width:0.5;" width="320" x="448" y="589.5"/><ellipse cx="559.25" cy="605.5" fill="#ADD1B2" rx="11" ry="11" style="stroke:#181818;stroke-width:1.0;"/><path d="M561.5938,601.1719 C560.6563,600.7344 560.0625,600.5938 559.1875,600.5938 C556.5625,600.5938 554.5625,602.6719 554.5625,605.3906 L554.5625,606.5156 C554.5625,609.0938 556.6719,610.9844 559.5625,610.9844 C560.7813,610.9844 561.9375,610.6875 562.6875,610.1406 C563.2656,609.7344 563.5938,609.2813 563.5938,608.8906 C563.5938,608.4375 563.2031,608.0469 562.7344,608.0469 C562.5156,608.0469 562.3125,608.125 562.125,608.3125 C561.6719,608.7969 561.6719,608.7969 561.4844,608.8906 C561.0625,609.1563 560.375,609.2813 559.6094,609.2813 C557.5625,609.2813 556.2656,608.1875 556.2656,606.4844 L556.2656,605.3906 C556.2656,603.6094 557.5156,602.2969 559.25,602.2969 C559.8281,602.2969 560.4375,602.4531 560.9063,602.7031 C561.3906,602.9844 561.5625,603.2031 561.6563,603.6094 C561.7188,604.0156 561.75,604.1406 561.8906,604.2656 C562.0313,604.4063 562.2656,604.5156 562.4844,604.5156 C562.75,604.5156 563.0156,604.375 563.1875,604.1563 C563.2969,604 563.3281,603.8125 563.3281,603.3906 L563.3281,601.9688 C563.3281,601.5313 563.3125,601.4063 563.2188,601.25 C563.0625,600.9844 562.7813,600.8438 562.4844,600.8438 C562.1875,600.8438 561.9844,600.9375 561.7656,601.25 L561.5938,601.1719 Z " fill="#000000"/><text fill="#000000" font-family="sans-serif" font-size="14" lengthAdjust="spacing" textLength="89" x="579.75" y="610.3467">TodoService</text><line style="stroke:#181818;stroke-width:0.5;" x1="449" x2="767" y1="621.5" y2="621.5"/><rect fill="none" height="6" style="stroke:#C82930;stroke-width:1.0;" width="6" x="456" y="629.5"/><text fill="#000000" font-family="sans-serif" font-size="14" lengthAdjust="spacing" textLength="199" x="468" y="638.4951">repository: TodoRepository</text><line style="stroke:#181818;stroke-width:0.5;" x1="449" x2="767" y1="645.7969" y2="645.7969"/><ellipse cx="459" cy="656.7969" fill="#84BE84" rx="3" ry="3" style="stroke:#038048;stroke-width:1.0;"/><text fill="#000000" font-family="sans-serif" font-size="14" lengthAdjust="spacing" textLength="207" x="468" y="662.792">selectAll(): Promise&lt;Todo[]&gt;</text><ellipse cx="459" cy="673.0938" fill="#84BE84" rx="3" ry="3" style="stroke:#038048;stroke-width:1.0;"/><text fill="#000000" font-family="sans-serif" font-size="14" lengthAdjust="spacing" textLength="290" x="468" y="679.0889">create(params: Params): Promise&lt;void&gt;</text><ellipse cx="459" cy="689.3906" fill="#84BE84" rx="3" ry="3" style="stroke:#038048;stroke-width:1.0;"/><text fill="#000000" font-family="sans-serif" font-size="14" lengthAdjust="spacing" textLength="290" x="468" y="695.3857">delete(params: Params): Promise&lt;void&gt;</text><ellipse cx="459" cy="705.6875" fill="#84BE84" rx="3" ry="3" style="stroke:#038048;stroke-width:1.0;"/><text fill="#000000" font-family="sans-serif" font-size="14" lengthAdjust="spacing" textLength="294" x="468" y="711.6826">update(params: Params): Promise&lt;void&gt;</text></g><!--MD5=[d1dfb3c26d0395ff8ffc8b1f87057481]
@startuml
class CompletedAt {
    -value: Date | null
    +Value: Date | null
    +equals(completedAt: CompletedAt): boolean
}
class CreatedAt {
    -value: Date
    +Value: Date
    +equals(createdAt: CreatedAt): boolean
}
class DueDate {
    -value: Date | null
    +Value: Date | null
    +equals(dueDate: DueDate): boolean
    +overDue(): boolean
}
class Title {
    -value: string
    +Value: string
    +equals(other: Title): boolean
}
class Todo {
    -title: Title
    -completed: boolean
    -createdAt: CreatedAt
    -completedAt: CompletedAt
    -dueDate: DueDate
    -status: string
    -id: number | null
    +Title: string
    +Completed: boolean
    +CreatedAt: Date
    +CompletedAt: Date | null
    +DueDate: Date | null
    +Status: string
    +Id: number | null
    +complete(): void
    +overDue(): boolean
    +setDueDate(due: DueDate): Todo
    +equals(other: Todo): boolean
}
class TodoEntity {
    +id: number
    +title: string
    +completed: boolean
    +dueDate: Date | null
    +createdAt: Date
    +completedAt: Date | null
    +status: string
}
class TodoRepository {
    -repository: Repository<Entity>
    +getTodos(): Promise<DomainObject[]>
    +getTodo(id: number): Promise<DomainObject | null>
    +addTodo(todo: DomainObject): Promise<void>
    +deleteTodo(todo: DomainObject): Promise<void>
    +updateTodo(todo: DomainObject): Promise<void>
}
class TodoService {
    -repository: TodoRepository
    +selectAll(): Promise<Todo[]>
    +create(params: Params): Promise<void>
    +delete(params: Params): Promise<void>
    +update(params: Params): Promise<void>
}
@enduml

PlantUML version 1.2022.4beta2(Unknown compile time)
(GPL source distribution)
Java Runtime: Java(TM) SE Runtime Environment
JVM: Java HotSpot(TM) 64-Bit Server VM
Default Encoding: UTF-8
Language: en
Country: US
--></g></svg>