<?xml version="1.0" encoding="UTF-8" standalone="no"?><svg xmlns="http://www.w3.org/2000/svg" xmlns:xlink="http://www.w3.org/1999/xlink" contentStyleType="text/css" height="365px" preserveAspectRatio="none" style="width:2462px;height:365px;background:#FFFFFF;" version="1.1" viewBox="0 0 2462 365" width="2462px" zoomAndPan="magnify"><defs/><g><!--MD5=[d304ca89bdbd8073bbc1ba7ea9e70f7d]
class Todo--><g id="elem_Todo"><rect codeLine="45" fill="#F1F1F1" height="178.375" id="Todo" rx="2.5" ry="2.5" style="stroke:#181818;stroke-width:0.5;" width="204" x="567.5" y="180"/><ellipse cx="647.25" cy="196" fill="#ADD1B2" rx="11" ry="11" style="stroke:#181818;stroke-width:1.0;"/><path d="M649.5938,191.6719 C648.6563,191.2344 648.0625,191.0938 647.1875,191.0938 C644.5625,191.0938 642.5625,193.1719 642.5625,195.8906 L642.5625,197.0156 C642.5625,199.5938 644.6719,201.4844 647.5625,201.4844 C648.7813,201.4844 649.9375,201.1875 650.6875,200.6406 C651.2656,200.2344 651.5938,199.7813 651.5938,199.3906 C651.5938,198.9375 651.2031,198.5469 650.7344,198.5469 C650.5156,198.5469 650.3125,198.625 650.125,198.8125 C649.6719,199.2969 649.6719,199.2969 649.4844,199.3906 C649.0625,199.6563 648.375,199.7813 647.6094,199.7813 C645.5625,199.7813 644.2656,198.6875 644.2656,196.9844 L644.2656,195.8906 C644.2656,194.1094 645.5156,192.7969 647.25,192.7969 C647.8281,192.7969 648.4375,192.9531 648.9063,193.2031 C649.3906,193.4844 649.5625,193.7031 649.6563,194.1094 C649.7188,194.5156 649.75,194.6406 649.8906,194.7656 C650.0313,194.9063 650.2656,195.0156 650.4844,195.0156 C650.75,195.0156 651.0156,194.875 651.1875,194.6563 C651.2969,194.5 651.3281,194.3125 651.3281,193.8906 L651.3281,192.4688 C651.3281,192.0313 651.3125,191.9063 651.2188,191.75 C651.0625,191.4844 650.7813,191.3438 650.4844,191.3438 C650.1875,191.3438 649.9844,191.4375 649.7656,191.75 L649.5938,191.6719 Z " fill="#000000"/><text fill="#000000" font-family="sans-serif" font-size="14" lengthAdjust="spacing" textLength="36" x="667.75" y="200.8467">Todo</text><line style="stroke:#181818;stroke-width:0.5;" x1="568.5" x2="770.5" y1="212" y2="212"/><ellipse cx="578.5" cy="223" fill="none" rx="3" ry="3" style="stroke:#038048;stroke-width:1.0;"/><text fill="#000000" font-family="sans-serif" font-size="14" lengthAdjust="spacing" textLength="78" x="587.5" y="228.9951">id: number</text><ellipse cx="578.5" cy="239.2969" fill="none" rx="3" ry="3" style="stroke:#038048;stroke-width:1.0;"/><text fill="#000000" font-family="sans-serif" font-size="14" lengthAdjust="spacing" textLength="82" x="587.5" y="245.292">title: string</text><ellipse cx="578.5" cy="255.5938" fill="none" rx="3" ry="3" style="stroke:#038048;stroke-width:1.0;"/><text fill="#000000" font-family="sans-serif" font-size="14" lengthAdjust="spacing" textLength="146" x="587.5" y="261.5889">completed: boolean</text><ellipse cx="578.5" cy="271.8906" fill="none" rx="3" ry="3" style="stroke:#038048;stroke-width:1.0;"/><text fill="#000000" font-family="sans-serif" font-size="14" lengthAdjust="spacing" textLength="143" x="587.5" y="277.8857">dueDate: Date | null</text><ellipse cx="578.5" cy="288.1875" fill="none" rx="3" ry="3" style="stroke:#038048;stroke-width:1.0;"/><text fill="#000000" font-family="sans-serif" font-size="14" lengthAdjust="spacing" textLength="117" x="587.5" y="294.1826">createdAt: Date</text><ellipse cx="578.5" cy="304.4844" fill="none" rx="3" ry="3" style="stroke:#038048;stroke-width:1.0;"/><text fill="#000000" font-family="sans-serif" font-size="14" lengthAdjust="spacing" textLength="178" x="587.5" y="310.4795">completedAt: Date | null</text><ellipse cx="578.5" cy="320.7813" fill="none" rx="3" ry="3" style="stroke:#038048;stroke-width:1.0;"/><text fill="#000000" font-family="sans-serif" font-size="14" lengthAdjust="spacing" textLength="95" x="587.5" y="326.7764">status: string</text><line style="stroke:#181818;stroke-width:0.5;" x1="568.5" x2="770.5" y1="334.0781" y2="334.0781"/><ellipse cx="578.5" cy="345.0781" fill="#84BE84" rx="3" ry="3" style="stroke:#038048;stroke-width:1.0;"/><text fill="#000000" font-family="sans-serif" font-size="14" lengthAdjust="spacing" textLength="123" x="587.5" y="351.0732">greeting(): string</text></g><!--MD5=[7d75efcc7d06b347edea0516f6aac1d8]
class BaseEntity--><g id="elem_BaseEntity"><rect fill="#F1F1F1" height="48" id="BaseEntity" rx="2.5" ry="2.5" style="stroke:#181818;stroke-width:0.5;" width="110" x="614.5" y="39.5"/><ellipse cx="629.5" cy="55.5" fill="#ADD1B2" rx="11" ry="11" style="stroke:#181818;stroke-width:1.0;"/><path d="M631.8438,51.1719 C630.9063,50.7344 630.3125,50.5938 629.4375,50.5938 C626.8125,50.5938 624.8125,52.6719 624.8125,55.3906 L624.8125,56.5156 C624.8125,59.0938 626.9219,60.9844 629.8125,60.9844 C631.0313,60.9844 632.1875,60.6875 632.9375,60.1406 C633.5156,59.7344 633.8438,59.2813 633.8438,58.8906 C633.8438,58.4375 633.4531,58.0469 632.9844,58.0469 C632.7656,58.0469 632.5625,58.125 632.375,58.3125 C631.9219,58.7969 631.9219,58.7969 631.7344,58.8906 C631.3125,59.1563 630.625,59.2813 629.8594,59.2813 C627.8125,59.2813 626.5156,58.1875 626.5156,56.4844 L626.5156,55.3906 C626.5156,53.6094 627.7656,52.2969 629.5,52.2969 C630.0781,52.2969 630.6875,52.4531 631.1563,52.7031 C631.6406,52.9844 631.8125,53.2031 631.9063,53.6094 C631.9688,54.0156 632,54.1406 632.1406,54.2656 C632.2813,54.4063 632.5156,54.5156 632.7344,54.5156 C633,54.5156 633.2656,54.375 633.4375,54.1563 C633.5469,54 633.5781,53.8125 633.5781,53.3906 L633.5781,51.9688 C633.5781,51.5313 633.5625,51.4063 633.4688,51.25 C633.3125,50.9844 633.0313,50.8438 632.7344,50.8438 C632.4375,50.8438 632.2344,50.9375 632.0156,51.25 L631.8438,51.1719 Z " fill="#000000"/><text fill="#000000" font-family="sans-serif" font-size="14" lengthAdjust="spacing" textLength="78" x="643.5" y="60.3467">BaseEntity</text><line style="stroke:#181818;stroke-width:0.5;" x1="615.5" x2="723.5" y1="71.5" y2="71.5"/><line style="stroke:#181818;stroke-width:0.5;" x1="615.5" x2="723.5" y1="79.5" y2="79.5"/></g><!--MD5=[f3a432345cbe8f2bb5c17570319e88a3]
class CreateCommand--><g id="elem_CreateCommand"><rect codeLine="10" fill="#F1F1F1" height="80.5938" id="CreateCommand" rx="2.5" ry="2.5" style="stroke:#181818;stroke-width:0.5;" width="386" x="806.5" y="228.5"/><ellipse cx="934.25" cy="244.5" fill="#ADD1B2" rx="11" ry="11" style="stroke:#181818;stroke-width:1.0;"/><path d="M936.5938,240.1719 C935.6563,239.7344 935.0625,239.5938 934.1875,239.5938 C931.5625,239.5938 929.5625,241.6719 929.5625,244.3906 L929.5625,245.5156 C929.5625,248.0938 931.6719,249.9844 934.5625,249.9844 C935.7813,249.9844 936.9375,249.6875 937.6875,249.1406 C938.2656,248.7344 938.5938,248.2813 938.5938,247.8906 C938.5938,247.4375 938.2031,247.0469 937.7344,247.0469 C937.5156,247.0469 937.3125,247.125 937.125,247.3125 C936.6719,247.7969 936.6719,247.7969 936.4844,247.8906 C936.0625,248.1563 935.375,248.2813 934.6094,248.2813 C932.5625,248.2813 931.2656,247.1875 931.2656,245.4844 L931.2656,244.3906 C931.2656,242.6094 932.5156,241.2969 934.25,241.2969 C934.8281,241.2969 935.4375,241.4531 935.9063,241.7031 C936.3906,241.9844 936.5625,242.2031 936.6563,242.6094 C936.7188,243.0156 936.75,243.1406 936.8906,243.2656 C937.0313,243.4063 937.2656,243.5156 937.4844,243.5156 C937.75,243.5156 938.0156,243.375 938.1875,243.1563 C938.2969,243 938.3281,242.8125 938.3281,242.3906 L938.3281,240.9688 C938.3281,240.5313 938.3125,240.4063 938.2188,240.25 C938.0625,239.9844 937.7813,239.8438 937.4844,239.8438 C937.1875,239.8438 936.9844,239.9375 936.7656,240.25 L936.5938,240.1719 Z " fill="#000000"/><text fill="#000000" font-family="sans-serif" font-size="14" lengthAdjust="spacing" textLength="122" x="954.75" y="249.3467">CreateCommand</text><line style="stroke:#181818;stroke-width:0.5;" x1="807.5" x2="1191.5" y1="260.5" y2="260.5"/><rect fill="none" height="6" style="stroke:#C82930;stroke-width:1.0;" width="6" x="814.5" y="268.5"/><text fill="#000000" font-family="sans-serif" font-size="14" lengthAdjust="spacing" textLength="79" x="826.5" y="277.4951">type: Type</text><line style="stroke:#181818;stroke-width:0.5;" x1="807.5" x2="1191.5" y1="284.7969" y2="284.7969"/><ellipse cx="817.5" cy="295.7969" fill="#84BE84" rx="3" ry="3" style="stroke:#038048;stroke-width:1.0;"/><text fill="#000000" font-family="sans-serif" font-size="14" lengthAdjust="spacing" textLength="360" x="826.5" y="301.792">execute(params: Params): Promise&lt;void | Todo[]&gt;</text></g><!--MD5=[521817ab83e81da341a3f4b5e91bae41]
class Command--><g id="elem_Command"><rect codeLine="36" fill="#F1F1F1" height="64.2969" id="Command" rx="2.5" ry="2.5" style="stroke:#181818;stroke-width:0.5;" width="386" x="1437.5" y="31.5"/><ellipse cx="1589.25" cy="47.5" fill="#B4A7E5" rx="11" ry="11" style="stroke:#181818;stroke-width:1.0;"/><path d="M1590.2031,44.2813 L1591.9219,44.2813 C1592.3125,44.2813 1592.5,44.25 1592.625,44.1719 C1592.8906,44.0156 1593.0313,43.7344 1593.0313,43.4375 C1593.0313,43.1719 1592.9219,42.9063 1592.6875,42.7344 C1592.5156,42.625 1592.375,42.5938 1591.9219,42.5938 L1586.7813,42.5938 C1586.3438,42.5938 1586.2188,42.6094 1586.0625,42.7031 C1585.8125,42.8594 1585.6563,43.1563 1585.6563,43.4375 C1585.6563,43.7188 1585.7969,43.9688 1586.0156,44.1406 C1586.1719,44.25 1586.3594,44.2813 1586.7813,44.2813 L1588.5,44.2813 L1588.5,50.7969 L1586.7813,50.7969 C1586.3438,50.7969 1586.2188,50.8125 1586.0625,50.9219 C1585.8125,51.0781 1585.6563,51.3594 1585.6563,51.6563 C1585.6563,51.9063 1585.7969,52.1719 1586.0156,52.3281 C1586.1719,52.4531 1586.375,52.5 1586.7813,52.5 L1591.9219,52.5 C1592.6719,52.5 1593.0313,52.2188 1593.0313,51.6563 C1593.0313,51.375 1592.9219,51.125 1592.6875,50.9531 C1592.5156,50.8281 1592.375,50.7969 1591.9219,50.7969 L1590.2031,50.7969 L1590.2031,44.2813 Z " fill="#000000"/><text fill="#000000" font-family="sans-serif" font-size="14" font-style="italic" lengthAdjust="spacing" textLength="74" x="1609.75" y="52.3467">Command</text><line style="stroke:#181818;stroke-width:0.5;" x1="1438.5" x2="1822.5" y1="63.5" y2="63.5"/><line style="stroke:#181818;stroke-width:0.5;" x1="1438.5" x2="1822.5" y1="71.5" y2="71.5"/><ellipse cx="1448.5" cy="82.5" fill="#84BE84" rx="3" ry="3" style="stroke:#038048;stroke-width:1.0;"/><text fill="#000000" font-family="sans-serif" font-size="14" lengthAdjust="spacing" textLength="360" x="1457.5" y="88.4951">execute(params: Params): Promise&lt;void | Todo[]&gt;</text></g><!--MD5=[522bcce41d81f20cd1f9638a73c3e08a]
class DeleteCommand--><g id="elem_DeleteCommand"><rect codeLine="14" fill="#F1F1F1" height="80.5938" id="DeleteCommand" rx="2.5" ry="2.5" style="stroke:#181818;stroke-width:0.5;" width="386" x="1227.5" y="228.5"/><ellipse cx="1355.25" cy="244.5" fill="#ADD1B2" rx="11" ry="11" style="stroke:#181818;stroke-width:1.0;"/><path d="M1357.5938,240.1719 C1356.6563,239.7344 1356.0625,239.5938 1355.1875,239.5938 C1352.5625,239.5938 1350.5625,241.6719 1350.5625,244.3906 L1350.5625,245.5156 C1350.5625,248.0938 1352.6719,249.9844 1355.5625,249.9844 C1356.7813,249.9844 1357.9375,249.6875 1358.6875,249.1406 C1359.2656,248.7344 1359.5938,248.2813 1359.5938,247.8906 C1359.5938,247.4375 1359.2031,247.0469 1358.7344,247.0469 C1358.5156,247.0469 1358.3125,247.125 1358.125,247.3125 C1357.6719,247.7969 1357.6719,247.7969 1357.4844,247.8906 C1357.0625,248.1563 1356.375,248.2813 1355.6094,248.2813 C1353.5625,248.2813 1352.2656,247.1875 1352.2656,245.4844 L1352.2656,244.3906 C1352.2656,242.6094 1353.5156,241.2969 1355.25,241.2969 C1355.8281,241.2969 1356.4375,241.4531 1356.9063,241.7031 C1357.3906,241.9844 1357.5625,242.2031 1357.6563,242.6094 C1357.7188,243.0156 1357.75,243.1406 1357.8906,243.2656 C1358.0313,243.4063 1358.2656,243.5156 1358.4844,243.5156 C1358.75,243.5156 1359.0156,243.375 1359.1875,243.1563 C1359.2969,243 1359.3281,242.8125 1359.3281,242.3906 L1359.3281,240.9688 C1359.3281,240.5313 1359.3125,240.4063 1359.2188,240.25 C1359.0625,239.9844 1358.7813,239.8438 1358.4844,239.8438 C1358.1875,239.8438 1357.9844,239.9375 1357.7656,240.25 L1357.5938,240.1719 Z " fill="#000000"/><text fill="#000000" font-family="sans-serif" font-size="14" lengthAdjust="spacing" textLength="122" x="1375.75" y="249.3467">DeleteCommand</text><line style="stroke:#181818;stroke-width:0.5;" x1="1228.5" x2="1612.5" y1="260.5" y2="260.5"/><rect fill="none" height="6" style="stroke:#C82930;stroke-width:1.0;" width="6" x="1235.5" y="268.5"/><text fill="#000000" font-family="sans-serif" font-size="14" lengthAdjust="spacing" textLength="79" x="1247.5" y="277.4951">type: Type</text><line style="stroke:#181818;stroke-width:0.5;" x1="1228.5" x2="1612.5" y1="284.7969" y2="284.7969"/><ellipse cx="1238.5" cy="295.7969" fill="#84BE84" rx="3" ry="3" style="stroke:#038048;stroke-width:1.0;"/><text fill="#000000" font-family="sans-serif" font-size="14" lengthAdjust="spacing" textLength="360" x="1247.5" y="301.792">execute(params: Params): Promise&lt;void | Todo[]&gt;</text></g><!--MD5=[860a12987066b8aebfd02ff37a4e9912]
class ReadCommand--><g id="elem_ReadCommand"><rect codeLine="18" fill="#F1F1F1" height="80.5938" id="ReadCommand" rx="2.5" ry="2.5" style="stroke:#181818;stroke-width:0.5;" width="386" x="1648.5" y="228.5"/><ellipse cx="1782.75" cy="244.5" fill="#ADD1B2" rx="11" ry="11" style="stroke:#181818;stroke-width:1.0;"/><path d="M1785.0938,240.1719 C1784.1563,239.7344 1783.5625,239.5938 1782.6875,239.5938 C1780.0625,239.5938 1778.0625,241.6719 1778.0625,244.3906 L1778.0625,245.5156 C1778.0625,248.0938 1780.1719,249.9844 1783.0625,249.9844 C1784.2813,249.9844 1785.4375,249.6875 1786.1875,249.1406 C1786.7656,248.7344 1787.0938,248.2813 1787.0938,247.8906 C1787.0938,247.4375 1786.7031,247.0469 1786.2344,247.0469 C1786.0156,247.0469 1785.8125,247.125 1785.625,247.3125 C1785.1719,247.7969 1785.1719,247.7969 1784.9844,247.8906 C1784.5625,248.1563 1783.875,248.2813 1783.1094,248.2813 C1781.0625,248.2813 1779.7656,247.1875 1779.7656,245.4844 L1779.7656,244.3906 C1779.7656,242.6094 1781.0156,241.2969 1782.75,241.2969 C1783.3281,241.2969 1783.9375,241.4531 1784.4063,241.7031 C1784.8906,241.9844 1785.0625,242.2031 1785.1563,242.6094 C1785.2188,243.0156 1785.25,243.1406 1785.3906,243.2656 C1785.5313,243.4063 1785.7656,243.5156 1785.9844,243.5156 C1786.25,243.5156 1786.5156,243.375 1786.6875,243.1563 C1786.7969,243 1786.8281,242.8125 1786.8281,242.3906 L1786.8281,240.9688 C1786.8281,240.5313 1786.8125,240.4063 1786.7188,240.25 C1786.5625,239.9844 1786.2813,239.8438 1785.9844,239.8438 C1785.6875,239.8438 1785.4844,239.9375 1785.2656,240.25 L1785.0938,240.1719 Z " fill="#000000"/><text fill="#000000" font-family="sans-serif" font-size="14" lengthAdjust="spacing" textLength="109" x="1803.25" y="249.3467">ReadCommand</text><line style="stroke:#181818;stroke-width:0.5;" x1="1649.5" x2="2033.5" y1="260.5" y2="260.5"/><rect fill="none" height="6" style="stroke:#C82930;stroke-width:1.0;" width="6" x="1656.5" y="268.5"/><text fill="#000000" font-family="sans-serif" font-size="14" lengthAdjust="spacing" textLength="79" x="1668.5" y="277.4951">type: Type</text><line style="stroke:#181818;stroke-width:0.5;" x1="1649.5" x2="2033.5" y1="284.7969" y2="284.7969"/><ellipse cx="1659.5" cy="295.7969" fill="#84BE84" rx="3" ry="3" style="stroke:#038048;stroke-width:1.0;"/><text fill="#000000" font-family="sans-serif" font-size="14" lengthAdjust="spacing" textLength="360" x="1668.5" y="301.792">execute(params: Params): Promise&lt;void | Todo[]&gt;</text></g><!--MD5=[63bad1f31134c1e488d3f6c2fa12da5b]
class UpdateCommand--><g id="elem_UpdateCommand"><rect codeLine="22" fill="#F1F1F1" height="80.5938" id="UpdateCommand" rx="2.5" ry="2.5" style="stroke:#181818;stroke-width:0.5;" width="386" x="2069.5" y="228.5"/><ellipse cx="2195.75" cy="244.5" fill="#ADD1B2" rx="11" ry="11" style="stroke:#181818;stroke-width:1.0;"/><path d="M2198.0938,240.1719 C2197.1563,239.7344 2196.5625,239.5938 2195.6875,239.5938 C2193.0625,239.5938 2191.0625,241.6719 2191.0625,244.3906 L2191.0625,245.5156 C2191.0625,248.0938 2193.1719,249.9844 2196.0625,249.9844 C2197.2813,249.9844 2198.4375,249.6875 2199.1875,249.1406 C2199.7656,248.7344 2200.0938,248.2813 2200.0938,247.8906 C2200.0938,247.4375 2199.7031,247.0469 2199.2344,247.0469 C2199.0156,247.0469 2198.8125,247.125 2198.625,247.3125 C2198.1719,247.7969 2198.1719,247.7969 2197.9844,247.8906 C2197.5625,248.1563 2196.875,248.2813 2196.1094,248.2813 C2194.0625,248.2813 2192.7656,247.1875 2192.7656,245.4844 L2192.7656,244.3906 C2192.7656,242.6094 2194.0156,241.2969 2195.75,241.2969 C2196.3281,241.2969 2196.9375,241.4531 2197.4063,241.7031 C2197.8906,241.9844 2198.0625,242.2031 2198.1563,242.6094 C2198.2188,243.0156 2198.25,243.1406 2198.3906,243.2656 C2198.5313,243.4063 2198.7656,243.5156 2198.9844,243.5156 C2199.25,243.5156 2199.5156,243.375 2199.6875,243.1563 C2199.7969,243 2199.8281,242.8125 2199.8281,242.3906 L2199.8281,240.9688 C2199.8281,240.5313 2199.8125,240.4063 2199.7188,240.25 C2199.5625,239.9844 2199.2813,239.8438 2198.9844,239.8438 C2198.6875,239.8438 2198.4844,239.9375 2198.2656,240.25 L2198.0938,240.1719 Z " fill="#000000"/><text fill="#000000" font-family="sans-serif" font-size="14" lengthAdjust="spacing" textLength="125" x="2216.25" y="249.3467">UpdateCommand</text><line style="stroke:#181818;stroke-width:0.5;" x1="2070.5" x2="2454.5" y1="260.5" y2="260.5"/><rect fill="none" height="6" style="stroke:#C82930;stroke-width:1.0;" width="6" x="2077.5" y="268.5"/><text fill="#000000" font-family="sans-serif" font-size="14" lengthAdjust="spacing" textLength="79" x="2089.5" y="277.4951">type: Type</text><line style="stroke:#181818;stroke-width:0.5;" x1="2070.5" x2="2454.5" y1="284.7969" y2="284.7969"/><ellipse cx="2080.5" cy="295.7969" fill="#84BE84" rx="3" ry="3" style="stroke:#038048;stroke-width:1.0;"/><text fill="#000000" font-family="sans-serif" font-size="14" lengthAdjust="spacing" textLength="360" x="2089.5" y="301.792">execute(params: Params): Promise&lt;void | Todo[]&gt;</text></g><!--MD5=[4296a1ab0576a383a1a509d52c22ebf0]
class Type--><g id="elem_Type"><rect codeLine="26" fill="#F1F1F1" height="113.1875" id="Type" rx="2.5" ry="2.5" style="stroke:#181818;stroke-width:0.5;" width="69" x="89" y="7"/><ellipse cx="104.45" cy="23" fill="#EB937F" rx="11" ry="11" style="stroke:#181818;stroke-width:1.0;"/><path d="M103.2469,23.875 L104.7,23.875 L104.7,23.9844 C104.7,24.3906 104.7313,24.5469 104.8094,24.7031 C104.9656,24.9531 105.2469,25.1094 105.5438,25.1094 C105.7938,25.1094 106.0594,24.9688 106.2156,24.75 C106.3406,24.5938 106.3719,24.4375 106.3719,23.9844 L106.3719,22.0625 C106.3719,21.9063 106.3719,21.8594 106.3563,21.7031 C106.2938,21.2344 105.9813,20.9219 105.5281,20.9219 C105.2781,20.9219 105.0125,21.0625 104.8406,21.2813 C104.7313,21.4531 104.7,21.6094 104.7,22.0625 L104.7,22.1875 L103.2469,22.1875 L103.2469,19.7813 L107.2313,19.7813 L107.2313,20.6406 C107.2313,21.0469 107.2625,21.2188 107.3406,21.375 C107.5125,21.625 107.7938,21.7813 108.075,21.7813 C108.3406,21.7813 108.6063,21.6406 108.7781,21.4219 C108.8875,21.25 108.9188,21.1094 108.9188,20.6406 L108.9188,18.0938 L101.2938,18.0938 C100.8563,18.0938 100.7313,18.1094 100.575,18.2031 C100.325,18.3594 100.1688,18.6563 100.1688,18.9375 C100.1688,19.2188 100.3094,19.4688 100.5281,19.6406 C100.6844,19.75 100.8719,19.7813 101.2938,19.7813 L101.5438,19.7813 L101.5438,26.2969 L101.2938,26.2969 C100.8875,26.2969 100.7313,26.3125 100.575,26.4219 C100.325,26.5938 100.1688,26.8594 100.1688,27.1563 C100.1688,27.4219 100.3094,27.6719 100.5281,27.8281 C100.6688,27.9531 100.9031,28 101.2938,28 L109.2938,28 L109.2938,25.4219 C109.2938,24.9844 109.2625,24.8438 109.1844,24.6875 C109.0125,24.4375 108.7313,24.2813 108.45,24.2813 C108.1844,24.2813 107.9188,24.3906 107.7469,24.6406 C107.6375,24.7969 107.6063,24.9375 107.6063,25.4219 L107.6063,26.2969 L103.2469,26.2969 L103.2469,23.875 Z " fill="#000000"/><text fill="#000000" font-family="sans-serif" font-size="14" lengthAdjust="spacing" textLength="36" x="118.55" y="27.8467">Type</text><line style="stroke:#181818;stroke-width:0.5;" x1="90" x2="157" y1="39" y2="39"/><text fill="#000000" font-family="sans-serif" font-size="14" lengthAdjust="spacing" textLength="57" x="95" y="55.9951">CREATE</text><text fill="#000000" font-family="sans-serif" font-size="14" lengthAdjust="spacing" textLength="40" x="95" y="72.292">READ</text><text fill="#000000" font-family="sans-serif" font-size="14" lengthAdjust="spacing" textLength="57" x="95" y="88.5889">UPDATE</text><text fill="#000000" font-family="sans-serif" font-size="14" lengthAdjust="spacing" textLength="55" x="95" y="104.8857">DELETE</text><line style="stroke:#181818;stroke-width:0.5;" x1="90" x2="157" y1="112.1875" y2="112.1875"/></g><!--MD5=[607c01281c15983c44675f9e6dea3db6]
class TodoService--><g id="elem_TodoService"><rect codeLine="32" fill="#F1F1F1" height="80.5938" id="TodoService" rx="2.5" ry="2.5" style="stroke:#181818;stroke-width:0.5;" width="386" x="193.5" y="23"/><ellipse cx="337.75" cy="39" fill="#ADD1B2" rx="11" ry="11" style="stroke:#181818;stroke-width:1.0;"/><path d="M340.0938,34.6719 C339.1563,34.2344 338.5625,34.0938 337.6875,34.0938 C335.0625,34.0938 333.0625,36.1719 333.0625,38.8906 L333.0625,40.0156 C333.0625,42.5938 335.1719,44.4844 338.0625,44.4844 C339.2813,44.4844 340.4375,44.1875 341.1875,43.6406 C341.7656,43.2344 342.0938,42.7813 342.0938,42.3906 C342.0938,41.9375 341.7031,41.5469 341.2344,41.5469 C341.0156,41.5469 340.8125,41.625 340.625,41.8125 C340.1719,42.2969 340.1719,42.2969 339.9844,42.3906 C339.5625,42.6563 338.875,42.7813 338.1094,42.7813 C336.0625,42.7813 334.7656,41.6875 334.7656,39.9844 L334.7656,38.8906 C334.7656,37.1094 336.0156,35.7969 337.75,35.7969 C338.3281,35.7969 338.9375,35.9531 339.4063,36.2031 C339.8906,36.4844 340.0625,36.7031 340.1563,37.1094 C340.2188,37.5156 340.25,37.6406 340.3906,37.7656 C340.5313,37.9063 340.7656,38.0156 340.9844,38.0156 C341.25,38.0156 341.5156,37.875 341.6875,37.6563 C341.7969,37.5 341.8281,37.3125 341.8281,36.8906 L341.8281,35.4688 C341.8281,35.0313 341.8125,34.9063 341.7188,34.75 C341.5625,34.4844 341.2813,34.3438 340.9844,34.3438 C340.6875,34.3438 340.4844,34.4375 340.2656,34.75 L340.0938,34.6719 Z " fill="#000000"/><text fill="#000000" font-family="sans-serif" font-size="14" lengthAdjust="spacing" textLength="89" x="358.25" y="43.8467">TodoService</text><line style="stroke:#181818;stroke-width:0.5;" x1="194.5" x2="578.5" y1="55" y2="55"/><rect fill="none" height="6" style="stroke:#C82930;stroke-width:1.0;" width="6" x="201.5" y="63"/><text fill="#000000" font-family="sans-serif" font-size="14" lengthAdjust="spacing" textLength="153" x="213.5" y="71.9951">command: Command</text><line style="stroke:#181818;stroke-width:0.5;" x1="194.5" x2="578.5" y1="79.2969" y2="79.2969"/><ellipse cx="204.5" cy="90.2969" fill="#84BE84" rx="3" ry="3" style="stroke:#038048;stroke-width:1.0;"/><text fill="#000000" font-family="sans-serif" font-size="14" lengthAdjust="spacing" textLength="360" x="213.5" y="96.292">execute(params: Params): Promise&lt;void | Todo[]&gt;</text></g><!--MD5=[3fd616f346a44cd59a91eb10b19e157c]
class User--><g id="elem_User"><rect codeLine="39" fill="#F1F1F1" height="113.1875" id="User" rx="2.5" ry="2.5" style="stroke:#181818;stroke-width:0.5;" width="233" x="7" y="212.5"/><ellipse cx="103.75" cy="228.5" fill="#ADD1B2" rx="11" ry="11" style="stroke:#181818;stroke-width:1.0;"/><path d="M106.0938,224.1719 C105.1563,223.7344 104.5625,223.5938 103.6875,223.5938 C101.0625,223.5938 99.0625,225.6719 99.0625,228.3906 L99.0625,229.5156 C99.0625,232.0938 101.1719,233.9844 104.0625,233.9844 C105.2813,233.9844 106.4375,233.6875 107.1875,233.1406 C107.7656,232.7344 108.0938,232.2813 108.0938,231.8906 C108.0938,231.4375 107.7031,231.0469 107.2344,231.0469 C107.0156,231.0469 106.8125,231.125 106.625,231.3125 C106.1719,231.7969 106.1719,231.7969 105.9844,231.8906 C105.5625,232.1563 104.875,232.2813 104.1094,232.2813 C102.0625,232.2813 100.7656,231.1875 100.7656,229.4844 L100.7656,228.3906 C100.7656,226.6094 102.0156,225.2969 103.75,225.2969 C104.3281,225.2969 104.9375,225.4531 105.4063,225.7031 C105.8906,225.9844 106.0625,226.2031 106.1563,226.6094 C106.2188,227.0156 106.25,227.1406 106.3906,227.2656 C106.5313,227.4063 106.7656,227.5156 106.9844,227.5156 C107.25,227.5156 107.5156,227.375 107.6875,227.1563 C107.7969,227 107.8281,226.8125 107.8281,226.3906 L107.8281,224.9688 C107.8281,224.5313 107.8125,224.4063 107.7188,224.25 C107.5625,223.9844 107.2813,223.8438 106.9844,223.8438 C106.6875,223.8438 106.4844,223.9375 106.2656,224.25 L106.0938,224.1719 Z " fill="#000000"/><text fill="#000000" font-family="sans-serif" font-size="14" lengthAdjust="spacing" textLength="31" x="124.25" y="233.3467">User</text><line style="stroke:#181818;stroke-width:0.5;" x1="8" x2="239" y1="244.5" y2="244.5"/><ellipse cx="18" cy="255.5" fill="none" rx="3" ry="3" style="stroke:#038048;stroke-width:1.0;"/><text fill="#000000" font-family="sans-serif" font-size="14" lengthAdjust="spacing" textLength="163" x="27" y="261.4951">id: number | undefined</text><ellipse cx="18" cy="271.7969" fill="none" rx="3" ry="3" style="stroke:#038048;stroke-width:1.0;"/><text fill="#000000" font-family="sans-serif" font-size="14" lengthAdjust="spacing" textLength="207" x="27" y="277.792">firstName: string | undefined</text><ellipse cx="18" cy="288.0938" fill="none" rx="3" ry="3" style="stroke:#038048;stroke-width:1.0;"/><text fill="#000000" font-family="sans-serif" font-size="14" lengthAdjust="spacing" textLength="203" x="27" y="294.0889">lastName: string | undefined</text><ellipse cx="18" cy="304.3906" fill="none" rx="3" ry="3" style="stroke:#038048;stroke-width:1.0;"/><text fill="#000000" font-family="sans-serif" font-size="14" lengthAdjust="spacing" textLength="176" x="27" y="310.3857">age: number | undefined</text><line style="stroke:#181818;stroke-width:0.5;" x1="8" x2="239" y1="317.6875" y2="317.6875"/></g><!--MD5=[94ae539cce1b455668c4d34eee34237f]
reverse link BaseEntity to Todo--><g id="link_BaseEntity_Todo"><path d="M669.5,107.959 C669.5,128.887 669.5,154.778 669.5,179.593 " fill="none" id="BaseEntity-backto-Todo" style="stroke:#181818;stroke-width:1.0;"/><polygon fill="none" points="662.5,107.844,669.5,87.844,676.5,107.844,662.5,107.844" style="stroke:#181818;stroke-width:1.0;"/></g><!--MD5=[5c22d4112ec790d971d722e67981092f]
reverse link Command to CreateCommand--><g id="link_Command_CreateCommand"><path d="M1481.04,100.492 C1399.93,121.275 1298.36,149.337 1209.5,180 C1168.58,194.12 1124.25,212.261 1086.91,228.4 " fill="none" id="Command-backto-CreateCommand" style="stroke:#181818;stroke-width:1.0;stroke-dasharray:7.0,7.0;"/><polygon fill="none" points="1479.56,93.645,1500.67,95.502,1483.01,107.214,1479.56,93.645" style="stroke:#181818;stroke-width:1.0;"/></g><!--MD5=[f1beb5af875fdb2722f3c2f77ee742d1]
reverse link Command to DeleteCommand--><g id="link_Command_DeleteCommand"><path d="M1583.38,110.161 C1546.78,145.633 1496.52,194.331 1461.55,228.219 " fill="none" id="Command-backto-DeleteCommand" style="stroke:#181818;stroke-width:1.0;stroke-dasharray:7.0,7.0;"/><polygon fill="none" points="1578.91,104.742,1598.15,95.851,1588.66,114.796,1578.91,104.742" style="stroke:#181818;stroke-width:1.0;"/></g><!--MD5=[292f12d158eff402f9cf0abd0b32d86b]
reverse link Command to ReadCommand--><g id="link_Command_ReadCommand"><path d="M1677.84,110.161 C1714.62,145.633 1765.12,194.331 1800.25,228.219 " fill="none" id="Command-backto-ReadCommand" style="stroke:#181818;stroke-width:1.0;stroke-dasharray:7.0,7.0;"/><polygon fill="none" points="1672.54,114.773,1663.01,95.851,1682.26,104.696,1672.54,114.773" style="stroke:#181818;stroke-width:1.0;"/></g><!--MD5=[ad951ebeb6dd4d69fa81eea7b336f465]
reverse link Command to UpdateCommand--><g id="link_Command_UpdateCommand"><path d="M1780.51,100.509 C1861.79,121.279 1963.51,149.321 2052.5,180 C2093.52,194.14 2137.96,212.33 2175.35,228.498 " fill="none" id="Command-backto-UpdateCommand" style="stroke:#181818;stroke-width:1.0;stroke-dasharray:7.0,7.0;"/><polygon fill="none" points="1778.78,107.291,1761.11,95.59,1782.22,93.72,1778.78,107.291" style="stroke:#181818;stroke-width:1.0;"/></g><!--MD5=[683e6477332ebf6391d3b84194397f6d]
@startuml
class Todo extends BaseEntity {
    +id: number
    +title: string
    +completed: boolean
    +dueDate: Date | null
    +createdAt: Date
    +completedAt: Date | null
    +status: string
}
class CreateCommand implements Command {
    -type: Type
    +execute(params: Params): Promise<void | Todo[]>
}
class DeleteCommand implements Command {
    -type: Type
    +execute(params: Params): Promise<void | Todo[]>
}
class ReadCommand implements Command {
    -type: Type
    +execute(params: Params): Promise<void | Todo[]>
}
class UpdateCommand implements Command {
    -type: Type
    +execute(params: Params): Promise<void | Todo[]>
}
enum Type {
    CREATE
    READ
    UPDATE
    DELETE
}
class TodoService {
    -command: Command
    +execute(params: Params): Promise<void | Todo[]>
}
interface Command {
    +execute(params: Params): Promise<void | Todo[]>
}
class User {
    +id: number | undefined
    +firstName: string | undefined
    +lastName: string | undefined
    +age: number | undefined
}
class Todo {
    +greeting(): string
}
@enduml

PlantUML version 1.2022.4beta2(Unknown compile time)
(GPL source distribution)
Java Runtime: Java(TM) SE Runtime Environment
JVM: Java HotSpot(TM) 64-Bit Server VM
Default Encoding: UTF-8
Language: en
Country: US
--></g></svg>