<?xml version="1.0" encoding="UTF-8" standalone="no"?><svg xmlns="http://www.w3.org/2000/svg" xmlns:xlink="http://www.w3.org/1999/xlink" contentStyleType="text/css" height="848px" preserveAspectRatio="none" style="width:3005px;height:848px;background:#FFFFFF;" version="1.1" viewBox="0 0 3005 848" width="3005px" zoomAndPan="magnify"><defs/><g><!--MD5=[d304ca89bdbd8073bbc1ba7ea9e70f7d]
class Todo--><g id="elem_Todo"><rect codeLine="69" fill="#F1F1F1" height="422.8281" id="Todo" rx="2.5" ry="2.5" style="stroke:#181818;stroke-width:0.5;" width="265" x="1049" y="229"/><ellipse cx="1159.25" cy="245" fill="#ADD1B2" rx="11" ry="11" style="stroke:#181818;stroke-width:1.0;"/><path d="M1161.5938,240.6719 C1160.6563,240.2344 1160.0625,240.0938 1159.1875,240.0938 C1156.5625,240.0938 1154.5625,242.1719 1154.5625,244.8906 L1154.5625,246.0156 C1154.5625,248.5938 1156.6719,250.4844 1159.5625,250.4844 C1160.7813,250.4844 1161.9375,250.1875 1162.6875,249.6406 C1163.2656,249.2344 1163.5938,248.7813 1163.5938,248.3906 C1163.5938,247.9375 1163.2031,247.5469 1162.7344,247.5469 C1162.5156,247.5469 1162.3125,247.625 1162.125,247.8125 C1161.6719,248.2969 1161.6719,248.2969 1161.4844,248.3906 C1161.0625,248.6563 1160.375,248.7813 1159.6094,248.7813 C1157.5625,248.7813 1156.2656,247.6875 1156.2656,245.9844 L1156.2656,244.8906 C1156.2656,243.1094 1157.5156,241.7969 1159.25,241.7969 C1159.8281,241.7969 1160.4375,241.9531 1160.9063,242.2031 C1161.3906,242.4844 1161.5625,242.7031 1161.6563,243.1094 C1161.7188,243.5156 1161.75,243.6406 1161.8906,243.7656 C1162.0313,243.9063 1162.2656,244.0156 1162.4844,244.0156 C1162.75,244.0156 1163.0156,243.875 1163.1875,243.6563 C1163.2969,243.5 1163.3281,243.3125 1163.3281,242.8906 L1163.3281,241.4688 C1163.3281,241.0313 1163.3125,240.9063 1163.2188,240.75 C1163.0625,240.4844 1162.7813,240.3438 1162.4844,240.3438 C1162.1875,240.3438 1161.9844,240.4375 1161.7656,240.75 L1161.5938,240.6719 Z " fill="#000000"/><text fill="#000000" font-family="sans-serif" font-size="14" lengthAdjust="spacing" textLength="36" x="1179.75" y="249.8467">Todo</text><line style="stroke:#181818;stroke-width:0.5;" x1="1050" x2="1313" y1="261" y2="261"/><ellipse cx="1060" cy="272" fill="none" rx="3" ry="3" style="stroke:#038048;stroke-width:1.0;"/><text fill="#000000" font-family="sans-serif" font-size="14" lengthAdjust="spacing" textLength="78" x="1069" y="277.9951">id: number</text><ellipse cx="1060" cy="288.2969" fill="none" rx="3" ry="3" style="stroke:#038048;stroke-width:1.0;"/><text fill="#000000" font-family="sans-serif" font-size="14" lengthAdjust="spacing" textLength="82" x="1069" y="294.292">title: string</text><ellipse cx="1060" cy="304.5938" fill="none" rx="3" ry="3" style="stroke:#038048;stroke-width:1.0;"/><text fill="#000000" font-family="sans-serif" font-size="14" lengthAdjust="spacing" textLength="146" x="1069" y="310.5889">completed: boolean</text><ellipse cx="1060" cy="320.8906" fill="none" rx="3" ry="3" style="stroke:#038048;stroke-width:1.0;"/><text fill="#000000" font-family="sans-serif" font-size="14" lengthAdjust="spacing" textLength="143" x="1069" y="326.8857">dueDate: Date | null</text><ellipse cx="1060" cy="337.1875" fill="none" rx="3" ry="3" style="stroke:#038048;stroke-width:1.0;"/><text fill="#000000" font-family="sans-serif" font-size="14" lengthAdjust="spacing" textLength="117" x="1069" y="343.1826">createdAt: Date</text><ellipse cx="1060" cy="353.4844" fill="none" rx="3" ry="3" style="stroke:#038048;stroke-width:1.0;"/><text fill="#000000" font-family="sans-serif" font-size="14" lengthAdjust="spacing" textLength="178" x="1069" y="359.4795">completedAt: Date | null</text><ellipse cx="1060" cy="369.7813" fill="none" rx="3" ry="3" style="stroke:#038048;stroke-width:1.0;"/><text fill="#000000" font-family="sans-serif" font-size="14" lengthAdjust="spacing" textLength="95" x="1069" y="375.7764">status: string</text><rect fill="none" height="6" style="stroke:#C82930;stroke-width:1.0;" width="6" x="1057" y="383.0781"/><text fill="#000000" font-family="sans-serif" font-size="14" lengthAdjust="spacing" textLength="73" x="1069" y="392.0732">title: Title</text><rect fill="none" height="6" style="stroke:#C82930;stroke-width:1.0;" width="6" x="1057" y="399.375"/><text fill="#000000" font-family="sans-serif" font-size="14" lengthAdjust="spacing" textLength="146" x="1069" y="408.3701">completed: boolean</text><rect fill="none" height="6" style="stroke:#C82930;stroke-width:1.0;" width="6" x="1057" y="415.6719"/><text fill="#000000" font-family="sans-serif" font-size="14" lengthAdjust="spacing" textLength="157" x="1069" y="424.667">createdAt: CreatedAt</text><rect fill="none" height="6" style="stroke:#C82930;stroke-width:1.0;" width="6" x="1057" y="431.9688"/><text fill="#000000" font-family="sans-serif" font-size="14" lengthAdjust="spacing" textLength="203" x="1069" y="440.9639">completedAt: CompletedAt</text><rect fill="none" height="6" style="stroke:#C82930;stroke-width:1.0;" width="6" x="1057" y="448.2656"/><text fill="#000000" font-family="sans-serif" font-size="14" lengthAdjust="spacing" textLength="133" x="1069" y="457.2607">dueDate: DueDate</text><rect fill="none" height="6" style="stroke:#C82930;stroke-width:1.0;" width="6" x="1057" y="464.5625"/><text fill="#000000" font-family="sans-serif" font-size="14" lengthAdjust="spacing" textLength="116" x="1069" y="473.5576">id: number | null</text><ellipse cx="1060" cy="483.8594" fill="none" rx="3" ry="3" style="stroke:#038048;stroke-width:1.0;"/><text fill="#000000" font-family="sans-serif" font-size="14" lengthAdjust="spacing" textLength="84" x="1069" y="489.8545">Title: string</text><ellipse cx="1060" cy="500.1563" fill="none" rx="3" ry="3" style="stroke:#038048;stroke-width:1.0;"/><text fill="#000000" font-family="sans-serif" font-size="14" lengthAdjust="spacing" textLength="148" x="1069" y="506.1514">Completed: boolean</text><ellipse cx="1060" cy="516.4531" fill="none" rx="3" ry="3" style="stroke:#038048;stroke-width:1.0;"/><text fill="#000000" font-family="sans-serif" font-size="14" lengthAdjust="spacing" textLength="119" x="1069" y="522.4482">CreatedAt: Date</text><ellipse cx="1060" cy="532.75" fill="none" rx="3" ry="3" style="stroke:#038048;stroke-width:1.0;"/><text fill="#000000" font-family="sans-serif" font-size="14" lengthAdjust="spacing" textLength="180" x="1069" y="538.7451">CompletedAt: Date | null</text><ellipse cx="1060" cy="549.0469" fill="none" rx="3" ry="3" style="stroke:#038048;stroke-width:1.0;"/><text fill="#000000" font-family="sans-serif" font-size="14" lengthAdjust="spacing" textLength="145" x="1069" y="555.042">DueDate: Date | null</text><ellipse cx="1060" cy="565.3438" fill="none" rx="3" ry="3" style="stroke:#038048;stroke-width:1.0;"/><text fill="#000000" font-family="sans-serif" font-size="14" lengthAdjust="spacing" textLength="116" x="1069" y="571.3389">Id: number | null</text><line style="stroke:#181818;stroke-width:0.5;" x1="1050" x2="1313" y1="578.6406" y2="578.6406"/><ellipse cx="1060" cy="589.6406" fill="#84BE84" rx="3" ry="3" style="stroke:#038048;stroke-width:1.0;"/><text fill="#000000" font-family="sans-serif" font-size="14" lengthAdjust="spacing" textLength="119" x="1069" y="595.6357">complete(): void</text><ellipse cx="1060" cy="605.9375" fill="#84BE84" rx="3" ry="3" style="stroke:#038048;stroke-width:1.0;"/><text fill="#000000" font-family="sans-serif" font-size="14" lengthAdjust="spacing" textLength="137" x="1069" y="611.9326">overDue(): boolean</text><ellipse cx="1060" cy="622.2344" fill="#84BE84" rx="3" ry="3" style="stroke:#038048;stroke-width:1.0;"/><text fill="#000000" font-family="sans-serif" font-size="14" lengthAdjust="spacing" textLength="239" x="1069" y="628.2295">setDueDate(due: DueDate): Todo</text><ellipse cx="1060" cy="638.5313" fill="#84BE84" rx="3" ry="3" style="stroke:#038048;stroke-width:1.0;"/><text fill="#000000" font-family="sans-serif" font-size="14" lengthAdjust="spacing" textLength="207" x="1069" y="644.5264">equals(other: Todo): boolean</text></g><!--MD5=[7d75efcc7d06b347edea0516f6aac1d8]
class BaseEntity--><g id="elem_BaseEntity"><rect fill="#F1F1F1" height="48" id="BaseEntity" rx="2.5" ry="2.5" style="stroke:#181818;stroke-width:0.5;" width="110" x="1126.5" y="64"/><ellipse cx="1141.5" cy="80" fill="#ADD1B2" rx="11" ry="11" style="stroke:#181818;stroke-width:1.0;"/><path d="M1143.8438,75.6719 C1142.9063,75.2344 1142.3125,75.0938 1141.4375,75.0938 C1138.8125,75.0938 1136.8125,77.1719 1136.8125,79.8906 L1136.8125,81.0156 C1136.8125,83.5938 1138.9219,85.4844 1141.8125,85.4844 C1143.0313,85.4844 1144.1875,85.1875 1144.9375,84.6406 C1145.5156,84.2344 1145.8438,83.7813 1145.8438,83.3906 C1145.8438,82.9375 1145.4531,82.5469 1144.9844,82.5469 C1144.7656,82.5469 1144.5625,82.625 1144.375,82.8125 C1143.9219,83.2969 1143.9219,83.2969 1143.7344,83.3906 C1143.3125,83.6563 1142.625,83.7813 1141.8594,83.7813 C1139.8125,83.7813 1138.5156,82.6875 1138.5156,80.9844 L1138.5156,79.8906 C1138.5156,78.1094 1139.7656,76.7969 1141.5,76.7969 C1142.0781,76.7969 1142.6875,76.9531 1143.1563,77.2031 C1143.6406,77.4844 1143.8125,77.7031 1143.9063,78.1094 C1143.9688,78.5156 1144,78.6406 1144.1406,78.7656 C1144.2813,78.9063 1144.5156,79.0156 1144.7344,79.0156 C1145,79.0156 1145.2656,78.875 1145.4375,78.6563 C1145.5469,78.5 1145.5781,78.3125 1145.5781,77.8906 L1145.5781,76.4688 C1145.5781,76.0313 1145.5625,75.9063 1145.4688,75.75 C1145.3125,75.4844 1145.0313,75.3438 1144.7344,75.3438 C1144.4375,75.3438 1144.2344,75.4375 1144.0156,75.75 L1143.8438,75.6719 Z " fill="#000000"/><text fill="#000000" font-family="sans-serif" font-size="14" lengthAdjust="spacing" textLength="78" x="1155.5" y="84.8467">BaseEntity</text><line style="stroke:#181818;stroke-width:0.5;" x1="1127.5" x2="1235.5" y1="96" y2="96"/><line style="stroke:#181818;stroke-width:0.5;" x1="1127.5" x2="1235.5" y1="104" y2="104"/></g><!--MD5=[f3a432345cbe8f2bb5c17570319e88a3]
class CreateCommand--><g id="elem_CreateCommand"><rect codeLine="10" fill="#F1F1F1" height="80.5938" id="CreateCommand" rx="2.5" ry="2.5" style="stroke:#181818;stroke-width:0.5;" width="386" x="1349.5" y="400"/><ellipse cx="1477.25" cy="416" fill="#ADD1B2" rx="11" ry="11" style="stroke:#181818;stroke-width:1.0;"/><path d="M1479.5938,411.6719 C1478.6563,411.2344 1478.0625,411.0938 1477.1875,411.0938 C1474.5625,411.0938 1472.5625,413.1719 1472.5625,415.8906 L1472.5625,417.0156 C1472.5625,419.5938 1474.6719,421.4844 1477.5625,421.4844 C1478.7813,421.4844 1479.9375,421.1875 1480.6875,420.6406 C1481.2656,420.2344 1481.5938,419.7813 1481.5938,419.3906 C1481.5938,418.9375 1481.2031,418.5469 1480.7344,418.5469 C1480.5156,418.5469 1480.3125,418.625 1480.125,418.8125 C1479.6719,419.2969 1479.6719,419.2969 1479.4844,419.3906 C1479.0625,419.6563 1478.375,419.7813 1477.6094,419.7813 C1475.5625,419.7813 1474.2656,418.6875 1474.2656,416.9844 L1474.2656,415.8906 C1474.2656,414.1094 1475.5156,412.7969 1477.25,412.7969 C1477.8281,412.7969 1478.4375,412.9531 1478.9063,413.2031 C1479.3906,413.4844 1479.5625,413.7031 1479.6563,414.1094 C1479.7188,414.5156 1479.75,414.6406 1479.8906,414.7656 C1480.0313,414.9063 1480.2656,415.0156 1480.4844,415.0156 C1480.75,415.0156 1481.0156,414.875 1481.1875,414.6563 C1481.2969,414.5 1481.3281,414.3125 1481.3281,413.8906 L1481.3281,412.4688 C1481.3281,412.0313 1481.3125,411.9063 1481.2188,411.75 C1481.0625,411.4844 1480.7813,411.3438 1480.4844,411.3438 C1480.1875,411.3438 1479.9844,411.4375 1479.7656,411.75 L1479.5938,411.6719 Z " fill="#000000"/><text fill="#000000" font-family="sans-serif" font-size="14" lengthAdjust="spacing" textLength="122" x="1497.75" y="420.8467">CreateCommand</text><line style="stroke:#181818;stroke-width:0.5;" x1="1350.5" x2="1734.5" y1="432" y2="432"/><rect fill="none" height="6" style="stroke:#C82930;stroke-width:1.0;" width="6" x="1357.5" y="440"/><text fill="#000000" font-family="sans-serif" font-size="14" lengthAdjust="spacing" textLength="79" x="1369.5" y="448.9951">type: Type</text><line style="stroke:#181818;stroke-width:0.5;" x1="1350.5" x2="1734.5" y1="456.2969" y2="456.2969"/><ellipse cx="1360.5" cy="467.2969" fill="#84BE84" rx="3" ry="3" style="stroke:#038048;stroke-width:1.0;"/><text fill="#000000" font-family="sans-serif" font-size="14" lengthAdjust="spacing" textLength="360" x="1369.5" y="473.292">execute(params: Params): Promise&lt;void | Todo[]&gt;</text></g><!--MD5=[521817ab83e81da341a3f4b5e91bae41]
class Command--><g id="elem_Command"><rect codeLine="36" fill="#F1F1F1" height="64.2969" id="Command" rx="2.5" ry="2.5" style="stroke:#181818;stroke-width:0.5;" width="386" x="1980.5" y="56"/><ellipse cx="2132.25" cy="72" fill="#B4A7E5" rx="11" ry="11" style="stroke:#181818;stroke-width:1.0;"/><path d="M2133.2031,68.7813 L2134.9219,68.7813 C2135.3125,68.7813 2135.5,68.75 2135.625,68.6719 C2135.8906,68.5156 2136.0313,68.2344 2136.0313,67.9375 C2136.0313,67.6719 2135.9219,67.4063 2135.6875,67.2344 C2135.5156,67.125 2135.375,67.0938 2134.9219,67.0938 L2129.7813,67.0938 C2129.3438,67.0938 2129.2188,67.1094 2129.0625,67.2031 C2128.8125,67.3594 2128.6563,67.6563 2128.6563,67.9375 C2128.6563,68.2188 2128.7969,68.4688 2129.0156,68.6406 C2129.1719,68.75 2129.3594,68.7813 2129.7813,68.7813 L2131.5,68.7813 L2131.5,75.2969 L2129.7813,75.2969 C2129.3438,75.2969 2129.2188,75.3125 2129.0625,75.4219 C2128.8125,75.5781 2128.6563,75.8594 2128.6563,76.1563 C2128.6563,76.4063 2128.7969,76.6719 2129.0156,76.8281 C2129.1719,76.9531 2129.375,77 2129.7813,77 L2134.9219,77 C2135.6719,77 2136.0313,76.7188 2136.0313,76.1563 C2136.0313,75.875 2135.9219,75.625 2135.6875,75.4531 C2135.5156,75.3281 2135.375,75.2969 2134.9219,75.2969 L2133.2031,75.2969 L2133.2031,68.7813 Z " fill="#000000"/><text fill="#000000" font-family="sans-serif" font-size="14" font-style="italic" lengthAdjust="spacing" textLength="74" x="2152.75" y="76.8467">Command</text><line style="stroke:#181818;stroke-width:0.5;" x1="1981.5" x2="2365.5" y1="88" y2="88"/><line style="stroke:#181818;stroke-width:0.5;" x1="1981.5" x2="2365.5" y1="96" y2="96"/><ellipse cx="1991.5" cy="107" fill="#84BE84" rx="3" ry="3" style="stroke:#038048;stroke-width:1.0;"/><text fill="#000000" font-family="sans-serif" font-size="14" lengthAdjust="spacing" textLength="360" x="2000.5" y="112.9951">execute(params: Params): Promise&lt;void | Todo[]&gt;</text></g><!--MD5=[522bcce41d81f20cd1f9638a73c3e08a]
class DeleteCommand--><g id="elem_DeleteCommand"><rect codeLine="14" fill="#F1F1F1" height="80.5938" id="DeleteCommand" rx="2.5" ry="2.5" style="stroke:#181818;stroke-width:0.5;" width="386" x="1770.5" y="400"/><ellipse cx="1898.25" cy="416" fill="#ADD1B2" rx="11" ry="11" style="stroke:#181818;stroke-width:1.0;"/><path d="M1900.5938,411.6719 C1899.6563,411.2344 1899.0625,411.0938 1898.1875,411.0938 C1895.5625,411.0938 1893.5625,413.1719 1893.5625,415.8906 L1893.5625,417.0156 C1893.5625,419.5938 1895.6719,421.4844 1898.5625,421.4844 C1899.7813,421.4844 1900.9375,421.1875 1901.6875,420.6406 C1902.2656,420.2344 1902.5938,419.7813 1902.5938,419.3906 C1902.5938,418.9375 1902.2031,418.5469 1901.7344,418.5469 C1901.5156,418.5469 1901.3125,418.625 1901.125,418.8125 C1900.6719,419.2969 1900.6719,419.2969 1900.4844,419.3906 C1900.0625,419.6563 1899.375,419.7813 1898.6094,419.7813 C1896.5625,419.7813 1895.2656,418.6875 1895.2656,416.9844 L1895.2656,415.8906 C1895.2656,414.1094 1896.5156,412.7969 1898.25,412.7969 C1898.8281,412.7969 1899.4375,412.9531 1899.9063,413.2031 C1900.3906,413.4844 1900.5625,413.7031 1900.6563,414.1094 C1900.7188,414.5156 1900.75,414.6406 1900.8906,414.7656 C1901.0313,414.9063 1901.2656,415.0156 1901.4844,415.0156 C1901.75,415.0156 1902.0156,414.875 1902.1875,414.6563 C1902.2969,414.5 1902.3281,414.3125 1902.3281,413.8906 L1902.3281,412.4688 C1902.3281,412.0313 1902.3125,411.9063 1902.2188,411.75 C1902.0625,411.4844 1901.7813,411.3438 1901.4844,411.3438 C1901.1875,411.3438 1900.9844,411.4375 1900.7656,411.75 L1900.5938,411.6719 Z " fill="#000000"/><text fill="#000000" font-family="sans-serif" font-size="14" lengthAdjust="spacing" textLength="122" x="1918.75" y="420.8467">DeleteCommand</text><line style="stroke:#181818;stroke-width:0.5;" x1="1771.5" x2="2155.5" y1="432" y2="432"/><rect fill="none" height="6" style="stroke:#C82930;stroke-width:1.0;" width="6" x="1778.5" y="440"/><text fill="#000000" font-family="sans-serif" font-size="14" lengthAdjust="spacing" textLength="79" x="1790.5" y="448.9951">type: Type</text><line style="stroke:#181818;stroke-width:0.5;" x1="1771.5" x2="2155.5" y1="456.2969" y2="456.2969"/><ellipse cx="1781.5" cy="467.2969" fill="#84BE84" rx="3" ry="3" style="stroke:#038048;stroke-width:1.0;"/><text fill="#000000" font-family="sans-serif" font-size="14" lengthAdjust="spacing" textLength="360" x="1790.5" y="473.292">execute(params: Params): Promise&lt;void | Todo[]&gt;</text></g><!--MD5=[860a12987066b8aebfd02ff37a4e9912]
class ReadCommand--><g id="elem_ReadCommand"><rect codeLine="18" fill="#F1F1F1" height="80.5938" id="ReadCommand" rx="2.5" ry="2.5" style="stroke:#181818;stroke-width:0.5;" width="386" x="2191.5" y="400"/><ellipse cx="2325.75" cy="416" fill="#ADD1B2" rx="11" ry="11" style="stroke:#181818;stroke-width:1.0;"/><path d="M2328.0938,411.6719 C2327.1563,411.2344 2326.5625,411.0938 2325.6875,411.0938 C2323.0625,411.0938 2321.0625,413.1719 2321.0625,415.8906 L2321.0625,417.0156 C2321.0625,419.5938 2323.1719,421.4844 2326.0625,421.4844 C2327.2813,421.4844 2328.4375,421.1875 2329.1875,420.6406 C2329.7656,420.2344 2330.0938,419.7813 2330.0938,419.3906 C2330.0938,418.9375 2329.7031,418.5469 2329.2344,418.5469 C2329.0156,418.5469 2328.8125,418.625 2328.625,418.8125 C2328.1719,419.2969 2328.1719,419.2969 2327.9844,419.3906 C2327.5625,419.6563 2326.875,419.7813 2326.1094,419.7813 C2324.0625,419.7813 2322.7656,418.6875 2322.7656,416.9844 L2322.7656,415.8906 C2322.7656,414.1094 2324.0156,412.7969 2325.75,412.7969 C2326.3281,412.7969 2326.9375,412.9531 2327.4063,413.2031 C2327.8906,413.4844 2328.0625,413.7031 2328.1563,414.1094 C2328.2188,414.5156 2328.25,414.6406 2328.3906,414.7656 C2328.5313,414.9063 2328.7656,415.0156 2328.9844,415.0156 C2329.25,415.0156 2329.5156,414.875 2329.6875,414.6563 C2329.7969,414.5 2329.8281,414.3125 2329.8281,413.8906 L2329.8281,412.4688 C2329.8281,412.0313 2329.8125,411.9063 2329.7188,411.75 C2329.5625,411.4844 2329.2813,411.3438 2328.9844,411.3438 C2328.6875,411.3438 2328.4844,411.4375 2328.2656,411.75 L2328.0938,411.6719 Z " fill="#000000"/><text fill="#000000" font-family="sans-serif" font-size="14" lengthAdjust="spacing" textLength="109" x="2346.25" y="420.8467">ReadCommand</text><line style="stroke:#181818;stroke-width:0.5;" x1="2192.5" x2="2576.5" y1="432" y2="432"/><rect fill="none" height="6" style="stroke:#C82930;stroke-width:1.0;" width="6" x="2199.5" y="440"/><text fill="#000000" font-family="sans-serif" font-size="14" lengthAdjust="spacing" textLength="79" x="2211.5" y="448.9951">type: Type</text><line style="stroke:#181818;stroke-width:0.5;" x1="2192.5" x2="2576.5" y1="456.2969" y2="456.2969"/><ellipse cx="2202.5" cy="467.2969" fill="#84BE84" rx="3" ry="3" style="stroke:#038048;stroke-width:1.0;"/><text fill="#000000" font-family="sans-serif" font-size="14" lengthAdjust="spacing" textLength="360" x="2211.5" y="473.292">execute(params: Params): Promise&lt;void | Todo[]&gt;</text></g><!--MD5=[63bad1f31134c1e488d3f6c2fa12da5b]
class UpdateCommand--><g id="elem_UpdateCommand"><rect codeLine="22" fill="#F1F1F1" height="80.5938" id="UpdateCommand" rx="2.5" ry="2.5" style="stroke:#181818;stroke-width:0.5;" width="386" x="2612.5" y="400"/><ellipse cx="2738.75" cy="416" fill="#ADD1B2" rx="11" ry="11" style="stroke:#181818;stroke-width:1.0;"/><path d="M2741.0938,411.6719 C2740.1563,411.2344 2739.5625,411.0938 2738.6875,411.0938 C2736.0625,411.0938 2734.0625,413.1719 2734.0625,415.8906 L2734.0625,417.0156 C2734.0625,419.5938 2736.1719,421.4844 2739.0625,421.4844 C2740.2813,421.4844 2741.4375,421.1875 2742.1875,420.6406 C2742.7656,420.2344 2743.0938,419.7813 2743.0938,419.3906 C2743.0938,418.9375 2742.7031,418.5469 2742.2344,418.5469 C2742.0156,418.5469 2741.8125,418.625 2741.625,418.8125 C2741.1719,419.2969 2741.1719,419.2969 2740.9844,419.3906 C2740.5625,419.6563 2739.875,419.7813 2739.1094,419.7813 C2737.0625,419.7813 2735.7656,418.6875 2735.7656,416.9844 L2735.7656,415.8906 C2735.7656,414.1094 2737.0156,412.7969 2738.75,412.7969 C2739.3281,412.7969 2739.9375,412.9531 2740.4063,413.2031 C2740.8906,413.4844 2741.0625,413.7031 2741.1563,414.1094 C2741.2188,414.5156 2741.25,414.6406 2741.3906,414.7656 C2741.5313,414.9063 2741.7656,415.0156 2741.9844,415.0156 C2742.25,415.0156 2742.5156,414.875 2742.6875,414.6563 C2742.7969,414.5 2742.8281,414.3125 2742.8281,413.8906 L2742.8281,412.4688 C2742.8281,412.0313 2742.8125,411.9063 2742.7188,411.75 C2742.5625,411.4844 2742.2813,411.3438 2741.9844,411.3438 C2741.6875,411.3438 2741.4844,411.4375 2741.2656,411.75 L2741.0938,411.6719 Z " fill="#000000"/><text fill="#000000" font-family="sans-serif" font-size="14" lengthAdjust="spacing" textLength="125" x="2759.25" y="420.8467">UpdateCommand</text><line style="stroke:#181818;stroke-width:0.5;" x1="2613.5" x2="2997.5" y1="432" y2="432"/><rect fill="none" height="6" style="stroke:#C82930;stroke-width:1.0;" width="6" x="2620.5" y="440"/><text fill="#000000" font-family="sans-serif" font-size="14" lengthAdjust="spacing" textLength="79" x="2632.5" y="448.9951">type: Type</text><line style="stroke:#181818;stroke-width:0.5;" x1="2613.5" x2="2997.5" y1="456.2969" y2="456.2969"/><ellipse cx="2623.5" cy="467.2969" fill="#84BE84" rx="3" ry="3" style="stroke:#038048;stroke-width:1.0;"/><text fill="#000000" font-family="sans-serif" font-size="14" lengthAdjust="spacing" textLength="360" x="2632.5" y="473.292">execute(params: Params): Promise&lt;void | Todo[]&gt;</text></g><!--MD5=[4296a1ab0576a383a1a509d52c22ebf0]
class Type--><g id="elem_Type"><rect codeLine="26" fill="#F1F1F1" height="113.1875" id="Type" rx="2.5" ry="2.5" style="stroke:#181818;stroke-width:0.5;" width="69" x="148" y="31.5"/><ellipse cx="163.45" cy="47.5" fill="#EB937F" rx="11" ry="11" style="stroke:#181818;stroke-width:1.0;"/><path d="M162.2469,48.375 L163.7,48.375 L163.7,48.4844 C163.7,48.8906 163.7313,49.0469 163.8094,49.2031 C163.9656,49.4531 164.2469,49.6094 164.5438,49.6094 C164.7938,49.6094 165.0594,49.4688 165.2156,49.25 C165.3406,49.0938 165.3719,48.9375 165.3719,48.4844 L165.3719,46.5625 C165.3719,46.4063 165.3719,46.3594 165.3563,46.2031 C165.2938,45.7344 164.9813,45.4219 164.5281,45.4219 C164.2781,45.4219 164.0125,45.5625 163.8406,45.7813 C163.7313,45.9531 163.7,46.1094 163.7,46.5625 L163.7,46.6875 L162.2469,46.6875 L162.2469,44.2813 L166.2313,44.2813 L166.2313,45.1406 C166.2313,45.5469 166.2625,45.7188 166.3406,45.875 C166.5125,46.125 166.7938,46.2813 167.075,46.2813 C167.3406,46.2813 167.6063,46.1406 167.7781,45.9219 C167.8875,45.75 167.9188,45.6094 167.9188,45.1406 L167.9188,42.5938 L160.2938,42.5938 C159.8563,42.5938 159.7313,42.6094 159.575,42.7031 C159.325,42.8594 159.1688,43.1563 159.1688,43.4375 C159.1688,43.7188 159.3094,43.9688 159.5281,44.1406 C159.6844,44.25 159.8719,44.2813 160.2938,44.2813 L160.5438,44.2813 L160.5438,50.7969 L160.2938,50.7969 C159.8875,50.7969 159.7313,50.8125 159.575,50.9219 C159.325,51.0938 159.1688,51.3594 159.1688,51.6563 C159.1688,51.9219 159.3094,52.1719 159.5281,52.3281 C159.6688,52.4531 159.9031,52.5 160.2938,52.5 L168.2938,52.5 L168.2938,49.9219 C168.2938,49.4844 168.2625,49.3438 168.1844,49.1875 C168.0125,48.9375 167.7313,48.7813 167.45,48.7813 C167.1844,48.7813 166.9188,48.8906 166.7469,49.1406 C166.6375,49.2969 166.6063,49.4375 166.6063,49.9219 L166.6063,50.7969 L162.2469,50.7969 L162.2469,48.375 Z " fill="#000000"/><text fill="#000000" font-family="sans-serif" font-size="14" lengthAdjust="spacing" textLength="36" x="177.55" y="52.3467">Type</text><line style="stroke:#181818;stroke-width:0.5;" x1="149" x2="216" y1="63.5" y2="63.5"/><text fill="#000000" font-family="sans-serif" font-size="14" lengthAdjust="spacing" textLength="57" x="154" y="80.4951">CREATE</text><text fill="#000000" font-family="sans-serif" font-size="14" lengthAdjust="spacing" textLength="40" x="154" y="96.792">READ</text><text fill="#000000" font-family="sans-serif" font-size="14" lengthAdjust="spacing" textLength="57" x="154" y="113.0889">UPDATE</text><text fill="#000000" font-family="sans-serif" font-size="14" lengthAdjust="spacing" textLength="55" x="154" y="129.3857">DELETE</text><line style="stroke:#181818;stroke-width:0.5;" x1="149" x2="216" y1="136.6875" y2="136.6875"/></g><!--MD5=[607c01281c15983c44675f9e6dea3db6]
class TodoService--><g id="elem_TodoService"><rect codeLine="32" fill="#F1F1F1" height="80.5938" id="TodoService" rx="2.5" ry="2.5" style="stroke:#181818;stroke-width:0.5;" width="386" x="252.5" y="47.5"/><ellipse cx="396.75" cy="63.5" fill="#ADD1B2" rx="11" ry="11" style="stroke:#181818;stroke-width:1.0;"/><path d="M399.0938,59.1719 C398.1563,58.7344 397.5625,58.5938 396.6875,58.5938 C394.0625,58.5938 392.0625,60.6719 392.0625,63.3906 L392.0625,64.5156 C392.0625,67.0938 394.1719,68.9844 397.0625,68.9844 C398.2813,68.9844 399.4375,68.6875 400.1875,68.1406 C400.7656,67.7344 401.0938,67.2813 401.0938,66.8906 C401.0938,66.4375 400.7031,66.0469 400.2344,66.0469 C400.0156,66.0469 399.8125,66.125 399.625,66.3125 C399.1719,66.7969 399.1719,66.7969 398.9844,66.8906 C398.5625,67.1563 397.875,67.2813 397.1094,67.2813 C395.0625,67.2813 393.7656,66.1875 393.7656,64.4844 L393.7656,63.3906 C393.7656,61.6094 395.0156,60.2969 396.75,60.2969 C397.3281,60.2969 397.9375,60.4531 398.4063,60.7031 C398.8906,60.9844 399.0625,61.2031 399.1563,61.6094 C399.2188,62.0156 399.25,62.1406 399.3906,62.2656 C399.5313,62.4063 399.7656,62.5156 399.9844,62.5156 C400.25,62.5156 400.5156,62.375 400.6875,62.1563 C400.7969,62 400.8281,61.8125 400.8281,61.3906 L400.8281,59.9688 C400.8281,59.5313 400.8125,59.4063 400.7188,59.25 C400.5625,58.9844 400.2813,58.8438 399.9844,58.8438 C399.6875,58.8438 399.4844,58.9375 399.2656,59.25 L399.0938,59.1719 Z " fill="#000000"/><text fill="#000000" font-family="sans-serif" font-size="14" lengthAdjust="spacing" textLength="89" x="417.25" y="68.3467">TodoService</text><line style="stroke:#181818;stroke-width:0.5;" x1="253.5" x2="637.5" y1="79.5" y2="79.5"/><rect fill="none" height="6" style="stroke:#C82930;stroke-width:1.0;" width="6" x="260.5" y="87.5"/><text fill="#000000" font-family="sans-serif" font-size="14" lengthAdjust="spacing" textLength="153" x="272.5" y="96.4951">command: Command</text><line style="stroke:#181818;stroke-width:0.5;" x1="253.5" x2="637.5" y1="103.7969" y2="103.7969"/><ellipse cx="263.5" cy="114.7969" fill="#84BE84" rx="3" ry="3" style="stroke:#038048;stroke-width:1.0;"/><text fill="#000000" font-family="sans-serif" font-size="14" lengthAdjust="spacing" textLength="360" x="272.5" y="120.792">execute(params: Params): Promise&lt;void | Todo[]&gt;</text></g><!--MD5=[cf45e8ad0333bb05467ac0b4d70787c5]
class TodoEntity--><g id="elem_TodoEntity"><rect codeLine="39" fill="#F1F1F1" height="162.0781" id="TodoEntity" rx="2.5" ry="2.5" style="stroke:#181818;stroke-width:0.5;" width="204" x="673.5" y="7"/><ellipse cx="731.25" cy="23" fill="#ADD1B2" rx="11" ry="11" style="stroke:#181818;stroke-width:1.0;"/><path d="M733.5938,18.6719 C732.6563,18.2344 732.0625,18.0938 731.1875,18.0938 C728.5625,18.0938 726.5625,20.1719 726.5625,22.8906 L726.5625,24.0156 C726.5625,26.5938 728.6719,28.4844 731.5625,28.4844 C732.7813,28.4844 733.9375,28.1875 734.6875,27.6406 C735.2656,27.2344 735.5938,26.7813 735.5938,26.3906 C735.5938,25.9375 735.2031,25.5469 734.7344,25.5469 C734.5156,25.5469 734.3125,25.625 734.125,25.8125 C733.6719,26.2969 733.6719,26.2969 733.4844,26.3906 C733.0625,26.6563 732.375,26.7813 731.6094,26.7813 C729.5625,26.7813 728.2656,25.6875 728.2656,23.9844 L728.2656,22.8906 C728.2656,21.1094 729.5156,19.7969 731.25,19.7969 C731.8281,19.7969 732.4375,19.9531 732.9063,20.2031 C733.3906,20.4844 733.5625,20.7031 733.6563,21.1094 C733.7188,21.5156 733.75,21.6406 733.8906,21.7656 C734.0313,21.9063 734.2656,22.0156 734.4844,22.0156 C734.75,22.0156 735.0156,21.875 735.1875,21.6563 C735.2969,21.5 735.3281,21.3125 735.3281,20.8906 L735.3281,19.4688 C735.3281,19.0313 735.3125,18.9063 735.2188,18.75 C735.0625,18.4844 734.7813,18.3438 734.4844,18.3438 C734.1875,18.3438 733.9844,18.4375 733.7656,18.75 L733.5938,18.6719 Z " fill="#000000"/><text fill="#000000" font-family="sans-serif" font-size="14" lengthAdjust="spacing" textLength="80" x="751.75" y="27.8467">TodoEntity</text><line style="stroke:#181818;stroke-width:0.5;" x1="674.5" x2="876.5" y1="39" y2="39"/><ellipse cx="684.5" cy="50" fill="none" rx="3" ry="3" style="stroke:#038048;stroke-width:1.0;"/><text fill="#000000" font-family="sans-serif" font-size="14" lengthAdjust="spacing" textLength="78" x="693.5" y="55.9951">id: number</text><ellipse cx="684.5" cy="66.2969" fill="none" rx="3" ry="3" style="stroke:#038048;stroke-width:1.0;"/><text fill="#000000" font-family="sans-serif" font-size="14" lengthAdjust="spacing" textLength="82" x="693.5" y="72.292">title: string</text><ellipse cx="684.5" cy="82.5938" fill="none" rx="3" ry="3" style="stroke:#038048;stroke-width:1.0;"/><text fill="#000000" font-family="sans-serif" font-size="14" lengthAdjust="spacing" textLength="146" x="693.5" y="88.5889">completed: boolean</text><ellipse cx="684.5" cy="98.8906" fill="none" rx="3" ry="3" style="stroke:#038048;stroke-width:1.0;"/><text fill="#000000" font-family="sans-serif" font-size="14" lengthAdjust="spacing" textLength="143" x="693.5" y="104.8857">dueDate: Date | null</text><ellipse cx="684.5" cy="115.1875" fill="none" rx="3" ry="3" style="stroke:#038048;stroke-width:1.0;"/><text fill="#000000" font-family="sans-serif" font-size="14" lengthAdjust="spacing" textLength="117" x="693.5" y="121.1826">createdAt: Date</text><ellipse cx="684.5" cy="131.4844" fill="none" rx="3" ry="3" style="stroke:#038048;stroke-width:1.0;"/><text fill="#000000" font-family="sans-serif" font-size="14" lengthAdjust="spacing" textLength="178" x="693.5" y="137.4795">completedAt: Date | null</text><ellipse cx="684.5" cy="147.7813" fill="none" rx="3" ry="3" style="stroke:#038048;stroke-width:1.0;"/><text fill="#000000" font-family="sans-serif" font-size="14" lengthAdjust="spacing" textLength="95" x="693.5" y="153.7764">status: string</text><line style="stroke:#181818;stroke-width:0.5;" x1="674.5" x2="876.5" y1="161.0781" y2="161.0781"/></g><!--MD5=[67f100d94b12044e782866d6f1627f13]
class CompletedAt--><g id="elem_CompletedAt"><rect codeLine="48" fill="#F1F1F1" height="96.8906" id="CompletedAt" rx="2.5" ry="2.5" style="stroke:#181818;stroke-width:0.5;" width="351" x="7" y="392"/><ellipse cx="129.25" cy="408" fill="#ADD1B2" rx="11" ry="11" style="stroke:#181818;stroke-width:1.0;"/><path d="M131.5938,403.6719 C130.6563,403.2344 130.0625,403.0938 129.1875,403.0938 C126.5625,403.0938 124.5625,405.1719 124.5625,407.8906 L124.5625,409.0156 C124.5625,411.5938 126.6719,413.4844 129.5625,413.4844 C130.7813,413.4844 131.9375,413.1875 132.6875,412.6406 C133.2656,412.2344 133.5938,411.7813 133.5938,411.3906 C133.5938,410.9375 133.2031,410.5469 132.7344,410.5469 C132.5156,410.5469 132.3125,410.625 132.125,410.8125 C131.6719,411.2969 131.6719,411.2969 131.4844,411.3906 C131.0625,411.6563 130.375,411.7813 129.6094,411.7813 C127.5625,411.7813 126.2656,410.6875 126.2656,408.9844 L126.2656,407.8906 C126.2656,406.1094 127.5156,404.7969 129.25,404.7969 C129.8281,404.7969 130.4375,404.9531 130.9063,405.2031 C131.3906,405.4844 131.5625,405.7031 131.6563,406.1094 C131.7188,406.5156 131.75,406.6406 131.8906,406.7656 C132.0313,406.9063 132.2656,407.0156 132.4844,407.0156 C132.75,407.0156 133.0156,406.875 133.1875,406.6563 C133.2969,406.5 133.3281,406.3125 133.3281,405.8906 L133.3281,404.4688 C133.3281,404.0313 133.3125,403.9063 133.2188,403.75 C133.0625,403.4844 132.7813,403.3438 132.4844,403.3438 C132.1875,403.3438 131.9844,403.4375 131.7656,403.75 L131.5938,403.6719 Z " fill="#000000"/><text fill="#000000" font-family="sans-serif" font-size="14" lengthAdjust="spacing" textLength="98" x="149.75" y="412.8467">CompletedAt</text><line style="stroke:#181818;stroke-width:0.5;" x1="8" x2="357" y1="424" y2="424"/><rect fill="none" height="6" style="stroke:#C82930;stroke-width:1.0;" width="6" x="15" y="432"/><text fill="#000000" font-family="sans-serif" font-size="14" lengthAdjust="spacing" textLength="119" x="27" y="440.9951">value: Date | null</text><ellipse cx="18" cy="451.2969" fill="none" rx="3" ry="3" style="stroke:#038048;stroke-width:1.0;"/><text fill="#000000" font-family="sans-serif" font-size="14" lengthAdjust="spacing" textLength="121" x="27" y="457.292">Value: Date | null</text><line style="stroke:#181818;stroke-width:0.5;" x1="8" x2="357" y1="464.5938" y2="464.5938"/><ellipse cx="18" cy="475.5938" fill="#84BE84" rx="3" ry="3" style="stroke:#038048;stroke-width:1.0;"/><text fill="#000000" font-family="sans-serif" font-size="14" lengthAdjust="spacing" textLength="325" x="27" y="481.5889">equals(completedAt: CompletedAt): boolean</text></g><!--MD5=[dde4359a43de047b4d984bc31705a409]
class CreatedAt--><g id="elem_CreatedAt"><rect codeLine="53" fill="#F1F1F1" height="96.8906" id="CreatedAt" rx="2.5" ry="2.5" style="stroke:#181818;stroke-width:0.5;" width="305" x="393" y="392"/><ellipse cx="503.75" cy="408" fill="#ADD1B2" rx="11" ry="11" style="stroke:#181818;stroke-width:1.0;"/><path d="M506.0938,403.6719 C505.1563,403.2344 504.5625,403.0938 503.6875,403.0938 C501.0625,403.0938 499.0625,405.1719 499.0625,407.8906 L499.0625,409.0156 C499.0625,411.5938 501.1719,413.4844 504.0625,413.4844 C505.2813,413.4844 506.4375,413.1875 507.1875,412.6406 C507.7656,412.2344 508.0938,411.7813 508.0938,411.3906 C508.0938,410.9375 507.7031,410.5469 507.2344,410.5469 C507.0156,410.5469 506.8125,410.625 506.625,410.8125 C506.1719,411.2969 506.1719,411.2969 505.9844,411.3906 C505.5625,411.6563 504.875,411.7813 504.1094,411.7813 C502.0625,411.7813 500.7656,410.6875 500.7656,408.9844 L500.7656,407.8906 C500.7656,406.1094 502.0156,404.7969 503.75,404.7969 C504.3281,404.7969 504.9375,404.9531 505.4063,405.2031 C505.8906,405.4844 506.0625,405.7031 506.1563,406.1094 C506.2188,406.5156 506.25,406.6406 506.3906,406.7656 C506.5313,406.9063 506.7656,407.0156 506.9844,407.0156 C507.25,407.0156 507.5156,406.875 507.6875,406.6563 C507.7969,406.5 507.8281,406.3125 507.8281,405.8906 L507.8281,404.4688 C507.8281,404.0313 507.8125,403.9063 507.7188,403.75 C507.5625,403.4844 507.2813,403.3438 506.9844,403.3438 C506.6875,403.3438 506.4844,403.4375 506.2656,403.75 L506.0938,403.6719 Z " fill="#000000"/><text fill="#000000" font-family="sans-serif" font-size="14" lengthAdjust="spacing" textLength="75" x="524.25" y="412.8467">CreatedAt</text><line style="stroke:#181818;stroke-width:0.5;" x1="394" x2="697" y1="424" y2="424"/><rect fill="none" height="6" style="stroke:#C82930;stroke-width:1.0;" width="6" x="401" y="432"/><text fill="#000000" font-family="sans-serif" font-size="14" lengthAdjust="spacing" textLength="81" x="413" y="440.9951">value: Date</text><ellipse cx="404" cy="451.2969" fill="none" rx="3" ry="3" style="stroke:#038048;stroke-width:1.0;"/><text fill="#000000" font-family="sans-serif" font-size="14" lengthAdjust="spacing" textLength="83" x="413" y="457.292">Value: Date</text><line style="stroke:#181818;stroke-width:0.5;" x1="394" x2="697" y1="464.5938" y2="464.5938"/><ellipse cx="404" cy="475.5938" fill="#84BE84" rx="3" ry="3" style="stroke:#038048;stroke-width:1.0;"/><text fill="#000000" font-family="sans-serif" font-size="14" lengthAdjust="spacing" textLength="279" x="413" y="481.5889">equals(createdAt: CreatedAt): boolean</text></g><!--MD5=[cf3bb39649ce7f8bfa01714f85686c3f]
class DueDate--><g id="elem_DueDate"><rect codeLine="58" fill="#F1F1F1" height="113.1875" id="DueDate" rx="2.5" ry="2.5" style="stroke:#181818;stroke-width:0.5;" width="281" x="733" y="384"/><ellipse cx="837.75" cy="400" fill="#ADD1B2" rx="11" ry="11" style="stroke:#181818;stroke-width:1.0;"/><path d="M840.0938,395.6719 C839.1563,395.2344 838.5625,395.0938 837.6875,395.0938 C835.0625,395.0938 833.0625,397.1719 833.0625,399.8906 L833.0625,401.0156 C833.0625,403.5938 835.1719,405.4844 838.0625,405.4844 C839.2813,405.4844 840.4375,405.1875 841.1875,404.6406 C841.7656,404.2344 842.0938,403.7813 842.0938,403.3906 C842.0938,402.9375 841.7031,402.5469 841.2344,402.5469 C841.0156,402.5469 840.8125,402.625 840.625,402.8125 C840.1719,403.2969 840.1719,403.2969 839.9844,403.3906 C839.5625,403.6563 838.875,403.7813 838.1094,403.7813 C836.0625,403.7813 834.7656,402.6875 834.7656,400.9844 L834.7656,399.8906 C834.7656,398.1094 836.0156,396.7969 837.75,396.7969 C838.3281,396.7969 838.9375,396.9531 839.4063,397.2031 C839.8906,397.4844 840.0625,397.7031 840.1563,398.1094 C840.2188,398.5156 840.25,398.6406 840.3906,398.7656 C840.5313,398.9063 840.7656,399.0156 840.9844,399.0156 C841.25,399.0156 841.5156,398.875 841.6875,398.6563 C841.7969,398.5 841.8281,398.3125 841.8281,397.8906 L841.8281,396.4688 C841.8281,396.0313 841.8125,395.9063 841.7188,395.75 C841.5625,395.4844 841.2813,395.3438 840.9844,395.3438 C840.6875,395.3438 840.4844,395.4375 840.2656,395.75 L840.0938,395.6719 Z " fill="#000000"/><text fill="#000000" font-family="sans-serif" font-size="14" lengthAdjust="spacing" textLength="63" x="858.25" y="404.8467">DueDate</text><line style="stroke:#181818;stroke-width:0.5;" x1="734" x2="1013" y1="416" y2="416"/><rect fill="none" height="6" style="stroke:#C82930;stroke-width:1.0;" width="6" x="741" y="424"/><text fill="#000000" font-family="sans-serif" font-size="14" lengthAdjust="spacing" textLength="119" x="753" y="432.9951">value: Date | null</text><ellipse cx="744" cy="443.2969" fill="none" rx="3" ry="3" style="stroke:#038048;stroke-width:1.0;"/><text fill="#000000" font-family="sans-serif" font-size="14" lengthAdjust="spacing" textLength="121" x="753" y="449.292">Value: Date | null</text><line style="stroke:#181818;stroke-width:0.5;" x1="734" x2="1013" y1="456.5938" y2="456.5938"/><ellipse cx="744" cy="467.5938" fill="#84BE84" rx="3" ry="3" style="stroke:#038048;stroke-width:1.0;"/><text fill="#000000" font-family="sans-serif" font-size="14" lengthAdjust="spacing" textLength="255" x="753" y="473.5889">equals(dueDate: DueDate): boolean</text><ellipse cx="744" cy="483.8906" fill="#84BE84" rx="3" ry="3" style="stroke:#038048;stroke-width:1.0;"/><text fill="#000000" font-family="sans-serif" font-size="14" lengthAdjust="spacing" textLength="137" x="753" y="489.8857">overDue(): boolean</text></g><!--MD5=[90111e5cdc788a7ef73a3273c23dcc2b]
class Title--><g id="elem_Title"><rect codeLine="64" fill="#F1F1F1" height="96.8906" id="Title" rx="2.5" ry="2.5" style="stroke:#181818;stroke-width:0.5;" width="230" x="67.5" y="728"/><ellipse cx="161.75" cy="744" fill="#ADD1B2" rx="11" ry="11" style="stroke:#181818;stroke-width:1.0;"/><path d="M164.0938,739.6719 C163.1563,739.2344 162.5625,739.0938 161.6875,739.0938 C159.0625,739.0938 157.0625,741.1719 157.0625,743.8906 L157.0625,745.0156 C157.0625,747.5938 159.1719,749.4844 162.0625,749.4844 C163.2813,749.4844 164.4375,749.1875 165.1875,748.6406 C165.7656,748.2344 166.0938,747.7813 166.0938,747.3906 C166.0938,746.9375 165.7031,746.5469 165.2344,746.5469 C165.0156,746.5469 164.8125,746.625 164.625,746.8125 C164.1719,747.2969 164.1719,747.2969 163.9844,747.3906 C163.5625,747.6563 162.875,747.7813 162.1094,747.7813 C160.0625,747.7813 158.7656,746.6875 158.7656,744.9844 L158.7656,743.8906 C158.7656,742.1094 160.0156,740.7969 161.75,740.7969 C162.3281,740.7969 162.9375,740.9531 163.4063,741.2031 C163.8906,741.4844 164.0625,741.7031 164.1563,742.1094 C164.2188,742.5156 164.25,742.6406 164.3906,742.7656 C164.5313,742.9063 164.7656,743.0156 164.9844,743.0156 C165.25,743.0156 165.5156,742.875 165.6875,742.6563 C165.7969,742.5 165.8281,742.3125 165.8281,741.8906 L165.8281,740.4688 C165.8281,740.0313 165.8125,739.9063 165.7188,739.75 C165.5625,739.4844 165.2813,739.3438 164.9844,739.3438 C164.6875,739.3438 164.4844,739.4375 164.2656,739.75 L164.0938,739.6719 Z " fill="#000000"/><text fill="#000000" font-family="sans-serif" font-size="14" lengthAdjust="spacing" textLength="33" x="182.25" y="748.8467">Title</text><line style="stroke:#181818;stroke-width:0.5;" x1="68.5" x2="296.5" y1="760" y2="760"/><rect fill="none" height="6" style="stroke:#C82930;stroke-width:1.0;" width="6" x="75.5" y="768"/><text fill="#000000" font-family="sans-serif" font-size="14" lengthAdjust="spacing" textLength="88" x="87.5" y="776.9951">value: string</text><ellipse cx="78.5" cy="787.2969" fill="none" rx="3" ry="3" style="stroke:#038048;stroke-width:1.0;"/><text fill="#000000" font-family="sans-serif" font-size="14" lengthAdjust="spacing" textLength="90" x="87.5" y="793.292">Value: string</text><line style="stroke:#181818;stroke-width:0.5;" x1="68.5" x2="296.5" y1="800.5938" y2="800.5938"/><ellipse cx="78.5" cy="811.5938" fill="#84BE84" rx="3" ry="3" style="stroke:#038048;stroke-width:1.0;"/><text fill="#000000" font-family="sans-serif" font-size="14" lengthAdjust="spacing" textLength="204" x="87.5" y="817.5889">equals(other: Title): boolean</text></g><!--MD5=[4c557e82ab1fd837e5a934d1e0e1cd2c]
class TodoRepository--><g id="elem_TodoRepository"><rect codeLine="87" fill="#F1F1F1" height="129.4844" id="TodoRepository" rx="2.5" ry="2.5" style="stroke:#181818;stroke-width:0.5;" width="389" x="333" y="712"/><ellipse cx="465.75" cy="728" fill="#ADD1B2" rx="11" ry="11" style="stroke:#181818;stroke-width:1.0;"/><path d="M468.0938,723.6719 C467.1563,723.2344 466.5625,723.0938 465.6875,723.0938 C463.0625,723.0938 461.0625,725.1719 461.0625,727.8906 L461.0625,729.0156 C461.0625,731.5938 463.1719,733.4844 466.0625,733.4844 C467.2813,733.4844 468.4375,733.1875 469.1875,732.6406 C469.7656,732.2344 470.0938,731.7813 470.0938,731.3906 C470.0938,730.9375 469.7031,730.5469 469.2344,730.5469 C469.0156,730.5469 468.8125,730.625 468.625,730.8125 C468.1719,731.2969 468.1719,731.2969 467.9844,731.3906 C467.5625,731.6563 466.875,731.7813 466.1094,731.7813 C464.0625,731.7813 462.7656,730.6875 462.7656,728.9844 L462.7656,727.8906 C462.7656,726.1094 464.0156,724.7969 465.75,724.7969 C466.3281,724.7969 466.9375,724.9531 467.4063,725.2031 C467.8906,725.4844 468.0625,725.7031 468.1563,726.1094 C468.2188,726.5156 468.25,726.6406 468.3906,726.7656 C468.5313,726.9063 468.7656,727.0156 468.9844,727.0156 C469.25,727.0156 469.5156,726.875 469.6875,726.6563 C469.7969,726.5 469.8281,726.3125 469.8281,725.8906 L469.8281,724.4688 C469.8281,724.0313 469.8125,723.9063 469.7188,723.75 C469.5625,723.4844 469.2813,723.3438 468.9844,723.3438 C468.6875,723.3438 468.4844,723.4375 468.2656,723.75 L468.0938,723.6719 Z " fill="#000000"/><text fill="#000000" font-family="sans-serif" font-size="14" lengthAdjust="spacing" textLength="115" x="486.25" y="732.8467">TodoRepository</text><line style="stroke:#181818;stroke-width:0.5;" x1="334" x2="721" y1="744" y2="744"/><rect fill="none" height="6" style="stroke:#C82930;stroke-width:1.0;" width="6" x="341" y="752"/><text fill="#000000" font-family="sans-serif" font-size="14" lengthAdjust="spacing" textLength="229" x="353" y="760.9951">repository: Repository&lt;Entity&gt;</text><line style="stroke:#181818;stroke-width:0.5;" x1="334" x2="721" y1="768.2969" y2="768.2969"/><ellipse cx="344" cy="779.2969" fill="#84BE84" rx="3" ry="3" style="stroke:#038048;stroke-width:1.0;"/><text fill="#000000" font-family="sans-serif" font-size="14" lengthAdjust="spacing" textLength="281" x="353" y="785.292">getTodos(): Promise&lt;DomainObject[]&gt;</text><ellipse cx="344" cy="795.5938" fill="#84BE84" rx="3" ry="3" style="stroke:#038048;stroke-width:1.0;"/><text fill="#000000" font-family="sans-serif" font-size="14" lengthAdjust="spacing" textLength="338" x="353" y="801.5889">addTodo(todo: DomainObject): Promise&lt;void&gt;</text><ellipse cx="344" cy="811.8906" fill="#84BE84" rx="3" ry="3" style="stroke:#038048;stroke-width:1.0;"/><text fill="#000000" font-family="sans-serif" font-size="14" lengthAdjust="spacing" textLength="359" x="353" y="817.8857">deleteTodo(todo: DomainObject): Promise&lt;void&gt;</text><ellipse cx="344" cy="828.1875" fill="#84BE84" rx="3" ry="3" style="stroke:#038048;stroke-width:1.0;"/><text fill="#000000" font-family="sans-serif" font-size="14" lengthAdjust="spacing" textLength="363" x="353" y="834.1826">updateTodo(todo: DomainObject): Promise&lt;void&gt;</text></g><!--MD5=[94ae539cce1b455668c4d34eee34237f]
reverse link BaseEntity to Todo--><g id="link_BaseEntity_Todo"><path d="M1181.5,132.638 C1181.5,158.132 1181.5,192.391 1181.5,228.779 " fill="none" id="BaseEntity-backto-Todo" style="stroke:#181818;stroke-width:1.0;"/><polygon fill="none" points="1174.5,132.269,1181.5,112.269,1188.5,132.269,1174.5,132.269" style="stroke:#181818;stroke-width:1.0;"/></g><!--MD5=[5c22d4112ec790d971d722e67981092f]
reverse link Command to CreateCommand--><g id="link_Command_CreateCommand"><path d="M2006.54,125.303 C1925.9,147.506 1830.05,181.046 1752.5,229 C1677.86,275.154 1609.75,352.836 1572.41,399.82 " fill="none" id="Command-backto-CreateCommand" style="stroke:#181818;stroke-width:1.0;stroke-dasharray:7.0,7.0;"/><polygon fill="none" points="2004.76,118.533,2025.89,120.11,2008.39,132.054,2004.76,118.533" style="stroke:#181818;stroke-width:1.0;"/></g><!--MD5=[f1beb5af875fdb2722f3c2f77ee742d1]
reverse link Command to DeleteCommand--><g id="link_Command_DeleteCommand"><path d="M2144.53,137.355 C2102.68,207.204 2026.09,335.032 1987.33,399.732 " fill="none" id="Command-backto-DeleteCommand" style="stroke:#181818;stroke-width:1.0;stroke-dasharray:7.0,7.0;"/><polygon fill="none" points="2138.58,133.663,2154.86,120.105,2150.59,140.859,2138.58,133.663" style="stroke:#181818;stroke-width:1.0;"/></g><!--MD5=[292f12d158eff402f9cf0abd0b32d86b]
reverse link Command to ReadCommand--><g id="link_Command_ReadCommand"><path d="M2202.61,137.355 C2244.66,207.204 2321.61,335.032 2360.56,399.732 " fill="none" id="Command-backto-ReadCommand" style="stroke:#181818;stroke-width:1.0;stroke-dasharray:7.0,7.0;"/><polygon fill="none" points="2196.54,140.85,2192.22,120.105,2208.54,133.629,2196.54,140.85" style="stroke:#181818;stroke-width:1.0;"/></g><!--MD5=[ad951ebeb6dd4d69fa81eea7b336f465]
reverse link Command to UpdateCommand--><g id="link_Command_UpdateCommand"><path d="M2340.86,125.238 C2421.69,147.425 2517.77,180.971 2595.5,229 C2670.16,275.127 2738.26,352.818 2775.6,399.811 " fill="none" id="Command-backto-UpdateCommand" style="stroke:#181818;stroke-width:1.0;stroke-dasharray:7.0,7.0;"/><polygon fill="none" points="2338.97,131.98,2321.46,120.049,2342.59,118.455,2338.97,131.98" style="stroke:#181818;stroke-width:1.0;"/></g><!--MD5=[eca1f8123a8f898f84fb481b9392bb1e]
@startuml
class Todo extends BaseEntity {
    +id: number
    +title: string
    +completed: boolean
    +dueDate: Date | null
    +createdAt: Date
    +completedAt: Date | null
    +status: string
}
class CreateCommand implements Command {
    -type: Type
    +execute(params: Params): Promise<void | Todo[]>
}
class DeleteCommand implements Command {
    -type: Type
    +execute(params: Params): Promise<void | Todo[]>
}
class ReadCommand implements Command {
    -type: Type
    +execute(params: Params): Promise<void | Todo[]>
}
class UpdateCommand implements Command {
    -type: Type
    +execute(params: Params): Promise<void | Todo[]>
}
enum Type {
    CREATE
    READ
    UPDATE
    DELETE
}
class TodoService {
    -command: Command
    +execute(params: Params): Promise<void | Todo[]>
}
interface Command {
    +execute(params: Params): Promise<void | Todo[]>
}
class TodoEntity {
    +id: number
    +title: string
    +completed: boolean
    +dueDate: Date | null
    +createdAt: Date
    +completedAt: Date | null
    +status: string
}
class CompletedAt {
    -value: Date | null
    +Value: Date | null
    +equals(completedAt: CompletedAt): boolean
}
class CreatedAt {
    -value: Date
    +Value: Date
    +equals(createdAt: CreatedAt): boolean
}
class DueDate {
    -value: Date | null
    +Value: Date | null
    +equals(dueDate: DueDate): boolean
    +overDue(): boolean
}
class Title {
    -value: string
    +Value: string
    +equals(other: Title): boolean
}
class Todo {
    -title: Title
    -completed: boolean
    -createdAt: CreatedAt
    -completedAt: CompletedAt
    -dueDate: DueDate
    -id: number | null
    +Title: string
    +Completed: boolean
    +CreatedAt: Date
    +CompletedAt: Date | null
    +DueDate: Date | null
    +Id: number | null
    +complete(): void
    +overDue(): boolean
    +setDueDate(due: DueDate): Todo
    +equals(other: Todo): boolean
}
class TodoRepository {
    -repository: Repository<Entity>
    +getTodos(): Promise<DomainObject[]>
    +addTodo(todo: DomainObject): Promise<void>
    +deleteTodo(todo: DomainObject): Promise<void>
    +updateTodo(todo: DomainObject): Promise<void>
}
@enduml

PlantUML version 1.2022.4beta2(Unknown compile time)
(GPL source distribution)
Java Runtime: Java(TM) SE Runtime Environment
JVM: Java HotSpot(TM) 64-Bit Server VM
Default Encoding: UTF-8
Language: en
Country: US
--></g></svg>