<?xml version="1.0" encoding="UTF-8" standalone="no"?><svg xmlns="http://www.w3.org/2000/svg" xmlns:xlink="http://www.w3.org/1999/xlink" contentStyleType="text/css" height="864px" preserveAspectRatio="none" style="width:2952px;height:864px;background:#FFFFFF;" version="1.1" viewBox="0 0 2952 864" width="2952px" zoomAndPan="magnify"><defs/><g><!--MD5=[d304ca89bdbd8073bbc1ba7ea9e70f7d]
class Todo--><g id="elem_Todo"><rect codeLine="47" fill="#F1F1F1" height="455.4219" id="Todo" rx="2.5" ry="2.5" style="stroke:#181818;stroke-width:0.5;" width="265" x="996" y="180"/><ellipse cx="1106.25" cy="196" fill="#ADD1B2" rx="11" ry="11" style="stroke:#181818;stroke-width:1.0;"/><path d="M1108.5938,191.6719 C1107.6563,191.2344 1107.0625,191.0938 1106.1875,191.0938 C1103.5625,191.0938 1101.5625,193.1719 1101.5625,195.8906 L1101.5625,197.0156 C1101.5625,199.5938 1103.6719,201.4844 1106.5625,201.4844 C1107.7813,201.4844 1108.9375,201.1875 1109.6875,200.6406 C1110.2656,200.2344 1110.5938,199.7813 1110.5938,199.3906 C1110.5938,198.9375 1110.2031,198.5469 1109.7344,198.5469 C1109.5156,198.5469 1109.3125,198.625 1109.125,198.8125 C1108.6719,199.2969 1108.6719,199.2969 1108.4844,199.3906 C1108.0625,199.6563 1107.375,199.7813 1106.6094,199.7813 C1104.5625,199.7813 1103.2656,198.6875 1103.2656,196.9844 L1103.2656,195.8906 C1103.2656,194.1094 1104.5156,192.7969 1106.25,192.7969 C1106.8281,192.7969 1107.4375,192.9531 1107.9063,193.2031 C1108.3906,193.4844 1108.5625,193.7031 1108.6563,194.1094 C1108.7188,194.5156 1108.75,194.6406 1108.8906,194.7656 C1109.0313,194.9063 1109.2656,195.0156 1109.4844,195.0156 C1109.75,195.0156 1110.0156,194.875 1110.1875,194.6563 C1110.2969,194.5 1110.3281,194.3125 1110.3281,193.8906 L1110.3281,192.4688 C1110.3281,192.0313 1110.3125,191.9063 1110.2188,191.75 C1110.0625,191.4844 1109.7813,191.3438 1109.4844,191.3438 C1109.1875,191.3438 1108.9844,191.4375 1108.7656,191.75 L1108.5938,191.6719 Z " fill="#000000"/><text fill="#000000" font-family="sans-serif" font-size="14" lengthAdjust="spacing" textLength="36" x="1126.75" y="200.8467">Todo</text><line style="stroke:#181818;stroke-width:0.5;" x1="997" x2="1260" y1="212" y2="212"/><ellipse cx="1007" cy="223" fill="none" rx="3" ry="3" style="stroke:#038048;stroke-width:1.0;"/><text fill="#000000" font-family="sans-serif" font-size="14" lengthAdjust="spacing" textLength="78" x="1016" y="228.9951">id: number</text><ellipse cx="1007" cy="239.2969" fill="none" rx="3" ry="3" style="stroke:#038048;stroke-width:1.0;"/><text fill="#000000" font-family="sans-serif" font-size="14" lengthAdjust="spacing" textLength="82" x="1016" y="245.292">title: string</text><ellipse cx="1007" cy="255.5938" fill="none" rx="3" ry="3" style="stroke:#038048;stroke-width:1.0;"/><text fill="#000000" font-family="sans-serif" font-size="14" lengthAdjust="spacing" textLength="146" x="1016" y="261.5889">completed: boolean</text><ellipse cx="1007" cy="271.8906" fill="none" rx="3" ry="3" style="stroke:#038048;stroke-width:1.0;"/><text fill="#000000" font-family="sans-serif" font-size="14" lengthAdjust="spacing" textLength="143" x="1016" y="277.8857">dueDate: Date | null</text><ellipse cx="1007" cy="288.1875" fill="none" rx="3" ry="3" style="stroke:#038048;stroke-width:1.0;"/><text fill="#000000" font-family="sans-serif" font-size="14" lengthAdjust="spacing" textLength="117" x="1016" y="294.1826">createdAt: Date</text><ellipse cx="1007" cy="304.4844" fill="none" rx="3" ry="3" style="stroke:#038048;stroke-width:1.0;"/><text fill="#000000" font-family="sans-serif" font-size="14" lengthAdjust="spacing" textLength="178" x="1016" y="310.4795">completedAt: Date | null</text><ellipse cx="1007" cy="320.7813" fill="none" rx="3" ry="3" style="stroke:#038048;stroke-width:1.0;"/><text fill="#000000" font-family="sans-serif" font-size="14" lengthAdjust="spacing" textLength="95" x="1016" y="326.7764">status: string</text><rect fill="none" height="6" style="stroke:#C82930;stroke-width:1.0;" width="6" x="1004" y="334.0781"/><text fill="#000000" font-family="sans-serif" font-size="14" lengthAdjust="spacing" textLength="73" x="1016" y="343.0732">title: Title</text><rect fill="none" height="6" style="stroke:#C82930;stroke-width:1.0;" width="6" x="1004" y="350.375"/><text fill="#000000" font-family="sans-serif" font-size="14" lengthAdjust="spacing" textLength="146" x="1016" y="359.3701">completed: boolean</text><rect fill="none" height="6" style="stroke:#C82930;stroke-width:1.0;" width="6" x="1004" y="366.6719"/><text fill="#000000" font-family="sans-serif" font-size="14" lengthAdjust="spacing" textLength="157" x="1016" y="375.667">createdAt: CreatedAt</text><rect fill="none" height="6" style="stroke:#C82930;stroke-width:1.0;" width="6" x="1004" y="382.9688"/><text fill="#000000" font-family="sans-serif" font-size="14" lengthAdjust="spacing" textLength="203" x="1016" y="391.9639">completedAt: CompletedAt</text><rect fill="none" height="6" style="stroke:#C82930;stroke-width:1.0;" width="6" x="1004" y="399.2656"/><text fill="#000000" font-family="sans-serif" font-size="14" lengthAdjust="spacing" textLength="133" x="1016" y="408.2607">dueDate: DueDate</text><rect fill="none" height="6" style="stroke:#C82930;stroke-width:1.0;" width="6" x="1004" y="415.5625"/><text fill="#000000" font-family="sans-serif" font-size="14" lengthAdjust="spacing" textLength="95" x="1016" y="424.5576">status: string</text><rect fill="none" height="6" style="stroke:#C82930;stroke-width:1.0;" width="6" x="1004" y="431.8594"/><text fill="#000000" font-family="sans-serif" font-size="14" lengthAdjust="spacing" textLength="116" x="1016" y="440.8545">id: number | null</text><ellipse cx="1007" cy="451.1563" fill="none" rx="3" ry="3" style="stroke:#038048;stroke-width:1.0;"/><text fill="#000000" font-family="sans-serif" font-size="14" lengthAdjust="spacing" textLength="84" x="1016" y="457.1514">Title: string</text><ellipse cx="1007" cy="467.4531" fill="none" rx="3" ry="3" style="stroke:#038048;stroke-width:1.0;"/><text fill="#000000" font-family="sans-serif" font-size="14" lengthAdjust="spacing" textLength="148" x="1016" y="473.4482">Completed: boolean</text><ellipse cx="1007" cy="483.75" fill="none" rx="3" ry="3" style="stroke:#038048;stroke-width:1.0;"/><text fill="#000000" font-family="sans-serif" font-size="14" lengthAdjust="spacing" textLength="119" x="1016" y="489.7451">CreatedAt: Date</text><ellipse cx="1007" cy="500.0469" fill="none" rx="3" ry="3" style="stroke:#038048;stroke-width:1.0;"/><text fill="#000000" font-family="sans-serif" font-size="14" lengthAdjust="spacing" textLength="180" x="1016" y="506.042">CompletedAt: Date | null</text><ellipse cx="1007" cy="516.3438" fill="none" rx="3" ry="3" style="stroke:#038048;stroke-width:1.0;"/><text fill="#000000" font-family="sans-serif" font-size="14" lengthAdjust="spacing" textLength="145" x="1016" y="522.3389">DueDate: Date | null</text><ellipse cx="1007" cy="532.6406" fill="none" rx="3" ry="3" style="stroke:#038048;stroke-width:1.0;"/><text fill="#000000" font-family="sans-serif" font-size="14" lengthAdjust="spacing" textLength="97" x="1016" y="538.6357">Status: string</text><ellipse cx="1007" cy="548.9375" fill="none" rx="3" ry="3" style="stroke:#038048;stroke-width:1.0;"/><text fill="#000000" font-family="sans-serif" font-size="14" lengthAdjust="spacing" textLength="116" x="1016" y="554.9326">Id: number | null</text><line style="stroke:#181818;stroke-width:0.5;" x1="997" x2="1260" y1="562.2344" y2="562.2344"/><ellipse cx="1007" cy="573.2344" fill="#84BE84" rx="3" ry="3" style="stroke:#038048;stroke-width:1.0;"/><text fill="#000000" font-family="sans-serif" font-size="14" lengthAdjust="spacing" textLength="119" x="1016" y="579.2295">complete(): void</text><ellipse cx="1007" cy="589.5313" fill="#84BE84" rx="3" ry="3" style="stroke:#038048;stroke-width:1.0;"/><text fill="#000000" font-family="sans-serif" font-size="14" lengthAdjust="spacing" textLength="137" x="1016" y="595.5264">overDue(): boolean</text><ellipse cx="1007" cy="605.8281" fill="#84BE84" rx="3" ry="3" style="stroke:#038048;stroke-width:1.0;"/><text fill="#000000" font-family="sans-serif" font-size="14" lengthAdjust="spacing" textLength="239" x="1016" y="611.8232">setDueDate(due: DueDate): Todo</text><ellipse cx="1007" cy="622.125" fill="#84BE84" rx="3" ry="3" style="stroke:#038048;stroke-width:1.0;"/><text fill="#000000" font-family="sans-serif" font-size="14" lengthAdjust="spacing" textLength="207" x="1016" y="628.1201">equals(other: Todo): boolean</text></g><!--MD5=[7d75efcc7d06b347edea0516f6aac1d8]
class BaseEntity--><g id="elem_BaseEntity"><rect fill="#F1F1F1" height="48" id="BaseEntity" rx="2.5" ry="2.5" style="stroke:#181818;stroke-width:0.5;" width="110" x="1073.5" y="39.5"/><ellipse cx="1088.5" cy="55.5" fill="#ADD1B2" rx="11" ry="11" style="stroke:#181818;stroke-width:1.0;"/><path d="M1090.8438,51.1719 C1089.9063,50.7344 1089.3125,50.5938 1088.4375,50.5938 C1085.8125,50.5938 1083.8125,52.6719 1083.8125,55.3906 L1083.8125,56.5156 C1083.8125,59.0938 1085.9219,60.9844 1088.8125,60.9844 C1090.0313,60.9844 1091.1875,60.6875 1091.9375,60.1406 C1092.5156,59.7344 1092.8438,59.2813 1092.8438,58.8906 C1092.8438,58.4375 1092.4531,58.0469 1091.9844,58.0469 C1091.7656,58.0469 1091.5625,58.125 1091.375,58.3125 C1090.9219,58.7969 1090.9219,58.7969 1090.7344,58.8906 C1090.3125,59.1563 1089.625,59.2813 1088.8594,59.2813 C1086.8125,59.2813 1085.5156,58.1875 1085.5156,56.4844 L1085.5156,55.3906 C1085.5156,53.6094 1086.7656,52.2969 1088.5,52.2969 C1089.0781,52.2969 1089.6875,52.4531 1090.1563,52.7031 C1090.6406,52.9844 1090.8125,53.2031 1090.9063,53.6094 C1090.9688,54.0156 1091,54.1406 1091.1406,54.2656 C1091.2813,54.4063 1091.5156,54.5156 1091.7344,54.5156 C1092,54.5156 1092.2656,54.375 1092.4375,54.1563 C1092.5469,54 1092.5781,53.8125 1092.5781,53.3906 L1092.5781,51.9688 C1092.5781,51.5313 1092.5625,51.4063 1092.4688,51.25 C1092.3125,50.9844 1092.0313,50.8438 1091.7344,50.8438 C1091.4375,50.8438 1091.2344,50.9375 1091.0156,51.25 L1090.8438,51.1719 Z " fill="#000000"/><text fill="#000000" font-family="sans-serif" font-size="14" lengthAdjust="spacing" textLength="78" x="1102.5" y="60.3467">BaseEntity</text><line style="stroke:#181818;stroke-width:0.5;" x1="1074.5" x2="1182.5" y1="71.5" y2="71.5"/><line style="stroke:#181818;stroke-width:0.5;" x1="1074.5" x2="1182.5" y1="79.5" y2="79.5"/></g><!--MD5=[f3a432345cbe8f2bb5c17570319e88a3]
class CreateCommand--><g id="elem_CreateCommand"><rect codeLine="10" fill="#F1F1F1" height="80.5938" id="CreateCommand" rx="2.5" ry="2.5" style="stroke:#181818;stroke-width:0.5;" width="386" x="1296.5" y="367"/><ellipse cx="1424.25" cy="383" fill="#ADD1B2" rx="11" ry="11" style="stroke:#181818;stroke-width:1.0;"/><path d="M1426.5938,378.6719 C1425.6563,378.2344 1425.0625,378.0938 1424.1875,378.0938 C1421.5625,378.0938 1419.5625,380.1719 1419.5625,382.8906 L1419.5625,384.0156 C1419.5625,386.5938 1421.6719,388.4844 1424.5625,388.4844 C1425.7813,388.4844 1426.9375,388.1875 1427.6875,387.6406 C1428.2656,387.2344 1428.5938,386.7813 1428.5938,386.3906 C1428.5938,385.9375 1428.2031,385.5469 1427.7344,385.5469 C1427.5156,385.5469 1427.3125,385.625 1427.125,385.8125 C1426.6719,386.2969 1426.6719,386.2969 1426.4844,386.3906 C1426.0625,386.6563 1425.375,386.7813 1424.6094,386.7813 C1422.5625,386.7813 1421.2656,385.6875 1421.2656,383.9844 L1421.2656,382.8906 C1421.2656,381.1094 1422.5156,379.7969 1424.25,379.7969 C1424.8281,379.7969 1425.4375,379.9531 1425.9063,380.2031 C1426.3906,380.4844 1426.5625,380.7031 1426.6563,381.1094 C1426.7188,381.5156 1426.75,381.6406 1426.8906,381.7656 C1427.0313,381.9063 1427.2656,382.0156 1427.4844,382.0156 C1427.75,382.0156 1428.0156,381.875 1428.1875,381.6563 C1428.2969,381.5 1428.3281,381.3125 1428.3281,380.8906 L1428.3281,379.4688 C1428.3281,379.0313 1428.3125,378.9063 1428.2188,378.75 C1428.0625,378.4844 1427.7813,378.3438 1427.4844,378.3438 C1427.1875,378.3438 1426.9844,378.4375 1426.7656,378.75 L1426.5938,378.6719 Z " fill="#000000"/><text fill="#000000" font-family="sans-serif" font-size="14" lengthAdjust="spacing" textLength="122" x="1444.75" y="387.8467">CreateCommand</text><line style="stroke:#181818;stroke-width:0.5;" x1="1297.5" x2="1681.5" y1="399" y2="399"/><rect fill="none" height="6" style="stroke:#C82930;stroke-width:1.0;" width="6" x="1304.5" y="407"/><text fill="#000000" font-family="sans-serif" font-size="14" lengthAdjust="spacing" textLength="79" x="1316.5" y="415.9951">type: Type</text><line style="stroke:#181818;stroke-width:0.5;" x1="1297.5" x2="1681.5" y1="423.2969" y2="423.2969"/><ellipse cx="1307.5" cy="434.2969" fill="#84BE84" rx="3" ry="3" style="stroke:#038048;stroke-width:1.0;"/><text fill="#000000" font-family="sans-serif" font-size="14" lengthAdjust="spacing" textLength="360" x="1316.5" y="440.292">execute(params: Params): Promise&lt;void | Todo[]&gt;</text></g><!--MD5=[521817ab83e81da341a3f4b5e91bae41]
class Command--><g id="elem_Command"><rect codeLine="98" fill="#F1F1F1" height="64.2969" id="Command" rx="2.5" ry="2.5" style="stroke:#181818;stroke-width:0.5;" width="386" x="1927.5" y="31.5"/><ellipse cx="2079.25" cy="47.5" fill="#B4A7E5" rx="11" ry="11" style="stroke:#181818;stroke-width:1.0;"/><path d="M2080.2031,44.2813 L2081.9219,44.2813 C2082.3125,44.2813 2082.5,44.25 2082.625,44.1719 C2082.8906,44.0156 2083.0313,43.7344 2083.0313,43.4375 C2083.0313,43.1719 2082.9219,42.9063 2082.6875,42.7344 C2082.5156,42.625 2082.375,42.5938 2081.9219,42.5938 L2076.7813,42.5938 C2076.3438,42.5938 2076.2188,42.6094 2076.0625,42.7031 C2075.8125,42.8594 2075.6563,43.1563 2075.6563,43.4375 C2075.6563,43.7188 2075.7969,43.9688 2076.0156,44.1406 C2076.1719,44.25 2076.3594,44.2813 2076.7813,44.2813 L2078.5,44.2813 L2078.5,50.7969 L2076.7813,50.7969 C2076.3438,50.7969 2076.2188,50.8125 2076.0625,50.9219 C2075.8125,51.0781 2075.6563,51.3594 2075.6563,51.6563 C2075.6563,51.9063 2075.7969,52.1719 2076.0156,52.3281 C2076.1719,52.4531 2076.375,52.5 2076.7813,52.5 L2081.9219,52.5 C2082.6719,52.5 2083.0313,52.2188 2083.0313,51.6563 C2083.0313,51.375 2082.9219,51.125 2082.6875,50.9531 C2082.5156,50.8281 2082.375,50.7969 2081.9219,50.7969 L2080.2031,50.7969 L2080.2031,44.2813 Z " fill="#000000"/><text fill="#000000" font-family="sans-serif" font-size="14" font-style="italic" lengthAdjust="spacing" textLength="74" x="2099.75" y="52.3467">Command</text><line style="stroke:#181818;stroke-width:0.5;" x1="1928.5" x2="2312.5" y1="63.5" y2="63.5"/><line style="stroke:#181818;stroke-width:0.5;" x1="1928.5" x2="2312.5" y1="71.5" y2="71.5"/><ellipse cx="1938.5" cy="82.5" fill="#84BE84" rx="3" ry="3" style="stroke:#038048;stroke-width:1.0;"/><text fill="#000000" font-family="sans-serif" font-size="14" lengthAdjust="spacing" textLength="360" x="1947.5" y="88.4951">execute(params: Params): Promise&lt;void | Todo[]&gt;</text></g><!--MD5=[522bcce41d81f20cd1f9638a73c3e08a]
class DeleteCommand--><g id="elem_DeleteCommand"><rect codeLine="14" fill="#F1F1F1" height="80.5938" id="DeleteCommand" rx="2.5" ry="2.5" style="stroke:#181818;stroke-width:0.5;" width="386" x="1717.5" y="367"/><ellipse cx="1845.25" cy="383" fill="#ADD1B2" rx="11" ry="11" style="stroke:#181818;stroke-width:1.0;"/><path d="M1847.5938,378.6719 C1846.6563,378.2344 1846.0625,378.0938 1845.1875,378.0938 C1842.5625,378.0938 1840.5625,380.1719 1840.5625,382.8906 L1840.5625,384.0156 C1840.5625,386.5938 1842.6719,388.4844 1845.5625,388.4844 C1846.7813,388.4844 1847.9375,388.1875 1848.6875,387.6406 C1849.2656,387.2344 1849.5938,386.7813 1849.5938,386.3906 C1849.5938,385.9375 1849.2031,385.5469 1848.7344,385.5469 C1848.5156,385.5469 1848.3125,385.625 1848.125,385.8125 C1847.6719,386.2969 1847.6719,386.2969 1847.4844,386.3906 C1847.0625,386.6563 1846.375,386.7813 1845.6094,386.7813 C1843.5625,386.7813 1842.2656,385.6875 1842.2656,383.9844 L1842.2656,382.8906 C1842.2656,381.1094 1843.5156,379.7969 1845.25,379.7969 C1845.8281,379.7969 1846.4375,379.9531 1846.9063,380.2031 C1847.3906,380.4844 1847.5625,380.7031 1847.6563,381.1094 C1847.7188,381.5156 1847.75,381.6406 1847.8906,381.7656 C1848.0313,381.9063 1848.2656,382.0156 1848.4844,382.0156 C1848.75,382.0156 1849.0156,381.875 1849.1875,381.6563 C1849.2969,381.5 1849.3281,381.3125 1849.3281,380.8906 L1849.3281,379.4688 C1849.3281,379.0313 1849.3125,378.9063 1849.2188,378.75 C1849.0625,378.4844 1848.7813,378.3438 1848.4844,378.3438 C1848.1875,378.3438 1847.9844,378.4375 1847.7656,378.75 L1847.5938,378.6719 Z " fill="#000000"/><text fill="#000000" font-family="sans-serif" font-size="14" lengthAdjust="spacing" textLength="122" x="1865.75" y="387.8467">DeleteCommand</text><line style="stroke:#181818;stroke-width:0.5;" x1="1718.5" x2="2102.5" y1="399" y2="399"/><rect fill="none" height="6" style="stroke:#C82930;stroke-width:1.0;" width="6" x="1725.5" y="407"/><text fill="#000000" font-family="sans-serif" font-size="14" lengthAdjust="spacing" textLength="79" x="1737.5" y="415.9951">type: Type</text><line style="stroke:#181818;stroke-width:0.5;" x1="1718.5" x2="2102.5" y1="423.2969" y2="423.2969"/><ellipse cx="1728.5" cy="434.2969" fill="#84BE84" rx="3" ry="3" style="stroke:#038048;stroke-width:1.0;"/><text fill="#000000" font-family="sans-serif" font-size="14" lengthAdjust="spacing" textLength="360" x="1737.5" y="440.292">execute(params: Params): Promise&lt;void | Todo[]&gt;</text></g><!--MD5=[860a12987066b8aebfd02ff37a4e9912]
class ReadCommand--><g id="elem_ReadCommand"><rect codeLine="18" fill="#F1F1F1" height="80.5938" id="ReadCommand" rx="2.5" ry="2.5" style="stroke:#181818;stroke-width:0.5;" width="386" x="2138.5" y="367"/><ellipse cx="2272.75" cy="383" fill="#ADD1B2" rx="11" ry="11" style="stroke:#181818;stroke-width:1.0;"/><path d="M2275.0938,378.6719 C2274.1563,378.2344 2273.5625,378.0938 2272.6875,378.0938 C2270.0625,378.0938 2268.0625,380.1719 2268.0625,382.8906 L2268.0625,384.0156 C2268.0625,386.5938 2270.1719,388.4844 2273.0625,388.4844 C2274.2813,388.4844 2275.4375,388.1875 2276.1875,387.6406 C2276.7656,387.2344 2277.0938,386.7813 2277.0938,386.3906 C2277.0938,385.9375 2276.7031,385.5469 2276.2344,385.5469 C2276.0156,385.5469 2275.8125,385.625 2275.625,385.8125 C2275.1719,386.2969 2275.1719,386.2969 2274.9844,386.3906 C2274.5625,386.6563 2273.875,386.7813 2273.1094,386.7813 C2271.0625,386.7813 2269.7656,385.6875 2269.7656,383.9844 L2269.7656,382.8906 C2269.7656,381.1094 2271.0156,379.7969 2272.75,379.7969 C2273.3281,379.7969 2273.9375,379.9531 2274.4063,380.2031 C2274.8906,380.4844 2275.0625,380.7031 2275.1563,381.1094 C2275.2188,381.5156 2275.25,381.6406 2275.3906,381.7656 C2275.5313,381.9063 2275.7656,382.0156 2275.9844,382.0156 C2276.25,382.0156 2276.5156,381.875 2276.6875,381.6563 C2276.7969,381.5 2276.8281,381.3125 2276.8281,380.8906 L2276.8281,379.4688 C2276.8281,379.0313 2276.8125,378.9063 2276.7188,378.75 C2276.5625,378.4844 2276.2813,378.3438 2275.9844,378.3438 C2275.6875,378.3438 2275.4844,378.4375 2275.2656,378.75 L2275.0938,378.6719 Z " fill="#000000"/><text fill="#000000" font-family="sans-serif" font-size="14" lengthAdjust="spacing" textLength="109" x="2293.25" y="387.8467">ReadCommand</text><line style="stroke:#181818;stroke-width:0.5;" x1="2139.5" x2="2523.5" y1="399" y2="399"/><rect fill="none" height="6" style="stroke:#C82930;stroke-width:1.0;" width="6" x="2146.5" y="407"/><text fill="#000000" font-family="sans-serif" font-size="14" lengthAdjust="spacing" textLength="79" x="2158.5" y="415.9951">type: Type</text><line style="stroke:#181818;stroke-width:0.5;" x1="2139.5" x2="2523.5" y1="423.2969" y2="423.2969"/><ellipse cx="2149.5" cy="434.2969" fill="#84BE84" rx="3" ry="3" style="stroke:#038048;stroke-width:1.0;"/><text fill="#000000" font-family="sans-serif" font-size="14" lengthAdjust="spacing" textLength="360" x="2158.5" y="440.292">execute(params: Params): Promise&lt;void | Todo[]&gt;</text></g><!--MD5=[63bad1f31134c1e488d3f6c2fa12da5b]
class UpdateCommand--><g id="elem_UpdateCommand"><rect codeLine="22" fill="#F1F1F1" height="80.5938" id="UpdateCommand" rx="2.5" ry="2.5" style="stroke:#181818;stroke-width:0.5;" width="386" x="2559.5" y="367"/><ellipse cx="2685.75" cy="383" fill="#ADD1B2" rx="11" ry="11" style="stroke:#181818;stroke-width:1.0;"/><path d="M2688.0938,378.6719 C2687.1563,378.2344 2686.5625,378.0938 2685.6875,378.0938 C2683.0625,378.0938 2681.0625,380.1719 2681.0625,382.8906 L2681.0625,384.0156 C2681.0625,386.5938 2683.1719,388.4844 2686.0625,388.4844 C2687.2813,388.4844 2688.4375,388.1875 2689.1875,387.6406 C2689.7656,387.2344 2690.0938,386.7813 2690.0938,386.3906 C2690.0938,385.9375 2689.7031,385.5469 2689.2344,385.5469 C2689.0156,385.5469 2688.8125,385.625 2688.625,385.8125 C2688.1719,386.2969 2688.1719,386.2969 2687.9844,386.3906 C2687.5625,386.6563 2686.875,386.7813 2686.1094,386.7813 C2684.0625,386.7813 2682.7656,385.6875 2682.7656,383.9844 L2682.7656,382.8906 C2682.7656,381.1094 2684.0156,379.7969 2685.75,379.7969 C2686.3281,379.7969 2686.9375,379.9531 2687.4063,380.2031 C2687.8906,380.4844 2688.0625,380.7031 2688.1563,381.1094 C2688.2188,381.5156 2688.25,381.6406 2688.3906,381.7656 C2688.5313,381.9063 2688.7656,382.0156 2688.9844,382.0156 C2689.25,382.0156 2689.5156,381.875 2689.6875,381.6563 C2689.7969,381.5 2689.8281,381.3125 2689.8281,380.8906 L2689.8281,379.4688 C2689.8281,379.0313 2689.8125,378.9063 2689.7188,378.75 C2689.5625,378.4844 2689.2813,378.3438 2688.9844,378.3438 C2688.6875,378.3438 2688.4844,378.4375 2688.2656,378.75 L2688.0938,378.6719 Z " fill="#000000"/><text fill="#000000" font-family="sans-serif" font-size="14" lengthAdjust="spacing" textLength="125" x="2706.25" y="387.8467">UpdateCommand</text><line style="stroke:#181818;stroke-width:0.5;" x1="2560.5" x2="2944.5" y1="399" y2="399"/><rect fill="none" height="6" style="stroke:#C82930;stroke-width:1.0;" width="6" x="2567.5" y="407"/><text fill="#000000" font-family="sans-serif" font-size="14" lengthAdjust="spacing" textLength="79" x="2579.5" y="415.9951">type: Type</text><line style="stroke:#181818;stroke-width:0.5;" x1="2560.5" x2="2944.5" y1="423.2969" y2="423.2969"/><ellipse cx="2570.5" cy="434.2969" fill="#84BE84" rx="3" ry="3" style="stroke:#038048;stroke-width:1.0;"/><text fill="#000000" font-family="sans-serif" font-size="14" lengthAdjust="spacing" textLength="360" x="2579.5" y="440.292">execute(params: Params): Promise&lt;void | Todo[]&gt;</text></g><!--MD5=[67f100d94b12044e782866d6f1627f13]
class CompletedAt--><g id="elem_CompletedAt"><rect codeLine="26" fill="#F1F1F1" height="96.8906" id="CompletedAt" rx="2.5" ry="2.5" style="stroke:#181818;stroke-width:0.5;" width="351" x="7" y="15"/><ellipse cx="129.25" cy="31" fill="#ADD1B2" rx="11" ry="11" style="stroke:#181818;stroke-width:1.0;"/><path d="M131.5938,26.6719 C130.6563,26.2344 130.0625,26.0938 129.1875,26.0938 C126.5625,26.0938 124.5625,28.1719 124.5625,30.8906 L124.5625,32.0156 C124.5625,34.5938 126.6719,36.4844 129.5625,36.4844 C130.7813,36.4844 131.9375,36.1875 132.6875,35.6406 C133.2656,35.2344 133.5938,34.7813 133.5938,34.3906 C133.5938,33.9375 133.2031,33.5469 132.7344,33.5469 C132.5156,33.5469 132.3125,33.625 132.125,33.8125 C131.6719,34.2969 131.6719,34.2969 131.4844,34.3906 C131.0625,34.6563 130.375,34.7813 129.6094,34.7813 C127.5625,34.7813 126.2656,33.6875 126.2656,31.9844 L126.2656,30.8906 C126.2656,29.1094 127.5156,27.7969 129.25,27.7969 C129.8281,27.7969 130.4375,27.9531 130.9063,28.2031 C131.3906,28.4844 131.5625,28.7031 131.6563,29.1094 C131.7188,29.5156 131.75,29.6406 131.8906,29.7656 C132.0313,29.9063 132.2656,30.0156 132.4844,30.0156 C132.75,30.0156 133.0156,29.875 133.1875,29.6563 C133.2969,29.5 133.3281,29.3125 133.3281,28.8906 L133.3281,27.4688 C133.3281,27.0313 133.3125,26.9063 133.2188,26.75 C133.0625,26.4844 132.7813,26.3438 132.4844,26.3438 C132.1875,26.3438 131.9844,26.4375 131.7656,26.75 L131.5938,26.6719 Z " fill="#000000"/><text fill="#000000" font-family="sans-serif" font-size="14" lengthAdjust="spacing" textLength="98" x="149.75" y="35.8467">CompletedAt</text><line style="stroke:#181818;stroke-width:0.5;" x1="8" x2="357" y1="47" y2="47"/><rect fill="none" height="6" style="stroke:#C82930;stroke-width:1.0;" width="6" x="15" y="55"/><text fill="#000000" font-family="sans-serif" font-size="14" lengthAdjust="spacing" textLength="119" x="27" y="63.9951">value: Date | null</text><ellipse cx="18" cy="74.2969" fill="none" rx="3" ry="3" style="stroke:#038048;stroke-width:1.0;"/><text fill="#000000" font-family="sans-serif" font-size="14" lengthAdjust="spacing" textLength="121" x="27" y="80.292">Value: Date | null</text><line style="stroke:#181818;stroke-width:0.5;" x1="8" x2="357" y1="87.5938" y2="87.5938"/><ellipse cx="18" cy="98.5938" fill="#84BE84" rx="3" ry="3" style="stroke:#038048;stroke-width:1.0;"/><text fill="#000000" font-family="sans-serif" font-size="14" lengthAdjust="spacing" textLength="325" x="27" y="104.5889">equals(completedAt: CompletedAt): boolean</text></g><!--MD5=[dde4359a43de047b4d984bc31705a409]
class CreatedAt--><g id="elem_CreatedAt"><rect codeLine="31" fill="#F1F1F1" height="96.8906" id="CreatedAt" rx="2.5" ry="2.5" style="stroke:#181818;stroke-width:0.5;" width="305" x="393" y="15"/><ellipse cx="503.75" cy="31" fill="#ADD1B2" rx="11" ry="11" style="stroke:#181818;stroke-width:1.0;"/><path d="M506.0938,26.6719 C505.1563,26.2344 504.5625,26.0938 503.6875,26.0938 C501.0625,26.0938 499.0625,28.1719 499.0625,30.8906 L499.0625,32.0156 C499.0625,34.5938 501.1719,36.4844 504.0625,36.4844 C505.2813,36.4844 506.4375,36.1875 507.1875,35.6406 C507.7656,35.2344 508.0938,34.7813 508.0938,34.3906 C508.0938,33.9375 507.7031,33.5469 507.2344,33.5469 C507.0156,33.5469 506.8125,33.625 506.625,33.8125 C506.1719,34.2969 506.1719,34.2969 505.9844,34.3906 C505.5625,34.6563 504.875,34.7813 504.1094,34.7813 C502.0625,34.7813 500.7656,33.6875 500.7656,31.9844 L500.7656,30.8906 C500.7656,29.1094 502.0156,27.7969 503.75,27.7969 C504.3281,27.7969 504.9375,27.9531 505.4063,28.2031 C505.8906,28.4844 506.0625,28.7031 506.1563,29.1094 C506.2188,29.5156 506.25,29.6406 506.3906,29.7656 C506.5313,29.9063 506.7656,30.0156 506.9844,30.0156 C507.25,30.0156 507.5156,29.875 507.6875,29.6563 C507.7969,29.5 507.8281,29.3125 507.8281,28.8906 L507.8281,27.4688 C507.8281,27.0313 507.8125,26.9063 507.7188,26.75 C507.5625,26.4844 507.2813,26.3438 506.9844,26.3438 C506.6875,26.3438 506.4844,26.4375 506.2656,26.75 L506.0938,26.6719 Z " fill="#000000"/><text fill="#000000" font-family="sans-serif" font-size="14" lengthAdjust="spacing" textLength="75" x="524.25" y="35.8467">CreatedAt</text><line style="stroke:#181818;stroke-width:0.5;" x1="394" x2="697" y1="47" y2="47"/><rect fill="none" height="6" style="stroke:#C82930;stroke-width:1.0;" width="6" x="401" y="55"/><text fill="#000000" font-family="sans-serif" font-size="14" lengthAdjust="spacing" textLength="81" x="413" y="63.9951">value: Date</text><ellipse cx="404" cy="74.2969" fill="none" rx="3" ry="3" style="stroke:#038048;stroke-width:1.0;"/><text fill="#000000" font-family="sans-serif" font-size="14" lengthAdjust="spacing" textLength="83" x="413" y="80.292">Value: Date</text><line style="stroke:#181818;stroke-width:0.5;" x1="394" x2="697" y1="87.5938" y2="87.5938"/><ellipse cx="404" cy="98.5938" fill="#84BE84" rx="3" ry="3" style="stroke:#038048;stroke-width:1.0;"/><text fill="#000000" font-family="sans-serif" font-size="14" lengthAdjust="spacing" textLength="279" x="413" y="104.5889">equals(createdAt: CreatedAt): boolean</text></g><!--MD5=[cf3bb39649ce7f8bfa01714f85686c3f]
class DueDate--><g id="elem_DueDate"><rect codeLine="36" fill="#F1F1F1" height="113.1875" id="DueDate" rx="2.5" ry="2.5" style="stroke:#181818;stroke-width:0.5;" width="281" x="733" y="7"/><ellipse cx="837.75" cy="23" fill="#ADD1B2" rx="11" ry="11" style="stroke:#181818;stroke-width:1.0;"/><path d="M840.0938,18.6719 C839.1563,18.2344 838.5625,18.0938 837.6875,18.0938 C835.0625,18.0938 833.0625,20.1719 833.0625,22.8906 L833.0625,24.0156 C833.0625,26.5938 835.1719,28.4844 838.0625,28.4844 C839.2813,28.4844 840.4375,28.1875 841.1875,27.6406 C841.7656,27.2344 842.0938,26.7813 842.0938,26.3906 C842.0938,25.9375 841.7031,25.5469 841.2344,25.5469 C841.0156,25.5469 840.8125,25.625 840.625,25.8125 C840.1719,26.2969 840.1719,26.2969 839.9844,26.3906 C839.5625,26.6563 838.875,26.7813 838.1094,26.7813 C836.0625,26.7813 834.7656,25.6875 834.7656,23.9844 L834.7656,22.8906 C834.7656,21.1094 836.0156,19.7969 837.75,19.7969 C838.3281,19.7969 838.9375,19.9531 839.4063,20.2031 C839.8906,20.4844 840.0625,20.7031 840.1563,21.1094 C840.2188,21.5156 840.25,21.6406 840.3906,21.7656 C840.5313,21.9063 840.7656,22.0156 840.9844,22.0156 C841.25,22.0156 841.5156,21.875 841.6875,21.6563 C841.7969,21.5 841.8281,21.3125 841.8281,20.8906 L841.8281,19.4688 C841.8281,19.0313 841.8125,18.9063 841.7188,18.75 C841.5625,18.4844 841.2813,18.3438 840.9844,18.3438 C840.6875,18.3438 840.4844,18.4375 840.2656,18.75 L840.0938,18.6719 Z " fill="#000000"/><text fill="#000000" font-family="sans-serif" font-size="14" lengthAdjust="spacing" textLength="63" x="858.25" y="27.8467">DueDate</text><line style="stroke:#181818;stroke-width:0.5;" x1="734" x2="1013" y1="39" y2="39"/><rect fill="none" height="6" style="stroke:#C82930;stroke-width:1.0;" width="6" x="741" y="47"/><text fill="#000000" font-family="sans-serif" font-size="14" lengthAdjust="spacing" textLength="119" x="753" y="55.9951">value: Date | null</text><ellipse cx="744" cy="66.2969" fill="none" rx="3" ry="3" style="stroke:#038048;stroke-width:1.0;"/><text fill="#000000" font-family="sans-serif" font-size="14" lengthAdjust="spacing" textLength="121" x="753" y="72.292">Value: Date | null</text><line style="stroke:#181818;stroke-width:0.5;" x1="734" x2="1013" y1="79.5938" y2="79.5938"/><ellipse cx="744" cy="90.5938" fill="#84BE84" rx="3" ry="3" style="stroke:#038048;stroke-width:1.0;"/><text fill="#000000" font-family="sans-serif" font-size="14" lengthAdjust="spacing" textLength="255" x="753" y="96.5889">equals(dueDate: DueDate): boolean</text><ellipse cx="744" cy="106.8906" fill="#84BE84" rx="3" ry="3" style="stroke:#038048;stroke-width:1.0;"/><text fill="#000000" font-family="sans-serif" font-size="14" lengthAdjust="spacing" textLength="137" x="753" y="112.8857">overDue(): boolean</text></g><!--MD5=[90111e5cdc788a7ef73a3273c23dcc2b]
class Title--><g id="elem_Title"><rect codeLine="42" fill="#F1F1F1" height="96.8906" id="Title" rx="2.5" ry="2.5" style="stroke:#181818;stroke-width:0.5;" width="230" x="67.5" y="359"/><ellipse cx="161.75" cy="375" fill="#ADD1B2" rx="11" ry="11" style="stroke:#181818;stroke-width:1.0;"/><path d="M164.0938,370.6719 C163.1563,370.2344 162.5625,370.0938 161.6875,370.0938 C159.0625,370.0938 157.0625,372.1719 157.0625,374.8906 L157.0625,376.0156 C157.0625,378.5938 159.1719,380.4844 162.0625,380.4844 C163.2813,380.4844 164.4375,380.1875 165.1875,379.6406 C165.7656,379.2344 166.0938,378.7813 166.0938,378.3906 C166.0938,377.9375 165.7031,377.5469 165.2344,377.5469 C165.0156,377.5469 164.8125,377.625 164.625,377.8125 C164.1719,378.2969 164.1719,378.2969 163.9844,378.3906 C163.5625,378.6563 162.875,378.7813 162.1094,378.7813 C160.0625,378.7813 158.7656,377.6875 158.7656,375.9844 L158.7656,374.8906 C158.7656,373.1094 160.0156,371.7969 161.75,371.7969 C162.3281,371.7969 162.9375,371.9531 163.4063,372.2031 C163.8906,372.4844 164.0625,372.7031 164.1563,373.1094 C164.2188,373.5156 164.25,373.6406 164.3906,373.7656 C164.5313,373.9063 164.7656,374.0156 164.9844,374.0156 C165.25,374.0156 165.5156,373.875 165.6875,373.6563 C165.7969,373.5 165.8281,373.3125 165.8281,372.8906 L165.8281,371.4688 C165.8281,371.0313 165.8125,370.9063 165.7188,370.75 C165.5625,370.4844 165.2813,370.3438 164.9844,370.3438 C164.6875,370.3438 164.4844,370.4375 164.2656,370.75 L164.0938,370.6719 Z " fill="#000000"/><text fill="#000000" font-family="sans-serif" font-size="14" lengthAdjust="spacing" textLength="33" x="182.25" y="379.8467">Title</text><line style="stroke:#181818;stroke-width:0.5;" x1="68.5" x2="296.5" y1="391" y2="391"/><rect fill="none" height="6" style="stroke:#C82930;stroke-width:1.0;" width="6" x="75.5" y="399"/><text fill="#000000" font-family="sans-serif" font-size="14" lengthAdjust="spacing" textLength="88" x="87.5" y="407.9951">value: string</text><ellipse cx="78.5" cy="418.2969" fill="none" rx="3" ry="3" style="stroke:#038048;stroke-width:1.0;"/><text fill="#000000" font-family="sans-serif" font-size="14" lengthAdjust="spacing" textLength="90" x="87.5" y="424.292">Value: string</text><line style="stroke:#181818;stroke-width:0.5;" x1="68.5" x2="296.5" y1="431.5938" y2="431.5938"/><ellipse cx="78.5" cy="442.5938" fill="#84BE84" rx="3" ry="3" style="stroke:#038048;stroke-width:1.0;"/><text fill="#000000" font-family="sans-serif" font-size="14" lengthAdjust="spacing" textLength="204" x="87.5" y="448.5889">equals(other: Title): boolean</text></g><!--MD5=[cf45e8ad0333bb05467ac0b4d70787c5]
class TodoEntity--><g id="elem_TodoEntity"><rect codeLine="67" fill="#F1F1F1" height="162.0781" id="TodoEntity" rx="2.5" ry="2.5" style="stroke:#181818;stroke-width:0.5;" width="204" x="332.5" y="326.5"/><ellipse cx="390.25" cy="342.5" fill="#ADD1B2" rx="11" ry="11" style="stroke:#181818;stroke-width:1.0;"/><path d="M392.5938,338.1719 C391.6563,337.7344 391.0625,337.5938 390.1875,337.5938 C387.5625,337.5938 385.5625,339.6719 385.5625,342.3906 L385.5625,343.5156 C385.5625,346.0938 387.6719,347.9844 390.5625,347.9844 C391.7813,347.9844 392.9375,347.6875 393.6875,347.1406 C394.2656,346.7344 394.5938,346.2813 394.5938,345.8906 C394.5938,345.4375 394.2031,345.0469 393.7344,345.0469 C393.5156,345.0469 393.3125,345.125 393.125,345.3125 C392.6719,345.7969 392.6719,345.7969 392.4844,345.8906 C392.0625,346.1563 391.375,346.2813 390.6094,346.2813 C388.5625,346.2813 387.2656,345.1875 387.2656,343.4844 L387.2656,342.3906 C387.2656,340.6094 388.5156,339.2969 390.25,339.2969 C390.8281,339.2969 391.4375,339.4531 391.9063,339.7031 C392.3906,339.9844 392.5625,340.2031 392.6563,340.6094 C392.7188,341.0156 392.75,341.1406 392.8906,341.2656 C393.0313,341.4063 393.2656,341.5156 393.4844,341.5156 C393.75,341.5156 394.0156,341.375 394.1875,341.1563 C394.2969,341 394.3281,340.8125 394.3281,340.3906 L394.3281,338.9688 C394.3281,338.5313 394.3125,338.4063 394.2188,338.25 C394.0625,337.9844 393.7813,337.8438 393.4844,337.8438 C393.1875,337.8438 392.9844,337.9375 392.7656,338.25 L392.5938,338.1719 Z " fill="#000000"/><text fill="#000000" font-family="sans-serif" font-size="14" lengthAdjust="spacing" textLength="80" x="410.75" y="347.3467">TodoEntity</text><line style="stroke:#181818;stroke-width:0.5;" x1="333.5" x2="535.5" y1="358.5" y2="358.5"/><ellipse cx="343.5" cy="369.5" fill="none" rx="3" ry="3" style="stroke:#038048;stroke-width:1.0;"/><text fill="#000000" font-family="sans-serif" font-size="14" lengthAdjust="spacing" textLength="78" x="352.5" y="375.4951">id: number</text><ellipse cx="343.5" cy="385.7969" fill="none" rx="3" ry="3" style="stroke:#038048;stroke-width:1.0;"/><text fill="#000000" font-family="sans-serif" font-size="14" lengthAdjust="spacing" textLength="82" x="352.5" y="391.792">title: string</text><ellipse cx="343.5" cy="402.0938" fill="none" rx="3" ry="3" style="stroke:#038048;stroke-width:1.0;"/><text fill="#000000" font-family="sans-serif" font-size="14" lengthAdjust="spacing" textLength="146" x="352.5" y="408.0889">completed: boolean</text><ellipse cx="343.5" cy="418.3906" fill="none" rx="3" ry="3" style="stroke:#038048;stroke-width:1.0;"/><text fill="#000000" font-family="sans-serif" font-size="14" lengthAdjust="spacing" textLength="143" x="352.5" y="424.3857">dueDate: Date | null</text><ellipse cx="343.5" cy="434.6875" fill="none" rx="3" ry="3" style="stroke:#038048;stroke-width:1.0;"/><text fill="#000000" font-family="sans-serif" font-size="14" lengthAdjust="spacing" textLength="117" x="352.5" y="440.6826">createdAt: Date</text><ellipse cx="343.5" cy="450.9844" fill="none" rx="3" ry="3" style="stroke:#038048;stroke-width:1.0;"/><text fill="#000000" font-family="sans-serif" font-size="14" lengthAdjust="spacing" textLength="178" x="352.5" y="456.9795">completedAt: Date | null</text><ellipse cx="343.5" cy="467.2813" fill="none" rx="3" ry="3" style="stroke:#038048;stroke-width:1.0;"/><text fill="#000000" font-family="sans-serif" font-size="14" lengthAdjust="spacing" textLength="95" x="352.5" y="473.2764">status: string</text><line style="stroke:#181818;stroke-width:0.5;" x1="333.5" x2="535.5" y1="480.5781" y2="480.5781"/></g><!--MD5=[4c557e82ab1fd837e5a934d1e0e1cd2c]
class TodoRepository--><g id="elem_TodoRepository"><rect codeLine="76" fill="#F1F1F1" height="129.4844" id="TodoRepository" rx="2.5" ry="2.5" style="stroke:#181818;stroke-width:0.5;" width="389" x="572" y="343"/><ellipse cx="704.75" cy="359" fill="#ADD1B2" rx="11" ry="11" style="stroke:#181818;stroke-width:1.0;"/><path d="M707.0938,354.6719 C706.1563,354.2344 705.5625,354.0938 704.6875,354.0938 C702.0625,354.0938 700.0625,356.1719 700.0625,358.8906 L700.0625,360.0156 C700.0625,362.5938 702.1719,364.4844 705.0625,364.4844 C706.2813,364.4844 707.4375,364.1875 708.1875,363.6406 C708.7656,363.2344 709.0938,362.7813 709.0938,362.3906 C709.0938,361.9375 708.7031,361.5469 708.2344,361.5469 C708.0156,361.5469 707.8125,361.625 707.625,361.8125 C707.1719,362.2969 707.1719,362.2969 706.9844,362.3906 C706.5625,362.6563 705.875,362.7813 705.1094,362.7813 C703.0625,362.7813 701.7656,361.6875 701.7656,359.9844 L701.7656,358.8906 C701.7656,357.1094 703.0156,355.7969 704.75,355.7969 C705.3281,355.7969 705.9375,355.9531 706.4063,356.2031 C706.8906,356.4844 707.0625,356.7031 707.1563,357.1094 C707.2188,357.5156 707.25,357.6406 707.3906,357.7656 C707.5313,357.9063 707.7656,358.0156 707.9844,358.0156 C708.25,358.0156 708.5156,357.875 708.6875,357.6563 C708.7969,357.5 708.8281,357.3125 708.8281,356.8906 L708.8281,355.4688 C708.8281,355.0313 708.8125,354.9063 708.7188,354.75 C708.5625,354.4844 708.2813,354.3438 707.9844,354.3438 C707.6875,354.3438 707.4844,354.4375 707.2656,354.75 L707.0938,354.6719 Z " fill="#000000"/><text fill="#000000" font-family="sans-serif" font-size="14" lengthAdjust="spacing" textLength="115" x="725.25" y="363.8467">TodoRepository</text><line style="stroke:#181818;stroke-width:0.5;" x1="573" x2="960" y1="375" y2="375"/><rect fill="none" height="6" style="stroke:#C82930;stroke-width:1.0;" width="6" x="580" y="383"/><text fill="#000000" font-family="sans-serif" font-size="14" lengthAdjust="spacing" textLength="229" x="592" y="391.9951">repository: Repository&lt;Entity&gt;</text><line style="stroke:#181818;stroke-width:0.5;" x1="573" x2="960" y1="399.2969" y2="399.2969"/><ellipse cx="583" cy="410.2969" fill="#84BE84" rx="3" ry="3" style="stroke:#038048;stroke-width:1.0;"/><text fill="#000000" font-family="sans-serif" font-size="14" lengthAdjust="spacing" textLength="281" x="592" y="416.292">getTodos(): Promise&lt;DomainObject[]&gt;</text><ellipse cx="583" cy="426.5938" fill="#84BE84" rx="3" ry="3" style="stroke:#038048;stroke-width:1.0;"/><text fill="#000000" font-family="sans-serif" font-size="14" lengthAdjust="spacing" textLength="338" x="592" y="432.5889">addTodo(todo: DomainObject): Promise&lt;void&gt;</text><ellipse cx="583" cy="442.8906" fill="#84BE84" rx="3" ry="3" style="stroke:#038048;stroke-width:1.0;"/><text fill="#000000" font-family="sans-serif" font-size="14" lengthAdjust="spacing" textLength="359" x="592" y="448.8857">deleteTodo(todo: DomainObject): Promise&lt;void&gt;</text><ellipse cx="583" cy="459.1875" fill="#84BE84" rx="3" ry="3" style="stroke:#038048;stroke-width:1.0;"/><text fill="#000000" font-family="sans-serif" font-size="14" lengthAdjust="spacing" textLength="363" x="592" y="465.1826">updateTodo(todo: DomainObject): Promise&lt;void&gt;</text></g><!--MD5=[4296a1ab0576a383a1a509d52c22ebf0]
class Type--><g id="elem_Type"><rect codeLine="83" fill="#F1F1F1" height="113.1875" id="Type" rx="2.5" ry="2.5" style="stroke:#181818;stroke-width:0.5;" width="69" x="148" y="719.5"/><ellipse cx="163.45" cy="735.5" fill="#EB937F" rx="11" ry="11" style="stroke:#181818;stroke-width:1.0;"/><path d="M162.2469,736.375 L163.7,736.375 L163.7,736.4844 C163.7,736.8906 163.7313,737.0469 163.8094,737.2031 C163.9656,737.4531 164.2469,737.6094 164.5438,737.6094 C164.7938,737.6094 165.0594,737.4688 165.2156,737.25 C165.3406,737.0938 165.3719,736.9375 165.3719,736.4844 L165.3719,734.5625 C165.3719,734.4063 165.3719,734.3594 165.3563,734.2031 C165.2938,733.7344 164.9813,733.4219 164.5281,733.4219 C164.2781,733.4219 164.0125,733.5625 163.8406,733.7813 C163.7313,733.9531 163.7,734.1094 163.7,734.5625 L163.7,734.6875 L162.2469,734.6875 L162.2469,732.2813 L166.2313,732.2813 L166.2313,733.1406 C166.2313,733.5469 166.2625,733.7188 166.3406,733.875 C166.5125,734.125 166.7938,734.2813 167.075,734.2813 C167.3406,734.2813 167.6063,734.1406 167.7781,733.9219 C167.8875,733.75 167.9188,733.6094 167.9188,733.1406 L167.9188,730.5938 L160.2938,730.5938 C159.8563,730.5938 159.7313,730.6094 159.575,730.7031 C159.325,730.8594 159.1688,731.1563 159.1688,731.4375 C159.1688,731.7188 159.3094,731.9688 159.5281,732.1406 C159.6844,732.25 159.8719,732.2813 160.2938,732.2813 L160.5438,732.2813 L160.5438,738.7969 L160.2938,738.7969 C159.8875,738.7969 159.7313,738.8125 159.575,738.9219 C159.325,739.0938 159.1688,739.3594 159.1688,739.6563 C159.1688,739.9219 159.3094,740.1719 159.5281,740.3281 C159.6688,740.4531 159.9031,740.5 160.2938,740.5 L168.2938,740.5 L168.2938,737.9219 C168.2938,737.4844 168.2625,737.3438 168.1844,737.1875 C168.0125,736.9375 167.7313,736.7813 167.45,736.7813 C167.1844,736.7813 166.9188,736.8906 166.7469,737.1406 C166.6375,737.2969 166.6063,737.4375 166.6063,737.9219 L166.6063,738.7969 L162.2469,738.7969 L162.2469,736.375 Z " fill="#000000"/><text fill="#000000" font-family="sans-serif" font-size="14" lengthAdjust="spacing" textLength="36" x="177.55" y="740.3467">Type</text><line style="stroke:#181818;stroke-width:0.5;" x1="149" x2="216" y1="751.5" y2="751.5"/><text fill="#000000" font-family="sans-serif" font-size="14" lengthAdjust="spacing" textLength="57" x="154" y="768.4951">CREATE</text><text fill="#000000" font-family="sans-serif" font-size="14" lengthAdjust="spacing" textLength="40" x="154" y="784.792">READ</text><text fill="#000000" font-family="sans-serif" font-size="14" lengthAdjust="spacing" textLength="57" x="154" y="801.0889">UPDATE</text><text fill="#000000" font-family="sans-serif" font-size="14" lengthAdjust="spacing" textLength="55" x="154" y="817.3857">DELETE</text><line style="stroke:#181818;stroke-width:0.5;" x1="149" x2="216" y1="824.6875" y2="824.6875"/></g><!--MD5=[607c01281c15983c44675f9e6dea3db6]
class TodoService--><g id="elem_TodoService"><rect codeLine="89" fill="#F1F1F1" height="162.0781" id="TodoService" rx="2.5" ry="2.5" style="stroke:#181818;stroke-width:0.5;" width="386" x="252.5" y="695"/><ellipse cx="396.75" cy="711" fill="#ADD1B2" rx="11" ry="11" style="stroke:#181818;stroke-width:1.0;"/><path d="M399.0938,706.6719 C398.1563,706.2344 397.5625,706.0938 396.6875,706.0938 C394.0625,706.0938 392.0625,708.1719 392.0625,710.8906 L392.0625,712.0156 C392.0625,714.5938 394.1719,716.4844 397.0625,716.4844 C398.2813,716.4844 399.4375,716.1875 400.1875,715.6406 C400.7656,715.2344 401.0938,714.7813 401.0938,714.3906 C401.0938,713.9375 400.7031,713.5469 400.2344,713.5469 C400.0156,713.5469 399.8125,713.625 399.625,713.8125 C399.1719,714.2969 399.1719,714.2969 398.9844,714.3906 C398.5625,714.6563 397.875,714.7813 397.1094,714.7813 C395.0625,714.7813 393.7656,713.6875 393.7656,711.9844 L393.7656,710.8906 C393.7656,709.1094 395.0156,707.7969 396.75,707.7969 C397.3281,707.7969 397.9375,707.9531 398.4063,708.2031 C398.8906,708.4844 399.0625,708.7031 399.1563,709.1094 C399.2188,709.5156 399.25,709.6406 399.3906,709.7656 C399.5313,709.9063 399.7656,710.0156 399.9844,710.0156 C400.25,710.0156 400.5156,709.875 400.6875,709.6563 C400.7969,709.5 400.8281,709.3125 400.8281,708.8906 L400.8281,707.4688 C400.8281,707.0313 400.8125,706.9063 400.7188,706.75 C400.5625,706.4844 400.2813,706.3438 399.9844,706.3438 C399.6875,706.3438 399.4844,706.4375 399.2656,706.75 L399.0938,706.6719 Z " fill="#000000"/><text fill="#000000" font-family="sans-serif" font-size="14" lengthAdjust="spacing" textLength="89" x="417.25" y="715.8467">TodoService</text><line style="stroke:#181818;stroke-width:0.5;" x1="253.5" x2="637.5" y1="727" y2="727"/><rect fill="none" height="6" style="stroke:#C82930;stroke-width:1.0;" width="6" x="260.5" y="735"/><text fill="#000000" font-family="sans-serif" font-size="14" lengthAdjust="spacing" textLength="153" x="272.5" y="743.9951">command: Command</text><rect fill="none" height="6" style="stroke:#C82930;stroke-width:1.0;" width="6" x="260.5" y="751.2969"/><text fill="#000000" font-family="sans-serif" font-size="14" lengthAdjust="spacing" textLength="199" x="272.5" y="760.292">repository: TodoRepository</text><line style="stroke:#181818;stroke-width:0.5;" x1="253.5" x2="637.5" y1="767.5938" y2="767.5938"/><ellipse cx="263.5" cy="778.5938" fill="#84BE84" rx="3" ry="3" style="stroke:#038048;stroke-width:1.0;"/><text fill="#000000" font-family="sans-serif" font-size="14" lengthAdjust="spacing" textLength="360" x="272.5" y="784.5889">execute(params: Params): Promise&lt;void | Todo[]&gt;</text><ellipse cx="263.5" cy="794.8906" fill="#84BE84" rx="3" ry="3" style="stroke:#038048;stroke-width:1.0;"/><text fill="#000000" font-family="sans-serif" font-size="14" lengthAdjust="spacing" textLength="207" x="272.5" y="800.8857">selectAll(): Promise&lt;Todo[]&gt;</text><ellipse cx="263.5" cy="811.1875" fill="#84BE84" rx="3" ry="3" style="stroke:#038048;stroke-width:1.0;"/><text fill="#000000" font-family="sans-serif" font-size="14" lengthAdjust="spacing" textLength="255" x="272.5" y="817.1826">create(todo: Todo): Promise&lt;void&gt;</text><ellipse cx="263.5" cy="827.4844" fill="#84BE84" rx="3" ry="3" style="stroke:#038048;stroke-width:1.0;"/><text fill="#000000" font-family="sans-serif" font-size="14" lengthAdjust="spacing" textLength="255" x="272.5" y="833.4795">delete(todo: Todo): Promise&lt;void&gt;</text><ellipse cx="263.5" cy="843.7813" fill="#84BE84" rx="3" ry="3" style="stroke:#038048;stroke-width:1.0;"/><text fill="#000000" font-family="sans-serif" font-size="14" lengthAdjust="spacing" textLength="259" x="272.5" y="849.7764">update(todo: Todo): Promise&lt;void&gt;</text></g><!--MD5=[94ae539cce1b455668c4d34eee34237f]
reverse link BaseEntity to Todo--><g id="link_BaseEntity_Todo"><path d="M1128.5,107.998 C1128.5,127.77 1128.5,152.807 1128.5,179.938 " fill="none" id="BaseEntity-backto-Todo" style="stroke:#181818;stroke-width:1.0;"/><polygon fill="none" points="1121.5,107.738,1128.5,87.738,1135.5,107.738,1121.5,107.738" style="stroke:#181818;stroke-width:1.0;"/></g><!--MD5=[5c22d4112ec790d971d722e67981092f]
reverse link Command to CreateCommand--><g id="link_Command_CreateCommand"><path d="M1907.77,98.676 C1838.02,116.035 1762.35,141.856 1699.5,180 C1619.73,228.409 1551.39,315.649 1515.78,366.571 " fill="none" id="Command-backto-CreateCommand" style="stroke:#181818;stroke-width:1.0;stroke-dasharray:7.0,7.0;"/><polygon fill="none" points="1906.19,91.857,1927.27,94.001,1909.45,105.471,1906.19,91.857" style="stroke:#181818;stroke-width:1.0;"/></g><!--MD5=[f1beb5af875fdb2722f3c2f77ee742d1]
reverse link Command to DeleteCommand--><g id="link_Command_DeleteCommand"><path d="M2090.7,113.035 C2048.86,181.176 1973.5,303.899 1934.84,366.868 " fill="none" id="Command-backto-DeleteCommand" style="stroke:#181818;stroke-width:1.0;stroke-dasharray:7.0,7.0;"/><polygon fill="none" points="2084.88,109.137,2101.31,95.757,2096.81,116.463,2084.88,109.137" style="stroke:#181818;stroke-width:1.0;"/></g><!--MD5=[292f12d158eff402f9cf0abd0b32d86b]
reverse link Command to ReadCommand--><g id="link_Command_ReadCommand"><path d="M2150.44,113.035 C2192.48,181.176 2268.2,303.899 2307.05,366.868 " fill="none" id="Command-backto-ReadCommand" style="stroke:#181818;stroke-width:1.0;stroke-dasharray:7.0,7.0;"/><polygon fill="none" points="2144.33,116.454,2139.78,95.757,2156.24,109.103,2144.33,116.454" style="stroke:#181818;stroke-width:1.0;"/></g><!--MD5=[ad951ebeb6dd4d69fa81eea7b336f465]
reverse link Command to UpdateCommand--><g id="link_Command_UpdateCommand"><path d="M2333.24,98.478 C2403.29,115.833 2479.35,141.701 2542.5,180 C2622.28,228.384 2690.62,315.634 2726.22,366.563 " fill="none" id="Command-backto-UpdateCommand" style="stroke:#181818;stroke-width:1.0;stroke-dasharray:7.0,7.0;"/><polygon fill="none" points="2331.49,105.256,2313.66,93.805,2334.74,91.638,2331.49,105.256" style="stroke:#181818;stroke-width:1.0;"/></g><!--MD5=[485f534600498b52c8b1c426ca8a80fc]
@startuml
class Todo extends BaseEntity {
    +id: number
    +title: string
    +completed: boolean
    +dueDate: Date | null
    +createdAt: Date
    +completedAt: Date | null
    +status: string
}
class CreateCommand implements Command {
    -type: Type
    +execute(params: Params): Promise<void | Todo[]>
}
class DeleteCommand implements Command {
    -type: Type
    +execute(params: Params): Promise<void | Todo[]>
}
class ReadCommand implements Command {
    -type: Type
    +execute(params: Params): Promise<void | Todo[]>
}
class UpdateCommand implements Command {
    -type: Type
    +execute(params: Params): Promise<void | Todo[]>
}
class CompletedAt {
    -value: Date | null
    +Value: Date | null
    +equals(completedAt: CompletedAt): boolean
}
class CreatedAt {
    -value: Date
    +Value: Date
    +equals(createdAt: CreatedAt): boolean
}
class DueDate {
    -value: Date | null
    +Value: Date | null
    +equals(dueDate: DueDate): boolean
    +overDue(): boolean
}
class Title {
    -value: string
    +Value: string
    +equals(other: Title): boolean
}
class Todo {
    -title: Title
    -completed: boolean
    -createdAt: CreatedAt
    -completedAt: CompletedAt
    -dueDate: DueDate
    -status: string
    -id: number | null
    +Title: string
    +Completed: boolean
    +CreatedAt: Date
    +CompletedAt: Date | null
    +DueDate: Date | null
    +Status: string
    +Id: number | null
    +complete(): void
    +overDue(): boolean
    +setDueDate(due: DueDate): Todo
    +equals(other: Todo): boolean
}
class TodoEntity {
    +id: number
    +title: string
    +completed: boolean
    +dueDate: Date | null
    +createdAt: Date
    +completedAt: Date | null
    +status: string
}
class TodoRepository {
    -repository: Repository<Entity>
    +getTodos(): Promise<DomainObject[]>
    +addTodo(todo: DomainObject): Promise<void>
    +deleteTodo(todo: DomainObject): Promise<void>
    +updateTodo(todo: DomainObject): Promise<void>
}
enum Type {
    CREATE
    READ
    UPDATE
    DELETE
}
class TodoService {
    -command: Command
    -repository: TodoRepository
    +execute(params: Params): Promise<void | Todo[]>
    +selectAll(): Promise<Todo[]>
    +create(todo: Todo): Promise<void>
    +delete(todo: Todo): Promise<void>
    +update(todo: Todo): Promise<void>
}
interface Command {
    +execute(params: Params): Promise<void | Todo[]>
}
@enduml

PlantUML version 1.2022.4beta2(Unknown compile time)
(GPL source distribution)
Java Runtime: Java(TM) SE Runtime Environment
JVM: Java HotSpot(TM) 64-Bit Server VM
Default Encoding: UTF-8
Language: en
Country: US
--></g></svg>