<?xml version="1.0" encoding="UTF-8" standalone="no"?><svg xmlns="http://www.w3.org/2000/svg" xmlns:xlink="http://www.w3.org/1999/xlink" contentStyleType="text/css" height="848px" preserveAspectRatio="none" style="width:1930px;height:848px;background:#FFFFFF;" version="1.1" viewBox="0 0 1930 848" width="1930px" zoomAndPan="magnify"><defs/><g><path d="M1317,61.5 L1476,61.5 A3.75,3.75 0 0 1 1478.5,64 L1485.5,83.7969 L1490,83.7969 A2.5,2.5 0 0 1 1492.5,86.2969 L1492.5,111.5938 A2.5,2.5 0 0 1 1490,114.0938 L1317,114.0938 A2.5,2.5 0 0 1 1314.5,111.5938 L1314.5,64 A2.5,2.5 0 0 1 1317,61.5 " fill="#F1F1F1" style="stroke:#181818;stroke-width:0.5;"/><line style="stroke:#181818;stroke-width:0.5;" x1="1314.5" x2="1485.5" y1="83.7969" y2="83.7969"/><text fill="#000000" font-family="sans-serif" font-size="14" lengthAdjust="spacing" textLength="158" x="1318.5" y="76.4951">TodoStatusTypeEnum</text><!--MD5=[67f100d94b12044e782866d6f1627f13]
class CompletedAt--><g id="elem_CompletedAt"><rect codeLine="1" fill="#F1F1F1" height="96.8906" id="CompletedAt" rx="2.5" ry="2.5" style="stroke:#181818;stroke-width:0.5;" width="351" x="7" y="39.5"/><ellipse cx="129.25" cy="55.5" fill="#ADD1B2" rx="11" ry="11" style="stroke:#181818;stroke-width:1.0;"/><path d="M131.5938,51.1719 C130.6563,50.7344 130.0625,50.5938 129.1875,50.5938 C126.5625,50.5938 124.5625,52.6719 124.5625,55.3906 L124.5625,56.5156 C124.5625,59.0938 126.6719,60.9844 129.5625,60.9844 C130.7813,60.9844 131.9375,60.6875 132.6875,60.1406 C133.2656,59.7344 133.5938,59.2813 133.5938,58.8906 C133.5938,58.4375 133.2031,58.0469 132.7344,58.0469 C132.5156,58.0469 132.3125,58.125 132.125,58.3125 C131.6719,58.7969 131.6719,58.7969 131.4844,58.8906 C131.0625,59.1563 130.375,59.2813 129.6094,59.2813 C127.5625,59.2813 126.2656,58.1875 126.2656,56.4844 L126.2656,55.3906 C126.2656,53.6094 127.5156,52.2969 129.25,52.2969 C129.8281,52.2969 130.4375,52.4531 130.9063,52.7031 C131.3906,52.9844 131.5625,53.2031 131.6563,53.6094 C131.7188,54.0156 131.75,54.1406 131.8906,54.2656 C132.0313,54.4063 132.2656,54.5156 132.4844,54.5156 C132.75,54.5156 133.0156,54.375 133.1875,54.1563 C133.2969,54 133.3281,53.8125 133.3281,53.3906 L133.3281,51.9688 C133.3281,51.5313 133.3125,51.4063 133.2188,51.25 C133.0625,50.9844 132.7813,50.8438 132.4844,50.8438 C132.1875,50.8438 131.9844,50.9375 131.7656,51.25 L131.5938,51.1719 Z " fill="#000000"/><text fill="#000000" font-family="sans-serif" font-size="14" lengthAdjust="spacing" textLength="98" x="149.75" y="60.3467">CompletedAt</text><line style="stroke:#181818;stroke-width:0.5;" x1="8" x2="357" y1="71.5" y2="71.5"/><rect fill="none" height="6" style="stroke:#C82930;stroke-width:1.0;" width="6" x="15" y="79.5"/><text fill="#000000" font-family="sans-serif" font-size="14" lengthAdjust="spacing" textLength="119" x="27" y="88.4951">value: Date | null</text><ellipse cx="18" cy="98.7969" fill="none" rx="3" ry="3" style="stroke:#038048;stroke-width:1.0;"/><text fill="#000000" font-family="sans-serif" font-size="14" lengthAdjust="spacing" textLength="121" x="27" y="104.792">Value: Date | null</text><line style="stroke:#181818;stroke-width:0.5;" x1="8" x2="357" y1="112.0938" y2="112.0938"/><ellipse cx="18" cy="123.0938" fill="#84BE84" rx="3" ry="3" style="stroke:#038048;stroke-width:1.0;"/><text fill="#000000" font-family="sans-serif" font-size="14" lengthAdjust="spacing" textLength="325" x="27" y="129.0889">equals(completedAt: CompletedAt): boolean</text></g><!--MD5=[dde4359a43de047b4d984bc31705a409]
class CreatedAt--><g id="elem_CreatedAt"><rect codeLine="6" fill="#F1F1F1" height="96.8906" id="CreatedAt" rx="2.5" ry="2.5" style="stroke:#181818;stroke-width:0.5;" width="305" x="393" y="39.5"/><ellipse cx="503.75" cy="55.5" fill="#ADD1B2" rx="11" ry="11" style="stroke:#181818;stroke-width:1.0;"/><path d="M506.0938,51.1719 C505.1563,50.7344 504.5625,50.5938 503.6875,50.5938 C501.0625,50.5938 499.0625,52.6719 499.0625,55.3906 L499.0625,56.5156 C499.0625,59.0938 501.1719,60.9844 504.0625,60.9844 C505.2813,60.9844 506.4375,60.6875 507.1875,60.1406 C507.7656,59.7344 508.0938,59.2813 508.0938,58.8906 C508.0938,58.4375 507.7031,58.0469 507.2344,58.0469 C507.0156,58.0469 506.8125,58.125 506.625,58.3125 C506.1719,58.7969 506.1719,58.7969 505.9844,58.8906 C505.5625,59.1563 504.875,59.2813 504.1094,59.2813 C502.0625,59.2813 500.7656,58.1875 500.7656,56.4844 L500.7656,55.3906 C500.7656,53.6094 502.0156,52.2969 503.75,52.2969 C504.3281,52.2969 504.9375,52.4531 505.4063,52.7031 C505.8906,52.9844 506.0625,53.2031 506.1563,53.6094 C506.2188,54.0156 506.25,54.1406 506.3906,54.2656 C506.5313,54.4063 506.7656,54.5156 506.9844,54.5156 C507.25,54.5156 507.5156,54.375 507.6875,54.1563 C507.7969,54 507.8281,53.8125 507.8281,53.3906 L507.8281,51.9688 C507.8281,51.5313 507.8125,51.4063 507.7188,51.25 C507.5625,50.9844 507.2813,50.8438 506.9844,50.8438 C506.6875,50.8438 506.4844,50.9375 506.2656,51.25 L506.0938,51.1719 Z " fill="#000000"/><text fill="#000000" font-family="sans-serif" font-size="14" lengthAdjust="spacing" textLength="75" x="524.25" y="60.3467">CreatedAt</text><line style="stroke:#181818;stroke-width:0.5;" x1="394" x2="697" y1="71.5" y2="71.5"/><rect fill="none" height="6" style="stroke:#C82930;stroke-width:1.0;" width="6" x="401" y="79.5"/><text fill="#000000" font-family="sans-serif" font-size="14" lengthAdjust="spacing" textLength="81" x="413" y="88.4951">value: Date</text><ellipse cx="404" cy="98.7969" fill="none" rx="3" ry="3" style="stroke:#038048;stroke-width:1.0;"/><text fill="#000000" font-family="sans-serif" font-size="14" lengthAdjust="spacing" textLength="83" x="413" y="104.792">Value: Date</text><line style="stroke:#181818;stroke-width:0.5;" x1="394" x2="697" y1="112.0938" y2="112.0938"/><ellipse cx="404" cy="123.0938" fill="#84BE84" rx="3" ry="3" style="stroke:#038048;stroke-width:1.0;"/><text fill="#000000" font-family="sans-serif" font-size="14" lengthAdjust="spacing" textLength="279" x="413" y="129.0889">equals(createdAt: CreatedAt): boolean</text></g><!--MD5=[cf3bb39649ce7f8bfa01714f85686c3f]
class DueDate--><g id="elem_DueDate"><rect codeLine="11" fill="#F1F1F1" height="113.1875" id="DueDate" rx="2.5" ry="2.5" style="stroke:#181818;stroke-width:0.5;" width="281" x="733" y="31.5"/><ellipse cx="837.75" cy="47.5" fill="#ADD1B2" rx="11" ry="11" style="stroke:#181818;stroke-width:1.0;"/><path d="M840.0938,43.1719 C839.1563,42.7344 838.5625,42.5938 837.6875,42.5938 C835.0625,42.5938 833.0625,44.6719 833.0625,47.3906 L833.0625,48.5156 C833.0625,51.0938 835.1719,52.9844 838.0625,52.9844 C839.2813,52.9844 840.4375,52.6875 841.1875,52.1406 C841.7656,51.7344 842.0938,51.2813 842.0938,50.8906 C842.0938,50.4375 841.7031,50.0469 841.2344,50.0469 C841.0156,50.0469 840.8125,50.125 840.625,50.3125 C840.1719,50.7969 840.1719,50.7969 839.9844,50.8906 C839.5625,51.1563 838.875,51.2813 838.1094,51.2813 C836.0625,51.2813 834.7656,50.1875 834.7656,48.4844 L834.7656,47.3906 C834.7656,45.6094 836.0156,44.2969 837.75,44.2969 C838.3281,44.2969 838.9375,44.4531 839.4063,44.7031 C839.8906,44.9844 840.0625,45.2031 840.1563,45.6094 C840.2188,46.0156 840.25,46.1406 840.3906,46.2656 C840.5313,46.4063 840.7656,46.5156 840.9844,46.5156 C841.25,46.5156 841.5156,46.375 841.6875,46.1563 C841.7969,46 841.8281,45.8125 841.8281,45.3906 L841.8281,43.9688 C841.8281,43.5313 841.8125,43.4063 841.7188,43.25 C841.5625,42.9844 841.2813,42.8438 840.9844,42.8438 C840.6875,42.8438 840.4844,42.9375 840.2656,43.25 L840.0938,43.1719 Z " fill="#000000"/><text fill="#000000" font-family="sans-serif" font-size="14" lengthAdjust="spacing" textLength="63" x="858.25" y="52.3467">DueDate</text><line style="stroke:#181818;stroke-width:0.5;" x1="734" x2="1013" y1="63.5" y2="63.5"/><rect fill="none" height="6" style="stroke:#C82930;stroke-width:1.0;" width="6" x="741" y="71.5"/><text fill="#000000" font-family="sans-serif" font-size="14" lengthAdjust="spacing" textLength="119" x="753" y="80.4951">value: Date | null</text><ellipse cx="744" cy="90.7969" fill="none" rx="3" ry="3" style="stroke:#038048;stroke-width:1.0;"/><text fill="#000000" font-family="sans-serif" font-size="14" lengthAdjust="spacing" textLength="121" x="753" y="96.792">Value: Date | null</text><line style="stroke:#181818;stroke-width:0.5;" x1="734" x2="1013" y1="104.0938" y2="104.0938"/><ellipse cx="744" cy="115.0938" fill="#84BE84" rx="3" ry="3" style="stroke:#038048;stroke-width:1.0;"/><text fill="#000000" font-family="sans-serif" font-size="14" lengthAdjust="spacing" textLength="255" x="753" y="121.0889">equals(dueDate: DueDate): boolean</text><ellipse cx="744" cy="131.3906" fill="#84BE84" rx="3" ry="3" style="stroke:#038048;stroke-width:1.0;"/><text fill="#000000" font-family="sans-serif" font-size="14" lengthAdjust="spacing" textLength="213" x="753" y="137.3857">overDue(day?: Date): boolean</text></g><!--MD5=[90111e5cdc788a7ef73a3273c23dcc2b]
class Title--><g id="elem_Title"><rect codeLine="17" fill="#F1F1F1" height="96.8906" id="Title" rx="2.5" ry="2.5" style="stroke:#181818;stroke-width:0.5;" width="230" x="1049.5" y="39.5"/><ellipse cx="1143.75" cy="55.5" fill="#ADD1B2" rx="11" ry="11" style="stroke:#181818;stroke-width:1.0;"/><path d="M1146.0938,51.1719 C1145.1563,50.7344 1144.5625,50.5938 1143.6875,50.5938 C1141.0625,50.5938 1139.0625,52.6719 1139.0625,55.3906 L1139.0625,56.5156 C1139.0625,59.0938 1141.1719,60.9844 1144.0625,60.9844 C1145.2813,60.9844 1146.4375,60.6875 1147.1875,60.1406 C1147.7656,59.7344 1148.0938,59.2813 1148.0938,58.8906 C1148.0938,58.4375 1147.7031,58.0469 1147.2344,58.0469 C1147.0156,58.0469 1146.8125,58.125 1146.625,58.3125 C1146.1719,58.7969 1146.1719,58.7969 1145.9844,58.8906 C1145.5625,59.1563 1144.875,59.2813 1144.1094,59.2813 C1142.0625,59.2813 1140.7656,58.1875 1140.7656,56.4844 L1140.7656,55.3906 C1140.7656,53.6094 1142.0156,52.2969 1143.75,52.2969 C1144.3281,52.2969 1144.9375,52.4531 1145.4063,52.7031 C1145.8906,52.9844 1146.0625,53.2031 1146.1563,53.6094 C1146.2188,54.0156 1146.25,54.1406 1146.3906,54.2656 C1146.5313,54.4063 1146.7656,54.5156 1146.9844,54.5156 C1147.25,54.5156 1147.5156,54.375 1147.6875,54.1563 C1147.7969,54 1147.8281,53.8125 1147.8281,53.3906 L1147.8281,51.9688 C1147.8281,51.5313 1147.8125,51.4063 1147.7188,51.25 C1147.5625,50.9844 1147.2813,50.8438 1146.9844,50.8438 C1146.6875,50.8438 1146.4844,50.9375 1146.2656,51.25 L1146.0938,51.1719 Z " fill="#000000"/><text fill="#000000" font-family="sans-serif" font-size="14" lengthAdjust="spacing" textLength="33" x="1164.25" y="60.3467">Title</text><line style="stroke:#181818;stroke-width:0.5;" x1="1050.5" x2="1278.5" y1="71.5" y2="71.5"/><rect fill="none" height="6" style="stroke:#C82930;stroke-width:1.0;" width="6" x="1057.5" y="79.5"/><text fill="#000000" font-family="sans-serif" font-size="14" lengthAdjust="spacing" textLength="88" x="1069.5" y="88.4951">value: string</text><ellipse cx="1060.5" cy="98.7969" fill="none" rx="3" ry="3" style="stroke:#038048;stroke-width:1.0;"/><text fill="#000000" font-family="sans-serif" font-size="14" lengthAdjust="spacing" textLength="90" x="1069.5" y="104.792">Value: string</text><line style="stroke:#181818;stroke-width:0.5;" x1="1050.5" x2="1278.5" y1="112.0938" y2="112.0938"/><ellipse cx="1060.5" cy="123.0938" fill="#84BE84" rx="3" ry="3" style="stroke:#038048;stroke-width:1.0;"/><text fill="#000000" font-family="sans-serif" font-size="14" lengthAdjust="spacing" textLength="204" x="1069.5" y="129.0889">equals(other: Title): boolean</text></g><!--MD5=[8b45b78e7bc2d73538542b608f866059]
class TodoStatusType--><g id="elem_TodoStatusType"><rect codeLine="22" fill="#F1F1F1" height="113.1875" id="TodoStatusType" rx="2.5" ry="2.5" style="stroke:#181818;stroke-width:0.5;" width="150" x="107.5" y="367.5"/><ellipse cx="122.5" cy="383.5" fill="#EB937F" rx="11" ry="11" style="stroke:#181818;stroke-width:1.0;"/><path d="M121.2969,384.375 L122.75,384.375 L122.75,384.4844 C122.75,384.8906 122.7813,385.0469 122.8594,385.2031 C123.0156,385.4531 123.2969,385.6094 123.5938,385.6094 C123.8438,385.6094 124.1094,385.4688 124.2656,385.25 C124.3906,385.0938 124.4219,384.9375 124.4219,384.4844 L124.4219,382.5625 C124.4219,382.4063 124.4219,382.3594 124.4063,382.2031 C124.3438,381.7344 124.0313,381.4219 123.5781,381.4219 C123.3281,381.4219 123.0625,381.5625 122.8906,381.7813 C122.7813,381.9531 122.75,382.1094 122.75,382.5625 L122.75,382.6875 L121.2969,382.6875 L121.2969,380.2813 L125.2813,380.2813 L125.2813,381.1406 C125.2813,381.5469 125.3125,381.7188 125.3906,381.875 C125.5625,382.125 125.8438,382.2813 126.125,382.2813 C126.3906,382.2813 126.6563,382.1406 126.8281,381.9219 C126.9375,381.75 126.9688,381.6094 126.9688,381.1406 L126.9688,378.5938 L119.3438,378.5938 C118.9063,378.5938 118.7813,378.6094 118.625,378.7031 C118.375,378.8594 118.2188,379.1563 118.2188,379.4375 C118.2188,379.7188 118.3594,379.9688 118.5781,380.1406 C118.7344,380.25 118.9219,380.2813 119.3438,380.2813 L119.5938,380.2813 L119.5938,386.7969 L119.3438,386.7969 C118.9375,386.7969 118.7813,386.8125 118.625,386.9219 C118.375,387.0938 118.2188,387.3594 118.2188,387.6563 C118.2188,387.9219 118.3594,388.1719 118.5781,388.3281 C118.7188,388.4531 118.9531,388.5 119.3438,388.5 L127.3438,388.5 L127.3438,385.9219 C127.3438,385.4844 127.3125,385.3438 127.2344,385.1875 C127.0625,384.9375 126.7813,384.7813 126.5,384.7813 C126.2344,384.7813 125.9688,384.8906 125.7969,385.1406 C125.6875,385.2969 125.6563,385.4375 125.6563,385.9219 L125.6563,386.7969 L121.2969,386.7969 L121.2969,384.375 Z " fill="#000000"/><text fill="#000000" font-family="sans-serif" font-size="14" lengthAdjust="spacing" textLength="118" x="136.5" y="388.3467">TodoStatusType</text><line style="stroke:#181818;stroke-width:0.5;" x1="108.5" x2="256.5" y1="399.5" y2="399.5"/><text fill="#000000" font-family="sans-serif" font-size="14" lengthAdjust="spacing" textLength="81" x="113.5" y="416.4951">UNDEFINED</text><text fill="#000000" font-family="sans-serif" font-size="14" lengthAdjust="spacing" textLength="104" x="113.5" y="432.792">NOT_STARTED</text><text fill="#000000" font-family="sans-serif" font-size="14" lengthAdjust="spacing" textLength="99" x="113.5" y="449.0889">IN_PROGRESS</text><text fill="#000000" font-family="sans-serif" font-size="14" lengthAdjust="spacing" textLength="88" x="113.5" y="465.3857">COMPLETED</text><line style="stroke:#181818;stroke-width:0.5;" x1="108.5" x2="256.5" y1="472.6875" y2="472.6875"/></g><!--MD5=[866844b0821af1c4534b10e65e4bdf58]
class TodoStatus--><g id="elem_TodoStatus"><rect codeLine="30" fill="#F1F1F1" height="162.0781" id="TodoStatus" rx="2.5" ry="2.5" style="stroke:#181818;stroke-width:0.5;" width="253" x="1528" y="7"/><ellipse cx="1610.25" cy="23" fill="#A9DCDF" rx="11" ry="11" style="stroke:#181818;stroke-width:1.0;"/><path d="M1612.3281,24.8125 L1612.7188,25.7969 L1612.3281,25.7969 C1611.875,25.7969 1611.7656,25.8125 1611.6094,25.9219 C1611.3594,26.0781 1611.2031,26.3594 1611.2031,26.6563 C1611.2031,26.9219 1611.3438,27.1719 1611.5625,27.3281 C1611.7031,27.4531 1611.9063,27.5 1612.3281,27.5 L1614.6875,27.5 C1615.0469,27.5 1615.2656,27.4688 1615.4063,27.375 C1615.6563,27.2344 1615.8125,26.9375 1615.8125,26.6563 C1615.8125,26.375 1615.6719,26.125 1615.4531,25.9688 C1615.2813,25.8281 1615.125,25.7969 1614.6563,25.7969 L1611.2656,17.5938 L1607.5938,17.5938 C1607.1406,17.5938 1607.0156,17.6094 1606.8594,17.7031 C1606.6094,17.875 1606.4531,18.1563 1606.4531,18.4375 C1606.4531,18.7188 1606.5938,18.9688 1606.8125,19.1406 C1606.9844,19.25 1607.1563,19.2813 1607.5938,19.2813 L1608.6719,19.2813 L1606.0313,25.7969 C1605.6094,25.7969 1605.4531,25.8125 1605.2969,25.9219 C1605.0469,26.0781 1604.8906,26.3594 1604.8906,26.6563 C1604.8906,27.2188 1605.2656,27.5 1606.0156,27.5 L1608.2813,27.5 C1608.6406,27.5 1608.8594,27.4688 1608.9844,27.375 C1609.25,27.2344 1609.3906,26.9375 1609.3906,26.6563 C1609.3906,26.375 1609.2656,26.125 1609.0469,25.9531 C1608.875,25.8281 1608.7344,25.7969 1608.2813,25.7969 L1607.8906,25.7969 L1608.2813,24.8125 L1612.3281,24.8125 Z M1611.625,23.1094 L1608.9531,23.1094 L1610.2969,19.8438 L1611.625,23.1094 Z " fill="#000000"/><text fill="#000000" font-family="sans-serif" font-size="14" font-style="italic" lengthAdjust="spacing" textLength="80" x="1630.75" y="27.8467">TodoStatus</text><line style="stroke:#181818;stroke-width:0.5;" x1="1529" x2="1780" y1="39" y2="39"/><polygon fill="none" points="1539,45,1543,49,1539,53,1535,49" style="stroke:#B38D22;stroke-width:1.0;"/><text fill="#000000" font-family="sans-serif" font-size="14" lengthAdjust="spacing" textLength="88" x="1548" y="55.9951">value: string</text><polygon fill="none" points="1539,61.2969,1543,65.2969,1539,69.2969,1535,65.2969" style="stroke:#B38D22;stroke-width:1.0;"/><text fill="#000000" font-family="sans-serif" font-size="14" lengthAdjust="spacing" textLength="85" x="1548" y="72.292">type: string</text><polygon fill="none" points="1539,77.5938,1543,81.5938,1539,85.5938,1535,81.5938" style="stroke:#B38D22;stroke-width:1.0;"/><text fill="#000000" font-family="sans-serif" font-size="14" lengthAdjust="spacing" textLength="86" x="1548" y="88.5889">code: string</text><ellipse cx="1539" cy="98.8906" fill="none" rx="3" ry="3" style="stroke:#038048;stroke-width:1.0;"/><text fill="#000000" font-family="sans-serif" font-size="14" lengthAdjust="spacing" textLength="90" x="1548" y="104.8857">Value: string</text><ellipse cx="1539" cy="115.1875" fill="none" rx="3" ry="3" style="stroke:#038048;stroke-width:1.0;"/><text fill="#000000" font-family="sans-serif" font-size="14" lengthAdjust="spacing" textLength="87" x="1548" y="121.1826">Type: string</text><ellipse cx="1539" cy="131.4844" fill="none" rx="3" ry="3" style="stroke:#038048;stroke-width:1.0;"/><text fill="#000000" font-family="sans-serif" font-size="14" lengthAdjust="spacing" textLength="88" x="1548" y="137.4795">Code: string</text><line style="stroke:#181818;stroke-width:0.5;" x1="1529" x2="1780" y1="144.7813" y2="144.7813"/><ellipse cx="1539" cy="155.7813" fill="#84BE84" rx="3" ry="3" style="stroke:#038048;stroke-width:1.0;"/><text fill="#000000" font-family="sans-serif" font-size="14" lengthAdjust="spacing" text-decoration="underline" textLength="227" x="1548" y="161.7764">create(todo: Todo): TodoStatus</text></g><!--MD5=[ebaed48d3e23019637b78bc7bca197b8]
class NotStarted--><g id="elem_NotStarted"><rect codeLine="39" fill="#F1F1F1" height="48" id="NotStarted" rx="2.5" ry="2.5" style="stroke:#181818;stroke-width:0.5;" width="113" x="1380" y="400"/><ellipse cx="1395" cy="416" fill="#ADD1B2" rx="11" ry="11" style="stroke:#181818;stroke-width:1.0;"/><path d="M1397.3438,411.6719 C1396.4063,411.2344 1395.8125,411.0938 1394.9375,411.0938 C1392.3125,411.0938 1390.3125,413.1719 1390.3125,415.8906 L1390.3125,417.0156 C1390.3125,419.5938 1392.4219,421.4844 1395.3125,421.4844 C1396.5313,421.4844 1397.6875,421.1875 1398.4375,420.6406 C1399.0156,420.2344 1399.3438,419.7813 1399.3438,419.3906 C1399.3438,418.9375 1398.9531,418.5469 1398.4844,418.5469 C1398.2656,418.5469 1398.0625,418.625 1397.875,418.8125 C1397.4219,419.2969 1397.4219,419.2969 1397.2344,419.3906 C1396.8125,419.6563 1396.125,419.7813 1395.3594,419.7813 C1393.3125,419.7813 1392.0156,418.6875 1392.0156,416.9844 L1392.0156,415.8906 C1392.0156,414.1094 1393.2656,412.7969 1395,412.7969 C1395.5781,412.7969 1396.1875,412.9531 1396.6563,413.2031 C1397.1406,413.4844 1397.3125,413.7031 1397.4063,414.1094 C1397.4688,414.5156 1397.5,414.6406 1397.6406,414.7656 C1397.7813,414.9063 1398.0156,415.0156 1398.2344,415.0156 C1398.5,415.0156 1398.7656,414.875 1398.9375,414.6563 C1399.0469,414.5 1399.0781,414.3125 1399.0781,413.8906 L1399.0781,412.4688 C1399.0781,412.0313 1399.0625,411.9063 1398.9688,411.75 C1398.8125,411.4844 1398.5313,411.3438 1398.2344,411.3438 C1397.9375,411.3438 1397.7344,411.4375 1397.5156,411.75 L1397.3438,411.6719 Z " fill="#000000"/><text fill="#000000" font-family="sans-serif" font-size="14" lengthAdjust="spacing" textLength="81" x="1409" y="420.8467">NotStarted</text><line style="stroke:#181818;stroke-width:0.5;" x1="1381" x2="1492" y1="432" y2="432"/><line style="stroke:#181818;stroke-width:0.5;" x1="1381" x2="1492" y1="440" y2="440"/></g><!--MD5=[4c0b4f1cd20d09e88ae73cd356825288]
class InProgress--><g id="elem_InProgress"><rect codeLine="40" fill="#F1F1F1" height="48" id="InProgress" rx="2.5" ry="2.5" style="stroke:#181818;stroke-width:0.5;" width="107" x="1528" y="400"/><ellipse cx="1543" cy="416" fill="#ADD1B2" rx="11" ry="11" style="stroke:#181818;stroke-width:1.0;"/><path d="M1545.3438,411.6719 C1544.4063,411.2344 1543.8125,411.0938 1542.9375,411.0938 C1540.3125,411.0938 1538.3125,413.1719 1538.3125,415.8906 L1538.3125,417.0156 C1538.3125,419.5938 1540.4219,421.4844 1543.3125,421.4844 C1544.5313,421.4844 1545.6875,421.1875 1546.4375,420.6406 C1547.0156,420.2344 1547.3438,419.7813 1547.3438,419.3906 C1547.3438,418.9375 1546.9531,418.5469 1546.4844,418.5469 C1546.2656,418.5469 1546.0625,418.625 1545.875,418.8125 C1545.4219,419.2969 1545.4219,419.2969 1545.2344,419.3906 C1544.8125,419.6563 1544.125,419.7813 1543.3594,419.7813 C1541.3125,419.7813 1540.0156,418.6875 1540.0156,416.9844 L1540.0156,415.8906 C1540.0156,414.1094 1541.2656,412.7969 1543,412.7969 C1543.5781,412.7969 1544.1875,412.9531 1544.6563,413.2031 C1545.1406,413.4844 1545.3125,413.7031 1545.4063,414.1094 C1545.4688,414.5156 1545.5,414.6406 1545.6406,414.7656 C1545.7813,414.9063 1546.0156,415.0156 1546.2344,415.0156 C1546.5,415.0156 1546.7656,414.875 1546.9375,414.6563 C1547.0469,414.5 1547.0781,414.3125 1547.0781,413.8906 L1547.0781,412.4688 C1547.0781,412.0313 1547.0625,411.9063 1546.9688,411.75 C1546.8125,411.4844 1546.5313,411.3438 1546.2344,411.3438 C1545.9375,411.3438 1545.7344,411.4375 1545.5156,411.75 L1545.3438,411.6719 Z " fill="#000000"/><text fill="#000000" font-family="sans-serif" font-size="14" lengthAdjust="spacing" textLength="75" x="1557" y="420.8467">InProgress</text><line style="stroke:#181818;stroke-width:0.5;" x1="1529" x2="1634" y1="432" y2="432"/><line style="stroke:#181818;stroke-width:0.5;" x1="1529" x2="1634" y1="440" y2="440"/></g><!--MD5=[cc11643e10bfa99d218cb499c8643474]
class Completed--><g id="elem_Completed"><rect codeLine="41" fill="#F1F1F1" height="48" id="Completed" rx="2.5" ry="2.5" style="stroke:#181818;stroke-width:0.5;" width="113" x="1670" y="400"/><ellipse cx="1685" cy="416" fill="#ADD1B2" rx="11" ry="11" style="stroke:#181818;stroke-width:1.0;"/><path d="M1687.3438,411.6719 C1686.4063,411.2344 1685.8125,411.0938 1684.9375,411.0938 C1682.3125,411.0938 1680.3125,413.1719 1680.3125,415.8906 L1680.3125,417.0156 C1680.3125,419.5938 1682.4219,421.4844 1685.3125,421.4844 C1686.5313,421.4844 1687.6875,421.1875 1688.4375,420.6406 C1689.0156,420.2344 1689.3438,419.7813 1689.3438,419.3906 C1689.3438,418.9375 1688.9531,418.5469 1688.4844,418.5469 C1688.2656,418.5469 1688.0625,418.625 1687.875,418.8125 C1687.4219,419.2969 1687.4219,419.2969 1687.2344,419.3906 C1686.8125,419.6563 1686.125,419.7813 1685.3594,419.7813 C1683.3125,419.7813 1682.0156,418.6875 1682.0156,416.9844 L1682.0156,415.8906 C1682.0156,414.1094 1683.2656,412.7969 1685,412.7969 C1685.5781,412.7969 1686.1875,412.9531 1686.6563,413.2031 C1687.1406,413.4844 1687.3125,413.7031 1687.4063,414.1094 C1687.4688,414.5156 1687.5,414.6406 1687.6406,414.7656 C1687.7813,414.9063 1688.0156,415.0156 1688.2344,415.0156 C1688.5,415.0156 1688.7656,414.875 1688.9375,414.6563 C1689.0469,414.5 1689.0781,414.3125 1689.0781,413.8906 L1689.0781,412.4688 C1689.0781,412.0313 1689.0625,411.9063 1688.9688,411.75 C1688.8125,411.4844 1688.5313,411.3438 1688.2344,411.3438 C1687.9375,411.3438 1687.7344,411.4375 1687.5156,411.75 L1687.3438,411.6719 Z " fill="#000000"/><text fill="#000000" font-family="sans-serif" font-size="14" lengthAdjust="spacing" textLength="81" x="1699" y="420.8467">Completed</text><line style="stroke:#181818;stroke-width:0.5;" x1="1671" x2="1782" y1="432" y2="432"/><line style="stroke:#181818;stroke-width:0.5;" x1="1671" x2="1782" y1="440" y2="440"/></g><!--MD5=[b9e37f36ecae42e7f00ee8b8247f48e6]
class Undefined--><g id="elem_Undefined"><rect codeLine="42" fill="#F1F1F1" height="48" id="Undefined" rx="2.5" ry="2.5" style="stroke:#181818;stroke-width:0.5;" width="105" x="1818" y="400"/><ellipse cx="1833" cy="416" fill="#ADD1B2" rx="11" ry="11" style="stroke:#181818;stroke-width:1.0;"/><path d="M1835.3438,411.6719 C1834.4063,411.2344 1833.8125,411.0938 1832.9375,411.0938 C1830.3125,411.0938 1828.3125,413.1719 1828.3125,415.8906 L1828.3125,417.0156 C1828.3125,419.5938 1830.4219,421.4844 1833.3125,421.4844 C1834.5313,421.4844 1835.6875,421.1875 1836.4375,420.6406 C1837.0156,420.2344 1837.3438,419.7813 1837.3438,419.3906 C1837.3438,418.9375 1836.9531,418.5469 1836.4844,418.5469 C1836.2656,418.5469 1836.0625,418.625 1835.875,418.8125 C1835.4219,419.2969 1835.4219,419.2969 1835.2344,419.3906 C1834.8125,419.6563 1834.125,419.7813 1833.3594,419.7813 C1831.3125,419.7813 1830.0156,418.6875 1830.0156,416.9844 L1830.0156,415.8906 C1830.0156,414.1094 1831.2656,412.7969 1833,412.7969 C1833.5781,412.7969 1834.1875,412.9531 1834.6563,413.2031 C1835.1406,413.4844 1835.3125,413.7031 1835.4063,414.1094 C1835.4688,414.5156 1835.5,414.6406 1835.6406,414.7656 C1835.7813,414.9063 1836.0156,415.0156 1836.2344,415.0156 C1836.5,415.0156 1836.7656,414.875 1836.9375,414.6563 C1837.0469,414.5 1837.0781,414.3125 1837.0781,413.8906 L1837.0781,412.4688 C1837.0781,412.0313 1837.0625,411.9063 1836.9688,411.75 C1836.8125,411.4844 1836.5313,411.3438 1836.2344,411.3438 C1835.9375,411.3438 1835.7344,411.4375 1835.5156,411.75 L1835.3438,411.6719 Z " fill="#000000"/><text fill="#000000" font-family="sans-serif" font-size="14" lengthAdjust="spacing" textLength="73" x="1847" y="420.8467">Undefined</text><line style="stroke:#181818;stroke-width:0.5;" x1="1819" x2="1922" y1="432" y2="432"/><line style="stroke:#181818;stroke-width:0.5;" x1="1819" x2="1922" y1="440" y2="440"/></g><!--MD5=[d304ca89bdbd8073bbc1ba7ea9e70f7d]
class Todo--><g id="elem_Todo"><rect codeLine="43" fill="#F1F1F1" height="390.2344" id="Todo" rx="2.5" ry="2.5" style="stroke:#181818;stroke-width:0.5;" width="265" x="293" y="229"/><ellipse cx="403.25" cy="245" fill="#ADD1B2" rx="11" ry="11" style="stroke:#181818;stroke-width:1.0;"/><path d="M405.5938,240.6719 C404.6563,240.2344 404.0625,240.0938 403.1875,240.0938 C400.5625,240.0938 398.5625,242.1719 398.5625,244.8906 L398.5625,246.0156 C398.5625,248.5938 400.6719,250.4844 403.5625,250.4844 C404.7813,250.4844 405.9375,250.1875 406.6875,249.6406 C407.2656,249.2344 407.5938,248.7813 407.5938,248.3906 C407.5938,247.9375 407.2031,247.5469 406.7344,247.5469 C406.5156,247.5469 406.3125,247.625 406.125,247.8125 C405.6719,248.2969 405.6719,248.2969 405.4844,248.3906 C405.0625,248.6563 404.375,248.7813 403.6094,248.7813 C401.5625,248.7813 400.2656,247.6875 400.2656,245.9844 L400.2656,244.8906 C400.2656,243.1094 401.5156,241.7969 403.25,241.7969 C403.8281,241.7969 404.4375,241.9531 404.9063,242.2031 C405.3906,242.4844 405.5625,242.7031 405.6563,243.1094 C405.7188,243.5156 405.75,243.6406 405.8906,243.7656 C406.0313,243.9063 406.2656,244.0156 406.4844,244.0156 C406.75,244.0156 407.0156,243.875 407.1875,243.6563 C407.2969,243.5 407.3281,243.3125 407.3281,242.8906 L407.3281,241.4688 C407.3281,241.0313 407.3125,240.9063 407.2188,240.75 C407.0625,240.4844 406.7813,240.3438 406.4844,240.3438 C406.1875,240.3438 405.9844,240.4375 405.7656,240.75 L405.5938,240.6719 Z " fill="#000000"/><text fill="#000000" font-family="sans-serif" font-size="14" lengthAdjust="spacing" textLength="36" x="423.75" y="249.8467">Todo</text><line style="stroke:#181818;stroke-width:0.5;" x1="294" x2="557" y1="261" y2="261"/><rect fill="none" height="6" style="stroke:#C82930;stroke-width:1.0;" width="6" x="301" y="269"/><text fill="#000000" font-family="sans-serif" font-size="14" lengthAdjust="spacing" textLength="73" x="313" y="277.9951">title: Title</text><rect fill="none" height="6" style="stroke:#C82930;stroke-width:1.0;" width="6" x="301" y="285.2969"/><text fill="#000000" font-family="sans-serif" font-size="14" lengthAdjust="spacing" textLength="159" x="313" y="294.292">isCompleted: boolean</text><rect fill="none" height="6" style="stroke:#C82930;stroke-width:1.0;" width="6" x="301" y="301.5938"/><text fill="#000000" font-family="sans-serif" font-size="14" lengthAdjust="spacing" textLength="157" x="313" y="310.5889">createdAt: CreatedAt</text><rect fill="none" height="6" style="stroke:#C82930;stroke-width:1.0;" width="6" x="301" y="317.8906"/><text fill="#000000" font-family="sans-serif" font-size="14" lengthAdjust="spacing" textLength="203" x="313" y="326.8857">completedAt: CompletedAt</text><rect fill="none" height="6" style="stroke:#C82930;stroke-width:1.0;" width="6" x="301" y="334.1875"/><text fill="#000000" font-family="sans-serif" font-size="14" lengthAdjust="spacing" textLength="133" x="313" y="343.1826">dueDate: DueDate</text><rect fill="none" height="6" style="stroke:#C82930;stroke-width:1.0;" width="6" x="301" y="350.4844"/><text fill="#000000" font-family="sans-serif" font-size="14" lengthAdjust="spacing" textLength="140" x="313" y="359.4795">isOverDue: boolean</text><rect fill="none" height="6" style="stroke:#C82930;stroke-width:1.0;" width="6" x="301" y="366.7813"/><text fill="#000000" font-family="sans-serif" font-size="14" lengthAdjust="spacing" textLength="135" x="313" y="375.7764">status: TodoStatus</text><rect fill="none" height="6" style="stroke:#C82930;stroke-width:1.0;" width="6" x="301" y="383.0781"/><text fill="#000000" font-family="sans-serif" font-size="14" lengthAdjust="spacing" textLength="116" x="313" y="392.0732">id: number | null</text><ellipse cx="304" cy="402.375" fill="none" rx="3" ry="3" style="stroke:#038048;stroke-width:1.0;"/><text fill="#000000" font-family="sans-serif" font-size="14" lengthAdjust="spacing" textLength="84" x="313" y="408.3701">Title: string</text><ellipse cx="304" cy="418.6719" fill="none" rx="3" ry="3" style="stroke:#038048;stroke-width:1.0;"/><text fill="#000000" font-family="sans-serif" font-size="14" lengthAdjust="spacing" textLength="148" x="313" y="424.667">Completed: boolean</text><ellipse cx="304" cy="434.9688" fill="none" rx="3" ry="3" style="stroke:#038048;stroke-width:1.0;"/><text fill="#000000" font-family="sans-serif" font-size="14" lengthAdjust="spacing" textLength="119" x="313" y="440.9639">CreatedAt: Date</text><ellipse cx="304" cy="451.2656" fill="none" rx="3" ry="3" style="stroke:#038048;stroke-width:1.0;"/><text fill="#000000" font-family="sans-serif" font-size="14" lengthAdjust="spacing" textLength="180" x="313" y="457.2607">CompletedAt: Date | null</text><ellipse cx="304" cy="467.5625" fill="none" rx="3" ry="3" style="stroke:#038048;stroke-width:1.0;"/><text fill="#000000" font-family="sans-serif" font-size="14" lengthAdjust="spacing" textLength="145" x="313" y="473.5576">DueDate: Date | null</text><ellipse cx="304" cy="483.8594" fill="none" rx="3" ry="3" style="stroke:#038048;stroke-width:1.0;"/><text fill="#000000" font-family="sans-serif" font-size="14" lengthAdjust="spacing" textLength="129" x="313" y="489.8545">OverDue: boolean</text><ellipse cx="304" cy="500.1563" fill="none" rx="3" ry="3" style="stroke:#038048;stroke-width:1.0;"/><text fill="#000000" font-family="sans-serif" font-size="14" lengthAdjust="spacing" textLength="97" x="313" y="506.1514">Status: string</text><ellipse cx="304" cy="516.4531" fill="none" rx="3" ry="3" style="stroke:#038048;stroke-width:1.0;"/><text fill="#000000" font-family="sans-serif" font-size="14" lengthAdjust="spacing" textLength="116" x="313" y="522.4482">Id: number | null</text><ellipse cx="304" cy="532.75" fill="none" rx="3" ry="3" style="stroke:#038048;stroke-width:1.0;"/><text fill="#000000" font-family="sans-serif" font-size="14" lengthAdjust="spacing" textLength="134" x="313" y="538.7451">StatusCode: string</text><ellipse cx="304" cy="549.0469" fill="none" rx="3" ry="3" style="stroke:#038048;stroke-width:1.0;"/><text fill="#000000" font-family="sans-serif" font-size="14" lengthAdjust="spacing" textLength="133" x="313" y="555.042">StatusType: string</text><line style="stroke:#181818;stroke-width:0.5;" x1="294" x2="557" y1="562.3438" y2="562.3438"/><ellipse cx="304" cy="573.3438" fill="#84BE84" rx="3" ry="3" style="stroke:#038048;stroke-width:1.0;"/><text fill="#000000" font-family="sans-serif" font-size="14" lengthAdjust="spacing" textLength="125" x="313" y="579.3389">complete(): Todo</text><ellipse cx="304" cy="589.6406" fill="#84BE84" rx="3" ry="3" style="stroke:#038048;stroke-width:1.0;"/><text fill="#000000" font-family="sans-serif" font-size="14" lengthAdjust="spacing" textLength="239" x="313" y="595.6357">setDueDate(due: DueDate): Todo</text><ellipse cx="304" cy="605.9375" fill="#84BE84" rx="3" ry="3" style="stroke:#038048;stroke-width:1.0;"/><text fill="#000000" font-family="sans-serif" font-size="14" lengthAdjust="spacing" textLength="207" x="313" y="611.9326">equals(other: Todo): boolean</text></g><!--MD5=[cf45e8ad0333bb05467ac0b4d70787c5]
class TodoEntity--><g id="elem_TodoEntity"><rect codeLine="66" fill="#F1F1F1" height="162.0781" id="TodoEntity" rx="2.5" ry="2.5" style="stroke:#181818;stroke-width:0.5;" width="204" x="593.5" y="343"/><ellipse cx="651.25" cy="359" fill="#ADD1B2" rx="11" ry="11" style="stroke:#181818;stroke-width:1.0;"/><path d="M653.5938,354.6719 C652.6563,354.2344 652.0625,354.0938 651.1875,354.0938 C648.5625,354.0938 646.5625,356.1719 646.5625,358.8906 L646.5625,360.0156 C646.5625,362.5938 648.6719,364.4844 651.5625,364.4844 C652.7813,364.4844 653.9375,364.1875 654.6875,363.6406 C655.2656,363.2344 655.5938,362.7813 655.5938,362.3906 C655.5938,361.9375 655.2031,361.5469 654.7344,361.5469 C654.5156,361.5469 654.3125,361.625 654.125,361.8125 C653.6719,362.2969 653.6719,362.2969 653.4844,362.3906 C653.0625,362.6563 652.375,362.7813 651.6094,362.7813 C649.5625,362.7813 648.2656,361.6875 648.2656,359.9844 L648.2656,358.8906 C648.2656,357.1094 649.5156,355.7969 651.25,355.7969 C651.8281,355.7969 652.4375,355.9531 652.9063,356.2031 C653.3906,356.4844 653.5625,356.7031 653.6563,357.1094 C653.7188,357.5156 653.75,357.6406 653.8906,357.7656 C654.0313,357.9063 654.2656,358.0156 654.4844,358.0156 C654.75,358.0156 655.0156,357.875 655.1875,357.6563 C655.2969,357.5 655.3281,357.3125 655.3281,356.8906 L655.3281,355.4688 C655.3281,355.0313 655.3125,354.9063 655.2188,354.75 C655.0625,354.4844 654.7813,354.3438 654.4844,354.3438 C654.1875,354.3438 653.9844,354.4375 653.7656,354.75 L653.5938,354.6719 Z " fill="#000000"/><text fill="#000000" font-family="sans-serif" font-size="14" lengthAdjust="spacing" textLength="80" x="671.75" y="363.8467">TodoEntity</text><line style="stroke:#181818;stroke-width:0.5;" x1="594.5" x2="796.5" y1="375" y2="375"/><ellipse cx="604.5" cy="386" fill="none" rx="3" ry="3" style="stroke:#038048;stroke-width:1.0;"/><text fill="#000000" font-family="sans-serif" font-size="14" lengthAdjust="spacing" textLength="78" x="613.5" y="391.9951">id: number</text><ellipse cx="604.5" cy="402.2969" fill="none" rx="3" ry="3" style="stroke:#038048;stroke-width:1.0;"/><text fill="#000000" font-family="sans-serif" font-size="14" lengthAdjust="spacing" textLength="82" x="613.5" y="408.292">title: string</text><ellipse cx="604.5" cy="418.5938" fill="none" rx="3" ry="3" style="stroke:#038048;stroke-width:1.0;"/><text fill="#000000" font-family="sans-serif" font-size="14" lengthAdjust="spacing" textLength="146" x="613.5" y="424.5889">completed: boolean</text><ellipse cx="604.5" cy="434.8906" fill="none" rx="3" ry="3" style="stroke:#038048;stroke-width:1.0;"/><text fill="#000000" font-family="sans-serif" font-size="14" lengthAdjust="spacing" textLength="143" x="613.5" y="440.8857">dueDate: Date | null</text><ellipse cx="604.5" cy="451.1875" fill="none" rx="3" ry="3" style="stroke:#038048;stroke-width:1.0;"/><text fill="#000000" font-family="sans-serif" font-size="14" lengthAdjust="spacing" textLength="117" x="613.5" y="457.1826">createdAt: Date</text><ellipse cx="604.5" cy="467.4844" fill="none" rx="3" ry="3" style="stroke:#038048;stroke-width:1.0;"/><text fill="#000000" font-family="sans-serif" font-size="14" lengthAdjust="spacing" textLength="178" x="613.5" y="473.4795">completedAt: Date | null</text><ellipse cx="604.5" cy="483.7813" fill="none" rx="3" ry="3" style="stroke:#038048;stroke-width:1.0;"/><text fill="#000000" font-family="sans-serif" font-size="14" lengthAdjust="spacing" textLength="143" x="613.5" y="489.7764">status: StatusEntity</text><line style="stroke:#181818;stroke-width:0.5;" x1="594.5" x2="796.5" y1="497.0781" y2="497.0781"/></g><!--MD5=[da1e831f50d675d9fa023d040e038ce0]
class StatusEntity--><g id="elem_StatusEntity"><rect codeLine="75" fill="#F1F1F1" height="129.4844" id="StatusEntity" rx="2.5" ry="2.5" style="stroke:#181818;stroke-width:0.5;" width="166" x="832.5" y="359.5"/><ellipse cx="867.3" cy="375.5" fill="#ADD1B2" rx="11" ry="11" style="stroke:#181818;stroke-width:1.0;"/><path d="M869.6438,371.1719 C868.7063,370.7344 868.1125,370.5938 867.2375,370.5938 C864.6125,370.5938 862.6125,372.6719 862.6125,375.3906 L862.6125,376.5156 C862.6125,379.0938 864.7219,380.9844 867.6125,380.9844 C868.8313,380.9844 869.9875,380.6875 870.7375,380.1406 C871.3156,379.7344 871.6438,379.2813 871.6438,378.8906 C871.6438,378.4375 871.2531,378.0469 870.7844,378.0469 C870.5656,378.0469 870.3625,378.125 870.175,378.3125 C869.7219,378.7969 869.7219,378.7969 869.5344,378.8906 C869.1125,379.1563 868.425,379.2813 867.6594,379.2813 C865.6125,379.2813 864.3156,378.1875 864.3156,376.4844 L864.3156,375.3906 C864.3156,373.6094 865.5656,372.2969 867.3,372.2969 C867.8781,372.2969 868.4875,372.4531 868.9563,372.7031 C869.4406,372.9844 869.6125,373.2031 869.7063,373.6094 C869.7688,374.0156 869.8,374.1406 869.9406,374.2656 C870.0813,374.4063 870.3156,374.5156 870.5344,374.5156 C870.8,374.5156 871.0656,374.375 871.2375,374.1563 C871.3469,374 871.3781,373.8125 871.3781,373.3906 L871.3781,371.9688 C871.3781,371.5313 871.3625,371.4063 871.2688,371.25 C871.1125,370.9844 870.8313,370.8438 870.5344,370.8438 C870.2375,370.8438 870.0344,370.9375 869.8156,371.25 L869.6438,371.1719 Z " fill="#000000"/><text fill="#000000" font-family="sans-serif" font-size="14" lengthAdjust="spacing" textLength="90" x="885.7" y="380.3467">StatusEntity</text><line style="stroke:#181818;stroke-width:0.5;" x1="833.5" x2="997.5" y1="391.5" y2="391.5"/><ellipse cx="843.5" cy="402.5" fill="none" rx="3" ry="3" style="stroke:#038048;stroke-width:1.0;"/><text fill="#000000" font-family="sans-serif" font-size="14" lengthAdjust="spacing" textLength="78" x="852.5" y="408.4951">id: number</text><ellipse cx="843.5" cy="418.7969" fill="none" rx="3" ry="3" style="stroke:#038048;stroke-width:1.0;"/><text fill="#000000" font-family="sans-serif" font-size="14" lengthAdjust="spacing" textLength="85" x="852.5" y="424.792">type: string</text><ellipse cx="843.5" cy="435.0938" fill="none" rx="3" ry="3" style="stroke:#038048;stroke-width:1.0;"/><text fill="#000000" font-family="sans-serif" font-size="14" lengthAdjust="spacing" textLength="86" x="852.5" y="441.0889">code: string</text><ellipse cx="843.5" cy="451.3906" fill="none" rx="3" ry="3" style="stroke:#038048;stroke-width:1.0;"/><text fill="#000000" font-family="sans-serif" font-size="14" lengthAdjust="spacing" textLength="91" x="852.5" y="457.3857">name: string</text><ellipse cx="843.5" cy="467.6875" fill="none" rx="3" ry="3" style="stroke:#038048;stroke-width:1.0;"/><text fill="#000000" font-family="sans-serif" font-size="14" lengthAdjust="spacing" textLength="140" x="852.5" y="473.6826">todos: TodoEntity[]</text><line style="stroke:#181818;stroke-width:0.5;" x1="833.5" x2="997.5" y1="480.9844" y2="480.9844"/></g><!--MD5=[e94d231384a51b05733b2dafe609b38f]
class TodoList--><g id="elem_TodoList"><rect codeLine="82" fill="#F1F1F1" height="96.8906" id="TodoList" rx="2.5" ry="2.5" style="stroke:#181818;stroke-width:0.5;" width="212" x="76.5" y="711.5"/><ellipse cx="147.25" cy="727.5" fill="#ADD1B2" rx="11" ry="11" style="stroke:#181818;stroke-width:1.0;"/><path d="M149.5938,723.1719 C148.6563,722.7344 148.0625,722.5938 147.1875,722.5938 C144.5625,722.5938 142.5625,724.6719 142.5625,727.3906 L142.5625,728.5156 C142.5625,731.0938 144.6719,732.9844 147.5625,732.9844 C148.7813,732.9844 149.9375,732.6875 150.6875,732.1406 C151.2656,731.7344 151.5938,731.2813 151.5938,730.8906 C151.5938,730.4375 151.2031,730.0469 150.7344,730.0469 C150.5156,730.0469 150.3125,730.125 150.125,730.3125 C149.6719,730.7969 149.6719,730.7969 149.4844,730.8906 C149.0625,731.1563 148.375,731.2813 147.6094,731.2813 C145.5625,731.2813 144.2656,730.1875 144.2656,728.4844 L144.2656,727.3906 C144.2656,725.6094 145.5156,724.2969 147.25,724.2969 C147.8281,724.2969 148.4375,724.4531 148.9063,724.7031 C149.3906,724.9844 149.5625,725.2031 149.6563,725.6094 C149.7188,726.0156 149.75,726.1406 149.8906,726.2656 C150.0313,726.4063 150.2656,726.5156 150.4844,726.5156 C150.75,726.5156 151.0156,726.375 151.1875,726.1563 C151.2969,726 151.3281,725.8125 151.3281,725.3906 L151.3281,723.9688 C151.3281,723.5313 151.3125,723.4063 151.2188,723.25 C151.0625,722.9844 150.7813,722.8438 150.4844,722.8438 C150.1875,722.8438 149.9844,722.9375 149.7656,723.25 L149.5938,723.1719 Z " fill="#000000"/><text fill="#000000" font-family="sans-serif" font-size="14" lengthAdjust="spacing" textLength="62" x="167.75" y="732.3467">TodoList</text><line style="stroke:#181818;stroke-width:0.5;" x1="77.5" x2="287.5" y1="743.5" y2="743.5"/><rect fill="none" height="6" style="stroke:#C82930;stroke-width:1.0;" width="6" x="84.5" y="751.5"/><text fill="#000000" font-family="sans-serif" font-size="14" lengthAdjust="spacing" textLength="92" x="96.5" y="760.4951">value: Todo[]</text><ellipse cx="87.5" cy="770.7969" fill="none" rx="3" ry="3" style="stroke:#038048;stroke-width:1.0;"/><text fill="#000000" font-family="sans-serif" font-size="14" lengthAdjust="spacing" textLength="94" x="96.5" y="776.792">Value: Todo[]</text><line style="stroke:#181818;stroke-width:0.5;" x1="77.5" x2="287.5" y1="784.0938" y2="784.0938"/><ellipse cx="87.5" cy="795.0938" fill="#84BE84" rx="3" ry="3" style="stroke:#038048;stroke-width:1.0;"/><text fill="#000000" font-family="sans-serif" font-size="14" lengthAdjust="spacing" textLength="186" x="96.5" y="801.0889">add(todo: Todo): TodoList</text></g><!--MD5=[4c557e82ab1fd837e5a934d1e0e1cd2c]
class TodoRepository--><g id="elem_TodoRepository"><rect codeLine="87" fill="#F1F1F1" height="162.0781" id="TodoRepository" rx="2.5" ry="2.5" style="stroke:#181818;stroke-width:0.5;" width="545" x="324" y="679"/><ellipse cx="534.75" cy="695" fill="#ADD1B2" rx="11" ry="11" style="stroke:#181818;stroke-width:1.0;"/><path d="M537.0938,690.6719 C536.1563,690.2344 535.5625,690.0938 534.6875,690.0938 C532.0625,690.0938 530.0625,692.1719 530.0625,694.8906 L530.0625,696.0156 C530.0625,698.5938 532.1719,700.4844 535.0625,700.4844 C536.2813,700.4844 537.4375,700.1875 538.1875,699.6406 C538.7656,699.2344 539.0938,698.7813 539.0938,698.3906 C539.0938,697.9375 538.7031,697.5469 538.2344,697.5469 C538.0156,697.5469 537.8125,697.625 537.625,697.8125 C537.1719,698.2969 537.1719,698.2969 536.9844,698.3906 C536.5625,698.6563 535.875,698.7813 535.1094,698.7813 C533.0625,698.7813 531.7656,697.6875 531.7656,695.9844 L531.7656,694.8906 C531.7656,693.1094 533.0156,691.7969 534.75,691.7969 C535.3281,691.7969 535.9375,691.9531 536.4063,692.2031 C536.8906,692.4844 537.0625,692.7031 537.1563,693.1094 C537.2188,693.5156 537.25,693.6406 537.3906,693.7656 C537.5313,693.9063 537.7656,694.0156 537.9844,694.0156 C538.25,694.0156 538.5156,693.875 538.6875,693.6563 C538.7969,693.5 538.8281,693.3125 538.8281,692.8906 L538.8281,691.4688 C538.8281,691.0313 538.8125,690.9063 538.7188,690.75 C538.5625,690.4844 538.2813,690.3438 537.9844,690.3438 C537.6875,690.3438 537.4844,690.4375 537.2656,690.75 L537.0938,690.6719 Z " fill="#000000"/><text fill="#000000" font-family="sans-serif" font-size="14" lengthAdjust="spacing" textLength="115" x="555.25" y="699.8467">TodoRepository</text><line style="stroke:#181818;stroke-width:0.5;" x1="325" x2="868" y1="711" y2="711"/><rect fill="none" height="6" style="stroke:#C82930;stroke-width:1.0;" width="6" x="332" y="719"/><text fill="#000000" font-family="sans-serif" font-size="14" lengthAdjust="spacing" textLength="229" x="344" y="727.9951">repository: Repository&lt;Entity&gt;</text><line style="stroke:#181818;stroke-width:0.5;" x1="325" x2="868" y1="735.2969" y2="735.2969"/><rect fill="#F24D5C" height="6" style="stroke:#C82930;stroke-width:1.0;" width="6" x="332" y="743.2969"/><text fill="#000000" font-family="sans-serif" font-size="14" lengthAdjust="spacing" textLength="519" x="344" y="752.292">createUpdateStatus(todo: DomainObject): Promise&lt;StatusEntity | null&gt;</text><ellipse cx="335" cy="762.5938" fill="#84BE84" rx="3" ry="3" style="stroke:#038048;stroke-width:1.0;"/><text fill="#000000" font-family="sans-serif" font-size="14" lengthAdjust="spacing" textLength="308" x="344" y="768.5889">getTodos(): Promise&lt;FirstClassCollection&gt;</text><ellipse cx="335" cy="778.8906" fill="#84BE84" rx="3" ry="3" style="stroke:#038048;stroke-width:1.0;"/><text fill="#000000" font-family="sans-serif" font-size="14" lengthAdjust="spacing" textLength="380" x="344" y="784.8857">getTodo(id: number): Promise&lt;DomainObject | null&gt;</text><ellipse cx="335" cy="795.1875" fill="#84BE84" rx="3" ry="3" style="stroke:#038048;stroke-width:1.0;"/><text fill="#000000" font-family="sans-serif" font-size="14" lengthAdjust="spacing" textLength="338" x="344" y="801.1826">addTodo(todo: DomainObject): Promise&lt;void&gt;</text><ellipse cx="335" cy="811.4844" fill="#84BE84" rx="3" ry="3" style="stroke:#038048;stroke-width:1.0;"/><text fill="#000000" font-family="sans-serif" font-size="14" lengthAdjust="spacing" textLength="359" x="344" y="817.4795">deleteTodo(todo: DomainObject): Promise&lt;void&gt;</text><ellipse cx="335" cy="827.7813" fill="#84BE84" rx="3" ry="3" style="stroke:#038048;stroke-width:1.0;"/><text fill="#000000" font-family="sans-serif" font-size="14" lengthAdjust="spacing" textLength="363" x="344" y="833.7764">updateTodo(todo: DomainObject): Promise&lt;void&gt;</text></g><!--MD5=[a25ccc1209b4bad4051a7be06c87c7b8]
class TodoController--><g id="elem_TodoController"><rect codeLine="96" fill="#F1F1F1" height="129.4844" id="TodoController" rx="2.5" ry="2.5" style="stroke:#181818;stroke-width:0.5;" width="344" x="904.5" y="695.5"/><ellipse cx="1017.75" cy="711.5" fill="#ADD1B2" rx="11" ry="11" style="stroke:#181818;stroke-width:1.0;"/><path d="M1020.0938,707.1719 C1019.1563,706.7344 1018.5625,706.5938 1017.6875,706.5938 C1015.0625,706.5938 1013.0625,708.6719 1013.0625,711.3906 L1013.0625,712.5156 C1013.0625,715.0938 1015.1719,716.9844 1018.0625,716.9844 C1019.2813,716.9844 1020.4375,716.6875 1021.1875,716.1406 C1021.7656,715.7344 1022.0938,715.2813 1022.0938,714.8906 C1022.0938,714.4375 1021.7031,714.0469 1021.2344,714.0469 C1021.0156,714.0469 1020.8125,714.125 1020.625,714.3125 C1020.1719,714.7969 1020.1719,714.7969 1019.9844,714.8906 C1019.5625,715.1563 1018.875,715.2813 1018.1094,715.2813 C1016.0625,715.2813 1014.7656,714.1875 1014.7656,712.4844 L1014.7656,711.3906 C1014.7656,709.6094 1016.0156,708.2969 1017.75,708.2969 C1018.3281,708.2969 1018.9375,708.4531 1019.4063,708.7031 C1019.8906,708.9844 1020.0625,709.2031 1020.1563,709.6094 C1020.2188,710.0156 1020.25,710.1406 1020.3906,710.2656 C1020.5313,710.4063 1020.7656,710.5156 1020.9844,710.5156 C1021.25,710.5156 1021.5156,710.375 1021.6875,710.1563 C1021.7969,710 1021.8281,709.8125 1021.8281,709.3906 L1021.8281,707.9688 C1021.8281,707.5313 1021.8125,707.4063 1021.7188,707.25 C1021.5625,706.9844 1021.2813,706.8438 1020.9844,706.8438 C1020.6875,706.8438 1020.4844,706.9375 1020.2656,707.25 L1020.0938,707.1719 Z " fill="#000000"/><text fill="#000000" font-family="sans-serif" font-size="14" lengthAdjust="spacing" textLength="109" x="1038.25" y="716.3467">TodoController</text><line style="stroke:#181818;stroke-width:0.5;" x1="905.5" x2="1247.5" y1="727.5" y2="727.5"/><rect fill="none" height="6" style="stroke:#C82930;stroke-width:1.0;" width="6" x="912.5" y="735.5"/><text fill="#000000" font-family="sans-serif" font-size="14" lengthAdjust="spacing" textLength="149" x="924.5" y="744.4951">service: TodoService</text><line style="stroke:#181818;stroke-width:0.5;" x1="905.5" x2="1247.5" y1="751.7969" y2="751.7969"/><ellipse cx="915.5" cy="762.7969" fill="#84BE84" rx="3" ry="3" style="stroke:#038048;stroke-width:1.0;"/><text fill="#000000" font-family="sans-serif" font-size="14" lengthAdjust="spacing" textLength="223" x="924.5" y="768.792">selectAll(): Promise&lt;TodoList&gt;</text><ellipse cx="915.5" cy="779.0938" fill="#84BE84" rx="3" ry="3" style="stroke:#038048;stroke-width:1.0;"/><text fill="#000000" font-family="sans-serif" font-size="14" lengthAdjust="spacing" textLength="314" x="924.5" y="785.0889">create(todo: TodoRequest): Promise&lt;void&gt;</text><ellipse cx="915.5" cy="795.3906" fill="#84BE84" rx="3" ry="3" style="stroke:#038048;stroke-width:1.0;"/><text fill="#000000" font-family="sans-serif" font-size="14" lengthAdjust="spacing" textLength="314" x="924.5" y="801.3857">delete(todo: TodoRequest): Promise&lt;void&gt;</text><ellipse cx="915.5" cy="811.6875" fill="#84BE84" rx="3" ry="3" style="stroke:#038048;stroke-width:1.0;"/><text fill="#000000" font-family="sans-serif" font-size="14" lengthAdjust="spacing" textLength="318" x="924.5" y="817.6826">update(todo: TodoRequest): Promise&lt;void&gt;</text></g><!--MD5=[607c01281c15983c44675f9e6dea3db6]
class TodoService--><g id="elem_TodoService"><rect codeLine="103" fill="#F1F1F1" height="129.4844" id="TodoService" rx="2.5" ry="2.5" style="stroke:#181818;stroke-width:0.5;" width="363" x="1284" y="695.5"/><ellipse cx="1416.75" cy="711.5" fill="#ADD1B2" rx="11" ry="11" style="stroke:#181818;stroke-width:1.0;"/><path d="M1419.0938,707.1719 C1418.1563,706.7344 1417.5625,706.5938 1416.6875,706.5938 C1414.0625,706.5938 1412.0625,708.6719 1412.0625,711.3906 L1412.0625,712.5156 C1412.0625,715.0938 1414.1719,716.9844 1417.0625,716.9844 C1418.2813,716.9844 1419.4375,716.6875 1420.1875,716.1406 C1420.7656,715.7344 1421.0938,715.2813 1421.0938,714.8906 C1421.0938,714.4375 1420.7031,714.0469 1420.2344,714.0469 C1420.0156,714.0469 1419.8125,714.125 1419.625,714.3125 C1419.1719,714.7969 1419.1719,714.7969 1418.9844,714.8906 C1418.5625,715.1563 1417.875,715.2813 1417.1094,715.2813 C1415.0625,715.2813 1413.7656,714.1875 1413.7656,712.4844 L1413.7656,711.3906 C1413.7656,709.6094 1415.0156,708.2969 1416.75,708.2969 C1417.3281,708.2969 1417.9375,708.4531 1418.4063,708.7031 C1418.8906,708.9844 1419.0625,709.2031 1419.1563,709.6094 C1419.2188,710.0156 1419.25,710.1406 1419.3906,710.2656 C1419.5313,710.4063 1419.7656,710.5156 1419.9844,710.5156 C1420.25,710.5156 1420.5156,710.375 1420.6875,710.1563 C1420.7969,710 1420.8281,709.8125 1420.8281,709.3906 L1420.8281,707.9688 C1420.8281,707.5313 1420.8125,707.4063 1420.7188,707.25 C1420.5625,706.9844 1420.2813,706.8438 1419.9844,706.8438 C1419.6875,706.8438 1419.4844,706.9375 1419.2656,707.25 L1419.0938,707.1719 Z " fill="#000000"/><text fill="#000000" font-family="sans-serif" font-size="14" lengthAdjust="spacing" textLength="89" x="1437.25" y="716.3467">TodoService</text><line style="stroke:#181818;stroke-width:0.5;" x1="1285" x2="1646" y1="727.5" y2="727.5"/><rect fill="none" height="6" style="stroke:#C82930;stroke-width:1.0;" width="6" x="1292" y="735.5"/><text fill="#000000" font-family="sans-serif" font-size="14" lengthAdjust="spacing" textLength="199" x="1304" y="744.4951">repository: TodoRepository</text><line style="stroke:#181818;stroke-width:0.5;" x1="1285" x2="1646" y1="751.7969" y2="751.7969"/><ellipse cx="1295" cy="762.7969" fill="#84BE84" rx="3" ry="3" style="stroke:#038048;stroke-width:1.0;"/><text fill="#000000" font-family="sans-serif" font-size="14" lengthAdjust="spacing" textLength="223" x="1304" y="768.792">selectAll(): Promise&lt;TodoList&gt;</text><ellipse cx="1295" cy="779.0938" fill="#84BE84" rx="3" ry="3" style="stroke:#038048;stroke-width:1.0;"/><text fill="#000000" font-family="sans-serif" font-size="14" lengthAdjust="spacing" textLength="333" x="1304" y="785.0889">create(params: TodoRequest): Promise&lt;void&gt;</text><ellipse cx="1295" cy="795.3906" fill="#84BE84" rx="3" ry="3" style="stroke:#038048;stroke-width:1.0;"/><text fill="#000000" font-family="sans-serif" font-size="14" lengthAdjust="spacing" textLength="333" x="1304" y="801.3857">delete(params: TodoRequest): Promise&lt;void&gt;</text><ellipse cx="1295" cy="811.6875" fill="#84BE84" rx="3" ry="3" style="stroke:#038048;stroke-width:1.0;"/><text fill="#000000" font-family="sans-serif" font-size="14" lengthAdjust="spacing" textLength="337" x="1304" y="817.6826">update(params: TodoRequest): Promise&lt;void&gt;</text></g><!--MD5=[ebb592ff29e93e2dfd26247b56493251]
reverse link TodoStatus to NotStarted--><g id="link_TodoStatus_NotStarted"><path d="M1546.21,183.713 C1533.15,198.057 1520.81,213.326 1510.5,229 C1473.65,285.012 1451.28,362.043 1441.81,399.981 " fill="none" id="TodoStatus-backto-NotStarted" style="stroke:#181818;stroke-width:1.0;"/><polygon fill="none" points="1541.19,178.834,1560.02,169.123,1551.36,188.459,1541.19,178.834" style="stroke:#181818;stroke-width:1.0;"/></g><!--MD5=[63986a0e5cc34f102e943fcb74e6a640]
reverse link TodoStatus to InProgress--><g id="link_TodoStatus_InProgress"><path d="M1632.72,188.653 C1616.64,262.225 1595.98,356.745 1586.57,399.79 " fill="none" id="TodoStatus-backto-InProgress" style="stroke:#181818;stroke-width:1.0;"/><polygon fill="none" points="1625.91,187.045,1637.01,169.001,1639.58,190.035,1625.91,187.045" style="stroke:#181818;stroke-width:1.0;"/></g><!--MD5=[6e26457b256553e6fb06ab3173327d68]
reverse link TodoStatus to Completed--><g id="link_TodoStatus_Completed"><path d="M1675.98,188.653 C1691.84,262.225 1712.22,356.745 1721.5,399.79 " fill="none" id="TodoStatus-backto-Completed" style="stroke:#181818;stroke-width:1.0;"/><polygon fill="none" points="1669.12,190.027,1671.75,169.001,1682.8,187.077,1669.12,190.027" style="stroke:#181818;stroke-width:1.0;"/></g><!--MD5=[119361190cdd54cf66ab20ad6dd3660c]
reverse link TodoStatus to Undefined--><g id="link_TodoStatus_Undefined"><path d="M1764.86,183.692 C1777.95,197.999 1790.27,213.265 1800.5,229 C1836.79,284.841 1857.3,361.949 1865.8,399.943 " fill="none" id="TodoStatus-backto-Undefined" style="stroke:#181818;stroke-width:1.0;"/><polygon fill="none" points="1759.73,188.455,1751,169.15,1769.86,178.793,1759.73,188.455" style="stroke:#181818;stroke-width:1.0;"/></g><!--MD5=[7dd7e3e10259d115aa01e647ebf43555]
@startuml
class CompletedAt {
    -value: Date | null
    +Value: Date | null
    +equals(completedAt: CompletedAt): boolean
}
class CreatedAt {
    -value: Date
    +Value: Date
    +equals(createdAt: CreatedAt): boolean
}
class DueDate {
    -value: Date | null
    +Value: Date | null
    +equals(dueDate: DueDate): boolean
    +overDue(day?: Date): boolean
}
class Title {
    -value: string
    +Value: string
    +equals(other: Title): boolean
}
enum TodoStatusType {
    UNDEFINED
    NOT_STARTED
    IN_PROGRESS
    COMPLETED
}
namespace TodoStatusTypeEnum {
}
abstract class TodoStatus {
    #value: string
    #type: string
    #code: string
    +Value: string
    +Type: string
    +Code: string
    +{static} create(todo: Todo): TodoStatus
}
class NotStarted extends TodoStatus
class InProgress extends TodoStatus
class Completed extends TodoStatus
class Undefined extends TodoStatus
class Todo {
    -title: Title
    -isCompleted: boolean
    -createdAt: CreatedAt
    -completedAt: CompletedAt
    -dueDate: DueDate
    -isOverDue: boolean
    -status: TodoStatus
    -id: number | null
    +Title: string
    +Completed: boolean
    +CreatedAt: Date
    +CompletedAt: Date | null
    +DueDate: Date | null
    +OverDue: boolean
    +Status: string
    +Id: number | null
    +StatusCode: string
    +StatusType: string
    +complete(): Todo
    +setDueDate(due: DueDate): Todo
    +equals(other: Todo): boolean
}
class TodoEntity {
    +id: number
    +title: string
    +completed: boolean
    +dueDate: Date | null
    +createdAt: Date
    +completedAt: Date | null
    +status: StatusEntity
}
class StatusEntity {
    +id: number
    +type: string
    +code: string
    +name: string
    +todos: TodoEntity[]
}
class TodoList {
    -value: Todo[]
    +Value: Todo[]
    +add(todo: Todo): TodoList
}
class TodoRepository {
    -repository: Repository<Entity>
    -createUpdateStatus(todo: DomainObject): Promise<StatusEntity | null>
    +getTodos(): Promise<FirstClassCollection>
    +getTodo(id: number): Promise<DomainObject | null>
    +addTodo(todo: DomainObject): Promise<void>
    +deleteTodo(todo: DomainObject): Promise<void>
    +updateTodo(todo: DomainObject): Promise<void>
}
class TodoController {
    -service: TodoService
    +selectAll(): Promise<TodoList>
    +create(todo: TodoRequest): Promise<void>
    +delete(todo: TodoRequest): Promise<void>
    +update(todo: TodoRequest): Promise<void>
}
class TodoService {
    -repository: TodoRepository
    +selectAll(): Promise<TodoList>
    +create(params: TodoRequest): Promise<void>
    +delete(params: TodoRequest): Promise<void>
    +update(params: TodoRequest): Promise<void>
}
@enduml

PlantUML version 1.2022.4beta2(Unknown compile time)
(GPL source distribution)
Java Runtime: Java(TM) SE Runtime Environment
JVM: Java HotSpot(TM) 64-Bit Server VM
Default Encoding: UTF-8
Language: en
Country: US
--></g></svg>