<?xml version="1.0" encoding="UTF-8" standalone="no"?><svg xmlns="http://www.w3.org/2000/svg" xmlns:xlink="http://www.w3.org/1999/xlink" contentStyleType="text/css" height="577px" preserveAspectRatio="none" style="width:3005px;height:577px;background:#FFFFFF;" version="1.1" viewBox="0 0 3005 577" width="3005px" zoomAndPan="magnify"><defs/><g><!--MD5=[d304ca89bdbd8073bbc1ba7ea9e70f7d]
class Todo--><g id="elem_Todo"><rect codeLine="39" fill="#F1F1F1" height="390.2344" id="Todo" rx="2.5" ry="2.5" style="stroke:#181818;stroke-width:0.5;" width="265" x="1049" y="180"/><ellipse cx="1159.25" cy="196" fill="#ADD1B2" rx="11" ry="11" style="stroke:#181818;stroke-width:1.0;"/><path d="M1161.5938,191.6719 C1160.6563,191.2344 1160.0625,191.0938 1159.1875,191.0938 C1156.5625,191.0938 1154.5625,193.1719 1154.5625,195.8906 L1154.5625,197.0156 C1154.5625,199.5938 1156.6719,201.4844 1159.5625,201.4844 C1160.7813,201.4844 1161.9375,201.1875 1162.6875,200.6406 C1163.2656,200.2344 1163.5938,199.7813 1163.5938,199.3906 C1163.5938,198.9375 1163.2031,198.5469 1162.7344,198.5469 C1162.5156,198.5469 1162.3125,198.625 1162.125,198.8125 C1161.6719,199.2969 1161.6719,199.2969 1161.4844,199.3906 C1161.0625,199.6563 1160.375,199.7813 1159.6094,199.7813 C1157.5625,199.7813 1156.2656,198.6875 1156.2656,196.9844 L1156.2656,195.8906 C1156.2656,194.1094 1157.5156,192.7969 1159.25,192.7969 C1159.8281,192.7969 1160.4375,192.9531 1160.9063,193.2031 C1161.3906,193.4844 1161.5625,193.7031 1161.6563,194.1094 C1161.7188,194.5156 1161.75,194.6406 1161.8906,194.7656 C1162.0313,194.9063 1162.2656,195.0156 1162.4844,195.0156 C1162.75,195.0156 1163.0156,194.875 1163.1875,194.6563 C1163.2969,194.5 1163.3281,194.3125 1163.3281,193.8906 L1163.3281,192.4688 C1163.3281,192.0313 1163.3125,191.9063 1163.2188,191.75 C1163.0625,191.4844 1162.7813,191.3438 1162.4844,191.3438 C1162.1875,191.3438 1161.9844,191.4375 1161.7656,191.75 L1161.5938,191.6719 Z " fill="#000000"/><text fill="#000000" font-family="sans-serif" font-size="14" lengthAdjust="spacing" textLength="36" x="1179.75" y="200.8467">Todo</text><line style="stroke:#181818;stroke-width:0.5;" x1="1050" x2="1313" y1="212" y2="212"/><ellipse cx="1060" cy="223" fill="none" rx="3" ry="3" style="stroke:#038048;stroke-width:1.0;"/><text fill="#000000" font-family="sans-serif" font-size="14" lengthAdjust="spacing" textLength="78" x="1069" y="228.9951">id: number</text><ellipse cx="1060" cy="239.2969" fill="none" rx="3" ry="3" style="stroke:#038048;stroke-width:1.0;"/><text fill="#000000" font-family="sans-serif" font-size="14" lengthAdjust="spacing" textLength="82" x="1069" y="245.292">title: string</text><ellipse cx="1060" cy="255.5938" fill="none" rx="3" ry="3" style="stroke:#038048;stroke-width:1.0;"/><text fill="#000000" font-family="sans-serif" font-size="14" lengthAdjust="spacing" textLength="146" x="1069" y="261.5889">completed: boolean</text><ellipse cx="1060" cy="271.8906" fill="none" rx="3" ry="3" style="stroke:#038048;stroke-width:1.0;"/><text fill="#000000" font-family="sans-serif" font-size="14" lengthAdjust="spacing" textLength="143" x="1069" y="277.8857">dueDate: Date | null</text><ellipse cx="1060" cy="288.1875" fill="none" rx="3" ry="3" style="stroke:#038048;stroke-width:1.0;"/><text fill="#000000" font-family="sans-serif" font-size="14" lengthAdjust="spacing" textLength="117" x="1069" y="294.1826">createdAt: Date</text><ellipse cx="1060" cy="304.4844" fill="none" rx="3" ry="3" style="stroke:#038048;stroke-width:1.0;"/><text fill="#000000" font-family="sans-serif" font-size="14" lengthAdjust="spacing" textLength="178" x="1069" y="310.4795">completedAt: Date | null</text><ellipse cx="1060" cy="320.7813" fill="none" rx="3" ry="3" style="stroke:#038048;stroke-width:1.0;"/><text fill="#000000" font-family="sans-serif" font-size="14" lengthAdjust="spacing" textLength="95" x="1069" y="326.7764">status: string</text><rect fill="none" height="6" style="stroke:#C82930;stroke-width:1.0;" width="6" x="1057" y="334.0781"/><text fill="#000000" font-family="sans-serif" font-size="14" lengthAdjust="spacing" textLength="73" x="1069" y="343.0732">title: Title</text><rect fill="none" height="6" style="stroke:#C82930;stroke-width:1.0;" width="6" x="1057" y="350.375"/><text fill="#000000" font-family="sans-serif" font-size="14" lengthAdjust="spacing" textLength="146" x="1069" y="359.3701">completed: boolean</text><rect fill="none" height="6" style="stroke:#C82930;stroke-width:1.0;" width="6" x="1057" y="366.6719"/><text fill="#000000" font-family="sans-serif" font-size="14" lengthAdjust="spacing" textLength="157" x="1069" y="375.667">createdAt: CreatedAt</text><rect fill="none" height="6" style="stroke:#C82930;stroke-width:1.0;" width="6" x="1057" y="382.9688"/><text fill="#000000" font-family="sans-serif" font-size="14" lengthAdjust="spacing" textLength="203" x="1069" y="391.9639">completedAt: CompletedAt</text><rect fill="none" height="6" style="stroke:#C82930;stroke-width:1.0;" width="6" x="1057" y="399.2656"/><text fill="#000000" font-family="sans-serif" font-size="14" lengthAdjust="spacing" textLength="133" x="1069" y="408.2607">dueDate: DueDate</text><ellipse cx="1060" cy="418.5625" fill="none" rx="3" ry="3" style="stroke:#038048;stroke-width:1.0;"/><text fill="#000000" font-family="sans-serif" font-size="14" lengthAdjust="spacing" textLength="84" x="1069" y="424.5576">Title: string</text><ellipse cx="1060" cy="434.8594" fill="none" rx="3" ry="3" style="stroke:#038048;stroke-width:1.0;"/><text fill="#000000" font-family="sans-serif" font-size="14" lengthAdjust="spacing" textLength="148" x="1069" y="440.8545">Completed: boolean</text><ellipse cx="1060" cy="451.1563" fill="none" rx="3" ry="3" style="stroke:#038048;stroke-width:1.0;"/><text fill="#000000" font-family="sans-serif" font-size="14" lengthAdjust="spacing" textLength="119" x="1069" y="457.1514">CreatedAt: Date</text><ellipse cx="1060" cy="467.4531" fill="none" rx="3" ry="3" style="stroke:#038048;stroke-width:1.0;"/><text fill="#000000" font-family="sans-serif" font-size="14" lengthAdjust="spacing" textLength="180" x="1069" y="473.4482">CompletedAt: Date | null</text><ellipse cx="1060" cy="483.75" fill="none" rx="3" ry="3" style="stroke:#038048;stroke-width:1.0;"/><text fill="#000000" font-family="sans-serif" font-size="14" lengthAdjust="spacing" textLength="145" x="1069" y="489.7451">DueDate: Date | null</text><line style="stroke:#181818;stroke-width:0.5;" x1="1050" x2="1313" y1="497.0469" y2="497.0469"/><ellipse cx="1060" cy="508.0469" fill="#84BE84" rx="3" ry="3" style="stroke:#038048;stroke-width:1.0;"/><text fill="#000000" font-family="sans-serif" font-size="14" lengthAdjust="spacing" textLength="119" x="1069" y="514.042">complete(): void</text><ellipse cx="1060" cy="524.3438" fill="#84BE84" rx="3" ry="3" style="stroke:#038048;stroke-width:1.0;"/><text fill="#000000" font-family="sans-serif" font-size="14" lengthAdjust="spacing" textLength="137" x="1069" y="530.3389">overDue(): boolean</text><ellipse cx="1060" cy="540.6406" fill="#84BE84" rx="3" ry="3" style="stroke:#038048;stroke-width:1.0;"/><text fill="#000000" font-family="sans-serif" font-size="14" lengthAdjust="spacing" textLength="239" x="1069" y="546.6357">setDueDate(due: DueDate): Todo</text><ellipse cx="1060" cy="556.9375" fill="#84BE84" rx="3" ry="3" style="stroke:#038048;stroke-width:1.0;"/><text fill="#000000" font-family="sans-serif" font-size="14" lengthAdjust="spacing" textLength="207" x="1069" y="562.9326">equals(other: Todo): boolean</text></g><!--MD5=[7d75efcc7d06b347edea0516f6aac1d8]
class BaseEntity--><g id="elem_BaseEntity"><rect fill="#F1F1F1" height="48" id="BaseEntity" rx="2.5" ry="2.5" style="stroke:#181818;stroke-width:0.5;" width="110" x="1126.5" y="39.5"/><ellipse cx="1141.5" cy="55.5" fill="#ADD1B2" rx="11" ry="11" style="stroke:#181818;stroke-width:1.0;"/><path d="M1143.8438,51.1719 C1142.9063,50.7344 1142.3125,50.5938 1141.4375,50.5938 C1138.8125,50.5938 1136.8125,52.6719 1136.8125,55.3906 L1136.8125,56.5156 C1136.8125,59.0938 1138.9219,60.9844 1141.8125,60.9844 C1143.0313,60.9844 1144.1875,60.6875 1144.9375,60.1406 C1145.5156,59.7344 1145.8438,59.2813 1145.8438,58.8906 C1145.8438,58.4375 1145.4531,58.0469 1144.9844,58.0469 C1144.7656,58.0469 1144.5625,58.125 1144.375,58.3125 C1143.9219,58.7969 1143.9219,58.7969 1143.7344,58.8906 C1143.3125,59.1563 1142.625,59.2813 1141.8594,59.2813 C1139.8125,59.2813 1138.5156,58.1875 1138.5156,56.4844 L1138.5156,55.3906 C1138.5156,53.6094 1139.7656,52.2969 1141.5,52.2969 C1142.0781,52.2969 1142.6875,52.4531 1143.1563,52.7031 C1143.6406,52.9844 1143.8125,53.2031 1143.9063,53.6094 C1143.9688,54.0156 1144,54.1406 1144.1406,54.2656 C1144.2813,54.4063 1144.5156,54.5156 1144.7344,54.5156 C1145,54.5156 1145.2656,54.375 1145.4375,54.1563 C1145.5469,54 1145.5781,53.8125 1145.5781,53.3906 L1145.5781,51.9688 C1145.5781,51.5313 1145.5625,51.4063 1145.4688,51.25 C1145.3125,50.9844 1145.0313,50.8438 1144.7344,50.8438 C1144.4375,50.8438 1144.2344,50.9375 1144.0156,51.25 L1143.8438,51.1719 Z " fill="#000000"/><text fill="#000000" font-family="sans-serif" font-size="14" lengthAdjust="spacing" textLength="78" x="1155.5" y="60.3467">BaseEntity</text><line style="stroke:#181818;stroke-width:0.5;" x1="1127.5" x2="1235.5" y1="71.5" y2="71.5"/><line style="stroke:#181818;stroke-width:0.5;" x1="1127.5" x2="1235.5" y1="79.5" y2="79.5"/></g><!--MD5=[f3a432345cbe8f2bb5c17570319e88a3]
class CreateCommand--><g id="elem_CreateCommand"><rect codeLine="10" fill="#F1F1F1" height="80.5938" id="CreateCommand" rx="2.5" ry="2.5" style="stroke:#181818;stroke-width:0.5;" width="386" x="1349.5" y="334.5"/><ellipse cx="1477.25" cy="350.5" fill="#ADD1B2" rx="11" ry="11" style="stroke:#181818;stroke-width:1.0;"/><path d="M1479.5938,346.1719 C1478.6563,345.7344 1478.0625,345.5938 1477.1875,345.5938 C1474.5625,345.5938 1472.5625,347.6719 1472.5625,350.3906 L1472.5625,351.5156 C1472.5625,354.0938 1474.6719,355.9844 1477.5625,355.9844 C1478.7813,355.9844 1479.9375,355.6875 1480.6875,355.1406 C1481.2656,354.7344 1481.5938,354.2813 1481.5938,353.8906 C1481.5938,353.4375 1481.2031,353.0469 1480.7344,353.0469 C1480.5156,353.0469 1480.3125,353.125 1480.125,353.3125 C1479.6719,353.7969 1479.6719,353.7969 1479.4844,353.8906 C1479.0625,354.1563 1478.375,354.2813 1477.6094,354.2813 C1475.5625,354.2813 1474.2656,353.1875 1474.2656,351.4844 L1474.2656,350.3906 C1474.2656,348.6094 1475.5156,347.2969 1477.25,347.2969 C1477.8281,347.2969 1478.4375,347.4531 1478.9063,347.7031 C1479.3906,347.9844 1479.5625,348.2031 1479.6563,348.6094 C1479.7188,349.0156 1479.75,349.1406 1479.8906,349.2656 C1480.0313,349.4063 1480.2656,349.5156 1480.4844,349.5156 C1480.75,349.5156 1481.0156,349.375 1481.1875,349.1563 C1481.2969,349 1481.3281,348.8125 1481.3281,348.3906 L1481.3281,346.9688 C1481.3281,346.5313 1481.3125,346.4063 1481.2188,346.25 C1481.0625,345.9844 1480.7813,345.8438 1480.4844,345.8438 C1480.1875,345.8438 1479.9844,345.9375 1479.7656,346.25 L1479.5938,346.1719 Z " fill="#000000"/><text fill="#000000" font-family="sans-serif" font-size="14" lengthAdjust="spacing" textLength="122" x="1497.75" y="355.3467">CreateCommand</text><line style="stroke:#181818;stroke-width:0.5;" x1="1350.5" x2="1734.5" y1="366.5" y2="366.5"/><rect fill="none" height="6" style="stroke:#C82930;stroke-width:1.0;" width="6" x="1357.5" y="374.5"/><text fill="#000000" font-family="sans-serif" font-size="14" lengthAdjust="spacing" textLength="79" x="1369.5" y="383.4951">type: Type</text><line style="stroke:#181818;stroke-width:0.5;" x1="1350.5" x2="1734.5" y1="390.7969" y2="390.7969"/><ellipse cx="1360.5" cy="401.7969" fill="#84BE84" rx="3" ry="3" style="stroke:#038048;stroke-width:1.0;"/><text fill="#000000" font-family="sans-serif" font-size="14" lengthAdjust="spacing" textLength="360" x="1369.5" y="407.792">execute(params: Params): Promise&lt;void | Todo[]&gt;</text></g><!--MD5=[521817ab83e81da341a3f4b5e91bae41]
class Command--><g id="elem_Command"><rect codeLine="36" fill="#F1F1F1" height="64.2969" id="Command" rx="2.5" ry="2.5" style="stroke:#181818;stroke-width:0.5;" width="386" x="1980.5" y="31.5"/><ellipse cx="2132.25" cy="47.5" fill="#B4A7E5" rx="11" ry="11" style="stroke:#181818;stroke-width:1.0;"/><path d="M2133.2031,44.2813 L2134.9219,44.2813 C2135.3125,44.2813 2135.5,44.25 2135.625,44.1719 C2135.8906,44.0156 2136.0313,43.7344 2136.0313,43.4375 C2136.0313,43.1719 2135.9219,42.9063 2135.6875,42.7344 C2135.5156,42.625 2135.375,42.5938 2134.9219,42.5938 L2129.7813,42.5938 C2129.3438,42.5938 2129.2188,42.6094 2129.0625,42.7031 C2128.8125,42.8594 2128.6563,43.1563 2128.6563,43.4375 C2128.6563,43.7188 2128.7969,43.9688 2129.0156,44.1406 C2129.1719,44.25 2129.3594,44.2813 2129.7813,44.2813 L2131.5,44.2813 L2131.5,50.7969 L2129.7813,50.7969 C2129.3438,50.7969 2129.2188,50.8125 2129.0625,50.9219 C2128.8125,51.0781 2128.6563,51.3594 2128.6563,51.6563 C2128.6563,51.9063 2128.7969,52.1719 2129.0156,52.3281 C2129.1719,52.4531 2129.375,52.5 2129.7813,52.5 L2134.9219,52.5 C2135.6719,52.5 2136.0313,52.2188 2136.0313,51.6563 C2136.0313,51.375 2135.9219,51.125 2135.6875,50.9531 C2135.5156,50.8281 2135.375,50.7969 2134.9219,50.7969 L2133.2031,50.7969 L2133.2031,44.2813 Z " fill="#000000"/><text fill="#000000" font-family="sans-serif" font-size="14" font-style="italic" lengthAdjust="spacing" textLength="74" x="2152.75" y="52.3467">Command</text><line style="stroke:#181818;stroke-width:0.5;" x1="1981.5" x2="2365.5" y1="63.5" y2="63.5"/><line style="stroke:#181818;stroke-width:0.5;" x1="1981.5" x2="2365.5" y1="71.5" y2="71.5"/><ellipse cx="1991.5" cy="82.5" fill="#84BE84" rx="3" ry="3" style="stroke:#038048;stroke-width:1.0;"/><text fill="#000000" font-family="sans-serif" font-size="14" lengthAdjust="spacing" textLength="360" x="2000.5" y="88.4951">execute(params: Params): Promise&lt;void | Todo[]&gt;</text></g><!--MD5=[522bcce41d81f20cd1f9638a73c3e08a]
class DeleteCommand--><g id="elem_DeleteCommand"><rect codeLine="14" fill="#F1F1F1" height="80.5938" id="DeleteCommand" rx="2.5" ry="2.5" style="stroke:#181818;stroke-width:0.5;" width="386" x="1770.5" y="334.5"/><ellipse cx="1898.25" cy="350.5" fill="#ADD1B2" rx="11" ry="11" style="stroke:#181818;stroke-width:1.0;"/><path d="M1900.5938,346.1719 C1899.6563,345.7344 1899.0625,345.5938 1898.1875,345.5938 C1895.5625,345.5938 1893.5625,347.6719 1893.5625,350.3906 L1893.5625,351.5156 C1893.5625,354.0938 1895.6719,355.9844 1898.5625,355.9844 C1899.7813,355.9844 1900.9375,355.6875 1901.6875,355.1406 C1902.2656,354.7344 1902.5938,354.2813 1902.5938,353.8906 C1902.5938,353.4375 1902.2031,353.0469 1901.7344,353.0469 C1901.5156,353.0469 1901.3125,353.125 1901.125,353.3125 C1900.6719,353.7969 1900.6719,353.7969 1900.4844,353.8906 C1900.0625,354.1563 1899.375,354.2813 1898.6094,354.2813 C1896.5625,354.2813 1895.2656,353.1875 1895.2656,351.4844 L1895.2656,350.3906 C1895.2656,348.6094 1896.5156,347.2969 1898.25,347.2969 C1898.8281,347.2969 1899.4375,347.4531 1899.9063,347.7031 C1900.3906,347.9844 1900.5625,348.2031 1900.6563,348.6094 C1900.7188,349.0156 1900.75,349.1406 1900.8906,349.2656 C1901.0313,349.4063 1901.2656,349.5156 1901.4844,349.5156 C1901.75,349.5156 1902.0156,349.375 1902.1875,349.1563 C1902.2969,349 1902.3281,348.8125 1902.3281,348.3906 L1902.3281,346.9688 C1902.3281,346.5313 1902.3125,346.4063 1902.2188,346.25 C1902.0625,345.9844 1901.7813,345.8438 1901.4844,345.8438 C1901.1875,345.8438 1900.9844,345.9375 1900.7656,346.25 L1900.5938,346.1719 Z " fill="#000000"/><text fill="#000000" font-family="sans-serif" font-size="14" lengthAdjust="spacing" textLength="122" x="1918.75" y="355.3467">DeleteCommand</text><line style="stroke:#181818;stroke-width:0.5;" x1="1771.5" x2="2155.5" y1="366.5" y2="366.5"/><rect fill="none" height="6" style="stroke:#C82930;stroke-width:1.0;" width="6" x="1778.5" y="374.5"/><text fill="#000000" font-family="sans-serif" font-size="14" lengthAdjust="spacing" textLength="79" x="1790.5" y="383.4951">type: Type</text><line style="stroke:#181818;stroke-width:0.5;" x1="1771.5" x2="2155.5" y1="390.7969" y2="390.7969"/><ellipse cx="1781.5" cy="401.7969" fill="#84BE84" rx="3" ry="3" style="stroke:#038048;stroke-width:1.0;"/><text fill="#000000" font-family="sans-serif" font-size="14" lengthAdjust="spacing" textLength="360" x="1790.5" y="407.792">execute(params: Params): Promise&lt;void | Todo[]&gt;</text></g><!--MD5=[860a12987066b8aebfd02ff37a4e9912]
class ReadCommand--><g id="elem_ReadCommand"><rect codeLine="18" fill="#F1F1F1" height="80.5938" id="ReadCommand" rx="2.5" ry="2.5" style="stroke:#181818;stroke-width:0.5;" width="386" x="2191.5" y="334.5"/><ellipse cx="2325.75" cy="350.5" fill="#ADD1B2" rx="11" ry="11" style="stroke:#181818;stroke-width:1.0;"/><path d="M2328.0938,346.1719 C2327.1563,345.7344 2326.5625,345.5938 2325.6875,345.5938 C2323.0625,345.5938 2321.0625,347.6719 2321.0625,350.3906 L2321.0625,351.5156 C2321.0625,354.0938 2323.1719,355.9844 2326.0625,355.9844 C2327.2813,355.9844 2328.4375,355.6875 2329.1875,355.1406 C2329.7656,354.7344 2330.0938,354.2813 2330.0938,353.8906 C2330.0938,353.4375 2329.7031,353.0469 2329.2344,353.0469 C2329.0156,353.0469 2328.8125,353.125 2328.625,353.3125 C2328.1719,353.7969 2328.1719,353.7969 2327.9844,353.8906 C2327.5625,354.1563 2326.875,354.2813 2326.1094,354.2813 C2324.0625,354.2813 2322.7656,353.1875 2322.7656,351.4844 L2322.7656,350.3906 C2322.7656,348.6094 2324.0156,347.2969 2325.75,347.2969 C2326.3281,347.2969 2326.9375,347.4531 2327.4063,347.7031 C2327.8906,347.9844 2328.0625,348.2031 2328.1563,348.6094 C2328.2188,349.0156 2328.25,349.1406 2328.3906,349.2656 C2328.5313,349.4063 2328.7656,349.5156 2328.9844,349.5156 C2329.25,349.5156 2329.5156,349.375 2329.6875,349.1563 C2329.7969,349 2329.8281,348.8125 2329.8281,348.3906 L2329.8281,346.9688 C2329.8281,346.5313 2329.8125,346.4063 2329.7188,346.25 C2329.5625,345.9844 2329.2813,345.8438 2328.9844,345.8438 C2328.6875,345.8438 2328.4844,345.9375 2328.2656,346.25 L2328.0938,346.1719 Z " fill="#000000"/><text fill="#000000" font-family="sans-serif" font-size="14" lengthAdjust="spacing" textLength="109" x="2346.25" y="355.3467">ReadCommand</text><line style="stroke:#181818;stroke-width:0.5;" x1="2192.5" x2="2576.5" y1="366.5" y2="366.5"/><rect fill="none" height="6" style="stroke:#C82930;stroke-width:1.0;" width="6" x="2199.5" y="374.5"/><text fill="#000000" font-family="sans-serif" font-size="14" lengthAdjust="spacing" textLength="79" x="2211.5" y="383.4951">type: Type</text><line style="stroke:#181818;stroke-width:0.5;" x1="2192.5" x2="2576.5" y1="390.7969" y2="390.7969"/><ellipse cx="2202.5" cy="401.7969" fill="#84BE84" rx="3" ry="3" style="stroke:#038048;stroke-width:1.0;"/><text fill="#000000" font-family="sans-serif" font-size="14" lengthAdjust="spacing" textLength="360" x="2211.5" y="407.792">execute(params: Params): Promise&lt;void | Todo[]&gt;</text></g><!--MD5=[63bad1f31134c1e488d3f6c2fa12da5b]
class UpdateCommand--><g id="elem_UpdateCommand"><rect codeLine="22" fill="#F1F1F1" height="80.5938" id="UpdateCommand" rx="2.5" ry="2.5" style="stroke:#181818;stroke-width:0.5;" width="386" x="2612.5" y="334.5"/><ellipse cx="2738.75" cy="350.5" fill="#ADD1B2" rx="11" ry="11" style="stroke:#181818;stroke-width:1.0;"/><path d="M2741.0938,346.1719 C2740.1563,345.7344 2739.5625,345.5938 2738.6875,345.5938 C2736.0625,345.5938 2734.0625,347.6719 2734.0625,350.3906 L2734.0625,351.5156 C2734.0625,354.0938 2736.1719,355.9844 2739.0625,355.9844 C2740.2813,355.9844 2741.4375,355.6875 2742.1875,355.1406 C2742.7656,354.7344 2743.0938,354.2813 2743.0938,353.8906 C2743.0938,353.4375 2742.7031,353.0469 2742.2344,353.0469 C2742.0156,353.0469 2741.8125,353.125 2741.625,353.3125 C2741.1719,353.7969 2741.1719,353.7969 2740.9844,353.8906 C2740.5625,354.1563 2739.875,354.2813 2739.1094,354.2813 C2737.0625,354.2813 2735.7656,353.1875 2735.7656,351.4844 L2735.7656,350.3906 C2735.7656,348.6094 2737.0156,347.2969 2738.75,347.2969 C2739.3281,347.2969 2739.9375,347.4531 2740.4063,347.7031 C2740.8906,347.9844 2741.0625,348.2031 2741.1563,348.6094 C2741.2188,349.0156 2741.25,349.1406 2741.3906,349.2656 C2741.5313,349.4063 2741.7656,349.5156 2741.9844,349.5156 C2742.25,349.5156 2742.5156,349.375 2742.6875,349.1563 C2742.7969,349 2742.8281,348.8125 2742.8281,348.3906 L2742.8281,346.9688 C2742.8281,346.5313 2742.8125,346.4063 2742.7188,346.25 C2742.5625,345.9844 2742.2813,345.8438 2741.9844,345.8438 C2741.6875,345.8438 2741.4844,345.9375 2741.2656,346.25 L2741.0938,346.1719 Z " fill="#000000"/><text fill="#000000" font-family="sans-serif" font-size="14" lengthAdjust="spacing" textLength="125" x="2759.25" y="355.3467">UpdateCommand</text><line style="stroke:#181818;stroke-width:0.5;" x1="2613.5" x2="2997.5" y1="366.5" y2="366.5"/><rect fill="none" height="6" style="stroke:#C82930;stroke-width:1.0;" width="6" x="2620.5" y="374.5"/><text fill="#000000" font-family="sans-serif" font-size="14" lengthAdjust="spacing" textLength="79" x="2632.5" y="383.4951">type: Type</text><line style="stroke:#181818;stroke-width:0.5;" x1="2613.5" x2="2997.5" y1="390.7969" y2="390.7969"/><ellipse cx="2623.5" cy="401.7969" fill="#84BE84" rx="3" ry="3" style="stroke:#038048;stroke-width:1.0;"/><text fill="#000000" font-family="sans-serif" font-size="14" lengthAdjust="spacing" textLength="360" x="2632.5" y="407.792">execute(params: Params): Promise&lt;void | Todo[]&gt;</text></g><!--MD5=[4296a1ab0576a383a1a509d52c22ebf0]
class Type--><g id="elem_Type"><rect codeLine="26" fill="#F1F1F1" height="113.1875" id="Type" rx="2.5" ry="2.5" style="stroke:#181818;stroke-width:0.5;" width="69" x="125" y="7"/><ellipse cx="140.45" cy="23" fill="#EB937F" rx="11" ry="11" style="stroke:#181818;stroke-width:1.0;"/><path d="M139.2469,23.875 L140.7,23.875 L140.7,23.9844 C140.7,24.3906 140.7313,24.5469 140.8094,24.7031 C140.9656,24.9531 141.2469,25.1094 141.5438,25.1094 C141.7938,25.1094 142.0594,24.9688 142.2156,24.75 C142.3406,24.5938 142.3719,24.4375 142.3719,23.9844 L142.3719,22.0625 C142.3719,21.9063 142.3719,21.8594 142.3563,21.7031 C142.2938,21.2344 141.9813,20.9219 141.5281,20.9219 C141.2781,20.9219 141.0125,21.0625 140.8406,21.2813 C140.7313,21.4531 140.7,21.6094 140.7,22.0625 L140.7,22.1875 L139.2469,22.1875 L139.2469,19.7813 L143.2313,19.7813 L143.2313,20.6406 C143.2313,21.0469 143.2625,21.2188 143.3406,21.375 C143.5125,21.625 143.7938,21.7813 144.075,21.7813 C144.3406,21.7813 144.6063,21.6406 144.7781,21.4219 C144.8875,21.25 144.9188,21.1094 144.9188,20.6406 L144.9188,18.0938 L137.2938,18.0938 C136.8563,18.0938 136.7313,18.1094 136.575,18.2031 C136.325,18.3594 136.1688,18.6563 136.1688,18.9375 C136.1688,19.2188 136.3094,19.4688 136.5281,19.6406 C136.6844,19.75 136.8719,19.7813 137.2938,19.7813 L137.5438,19.7813 L137.5438,26.2969 L137.2938,26.2969 C136.8875,26.2969 136.7313,26.3125 136.575,26.4219 C136.325,26.5938 136.1688,26.8594 136.1688,27.1563 C136.1688,27.4219 136.3094,27.6719 136.5281,27.8281 C136.6688,27.9531 136.9031,28 137.2938,28 L145.2938,28 L145.2938,25.4219 C145.2938,24.9844 145.2625,24.8438 145.1844,24.6875 C145.0125,24.4375 144.7313,24.2813 144.45,24.2813 C144.1844,24.2813 143.9188,24.3906 143.7469,24.6406 C143.6375,24.7969 143.6063,24.9375 143.6063,25.4219 L143.6063,26.2969 L139.2469,26.2969 L139.2469,23.875 Z " fill="#000000"/><text fill="#000000" font-family="sans-serif" font-size="14" lengthAdjust="spacing" textLength="36" x="154.55" y="27.8467">Type</text><line style="stroke:#181818;stroke-width:0.5;" x1="126" x2="193" y1="39" y2="39"/><text fill="#000000" font-family="sans-serif" font-size="14" lengthAdjust="spacing" textLength="57" x="131" y="55.9951">CREATE</text><text fill="#000000" font-family="sans-serif" font-size="14" lengthAdjust="spacing" textLength="40" x="131" y="72.292">READ</text><text fill="#000000" font-family="sans-serif" font-size="14" lengthAdjust="spacing" textLength="57" x="131" y="88.5889">UPDATE</text><text fill="#000000" font-family="sans-serif" font-size="14" lengthAdjust="spacing" textLength="55" x="131" y="104.8857">DELETE</text><line style="stroke:#181818;stroke-width:0.5;" x1="126" x2="193" y1="112.1875" y2="112.1875"/></g><!--MD5=[607c01281c15983c44675f9e6dea3db6]
class TodoService--><g id="elem_TodoService"><rect codeLine="32" fill="#F1F1F1" height="80.5938" id="TodoService" rx="2.5" ry="2.5" style="stroke:#181818;stroke-width:0.5;" width="386" x="229.5" y="23"/><ellipse cx="373.75" cy="39" fill="#ADD1B2" rx="11" ry="11" style="stroke:#181818;stroke-width:1.0;"/><path d="M376.0938,34.6719 C375.1563,34.2344 374.5625,34.0938 373.6875,34.0938 C371.0625,34.0938 369.0625,36.1719 369.0625,38.8906 L369.0625,40.0156 C369.0625,42.5938 371.1719,44.4844 374.0625,44.4844 C375.2813,44.4844 376.4375,44.1875 377.1875,43.6406 C377.7656,43.2344 378.0938,42.7813 378.0938,42.3906 C378.0938,41.9375 377.7031,41.5469 377.2344,41.5469 C377.0156,41.5469 376.8125,41.625 376.625,41.8125 C376.1719,42.2969 376.1719,42.2969 375.9844,42.3906 C375.5625,42.6563 374.875,42.7813 374.1094,42.7813 C372.0625,42.7813 370.7656,41.6875 370.7656,39.9844 L370.7656,38.8906 C370.7656,37.1094 372.0156,35.7969 373.75,35.7969 C374.3281,35.7969 374.9375,35.9531 375.4063,36.2031 C375.8906,36.4844 376.0625,36.7031 376.1563,37.1094 C376.2188,37.5156 376.25,37.6406 376.3906,37.7656 C376.5313,37.9063 376.7656,38.0156 376.9844,38.0156 C377.25,38.0156 377.5156,37.875 377.6875,37.6563 C377.7969,37.5 377.8281,37.3125 377.8281,36.8906 L377.8281,35.4688 C377.8281,35.0313 377.8125,34.9063 377.7188,34.75 C377.5625,34.4844 377.2813,34.3438 376.9844,34.3438 C376.6875,34.3438 376.4844,34.4375 376.2656,34.75 L376.0938,34.6719 Z " fill="#000000"/><text fill="#000000" font-family="sans-serif" font-size="14" lengthAdjust="spacing" textLength="89" x="394.25" y="43.8467">TodoService</text><line style="stroke:#181818;stroke-width:0.5;" x1="230.5" x2="614.5" y1="55" y2="55"/><rect fill="none" height="6" style="stroke:#C82930;stroke-width:1.0;" width="6" x="237.5" y="63"/><text fill="#000000" font-family="sans-serif" font-size="14" lengthAdjust="spacing" textLength="153" x="249.5" y="71.9951">command: Command</text><line style="stroke:#181818;stroke-width:0.5;" x1="230.5" x2="614.5" y1="79.2969" y2="79.2969"/><ellipse cx="240.5" cy="90.2969" fill="#84BE84" rx="3" ry="3" style="stroke:#038048;stroke-width:1.0;"/><text fill="#000000" font-family="sans-serif" font-size="14" lengthAdjust="spacing" textLength="360" x="249.5" y="96.292">execute(params: Params): Promise&lt;void | Todo[]&gt;</text></g><!--MD5=[90111e5cdc788a7ef73a3273c23dcc2b]
class Title--><g id="elem_Title"><rect codeLine="55" fill="#F1F1F1" height="96.8906" id="Title" rx="2.5" ry="2.5" style="stroke:#181818;stroke-width:0.5;" width="230" x="650.5" y="15"/><ellipse cx="744.75" cy="31" fill="#ADD1B2" rx="11" ry="11" style="stroke:#181818;stroke-width:1.0;"/><path d="M747.0938,26.6719 C746.1563,26.2344 745.5625,26.0938 744.6875,26.0938 C742.0625,26.0938 740.0625,28.1719 740.0625,30.8906 L740.0625,32.0156 C740.0625,34.5938 742.1719,36.4844 745.0625,36.4844 C746.2813,36.4844 747.4375,36.1875 748.1875,35.6406 C748.7656,35.2344 749.0938,34.7813 749.0938,34.3906 C749.0938,33.9375 748.7031,33.5469 748.2344,33.5469 C748.0156,33.5469 747.8125,33.625 747.625,33.8125 C747.1719,34.2969 747.1719,34.2969 746.9844,34.3906 C746.5625,34.6563 745.875,34.7813 745.1094,34.7813 C743.0625,34.7813 741.7656,33.6875 741.7656,31.9844 L741.7656,30.8906 C741.7656,29.1094 743.0156,27.7969 744.75,27.7969 C745.3281,27.7969 745.9375,27.9531 746.4063,28.2031 C746.8906,28.4844 747.0625,28.7031 747.1563,29.1094 C747.2188,29.5156 747.25,29.6406 747.3906,29.7656 C747.5313,29.9063 747.7656,30.0156 747.9844,30.0156 C748.25,30.0156 748.5156,29.875 748.6875,29.6563 C748.7969,29.5 748.8281,29.3125 748.8281,28.8906 L748.8281,27.4688 C748.8281,27.0313 748.8125,26.9063 748.7188,26.75 C748.5625,26.4844 748.2813,26.3438 747.9844,26.3438 C747.6875,26.3438 747.4844,26.4375 747.2656,26.75 L747.0938,26.6719 Z " fill="#000000"/><text fill="#000000" font-family="sans-serif" font-size="14" lengthAdjust="spacing" textLength="33" x="765.25" y="35.8467">Title</text><line style="stroke:#181818;stroke-width:0.5;" x1="651.5" x2="879.5" y1="47" y2="47"/><rect fill="none" height="6" style="stroke:#C82930;stroke-width:1.0;" width="6" x="658.5" y="55"/><text fill="#000000" font-family="sans-serif" font-size="14" lengthAdjust="spacing" textLength="88" x="670.5" y="63.9951">value: string</text><ellipse cx="661.5" cy="74.2969" fill="none" rx="3" ry="3" style="stroke:#038048;stroke-width:1.0;"/><text fill="#000000" font-family="sans-serif" font-size="14" lengthAdjust="spacing" textLength="90" x="670.5" y="80.292">Value: string</text><line style="stroke:#181818;stroke-width:0.5;" x1="651.5" x2="879.5" y1="87.5938" y2="87.5938"/><ellipse cx="661.5" cy="98.5938" fill="#84BE84" rx="3" ry="3" style="stroke:#038048;stroke-width:1.0;"/><text fill="#000000" font-family="sans-serif" font-size="14" lengthAdjust="spacing" textLength="204" x="670.5" y="104.5889">equals(other: Title): boolean</text></g><!--MD5=[dde4359a43de047b4d984bc31705a409]
class CreatedAt--><g id="elem_CreatedAt"><rect codeLine="60" fill="#F1F1F1" height="96.8906" id="CreatedAt" rx="2.5" ry="2.5" style="stroke:#181818;stroke-width:0.5;" width="305" x="7" y="326.5"/><ellipse cx="117.75" cy="342.5" fill="#ADD1B2" rx="11" ry="11" style="stroke:#181818;stroke-width:1.0;"/><path d="M120.0938,338.1719 C119.1563,337.7344 118.5625,337.5938 117.6875,337.5938 C115.0625,337.5938 113.0625,339.6719 113.0625,342.3906 L113.0625,343.5156 C113.0625,346.0938 115.1719,347.9844 118.0625,347.9844 C119.2813,347.9844 120.4375,347.6875 121.1875,347.1406 C121.7656,346.7344 122.0938,346.2813 122.0938,345.8906 C122.0938,345.4375 121.7031,345.0469 121.2344,345.0469 C121.0156,345.0469 120.8125,345.125 120.625,345.3125 C120.1719,345.7969 120.1719,345.7969 119.9844,345.8906 C119.5625,346.1563 118.875,346.2813 118.1094,346.2813 C116.0625,346.2813 114.7656,345.1875 114.7656,343.4844 L114.7656,342.3906 C114.7656,340.6094 116.0156,339.2969 117.75,339.2969 C118.3281,339.2969 118.9375,339.4531 119.4063,339.7031 C119.8906,339.9844 120.0625,340.2031 120.1563,340.6094 C120.2188,341.0156 120.25,341.1406 120.3906,341.2656 C120.5313,341.4063 120.7656,341.5156 120.9844,341.5156 C121.25,341.5156 121.5156,341.375 121.6875,341.1563 C121.7969,341 121.8281,340.8125 121.8281,340.3906 L121.8281,338.9688 C121.8281,338.5313 121.8125,338.4063 121.7188,338.25 C121.5625,337.9844 121.2813,337.8438 120.9844,337.8438 C120.6875,337.8438 120.4844,337.9375 120.2656,338.25 L120.0938,338.1719 Z " fill="#000000"/><text fill="#000000" font-family="sans-serif" font-size="14" lengthAdjust="spacing" textLength="75" x="138.25" y="347.3467">CreatedAt</text><line style="stroke:#181818;stroke-width:0.5;" x1="8" x2="311" y1="358.5" y2="358.5"/><rect fill="none" height="6" style="stroke:#C82930;stroke-width:1.0;" width="6" x="15" y="366.5"/><text fill="#000000" font-family="sans-serif" font-size="14" lengthAdjust="spacing" textLength="81" x="27" y="375.4951">value: Date</text><ellipse cx="18" cy="385.7969" fill="none" rx="3" ry="3" style="stroke:#038048;stroke-width:1.0;"/><text fill="#000000" font-family="sans-serif" font-size="14" lengthAdjust="spacing" textLength="83" x="27" y="391.792">Value: Date</text><line style="stroke:#181818;stroke-width:0.5;" x1="8" x2="311" y1="399.0938" y2="399.0938"/><ellipse cx="18" cy="410.0938" fill="#84BE84" rx="3" ry="3" style="stroke:#038048;stroke-width:1.0;"/><text fill="#000000" font-family="sans-serif" font-size="14" lengthAdjust="spacing" textLength="279" x="27" y="416.0889">equals(createdAt: CreatedAt): boolean</text></g><!--MD5=[67f100d94b12044e782866d6f1627f13]
class CompletedAt--><g id="elem_CompletedAt"><rect codeLine="65" fill="#F1F1F1" height="96.8906" id="CompletedAt" rx="2.5" ry="2.5" style="stroke:#181818;stroke-width:0.5;" width="351" x="347" y="326.5"/><ellipse cx="469.25" cy="342.5" fill="#ADD1B2" rx="11" ry="11" style="stroke:#181818;stroke-width:1.0;"/><path d="M471.5938,338.1719 C470.6563,337.7344 470.0625,337.5938 469.1875,337.5938 C466.5625,337.5938 464.5625,339.6719 464.5625,342.3906 L464.5625,343.5156 C464.5625,346.0938 466.6719,347.9844 469.5625,347.9844 C470.7813,347.9844 471.9375,347.6875 472.6875,347.1406 C473.2656,346.7344 473.5938,346.2813 473.5938,345.8906 C473.5938,345.4375 473.2031,345.0469 472.7344,345.0469 C472.5156,345.0469 472.3125,345.125 472.125,345.3125 C471.6719,345.7969 471.6719,345.7969 471.4844,345.8906 C471.0625,346.1563 470.375,346.2813 469.6094,346.2813 C467.5625,346.2813 466.2656,345.1875 466.2656,343.4844 L466.2656,342.3906 C466.2656,340.6094 467.5156,339.2969 469.25,339.2969 C469.8281,339.2969 470.4375,339.4531 470.9063,339.7031 C471.3906,339.9844 471.5625,340.2031 471.6563,340.6094 C471.7188,341.0156 471.75,341.1406 471.8906,341.2656 C472.0313,341.4063 472.2656,341.5156 472.4844,341.5156 C472.75,341.5156 473.0156,341.375 473.1875,341.1563 C473.2969,341 473.3281,340.8125 473.3281,340.3906 L473.3281,338.9688 C473.3281,338.5313 473.3125,338.4063 473.2188,338.25 C473.0625,337.9844 472.7813,337.8438 472.4844,337.8438 C472.1875,337.8438 471.9844,337.9375 471.7656,338.25 L471.5938,338.1719 Z " fill="#000000"/><text fill="#000000" font-family="sans-serif" font-size="14" lengthAdjust="spacing" textLength="98" x="489.75" y="347.3467">CompletedAt</text><line style="stroke:#181818;stroke-width:0.5;" x1="348" x2="697" y1="358.5" y2="358.5"/><rect fill="none" height="6" style="stroke:#C82930;stroke-width:1.0;" width="6" x="355" y="366.5"/><text fill="#000000" font-family="sans-serif" font-size="14" lengthAdjust="spacing" textLength="119" x="367" y="375.4951">value: Date | null</text><ellipse cx="358" cy="385.7969" fill="none" rx="3" ry="3" style="stroke:#038048;stroke-width:1.0;"/><text fill="#000000" font-family="sans-serif" font-size="14" lengthAdjust="spacing" textLength="121" x="367" y="391.792">Value: Date | null</text><line style="stroke:#181818;stroke-width:0.5;" x1="348" x2="697" y1="399.0938" y2="399.0938"/><ellipse cx="358" cy="410.0938" fill="#84BE84" rx="3" ry="3" style="stroke:#038048;stroke-width:1.0;"/><text fill="#000000" font-family="sans-serif" font-size="14" lengthAdjust="spacing" textLength="325" x="367" y="416.0889">equals(completedAt: CompletedAt): boolean</text></g><!--MD5=[cf3bb39649ce7f8bfa01714f85686c3f]
class DueDate--><g id="elem_DueDate"><rect codeLine="70" fill="#F1F1F1" height="113.1875" id="DueDate" rx="2.5" ry="2.5" style="stroke:#181818;stroke-width:0.5;" width="281" x="733" y="318.5"/><ellipse cx="837.75" cy="334.5" fill="#ADD1B2" rx="11" ry="11" style="stroke:#181818;stroke-width:1.0;"/><path d="M840.0938,330.1719 C839.1563,329.7344 838.5625,329.5938 837.6875,329.5938 C835.0625,329.5938 833.0625,331.6719 833.0625,334.3906 L833.0625,335.5156 C833.0625,338.0938 835.1719,339.9844 838.0625,339.9844 C839.2813,339.9844 840.4375,339.6875 841.1875,339.1406 C841.7656,338.7344 842.0938,338.2813 842.0938,337.8906 C842.0938,337.4375 841.7031,337.0469 841.2344,337.0469 C841.0156,337.0469 840.8125,337.125 840.625,337.3125 C840.1719,337.7969 840.1719,337.7969 839.9844,337.8906 C839.5625,338.1563 838.875,338.2813 838.1094,338.2813 C836.0625,338.2813 834.7656,337.1875 834.7656,335.4844 L834.7656,334.3906 C834.7656,332.6094 836.0156,331.2969 837.75,331.2969 C838.3281,331.2969 838.9375,331.4531 839.4063,331.7031 C839.8906,331.9844 840.0625,332.2031 840.1563,332.6094 C840.2188,333.0156 840.25,333.1406 840.3906,333.2656 C840.5313,333.4063 840.7656,333.5156 840.9844,333.5156 C841.25,333.5156 841.5156,333.375 841.6875,333.1563 C841.7969,333 841.8281,332.8125 841.8281,332.3906 L841.8281,330.9688 C841.8281,330.5313 841.8125,330.4063 841.7188,330.25 C841.5625,329.9844 841.2813,329.8438 840.9844,329.8438 C840.6875,329.8438 840.4844,329.9375 840.2656,330.25 L840.0938,330.1719 Z " fill="#000000"/><text fill="#000000" font-family="sans-serif" font-size="14" lengthAdjust="spacing" textLength="63" x="858.25" y="339.3467">DueDate</text><line style="stroke:#181818;stroke-width:0.5;" x1="734" x2="1013" y1="350.5" y2="350.5"/><rect fill="none" height="6" style="stroke:#C82930;stroke-width:1.0;" width="6" x="741" y="358.5"/><text fill="#000000" font-family="sans-serif" font-size="14" lengthAdjust="spacing" textLength="119" x="753" y="367.4951">value: Date | null</text><ellipse cx="744" cy="377.7969" fill="none" rx="3" ry="3" style="stroke:#038048;stroke-width:1.0;"/><text fill="#000000" font-family="sans-serif" font-size="14" lengthAdjust="spacing" textLength="121" x="753" y="383.792">Value: Date | null</text><line style="stroke:#181818;stroke-width:0.5;" x1="734" x2="1013" y1="391.0938" y2="391.0938"/><ellipse cx="744" cy="402.0938" fill="#84BE84" rx="3" ry="3" style="stroke:#038048;stroke-width:1.0;"/><text fill="#000000" font-family="sans-serif" font-size="14" lengthAdjust="spacing" textLength="255" x="753" y="408.0889">equals(dueDate: DueDate): boolean</text><ellipse cx="744" cy="418.3906" fill="#84BE84" rx="3" ry="3" style="stroke:#038048;stroke-width:1.0;"/><text fill="#000000" font-family="sans-serif" font-size="14" lengthAdjust="spacing" textLength="137" x="753" y="424.3857">overDue(): boolean</text></g><!--MD5=[94ae539cce1b455668c4d34eee34237f]
reverse link BaseEntity to Todo--><g id="link_BaseEntity_Todo"><path d="M1181.5,107.614 C1181.5,127.586 1181.5,152.861 1181.5,179.85 " fill="none" id="BaseEntity-backto-Todo" style="stroke:#181818;stroke-width:1.0;"/><polygon fill="none" points="1174.5,107.51,1181.5,87.51,1188.5,107.51,1174.5,107.51" style="stroke:#181818;stroke-width:1.0;"/></g><!--MD5=[5c22d4112ec790d971d722e67981092f]
reverse link Command to CreateCommand--><g id="link_Command_CreateCommand"><path d="M1967.33,100.293 C1896.38,117.907 1818.29,143.474 1752.5,180 C1680.25,220.112 1613.15,290.11 1575.06,334.152 " fill="none" id="Command-backto-CreateCommand" style="stroke:#181818;stroke-width:1.0;stroke-dasharray:7.0,7.0;"/><polygon fill="none" points="1966.05,93.4,1987.14,95.533,1969.33,107.013,1966.05,93.4" style="stroke:#181818;stroke-width:1.0;"/></g><!--MD5=[f1beb5af875fdb2722f3c2f77ee742d1]
reverse link Command to DeleteCommand--><g id="link_Command_DeleteCommand"><path d="M2141.06,112.304 C2099.67,173.312 2028.82,277.724 1990.32,334.469 " fill="none" id="Command-backto-DeleteCommand" style="stroke:#181818;stroke-width:1.0;stroke-dasharray:7.0,7.0;"/><polygon fill="none" points="2135.38,108.213,2152.4,95.593,2146.97,116.073,2135.38,108.213" style="stroke:#181818;stroke-width:1.0;"/></g><!--MD5=[292f12d158eff402f9cf0abd0b32d86b]
reverse link Command to ReadCommand--><g id="link_Command_ReadCommand"><path d="M2206.09,112.304 C2247.68,173.312 2318.86,277.724 2357.55,334.469 " fill="none" id="Command-backto-ReadCommand" style="stroke:#181818;stroke-width:1.0;stroke-dasharray:7.0,7.0;"/><polygon fill="none" points="2200.18,116.061,2194.7,95.593,2211.75,108.175,2200.18,116.061" style="stroke:#181818;stroke-width:1.0;"/></g><!--MD5=[ad951ebeb6dd4d69fa81eea7b336f465]
reverse link Command to UpdateCommand--><g id="link_Command_UpdateCommand"><path d="M2380.4,100.285 C2451.46,117.892 2529.63,143.456 2595.5,180 C2667.77,220.09 2734.86,290.095 2772.94,334.144 " fill="none" id="Command-backto-UpdateCommand" style="stroke:#181818;stroke-width:1.0;stroke-dasharray:7.0,7.0;"/><polygon fill="none" points="2378.39,106.999,2360.57,95.528,2381.65,93.386,2378.39,106.999" style="stroke:#181818;stroke-width:1.0;"/></g><!--MD5=[4e6c8f4bafb7316097745b15aacf4ee3]
@startuml
class Todo extends BaseEntity {
    +id: number
    +title: string
    +completed: boolean
    +dueDate: Date | null
    +createdAt: Date
    +completedAt: Date | null
    +status: string
}
class CreateCommand implements Command {
    -type: Type
    +execute(params: Params): Promise<void | Todo[]>
}
class DeleteCommand implements Command {
    -type: Type
    +execute(params: Params): Promise<void | Todo[]>
}
class ReadCommand implements Command {
    -type: Type
    +execute(params: Params): Promise<void | Todo[]>
}
class UpdateCommand implements Command {
    -type: Type
    +execute(params: Params): Promise<void | Todo[]>
}
enum Type {
    CREATE
    READ
    UPDATE
    DELETE
}
class TodoService {
    -command: Command
    +execute(params: Params): Promise<void | Todo[]>
}
interface Command {
    +execute(params: Params): Promise<void | Todo[]>
}
class Todo {
    -title: Title
    -completed: boolean
    -createdAt: CreatedAt
    -completedAt: CompletedAt
    -dueDate: DueDate
    +Title: string
    +Completed: boolean
    +CreatedAt: Date
    +CompletedAt: Date | null
    +DueDate: Date | null
    +complete(): void
    +overDue(): boolean
    +setDueDate(due: DueDate): Todo
    +equals(other: Todo): boolean
}
class Title {
    -value: string
    +Value: string
    +equals(other: Title): boolean
}
class CreatedAt {
    -value: Date
    +Value: Date
    +equals(createdAt: CreatedAt): boolean
}
class CompletedAt {
    -value: Date | null
    +Value: Date | null
    +equals(completedAt: CompletedAt): boolean
}
class DueDate {
    -value: Date | null
    +Value: Date | null
    +equals(dueDate: DueDate): boolean
    +overDue(): boolean
}
@enduml

PlantUML version 1.2022.4beta2(Unknown compile time)
(GPL source distribution)
Java Runtime: Java(TM) SE Runtime Environment
JVM: Java HotSpot(TM) 64-Bit Server VM
Default Encoding: UTF-8
Language: en
Country: US
--></g></svg>