<?xml version="1.0" encoding="UTF-8" standalone="no"?><svg xmlns="http://www.w3.org/2000/svg" xmlns:xlink="http://www.w3.org/1999/xlink" contentStyleType="text/css" height="733px" preserveAspectRatio="none" style="width:1091px;height:733px;background:#FFFFFF;" version="1.1" viewBox="0 0 1091 733" width="1091px" zoomAndPan="magnify"><defs/><g><!--MD5=[67f100d94b12044e782866d6f1627f13]
class CompletedAt--><g id="elem_CompletedAt"><rect codeLine="1" fill="#F1F1F1" height="96.8906" id="CompletedAt" rx="2.5" ry="2.5" style="stroke:#181818;stroke-width:0.5;" width="351" x="7" y="15"/><ellipse cx="129.25" cy="31" fill="#ADD1B2" rx="11" ry="11" style="stroke:#181818;stroke-width:1.0;"/><path d="M131.5938,26.6719 C130.6563,26.2344 130.0625,26.0938 129.1875,26.0938 C126.5625,26.0938 124.5625,28.1719 124.5625,30.8906 L124.5625,32.0156 C124.5625,34.5938 126.6719,36.4844 129.5625,36.4844 C130.7813,36.4844 131.9375,36.1875 132.6875,35.6406 C133.2656,35.2344 133.5938,34.7813 133.5938,34.3906 C133.5938,33.9375 133.2031,33.5469 132.7344,33.5469 C132.5156,33.5469 132.3125,33.625 132.125,33.8125 C131.6719,34.2969 131.6719,34.2969 131.4844,34.3906 C131.0625,34.6563 130.375,34.7813 129.6094,34.7813 C127.5625,34.7813 126.2656,33.6875 126.2656,31.9844 L126.2656,30.8906 C126.2656,29.1094 127.5156,27.7969 129.25,27.7969 C129.8281,27.7969 130.4375,27.9531 130.9063,28.2031 C131.3906,28.4844 131.5625,28.7031 131.6563,29.1094 C131.7188,29.5156 131.75,29.6406 131.8906,29.7656 C132.0313,29.9063 132.2656,30.0156 132.4844,30.0156 C132.75,30.0156 133.0156,29.875 133.1875,29.6563 C133.2969,29.5 133.3281,29.3125 133.3281,28.8906 L133.3281,27.4688 C133.3281,27.0313 133.3125,26.9063 133.2188,26.75 C133.0625,26.4844 132.7813,26.3438 132.4844,26.3438 C132.1875,26.3438 131.9844,26.4375 131.7656,26.75 L131.5938,26.6719 Z " fill="#000000"/><text fill="#000000" font-family="sans-serif" font-size="14" lengthAdjust="spacing" textLength="98" x="149.75" y="35.8467">CompletedAt</text><line style="stroke:#181818;stroke-width:0.5;" x1="8" x2="357" y1="47" y2="47"/><rect fill="none" height="6" style="stroke:#C82930;stroke-width:1.0;" width="6" x="15" y="55"/><text fill="#000000" font-family="sans-serif" font-size="14" lengthAdjust="spacing" textLength="119" x="27" y="63.9951">value: Date | null</text><ellipse cx="18" cy="74.2969" fill="none" rx="3" ry="3" style="stroke:#038048;stroke-width:1.0;"/><text fill="#000000" font-family="sans-serif" font-size="14" lengthAdjust="spacing" textLength="121" x="27" y="80.292">Value: Date | null</text><line style="stroke:#181818;stroke-width:0.5;" x1="8" x2="357" y1="87.5938" y2="87.5938"/><ellipse cx="18" cy="98.5938" fill="#84BE84" rx="3" ry="3" style="stroke:#038048;stroke-width:1.0;"/><text fill="#000000" font-family="sans-serif" font-size="14" lengthAdjust="spacing" textLength="325" x="27" y="104.5889">equals(completedAt: CompletedAt): boolean</text></g><!--MD5=[dde4359a43de047b4d984bc31705a409]
class CreatedAt--><g id="elem_CreatedAt"><rect codeLine="6" fill="#F1F1F1" height="96.8906" id="CreatedAt" rx="2.5" ry="2.5" style="stroke:#181818;stroke-width:0.5;" width="305" x="393" y="15"/><ellipse cx="503.75" cy="31" fill="#ADD1B2" rx="11" ry="11" style="stroke:#181818;stroke-width:1.0;"/><path d="M506.0938,26.6719 C505.1563,26.2344 504.5625,26.0938 503.6875,26.0938 C501.0625,26.0938 499.0625,28.1719 499.0625,30.8906 L499.0625,32.0156 C499.0625,34.5938 501.1719,36.4844 504.0625,36.4844 C505.2813,36.4844 506.4375,36.1875 507.1875,35.6406 C507.7656,35.2344 508.0938,34.7813 508.0938,34.3906 C508.0938,33.9375 507.7031,33.5469 507.2344,33.5469 C507.0156,33.5469 506.8125,33.625 506.625,33.8125 C506.1719,34.2969 506.1719,34.2969 505.9844,34.3906 C505.5625,34.6563 504.875,34.7813 504.1094,34.7813 C502.0625,34.7813 500.7656,33.6875 500.7656,31.9844 L500.7656,30.8906 C500.7656,29.1094 502.0156,27.7969 503.75,27.7969 C504.3281,27.7969 504.9375,27.9531 505.4063,28.2031 C505.8906,28.4844 506.0625,28.7031 506.1563,29.1094 C506.2188,29.5156 506.25,29.6406 506.3906,29.7656 C506.5313,29.9063 506.7656,30.0156 506.9844,30.0156 C507.25,30.0156 507.5156,29.875 507.6875,29.6563 C507.7969,29.5 507.8281,29.3125 507.8281,28.8906 L507.8281,27.4688 C507.8281,27.0313 507.8125,26.9063 507.7188,26.75 C507.5625,26.4844 507.2813,26.3438 506.9844,26.3438 C506.6875,26.3438 506.4844,26.4375 506.2656,26.75 L506.0938,26.6719 Z " fill="#000000"/><text fill="#000000" font-family="sans-serif" font-size="14" lengthAdjust="spacing" textLength="75" x="524.25" y="35.8467">CreatedAt</text><line style="stroke:#181818;stroke-width:0.5;" x1="394" x2="697" y1="47" y2="47"/><rect fill="none" height="6" style="stroke:#C82930;stroke-width:1.0;" width="6" x="401" y="55"/><text fill="#000000" font-family="sans-serif" font-size="14" lengthAdjust="spacing" textLength="81" x="413" y="63.9951">value: Date</text><ellipse cx="404" cy="74.2969" fill="none" rx="3" ry="3" style="stroke:#038048;stroke-width:1.0;"/><text fill="#000000" font-family="sans-serif" font-size="14" lengthAdjust="spacing" textLength="83" x="413" y="80.292">Value: Date</text><line style="stroke:#181818;stroke-width:0.5;" x1="394" x2="697" y1="87.5938" y2="87.5938"/><ellipse cx="404" cy="98.5938" fill="#84BE84" rx="3" ry="3" style="stroke:#038048;stroke-width:1.0;"/><text fill="#000000" font-family="sans-serif" font-size="14" lengthAdjust="spacing" textLength="279" x="413" y="104.5889">equals(createdAt: CreatedAt): boolean</text></g><!--MD5=[cf3bb39649ce7f8bfa01714f85686c3f]
class DueDate--><g id="elem_DueDate"><rect codeLine="11" fill="#F1F1F1" height="113.1875" id="DueDate" rx="2.5" ry="2.5" style="stroke:#181818;stroke-width:0.5;" width="281" x="733" y="7"/><ellipse cx="837.75" cy="23" fill="#ADD1B2" rx="11" ry="11" style="stroke:#181818;stroke-width:1.0;"/><path d="M840.0938,18.6719 C839.1563,18.2344 838.5625,18.0938 837.6875,18.0938 C835.0625,18.0938 833.0625,20.1719 833.0625,22.8906 L833.0625,24.0156 C833.0625,26.5938 835.1719,28.4844 838.0625,28.4844 C839.2813,28.4844 840.4375,28.1875 841.1875,27.6406 C841.7656,27.2344 842.0938,26.7813 842.0938,26.3906 C842.0938,25.9375 841.7031,25.5469 841.2344,25.5469 C841.0156,25.5469 840.8125,25.625 840.625,25.8125 C840.1719,26.2969 840.1719,26.2969 839.9844,26.3906 C839.5625,26.6563 838.875,26.7813 838.1094,26.7813 C836.0625,26.7813 834.7656,25.6875 834.7656,23.9844 L834.7656,22.8906 C834.7656,21.1094 836.0156,19.7969 837.75,19.7969 C838.3281,19.7969 838.9375,19.9531 839.4063,20.2031 C839.8906,20.4844 840.0625,20.7031 840.1563,21.1094 C840.2188,21.5156 840.25,21.6406 840.3906,21.7656 C840.5313,21.9063 840.7656,22.0156 840.9844,22.0156 C841.25,22.0156 841.5156,21.875 841.6875,21.6563 C841.7969,21.5 841.8281,21.3125 841.8281,20.8906 L841.8281,19.4688 C841.8281,19.0313 841.8125,18.9063 841.7188,18.75 C841.5625,18.4844 841.2813,18.3438 840.9844,18.3438 C840.6875,18.3438 840.4844,18.4375 840.2656,18.75 L840.0938,18.6719 Z " fill="#000000"/><text fill="#000000" font-family="sans-serif" font-size="14" lengthAdjust="spacing" textLength="63" x="858.25" y="27.8467">DueDate</text><line style="stroke:#181818;stroke-width:0.5;" x1="734" x2="1013" y1="39" y2="39"/><rect fill="none" height="6" style="stroke:#C82930;stroke-width:1.0;" width="6" x="741" y="47"/><text fill="#000000" font-family="sans-serif" font-size="14" lengthAdjust="spacing" textLength="119" x="753" y="55.9951">value: Date | null</text><ellipse cx="744" cy="66.2969" fill="none" rx="3" ry="3" style="stroke:#038048;stroke-width:1.0;"/><text fill="#000000" font-family="sans-serif" font-size="14" lengthAdjust="spacing" textLength="121" x="753" y="72.292">Value: Date | null</text><line style="stroke:#181818;stroke-width:0.5;" x1="734" x2="1013" y1="79.5938" y2="79.5938"/><ellipse cx="744" cy="90.5938" fill="#84BE84" rx="3" ry="3" style="stroke:#038048;stroke-width:1.0;"/><text fill="#000000" font-family="sans-serif" font-size="14" lengthAdjust="spacing" textLength="255" x="753" y="96.5889">equals(dueDate: DueDate): boolean</text><ellipse cx="744" cy="106.8906" fill="#84BE84" rx="3" ry="3" style="stroke:#038048;stroke-width:1.0;"/><text fill="#000000" font-family="sans-serif" font-size="14" lengthAdjust="spacing" textLength="137" x="753" y="112.8857">overDue(): boolean</text></g><!--MD5=[90111e5cdc788a7ef73a3273c23dcc2b]
class Title--><g id="elem_Title"><rect codeLine="17" fill="#F1F1F1" height="96.8906" id="Title" rx="2.5" ry="2.5" style="stroke:#181818;stroke-width:0.5;" width="230" x="67.5" y="302"/><ellipse cx="161.75" cy="318" fill="#ADD1B2" rx="11" ry="11" style="stroke:#181818;stroke-width:1.0;"/><path d="M164.0938,313.6719 C163.1563,313.2344 162.5625,313.0938 161.6875,313.0938 C159.0625,313.0938 157.0625,315.1719 157.0625,317.8906 L157.0625,319.0156 C157.0625,321.5938 159.1719,323.4844 162.0625,323.4844 C163.2813,323.4844 164.4375,323.1875 165.1875,322.6406 C165.7656,322.2344 166.0938,321.7813 166.0938,321.3906 C166.0938,320.9375 165.7031,320.5469 165.2344,320.5469 C165.0156,320.5469 164.8125,320.625 164.625,320.8125 C164.1719,321.2969 164.1719,321.2969 163.9844,321.3906 C163.5625,321.6563 162.875,321.7813 162.1094,321.7813 C160.0625,321.7813 158.7656,320.6875 158.7656,318.9844 L158.7656,317.8906 C158.7656,316.1094 160.0156,314.7969 161.75,314.7969 C162.3281,314.7969 162.9375,314.9531 163.4063,315.2031 C163.8906,315.4844 164.0625,315.7031 164.1563,316.1094 C164.2188,316.5156 164.25,316.6406 164.3906,316.7656 C164.5313,316.9063 164.7656,317.0156 164.9844,317.0156 C165.25,317.0156 165.5156,316.875 165.6875,316.6563 C165.7969,316.5 165.8281,316.3125 165.8281,315.8906 L165.8281,314.4688 C165.8281,314.0313 165.8125,313.9063 165.7188,313.75 C165.5625,313.4844 165.2813,313.3438 164.9844,313.3438 C164.6875,313.3438 164.4844,313.4375 164.2656,313.75 L164.0938,313.6719 Z " fill="#000000"/><text fill="#000000" font-family="sans-serif" font-size="14" lengthAdjust="spacing" textLength="33" x="182.25" y="322.8467">Title</text><line style="stroke:#181818;stroke-width:0.5;" x1="68.5" x2="296.5" y1="334" y2="334"/><rect fill="none" height="6" style="stroke:#C82930;stroke-width:1.0;" width="6" x="75.5" y="342"/><text fill="#000000" font-family="sans-serif" font-size="14" lengthAdjust="spacing" textLength="88" x="87.5" y="350.9951">value: string</text><ellipse cx="78.5" cy="361.2969" fill="none" rx="3" ry="3" style="stroke:#038048;stroke-width:1.0;"/><text fill="#000000" font-family="sans-serif" font-size="14" lengthAdjust="spacing" textLength="90" x="87.5" y="367.292">Value: string</text><line style="stroke:#181818;stroke-width:0.5;" x1="68.5" x2="296.5" y1="374.5938" y2="374.5938"/><ellipse cx="78.5" cy="385.5938" fill="#84BE84" rx="3" ry="3" style="stroke:#038048;stroke-width:1.0;"/><text fill="#000000" font-family="sans-serif" font-size="14" lengthAdjust="spacing" textLength="204" x="87.5" y="391.5889">equals(other: Title): boolean</text></g><!--MD5=[d304ca89bdbd8073bbc1ba7ea9e70f7d]
class Todo--><g id="elem_Todo"><rect codeLine="22" fill="#F1F1F1" height="341.3438" id="Todo" rx="2.5" ry="2.5" style="stroke:#181818;stroke-width:0.5;" width="265" x="333" y="180"/><ellipse cx="443.25" cy="196" fill="#ADD1B2" rx="11" ry="11" style="stroke:#181818;stroke-width:1.0;"/><path d="M445.5938,191.6719 C444.6563,191.2344 444.0625,191.0938 443.1875,191.0938 C440.5625,191.0938 438.5625,193.1719 438.5625,195.8906 L438.5625,197.0156 C438.5625,199.5938 440.6719,201.4844 443.5625,201.4844 C444.7813,201.4844 445.9375,201.1875 446.6875,200.6406 C447.2656,200.2344 447.5938,199.7813 447.5938,199.3906 C447.5938,198.9375 447.2031,198.5469 446.7344,198.5469 C446.5156,198.5469 446.3125,198.625 446.125,198.8125 C445.6719,199.2969 445.6719,199.2969 445.4844,199.3906 C445.0625,199.6563 444.375,199.7813 443.6094,199.7813 C441.5625,199.7813 440.2656,198.6875 440.2656,196.9844 L440.2656,195.8906 C440.2656,194.1094 441.5156,192.7969 443.25,192.7969 C443.8281,192.7969 444.4375,192.9531 444.9063,193.2031 C445.3906,193.4844 445.5625,193.7031 445.6563,194.1094 C445.7188,194.5156 445.75,194.6406 445.8906,194.7656 C446.0313,194.9063 446.2656,195.0156 446.4844,195.0156 C446.75,195.0156 447.0156,194.875 447.1875,194.6563 C447.2969,194.5 447.3281,194.3125 447.3281,193.8906 L447.3281,192.4688 C447.3281,192.0313 447.3125,191.9063 447.2188,191.75 C447.0625,191.4844 446.7813,191.3438 446.4844,191.3438 C446.1875,191.3438 445.9844,191.4375 445.7656,191.75 L445.5938,191.6719 Z " fill="#000000"/><text fill="#000000" font-family="sans-serif" font-size="14" lengthAdjust="spacing" textLength="36" x="463.75" y="200.8467">Todo</text><line style="stroke:#181818;stroke-width:0.5;" x1="334" x2="597" y1="212" y2="212"/><rect fill="none" height="6" style="stroke:#C82930;stroke-width:1.0;" width="6" x="341" y="220"/><text fill="#000000" font-family="sans-serif" font-size="14" lengthAdjust="spacing" textLength="73" x="353" y="228.9951">title: Title</text><rect fill="none" height="6" style="stroke:#C82930;stroke-width:1.0;" width="6" x="341" y="236.2969"/><text fill="#000000" font-family="sans-serif" font-size="14" lengthAdjust="spacing" textLength="159" x="353" y="245.292">isCompleted: boolean</text><rect fill="none" height="6" style="stroke:#C82930;stroke-width:1.0;" width="6" x="341" y="252.5938"/><text fill="#000000" font-family="sans-serif" font-size="14" lengthAdjust="spacing" textLength="157" x="353" y="261.5889">createdAt: CreatedAt</text><rect fill="none" height="6" style="stroke:#C82930;stroke-width:1.0;" width="6" x="341" y="268.8906"/><text fill="#000000" font-family="sans-serif" font-size="14" lengthAdjust="spacing" textLength="203" x="353" y="277.8857">completedAt: CompletedAt</text><rect fill="none" height="6" style="stroke:#C82930;stroke-width:1.0;" width="6" x="341" y="285.1875"/><text fill="#000000" font-family="sans-serif" font-size="14" lengthAdjust="spacing" textLength="133" x="353" y="294.1826">dueDate: DueDate</text><rect fill="none" height="6" style="stroke:#C82930;stroke-width:1.0;" width="6" x="341" y="301.4844"/><text fill="#000000" font-family="sans-serif" font-size="14" lengthAdjust="spacing" textLength="95" x="353" y="310.4795">status: string</text><rect fill="none" height="6" style="stroke:#C82930;stroke-width:1.0;" width="6" x="341" y="317.7813"/><text fill="#000000" font-family="sans-serif" font-size="14" lengthAdjust="spacing" textLength="116" x="353" y="326.7764">id: number | null</text><ellipse cx="344" cy="337.0781" fill="none" rx="3" ry="3" style="stroke:#038048;stroke-width:1.0;"/><text fill="#000000" font-family="sans-serif" font-size="14" lengthAdjust="spacing" textLength="84" x="353" y="343.0732">Title: string</text><ellipse cx="344" cy="353.375" fill="none" rx="3" ry="3" style="stroke:#038048;stroke-width:1.0;"/><text fill="#000000" font-family="sans-serif" font-size="14" lengthAdjust="spacing" textLength="148" x="353" y="359.3701">Completed: boolean</text><ellipse cx="344" cy="369.6719" fill="none" rx="3" ry="3" style="stroke:#038048;stroke-width:1.0;"/><text fill="#000000" font-family="sans-serif" font-size="14" lengthAdjust="spacing" textLength="119" x="353" y="375.667">CreatedAt: Date</text><ellipse cx="344" cy="385.9688" fill="none" rx="3" ry="3" style="stroke:#038048;stroke-width:1.0;"/><text fill="#000000" font-family="sans-serif" font-size="14" lengthAdjust="spacing" textLength="180" x="353" y="391.9639">CompletedAt: Date | null</text><ellipse cx="344" cy="402.2656" fill="none" rx="3" ry="3" style="stroke:#038048;stroke-width:1.0;"/><text fill="#000000" font-family="sans-serif" font-size="14" lengthAdjust="spacing" textLength="145" x="353" y="408.2607">DueDate: Date | null</text><ellipse cx="344" cy="418.5625" fill="none" rx="3" ry="3" style="stroke:#038048;stroke-width:1.0;"/><text fill="#000000" font-family="sans-serif" font-size="14" lengthAdjust="spacing" textLength="97" x="353" y="424.5576">Status: string</text><ellipse cx="344" cy="434.8594" fill="none" rx="3" ry="3" style="stroke:#038048;stroke-width:1.0;"/><text fill="#000000" font-family="sans-serif" font-size="14" lengthAdjust="spacing" textLength="116" x="353" y="440.8545">Id: number | null</text><line style="stroke:#181818;stroke-width:0.5;" x1="334" x2="597" y1="448.1563" y2="448.1563"/><ellipse cx="344" cy="459.1563" fill="#84BE84" rx="3" ry="3" style="stroke:#038048;stroke-width:1.0;"/><text fill="#000000" font-family="sans-serif" font-size="14" lengthAdjust="spacing" textLength="125" x="353" y="465.1514">complete(): Todo</text><ellipse cx="344" cy="475.4531" fill="#84BE84" rx="3" ry="3" style="stroke:#038048;stroke-width:1.0;"/><text fill="#000000" font-family="sans-serif" font-size="14" lengthAdjust="spacing" textLength="137" x="353" y="481.4482">overDue(): boolean</text><ellipse cx="344" cy="491.75" fill="#84BE84" rx="3" ry="3" style="stroke:#038048;stroke-width:1.0;"/><text fill="#000000" font-family="sans-serif" font-size="14" lengthAdjust="spacing" textLength="239" x="353" y="497.7451">setDueDate(due: DueDate): Todo</text><ellipse cx="344" cy="508.0469" fill="#84BE84" rx="3" ry="3" style="stroke:#038048;stroke-width:1.0;"/><text fill="#000000" font-family="sans-serif" font-size="14" lengthAdjust="spacing" textLength="207" x="353" y="514.042">equals(other: Todo): boolean</text></g><!--MD5=[cf45e8ad0333bb05467ac0b4d70787c5]
class TodoEntity--><g id="elem_TodoEntity"><rect codeLine="42" fill="#F1F1F1" height="162.0781" id="TodoEntity" rx="2.5" ry="2.5" style="stroke:#181818;stroke-width:0.5;" width="204" x="633.5" y="269.5"/><ellipse cx="691.25" cy="285.5" fill="#ADD1B2" rx="11" ry="11" style="stroke:#181818;stroke-width:1.0;"/><path d="M693.5938,281.1719 C692.6563,280.7344 692.0625,280.5938 691.1875,280.5938 C688.5625,280.5938 686.5625,282.6719 686.5625,285.3906 L686.5625,286.5156 C686.5625,289.0938 688.6719,290.9844 691.5625,290.9844 C692.7813,290.9844 693.9375,290.6875 694.6875,290.1406 C695.2656,289.7344 695.5938,289.2813 695.5938,288.8906 C695.5938,288.4375 695.2031,288.0469 694.7344,288.0469 C694.5156,288.0469 694.3125,288.125 694.125,288.3125 C693.6719,288.7969 693.6719,288.7969 693.4844,288.8906 C693.0625,289.1563 692.375,289.2813 691.6094,289.2813 C689.5625,289.2813 688.2656,288.1875 688.2656,286.4844 L688.2656,285.3906 C688.2656,283.6094 689.5156,282.2969 691.25,282.2969 C691.8281,282.2969 692.4375,282.4531 692.9063,282.7031 C693.3906,282.9844 693.5625,283.2031 693.6563,283.6094 C693.7188,284.0156 693.75,284.1406 693.8906,284.2656 C694.0313,284.4063 694.2656,284.5156 694.4844,284.5156 C694.75,284.5156 695.0156,284.375 695.1875,284.1563 C695.2969,284 695.3281,283.8125 695.3281,283.3906 L695.3281,281.9688 C695.3281,281.5313 695.3125,281.4063 695.2188,281.25 C695.0625,280.9844 694.7813,280.8438 694.4844,280.8438 C694.1875,280.8438 693.9844,280.9375 693.7656,281.25 L693.5938,281.1719 Z " fill="#000000"/><text fill="#000000" font-family="sans-serif" font-size="14" lengthAdjust="spacing" textLength="80" x="711.75" y="290.3467">TodoEntity</text><line style="stroke:#181818;stroke-width:0.5;" x1="634.5" x2="836.5" y1="301.5" y2="301.5"/><ellipse cx="644.5" cy="312.5" fill="none" rx="3" ry="3" style="stroke:#038048;stroke-width:1.0;"/><text fill="#000000" font-family="sans-serif" font-size="14" lengthAdjust="spacing" textLength="78" x="653.5" y="318.4951">id: number</text><ellipse cx="644.5" cy="328.7969" fill="none" rx="3" ry="3" style="stroke:#038048;stroke-width:1.0;"/><text fill="#000000" font-family="sans-serif" font-size="14" lengthAdjust="spacing" textLength="82" x="653.5" y="334.792">title: string</text><ellipse cx="644.5" cy="345.0938" fill="none" rx="3" ry="3" style="stroke:#038048;stroke-width:1.0;"/><text fill="#000000" font-family="sans-serif" font-size="14" lengthAdjust="spacing" textLength="146" x="653.5" y="351.0889">completed: boolean</text><ellipse cx="644.5" cy="361.3906" fill="none" rx="3" ry="3" style="stroke:#038048;stroke-width:1.0;"/><text fill="#000000" font-family="sans-serif" font-size="14" lengthAdjust="spacing" textLength="143" x="653.5" y="367.3857">dueDate: Date | null</text><ellipse cx="644.5" cy="377.6875" fill="none" rx="3" ry="3" style="stroke:#038048;stroke-width:1.0;"/><text fill="#000000" font-family="sans-serif" font-size="14" lengthAdjust="spacing" textLength="117" x="653.5" y="383.6826">createdAt: Date</text><ellipse cx="644.5" cy="393.9844" fill="none" rx="3" ry="3" style="stroke:#038048;stroke-width:1.0;"/><text fill="#000000" font-family="sans-serif" font-size="14" lengthAdjust="spacing" textLength="178" x="653.5" y="399.9795">completedAt: Date | null</text><ellipse cx="644.5" cy="410.2813" fill="none" rx="3" ry="3" style="stroke:#038048;stroke-width:1.0;"/><text fill="#000000" font-family="sans-serif" font-size="14" lengthAdjust="spacing" textLength="95" x="653.5" y="416.2764">status: string</text><line style="stroke:#181818;stroke-width:0.5;" x1="634.5" x2="836.5" y1="423.5781" y2="423.5781"/></g><!--MD5=[e94d231384a51b05733b2dafe609b38f]
class TodoList--><g id="elem_TodoList"><rect codeLine="51" fill="#F1F1F1" height="96.8906" id="TodoList" rx="2.5" ry="2.5" style="stroke:#181818;stroke-width:0.5;" width="212" x="76.5" y="605.5"/><ellipse cx="147.25" cy="621.5" fill="#ADD1B2" rx="11" ry="11" style="stroke:#181818;stroke-width:1.0;"/><path d="M149.5938,617.1719 C148.6563,616.7344 148.0625,616.5938 147.1875,616.5938 C144.5625,616.5938 142.5625,618.6719 142.5625,621.3906 L142.5625,622.5156 C142.5625,625.0938 144.6719,626.9844 147.5625,626.9844 C148.7813,626.9844 149.9375,626.6875 150.6875,626.1406 C151.2656,625.7344 151.5938,625.2813 151.5938,624.8906 C151.5938,624.4375 151.2031,624.0469 150.7344,624.0469 C150.5156,624.0469 150.3125,624.125 150.125,624.3125 C149.6719,624.7969 149.6719,624.7969 149.4844,624.8906 C149.0625,625.1563 148.375,625.2813 147.6094,625.2813 C145.5625,625.2813 144.2656,624.1875 144.2656,622.4844 L144.2656,621.3906 C144.2656,619.6094 145.5156,618.2969 147.25,618.2969 C147.8281,618.2969 148.4375,618.4531 148.9063,618.7031 C149.3906,618.9844 149.5625,619.2031 149.6563,619.6094 C149.7188,620.0156 149.75,620.1406 149.8906,620.2656 C150.0313,620.4063 150.2656,620.5156 150.4844,620.5156 C150.75,620.5156 151.0156,620.375 151.1875,620.1563 C151.2969,620 151.3281,619.8125 151.3281,619.3906 L151.3281,617.9688 C151.3281,617.5313 151.3125,617.4063 151.2188,617.25 C151.0625,616.9844 150.7813,616.8438 150.4844,616.8438 C150.1875,616.8438 149.9844,616.9375 149.7656,617.25 L149.5938,617.1719 Z " fill="#000000"/><text fill="#000000" font-family="sans-serif" font-size="14" lengthAdjust="spacing" textLength="62" x="167.75" y="626.3467">TodoList</text><line style="stroke:#181818;stroke-width:0.5;" x1="77.5" x2="287.5" y1="637.5" y2="637.5"/><rect fill="none" height="6" style="stroke:#C82930;stroke-width:1.0;" width="6" x="84.5" y="645.5"/><text fill="#000000" font-family="sans-serif" font-size="14" lengthAdjust="spacing" textLength="92" x="96.5" y="654.4951">value: Todo[]</text><ellipse cx="87.5" cy="664.7969" fill="none" rx="3" ry="3" style="stroke:#038048;stroke-width:1.0;"/><text fill="#000000" font-family="sans-serif" font-size="14" lengthAdjust="spacing" textLength="94" x="96.5" y="670.792">Value: Todo[]</text><line style="stroke:#181818;stroke-width:0.5;" x1="77.5" x2="287.5" y1="678.0938" y2="678.0938"/><ellipse cx="87.5" cy="689.0938" fill="#84BE84" rx="3" ry="3" style="stroke:#038048;stroke-width:1.0;"/><text fill="#000000" font-family="sans-serif" font-size="14" lengthAdjust="spacing" textLength="186" x="96.5" y="695.0889">add(todo: Todo): TodoList</text></g><!--MD5=[4c557e82ab1fd837e5a934d1e0e1cd2c]
class TodoRepository--><g id="elem_TodoRepository"><rect codeLine="56" fill="#F1F1F1" height="145.7813" id="TodoRepository" rx="2.5" ry="2.5" style="stroke:#181818;stroke-width:0.5;" width="406" x="323.5" y="581"/><ellipse cx="464.75" cy="597" fill="#ADD1B2" rx="11" ry="11" style="stroke:#181818;stroke-width:1.0;"/><path d="M467.0938,592.6719 C466.1563,592.2344 465.5625,592.0938 464.6875,592.0938 C462.0625,592.0938 460.0625,594.1719 460.0625,596.8906 L460.0625,598.0156 C460.0625,600.5938 462.1719,602.4844 465.0625,602.4844 C466.2813,602.4844 467.4375,602.1875 468.1875,601.6406 C468.7656,601.2344 469.0938,600.7813 469.0938,600.3906 C469.0938,599.9375 468.7031,599.5469 468.2344,599.5469 C468.0156,599.5469 467.8125,599.625 467.625,599.8125 C467.1719,600.2969 467.1719,600.2969 466.9844,600.3906 C466.5625,600.6563 465.875,600.7813 465.1094,600.7813 C463.0625,600.7813 461.7656,599.6875 461.7656,597.9844 L461.7656,596.8906 C461.7656,595.1094 463.0156,593.7969 464.75,593.7969 C465.3281,593.7969 465.9375,593.9531 466.4063,594.2031 C466.8906,594.4844 467.0625,594.7031 467.1563,595.1094 C467.2188,595.5156 467.25,595.6406 467.3906,595.7656 C467.5313,595.9063 467.7656,596.0156 467.9844,596.0156 C468.25,596.0156 468.5156,595.875 468.6875,595.6563 C468.7969,595.5 468.8281,595.3125 468.8281,594.8906 L468.8281,593.4688 C468.8281,593.0313 468.8125,592.9063 468.7188,592.75 C468.5625,592.4844 468.2813,592.3438 467.9844,592.3438 C467.6875,592.3438 467.4844,592.4375 467.2656,592.75 L467.0938,592.6719 Z " fill="#000000"/><text fill="#000000" font-family="sans-serif" font-size="14" lengthAdjust="spacing" textLength="115" x="485.25" y="601.8467">TodoRepository</text><line style="stroke:#181818;stroke-width:0.5;" x1="324.5" x2="728.5" y1="613" y2="613"/><rect fill="none" height="6" style="stroke:#C82930;stroke-width:1.0;" width="6" x="331.5" y="621"/><text fill="#000000" font-family="sans-serif" font-size="14" lengthAdjust="spacing" textLength="229" x="343.5" y="629.9951">repository: Repository&lt;Entity&gt;</text><line style="stroke:#181818;stroke-width:0.5;" x1="324.5" x2="728.5" y1="637.2969" y2="637.2969"/><ellipse cx="334.5" cy="648.2969" fill="#84BE84" rx="3" ry="3" style="stroke:#038048;stroke-width:1.0;"/><text fill="#000000" font-family="sans-serif" font-size="14" lengthAdjust="spacing" textLength="308" x="343.5" y="654.292">getTodos(): Promise&lt;FirstClassCollection&gt;</text><ellipse cx="334.5" cy="664.5938" fill="#84BE84" rx="3" ry="3" style="stroke:#038048;stroke-width:1.0;"/><text fill="#000000" font-family="sans-serif" font-size="14" lengthAdjust="spacing" textLength="380" x="343.5" y="670.5889">getTodo(id: number): Promise&lt;DomainObject | null&gt;</text><ellipse cx="334.5" cy="680.8906" fill="#84BE84" rx="3" ry="3" style="stroke:#038048;stroke-width:1.0;"/><text fill="#000000" font-family="sans-serif" font-size="14" lengthAdjust="spacing" textLength="338" x="343.5" y="686.8857">addTodo(todo: DomainObject): Promise&lt;void&gt;</text><ellipse cx="334.5" cy="697.1875" fill="#84BE84" rx="3" ry="3" style="stroke:#038048;stroke-width:1.0;"/><text fill="#000000" font-family="sans-serif" font-size="14" lengthAdjust="spacing" textLength="359" x="343.5" y="703.1826">deleteTodo(todo: DomainObject): Promise&lt;void&gt;</text><ellipse cx="334.5" cy="713.4844" fill="#84BE84" rx="3" ry="3" style="stroke:#038048;stroke-width:1.0;"/><text fill="#000000" font-family="sans-serif" font-size="14" lengthAdjust="spacing" textLength="363" x="343.5" y="719.4795">updateTodo(todo: DomainObject): Promise&lt;void&gt;</text></g><!--MD5=[607c01281c15983c44675f9e6dea3db6]
class TodoService--><g id="elem_TodoService"><rect codeLine="64" fill="#F1F1F1" height="129.4844" id="TodoService" rx="2.5" ry="2.5" style="stroke:#181818;stroke-width:0.5;" width="320" x="764.5" y="589.5"/><ellipse cx="875.75" cy="605.5" fill="#ADD1B2" rx="11" ry="11" style="stroke:#181818;stroke-width:1.0;"/><path d="M878.0938,601.1719 C877.1563,600.7344 876.5625,600.5938 875.6875,600.5938 C873.0625,600.5938 871.0625,602.6719 871.0625,605.3906 L871.0625,606.5156 C871.0625,609.0938 873.1719,610.9844 876.0625,610.9844 C877.2813,610.9844 878.4375,610.6875 879.1875,610.1406 C879.7656,609.7344 880.0938,609.2813 880.0938,608.8906 C880.0938,608.4375 879.7031,608.0469 879.2344,608.0469 C879.0156,608.0469 878.8125,608.125 878.625,608.3125 C878.1719,608.7969 878.1719,608.7969 877.9844,608.8906 C877.5625,609.1563 876.875,609.2813 876.1094,609.2813 C874.0625,609.2813 872.7656,608.1875 872.7656,606.4844 L872.7656,605.3906 C872.7656,603.6094 874.0156,602.2969 875.75,602.2969 C876.3281,602.2969 876.9375,602.4531 877.4063,602.7031 C877.8906,602.9844 878.0625,603.2031 878.1563,603.6094 C878.2188,604.0156 878.25,604.1406 878.3906,604.2656 C878.5313,604.4063 878.7656,604.5156 878.9844,604.5156 C879.25,604.5156 879.5156,604.375 879.6875,604.1563 C879.7969,604 879.8281,603.8125 879.8281,603.3906 L879.8281,601.9688 C879.8281,601.5313 879.8125,601.4063 879.7188,601.25 C879.5625,600.9844 879.2813,600.8438 878.9844,600.8438 C878.6875,600.8438 878.4844,600.9375 878.2656,601.25 L878.0938,601.1719 Z " fill="#000000"/><text fill="#000000" font-family="sans-serif" font-size="14" lengthAdjust="spacing" textLength="89" x="896.25" y="610.3467">TodoService</text><line style="stroke:#181818;stroke-width:0.5;" x1="765.5" x2="1083.5" y1="621.5" y2="621.5"/><rect fill="none" height="6" style="stroke:#C82930;stroke-width:1.0;" width="6" x="772.5" y="629.5"/><text fill="#000000" font-family="sans-serif" font-size="14" lengthAdjust="spacing" textLength="199" x="784.5" y="638.4951">repository: TodoRepository</text><line style="stroke:#181818;stroke-width:0.5;" x1="765.5" x2="1083.5" y1="645.7969" y2="645.7969"/><ellipse cx="775.5" cy="656.7969" fill="#84BE84" rx="3" ry="3" style="stroke:#038048;stroke-width:1.0;"/><text fill="#000000" font-family="sans-serif" font-size="14" lengthAdjust="spacing" textLength="223" x="784.5" y="662.792">selectAll(): Promise&lt;TodoList&gt;</text><ellipse cx="775.5" cy="673.0938" fill="#84BE84" rx="3" ry="3" style="stroke:#038048;stroke-width:1.0;"/><text fill="#000000" font-family="sans-serif" font-size="14" lengthAdjust="spacing" textLength="290" x="784.5" y="679.0889">create(params: Params): Promise&lt;void&gt;</text><ellipse cx="775.5" cy="689.3906" fill="#84BE84" rx="3" ry="3" style="stroke:#038048;stroke-width:1.0;"/><text fill="#000000" font-family="sans-serif" font-size="14" lengthAdjust="spacing" textLength="290" x="784.5" y="695.3857">delete(params: Params): Promise&lt;void&gt;</text><ellipse cx="775.5" cy="705.6875" fill="#84BE84" rx="3" ry="3" style="stroke:#038048;stroke-width:1.0;"/><text fill="#000000" font-family="sans-serif" font-size="14" lengthAdjust="spacing" textLength="294" x="784.5" y="711.6826">update(params: Params): Promise&lt;void&gt;</text></g><!--MD5=[0d39d53672110ac4fac8b9eece24f560]
@startuml
class CompletedAt {
    -value: Date | null
    +Value: Date | null
    +equals(completedAt: CompletedAt): boolean
}
class CreatedAt {
    -value: Date
    +Value: Date
    +equals(createdAt: CreatedAt): boolean
}
class DueDate {
    -value: Date | null
    +Value: Date | null
    +equals(dueDate: DueDate): boolean
    +overDue(): boolean
}
class Title {
    -value: string
    +Value: string
    +equals(other: Title): boolean
}
class Todo {
    -title: Title
    -isCompleted: boolean
    -createdAt: CreatedAt
    -completedAt: CompletedAt
    -dueDate: DueDate
    -status: string
    -id: number | null
    +Title: string
    +Completed: boolean
    +CreatedAt: Date
    +CompletedAt: Date | null
    +DueDate: Date | null
    +Status: string
    +Id: number | null
    +complete(): Todo
    +overDue(): boolean
    +setDueDate(due: DueDate): Todo
    +equals(other: Todo): boolean
}
class TodoEntity {
    +id: number
    +title: string
    +completed: boolean
    +dueDate: Date | null
    +createdAt: Date
    +completedAt: Date | null
    +status: string
}
class TodoList {
    -value: Todo[]
    +Value: Todo[]
    +add(todo: Todo): TodoList
}
class TodoRepository {
    -repository: Repository<Entity>
    +getTodos(): Promise<FirstClassCollection>
    +getTodo(id: number): Promise<DomainObject | null>
    +addTodo(todo: DomainObject): Promise<void>
    +deleteTodo(todo: DomainObject): Promise<void>
    +updateTodo(todo: DomainObject): Promise<void>
}
class TodoService {
    -repository: TodoRepository
    +selectAll(): Promise<TodoList>
    +create(params: Params): Promise<void>
    +delete(params: Params): Promise<void>
    +update(params: Params): Promise<void>
}
@enduml

PlantUML version 1.2022.4beta2(Unknown compile time)
(GPL source distribution)
Java Runtime: Java(TM) SE Runtime Environment
JVM: Java HotSpot(TM) 64-Bit Server VM
Default Encoding: UTF-8
Language: en
Country: US
--></g></svg>