<?xml version="1.0" encoding="UTF-8" standalone="no"?><svg xmlns="http://www.w3.org/2000/svg" xmlns:xlink="http://www.w3.org/1999/xlink" contentStyleType="text/css" height="802px" preserveAspectRatio="none" style="width:3695px;height:802px;background:#FFFFFF;" version="1.1" viewBox="0 0 3695 802" width="3695px" zoomAndPan="magnify"><defs/><g><path d="M1808,48 L1967,48 A3.75,3.75 0 0 1 1969.5,50.5 L1976.5,70.2969 L1981,70.2969 A2.5,2.5 0 0 1 1983.5,72.7969 L1983.5,98.0938 A2.5,2.5 0 0 1 1981,100.5938 L1808,100.5938 A2.5,2.5 0 0 1 1805.5,98.0938 L1805.5,50.5 A2.5,2.5 0 0 1 1808,48 " fill="#F1F1F1" style="stroke:#181818;stroke-width:0.5;"/><line style="stroke:#181818;stroke-width:0.5;" x1="1805.5" x2="1976.5" y1="70.2969" y2="70.2969"/><text fill="#000000" font-family="sans-serif" font-size="14" lengthAdjust="spacing" textLength="158" x="1809.5" y="62.9951">TodoStatusTypeEnum</text><!--MD5=[67f100d94b12044e782866d6f1627f13]
class CompletedAt--><g id="elem_CompletedAt"><rect codeLine="1" fill="#F1F1F1" height="96.8906" id="CompletedAt" rx="2.5" ry="2.5" style="stroke:#181818;stroke-width:0.5;" width="351" x="7" y="26"/><ellipse cx="129.25" cy="42" fill="#ADD1B2" rx="11" ry="11" style="stroke:#181818;stroke-width:1.0;"/><path d="M131.5938,37.6719 C130.6563,37.2344 130.0625,37.0938 129.1875,37.0938 C126.5625,37.0938 124.5625,39.1719 124.5625,41.8906 L124.5625,43.0156 C124.5625,45.5938 126.6719,47.4844 129.5625,47.4844 C130.7813,47.4844 131.9375,47.1875 132.6875,46.6406 C133.2656,46.2344 133.5938,45.7813 133.5938,45.3906 C133.5938,44.9375 133.2031,44.5469 132.7344,44.5469 C132.5156,44.5469 132.3125,44.625 132.125,44.8125 C131.6719,45.2969 131.6719,45.2969 131.4844,45.3906 C131.0625,45.6563 130.375,45.7813 129.6094,45.7813 C127.5625,45.7813 126.2656,44.6875 126.2656,42.9844 L126.2656,41.8906 C126.2656,40.1094 127.5156,38.7969 129.25,38.7969 C129.8281,38.7969 130.4375,38.9531 130.9063,39.2031 C131.3906,39.4844 131.5625,39.7031 131.6563,40.1094 C131.7188,40.5156 131.75,40.6406 131.8906,40.7656 C132.0313,40.9063 132.2656,41.0156 132.4844,41.0156 C132.75,41.0156 133.0156,40.875 133.1875,40.6563 C133.2969,40.5 133.3281,40.3125 133.3281,39.8906 L133.3281,38.4688 C133.3281,38.0313 133.3125,37.9063 133.2188,37.75 C133.0625,37.4844 132.7813,37.3438 132.4844,37.3438 C132.1875,37.3438 131.9844,37.4375 131.7656,37.75 L131.5938,37.6719 Z " fill="#000000"/><text fill="#000000" font-family="sans-serif" font-size="14" lengthAdjust="spacing" textLength="98" x="149.75" y="46.8467">CompletedAt</text><line style="stroke:#181818;stroke-width:0.5;" x1="8" x2="357" y1="58" y2="58"/><rect fill="none" height="6" style="stroke:#C82930;stroke-width:1.0;" width="6" x="15" y="66"/><text fill="#000000" font-family="sans-serif" font-size="14" lengthAdjust="spacing" textLength="119" x="27" y="74.9951">value: Date | null</text><ellipse cx="18" cy="85.2969" fill="none" rx="3" ry="3" style="stroke:#038048;stroke-width:1.0;"/><text fill="#000000" font-family="sans-serif" font-size="14" lengthAdjust="spacing" textLength="121" x="27" y="91.292">Value: Date | null</text><line style="stroke:#181818;stroke-width:0.5;" x1="8" x2="357" y1="98.5938" y2="98.5938"/><ellipse cx="18" cy="109.5938" fill="#84BE84" rx="3" ry="3" style="stroke:#038048;stroke-width:1.0;"/><text fill="#000000" font-family="sans-serif" font-size="14" lengthAdjust="spacing" textLength="325" x="27" y="115.5889">equals(completedAt: CompletedAt): boolean</text></g><!--MD5=[dde4359a43de047b4d984bc31705a409]
class CreatedAt--><g id="elem_CreatedAt"><rect codeLine="6" fill="#F1F1F1" height="96.8906" id="CreatedAt" rx="2.5" ry="2.5" style="stroke:#181818;stroke-width:0.5;" width="305" x="393" y="26"/><ellipse cx="503.75" cy="42" fill="#ADD1B2" rx="11" ry="11" style="stroke:#181818;stroke-width:1.0;"/><path d="M506.0938,37.6719 C505.1563,37.2344 504.5625,37.0938 503.6875,37.0938 C501.0625,37.0938 499.0625,39.1719 499.0625,41.8906 L499.0625,43.0156 C499.0625,45.5938 501.1719,47.4844 504.0625,47.4844 C505.2813,47.4844 506.4375,47.1875 507.1875,46.6406 C507.7656,46.2344 508.0938,45.7813 508.0938,45.3906 C508.0938,44.9375 507.7031,44.5469 507.2344,44.5469 C507.0156,44.5469 506.8125,44.625 506.625,44.8125 C506.1719,45.2969 506.1719,45.2969 505.9844,45.3906 C505.5625,45.6563 504.875,45.7813 504.1094,45.7813 C502.0625,45.7813 500.7656,44.6875 500.7656,42.9844 L500.7656,41.8906 C500.7656,40.1094 502.0156,38.7969 503.75,38.7969 C504.3281,38.7969 504.9375,38.9531 505.4063,39.2031 C505.8906,39.4844 506.0625,39.7031 506.1563,40.1094 C506.2188,40.5156 506.25,40.6406 506.3906,40.7656 C506.5313,40.9063 506.7656,41.0156 506.9844,41.0156 C507.25,41.0156 507.5156,40.875 507.6875,40.6563 C507.7969,40.5 507.8281,40.3125 507.8281,39.8906 L507.8281,38.4688 C507.8281,38.0313 507.8125,37.9063 507.7188,37.75 C507.5625,37.4844 507.2813,37.3438 506.9844,37.3438 C506.6875,37.3438 506.4844,37.4375 506.2656,37.75 L506.0938,37.6719 Z " fill="#000000"/><text fill="#000000" font-family="sans-serif" font-size="14" lengthAdjust="spacing" textLength="75" x="524.25" y="46.8467">CreatedAt</text><line style="stroke:#181818;stroke-width:0.5;" x1="394" x2="697" y1="58" y2="58"/><rect fill="none" height="6" style="stroke:#C82930;stroke-width:1.0;" width="6" x="401" y="66"/><text fill="#000000" font-family="sans-serif" font-size="14" lengthAdjust="spacing" textLength="81" x="413" y="74.9951">value: Date</text><ellipse cx="404" cy="85.2969" fill="none" rx="3" ry="3" style="stroke:#038048;stroke-width:1.0;"/><text fill="#000000" font-family="sans-serif" font-size="14" lengthAdjust="spacing" textLength="83" x="413" y="91.292">Value: Date</text><line style="stroke:#181818;stroke-width:0.5;" x1="394" x2="697" y1="98.5938" y2="98.5938"/><ellipse cx="404" cy="109.5938" fill="#84BE84" rx="3" ry="3" style="stroke:#038048;stroke-width:1.0;"/><text fill="#000000" font-family="sans-serif" font-size="14" lengthAdjust="spacing" textLength="279" x="413" y="115.5889">equals(createdAt: CreatedAt): boolean</text></g><!--MD5=[cf3bb39649ce7f8bfa01714f85686c3f]
class DueDate--><g id="elem_DueDate"><rect codeLine="11" fill="#F1F1F1" height="113.1875" id="DueDate" rx="2.5" ry="2.5" style="stroke:#181818;stroke-width:0.5;" width="281" x="733" y="18"/><ellipse cx="837.75" cy="34" fill="#ADD1B2" rx="11" ry="11" style="stroke:#181818;stroke-width:1.0;"/><path d="M840.0938,29.6719 C839.1563,29.2344 838.5625,29.0938 837.6875,29.0938 C835.0625,29.0938 833.0625,31.1719 833.0625,33.8906 L833.0625,35.0156 C833.0625,37.5938 835.1719,39.4844 838.0625,39.4844 C839.2813,39.4844 840.4375,39.1875 841.1875,38.6406 C841.7656,38.2344 842.0938,37.7813 842.0938,37.3906 C842.0938,36.9375 841.7031,36.5469 841.2344,36.5469 C841.0156,36.5469 840.8125,36.625 840.625,36.8125 C840.1719,37.2969 840.1719,37.2969 839.9844,37.3906 C839.5625,37.6563 838.875,37.7813 838.1094,37.7813 C836.0625,37.7813 834.7656,36.6875 834.7656,34.9844 L834.7656,33.8906 C834.7656,32.1094 836.0156,30.7969 837.75,30.7969 C838.3281,30.7969 838.9375,30.9531 839.4063,31.2031 C839.8906,31.4844 840.0625,31.7031 840.1563,32.1094 C840.2188,32.5156 840.25,32.6406 840.3906,32.7656 C840.5313,32.9063 840.7656,33.0156 840.9844,33.0156 C841.25,33.0156 841.5156,32.875 841.6875,32.6563 C841.7969,32.5 841.8281,32.3125 841.8281,31.8906 L841.8281,30.4688 C841.8281,30.0313 841.8125,29.9063 841.7188,29.75 C841.5625,29.4844 841.2813,29.3438 840.9844,29.3438 C840.6875,29.3438 840.4844,29.4375 840.2656,29.75 L840.0938,29.6719 Z " fill="#000000"/><text fill="#000000" font-family="sans-serif" font-size="14" lengthAdjust="spacing" textLength="63" x="858.25" y="38.8467">DueDate</text><line style="stroke:#181818;stroke-width:0.5;" x1="734" x2="1013" y1="50" y2="50"/><rect fill="none" height="6" style="stroke:#C82930;stroke-width:1.0;" width="6" x="741" y="58"/><text fill="#000000" font-family="sans-serif" font-size="14" lengthAdjust="spacing" textLength="119" x="753" y="66.9951">value: Date | null</text><ellipse cx="744" cy="77.2969" fill="none" rx="3" ry="3" style="stroke:#038048;stroke-width:1.0;"/><text fill="#000000" font-family="sans-serif" font-size="14" lengthAdjust="spacing" textLength="121" x="753" y="83.292">Value: Date | null</text><line style="stroke:#181818;stroke-width:0.5;" x1="734" x2="1013" y1="90.5938" y2="90.5938"/><ellipse cx="744" cy="101.5938" fill="#84BE84" rx="3" ry="3" style="stroke:#038048;stroke-width:1.0;"/><text fill="#000000" font-family="sans-serif" font-size="14" lengthAdjust="spacing" textLength="255" x="753" y="107.5889">equals(dueDate: DueDate): boolean</text><ellipse cx="744" cy="117.8906" fill="#84BE84" rx="3" ry="3" style="stroke:#038048;stroke-width:1.0;"/><text fill="#000000" font-family="sans-serif" font-size="14" lengthAdjust="spacing" textLength="213" x="753" y="123.8857">overDue(day?: Date): boolean</text></g><!--MD5=[e3d83ec5fd90ea9f3f2bfe265cb53458]
class Status--><g id="elem_Status"><rect codeLine="17" fill="#F1F1F1" height="96.8906" id="Status" rx="2.5" ry="2.5" style="stroke:#181818;stroke-width:0.5;" width="116" x="2510.5" y="26"/><ellipse cx="2543.5" cy="42" fill="#B4A7E5" rx="11" ry="11" style="stroke:#181818;stroke-width:1.0;"/><path d="M2544.4531,38.7813 L2546.1719,38.7813 C2546.5625,38.7813 2546.75,38.75 2546.875,38.6719 C2547.1406,38.5156 2547.2813,38.2344 2547.2813,37.9375 C2547.2813,37.6719 2547.1719,37.4063 2546.9375,37.2344 C2546.7656,37.125 2546.625,37.0938 2546.1719,37.0938 L2541.0313,37.0938 C2540.5938,37.0938 2540.4688,37.1094 2540.3125,37.2031 C2540.0625,37.3594 2539.9063,37.6563 2539.9063,37.9375 C2539.9063,38.2188 2540.0469,38.4688 2540.2656,38.6406 C2540.4219,38.75 2540.6094,38.7813 2541.0313,38.7813 L2542.75,38.7813 L2542.75,45.2969 L2541.0313,45.2969 C2540.5938,45.2969 2540.4688,45.3125 2540.3125,45.4219 C2540.0625,45.5781 2539.9063,45.8594 2539.9063,46.1563 C2539.9063,46.4063 2540.0469,46.6719 2540.2656,46.8281 C2540.4219,46.9531 2540.625,47 2541.0313,47 L2546.1719,47 C2546.9219,47 2547.2813,46.7188 2547.2813,46.1563 C2547.2813,45.875 2547.1719,45.625 2546.9375,45.4531 C2546.7656,45.3281 2546.625,45.2969 2546.1719,45.2969 L2544.4531,45.2969 L2544.4531,38.7813 Z " fill="#000000"/><text fill="#000000" font-family="sans-serif" font-size="14" font-style="italic" lengthAdjust="spacing" textLength="44" x="2561.5" y="46.8467">Status</text><line style="stroke:#181818;stroke-width:0.5;" x1="2511.5" x2="2625.5" y1="58" y2="58"/><ellipse cx="2521.5" cy="69" fill="none" rx="3" ry="3" style="stroke:#038048;stroke-width:1.0;"/><text fill="#000000" font-family="sans-serif" font-size="14" lengthAdjust="spacing" textLength="90" x="2530.5" y="74.9951">Value: string</text><ellipse cx="2521.5" cy="85.2969" fill="none" rx="3" ry="3" style="stroke:#038048;stroke-width:1.0;"/><text fill="#000000" font-family="sans-serif" font-size="14" lengthAdjust="spacing" textLength="87" x="2530.5" y="91.292">Type: string</text><ellipse cx="2521.5" cy="101.5938" fill="none" rx="3" ry="3" style="stroke:#038048;stroke-width:1.0;"/><text fill="#000000" font-family="sans-serif" font-size="14" lengthAdjust="spacing" textLength="88" x="2530.5" y="107.5889">Code: string</text><line style="stroke:#181818;stroke-width:0.5;" x1="2511.5" x2="2625.5" y1="114.8906" y2="114.8906"/></g><!--MD5=[90111e5cdc788a7ef73a3273c23dcc2b]
class Title--><g id="elem_Title"><rect codeLine="22" fill="#F1F1F1" height="96.8906" id="Title" rx="2.5" ry="2.5" style="stroke:#181818;stroke-width:0.5;" width="230" x="1049.5" y="26"/><ellipse cx="1143.75" cy="42" fill="#ADD1B2" rx="11" ry="11" style="stroke:#181818;stroke-width:1.0;"/><path d="M1146.0938,37.6719 C1145.1563,37.2344 1144.5625,37.0938 1143.6875,37.0938 C1141.0625,37.0938 1139.0625,39.1719 1139.0625,41.8906 L1139.0625,43.0156 C1139.0625,45.5938 1141.1719,47.4844 1144.0625,47.4844 C1145.2813,47.4844 1146.4375,47.1875 1147.1875,46.6406 C1147.7656,46.2344 1148.0938,45.7813 1148.0938,45.3906 C1148.0938,44.9375 1147.7031,44.5469 1147.2344,44.5469 C1147.0156,44.5469 1146.8125,44.625 1146.625,44.8125 C1146.1719,45.2969 1146.1719,45.2969 1145.9844,45.3906 C1145.5625,45.6563 1144.875,45.7813 1144.1094,45.7813 C1142.0625,45.7813 1140.7656,44.6875 1140.7656,42.9844 L1140.7656,41.8906 C1140.7656,40.1094 1142.0156,38.7969 1143.75,38.7969 C1144.3281,38.7969 1144.9375,38.9531 1145.4063,39.2031 C1145.8906,39.4844 1146.0625,39.7031 1146.1563,40.1094 C1146.2188,40.5156 1146.25,40.6406 1146.3906,40.7656 C1146.5313,40.9063 1146.7656,41.0156 1146.9844,41.0156 C1147.25,41.0156 1147.5156,40.875 1147.6875,40.6563 C1147.7969,40.5 1147.8281,40.3125 1147.8281,39.8906 L1147.8281,38.4688 C1147.8281,38.0313 1147.8125,37.9063 1147.7188,37.75 C1147.5625,37.4844 1147.2813,37.3438 1146.9844,37.3438 C1146.6875,37.3438 1146.4844,37.4375 1146.2656,37.75 L1146.0938,37.6719 Z " fill="#000000"/><text fill="#000000" font-family="sans-serif" font-size="14" lengthAdjust="spacing" textLength="33" x="1164.25" y="46.8467">Title</text><line style="stroke:#181818;stroke-width:0.5;" x1="1050.5" x2="1278.5" y1="58" y2="58"/><rect fill="none" height="6" style="stroke:#C82930;stroke-width:1.0;" width="6" x="1057.5" y="66"/><text fill="#000000" font-family="sans-serif" font-size="14" lengthAdjust="spacing" textLength="88" x="1069.5" y="74.9951">value: string</text><ellipse cx="1060.5" cy="85.2969" fill="none" rx="3" ry="3" style="stroke:#038048;stroke-width:1.0;"/><text fill="#000000" font-family="sans-serif" font-size="14" lengthAdjust="spacing" textLength="90" x="1069.5" y="91.292">Value: string</text><line style="stroke:#181818;stroke-width:0.5;" x1="1050.5" x2="1278.5" y1="98.5938" y2="98.5938"/><ellipse cx="1060.5" cy="109.5938" fill="#84BE84" rx="3" ry="3" style="stroke:#038048;stroke-width:1.0;"/><text fill="#000000" font-family="sans-serif" font-size="14" lengthAdjust="spacing" textLength="204" x="1069.5" y="115.5889">equals(other: Title): boolean</text></g><!--MD5=[8b45b78e7bc2d73538542b608f866059]
class TodoStatusType--><g id="elem_TodoStatusType"><rect codeLine="27" fill="#F1F1F1" height="113.1875" id="TodoStatusType" rx="2.5" ry="2.5" style="stroke:#181818;stroke-width:0.5;" width="150" x="107.5" y="346"/><ellipse cx="122.5" cy="362" fill="#EB937F" rx="11" ry="11" style="stroke:#181818;stroke-width:1.0;"/><path d="M121.2969,362.875 L122.75,362.875 L122.75,362.9844 C122.75,363.3906 122.7813,363.5469 122.8594,363.7031 C123.0156,363.9531 123.2969,364.1094 123.5938,364.1094 C123.8438,364.1094 124.1094,363.9688 124.2656,363.75 C124.3906,363.5938 124.4219,363.4375 124.4219,362.9844 L124.4219,361.0625 C124.4219,360.9063 124.4219,360.8594 124.4063,360.7031 C124.3438,360.2344 124.0313,359.9219 123.5781,359.9219 C123.3281,359.9219 123.0625,360.0625 122.8906,360.2813 C122.7813,360.4531 122.75,360.6094 122.75,361.0625 L122.75,361.1875 L121.2969,361.1875 L121.2969,358.7813 L125.2813,358.7813 L125.2813,359.6406 C125.2813,360.0469 125.3125,360.2188 125.3906,360.375 C125.5625,360.625 125.8438,360.7813 126.125,360.7813 C126.3906,360.7813 126.6563,360.6406 126.8281,360.4219 C126.9375,360.25 126.9688,360.1094 126.9688,359.6406 L126.9688,357.0938 L119.3438,357.0938 C118.9063,357.0938 118.7813,357.1094 118.625,357.2031 C118.375,357.3594 118.2188,357.6563 118.2188,357.9375 C118.2188,358.2188 118.3594,358.4688 118.5781,358.6406 C118.7344,358.75 118.9219,358.7813 119.3438,358.7813 L119.5938,358.7813 L119.5938,365.2969 L119.3438,365.2969 C118.9375,365.2969 118.7813,365.3125 118.625,365.4219 C118.375,365.5938 118.2188,365.8594 118.2188,366.1563 C118.2188,366.4219 118.3594,366.6719 118.5781,366.8281 C118.7188,366.9531 118.9531,367 119.3438,367 L127.3438,367 L127.3438,364.4219 C127.3438,363.9844 127.3125,363.8438 127.2344,363.6875 C127.0625,363.4375 126.7813,363.2813 126.5,363.2813 C126.2344,363.2813 125.9688,363.3906 125.7969,363.6406 C125.6875,363.7969 125.6563,363.9375 125.6563,364.4219 L125.6563,365.2969 L121.2969,365.2969 L121.2969,362.875 Z " fill="#000000"/><text fill="#000000" font-family="sans-serif" font-size="14" lengthAdjust="spacing" textLength="118" x="136.5" y="366.8467">TodoStatusType</text><line style="stroke:#181818;stroke-width:0.5;" x1="108.5" x2="256.5" y1="378" y2="378"/><text fill="#000000" font-family="sans-serif" font-size="14" lengthAdjust="spacing" textLength="81" x="113.5" y="394.9951">UNDEFINED</text><text fill="#000000" font-family="sans-serif" font-size="14" lengthAdjust="spacing" textLength="104" x="113.5" y="411.292">NOT_STARTED</text><text fill="#000000" font-family="sans-serif" font-size="14" lengthAdjust="spacing" textLength="99" x="113.5" y="427.5889">IN_PROGRESS</text><text fill="#000000" font-family="sans-serif" font-size="14" lengthAdjust="spacing" textLength="88" x="113.5" y="443.8857">COMPLETED</text><line style="stroke:#181818;stroke-width:0.5;" x1="108.5" x2="256.5" y1="451.1875" y2="451.1875"/></g><!--MD5=[866844b0821af1c4534b10e65e4bdf58]
class TodoStatus--><g id="elem_TodoStatus"><rect codeLine="35" fill="#F1F1F1" height="162.0781" id="TodoStatus" rx="2.5" ry="2.5" style="stroke:#181818;stroke-width:0.5;" width="253" x="2442" y="321.5"/><ellipse cx="2524.25" cy="337.5" fill="#A9DCDF" rx="11" ry="11" style="stroke:#181818;stroke-width:1.0;"/><path d="M2526.3281,339.3125 L2526.7188,340.2969 L2526.3281,340.2969 C2525.875,340.2969 2525.7656,340.3125 2525.6094,340.4219 C2525.3594,340.5781 2525.2031,340.8594 2525.2031,341.1563 C2525.2031,341.4219 2525.3438,341.6719 2525.5625,341.8281 C2525.7031,341.9531 2525.9063,342 2526.3281,342 L2528.6875,342 C2529.0469,342 2529.2656,341.9688 2529.4063,341.875 C2529.6563,341.7344 2529.8125,341.4375 2529.8125,341.1563 C2529.8125,340.875 2529.6719,340.625 2529.4531,340.4688 C2529.2813,340.3281 2529.125,340.2969 2528.6563,340.2969 L2525.2656,332.0938 L2521.5938,332.0938 C2521.1406,332.0938 2521.0156,332.1094 2520.8594,332.2031 C2520.6094,332.375 2520.4531,332.6563 2520.4531,332.9375 C2520.4531,333.2188 2520.5938,333.4688 2520.8125,333.6406 C2520.9844,333.75 2521.1563,333.7813 2521.5938,333.7813 L2522.6719,333.7813 L2520.0313,340.2969 C2519.6094,340.2969 2519.4531,340.3125 2519.2969,340.4219 C2519.0469,340.5781 2518.8906,340.8594 2518.8906,341.1563 C2518.8906,341.7188 2519.2656,342 2520.0156,342 L2522.2813,342 C2522.6406,342 2522.8594,341.9688 2522.9844,341.875 C2523.25,341.7344 2523.3906,341.4375 2523.3906,341.1563 C2523.3906,340.875 2523.2656,340.625 2523.0469,340.4531 C2522.875,340.3281 2522.7344,340.2969 2522.2813,340.2969 L2521.8906,340.2969 L2522.2813,339.3125 L2526.3281,339.3125 Z M2525.625,337.6094 L2522.9531,337.6094 L2524.2969,334.3438 L2525.625,337.6094 Z " fill="#000000"/><text fill="#000000" font-family="sans-serif" font-size="14" font-style="italic" lengthAdjust="spacing" textLength="80" x="2544.75" y="342.3467">TodoStatus</text><line style="stroke:#181818;stroke-width:0.5;" x1="2443" x2="2694" y1="353.5" y2="353.5"/><polygon fill="none" points="2453,359.5,2457,363.5,2453,367.5,2449,363.5" style="stroke:#B38D22;stroke-width:1.0;"/><text fill="#000000" font-family="sans-serif" font-size="14" lengthAdjust="spacing" textLength="88" x="2462" y="370.4951">value: string</text><polygon fill="none" points="2453,375.7969,2457,379.7969,2453,383.7969,2449,379.7969" style="stroke:#B38D22;stroke-width:1.0;"/><text fill="#000000" font-family="sans-serif" font-size="14" lengthAdjust="spacing" textLength="85" x="2462" y="386.792">type: string</text><polygon fill="none" points="2453,392.0938,2457,396.0938,2453,400.0938,2449,396.0938" style="stroke:#B38D22;stroke-width:1.0;"/><text fill="#000000" font-family="sans-serif" font-size="14" lengthAdjust="spacing" textLength="86" x="2462" y="403.0889">code: string</text><ellipse cx="2453" cy="413.3906" fill="none" rx="3" ry="3" style="stroke:#038048;stroke-width:1.0;"/><text fill="#000000" font-family="sans-serif" font-size="14" lengthAdjust="spacing" textLength="90" x="2462" y="419.3857">Value: string</text><ellipse cx="2453" cy="429.6875" fill="none" rx="3" ry="3" style="stroke:#038048;stroke-width:1.0;"/><text fill="#000000" font-family="sans-serif" font-size="14" lengthAdjust="spacing" textLength="87" x="2462" y="435.6826">Type: string</text><ellipse cx="2453" cy="445.9844" fill="none" rx="3" ry="3" style="stroke:#038048;stroke-width:1.0;"/><text fill="#000000" font-family="sans-serif" font-size="14" lengthAdjust="spacing" textLength="88" x="2462" y="451.9795">Code: string</text><line style="stroke:#181818;stroke-width:0.5;" x1="2443" x2="2694" y1="459.2813" y2="459.2813"/><ellipse cx="2453" cy="470.2813" fill="#84BE84" rx="3" ry="3" style="stroke:#038048;stroke-width:1.0;"/><text fill="#000000" font-family="sans-serif" font-size="14" lengthAdjust="spacing" text-decoration="underline" textLength="227" x="2462" y="476.2764">create(todo: Todo): TodoStatus</text></g><!--MD5=[ebaed48d3e23019637b78bc7bca197b8]
class NotStarted--><g id="elem_NotStarted"><rect codeLine="44" fill="#F1F1F1" height="48" id="NotStarted" rx="2.5" ry="2.5" style="stroke:#181818;stroke-width:0.5;" width="113" x="2294" y="706.5"/><ellipse cx="2309" cy="722.5" fill="#ADD1B2" rx="11" ry="11" style="stroke:#181818;stroke-width:1.0;"/><path d="M2311.3438,718.1719 C2310.4063,717.7344 2309.8125,717.5938 2308.9375,717.5938 C2306.3125,717.5938 2304.3125,719.6719 2304.3125,722.3906 L2304.3125,723.5156 C2304.3125,726.0938 2306.4219,727.9844 2309.3125,727.9844 C2310.5313,727.9844 2311.6875,727.6875 2312.4375,727.1406 C2313.0156,726.7344 2313.3438,726.2813 2313.3438,725.8906 C2313.3438,725.4375 2312.9531,725.0469 2312.4844,725.0469 C2312.2656,725.0469 2312.0625,725.125 2311.875,725.3125 C2311.4219,725.7969 2311.4219,725.7969 2311.2344,725.8906 C2310.8125,726.1563 2310.125,726.2813 2309.3594,726.2813 C2307.3125,726.2813 2306.0156,725.1875 2306.0156,723.4844 L2306.0156,722.3906 C2306.0156,720.6094 2307.2656,719.2969 2309,719.2969 C2309.5781,719.2969 2310.1875,719.4531 2310.6563,719.7031 C2311.1406,719.9844 2311.3125,720.2031 2311.4063,720.6094 C2311.4688,721.0156 2311.5,721.1406 2311.6406,721.2656 C2311.7813,721.4063 2312.0156,721.5156 2312.2344,721.5156 C2312.5,721.5156 2312.7656,721.375 2312.9375,721.1563 C2313.0469,721 2313.0781,720.8125 2313.0781,720.3906 L2313.0781,718.9688 C2313.0781,718.5313 2313.0625,718.4063 2312.9688,718.25 C2312.8125,717.9844 2312.5313,717.8438 2312.2344,717.8438 C2311.9375,717.8438 2311.7344,717.9375 2311.5156,718.25 L2311.3438,718.1719 Z " fill="#000000"/><text fill="#000000" font-family="sans-serif" font-size="14" lengthAdjust="spacing" textLength="81" x="2323" y="727.3467">NotStarted</text><line style="stroke:#181818;stroke-width:0.5;" x1="2295" x2="2406" y1="738.5" y2="738.5"/><line style="stroke:#181818;stroke-width:0.5;" x1="2295" x2="2406" y1="746.5" y2="746.5"/></g><!--MD5=[4c0b4f1cd20d09e88ae73cd356825288]
class InProgress--><g id="elem_InProgress"><rect codeLine="45" fill="#F1F1F1" height="48" id="InProgress" rx="2.5" ry="2.5" style="stroke:#181818;stroke-width:0.5;" width="107" x="2442" y="706.5"/><ellipse cx="2457" cy="722.5" fill="#ADD1B2" rx="11" ry="11" style="stroke:#181818;stroke-width:1.0;"/><path d="M2459.3438,718.1719 C2458.4063,717.7344 2457.8125,717.5938 2456.9375,717.5938 C2454.3125,717.5938 2452.3125,719.6719 2452.3125,722.3906 L2452.3125,723.5156 C2452.3125,726.0938 2454.4219,727.9844 2457.3125,727.9844 C2458.5313,727.9844 2459.6875,727.6875 2460.4375,727.1406 C2461.0156,726.7344 2461.3438,726.2813 2461.3438,725.8906 C2461.3438,725.4375 2460.9531,725.0469 2460.4844,725.0469 C2460.2656,725.0469 2460.0625,725.125 2459.875,725.3125 C2459.4219,725.7969 2459.4219,725.7969 2459.2344,725.8906 C2458.8125,726.1563 2458.125,726.2813 2457.3594,726.2813 C2455.3125,726.2813 2454.0156,725.1875 2454.0156,723.4844 L2454.0156,722.3906 C2454.0156,720.6094 2455.2656,719.2969 2457,719.2969 C2457.5781,719.2969 2458.1875,719.4531 2458.6563,719.7031 C2459.1406,719.9844 2459.3125,720.2031 2459.4063,720.6094 C2459.4688,721.0156 2459.5,721.1406 2459.6406,721.2656 C2459.7813,721.4063 2460.0156,721.5156 2460.2344,721.5156 C2460.5,721.5156 2460.7656,721.375 2460.9375,721.1563 C2461.0469,721 2461.0781,720.8125 2461.0781,720.3906 L2461.0781,718.9688 C2461.0781,718.5313 2461.0625,718.4063 2460.9688,718.25 C2460.8125,717.9844 2460.5313,717.8438 2460.2344,717.8438 C2459.9375,717.8438 2459.7344,717.9375 2459.5156,718.25 L2459.3438,718.1719 Z " fill="#000000"/><text fill="#000000" font-family="sans-serif" font-size="14" lengthAdjust="spacing" textLength="75" x="2471" y="727.3467">InProgress</text><line style="stroke:#181818;stroke-width:0.5;" x1="2443" x2="2548" y1="738.5" y2="738.5"/><line style="stroke:#181818;stroke-width:0.5;" x1="2443" x2="2548" y1="746.5" y2="746.5"/></g><!--MD5=[cc11643e10bfa99d218cb499c8643474]
class Completed--><g id="elem_Completed"><rect codeLine="46" fill="#F1F1F1" height="48" id="Completed" rx="2.5" ry="2.5" style="stroke:#181818;stroke-width:0.5;" width="113" x="2584" y="706.5"/><ellipse cx="2599" cy="722.5" fill="#ADD1B2" rx="11" ry="11" style="stroke:#181818;stroke-width:1.0;"/><path d="M2601.3438,718.1719 C2600.4063,717.7344 2599.8125,717.5938 2598.9375,717.5938 C2596.3125,717.5938 2594.3125,719.6719 2594.3125,722.3906 L2594.3125,723.5156 C2594.3125,726.0938 2596.4219,727.9844 2599.3125,727.9844 C2600.5313,727.9844 2601.6875,727.6875 2602.4375,727.1406 C2603.0156,726.7344 2603.3438,726.2813 2603.3438,725.8906 C2603.3438,725.4375 2602.9531,725.0469 2602.4844,725.0469 C2602.2656,725.0469 2602.0625,725.125 2601.875,725.3125 C2601.4219,725.7969 2601.4219,725.7969 2601.2344,725.8906 C2600.8125,726.1563 2600.125,726.2813 2599.3594,726.2813 C2597.3125,726.2813 2596.0156,725.1875 2596.0156,723.4844 L2596.0156,722.3906 C2596.0156,720.6094 2597.2656,719.2969 2599,719.2969 C2599.5781,719.2969 2600.1875,719.4531 2600.6563,719.7031 C2601.1406,719.9844 2601.3125,720.2031 2601.4063,720.6094 C2601.4688,721.0156 2601.5,721.1406 2601.6406,721.2656 C2601.7813,721.4063 2602.0156,721.5156 2602.2344,721.5156 C2602.5,721.5156 2602.7656,721.375 2602.9375,721.1563 C2603.0469,721 2603.0781,720.8125 2603.0781,720.3906 L2603.0781,718.9688 C2603.0781,718.5313 2603.0625,718.4063 2602.9688,718.25 C2602.8125,717.9844 2602.5313,717.8438 2602.2344,717.8438 C2601.9375,717.8438 2601.7344,717.9375 2601.5156,718.25 L2601.3438,718.1719 Z " fill="#000000"/><text fill="#000000" font-family="sans-serif" font-size="14" lengthAdjust="spacing" textLength="81" x="2613" y="727.3467">Completed</text><line style="stroke:#181818;stroke-width:0.5;" x1="2585" x2="2696" y1="738.5" y2="738.5"/><line style="stroke:#181818;stroke-width:0.5;" x1="2585" x2="2696" y1="746.5" y2="746.5"/></g><!--MD5=[b9e37f36ecae42e7f00ee8b8247f48e6]
class Undefined--><g id="elem_Undefined"><rect codeLine="47" fill="#F1F1F1" height="48" id="Undefined" rx="2.5" ry="2.5" style="stroke:#181818;stroke-width:0.5;" width="105" x="2732" y="706.5"/><ellipse cx="2747" cy="722.5" fill="#ADD1B2" rx="11" ry="11" style="stroke:#181818;stroke-width:1.0;"/><path d="M2749.3438,718.1719 C2748.4063,717.7344 2747.8125,717.5938 2746.9375,717.5938 C2744.3125,717.5938 2742.3125,719.6719 2742.3125,722.3906 L2742.3125,723.5156 C2742.3125,726.0938 2744.4219,727.9844 2747.3125,727.9844 C2748.5313,727.9844 2749.6875,727.6875 2750.4375,727.1406 C2751.0156,726.7344 2751.3438,726.2813 2751.3438,725.8906 C2751.3438,725.4375 2750.9531,725.0469 2750.4844,725.0469 C2750.2656,725.0469 2750.0625,725.125 2749.875,725.3125 C2749.4219,725.7969 2749.4219,725.7969 2749.2344,725.8906 C2748.8125,726.1563 2748.125,726.2813 2747.3594,726.2813 C2745.3125,726.2813 2744.0156,725.1875 2744.0156,723.4844 L2744.0156,722.3906 C2744.0156,720.6094 2745.2656,719.2969 2747,719.2969 C2747.5781,719.2969 2748.1875,719.4531 2748.6563,719.7031 C2749.1406,719.9844 2749.3125,720.2031 2749.4063,720.6094 C2749.4688,721.0156 2749.5,721.1406 2749.6406,721.2656 C2749.7813,721.4063 2750.0156,721.5156 2750.2344,721.5156 C2750.5,721.5156 2750.7656,721.375 2750.9375,721.1563 C2751.0469,721 2751.0781,720.8125 2751.0781,720.3906 L2751.0781,718.9688 C2751.0781,718.5313 2751.0625,718.4063 2750.9688,718.25 C2750.8125,717.9844 2750.5313,717.8438 2750.2344,717.8438 C2749.9375,717.8438 2749.7344,717.9375 2749.5156,718.25 L2749.3438,718.1719 Z " fill="#000000"/><text fill="#000000" font-family="sans-serif" font-size="14" lengthAdjust="spacing" textLength="73" x="2761" y="727.3467">Undefined</text><line style="stroke:#181818;stroke-width:0.5;" x1="2733" x2="2836" y1="738.5" y2="738.5"/><line style="stroke:#181818;stroke-width:0.5;" x1="2733" x2="2836" y1="746.5" y2="746.5"/></g><!--MD5=[d304ca89bdbd8073bbc1ba7ea9e70f7d]
class Todo--><g id="elem_Todo"><rect codeLine="48" fill="#F1F1F1" height="406.5313" id="Todo" rx="2.5" ry="2.5" style="stroke:#181818;stroke-width:0.5;" width="1627" x="293" y="199"/><ellipse cx="1084.25" cy="215" fill="#ADD1B2" rx="11" ry="11" style="stroke:#181818;stroke-width:1.0;"/><path d="M1086.5938,210.6719 C1085.6563,210.2344 1085.0625,210.0938 1084.1875,210.0938 C1081.5625,210.0938 1079.5625,212.1719 1079.5625,214.8906 L1079.5625,216.0156 C1079.5625,218.5938 1081.6719,220.4844 1084.5625,220.4844 C1085.7813,220.4844 1086.9375,220.1875 1087.6875,219.6406 C1088.2656,219.2344 1088.5938,218.7813 1088.5938,218.3906 C1088.5938,217.9375 1088.2031,217.5469 1087.7344,217.5469 C1087.5156,217.5469 1087.3125,217.625 1087.125,217.8125 C1086.6719,218.2969 1086.6719,218.2969 1086.4844,218.3906 C1086.0625,218.6563 1085.375,218.7813 1084.6094,218.7813 C1082.5625,218.7813 1081.2656,217.6875 1081.2656,215.9844 L1081.2656,214.8906 C1081.2656,213.1094 1082.5156,211.7969 1084.25,211.7969 C1084.8281,211.7969 1085.4375,211.9531 1085.9063,212.2031 C1086.3906,212.4844 1086.5625,212.7031 1086.6563,213.1094 C1086.7188,213.5156 1086.75,213.6406 1086.8906,213.7656 C1087.0313,213.9063 1087.2656,214.0156 1087.4844,214.0156 C1087.75,214.0156 1088.0156,213.875 1088.1875,213.6563 C1088.2969,213.5 1088.3281,213.3125 1088.3281,212.8906 L1088.3281,211.4688 C1088.3281,211.0313 1088.3125,210.9063 1088.2188,210.75 C1088.0625,210.4844 1087.7813,210.3438 1087.4844,210.3438 C1087.1875,210.3438 1086.9844,210.4375 1086.7656,210.75 L1086.5938,210.6719 Z " fill="#000000"/><text fill="#000000" font-family="sans-serif" font-size="14" lengthAdjust="spacing" textLength="36" x="1104.75" y="219.8467">Todo</text><line style="stroke:#181818;stroke-width:0.5;" x1="294" x2="1919" y1="231" y2="231"/><rect fill="none" height="6" style="stroke:#C82930;stroke-width:1.0;" width="6" x="301" y="239"/><text fill="#000000" font-family="sans-serif" font-size="14" lengthAdjust="spacing" textLength="73" x="313" y="247.9951">title: Title</text><rect fill="none" height="6" style="stroke:#C82930;stroke-width:1.0;" width="6" x="301" y="255.2969"/><text fill="#000000" font-family="sans-serif" font-size="14" lengthAdjust="spacing" textLength="159" x="313" y="264.292">isCompleted: boolean</text><rect fill="none" height="6" style="stroke:#C82930;stroke-width:1.0;" width="6" x="301" y="271.5938"/><text fill="#000000" font-family="sans-serif" font-size="14" lengthAdjust="spacing" textLength="157" x="313" y="280.5889">createdAt: CreatedAt</text><rect fill="none" height="6" style="stroke:#C82930;stroke-width:1.0;" width="6" x="301" y="287.8906"/><text fill="#000000" font-family="sans-serif" font-size="14" lengthAdjust="spacing" textLength="203" x="313" y="296.8857">completedAt: CompletedAt</text><rect fill="none" height="6" style="stroke:#C82930;stroke-width:1.0;" width="6" x="301" y="304.1875"/><text fill="#000000" font-family="sans-serif" font-size="14" lengthAdjust="spacing" textLength="133" x="313" y="313.1826">dueDate: DueDate</text><rect fill="none" height="6" style="stroke:#C82930;stroke-width:1.0;" width="6" x="301" y="320.4844"/><text fill="#000000" font-family="sans-serif" font-size="14" lengthAdjust="spacing" textLength="140" x="313" y="329.4795">isOverDue: boolean</text><rect fill="none" height="6" style="stroke:#C82930;stroke-width:1.0;" width="6" x="301" y="336.7813"/><text fill="#000000" font-family="sans-serif" font-size="14" lengthAdjust="spacing" textLength="99" x="313" y="345.7764">status: Status</text><rect fill="none" height="6" style="stroke:#C82930;stroke-width:1.0;" width="6" x="301" y="353.0781"/><text fill="#000000" font-family="sans-serif" font-size="14" lengthAdjust="spacing" textLength="116" x="313" y="362.0732">id: number | null</text><ellipse cx="304" cy="372.375" fill="none" rx="3" ry="3" style="stroke:#038048;stroke-width:1.0;"/><text fill="#000000" font-family="sans-serif" font-size="14" lengthAdjust="spacing" textLength="84" x="313" y="378.3701">Title: string</text><ellipse cx="304" cy="388.6719" fill="none" rx="3" ry="3" style="stroke:#038048;stroke-width:1.0;"/><text fill="#000000" font-family="sans-serif" font-size="14" lengthAdjust="spacing" textLength="148" x="313" y="394.667">Completed: boolean</text><ellipse cx="304" cy="404.9688" fill="none" rx="3" ry="3" style="stroke:#038048;stroke-width:1.0;"/><text fill="#000000" font-family="sans-serif" font-size="14" lengthAdjust="spacing" textLength="119" x="313" y="410.9639">CreatedAt: Date</text><ellipse cx="304" cy="421.2656" fill="none" rx="3" ry="3" style="stroke:#038048;stroke-width:1.0;"/><text fill="#000000" font-family="sans-serif" font-size="14" lengthAdjust="spacing" textLength="180" x="313" y="427.2607">CompletedAt: Date | null</text><ellipse cx="304" cy="437.5625" fill="none" rx="3" ry="3" style="stroke:#038048;stroke-width:1.0;"/><text fill="#000000" font-family="sans-serif" font-size="14" lengthAdjust="spacing" textLength="145" x="313" y="443.5576">DueDate: Date | null</text><ellipse cx="304" cy="453.8594" fill="none" rx="3" ry="3" style="stroke:#038048;stroke-width:1.0;"/><text fill="#000000" font-family="sans-serif" font-size="14" lengthAdjust="spacing" textLength="129" x="313" y="459.8545">OverDue: boolean</text><ellipse cx="304" cy="470.1563" fill="none" rx="3" ry="3" style="stroke:#038048;stroke-width:1.0;"/><text fill="#000000" font-family="sans-serif" font-size="14" lengthAdjust="spacing" textLength="97" x="313" y="476.1514">Status: string</text><ellipse cx="304" cy="486.4531" fill="none" rx="3" ry="3" style="stroke:#038048;stroke-width:1.0;"/><text fill="#000000" font-family="sans-serif" font-size="14" lengthAdjust="spacing" textLength="116" x="313" y="492.4482">Id: number | null</text><ellipse cx="304" cy="502.75" fill="none" rx="3" ry="3" style="stroke:#038048;stroke-width:1.0;"/><text fill="#000000" font-family="sans-serif" font-size="14" lengthAdjust="spacing" textLength="134" x="313" y="508.7451">StatusCode: string</text><ellipse cx="304" cy="519.0469" fill="none" rx="3" ry="3" style="stroke:#038048;stroke-width:1.0;"/><text fill="#000000" font-family="sans-serif" font-size="14" lengthAdjust="spacing" textLength="133" x="313" y="525.042">StatusType: string</text><line style="stroke:#181818;stroke-width:0.5;" x1="294" x2="1919" y1="532.3438" y2="532.3438"/><ellipse cx="304" cy="543.3438" fill="#84BE84" rx="3" ry="3" style="stroke:#038048;stroke-width:1.0;"/><text fill="#000000" font-family="sans-serif" font-size="14" lengthAdjust="spacing" textLength="125" x="313" y="549.3389">complete(): Todo</text><ellipse cx="304" cy="559.6406" fill="#84BE84" rx="3" ry="3" style="stroke:#038048;stroke-width:1.0;"/><text fill="#000000" font-family="sans-serif" font-size="14" lengthAdjust="spacing" textLength="239" x="313" y="565.6357">setDueDate(due: DueDate): Todo</text><ellipse cx="304" cy="575.9375" fill="#84BE84" rx="3" ry="3" style="stroke:#038048;stroke-width:1.0;"/><text fill="#000000" font-family="sans-serif" font-size="14" lengthAdjust="spacing" textLength="207" x="313" y="581.9326">equals(other: Todo): boolean</text><ellipse cx="304" cy="592.2344" fill="#84BE84" rx="3" ry="3" style="stroke:#038048;stroke-width:1.0;"/><text fill="#000000" font-family="sans-serif" font-size="14" lengthAdjust="spacing" text-decoration="underline" textLength="1601" x="313" y="598.2295">create(params: { title: string; completed?: boolean | undefined; createdAt?: CreatedAt | undefined; completedAt?: CompletedAt | undefined; dueDate?: DueDate | undefined; id?: number | ... 1 more ... | undefined; }): Todo</text></g><!--MD5=[e94d231384a51b05733b2dafe609b38f]
class TodoList--><g id="elem_TodoList"><rect codeLine="72" fill="#F1F1F1" height="96.8906" id="TodoList" rx="2.5" ry="2.5" style="stroke:#181818;stroke-width:0.5;" width="212" x="1955.5" y="354"/><ellipse cx="2026.25" cy="370" fill="#ADD1B2" rx="11" ry="11" style="stroke:#181818;stroke-width:1.0;"/><path d="M2028.5938,365.6719 C2027.6563,365.2344 2027.0625,365.0938 2026.1875,365.0938 C2023.5625,365.0938 2021.5625,367.1719 2021.5625,369.8906 L2021.5625,371.0156 C2021.5625,373.5938 2023.6719,375.4844 2026.5625,375.4844 C2027.7813,375.4844 2028.9375,375.1875 2029.6875,374.6406 C2030.2656,374.2344 2030.5938,373.7813 2030.5938,373.3906 C2030.5938,372.9375 2030.2031,372.5469 2029.7344,372.5469 C2029.5156,372.5469 2029.3125,372.625 2029.125,372.8125 C2028.6719,373.2969 2028.6719,373.2969 2028.4844,373.3906 C2028.0625,373.6563 2027.375,373.7813 2026.6094,373.7813 C2024.5625,373.7813 2023.2656,372.6875 2023.2656,370.9844 L2023.2656,369.8906 C2023.2656,368.1094 2024.5156,366.7969 2026.25,366.7969 C2026.8281,366.7969 2027.4375,366.9531 2027.9063,367.2031 C2028.3906,367.4844 2028.5625,367.7031 2028.6563,368.1094 C2028.7188,368.5156 2028.75,368.6406 2028.8906,368.7656 C2029.0313,368.9063 2029.2656,369.0156 2029.4844,369.0156 C2029.75,369.0156 2030.0156,368.875 2030.1875,368.6563 C2030.2969,368.5 2030.3281,368.3125 2030.3281,367.8906 L2030.3281,366.4688 C2030.3281,366.0313 2030.3125,365.9063 2030.2188,365.75 C2030.0625,365.4844 2029.7813,365.3438 2029.4844,365.3438 C2029.1875,365.3438 2028.9844,365.4375 2028.7656,365.75 L2028.5938,365.6719 Z " fill="#000000"/><text fill="#000000" font-family="sans-serif" font-size="14" lengthAdjust="spacing" textLength="62" x="2046.75" y="374.8467">TodoList</text><line style="stroke:#181818;stroke-width:0.5;" x1="1956.5" x2="2166.5" y1="386" y2="386"/><rect fill="none" height="6" style="stroke:#C82930;stroke-width:1.0;" width="6" x="1963.5" y="394"/><text fill="#000000" font-family="sans-serif" font-size="14" lengthAdjust="spacing" textLength="92" x="1975.5" y="402.9951">value: Todo[]</text><ellipse cx="1966.5" cy="413.2969" fill="none" rx="3" ry="3" style="stroke:#038048;stroke-width:1.0;"/><text fill="#000000" font-family="sans-serif" font-size="14" lengthAdjust="spacing" textLength="94" x="1975.5" y="419.292">Value: Todo[]</text><line style="stroke:#181818;stroke-width:0.5;" x1="1956.5" x2="2166.5" y1="426.5938" y2="426.5938"/><ellipse cx="1966.5" cy="437.5938" fill="#84BE84" rx="3" ry="3" style="stroke:#038048;stroke-width:1.0;"/><text fill="#000000" font-family="sans-serif" font-size="14" lengthAdjust="spacing" textLength="186" x="1975.5" y="443.5889">add(todo: Todo): TodoList</text></g><!--MD5=[cf45e8ad0333bb05467ac0b4d70787c5]
class TodoEntity--><g id="elem_TodoEntity"><rect codeLine="77" fill="#F1F1F1" height="162.0781" id="TodoEntity" rx="2.5" ry="2.5" style="stroke:#181818;stroke-width:0.5;" width="204" x="2202.5" y="321.5"/><ellipse cx="2260.25" cy="337.5" fill="#ADD1B2" rx="11" ry="11" style="stroke:#181818;stroke-width:1.0;"/><path d="M2262.5938,333.1719 C2261.6563,332.7344 2261.0625,332.5938 2260.1875,332.5938 C2257.5625,332.5938 2255.5625,334.6719 2255.5625,337.3906 L2255.5625,338.5156 C2255.5625,341.0938 2257.6719,342.9844 2260.5625,342.9844 C2261.7813,342.9844 2262.9375,342.6875 2263.6875,342.1406 C2264.2656,341.7344 2264.5938,341.2813 2264.5938,340.8906 C2264.5938,340.4375 2264.2031,340.0469 2263.7344,340.0469 C2263.5156,340.0469 2263.3125,340.125 2263.125,340.3125 C2262.6719,340.7969 2262.6719,340.7969 2262.4844,340.8906 C2262.0625,341.1563 2261.375,341.2813 2260.6094,341.2813 C2258.5625,341.2813 2257.2656,340.1875 2257.2656,338.4844 L2257.2656,337.3906 C2257.2656,335.6094 2258.5156,334.2969 2260.25,334.2969 C2260.8281,334.2969 2261.4375,334.4531 2261.9063,334.7031 C2262.3906,334.9844 2262.5625,335.2031 2262.6563,335.6094 C2262.7188,336.0156 2262.75,336.1406 2262.8906,336.2656 C2263.0313,336.4063 2263.2656,336.5156 2263.4844,336.5156 C2263.75,336.5156 2264.0156,336.375 2264.1875,336.1563 C2264.2969,336 2264.3281,335.8125 2264.3281,335.3906 L2264.3281,333.9688 C2264.3281,333.5313 2264.3125,333.4063 2264.2188,333.25 C2264.0625,332.9844 2263.7813,332.8438 2263.4844,332.8438 C2263.1875,332.8438 2262.9844,332.9375 2262.7656,333.25 L2262.5938,333.1719 Z " fill="#000000"/><text fill="#000000" font-family="sans-serif" font-size="14" lengthAdjust="spacing" textLength="80" x="2280.75" y="342.3467">TodoEntity</text><line style="stroke:#181818;stroke-width:0.5;" x1="2203.5" x2="2405.5" y1="353.5" y2="353.5"/><ellipse cx="2213.5" cy="364.5" fill="none" rx="3" ry="3" style="stroke:#038048;stroke-width:1.0;"/><text fill="#000000" font-family="sans-serif" font-size="14" lengthAdjust="spacing" textLength="78" x="2222.5" y="370.4951">id: number</text><ellipse cx="2213.5" cy="380.7969" fill="none" rx="3" ry="3" style="stroke:#038048;stroke-width:1.0;"/><text fill="#000000" font-family="sans-serif" font-size="14" lengthAdjust="spacing" textLength="82" x="2222.5" y="386.792">title: string</text><ellipse cx="2213.5" cy="397.0938" fill="none" rx="3" ry="3" style="stroke:#038048;stroke-width:1.0;"/><text fill="#000000" font-family="sans-serif" font-size="14" lengthAdjust="spacing" textLength="146" x="2222.5" y="403.0889">completed: boolean</text><ellipse cx="2213.5" cy="413.3906" fill="none" rx="3" ry="3" style="stroke:#038048;stroke-width:1.0;"/><text fill="#000000" font-family="sans-serif" font-size="14" lengthAdjust="spacing" textLength="143" x="2222.5" y="419.3857">dueDate: Date | null</text><ellipse cx="2213.5" cy="429.6875" fill="none" rx="3" ry="3" style="stroke:#038048;stroke-width:1.0;"/><text fill="#000000" font-family="sans-serif" font-size="14" lengthAdjust="spacing" textLength="117" x="2222.5" y="435.6826">createdAt: Date</text><ellipse cx="2213.5" cy="445.9844" fill="none" rx="3" ry="3" style="stroke:#038048;stroke-width:1.0;"/><text fill="#000000" font-family="sans-serif" font-size="14" lengthAdjust="spacing" textLength="178" x="2222.5" y="451.9795">completedAt: Date | null</text><ellipse cx="2213.5" cy="462.2813" fill="none" rx="3" ry="3" style="stroke:#038048;stroke-width:1.0;"/><text fill="#000000" font-family="sans-serif" font-size="14" lengthAdjust="spacing" textLength="143" x="2222.5" y="468.2764">status: StatusEntity</text><line style="stroke:#181818;stroke-width:0.5;" x1="2203.5" x2="2405.5" y1="475.5781" y2="475.5781"/></g><!--MD5=[da1e831f50d675d9fa023d040e038ce0]
class StatusEntity--><g id="elem_StatusEntity"><rect codeLine="86" fill="#F1F1F1" height="129.4844" id="StatusEntity" rx="2.5" ry="2.5" style="stroke:#181818;stroke-width:0.5;" width="166" x="99.5" y="666"/><ellipse cx="134.3" cy="682" fill="#ADD1B2" rx="11" ry="11" style="stroke:#181818;stroke-width:1.0;"/><path d="M136.6438,677.6719 C135.7063,677.2344 135.1125,677.0938 134.2375,677.0938 C131.6125,677.0938 129.6125,679.1719 129.6125,681.8906 L129.6125,683.0156 C129.6125,685.5938 131.7219,687.4844 134.6125,687.4844 C135.8313,687.4844 136.9875,687.1875 137.7375,686.6406 C138.3156,686.2344 138.6438,685.7813 138.6438,685.3906 C138.6438,684.9375 138.2531,684.5469 137.7844,684.5469 C137.5656,684.5469 137.3625,684.625 137.175,684.8125 C136.7219,685.2969 136.7219,685.2969 136.5344,685.3906 C136.1125,685.6563 135.425,685.7813 134.6594,685.7813 C132.6125,685.7813 131.3156,684.6875 131.3156,682.9844 L131.3156,681.8906 C131.3156,680.1094 132.5656,678.7969 134.3,678.7969 C134.8781,678.7969 135.4875,678.9531 135.9563,679.2031 C136.4406,679.4844 136.6125,679.7031 136.7063,680.1094 C136.7688,680.5156 136.8,680.6406 136.9406,680.7656 C137.0813,680.9063 137.3156,681.0156 137.5344,681.0156 C137.8,681.0156 138.0656,680.875 138.2375,680.6563 C138.3469,680.5 138.3781,680.3125 138.3781,679.8906 L138.3781,678.4688 C138.3781,678.0313 138.3625,677.9063 138.2688,677.75 C138.1125,677.4844 137.8313,677.3438 137.5344,677.3438 C137.2375,677.3438 137.0344,677.4375 136.8156,677.75 L136.6438,677.6719 Z " fill="#000000"/><text fill="#000000" font-family="sans-serif" font-size="14" lengthAdjust="spacing" textLength="90" x="152.7" y="686.8467">StatusEntity</text><line style="stroke:#181818;stroke-width:0.5;" x1="100.5" x2="264.5" y1="698" y2="698"/><ellipse cx="110.5" cy="709" fill="none" rx="3" ry="3" style="stroke:#038048;stroke-width:1.0;"/><text fill="#000000" font-family="sans-serif" font-size="14" lengthAdjust="spacing" textLength="78" x="119.5" y="714.9951">id: number</text><ellipse cx="110.5" cy="725.2969" fill="none" rx="3" ry="3" style="stroke:#038048;stroke-width:1.0;"/><text fill="#000000" font-family="sans-serif" font-size="14" lengthAdjust="spacing" textLength="85" x="119.5" y="731.292">type: string</text><ellipse cx="110.5" cy="741.5938" fill="none" rx="3" ry="3" style="stroke:#038048;stroke-width:1.0;"/><text fill="#000000" font-family="sans-serif" font-size="14" lengthAdjust="spacing" textLength="86" x="119.5" y="747.5889">code: string</text><ellipse cx="110.5" cy="757.8906" fill="none" rx="3" ry="3" style="stroke:#038048;stroke-width:1.0;"/><text fill="#000000" font-family="sans-serif" font-size="14" lengthAdjust="spacing" textLength="91" x="119.5" y="763.8857">name: string</text><ellipse cx="110.5" cy="774.1875" fill="none" rx="3" ry="3" style="stroke:#038048;stroke-width:1.0;"/><text fill="#000000" font-family="sans-serif" font-size="14" lengthAdjust="spacing" textLength="140" x="119.5" y="780.1826">todos: TodoEntity[]</text><line style="stroke:#181818;stroke-width:0.5;" x1="100.5" x2="264.5" y1="787.4844" y2="787.4844"/></g><!--MD5=[c05f8d4c5007184b0fb1ea93cdb8d9fe]
class Repository--><g id="elem_Repository"><rect codeLine="93" fill="#F1F1F1" height="129.4844" id="Repository" rx="2.5" ry="2.5" style="stroke:#181818;stroke-width:0.5;" width="383" x="2811" y="10"/><ellipse cx="2954.75" cy="26" fill="#B4A7E5" rx="11" ry="11" style="stroke:#181818;stroke-width:1.0;"/><path d="M2955.7031,22.7813 L2957.4219,22.7813 C2957.8125,22.7813 2958,22.75 2958.125,22.6719 C2958.3906,22.5156 2958.5313,22.2344 2958.5313,21.9375 C2958.5313,21.6719 2958.4219,21.4063 2958.1875,21.2344 C2958.0156,21.125 2957.875,21.0938 2957.4219,21.0938 L2952.2813,21.0938 C2951.8438,21.0938 2951.7188,21.1094 2951.5625,21.2031 C2951.3125,21.3594 2951.1563,21.6563 2951.1563,21.9375 C2951.1563,22.2188 2951.2969,22.4688 2951.5156,22.6406 C2951.6719,22.75 2951.8594,22.7813 2952.2813,22.7813 L2954,22.7813 L2954,29.2969 L2952.2813,29.2969 C2951.8438,29.2969 2951.7188,29.3125 2951.5625,29.4219 C2951.3125,29.5781 2951.1563,29.8594 2951.1563,30.1563 C2951.1563,30.4063 2951.2969,30.6719 2951.5156,30.8281 C2951.6719,30.9531 2951.875,31 2952.2813,31 L2957.4219,31 C2958.1719,31 2958.5313,30.7188 2958.5313,30.1563 C2958.5313,29.875 2958.4219,29.625 2958.1875,29.4531 C2958.0156,29.3281 2957.875,29.2969 2957.4219,29.2969 L2955.7031,29.2969 L2955.7031,22.7813 Z " fill="#000000"/><text fill="#000000" font-family="sans-serif" font-size="14" font-style="italic" lengthAdjust="spacing" textLength="76" x="2975.25" y="30.8467">Repository</text><rect fill="#FFFFFF" height="15.9688" style="stroke:#000000;stroke-width:1.0;stroke-dasharray:2.0,2.0;" width="9" x="3188" y="7"/><text fill="#000000" font-family="sans-serif" font-size="12" font-style="italic" lengthAdjust="spacing" textLength="7" x="3189" y="19.1387">T</text><line style="stroke:#181818;stroke-width:0.5;" x1="2812" x2="3193" y1="42" y2="42"/><ellipse cx="2822" cy="53" fill="none" rx="3" ry="3" style="stroke:#038048;stroke-width:1.0;"/><text fill="#000000" font-family="sans-serif" font-size="14" lengthAdjust="spacing" textLength="96" x="2831" y="58.9951">addTodo: any</text><line style="stroke:#181818;stroke-width:0.5;" x1="2812" x2="3193" y1="66.2969" y2="66.2969"/><ellipse cx="2822" cy="77.2969" fill="#84BE84" rx="3" ry="3" style="stroke:#038048;stroke-width:1.0;"/><text fill="#000000" font-family="sans-serif" font-size="14" lengthAdjust="spacing" textLength="229" x="2831" y="83.292">getTodos(): Promise&lt;TodoList&gt;</text><ellipse cx="2822" cy="93.5938" fill="#84BE84" rx="3" ry="3" style="stroke:#038048;stroke-width:1.0;"/><text fill="#000000" font-family="sans-serif" font-size="14" lengthAdjust="spacing" textLength="274" x="2831" y="99.5889">getTodo(id: number): Promise&lt;Todo&gt;</text><ellipse cx="2822" cy="109.8906" fill="#84BE84" rx="3" ry="3" style="stroke:#038048;stroke-width:1.0;"/><text fill="#000000" font-family="sans-serif" font-size="14" lengthAdjust="spacing" textLength="357" x="2831" y="115.8857">updateTodo(updatedTodo: Todo): Promise&lt;void&gt;</text><ellipse cx="2822" cy="126.1875" fill="#84BE84" rx="3" ry="3" style="stroke:#038048;stroke-width:1.0;"/><text fill="#000000" font-family="sans-serif" font-size="14" lengthAdjust="spacing" textLength="291" x="2831" y="132.1826">deleteTodo(todo: Todo): Promise&lt;void&gt;</text></g><!--MD5=[4c557e82ab1fd837e5a934d1e0e1cd2c]
class TodoRepository--><g id="elem_TodoRepository"><rect codeLine="100" fill="#F1F1F1" height="162.0781" id="TodoRepository" rx="2.5" ry="2.5" style="stroke:#181818;stroke-width:0.5;" width="545" x="2730" y="321.5"/><ellipse cx="2940.75" cy="337.5" fill="#ADD1B2" rx="11" ry="11" style="stroke:#181818;stroke-width:1.0;"/><path d="M2943.0938,333.1719 C2942.1563,332.7344 2941.5625,332.5938 2940.6875,332.5938 C2938.0625,332.5938 2936.0625,334.6719 2936.0625,337.3906 L2936.0625,338.5156 C2936.0625,341.0938 2938.1719,342.9844 2941.0625,342.9844 C2942.2813,342.9844 2943.4375,342.6875 2944.1875,342.1406 C2944.7656,341.7344 2945.0938,341.2813 2945.0938,340.8906 C2945.0938,340.4375 2944.7031,340.0469 2944.2344,340.0469 C2944.0156,340.0469 2943.8125,340.125 2943.625,340.3125 C2943.1719,340.7969 2943.1719,340.7969 2942.9844,340.8906 C2942.5625,341.1563 2941.875,341.2813 2941.1094,341.2813 C2939.0625,341.2813 2937.7656,340.1875 2937.7656,338.4844 L2937.7656,337.3906 C2937.7656,335.6094 2939.0156,334.2969 2940.75,334.2969 C2941.3281,334.2969 2941.9375,334.4531 2942.4063,334.7031 C2942.8906,334.9844 2943.0625,335.2031 2943.1563,335.6094 C2943.2188,336.0156 2943.25,336.1406 2943.3906,336.2656 C2943.5313,336.4063 2943.7656,336.5156 2943.9844,336.5156 C2944.25,336.5156 2944.5156,336.375 2944.6875,336.1563 C2944.7969,336 2944.8281,335.8125 2944.8281,335.3906 L2944.8281,333.9688 C2944.8281,333.5313 2944.8125,333.4063 2944.7188,333.25 C2944.5625,332.9844 2944.2813,332.8438 2943.9844,332.8438 C2943.6875,332.8438 2943.4844,332.9375 2943.2656,333.25 L2943.0938,333.1719 Z " fill="#000000"/><text fill="#000000" font-family="sans-serif" font-size="14" lengthAdjust="spacing" textLength="115" x="2961.25" y="342.3467">TodoRepository</text><line style="stroke:#181818;stroke-width:0.5;" x1="2731" x2="3274" y1="353.5" y2="353.5"/><rect fill="none" height="6" style="stroke:#C82930;stroke-width:1.0;" width="6" x="2738" y="361.5"/><text fill="#000000" font-family="sans-serif" font-size="14" lengthAdjust="spacing" textLength="262" x="2750" y="370.4951">repository: ORMRepository&lt;Entity&gt;</text><line style="stroke:#181818;stroke-width:0.5;" x1="2731" x2="3274" y1="377.7969" y2="377.7969"/><rect fill="#F24D5C" height="6" style="stroke:#C82930;stroke-width:1.0;" width="6" x="2738" y="385.7969"/><text fill="#000000" font-family="sans-serif" font-size="14" lengthAdjust="spacing" textLength="519" x="2750" y="394.792">createUpdateStatus(todo: DomainObject): Promise&lt;StatusEntity | null&gt;</text><ellipse cx="2741" cy="405.0938" fill="#84BE84" rx="3" ry="3" style="stroke:#038048;stroke-width:1.0;"/><text fill="#000000" font-family="sans-serif" font-size="14" lengthAdjust="spacing" textLength="308" x="2750" y="411.0889">getTodos(): Promise&lt;FirstClassCollection&gt;</text><ellipse cx="2741" cy="421.3906" fill="#84BE84" rx="3" ry="3" style="stroke:#038048;stroke-width:1.0;"/><text fill="#000000" font-family="sans-serif" font-size="14" lengthAdjust="spacing" textLength="342" x="2750" y="427.3857">getTodo(id: number): Promise&lt;DomainObject&gt;</text><ellipse cx="2741" cy="437.6875" fill="#84BE84" rx="3" ry="3" style="stroke:#038048;stroke-width:1.0;"/><text fill="#000000" font-family="sans-serif" font-size="14" lengthAdjust="spacing" textLength="338" x="2750" y="443.6826">addTodo(todo: DomainObject): Promise&lt;void&gt;</text><ellipse cx="2741" cy="453.9844" fill="#84BE84" rx="3" ry="3" style="stroke:#038048;stroke-width:1.0;"/><text fill="#000000" font-family="sans-serif" font-size="14" lengthAdjust="spacing" textLength="359" x="2750" y="459.9795">deleteTodo(todo: DomainObject): Promise&lt;void&gt;</text><ellipse cx="2741" cy="470.2813" fill="#84BE84" rx="3" ry="3" style="stroke:#038048;stroke-width:1.0;"/><text fill="#000000" font-family="sans-serif" font-size="14" lengthAdjust="spacing" textLength="363" x="2750" y="476.2764">updateTodo(todo: DomainObject): Promise&lt;void&gt;</text></g><!--MD5=[607c01281c15983c44675f9e6dea3db6]
class TodoService--><g id="elem_TodoService"><rect codeLine="109" fill="#F1F1F1" height="129.4844" id="TodoService" rx="2.5" ry="2.5" style="stroke:#181818;stroke-width:0.5;" width="363" x="3310" y="338"/><ellipse cx="3442.75" cy="354" fill="#ADD1B2" rx="11" ry="11" style="stroke:#181818;stroke-width:1.0;"/><path d="M3445.0938,349.6719 C3444.1563,349.2344 3443.5625,349.0938 3442.6875,349.0938 C3440.0625,349.0938 3438.0625,351.1719 3438.0625,353.8906 L3438.0625,355.0156 C3438.0625,357.5938 3440.1719,359.4844 3443.0625,359.4844 C3444.2813,359.4844 3445.4375,359.1875 3446.1875,358.6406 C3446.7656,358.2344 3447.0938,357.7813 3447.0938,357.3906 C3447.0938,356.9375 3446.7031,356.5469 3446.2344,356.5469 C3446.0156,356.5469 3445.8125,356.625 3445.625,356.8125 C3445.1719,357.2969 3445.1719,357.2969 3444.9844,357.3906 C3444.5625,357.6563 3443.875,357.7813 3443.1094,357.7813 C3441.0625,357.7813 3439.7656,356.6875 3439.7656,354.9844 L3439.7656,353.8906 C3439.7656,352.1094 3441.0156,350.7969 3442.75,350.7969 C3443.3281,350.7969 3443.9375,350.9531 3444.4063,351.2031 C3444.8906,351.4844 3445.0625,351.7031 3445.1563,352.1094 C3445.2188,352.5156 3445.25,352.6406 3445.3906,352.7656 C3445.5313,352.9063 3445.7656,353.0156 3445.9844,353.0156 C3446.25,353.0156 3446.5156,352.875 3446.6875,352.6563 C3446.7969,352.5 3446.8281,352.3125 3446.8281,351.8906 L3446.8281,350.4688 C3446.8281,350.0313 3446.8125,349.9063 3446.7188,349.75 C3446.5625,349.4844 3446.2813,349.3438 3445.9844,349.3438 C3445.6875,349.3438 3445.4844,349.4375 3445.2656,349.75 L3445.0938,349.6719 Z " fill="#000000"/><text fill="#000000" font-family="sans-serif" font-size="14" lengthAdjust="spacing" textLength="89" x="3463.25" y="358.8467">TodoService</text><line style="stroke:#181818;stroke-width:0.5;" x1="3311" x2="3672" y1="370" y2="370"/><rect fill="none" height="6" style="stroke:#C82930;stroke-width:1.0;" width="6" x="3318" y="378"/><text fill="#000000" font-family="sans-serif" font-size="14" lengthAdjust="spacing" textLength="221" x="3330" y="386.9951">repository: Repository&lt;Todo&gt;</text><line style="stroke:#181818;stroke-width:0.5;" x1="3311" x2="3672" y1="394.2969" y2="394.2969"/><ellipse cx="3321" cy="405.2969" fill="#84BE84" rx="3" ry="3" style="stroke:#038048;stroke-width:1.0;"/><text fill="#000000" font-family="sans-serif" font-size="14" lengthAdjust="spacing" textLength="223" x="3330" y="411.292">selectAll(): Promise&lt;TodoList&gt;</text><ellipse cx="3321" cy="421.5938" fill="#84BE84" rx="3" ry="3" style="stroke:#038048;stroke-width:1.0;"/><text fill="#000000" font-family="sans-serif" font-size="14" lengthAdjust="spacing" textLength="333" x="3330" y="427.5889">create(params: TodoRequest): Promise&lt;void&gt;</text><ellipse cx="3321" cy="437.8906" fill="#84BE84" rx="3" ry="3" style="stroke:#038048;stroke-width:1.0;"/><text fill="#000000" font-family="sans-serif" font-size="14" lengthAdjust="spacing" textLength="333" x="3330" y="443.8857">delete(params: TodoRequest): Promise&lt;void&gt;</text><ellipse cx="3321" cy="454.1875" fill="#84BE84" rx="3" ry="3" style="stroke:#038048;stroke-width:1.0;"/><text fill="#000000" font-family="sans-serif" font-size="14" lengthAdjust="spacing" textLength="337" x="3330" y="460.1826">update(params: TodoRequest): Promise&lt;void&gt;</text></g><!--MD5=[dbb8b4f13c7b21394f9d757e58732f45]
class Service--><g id="elem_Service"><rect codeLine="123" fill="#F1F1F1" height="113.1875" id="Service" rx="2.5" ry="2.5" style="stroke:#181818;stroke-width:0.5;" width="393" x="3295" y="18"/><ellipse cx="3460.75" cy="34" fill="#B4A7E5" rx="11" ry="11" style="stroke:#181818;stroke-width:1.0;"/><path d="M3461.7031,30.7813 L3463.4219,30.7813 C3463.8125,30.7813 3464,30.75 3464.125,30.6719 C3464.3906,30.5156 3464.5313,30.2344 3464.5313,29.9375 C3464.5313,29.6719 3464.4219,29.4063 3464.1875,29.2344 C3464.0156,29.125 3463.875,29.0938 3463.4219,29.0938 L3458.2813,29.0938 C3457.8438,29.0938 3457.7188,29.1094 3457.5625,29.2031 C3457.3125,29.3594 3457.1563,29.6563 3457.1563,29.9375 C3457.1563,30.2188 3457.2969,30.4688 3457.5156,30.6406 C3457.6719,30.75 3457.8594,30.7813 3458.2813,30.7813 L3460,30.7813 L3460,37.2969 L3458.2813,37.2969 C3457.8438,37.2969 3457.7188,37.3125 3457.5625,37.4219 C3457.3125,37.5781 3457.1563,37.8594 3457.1563,38.1563 C3457.1563,38.4063 3457.2969,38.6719 3457.5156,38.8281 C3457.6719,38.9531 3457.875,39 3458.2813,39 L3463.4219,39 C3464.1719,39 3464.5313,38.7188 3464.5313,38.1563 C3464.5313,37.875 3464.4219,37.625 3464.1875,37.4531 C3464.0156,37.3281 3463.875,37.2969 3463.4219,37.2969 L3461.7031,37.2969 L3461.7031,30.7813 Z " fill="#000000"/><text fill="#000000" font-family="sans-serif" font-size="14" font-style="italic" lengthAdjust="spacing" textLength="53" x="3481.25" y="38.8467">Service</text><line style="stroke:#181818;stroke-width:0.5;" x1="3296" x2="3687" y1="50" y2="50"/><line style="stroke:#181818;stroke-width:0.5;" x1="3296" x2="3687" y1="58" y2="58"/><ellipse cx="3306" cy="69" fill="#84BE84" rx="3" ry="3" style="stroke:#038048;stroke-width:1.0;"/><text fill="#000000" font-family="sans-serif" font-size="14" lengthAdjust="spacing" textLength="363" x="3315" y="74.9951">create(params: TodoRequest): PromiseLike&lt;void&gt;</text><ellipse cx="3306" cy="85.2969" fill="#84BE84" rx="3" ry="3" style="stroke:#038048;stroke-width:1.0;"/><text fill="#000000" font-family="sans-serif" font-size="14" lengthAdjust="spacing" textLength="253" x="3315" y="91.292">selectAll(): PromiseLike&lt;TodoList&gt;</text><ellipse cx="3306" cy="101.5938" fill="#84BE84" rx="3" ry="3" style="stroke:#038048;stroke-width:1.0;"/><text fill="#000000" font-family="sans-serif" font-size="14" lengthAdjust="spacing" textLength="367" x="3315" y="107.5889">update(params: TodoRequest): PromiseLike&lt;void&gt;</text><ellipse cx="3306" cy="117.8906" fill="#84BE84" rx="3" ry="3" style="stroke:#038048;stroke-width:1.0;"/><text fill="#000000" font-family="sans-serif" font-size="14" lengthAdjust="spacing" textLength="363" x="3315" y="123.8857">delete(params: TodoRequest): PromiseLike&lt;void&gt;</text></g><!--MD5=[a25ccc1209b4bad4051a7be06c87c7b8]
class TodoController--><g id="elem_TodoController"><rect codeLine="116" fill="#F1F1F1" height="129.4844" id="TodoController" rx="2.5" ry="2.5" style="stroke:#181818;stroke-width:0.5;" width="344" x="300.5" y="666"/><ellipse cx="413.75" cy="682" fill="#ADD1B2" rx="11" ry="11" style="stroke:#181818;stroke-width:1.0;"/><path d="M416.0938,677.6719 C415.1563,677.2344 414.5625,677.0938 413.6875,677.0938 C411.0625,677.0938 409.0625,679.1719 409.0625,681.8906 L409.0625,683.0156 C409.0625,685.5938 411.1719,687.4844 414.0625,687.4844 C415.2813,687.4844 416.4375,687.1875 417.1875,686.6406 C417.7656,686.2344 418.0938,685.7813 418.0938,685.3906 C418.0938,684.9375 417.7031,684.5469 417.2344,684.5469 C417.0156,684.5469 416.8125,684.625 416.625,684.8125 C416.1719,685.2969 416.1719,685.2969 415.9844,685.3906 C415.5625,685.6563 414.875,685.7813 414.1094,685.7813 C412.0625,685.7813 410.7656,684.6875 410.7656,682.9844 L410.7656,681.8906 C410.7656,680.1094 412.0156,678.7969 413.75,678.7969 C414.3281,678.7969 414.9375,678.9531 415.4063,679.2031 C415.8906,679.4844 416.0625,679.7031 416.1563,680.1094 C416.2188,680.5156 416.25,680.6406 416.3906,680.7656 C416.5313,680.9063 416.7656,681.0156 416.9844,681.0156 C417.25,681.0156 417.5156,680.875 417.6875,680.6563 C417.7969,680.5 417.8281,680.3125 417.8281,679.8906 L417.8281,678.4688 C417.8281,678.0313 417.8125,677.9063 417.7188,677.75 C417.5625,677.4844 417.2813,677.3438 416.9844,677.3438 C416.6875,677.3438 416.4844,677.4375 416.2656,677.75 L416.0938,677.6719 Z " fill="#000000"/><text fill="#000000" font-family="sans-serif" font-size="14" lengthAdjust="spacing" textLength="109" x="434.25" y="686.8467">TodoController</text><line style="stroke:#181818;stroke-width:0.5;" x1="301.5" x2="643.5" y1="698" y2="698"/><rect fill="none" height="6" style="stroke:#C82930;stroke-width:1.0;" width="6" x="308.5" y="706"/><text fill="#000000" font-family="sans-serif" font-size="14" lengthAdjust="spacing" textLength="113" x="320.5" y="714.9951">service: Service</text><line style="stroke:#181818;stroke-width:0.5;" x1="301.5" x2="643.5" y1="722.2969" y2="722.2969"/><ellipse cx="311.5" cy="733.2969" fill="#84BE84" rx="3" ry="3" style="stroke:#038048;stroke-width:1.0;"/><text fill="#000000" font-family="sans-serif" font-size="14" lengthAdjust="spacing" textLength="223" x="320.5" y="739.292">selectAll(): Promise&lt;TodoList&gt;</text><ellipse cx="311.5" cy="749.5938" fill="#84BE84" rx="3" ry="3" style="stroke:#038048;stroke-width:1.0;"/><text fill="#000000" font-family="sans-serif" font-size="14" lengthAdjust="spacing" textLength="314" x="320.5" y="755.5889">create(todo: TodoRequest): Promise&lt;void&gt;</text><ellipse cx="311.5" cy="765.8906" fill="#84BE84" rx="3" ry="3" style="stroke:#038048;stroke-width:1.0;"/><text fill="#000000" font-family="sans-serif" font-size="14" lengthAdjust="spacing" textLength="314" x="320.5" y="771.8857">delete(todo: TodoRequest): Promise&lt;void&gt;</text><ellipse cx="311.5" cy="782.1875" fill="#84BE84" rx="3" ry="3" style="stroke:#038048;stroke-width:1.0;"/><text fill="#000000" font-family="sans-serif" font-size="14" lengthAdjust="spacing" textLength="318" x="320.5" y="788.1826">update(todo: TodoRequest): Promise&lt;void&gt;</text></g><!--MD5=[90c2eeb5b1c43f41de2a9553c00dd5e7]
reverse link Status to TodoStatus--><g id="link_Status_TodoStatus"><path d="M2568.5,143.455 C2568.5,195.277 2568.5,266.799 2568.5,321.404 " fill="none" id="Status-backto-TodoStatus" style="stroke:#181818;stroke-width:1.0;stroke-dasharray:7.0,7.0;"/><polygon fill="none" points="2561.5,143.252,2568.5,123.252,2575.5,143.252,2561.5,143.252" style="stroke:#181818;stroke-width:1.0;"/></g><!--MD5=[ebb592ff29e93e2dfd26247b56493251]
reverse link TodoStatus to NotStarted--><g id="link_TodoStatus_NotStarted"><path d="M2503.66,500.462 C2455.76,572.091 2394.17,664.196 2365.91,706.451 " fill="none" id="TodoStatus-backto-NotStarted" style="stroke:#181818;stroke-width:1.0;"/><polygon fill="none" points="2497.96,496.4,2514.89,483.666,2509.59,504.183,2497.96,496.4" style="stroke:#181818;stroke-width:1.0;"/></g><!--MD5=[63986a0e5cc34f102e943fcb74e6a640]
reverse link TodoStatus to InProgress--><g id="link_TodoStatus_InProgress"><path d="M2546.18,503.192 C2530.23,574.415 2510,664.731 2500.66,706.451 " fill="none" id="TodoStatus-backto-InProgress" style="stroke:#181818;stroke-width:1.0;"/><polygon fill="none" points="2539.35,501.653,2550.55,483.666,2553.01,504.712,2539.35,501.653" style="stroke:#181818;stroke-width:1.0;"/></g><!--MD5=[6e26457b256553e6fb06ab3173327d68]
reverse link TodoStatus to Completed--><g id="link_TodoStatus_Completed"><path d="M2590.62,503.649 C2606.33,574.801 2626.21,664.82 2635.41,706.451 " fill="none" id="TodoStatus-backto-Completed" style="stroke:#181818;stroke-width:1.0;"/><polygon fill="none" points="2583.68,504.705,2586.21,483.666,2597.35,501.686,2583.68,504.705" style="stroke:#181818;stroke-width:1.0;"/></g><!--MD5=[119361190cdd54cf66ab20ad6dd3660c]
reverse link TodoStatus to Undefined--><g id="link_TodoStatus_Undefined"><path d="M2632.74,500.462 C2680.2,572.091 2741.23,664.196 2769.23,706.451 " fill="none" id="TodoStatus-backto-Undefined" style="stroke:#181818;stroke-width:1.0;"/><polygon fill="none" points="2626.83,504.205,2621.62,483.666,2638.5,496.472,2626.83,504.205" style="stroke:#181818;stroke-width:1.0;"/></g><!--MD5=[1b6a82b39fa22465f7b12426f312311f]
reverse link Repository to TodoRepository--><g id="link_Repository_TodoRepository"><path d="M3002.5,159.27 C3002.5,209.126 3002.5,272.049 3002.5,321.267 " fill="none" id="Repository-backto-TodoRepository" style="stroke:#181818;stroke-width:1.0;stroke-dasharray:7.0,7.0;"/><polygon fill="none" points="2995.5,159.13,3002.5,139.13,3009.5,159.13,2995.5,159.13" style="stroke:#181818;stroke-width:1.0;"/></g><!--MD5=[cf6bf8784ce41bc80f656847812dbf59]
reverse link Service to TodoService--><g id="link_Service_TodoService"><path d="M3491.5,151.437 C3491.5,208.07 3491.5,284.55 3491.5,337.963 " fill="none" id="Service-backto-TodoService" style="stroke:#181818;stroke-width:1.0;stroke-dasharray:7.0,7.0;"/><polygon fill="none" points="3484.5,151.171,3491.5,131.171,3498.5,151.171,3484.5,151.171" style="stroke:#181818;stroke-width:1.0;"/></g><!--MD5=[6e2e1c94f15b2b0b1b93394fe3b3ead2]
@startuml
class CompletedAt {
    -value: Date | null
    +Value: Date | null
    +equals(completedAt: CompletedAt): boolean
}
class CreatedAt {
    -value: Date
    +Value: Date
    +equals(createdAt: CreatedAt): boolean
}
class DueDate {
    -value: Date | null
    +Value: Date | null
    +equals(dueDate: DueDate): boolean
    +overDue(day?: Date): boolean
}
interface Status {
    +Value: string
    +Type: string
    +Code: string
}
class Title {
    -value: string
    +Value: string
    +equals(other: Title): boolean
}
enum TodoStatusType {
    UNDEFINED
    NOT_STARTED
    IN_PROGRESS
    COMPLETED
}
namespace TodoStatusTypeEnum {
}
abstract class TodoStatus implements Status {
    #value: string
    #type: string
    #code: string
    +Value: string
    +Type: string
    +Code: string
    +{static} create(todo: Todo): TodoStatus
}
class NotStarted extends TodoStatus
class InProgress extends TodoStatus
class Completed extends TodoStatus
class Undefined extends TodoStatus
class Todo {
    -title: Title
    -isCompleted: boolean
    -createdAt: CreatedAt
    -completedAt: CompletedAt
    -dueDate: DueDate
    -isOverDue: boolean
    -status: Status
    -id: number | null
    +Title: string
    +Completed: boolean
    +CreatedAt: Date
    +CompletedAt: Date | null
    +DueDate: Date | null
    +OverDue: boolean
    +Status: string
    +Id: number | null
    +StatusCode: string
    +StatusType: string
    +complete(): Todo
    +setDueDate(due: DueDate): Todo
    +equals(other: Todo): boolean
    +{static} create(params: { title: string; completed?: boolean | undefined; createdAt?: CreatedAt | undefined; completedAt?: CompletedAt | undefined; dueDate?: DueDate | undefined; id?: number | ... 1 more ... | undefined; }): Todo
}
class TodoList {
    -value: Todo[]
    +Value: Todo[]
    +add(todo: Todo): TodoList
}
class TodoEntity {
    +id: number
    +title: string
    +completed: boolean
    +dueDate: Date | null
    +createdAt: Date
    +completedAt: Date | null
    +status: StatusEntity
}
class StatusEntity {
    +id: number
    +type: string
    +code: string
    +name: string
    +todos: TodoEntity[]
}
interface Repository<T> {
    +getTodos(): Promise<TodoList>
    +getTodo(id: number): Promise<Todo>
    +updateTodo(updatedTodo: Todo): Promise<void>
    +deleteTodo(todo: Todo): Promise<void>
    +addTodo: any
}
class TodoRepository implements Repository {
    -repository: ORMRepository<Entity>
    -createUpdateStatus(todo: DomainObject): Promise<StatusEntity | null>
    +getTodos(): Promise<FirstClassCollection>
    +getTodo(id: number): Promise<DomainObject>
    +addTodo(todo: DomainObject): Promise<void>
    +deleteTodo(todo: DomainObject): Promise<void>
    +updateTodo(todo: DomainObject): Promise<void>
}
class TodoService implements Service {
    -repository: Repository<Todo>
    +selectAll(): Promise<TodoList>
    +create(params: TodoRequest): Promise<void>
    +delete(params: TodoRequest): Promise<void>
    +update(params: TodoRequest): Promise<void>
}
class TodoController {
    -service: Service
    +selectAll(): Promise<TodoList>
    +create(todo: TodoRequest): Promise<void>
    +delete(todo: TodoRequest): Promise<void>
    +update(todo: TodoRequest): Promise<void>
}
interface Service {
    +create(params: TodoRequest): PromiseLike<void>
    +selectAll(): PromiseLike<TodoList>
    +update(params: TodoRequest): PromiseLike<void>
    +delete(params: TodoRequest): PromiseLike<void>
}
@enduml

PlantUML version 1.2022.4beta2(Unknown compile time)
(GPL source distribution)
Java Runtime: Java(TM) SE Runtime Environment
JVM: Java HotSpot(TM) 64-Bit Server VM
Default Encoding: UTF-8
Language: en
Country: US
--></g></svg>