<?xml version="1.0" encoding="UTF-8" standalone="no"?><svg xmlns="http://www.w3.org/2000/svg" xmlns:xlink="http://www.w3.org/1999/xlink" contentStyleType="text/css" height="577px" preserveAspectRatio="none" style="width:2916px;height:577px;background:#FFFFFF;" version="1.1" viewBox="0 0 2916 577" width="2916px" zoomAndPan="magnify"><defs/><g><!--MD5=[d304ca89bdbd8073bbc1ba7ea9e70f7d]
class Todo--><g id="elem_Todo"><rect codeLine="60" fill="#F1F1F1" height="390.2344" id="Todo" rx="2.5" ry="2.5" style="stroke:#181818;stroke-width:0.5;" width="265" x="960" y="180"/><ellipse cx="1070.25" cy="196" fill="#ADD1B2" rx="11" ry="11" style="stroke:#181818;stroke-width:1.0;"/><path d="M1072.5938,191.6719 C1071.6563,191.2344 1071.0625,191.0938 1070.1875,191.0938 C1067.5625,191.0938 1065.5625,193.1719 1065.5625,195.8906 L1065.5625,197.0156 C1065.5625,199.5938 1067.6719,201.4844 1070.5625,201.4844 C1071.7813,201.4844 1072.9375,201.1875 1073.6875,200.6406 C1074.2656,200.2344 1074.5938,199.7813 1074.5938,199.3906 C1074.5938,198.9375 1074.2031,198.5469 1073.7344,198.5469 C1073.5156,198.5469 1073.3125,198.625 1073.125,198.8125 C1072.6719,199.2969 1072.6719,199.2969 1072.4844,199.3906 C1072.0625,199.6563 1071.375,199.7813 1070.6094,199.7813 C1068.5625,199.7813 1067.2656,198.6875 1067.2656,196.9844 L1067.2656,195.8906 C1067.2656,194.1094 1068.5156,192.7969 1070.25,192.7969 C1070.8281,192.7969 1071.4375,192.9531 1071.9063,193.2031 C1072.3906,193.4844 1072.5625,193.7031 1072.6563,194.1094 C1072.7188,194.5156 1072.75,194.6406 1072.8906,194.7656 C1073.0313,194.9063 1073.2656,195.0156 1073.4844,195.0156 C1073.75,195.0156 1074.0156,194.875 1074.1875,194.6563 C1074.2969,194.5 1074.3281,194.3125 1074.3281,193.8906 L1074.3281,192.4688 C1074.3281,192.0313 1074.3125,191.9063 1074.2188,191.75 C1074.0625,191.4844 1073.7813,191.3438 1073.4844,191.3438 C1073.1875,191.3438 1072.9844,191.4375 1072.7656,191.75 L1072.5938,191.6719 Z " fill="#000000"/><text fill="#000000" font-family="sans-serif" font-size="14" lengthAdjust="spacing" textLength="36" x="1090.75" y="200.8467">Todo</text><line style="stroke:#181818;stroke-width:0.5;" x1="961" x2="1224" y1="212" y2="212"/><ellipse cx="971" cy="223" fill="none" rx="3" ry="3" style="stroke:#038048;stroke-width:1.0;"/><text fill="#000000" font-family="sans-serif" font-size="14" lengthAdjust="spacing" textLength="78" x="980" y="228.9951">id: number</text><ellipse cx="971" cy="239.2969" fill="none" rx="3" ry="3" style="stroke:#038048;stroke-width:1.0;"/><text fill="#000000" font-family="sans-serif" font-size="14" lengthAdjust="spacing" textLength="82" x="980" y="245.292">title: string</text><ellipse cx="971" cy="255.5938" fill="none" rx="3" ry="3" style="stroke:#038048;stroke-width:1.0;"/><text fill="#000000" font-family="sans-serif" font-size="14" lengthAdjust="spacing" textLength="146" x="980" y="261.5889">completed: boolean</text><ellipse cx="971" cy="271.8906" fill="none" rx="3" ry="3" style="stroke:#038048;stroke-width:1.0;"/><text fill="#000000" font-family="sans-serif" font-size="14" lengthAdjust="spacing" textLength="143" x="980" y="277.8857">dueDate: Date | null</text><ellipse cx="971" cy="288.1875" fill="none" rx="3" ry="3" style="stroke:#038048;stroke-width:1.0;"/><text fill="#000000" font-family="sans-serif" font-size="14" lengthAdjust="spacing" textLength="117" x="980" y="294.1826">createdAt: Date</text><ellipse cx="971" cy="304.4844" fill="none" rx="3" ry="3" style="stroke:#038048;stroke-width:1.0;"/><text fill="#000000" font-family="sans-serif" font-size="14" lengthAdjust="spacing" textLength="178" x="980" y="310.4795">completedAt: Date | null</text><ellipse cx="971" cy="320.7813" fill="none" rx="3" ry="3" style="stroke:#038048;stroke-width:1.0;"/><text fill="#000000" font-family="sans-serif" font-size="14" lengthAdjust="spacing" textLength="95" x="980" y="326.7764">status: string</text><rect fill="none" height="6" style="stroke:#C82930;stroke-width:1.0;" width="6" x="968" y="334.0781"/><text fill="#000000" font-family="sans-serif" font-size="14" lengthAdjust="spacing" textLength="73" x="980" y="343.0732">title: Title</text><rect fill="none" height="6" style="stroke:#C82930;stroke-width:1.0;" width="6" x="968" y="350.375"/><text fill="#000000" font-family="sans-serif" font-size="14" lengthAdjust="spacing" textLength="146" x="980" y="359.3701">completed: boolean</text><rect fill="none" height="6" style="stroke:#C82930;stroke-width:1.0;" width="6" x="968" y="366.6719"/><text fill="#000000" font-family="sans-serif" font-size="14" lengthAdjust="spacing" textLength="157" x="980" y="375.667">createdAt: CreatedAt</text><rect fill="none" height="6" style="stroke:#C82930;stroke-width:1.0;" width="6" x="968" y="382.9688"/><text fill="#000000" font-family="sans-serif" font-size="14" lengthAdjust="spacing" textLength="203" x="980" y="391.9639">completedAt: CompletedAt</text><rect fill="none" height="6" style="stroke:#C82930;stroke-width:1.0;" width="6" x="968" y="399.2656"/><text fill="#000000" font-family="sans-serif" font-size="14" lengthAdjust="spacing" textLength="133" x="980" y="408.2607">dueDate: DueDate</text><ellipse cx="971" cy="418.5625" fill="none" rx="3" ry="3" style="stroke:#038048;stroke-width:1.0;"/><text fill="#000000" font-family="sans-serif" font-size="14" lengthAdjust="spacing" textLength="84" x="980" y="424.5576">Title: string</text><ellipse cx="971" cy="434.8594" fill="none" rx="3" ry="3" style="stroke:#038048;stroke-width:1.0;"/><text fill="#000000" font-family="sans-serif" font-size="14" lengthAdjust="spacing" textLength="148" x="980" y="440.8545">Completed: boolean</text><ellipse cx="971" cy="451.1563" fill="none" rx="3" ry="3" style="stroke:#038048;stroke-width:1.0;"/><text fill="#000000" font-family="sans-serif" font-size="14" lengthAdjust="spacing" textLength="119" x="980" y="457.1514">CreatedAt: Date</text><ellipse cx="971" cy="467.4531" fill="none" rx="3" ry="3" style="stroke:#038048;stroke-width:1.0;"/><text fill="#000000" font-family="sans-serif" font-size="14" lengthAdjust="spacing" textLength="180" x="980" y="473.4482">CompletedAt: Date | null</text><ellipse cx="971" cy="483.75" fill="none" rx="3" ry="3" style="stroke:#038048;stroke-width:1.0;"/><text fill="#000000" font-family="sans-serif" font-size="14" lengthAdjust="spacing" textLength="145" x="980" y="489.7451">DueDate: Date | null</text><line style="stroke:#181818;stroke-width:0.5;" x1="961" x2="1224" y1="497.0469" y2="497.0469"/><ellipse cx="971" cy="508.0469" fill="#84BE84" rx="3" ry="3" style="stroke:#038048;stroke-width:1.0;"/><text fill="#000000" font-family="sans-serif" font-size="14" lengthAdjust="spacing" textLength="119" x="980" y="514.042">complete(): void</text><ellipse cx="971" cy="524.3438" fill="#84BE84" rx="3" ry="3" style="stroke:#038048;stroke-width:1.0;"/><text fill="#000000" font-family="sans-serif" font-size="14" lengthAdjust="spacing" textLength="137" x="980" y="530.3389">overDue(): boolean</text><ellipse cx="971" cy="540.6406" fill="#84BE84" rx="3" ry="3" style="stroke:#038048;stroke-width:1.0;"/><text fill="#000000" font-family="sans-serif" font-size="14" lengthAdjust="spacing" textLength="239" x="980" y="546.6357">setDueDate(due: DueDate): Todo</text><ellipse cx="971" cy="556.9375" fill="#84BE84" rx="3" ry="3" style="stroke:#038048;stroke-width:1.0;"/><text fill="#000000" font-family="sans-serif" font-size="14" lengthAdjust="spacing" textLength="207" x="980" y="562.9326">equals(other: Todo): boolean</text></g><!--MD5=[7d75efcc7d06b347edea0516f6aac1d8]
class BaseEntity--><g id="elem_BaseEntity"><rect fill="#F1F1F1" height="48" id="BaseEntity" rx="2.5" ry="2.5" style="stroke:#181818;stroke-width:0.5;" width="110" x="1037.5" y="39.5"/><ellipse cx="1052.5" cy="55.5" fill="#ADD1B2" rx="11" ry="11" style="stroke:#181818;stroke-width:1.0;"/><path d="M1054.8438,51.1719 C1053.9063,50.7344 1053.3125,50.5938 1052.4375,50.5938 C1049.8125,50.5938 1047.8125,52.6719 1047.8125,55.3906 L1047.8125,56.5156 C1047.8125,59.0938 1049.9219,60.9844 1052.8125,60.9844 C1054.0313,60.9844 1055.1875,60.6875 1055.9375,60.1406 C1056.5156,59.7344 1056.8438,59.2813 1056.8438,58.8906 C1056.8438,58.4375 1056.4531,58.0469 1055.9844,58.0469 C1055.7656,58.0469 1055.5625,58.125 1055.375,58.3125 C1054.9219,58.7969 1054.9219,58.7969 1054.7344,58.8906 C1054.3125,59.1563 1053.625,59.2813 1052.8594,59.2813 C1050.8125,59.2813 1049.5156,58.1875 1049.5156,56.4844 L1049.5156,55.3906 C1049.5156,53.6094 1050.7656,52.2969 1052.5,52.2969 C1053.0781,52.2969 1053.6875,52.4531 1054.1563,52.7031 C1054.6406,52.9844 1054.8125,53.2031 1054.9063,53.6094 C1054.9688,54.0156 1055,54.1406 1055.1406,54.2656 C1055.2813,54.4063 1055.5156,54.5156 1055.7344,54.5156 C1056,54.5156 1056.2656,54.375 1056.4375,54.1563 C1056.5469,54 1056.5781,53.8125 1056.5781,53.3906 L1056.5781,51.9688 C1056.5781,51.5313 1056.5625,51.4063 1056.4688,51.25 C1056.3125,50.9844 1056.0313,50.8438 1055.7344,50.8438 C1055.4375,50.8438 1055.2344,50.9375 1055.0156,51.25 L1054.8438,51.1719 Z " fill="#000000"/><text fill="#000000" font-family="sans-serif" font-size="14" lengthAdjust="spacing" textLength="78" x="1066.5" y="60.3467">BaseEntity</text><line style="stroke:#181818;stroke-width:0.5;" x1="1038.5" x2="1146.5" y1="71.5" y2="71.5"/><line style="stroke:#181818;stroke-width:0.5;" x1="1038.5" x2="1146.5" y1="79.5" y2="79.5"/></g><!--MD5=[f3a432345cbe8f2bb5c17570319e88a3]
class CreateCommand--><g id="elem_CreateCommand"><rect codeLine="10" fill="#F1F1F1" height="80.5938" id="CreateCommand" rx="2.5" ry="2.5" style="stroke:#181818;stroke-width:0.5;" width="386" x="1260.5" y="334.5"/><ellipse cx="1388.25" cy="350.5" fill="#ADD1B2" rx="11" ry="11" style="stroke:#181818;stroke-width:1.0;"/><path d="M1390.5938,346.1719 C1389.6563,345.7344 1389.0625,345.5938 1388.1875,345.5938 C1385.5625,345.5938 1383.5625,347.6719 1383.5625,350.3906 L1383.5625,351.5156 C1383.5625,354.0938 1385.6719,355.9844 1388.5625,355.9844 C1389.7813,355.9844 1390.9375,355.6875 1391.6875,355.1406 C1392.2656,354.7344 1392.5938,354.2813 1392.5938,353.8906 C1392.5938,353.4375 1392.2031,353.0469 1391.7344,353.0469 C1391.5156,353.0469 1391.3125,353.125 1391.125,353.3125 C1390.6719,353.7969 1390.6719,353.7969 1390.4844,353.8906 C1390.0625,354.1563 1389.375,354.2813 1388.6094,354.2813 C1386.5625,354.2813 1385.2656,353.1875 1385.2656,351.4844 L1385.2656,350.3906 C1385.2656,348.6094 1386.5156,347.2969 1388.25,347.2969 C1388.8281,347.2969 1389.4375,347.4531 1389.9063,347.7031 C1390.3906,347.9844 1390.5625,348.2031 1390.6563,348.6094 C1390.7188,349.0156 1390.75,349.1406 1390.8906,349.2656 C1391.0313,349.4063 1391.2656,349.5156 1391.4844,349.5156 C1391.75,349.5156 1392.0156,349.375 1392.1875,349.1563 C1392.2969,349 1392.3281,348.8125 1392.3281,348.3906 L1392.3281,346.9688 C1392.3281,346.5313 1392.3125,346.4063 1392.2188,346.25 C1392.0625,345.9844 1391.7813,345.8438 1391.4844,345.8438 C1391.1875,345.8438 1390.9844,345.9375 1390.7656,346.25 L1390.5938,346.1719 Z " fill="#000000"/><text fill="#000000" font-family="sans-serif" font-size="14" lengthAdjust="spacing" textLength="122" x="1408.75" y="355.3467">CreateCommand</text><line style="stroke:#181818;stroke-width:0.5;" x1="1261.5" x2="1645.5" y1="366.5" y2="366.5"/><rect fill="none" height="6" style="stroke:#C82930;stroke-width:1.0;" width="6" x="1268.5" y="374.5"/><text fill="#000000" font-family="sans-serif" font-size="14" lengthAdjust="spacing" textLength="79" x="1280.5" y="383.4951">type: Type</text><line style="stroke:#181818;stroke-width:0.5;" x1="1261.5" x2="1645.5" y1="390.7969" y2="390.7969"/><ellipse cx="1271.5" cy="401.7969" fill="#84BE84" rx="3" ry="3" style="stroke:#038048;stroke-width:1.0;"/><text fill="#000000" font-family="sans-serif" font-size="14" lengthAdjust="spacing" textLength="360" x="1280.5" y="407.792">execute(params: Params): Promise&lt;void | Todo[]&gt;</text></g><!--MD5=[521817ab83e81da341a3f4b5e91bae41]
class Command--><g id="elem_Command"><rect codeLine="36" fill="#F1F1F1" height="64.2969" id="Command" rx="2.5" ry="2.5" style="stroke:#181818;stroke-width:0.5;" width="386" x="1891.5" y="31.5"/><ellipse cx="2043.25" cy="47.5" fill="#B4A7E5" rx="11" ry="11" style="stroke:#181818;stroke-width:1.0;"/><path d="M2044.2031,44.2813 L2045.9219,44.2813 C2046.3125,44.2813 2046.5,44.25 2046.625,44.1719 C2046.8906,44.0156 2047.0313,43.7344 2047.0313,43.4375 C2047.0313,43.1719 2046.9219,42.9063 2046.6875,42.7344 C2046.5156,42.625 2046.375,42.5938 2045.9219,42.5938 L2040.7813,42.5938 C2040.3438,42.5938 2040.2188,42.6094 2040.0625,42.7031 C2039.8125,42.8594 2039.6563,43.1563 2039.6563,43.4375 C2039.6563,43.7188 2039.7969,43.9688 2040.0156,44.1406 C2040.1719,44.25 2040.3594,44.2813 2040.7813,44.2813 L2042.5,44.2813 L2042.5,50.7969 L2040.7813,50.7969 C2040.3438,50.7969 2040.2188,50.8125 2040.0625,50.9219 C2039.8125,51.0781 2039.6563,51.3594 2039.6563,51.6563 C2039.6563,51.9063 2039.7969,52.1719 2040.0156,52.3281 C2040.1719,52.4531 2040.375,52.5 2040.7813,52.5 L2045.9219,52.5 C2046.6719,52.5 2047.0313,52.2188 2047.0313,51.6563 C2047.0313,51.375 2046.9219,51.125 2046.6875,50.9531 C2046.5156,50.8281 2046.375,50.7969 2045.9219,50.7969 L2044.2031,50.7969 L2044.2031,44.2813 Z " fill="#000000"/><text fill="#000000" font-family="sans-serif" font-size="14" font-style="italic" lengthAdjust="spacing" textLength="74" x="2063.75" y="52.3467">Command</text><line style="stroke:#181818;stroke-width:0.5;" x1="1892.5" x2="2276.5" y1="63.5" y2="63.5"/><line style="stroke:#181818;stroke-width:0.5;" x1="1892.5" x2="2276.5" y1="71.5" y2="71.5"/><ellipse cx="1902.5" cy="82.5" fill="#84BE84" rx="3" ry="3" style="stroke:#038048;stroke-width:1.0;"/><text fill="#000000" font-family="sans-serif" font-size="14" lengthAdjust="spacing" textLength="360" x="1911.5" y="88.4951">execute(params: Params): Promise&lt;void | Todo[]&gt;</text></g><!--MD5=[522bcce41d81f20cd1f9638a73c3e08a]
class DeleteCommand--><g id="elem_DeleteCommand"><rect codeLine="14" fill="#F1F1F1" height="80.5938" id="DeleteCommand" rx="2.5" ry="2.5" style="stroke:#181818;stroke-width:0.5;" width="386" x="1681.5" y="334.5"/><ellipse cx="1809.25" cy="350.5" fill="#ADD1B2" rx="11" ry="11" style="stroke:#181818;stroke-width:1.0;"/><path d="M1811.5938,346.1719 C1810.6563,345.7344 1810.0625,345.5938 1809.1875,345.5938 C1806.5625,345.5938 1804.5625,347.6719 1804.5625,350.3906 L1804.5625,351.5156 C1804.5625,354.0938 1806.6719,355.9844 1809.5625,355.9844 C1810.7813,355.9844 1811.9375,355.6875 1812.6875,355.1406 C1813.2656,354.7344 1813.5938,354.2813 1813.5938,353.8906 C1813.5938,353.4375 1813.2031,353.0469 1812.7344,353.0469 C1812.5156,353.0469 1812.3125,353.125 1812.125,353.3125 C1811.6719,353.7969 1811.6719,353.7969 1811.4844,353.8906 C1811.0625,354.1563 1810.375,354.2813 1809.6094,354.2813 C1807.5625,354.2813 1806.2656,353.1875 1806.2656,351.4844 L1806.2656,350.3906 C1806.2656,348.6094 1807.5156,347.2969 1809.25,347.2969 C1809.8281,347.2969 1810.4375,347.4531 1810.9063,347.7031 C1811.3906,347.9844 1811.5625,348.2031 1811.6563,348.6094 C1811.7188,349.0156 1811.75,349.1406 1811.8906,349.2656 C1812.0313,349.4063 1812.2656,349.5156 1812.4844,349.5156 C1812.75,349.5156 1813.0156,349.375 1813.1875,349.1563 C1813.2969,349 1813.3281,348.8125 1813.3281,348.3906 L1813.3281,346.9688 C1813.3281,346.5313 1813.3125,346.4063 1813.2188,346.25 C1813.0625,345.9844 1812.7813,345.8438 1812.4844,345.8438 C1812.1875,345.8438 1811.9844,345.9375 1811.7656,346.25 L1811.5938,346.1719 Z " fill="#000000"/><text fill="#000000" font-family="sans-serif" font-size="14" lengthAdjust="spacing" textLength="122" x="1829.75" y="355.3467">DeleteCommand</text><line style="stroke:#181818;stroke-width:0.5;" x1="1682.5" x2="2066.5" y1="366.5" y2="366.5"/><rect fill="none" height="6" style="stroke:#C82930;stroke-width:1.0;" width="6" x="1689.5" y="374.5"/><text fill="#000000" font-family="sans-serif" font-size="14" lengthAdjust="spacing" textLength="79" x="1701.5" y="383.4951">type: Type</text><line style="stroke:#181818;stroke-width:0.5;" x1="1682.5" x2="2066.5" y1="390.7969" y2="390.7969"/><ellipse cx="1692.5" cy="401.7969" fill="#84BE84" rx="3" ry="3" style="stroke:#038048;stroke-width:1.0;"/><text fill="#000000" font-family="sans-serif" font-size="14" lengthAdjust="spacing" textLength="360" x="1701.5" y="407.792">execute(params: Params): Promise&lt;void | Todo[]&gt;</text></g><!--MD5=[860a12987066b8aebfd02ff37a4e9912]
class ReadCommand--><g id="elem_ReadCommand"><rect codeLine="18" fill="#F1F1F1" height="80.5938" id="ReadCommand" rx="2.5" ry="2.5" style="stroke:#181818;stroke-width:0.5;" width="386" x="2102.5" y="334.5"/><ellipse cx="2236.75" cy="350.5" fill="#ADD1B2" rx="11" ry="11" style="stroke:#181818;stroke-width:1.0;"/><path d="M2239.0938,346.1719 C2238.1563,345.7344 2237.5625,345.5938 2236.6875,345.5938 C2234.0625,345.5938 2232.0625,347.6719 2232.0625,350.3906 L2232.0625,351.5156 C2232.0625,354.0938 2234.1719,355.9844 2237.0625,355.9844 C2238.2813,355.9844 2239.4375,355.6875 2240.1875,355.1406 C2240.7656,354.7344 2241.0938,354.2813 2241.0938,353.8906 C2241.0938,353.4375 2240.7031,353.0469 2240.2344,353.0469 C2240.0156,353.0469 2239.8125,353.125 2239.625,353.3125 C2239.1719,353.7969 2239.1719,353.7969 2238.9844,353.8906 C2238.5625,354.1563 2237.875,354.2813 2237.1094,354.2813 C2235.0625,354.2813 2233.7656,353.1875 2233.7656,351.4844 L2233.7656,350.3906 C2233.7656,348.6094 2235.0156,347.2969 2236.75,347.2969 C2237.3281,347.2969 2237.9375,347.4531 2238.4063,347.7031 C2238.8906,347.9844 2239.0625,348.2031 2239.1563,348.6094 C2239.2188,349.0156 2239.25,349.1406 2239.3906,349.2656 C2239.5313,349.4063 2239.7656,349.5156 2239.9844,349.5156 C2240.25,349.5156 2240.5156,349.375 2240.6875,349.1563 C2240.7969,349 2240.8281,348.8125 2240.8281,348.3906 L2240.8281,346.9688 C2240.8281,346.5313 2240.8125,346.4063 2240.7188,346.25 C2240.5625,345.9844 2240.2813,345.8438 2239.9844,345.8438 C2239.6875,345.8438 2239.4844,345.9375 2239.2656,346.25 L2239.0938,346.1719 Z " fill="#000000"/><text fill="#000000" font-family="sans-serif" font-size="14" lengthAdjust="spacing" textLength="109" x="2257.25" y="355.3467">ReadCommand</text><line style="stroke:#181818;stroke-width:0.5;" x1="2103.5" x2="2487.5" y1="366.5" y2="366.5"/><rect fill="none" height="6" style="stroke:#C82930;stroke-width:1.0;" width="6" x="2110.5" y="374.5"/><text fill="#000000" font-family="sans-serif" font-size="14" lengthAdjust="spacing" textLength="79" x="2122.5" y="383.4951">type: Type</text><line style="stroke:#181818;stroke-width:0.5;" x1="2103.5" x2="2487.5" y1="390.7969" y2="390.7969"/><ellipse cx="2113.5" cy="401.7969" fill="#84BE84" rx="3" ry="3" style="stroke:#038048;stroke-width:1.0;"/><text fill="#000000" font-family="sans-serif" font-size="14" lengthAdjust="spacing" textLength="360" x="2122.5" y="407.792">execute(params: Params): Promise&lt;void | Todo[]&gt;</text></g><!--MD5=[63bad1f31134c1e488d3f6c2fa12da5b]
class UpdateCommand--><g id="elem_UpdateCommand"><rect codeLine="22" fill="#F1F1F1" height="80.5938" id="UpdateCommand" rx="2.5" ry="2.5" style="stroke:#181818;stroke-width:0.5;" width="386" x="2523.5" y="334.5"/><ellipse cx="2649.75" cy="350.5" fill="#ADD1B2" rx="11" ry="11" style="stroke:#181818;stroke-width:1.0;"/><path d="M2652.0938,346.1719 C2651.1563,345.7344 2650.5625,345.5938 2649.6875,345.5938 C2647.0625,345.5938 2645.0625,347.6719 2645.0625,350.3906 L2645.0625,351.5156 C2645.0625,354.0938 2647.1719,355.9844 2650.0625,355.9844 C2651.2813,355.9844 2652.4375,355.6875 2653.1875,355.1406 C2653.7656,354.7344 2654.0938,354.2813 2654.0938,353.8906 C2654.0938,353.4375 2653.7031,353.0469 2653.2344,353.0469 C2653.0156,353.0469 2652.8125,353.125 2652.625,353.3125 C2652.1719,353.7969 2652.1719,353.7969 2651.9844,353.8906 C2651.5625,354.1563 2650.875,354.2813 2650.1094,354.2813 C2648.0625,354.2813 2646.7656,353.1875 2646.7656,351.4844 L2646.7656,350.3906 C2646.7656,348.6094 2648.0156,347.2969 2649.75,347.2969 C2650.3281,347.2969 2650.9375,347.4531 2651.4063,347.7031 C2651.8906,347.9844 2652.0625,348.2031 2652.1563,348.6094 C2652.2188,349.0156 2652.25,349.1406 2652.3906,349.2656 C2652.5313,349.4063 2652.7656,349.5156 2652.9844,349.5156 C2653.25,349.5156 2653.5156,349.375 2653.6875,349.1563 C2653.7969,349 2653.8281,348.8125 2653.8281,348.3906 L2653.8281,346.9688 C2653.8281,346.5313 2653.8125,346.4063 2653.7188,346.25 C2653.5625,345.9844 2653.2813,345.8438 2652.9844,345.8438 C2652.6875,345.8438 2652.4844,345.9375 2652.2656,346.25 L2652.0938,346.1719 Z " fill="#000000"/><text fill="#000000" font-family="sans-serif" font-size="14" lengthAdjust="spacing" textLength="125" x="2670.25" y="355.3467">UpdateCommand</text><line style="stroke:#181818;stroke-width:0.5;" x1="2524.5" x2="2908.5" y1="366.5" y2="366.5"/><rect fill="none" height="6" style="stroke:#C82930;stroke-width:1.0;" width="6" x="2531.5" y="374.5"/><text fill="#000000" font-family="sans-serif" font-size="14" lengthAdjust="spacing" textLength="79" x="2543.5" y="383.4951">type: Type</text><line style="stroke:#181818;stroke-width:0.5;" x1="2524.5" x2="2908.5" y1="390.7969" y2="390.7969"/><ellipse cx="2534.5" cy="401.7969" fill="#84BE84" rx="3" ry="3" style="stroke:#038048;stroke-width:1.0;"/><text fill="#000000" font-family="sans-serif" font-size="14" lengthAdjust="spacing" textLength="360" x="2543.5" y="407.792">execute(params: Params): Promise&lt;void | Todo[]&gt;</text></g><!--MD5=[4296a1ab0576a383a1a509d52c22ebf0]
class Type--><g id="elem_Type"><rect codeLine="26" fill="#F1F1F1" height="113.1875" id="Type" rx="2.5" ry="2.5" style="stroke:#181818;stroke-width:0.5;" width="69" x="125" y="7"/><ellipse cx="140.45" cy="23" fill="#EB937F" rx="11" ry="11" style="stroke:#181818;stroke-width:1.0;"/><path d="M139.2469,23.875 L140.7,23.875 L140.7,23.9844 C140.7,24.3906 140.7313,24.5469 140.8094,24.7031 C140.9656,24.9531 141.2469,25.1094 141.5438,25.1094 C141.7938,25.1094 142.0594,24.9688 142.2156,24.75 C142.3406,24.5938 142.3719,24.4375 142.3719,23.9844 L142.3719,22.0625 C142.3719,21.9063 142.3719,21.8594 142.3563,21.7031 C142.2938,21.2344 141.9813,20.9219 141.5281,20.9219 C141.2781,20.9219 141.0125,21.0625 140.8406,21.2813 C140.7313,21.4531 140.7,21.6094 140.7,22.0625 L140.7,22.1875 L139.2469,22.1875 L139.2469,19.7813 L143.2313,19.7813 L143.2313,20.6406 C143.2313,21.0469 143.2625,21.2188 143.3406,21.375 C143.5125,21.625 143.7938,21.7813 144.075,21.7813 C144.3406,21.7813 144.6063,21.6406 144.7781,21.4219 C144.8875,21.25 144.9188,21.1094 144.9188,20.6406 L144.9188,18.0938 L137.2938,18.0938 C136.8563,18.0938 136.7313,18.1094 136.575,18.2031 C136.325,18.3594 136.1688,18.6563 136.1688,18.9375 C136.1688,19.2188 136.3094,19.4688 136.5281,19.6406 C136.6844,19.75 136.8719,19.7813 137.2938,19.7813 L137.5438,19.7813 L137.5438,26.2969 L137.2938,26.2969 C136.8875,26.2969 136.7313,26.3125 136.575,26.4219 C136.325,26.5938 136.1688,26.8594 136.1688,27.1563 C136.1688,27.4219 136.3094,27.6719 136.5281,27.8281 C136.6688,27.9531 136.9031,28 137.2938,28 L145.2938,28 L145.2938,25.4219 C145.2938,24.9844 145.2625,24.8438 145.1844,24.6875 C145.0125,24.4375 144.7313,24.2813 144.45,24.2813 C144.1844,24.2813 143.9188,24.3906 143.7469,24.6406 C143.6375,24.7969 143.6063,24.9375 143.6063,25.4219 L143.6063,26.2969 L139.2469,26.2969 L139.2469,23.875 Z " fill="#000000"/><text fill="#000000" font-family="sans-serif" font-size="14" lengthAdjust="spacing" textLength="36" x="154.55" y="27.8467">Type</text><line style="stroke:#181818;stroke-width:0.5;" x1="126" x2="193" y1="39" y2="39"/><text fill="#000000" font-family="sans-serif" font-size="14" lengthAdjust="spacing" textLength="57" x="131" y="55.9951">CREATE</text><text fill="#000000" font-family="sans-serif" font-size="14" lengthAdjust="spacing" textLength="40" x="131" y="72.292">READ</text><text fill="#000000" font-family="sans-serif" font-size="14" lengthAdjust="spacing" textLength="57" x="131" y="88.5889">UPDATE</text><text fill="#000000" font-family="sans-serif" font-size="14" lengthAdjust="spacing" textLength="55" x="131" y="104.8857">DELETE</text><line style="stroke:#181818;stroke-width:0.5;" x1="126" x2="193" y1="112.1875" y2="112.1875"/></g><!--MD5=[607c01281c15983c44675f9e6dea3db6]
class TodoService--><g id="elem_TodoService"><rect codeLine="32" fill="#F1F1F1" height="80.5938" id="TodoService" rx="2.5" ry="2.5" style="stroke:#181818;stroke-width:0.5;" width="386" x="229.5" y="23"/><ellipse cx="373.75" cy="39" fill="#ADD1B2" rx="11" ry="11" style="stroke:#181818;stroke-width:1.0;"/><path d="M376.0938,34.6719 C375.1563,34.2344 374.5625,34.0938 373.6875,34.0938 C371.0625,34.0938 369.0625,36.1719 369.0625,38.8906 L369.0625,40.0156 C369.0625,42.5938 371.1719,44.4844 374.0625,44.4844 C375.2813,44.4844 376.4375,44.1875 377.1875,43.6406 C377.7656,43.2344 378.0938,42.7813 378.0938,42.3906 C378.0938,41.9375 377.7031,41.5469 377.2344,41.5469 C377.0156,41.5469 376.8125,41.625 376.625,41.8125 C376.1719,42.2969 376.1719,42.2969 375.9844,42.3906 C375.5625,42.6563 374.875,42.7813 374.1094,42.7813 C372.0625,42.7813 370.7656,41.6875 370.7656,39.9844 L370.7656,38.8906 C370.7656,37.1094 372.0156,35.7969 373.75,35.7969 C374.3281,35.7969 374.9375,35.9531 375.4063,36.2031 C375.8906,36.4844 376.0625,36.7031 376.1563,37.1094 C376.2188,37.5156 376.25,37.6406 376.3906,37.7656 C376.5313,37.9063 376.7656,38.0156 376.9844,38.0156 C377.25,38.0156 377.5156,37.875 377.6875,37.6563 C377.7969,37.5 377.8281,37.3125 377.8281,36.8906 L377.8281,35.4688 C377.8281,35.0313 377.8125,34.9063 377.7188,34.75 C377.5625,34.4844 377.2813,34.3438 376.9844,34.3438 C376.6875,34.3438 376.4844,34.4375 376.2656,34.75 L376.0938,34.6719 Z " fill="#000000"/><text fill="#000000" font-family="sans-serif" font-size="14" lengthAdjust="spacing" textLength="89" x="394.25" y="43.8467">TodoService</text><line style="stroke:#181818;stroke-width:0.5;" x1="230.5" x2="614.5" y1="55" y2="55"/><rect fill="none" height="6" style="stroke:#C82930;stroke-width:1.0;" width="6" x="237.5" y="63"/><text fill="#000000" font-family="sans-serif" font-size="14" lengthAdjust="spacing" textLength="153" x="249.5" y="71.9951">command: Command</text><line style="stroke:#181818;stroke-width:0.5;" x1="230.5" x2="614.5" y1="79.2969" y2="79.2969"/><ellipse cx="240.5" cy="90.2969" fill="#84BE84" rx="3" ry="3" style="stroke:#038048;stroke-width:1.0;"/><text fill="#000000" font-family="sans-serif" font-size="14" lengthAdjust="spacing" textLength="360" x="249.5" y="96.292">execute(params: Params): Promise&lt;void | Todo[]&gt;</text></g><!--MD5=[67f100d94b12044e782866d6f1627f13]
class CompletedAt--><g id="elem_CompletedAt"><rect codeLine="39" fill="#F1F1F1" height="96.8906" id="CompletedAt" rx="2.5" ry="2.5" style="stroke:#181818;stroke-width:0.5;" width="351" x="651" y="15"/><ellipse cx="773.25" cy="31" fill="#ADD1B2" rx="11" ry="11" style="stroke:#181818;stroke-width:1.0;"/><path d="M775.5938,26.6719 C774.6563,26.2344 774.0625,26.0938 773.1875,26.0938 C770.5625,26.0938 768.5625,28.1719 768.5625,30.8906 L768.5625,32.0156 C768.5625,34.5938 770.6719,36.4844 773.5625,36.4844 C774.7813,36.4844 775.9375,36.1875 776.6875,35.6406 C777.2656,35.2344 777.5938,34.7813 777.5938,34.3906 C777.5938,33.9375 777.2031,33.5469 776.7344,33.5469 C776.5156,33.5469 776.3125,33.625 776.125,33.8125 C775.6719,34.2969 775.6719,34.2969 775.4844,34.3906 C775.0625,34.6563 774.375,34.7813 773.6094,34.7813 C771.5625,34.7813 770.2656,33.6875 770.2656,31.9844 L770.2656,30.8906 C770.2656,29.1094 771.5156,27.7969 773.25,27.7969 C773.8281,27.7969 774.4375,27.9531 774.9063,28.2031 C775.3906,28.4844 775.5625,28.7031 775.6563,29.1094 C775.7188,29.5156 775.75,29.6406 775.8906,29.7656 C776.0313,29.9063 776.2656,30.0156 776.4844,30.0156 C776.75,30.0156 777.0156,29.875 777.1875,29.6563 C777.2969,29.5 777.3281,29.3125 777.3281,28.8906 L777.3281,27.4688 C777.3281,27.0313 777.3125,26.9063 777.2188,26.75 C777.0625,26.4844 776.7813,26.3438 776.4844,26.3438 C776.1875,26.3438 775.9844,26.4375 775.7656,26.75 L775.5938,26.6719 Z " fill="#000000"/><text fill="#000000" font-family="sans-serif" font-size="14" lengthAdjust="spacing" textLength="98" x="793.75" y="35.8467">CompletedAt</text><line style="stroke:#181818;stroke-width:0.5;" x1="652" x2="1001" y1="47" y2="47"/><rect fill="none" height="6" style="stroke:#C82930;stroke-width:1.0;" width="6" x="659" y="55"/><text fill="#000000" font-family="sans-serif" font-size="14" lengthAdjust="spacing" textLength="119" x="671" y="63.9951">value: Date | null</text><ellipse cx="662" cy="74.2969" fill="none" rx="3" ry="3" style="stroke:#038048;stroke-width:1.0;"/><text fill="#000000" font-family="sans-serif" font-size="14" lengthAdjust="spacing" textLength="121" x="671" y="80.292">Value: Date | null</text><line style="stroke:#181818;stroke-width:0.5;" x1="652" x2="1001" y1="87.5938" y2="87.5938"/><ellipse cx="662" cy="98.5938" fill="#84BE84" rx="3" ry="3" style="stroke:#038048;stroke-width:1.0;"/><text fill="#000000" font-family="sans-serif" font-size="14" lengthAdjust="spacing" textLength="325" x="671" y="104.5889">equals(completedAt: CompletedAt): boolean</text></g><!--MD5=[dde4359a43de047b4d984bc31705a409]
class CreatedAt--><g id="elem_CreatedAt"><rect codeLine="44" fill="#F1F1F1" height="96.8906" id="CreatedAt" rx="2.5" ry="2.5" style="stroke:#181818;stroke-width:0.5;" width="305" x="7" y="326.5"/><ellipse cx="117.75" cy="342.5" fill="#ADD1B2" rx="11" ry="11" style="stroke:#181818;stroke-width:1.0;"/><path d="M120.0938,338.1719 C119.1563,337.7344 118.5625,337.5938 117.6875,337.5938 C115.0625,337.5938 113.0625,339.6719 113.0625,342.3906 L113.0625,343.5156 C113.0625,346.0938 115.1719,347.9844 118.0625,347.9844 C119.2813,347.9844 120.4375,347.6875 121.1875,347.1406 C121.7656,346.7344 122.0938,346.2813 122.0938,345.8906 C122.0938,345.4375 121.7031,345.0469 121.2344,345.0469 C121.0156,345.0469 120.8125,345.125 120.625,345.3125 C120.1719,345.7969 120.1719,345.7969 119.9844,345.8906 C119.5625,346.1563 118.875,346.2813 118.1094,346.2813 C116.0625,346.2813 114.7656,345.1875 114.7656,343.4844 L114.7656,342.3906 C114.7656,340.6094 116.0156,339.2969 117.75,339.2969 C118.3281,339.2969 118.9375,339.4531 119.4063,339.7031 C119.8906,339.9844 120.0625,340.2031 120.1563,340.6094 C120.2188,341.0156 120.25,341.1406 120.3906,341.2656 C120.5313,341.4063 120.7656,341.5156 120.9844,341.5156 C121.25,341.5156 121.5156,341.375 121.6875,341.1563 C121.7969,341 121.8281,340.8125 121.8281,340.3906 L121.8281,338.9688 C121.8281,338.5313 121.8125,338.4063 121.7188,338.25 C121.5625,337.9844 121.2813,337.8438 120.9844,337.8438 C120.6875,337.8438 120.4844,337.9375 120.2656,338.25 L120.0938,338.1719 Z " fill="#000000"/><text fill="#000000" font-family="sans-serif" font-size="14" lengthAdjust="spacing" textLength="75" x="138.25" y="347.3467">CreatedAt</text><line style="stroke:#181818;stroke-width:0.5;" x1="8" x2="311" y1="358.5" y2="358.5"/><rect fill="none" height="6" style="stroke:#C82930;stroke-width:1.0;" width="6" x="15" y="366.5"/><text fill="#000000" font-family="sans-serif" font-size="14" lengthAdjust="spacing" textLength="81" x="27" y="375.4951">value: Date</text><ellipse cx="18" cy="385.7969" fill="none" rx="3" ry="3" style="stroke:#038048;stroke-width:1.0;"/><text fill="#000000" font-family="sans-serif" font-size="14" lengthAdjust="spacing" textLength="83" x="27" y="391.792">Value: Date</text><line style="stroke:#181818;stroke-width:0.5;" x1="8" x2="311" y1="399.0938" y2="399.0938"/><ellipse cx="18" cy="410.0938" fill="#84BE84" rx="3" ry="3" style="stroke:#038048;stroke-width:1.0;"/><text fill="#000000" font-family="sans-serif" font-size="14" lengthAdjust="spacing" textLength="279" x="27" y="416.0889">equals(createdAt: CreatedAt): boolean</text></g><!--MD5=[cf3bb39649ce7f8bfa01714f85686c3f]
class DueDate--><g id="elem_DueDate"><rect codeLine="49" fill="#F1F1F1" height="113.1875" id="DueDate" rx="2.5" ry="2.5" style="stroke:#181818;stroke-width:0.5;" width="281" x="347" y="318.5"/><ellipse cx="451.75" cy="334.5" fill="#ADD1B2" rx="11" ry="11" style="stroke:#181818;stroke-width:1.0;"/><path d="M454.0938,330.1719 C453.1563,329.7344 452.5625,329.5938 451.6875,329.5938 C449.0625,329.5938 447.0625,331.6719 447.0625,334.3906 L447.0625,335.5156 C447.0625,338.0938 449.1719,339.9844 452.0625,339.9844 C453.2813,339.9844 454.4375,339.6875 455.1875,339.1406 C455.7656,338.7344 456.0938,338.2813 456.0938,337.8906 C456.0938,337.4375 455.7031,337.0469 455.2344,337.0469 C455.0156,337.0469 454.8125,337.125 454.625,337.3125 C454.1719,337.7969 454.1719,337.7969 453.9844,337.8906 C453.5625,338.1563 452.875,338.2813 452.1094,338.2813 C450.0625,338.2813 448.7656,337.1875 448.7656,335.4844 L448.7656,334.3906 C448.7656,332.6094 450.0156,331.2969 451.75,331.2969 C452.3281,331.2969 452.9375,331.4531 453.4063,331.7031 C453.8906,331.9844 454.0625,332.2031 454.1563,332.6094 C454.2188,333.0156 454.25,333.1406 454.3906,333.2656 C454.5313,333.4063 454.7656,333.5156 454.9844,333.5156 C455.25,333.5156 455.5156,333.375 455.6875,333.1563 C455.7969,333 455.8281,332.8125 455.8281,332.3906 L455.8281,330.9688 C455.8281,330.5313 455.8125,330.4063 455.7188,330.25 C455.5625,329.9844 455.2813,329.8438 454.9844,329.8438 C454.6875,329.8438 454.4844,329.9375 454.2656,330.25 L454.0938,330.1719 Z " fill="#000000"/><text fill="#000000" font-family="sans-serif" font-size="14" lengthAdjust="spacing" textLength="63" x="472.25" y="339.3467">DueDate</text><line style="stroke:#181818;stroke-width:0.5;" x1="348" x2="627" y1="350.5" y2="350.5"/><rect fill="none" height="6" style="stroke:#C82930;stroke-width:1.0;" width="6" x="355" y="358.5"/><text fill="#000000" font-family="sans-serif" font-size="14" lengthAdjust="spacing" textLength="119" x="367" y="367.4951">value: Date | null</text><ellipse cx="358" cy="377.7969" fill="none" rx="3" ry="3" style="stroke:#038048;stroke-width:1.0;"/><text fill="#000000" font-family="sans-serif" font-size="14" lengthAdjust="spacing" textLength="121" x="367" y="383.792">Value: Date | null</text><line style="stroke:#181818;stroke-width:0.5;" x1="348" x2="627" y1="391.0938" y2="391.0938"/><ellipse cx="358" cy="402.0938" fill="#84BE84" rx="3" ry="3" style="stroke:#038048;stroke-width:1.0;"/><text fill="#000000" font-family="sans-serif" font-size="14" lengthAdjust="spacing" textLength="255" x="367" y="408.0889">equals(dueDate: DueDate): boolean</text><ellipse cx="358" cy="418.3906" fill="#84BE84" rx="3" ry="3" style="stroke:#038048;stroke-width:1.0;"/><text fill="#000000" font-family="sans-serif" font-size="14" lengthAdjust="spacing" textLength="137" x="367" y="424.3857">overDue(): boolean</text></g><!--MD5=[90111e5cdc788a7ef73a3273c23dcc2b]
class Title--><g id="elem_Title"><rect codeLine="55" fill="#F1F1F1" height="96.8906" id="Title" rx="2.5" ry="2.5" style="stroke:#181818;stroke-width:0.5;" width="230" x="663.5" y="326.5"/><ellipse cx="757.75" cy="342.5" fill="#ADD1B2" rx="11" ry="11" style="stroke:#181818;stroke-width:1.0;"/><path d="M760.0938,338.1719 C759.1563,337.7344 758.5625,337.5938 757.6875,337.5938 C755.0625,337.5938 753.0625,339.6719 753.0625,342.3906 L753.0625,343.5156 C753.0625,346.0938 755.1719,347.9844 758.0625,347.9844 C759.2813,347.9844 760.4375,347.6875 761.1875,347.1406 C761.7656,346.7344 762.0938,346.2813 762.0938,345.8906 C762.0938,345.4375 761.7031,345.0469 761.2344,345.0469 C761.0156,345.0469 760.8125,345.125 760.625,345.3125 C760.1719,345.7969 760.1719,345.7969 759.9844,345.8906 C759.5625,346.1563 758.875,346.2813 758.1094,346.2813 C756.0625,346.2813 754.7656,345.1875 754.7656,343.4844 L754.7656,342.3906 C754.7656,340.6094 756.0156,339.2969 757.75,339.2969 C758.3281,339.2969 758.9375,339.4531 759.4063,339.7031 C759.8906,339.9844 760.0625,340.2031 760.1563,340.6094 C760.2188,341.0156 760.25,341.1406 760.3906,341.2656 C760.5313,341.4063 760.7656,341.5156 760.9844,341.5156 C761.25,341.5156 761.5156,341.375 761.6875,341.1563 C761.7969,341 761.8281,340.8125 761.8281,340.3906 L761.8281,338.9688 C761.8281,338.5313 761.8125,338.4063 761.7188,338.25 C761.5625,337.9844 761.2813,337.8438 760.9844,337.8438 C760.6875,337.8438 760.4844,337.9375 760.2656,338.25 L760.0938,338.1719 Z " fill="#000000"/><text fill="#000000" font-family="sans-serif" font-size="14" lengthAdjust="spacing" textLength="33" x="778.25" y="347.3467">Title</text><line style="stroke:#181818;stroke-width:0.5;" x1="664.5" x2="892.5" y1="358.5" y2="358.5"/><rect fill="none" height="6" style="stroke:#C82930;stroke-width:1.0;" width="6" x="671.5" y="366.5"/><text fill="#000000" font-family="sans-serif" font-size="14" lengthAdjust="spacing" textLength="88" x="683.5" y="375.4951">value: string</text><ellipse cx="674.5" cy="385.7969" fill="none" rx="3" ry="3" style="stroke:#038048;stroke-width:1.0;"/><text fill="#000000" font-family="sans-serif" font-size="14" lengthAdjust="spacing" textLength="90" x="683.5" y="391.792">Value: string</text><line style="stroke:#181818;stroke-width:0.5;" x1="664.5" x2="892.5" y1="399.0938" y2="399.0938"/><ellipse cx="674.5" cy="410.0938" fill="#84BE84" rx="3" ry="3" style="stroke:#038048;stroke-width:1.0;"/><text fill="#000000" font-family="sans-serif" font-size="14" lengthAdjust="spacing" textLength="204" x="683.5" y="416.0889">equals(other: Title): boolean</text></g><!--MD5=[94ae539cce1b455668c4d34eee34237f]
reverse link BaseEntity to Todo--><g id="link_BaseEntity_Todo"><path d="M1092.5,107.614 C1092.5,127.586 1092.5,152.861 1092.5,179.85 " fill="none" id="BaseEntity-backto-Todo" style="stroke:#181818;stroke-width:1.0;"/><polygon fill="none" points="1085.5,107.51,1092.5,87.51,1099.5,107.51,1085.5,107.51" style="stroke:#181818;stroke-width:1.0;"/></g><!--MD5=[5c22d4112ec790d971d722e67981092f]
reverse link Command to CreateCommand--><g id="link_Command_CreateCommand"><path d="M1878.33,100.293 C1807.38,117.907 1729.29,143.474 1663.5,180 C1591.25,220.112 1524.15,290.11 1486.06,334.152 " fill="none" id="Command-backto-CreateCommand" style="stroke:#181818;stroke-width:1.0;stroke-dasharray:7.0,7.0;"/><polygon fill="none" points="1877.05,93.4,1898.14,95.533,1880.33,107.013,1877.05,93.4" style="stroke:#181818;stroke-width:1.0;"/></g><!--MD5=[f1beb5af875fdb2722f3c2f77ee742d1]
reverse link Command to DeleteCommand--><g id="link_Command_DeleteCommand"><path d="M2052.06,112.304 C2010.67,173.312 1939.82,277.724 1901.32,334.469 " fill="none" id="Command-backto-DeleteCommand" style="stroke:#181818;stroke-width:1.0;stroke-dasharray:7.0,7.0;"/><polygon fill="none" points="2046.38,108.213,2063.4,95.593,2057.97,116.073,2046.38,108.213" style="stroke:#181818;stroke-width:1.0;"/></g><!--MD5=[292f12d158eff402f9cf0abd0b32d86b]
reverse link Command to ReadCommand--><g id="link_Command_ReadCommand"><path d="M2117.09,112.304 C2158.68,173.312 2229.86,277.724 2268.55,334.469 " fill="none" id="Command-backto-ReadCommand" style="stroke:#181818;stroke-width:1.0;stroke-dasharray:7.0,7.0;"/><polygon fill="none" points="2111.18,116.061,2105.7,95.593,2122.75,108.175,2111.18,116.061" style="stroke:#181818;stroke-width:1.0;"/></g><!--MD5=[ad951ebeb6dd4d69fa81eea7b336f465]
reverse link Command to UpdateCommand--><g id="link_Command_UpdateCommand"><path d="M2291.4,100.285 C2362.46,117.892 2440.63,143.456 2506.5,180 C2578.77,220.09 2645.86,290.095 2683.94,334.144 " fill="none" id="Command-backto-UpdateCommand" style="stroke:#181818;stroke-width:1.0;stroke-dasharray:7.0,7.0;"/><polygon fill="none" points="2289.39,106.999,2271.57,95.528,2292.65,93.386,2289.39,106.999" style="stroke:#181818;stroke-width:1.0;"/></g><!--MD5=[6f46605d5e975757125c3a94fa6a2d04]
@startuml
class Todo extends BaseEntity {
    +id: number
    +title: string
    +completed: boolean
    +dueDate: Date | null
    +createdAt: Date
    +completedAt: Date | null
    +status: string
}
class CreateCommand implements Command {
    -type: Type
    +execute(params: Params): Promise<void | Todo[]>
}
class DeleteCommand implements Command {
    -type: Type
    +execute(params: Params): Promise<void | Todo[]>
}
class ReadCommand implements Command {
    -type: Type
    +execute(params: Params): Promise<void | Todo[]>
}
class UpdateCommand implements Command {
    -type: Type
    +execute(params: Params): Promise<void | Todo[]>
}
enum Type {
    CREATE
    READ
    UPDATE
    DELETE
}
class TodoService {
    -command: Command
    +execute(params: Params): Promise<void | Todo[]>
}
interface Command {
    +execute(params: Params): Promise<void | Todo[]>
}
class CompletedAt {
    -value: Date | null
    +Value: Date | null
    +equals(completedAt: CompletedAt): boolean
}
class CreatedAt {
    -value: Date
    +Value: Date
    +equals(createdAt: CreatedAt): boolean
}
class DueDate {
    -value: Date | null
    +Value: Date | null
    +equals(dueDate: DueDate): boolean
    +overDue(): boolean
}
class Title {
    -value: string
    +Value: string
    +equals(other: Title): boolean
}
class Todo {
    -title: Title
    -completed: boolean
    -createdAt: CreatedAt
    -completedAt: CompletedAt
    -dueDate: DueDate
    +Title: string
    +Completed: boolean
    +CreatedAt: Date
    +CompletedAt: Date | null
    +DueDate: Date | null
    +complete(): void
    +overDue(): boolean
    +setDueDate(due: DueDate): Todo
    +equals(other: Todo): boolean
}
@enduml

PlantUML version 1.2022.4beta2(Unknown compile time)
(GPL source distribution)
Java Runtime: Java(TM) SE Runtime Environment
JVM: Java HotSpot(TM) 64-Bit Server VM
Default Encoding: UTF-8
Language: en
Country: US
--></g></svg>