<?xml version="1.0" encoding="UTF-8" standalone="no"?><svg xmlns="http://www.w3.org/2000/svg" xmlns:xlink="http://www.w3.org/1999/xlink" contentStyleType="text/css" height="365px" preserveAspectRatio="none" style="width:1902px;height:365px;background:#FFFFFF;" version="1.1" viewBox="0 0 1902 365" width="1902px" zoomAndPan="magnify"><defs/><g><!--MD5=[d304ca89bdbd8073bbc1ba7ea9e70f7d]
class Todo--><g id="elem_Todo"><rect codeLine="39" fill="#F1F1F1" height="178.375" id="Todo" rx="2.5" ry="2.5" style="stroke:#181818;stroke-width:0.5;" width="204" x="7" y="180"/><ellipse cx="86.75" cy="196" fill="#ADD1B2" rx="11" ry="11" style="stroke:#181818;stroke-width:1.0;"/><path d="M89.0938,191.6719 C88.1563,191.2344 87.5625,191.0938 86.6875,191.0938 C84.0625,191.0938 82.0625,193.1719 82.0625,195.8906 L82.0625,197.0156 C82.0625,199.5938 84.1719,201.4844 87.0625,201.4844 C88.2813,201.4844 89.4375,201.1875 90.1875,200.6406 C90.7656,200.2344 91.0938,199.7813 91.0938,199.3906 C91.0938,198.9375 90.7031,198.5469 90.2344,198.5469 C90.0156,198.5469 89.8125,198.625 89.625,198.8125 C89.1719,199.2969 89.1719,199.2969 88.9844,199.3906 C88.5625,199.6563 87.875,199.7813 87.1094,199.7813 C85.0625,199.7813 83.7656,198.6875 83.7656,196.9844 L83.7656,195.8906 C83.7656,194.1094 85.0156,192.7969 86.75,192.7969 C87.3281,192.7969 87.9375,192.9531 88.4063,193.2031 C88.8906,193.4844 89.0625,193.7031 89.1563,194.1094 C89.2188,194.5156 89.25,194.6406 89.3906,194.7656 C89.5313,194.9063 89.7656,195.0156 89.9844,195.0156 C90.25,195.0156 90.5156,194.875 90.6875,194.6563 C90.7969,194.5 90.8281,194.3125 90.8281,193.8906 L90.8281,192.4688 C90.8281,192.0313 90.8125,191.9063 90.7188,191.75 C90.5625,191.4844 90.2813,191.3438 89.9844,191.3438 C89.6875,191.3438 89.4844,191.4375 89.2656,191.75 L89.0938,191.6719 Z " fill="#000000"/><text fill="#000000" font-family="sans-serif" font-size="14" lengthAdjust="spacing" textLength="36" x="107.25" y="200.8467">Todo</text><line style="stroke:#181818;stroke-width:0.5;" x1="8" x2="210" y1="212" y2="212"/><ellipse cx="18" cy="223" fill="none" rx="3" ry="3" style="stroke:#038048;stroke-width:1.0;"/><text fill="#000000" font-family="sans-serif" font-size="14" lengthAdjust="spacing" textLength="78" x="27" y="228.9951">id: number</text><ellipse cx="18" cy="239.2969" fill="none" rx="3" ry="3" style="stroke:#038048;stroke-width:1.0;"/><text fill="#000000" font-family="sans-serif" font-size="14" lengthAdjust="spacing" textLength="82" x="27" y="245.292">title: string</text><ellipse cx="18" cy="255.5938" fill="none" rx="3" ry="3" style="stroke:#038048;stroke-width:1.0;"/><text fill="#000000" font-family="sans-serif" font-size="14" lengthAdjust="spacing" textLength="146" x="27" y="261.5889">completed: boolean</text><ellipse cx="18" cy="271.8906" fill="none" rx="3" ry="3" style="stroke:#038048;stroke-width:1.0;"/><text fill="#000000" font-family="sans-serif" font-size="14" lengthAdjust="spacing" textLength="143" x="27" y="277.8857">dueDate: Date | null</text><ellipse cx="18" cy="288.1875" fill="none" rx="3" ry="3" style="stroke:#038048;stroke-width:1.0;"/><text fill="#000000" font-family="sans-serif" font-size="14" lengthAdjust="spacing" textLength="117" x="27" y="294.1826">createdAt: Date</text><ellipse cx="18" cy="304.4844" fill="none" rx="3" ry="3" style="stroke:#038048;stroke-width:1.0;"/><text fill="#000000" font-family="sans-serif" font-size="14" lengthAdjust="spacing" textLength="178" x="27" y="310.4795">completedAt: Date | null</text><ellipse cx="18" cy="320.7813" fill="none" rx="3" ry="3" style="stroke:#038048;stroke-width:1.0;"/><text fill="#000000" font-family="sans-serif" font-size="14" lengthAdjust="spacing" textLength="95" x="27" y="326.7764">status: string</text><line style="stroke:#181818;stroke-width:0.5;" x1="8" x2="210" y1="334.0781" y2="334.0781"/><ellipse cx="18" cy="345.0781" fill="#84BE84" rx="3" ry="3" style="stroke:#038048;stroke-width:1.0;"/><text fill="#000000" font-family="sans-serif" font-size="14" lengthAdjust="spacing" textLength="123" x="27" y="351.0732">greeting(): string</text></g><!--MD5=[7d75efcc7d06b347edea0516f6aac1d8]
class BaseEntity--><g id="elem_BaseEntity"><rect fill="#F1F1F1" height="48" id="BaseEntity" rx="2.5" ry="2.5" style="stroke:#181818;stroke-width:0.5;" width="110" x="54" y="39.5"/><ellipse cx="69" cy="55.5" fill="#ADD1B2" rx="11" ry="11" style="stroke:#181818;stroke-width:1.0;"/><path d="M71.3438,51.1719 C70.4063,50.7344 69.8125,50.5938 68.9375,50.5938 C66.3125,50.5938 64.3125,52.6719 64.3125,55.3906 L64.3125,56.5156 C64.3125,59.0938 66.4219,60.9844 69.3125,60.9844 C70.5313,60.9844 71.6875,60.6875 72.4375,60.1406 C73.0156,59.7344 73.3438,59.2813 73.3438,58.8906 C73.3438,58.4375 72.9531,58.0469 72.4844,58.0469 C72.2656,58.0469 72.0625,58.125 71.875,58.3125 C71.4219,58.7969 71.4219,58.7969 71.2344,58.8906 C70.8125,59.1563 70.125,59.2813 69.3594,59.2813 C67.3125,59.2813 66.0156,58.1875 66.0156,56.4844 L66.0156,55.3906 C66.0156,53.6094 67.2656,52.2969 69,52.2969 C69.5781,52.2969 70.1875,52.4531 70.6563,52.7031 C71.1406,52.9844 71.3125,53.2031 71.4063,53.6094 C71.4688,54.0156 71.5,54.1406 71.6406,54.2656 C71.7813,54.4063 72.0156,54.5156 72.2344,54.5156 C72.5,54.5156 72.7656,54.375 72.9375,54.1563 C73.0469,54 73.0781,53.8125 73.0781,53.3906 L73.0781,51.9688 C73.0781,51.5313 73.0625,51.4063 72.9688,51.25 C72.8125,50.9844 72.5313,50.8438 72.2344,50.8438 C71.9375,50.8438 71.7344,50.9375 71.5156,51.25 L71.3438,51.1719 Z " fill="#000000"/><text fill="#000000" font-family="sans-serif" font-size="14" lengthAdjust="spacing" textLength="78" x="83" y="60.3467">BaseEntity</text><line style="stroke:#181818;stroke-width:0.5;" x1="55" x2="163" y1="71.5" y2="71.5"/><line style="stroke:#181818;stroke-width:0.5;" x1="55" x2="163" y1="79.5" y2="79.5"/></g><!--MD5=[f3a432345cbe8f2bb5c17570319e88a3]
class CreateCommand--><g id="elem_CreateCommand"><rect codeLine="10" fill="#F1F1F1" height="80.5938" id="CreateCommand" rx="2.5" ry="2.5" style="stroke:#181818;stroke-width:0.5;" width="386" x="246" y="228.5"/><ellipse cx="373.75" cy="244.5" fill="#ADD1B2" rx="11" ry="11" style="stroke:#181818;stroke-width:1.0;"/><path d="M376.0938,240.1719 C375.1563,239.7344 374.5625,239.5938 373.6875,239.5938 C371.0625,239.5938 369.0625,241.6719 369.0625,244.3906 L369.0625,245.5156 C369.0625,248.0938 371.1719,249.9844 374.0625,249.9844 C375.2813,249.9844 376.4375,249.6875 377.1875,249.1406 C377.7656,248.7344 378.0938,248.2813 378.0938,247.8906 C378.0938,247.4375 377.7031,247.0469 377.2344,247.0469 C377.0156,247.0469 376.8125,247.125 376.625,247.3125 C376.1719,247.7969 376.1719,247.7969 375.9844,247.8906 C375.5625,248.1563 374.875,248.2813 374.1094,248.2813 C372.0625,248.2813 370.7656,247.1875 370.7656,245.4844 L370.7656,244.3906 C370.7656,242.6094 372.0156,241.2969 373.75,241.2969 C374.3281,241.2969 374.9375,241.4531 375.4063,241.7031 C375.8906,241.9844 376.0625,242.2031 376.1563,242.6094 C376.2188,243.0156 376.25,243.1406 376.3906,243.2656 C376.5313,243.4063 376.7656,243.5156 376.9844,243.5156 C377.25,243.5156 377.5156,243.375 377.6875,243.1563 C377.7969,243 377.8281,242.8125 377.8281,242.3906 L377.8281,240.9688 C377.8281,240.5313 377.8125,240.4063 377.7188,240.25 C377.5625,239.9844 377.2813,239.8438 376.9844,239.8438 C376.6875,239.8438 376.4844,239.9375 376.2656,240.25 L376.0938,240.1719 Z " fill="#000000"/><text fill="#000000" font-family="sans-serif" font-size="14" lengthAdjust="spacing" textLength="122" x="394.25" y="249.3467">CreateCommand</text><line style="stroke:#181818;stroke-width:0.5;" x1="247" x2="631" y1="260.5" y2="260.5"/><rect fill="none" height="6" style="stroke:#C82930;stroke-width:1.0;" width="6" x="254" y="268.5"/><text fill="#000000" font-family="sans-serif" font-size="14" lengthAdjust="spacing" textLength="79" x="266" y="277.4951">type: Type</text><line style="stroke:#181818;stroke-width:0.5;" x1="247" x2="631" y1="284.7969" y2="284.7969"/><ellipse cx="257" cy="295.7969" fill="#84BE84" rx="3" ry="3" style="stroke:#038048;stroke-width:1.0;"/><text fill="#000000" font-family="sans-serif" font-size="14" lengthAdjust="spacing" textLength="360" x="266" y="301.792">execute(params: Params): Promise&lt;void | Todo[]&gt;</text></g><!--MD5=[521817ab83e81da341a3f4b5e91bae41]
class Command--><g id="elem_Command"><rect codeLine="36" fill="#F1F1F1" height="64.2969" id="Command" rx="2.5" ry="2.5" style="stroke:#181818;stroke-width:0.5;" width="386" x="877" y="31.5"/><ellipse cx="1028.75" cy="47.5" fill="#B4A7E5" rx="11" ry="11" style="stroke:#181818;stroke-width:1.0;"/><path d="M1029.7031,44.2813 L1031.4219,44.2813 C1031.8125,44.2813 1032,44.25 1032.125,44.1719 C1032.3906,44.0156 1032.5313,43.7344 1032.5313,43.4375 C1032.5313,43.1719 1032.4219,42.9063 1032.1875,42.7344 C1032.0156,42.625 1031.875,42.5938 1031.4219,42.5938 L1026.2813,42.5938 C1025.8438,42.5938 1025.7188,42.6094 1025.5625,42.7031 C1025.3125,42.8594 1025.1563,43.1563 1025.1563,43.4375 C1025.1563,43.7188 1025.2969,43.9688 1025.5156,44.1406 C1025.6719,44.25 1025.8594,44.2813 1026.2813,44.2813 L1028,44.2813 L1028,50.7969 L1026.2813,50.7969 C1025.8438,50.7969 1025.7188,50.8125 1025.5625,50.9219 C1025.3125,51.0781 1025.1563,51.3594 1025.1563,51.6563 C1025.1563,51.9063 1025.2969,52.1719 1025.5156,52.3281 C1025.6719,52.4531 1025.875,52.5 1026.2813,52.5 L1031.4219,52.5 C1032.1719,52.5 1032.5313,52.2188 1032.5313,51.6563 C1032.5313,51.375 1032.4219,51.125 1032.1875,50.9531 C1032.0156,50.8281 1031.875,50.7969 1031.4219,50.7969 L1029.7031,50.7969 L1029.7031,44.2813 Z " fill="#000000"/><text fill="#000000" font-family="sans-serif" font-size="14" font-style="italic" lengthAdjust="spacing" textLength="74" x="1049.25" y="52.3467">Command</text><line style="stroke:#181818;stroke-width:0.5;" x1="878" x2="1262" y1="63.5" y2="63.5"/><line style="stroke:#181818;stroke-width:0.5;" x1="878" x2="1262" y1="71.5" y2="71.5"/><ellipse cx="888" cy="82.5" fill="#84BE84" rx="3" ry="3" style="stroke:#038048;stroke-width:1.0;"/><text fill="#000000" font-family="sans-serif" font-size="14" lengthAdjust="spacing" textLength="360" x="897" y="88.4951">execute(params: Params): Promise&lt;void | Todo[]&gt;</text></g><!--MD5=[522bcce41d81f20cd1f9638a73c3e08a]
class DeleteCommand--><g id="elem_DeleteCommand"><rect codeLine="14" fill="#F1F1F1" height="80.5938" id="DeleteCommand" rx="2.5" ry="2.5" style="stroke:#181818;stroke-width:0.5;" width="386" x="667" y="228.5"/><ellipse cx="794.75" cy="244.5" fill="#ADD1B2" rx="11" ry="11" style="stroke:#181818;stroke-width:1.0;"/><path d="M797.0938,240.1719 C796.1563,239.7344 795.5625,239.5938 794.6875,239.5938 C792.0625,239.5938 790.0625,241.6719 790.0625,244.3906 L790.0625,245.5156 C790.0625,248.0938 792.1719,249.9844 795.0625,249.9844 C796.2813,249.9844 797.4375,249.6875 798.1875,249.1406 C798.7656,248.7344 799.0938,248.2813 799.0938,247.8906 C799.0938,247.4375 798.7031,247.0469 798.2344,247.0469 C798.0156,247.0469 797.8125,247.125 797.625,247.3125 C797.1719,247.7969 797.1719,247.7969 796.9844,247.8906 C796.5625,248.1563 795.875,248.2813 795.1094,248.2813 C793.0625,248.2813 791.7656,247.1875 791.7656,245.4844 L791.7656,244.3906 C791.7656,242.6094 793.0156,241.2969 794.75,241.2969 C795.3281,241.2969 795.9375,241.4531 796.4063,241.7031 C796.8906,241.9844 797.0625,242.2031 797.1563,242.6094 C797.2188,243.0156 797.25,243.1406 797.3906,243.2656 C797.5313,243.4063 797.7656,243.5156 797.9844,243.5156 C798.25,243.5156 798.5156,243.375 798.6875,243.1563 C798.7969,243 798.8281,242.8125 798.8281,242.3906 L798.8281,240.9688 C798.8281,240.5313 798.8125,240.4063 798.7188,240.25 C798.5625,239.9844 798.2813,239.8438 797.9844,239.8438 C797.6875,239.8438 797.4844,239.9375 797.2656,240.25 L797.0938,240.1719 Z " fill="#000000"/><text fill="#000000" font-family="sans-serif" font-size="14" lengthAdjust="spacing" textLength="122" x="815.25" y="249.3467">DeleteCommand</text><line style="stroke:#181818;stroke-width:0.5;" x1="668" x2="1052" y1="260.5" y2="260.5"/><rect fill="none" height="6" style="stroke:#C82930;stroke-width:1.0;" width="6" x="675" y="268.5"/><text fill="#000000" font-family="sans-serif" font-size="14" lengthAdjust="spacing" textLength="79" x="687" y="277.4951">type: Type</text><line style="stroke:#181818;stroke-width:0.5;" x1="668" x2="1052" y1="284.7969" y2="284.7969"/><ellipse cx="678" cy="295.7969" fill="#84BE84" rx="3" ry="3" style="stroke:#038048;stroke-width:1.0;"/><text fill="#000000" font-family="sans-serif" font-size="14" lengthAdjust="spacing" textLength="360" x="687" y="301.792">execute(params: Params): Promise&lt;void | Todo[]&gt;</text></g><!--MD5=[860a12987066b8aebfd02ff37a4e9912]
class ReadCommand--><g id="elem_ReadCommand"><rect codeLine="18" fill="#F1F1F1" height="80.5938" id="ReadCommand" rx="2.5" ry="2.5" style="stroke:#181818;stroke-width:0.5;" width="386" x="1088" y="228.5"/><ellipse cx="1222.25" cy="244.5" fill="#ADD1B2" rx="11" ry="11" style="stroke:#181818;stroke-width:1.0;"/><path d="M1224.5938,240.1719 C1223.6563,239.7344 1223.0625,239.5938 1222.1875,239.5938 C1219.5625,239.5938 1217.5625,241.6719 1217.5625,244.3906 L1217.5625,245.5156 C1217.5625,248.0938 1219.6719,249.9844 1222.5625,249.9844 C1223.7813,249.9844 1224.9375,249.6875 1225.6875,249.1406 C1226.2656,248.7344 1226.5938,248.2813 1226.5938,247.8906 C1226.5938,247.4375 1226.2031,247.0469 1225.7344,247.0469 C1225.5156,247.0469 1225.3125,247.125 1225.125,247.3125 C1224.6719,247.7969 1224.6719,247.7969 1224.4844,247.8906 C1224.0625,248.1563 1223.375,248.2813 1222.6094,248.2813 C1220.5625,248.2813 1219.2656,247.1875 1219.2656,245.4844 L1219.2656,244.3906 C1219.2656,242.6094 1220.5156,241.2969 1222.25,241.2969 C1222.8281,241.2969 1223.4375,241.4531 1223.9063,241.7031 C1224.3906,241.9844 1224.5625,242.2031 1224.6563,242.6094 C1224.7188,243.0156 1224.75,243.1406 1224.8906,243.2656 C1225.0313,243.4063 1225.2656,243.5156 1225.4844,243.5156 C1225.75,243.5156 1226.0156,243.375 1226.1875,243.1563 C1226.2969,243 1226.3281,242.8125 1226.3281,242.3906 L1226.3281,240.9688 C1226.3281,240.5313 1226.3125,240.4063 1226.2188,240.25 C1226.0625,239.9844 1225.7813,239.8438 1225.4844,239.8438 C1225.1875,239.8438 1224.9844,239.9375 1224.7656,240.25 L1224.5938,240.1719 Z " fill="#000000"/><text fill="#000000" font-family="sans-serif" font-size="14" lengthAdjust="spacing" textLength="109" x="1242.75" y="249.3467">ReadCommand</text><line style="stroke:#181818;stroke-width:0.5;" x1="1089" x2="1473" y1="260.5" y2="260.5"/><rect fill="none" height="6" style="stroke:#C82930;stroke-width:1.0;" width="6" x="1096" y="268.5"/><text fill="#000000" font-family="sans-serif" font-size="14" lengthAdjust="spacing" textLength="79" x="1108" y="277.4951">type: Type</text><line style="stroke:#181818;stroke-width:0.5;" x1="1089" x2="1473" y1="284.7969" y2="284.7969"/><ellipse cx="1099" cy="295.7969" fill="#84BE84" rx="3" ry="3" style="stroke:#038048;stroke-width:1.0;"/><text fill="#000000" font-family="sans-serif" font-size="14" lengthAdjust="spacing" textLength="360" x="1108" y="301.792">execute(params: Params): Promise&lt;void | Todo[]&gt;</text></g><!--MD5=[63bad1f31134c1e488d3f6c2fa12da5b]
class UpdateCommand--><g id="elem_UpdateCommand"><rect codeLine="22" fill="#F1F1F1" height="80.5938" id="UpdateCommand" rx="2.5" ry="2.5" style="stroke:#181818;stroke-width:0.5;" width="386" x="1509" y="228.5"/><ellipse cx="1635.25" cy="244.5" fill="#ADD1B2" rx="11" ry="11" style="stroke:#181818;stroke-width:1.0;"/><path d="M1637.5938,240.1719 C1636.6563,239.7344 1636.0625,239.5938 1635.1875,239.5938 C1632.5625,239.5938 1630.5625,241.6719 1630.5625,244.3906 L1630.5625,245.5156 C1630.5625,248.0938 1632.6719,249.9844 1635.5625,249.9844 C1636.7813,249.9844 1637.9375,249.6875 1638.6875,249.1406 C1639.2656,248.7344 1639.5938,248.2813 1639.5938,247.8906 C1639.5938,247.4375 1639.2031,247.0469 1638.7344,247.0469 C1638.5156,247.0469 1638.3125,247.125 1638.125,247.3125 C1637.6719,247.7969 1637.6719,247.7969 1637.4844,247.8906 C1637.0625,248.1563 1636.375,248.2813 1635.6094,248.2813 C1633.5625,248.2813 1632.2656,247.1875 1632.2656,245.4844 L1632.2656,244.3906 C1632.2656,242.6094 1633.5156,241.2969 1635.25,241.2969 C1635.8281,241.2969 1636.4375,241.4531 1636.9063,241.7031 C1637.3906,241.9844 1637.5625,242.2031 1637.6563,242.6094 C1637.7188,243.0156 1637.75,243.1406 1637.8906,243.2656 C1638.0313,243.4063 1638.2656,243.5156 1638.4844,243.5156 C1638.75,243.5156 1639.0156,243.375 1639.1875,243.1563 C1639.2969,243 1639.3281,242.8125 1639.3281,242.3906 L1639.3281,240.9688 C1639.3281,240.5313 1639.3125,240.4063 1639.2188,240.25 C1639.0625,239.9844 1638.7813,239.8438 1638.4844,239.8438 C1638.1875,239.8438 1637.9844,239.9375 1637.7656,240.25 L1637.5938,240.1719 Z " fill="#000000"/><text fill="#000000" font-family="sans-serif" font-size="14" lengthAdjust="spacing" textLength="125" x="1655.75" y="249.3467">UpdateCommand</text><line style="stroke:#181818;stroke-width:0.5;" x1="1510" x2="1894" y1="260.5" y2="260.5"/><rect fill="none" height="6" style="stroke:#C82930;stroke-width:1.0;" width="6" x="1517" y="268.5"/><text fill="#000000" font-family="sans-serif" font-size="14" lengthAdjust="spacing" textLength="79" x="1529" y="277.4951">type: Type</text><line style="stroke:#181818;stroke-width:0.5;" x1="1510" x2="1894" y1="284.7969" y2="284.7969"/><ellipse cx="1520" cy="295.7969" fill="#84BE84" rx="3" ry="3" style="stroke:#038048;stroke-width:1.0;"/><text fill="#000000" font-family="sans-serif" font-size="14" lengthAdjust="spacing" textLength="360" x="1529" y="301.792">execute(params: Params): Promise&lt;void | Todo[]&gt;</text></g><!--MD5=[4296a1ab0576a383a1a509d52c22ebf0]
class Type--><g id="elem_Type"><rect codeLine="26" fill="#F1F1F1" height="113.1875" id="Type" rx="2.5" ry="2.5" style="stroke:#181818;stroke-width:0.5;" width="69" x="1298.5" y="7"/><ellipse cx="1313.95" cy="23" fill="#EB937F" rx="11" ry="11" style="stroke:#181818;stroke-width:1.0;"/><path d="M1312.7469,23.875 L1314.2,23.875 L1314.2,23.9844 C1314.2,24.3906 1314.2313,24.5469 1314.3094,24.7031 C1314.4656,24.9531 1314.7469,25.1094 1315.0438,25.1094 C1315.2938,25.1094 1315.5594,24.9688 1315.7156,24.75 C1315.8406,24.5938 1315.8719,24.4375 1315.8719,23.9844 L1315.8719,22.0625 C1315.8719,21.9063 1315.8719,21.8594 1315.8563,21.7031 C1315.7938,21.2344 1315.4813,20.9219 1315.0281,20.9219 C1314.7781,20.9219 1314.5125,21.0625 1314.3406,21.2813 C1314.2313,21.4531 1314.2,21.6094 1314.2,22.0625 L1314.2,22.1875 L1312.7469,22.1875 L1312.7469,19.7813 L1316.7313,19.7813 L1316.7313,20.6406 C1316.7313,21.0469 1316.7625,21.2188 1316.8406,21.375 C1317.0125,21.625 1317.2938,21.7813 1317.575,21.7813 C1317.8406,21.7813 1318.1063,21.6406 1318.2781,21.4219 C1318.3875,21.25 1318.4188,21.1094 1318.4188,20.6406 L1318.4188,18.0938 L1310.7938,18.0938 C1310.3563,18.0938 1310.2313,18.1094 1310.075,18.2031 C1309.825,18.3594 1309.6688,18.6563 1309.6688,18.9375 C1309.6688,19.2188 1309.8094,19.4688 1310.0281,19.6406 C1310.1844,19.75 1310.3719,19.7813 1310.7938,19.7813 L1311.0438,19.7813 L1311.0438,26.2969 L1310.7938,26.2969 C1310.3875,26.2969 1310.2313,26.3125 1310.075,26.4219 C1309.825,26.5938 1309.6688,26.8594 1309.6688,27.1563 C1309.6688,27.4219 1309.8094,27.6719 1310.0281,27.8281 C1310.1688,27.9531 1310.4031,28 1310.7938,28 L1318.7938,28 L1318.7938,25.4219 C1318.7938,24.9844 1318.7625,24.8438 1318.6844,24.6875 C1318.5125,24.4375 1318.2313,24.2813 1317.95,24.2813 C1317.6844,24.2813 1317.4188,24.3906 1317.2469,24.6406 C1317.1375,24.7969 1317.1063,24.9375 1317.1063,25.4219 L1317.1063,26.2969 L1312.7469,26.2969 L1312.7469,23.875 Z " fill="#000000"/><text fill="#000000" font-family="sans-serif" font-size="14" lengthAdjust="spacing" textLength="36" x="1328.05" y="27.8467">Type</text><line style="stroke:#181818;stroke-width:0.5;" x1="1299.5" x2="1366.5" y1="39" y2="39"/><text fill="#000000" font-family="sans-serif" font-size="14" lengthAdjust="spacing" textLength="57" x="1304.5" y="55.9951">CREATE</text><text fill="#000000" font-family="sans-serif" font-size="14" lengthAdjust="spacing" textLength="40" x="1304.5" y="72.292">READ</text><text fill="#000000" font-family="sans-serif" font-size="14" lengthAdjust="spacing" textLength="57" x="1304.5" y="88.5889">UPDATE</text><text fill="#000000" font-family="sans-serif" font-size="14" lengthAdjust="spacing" textLength="55" x="1304.5" y="104.8857">DELETE</text><line style="stroke:#181818;stroke-width:0.5;" x1="1299.5" x2="1366.5" y1="112.1875" y2="112.1875"/></g><!--MD5=[607c01281c15983c44675f9e6dea3db6]
class TodoService--><g id="elem_TodoService"><rect codeLine="32" fill="#F1F1F1" height="80.5938" id="TodoService" rx="2.5" ry="2.5" style="stroke:#181818;stroke-width:0.5;" width="386" x="1403" y="23"/><ellipse cx="1547.25" cy="39" fill="#ADD1B2" rx="11" ry="11" style="stroke:#181818;stroke-width:1.0;"/><path d="M1549.5938,34.6719 C1548.6563,34.2344 1548.0625,34.0938 1547.1875,34.0938 C1544.5625,34.0938 1542.5625,36.1719 1542.5625,38.8906 L1542.5625,40.0156 C1542.5625,42.5938 1544.6719,44.4844 1547.5625,44.4844 C1548.7813,44.4844 1549.9375,44.1875 1550.6875,43.6406 C1551.2656,43.2344 1551.5938,42.7813 1551.5938,42.3906 C1551.5938,41.9375 1551.2031,41.5469 1550.7344,41.5469 C1550.5156,41.5469 1550.3125,41.625 1550.125,41.8125 C1549.6719,42.2969 1549.6719,42.2969 1549.4844,42.3906 C1549.0625,42.6563 1548.375,42.7813 1547.6094,42.7813 C1545.5625,42.7813 1544.2656,41.6875 1544.2656,39.9844 L1544.2656,38.8906 C1544.2656,37.1094 1545.5156,35.7969 1547.25,35.7969 C1547.8281,35.7969 1548.4375,35.9531 1548.9063,36.2031 C1549.3906,36.4844 1549.5625,36.7031 1549.6563,37.1094 C1549.7188,37.5156 1549.75,37.6406 1549.8906,37.7656 C1550.0313,37.9063 1550.2656,38.0156 1550.4844,38.0156 C1550.75,38.0156 1551.0156,37.875 1551.1875,37.6563 C1551.2969,37.5 1551.3281,37.3125 1551.3281,36.8906 L1551.3281,35.4688 C1551.3281,35.0313 1551.3125,34.9063 1551.2188,34.75 C1551.0625,34.4844 1550.7813,34.3438 1550.4844,34.3438 C1550.1875,34.3438 1549.9844,34.4375 1549.7656,34.75 L1549.5938,34.6719 Z " fill="#000000"/><text fill="#000000" font-family="sans-serif" font-size="14" lengthAdjust="spacing" textLength="89" x="1567.75" y="43.8467">TodoService</text><line style="stroke:#181818;stroke-width:0.5;" x1="1404" x2="1788" y1="55" y2="55"/><rect fill="none" height="6" style="stroke:#C82930;stroke-width:1.0;" width="6" x="1411" y="63"/><text fill="#000000" font-family="sans-serif" font-size="14" lengthAdjust="spacing" textLength="153" x="1423" y="71.9951">command: Command</text><line style="stroke:#181818;stroke-width:0.5;" x1="1404" x2="1788" y1="79.2969" y2="79.2969"/><ellipse cx="1414" cy="90.2969" fill="#84BE84" rx="3" ry="3" style="stroke:#038048;stroke-width:1.0;"/><text fill="#000000" font-family="sans-serif" font-size="14" lengthAdjust="spacing" textLength="360" x="1423" y="96.292">execute(params: Params): Promise&lt;void | Todo[]&gt;</text></g><!--MD5=[94ae539cce1b455668c4d34eee34237f]
reverse link BaseEntity to Todo--><g id="link_BaseEntity_Todo"><path d="M109,107.959 C109,128.887 109,154.778 109,179.593 " fill="none" id="BaseEntity-backto-Todo" style="stroke:#181818;stroke-width:1.0;"/><polygon fill="none" points="102.0001,107.844,109,87.844,116,107.844,102.0001,107.844" style="stroke:#181818;stroke-width:1.0;"/></g><!--MD5=[5c22d4112ec790d971d722e67981092f]
reverse link Command to CreateCommand--><g id="link_Command_CreateCommand"><path d="M920.542,100.492 C839.43,121.275 737.857,149.337 649,180 C608.082,194.12 563.748,212.261 526.405,228.4 " fill="none" id="Command-backto-CreateCommand" style="stroke:#181818;stroke-width:1.0;stroke-dasharray:7.0,7.0;"/><polygon fill="none" points="919.062,93.645,940.17,95.502,922.512,107.214,919.062,93.645" style="stroke:#181818;stroke-width:1.0;"/></g><!--MD5=[f1beb5af875fdb2722f3c2f77ee742d1]
reverse link Command to DeleteCommand--><g id="link_Command_DeleteCommand"><path d="M1022.88,110.161 C986.276,145.633 936.022,194.331 901.052,228.219 " fill="none" id="Command-backto-DeleteCommand" style="stroke:#181818;stroke-width:1.0;stroke-dasharray:7.0,7.0;"/><polygon fill="none" points="1018.41,104.742,1037.65,95.851,1028.16,114.796,1018.41,104.742" style="stroke:#181818;stroke-width:1.0;"/></g><!--MD5=[292f12d158eff402f9cf0abd0b32d86b]
reverse link Command to ReadCommand--><g id="link_Command_ReadCommand"><path d="M1117.34,110.161 C1154.12,145.633 1204.62,194.331 1239.75,228.219 " fill="none" id="Command-backto-ReadCommand" style="stroke:#181818;stroke-width:1.0;stroke-dasharray:7.0,7.0;"/><polygon fill="none" points="1112.04,114.773,1102.51,95.851,1121.76,104.696,1112.04,114.773" style="stroke:#181818;stroke-width:1.0;"/></g><!--MD5=[ad951ebeb6dd4d69fa81eea7b336f465]
reverse link Command to UpdateCommand--><g id="link_Command_UpdateCommand"><path d="M1205.89,100.748 C1318.52,130.951 1464.47,170.51 1492,180 C1533.02,194.14 1577.46,212.33 1614.85,228.498 " fill="none" id="Command-backto-UpdateCommand" style="stroke:#181818;stroke-width:1.0;stroke-dasharray:7.0,7.0;"/><polygon fill="none" points="1203.86,107.451,1186.35,95.513,1207.48,93.928,1203.86,107.451" style="stroke:#181818;stroke-width:1.0;"/></g><!--MD5=[57b61af242be6158e9c24c7287f12765]
@startuml
class Todo extends BaseEntity {
    +id: number
    +title: string
    +completed: boolean
    +dueDate: Date | null
    +createdAt: Date
    +completedAt: Date | null
    +status: string
}
class CreateCommand implements Command {
    -type: Type
    +execute(params: Params): Promise<void | Todo[]>
}
class DeleteCommand implements Command {
    -type: Type
    +execute(params: Params): Promise<void | Todo[]>
}
class ReadCommand implements Command {
    -type: Type
    +execute(params: Params): Promise<void | Todo[]>
}
class UpdateCommand implements Command {
    -type: Type
    +execute(params: Params): Promise<void | Todo[]>
}
enum Type {
    CREATE
    READ
    UPDATE
    DELETE
}
class TodoService {
    -command: Command
    +execute(params: Params): Promise<void | Todo[]>
}
interface Command {
    +execute(params: Params): Promise<void | Todo[]>
}
class Todo {
    +greeting(): string
}
@enduml

PlantUML version 1.2022.4beta2(Unknown compile time)
(GPL source distribution)
Java Runtime: Java(TM) SE Runtime Environment
JVM: Java HotSpot(TM) 64-Bit Server VM
Default Encoding: UTF-8
Language: en
Country: US
--></g></svg>