<?xml version="1.0" encoding="UTF-8" standalone="no"?><svg xmlns="http://www.w3.org/2000/svg" xmlns:xlink="http://www.w3.org/1999/xlink" contentStyleType="text/css" height="365px" preserveAspectRatio="none" style="width:721px;height:365px;background:#FFFFFF;" version="1.1" viewBox="0 0 721 365" width="721px" zoomAndPan="magnify"><defs/><g><!--MD5=[d304ca89bdbd8073bbc1ba7ea9e70f7d]
class Todo--><g id="elem_Todo"><rect codeLine="16" fill="#F1F1F1" height="178.375" id="Todo" rx="2.5" ry="2.5" style="stroke:#181818;stroke-width:0.5;" width="204" x="510" y="180"/><ellipse cx="589.75" cy="196" fill="#ADD1B2" rx="11" ry="11" style="stroke:#181818;stroke-width:1.0;"/><path d="M592.0938,191.6719 C591.1563,191.2344 590.5625,191.0938 589.6875,191.0938 C587.0625,191.0938 585.0625,193.1719 585.0625,195.8906 L585.0625,197.0156 C585.0625,199.5938 587.1719,201.4844 590.0625,201.4844 C591.2813,201.4844 592.4375,201.1875 593.1875,200.6406 C593.7656,200.2344 594.0938,199.7813 594.0938,199.3906 C594.0938,198.9375 593.7031,198.5469 593.2344,198.5469 C593.0156,198.5469 592.8125,198.625 592.625,198.8125 C592.1719,199.2969 592.1719,199.2969 591.9844,199.3906 C591.5625,199.6563 590.875,199.7813 590.1094,199.7813 C588.0625,199.7813 586.7656,198.6875 586.7656,196.9844 L586.7656,195.8906 C586.7656,194.1094 588.0156,192.7969 589.75,192.7969 C590.3281,192.7969 590.9375,192.9531 591.4063,193.2031 C591.8906,193.4844 592.0625,193.7031 592.1563,194.1094 C592.2188,194.5156 592.25,194.6406 592.3906,194.7656 C592.5313,194.9063 592.7656,195.0156 592.9844,195.0156 C593.25,195.0156 593.5156,194.875 593.6875,194.6563 C593.7969,194.5 593.8281,194.3125 593.8281,193.8906 L593.8281,192.4688 C593.8281,192.0313 593.8125,191.9063 593.7188,191.75 C593.5625,191.4844 593.2813,191.3438 592.9844,191.3438 C592.6875,191.3438 592.4844,191.4375 592.2656,191.75 L592.0938,191.6719 Z " fill="#000000"/><text fill="#000000" font-family="sans-serif" font-size="14" lengthAdjust="spacing" textLength="36" x="610.25" y="200.8467">Todo</text><line style="stroke:#181818;stroke-width:0.5;" x1="511" x2="713" y1="212" y2="212"/><ellipse cx="521" cy="223" fill="none" rx="3" ry="3" style="stroke:#038048;stroke-width:1.0;"/><text fill="#000000" font-family="sans-serif" font-size="14" lengthAdjust="spacing" textLength="78" x="530" y="228.9951">id: number</text><ellipse cx="521" cy="239.2969" fill="none" rx="3" ry="3" style="stroke:#038048;stroke-width:1.0;"/><text fill="#000000" font-family="sans-serif" font-size="14" lengthAdjust="spacing" textLength="82" x="530" y="245.292">title: string</text><ellipse cx="521" cy="255.5938" fill="none" rx="3" ry="3" style="stroke:#038048;stroke-width:1.0;"/><text fill="#000000" font-family="sans-serif" font-size="14" lengthAdjust="spacing" textLength="146" x="530" y="261.5889">completed: boolean</text><ellipse cx="521" cy="271.8906" fill="none" rx="3" ry="3" style="stroke:#038048;stroke-width:1.0;"/><text fill="#000000" font-family="sans-serif" font-size="14" lengthAdjust="spacing" textLength="143" x="530" y="277.8857">dueDate: Date | null</text><ellipse cx="521" cy="288.1875" fill="none" rx="3" ry="3" style="stroke:#038048;stroke-width:1.0;"/><text fill="#000000" font-family="sans-serif" font-size="14" lengthAdjust="spacing" textLength="117" x="530" y="294.1826">createdAt: Date</text><ellipse cx="521" cy="304.4844" fill="none" rx="3" ry="3" style="stroke:#038048;stroke-width:1.0;"/><text fill="#000000" font-family="sans-serif" font-size="14" lengthAdjust="spacing" textLength="178" x="530" y="310.4795">completedAt: Date | null</text><ellipse cx="521" cy="320.7813" fill="none" rx="3" ry="3" style="stroke:#038048;stroke-width:1.0;"/><text fill="#000000" font-family="sans-serif" font-size="14" lengthAdjust="spacing" textLength="95" x="530" y="326.7764">status: string</text><line style="stroke:#181818;stroke-width:0.5;" x1="511" x2="713" y1="334.0781" y2="334.0781"/><ellipse cx="521" cy="345.0781" fill="#84BE84" rx="3" ry="3" style="stroke:#038048;stroke-width:1.0;"/><text fill="#000000" font-family="sans-serif" font-size="14" lengthAdjust="spacing" textLength="123" x="530" y="351.0732">greeting(): string</text></g><!--MD5=[7d75efcc7d06b347edea0516f6aac1d8]
class BaseEntity--><g id="elem_BaseEntity"><rect fill="#F1F1F1" height="48" id="BaseEntity" rx="2.5" ry="2.5" style="stroke:#181818;stroke-width:0.5;" width="110" x="557" y="39.5"/><ellipse cx="572" cy="55.5" fill="#ADD1B2" rx="11" ry="11" style="stroke:#181818;stroke-width:1.0;"/><path d="M574.3438,51.1719 C573.4063,50.7344 572.8125,50.5938 571.9375,50.5938 C569.3125,50.5938 567.3125,52.6719 567.3125,55.3906 L567.3125,56.5156 C567.3125,59.0938 569.4219,60.9844 572.3125,60.9844 C573.5313,60.9844 574.6875,60.6875 575.4375,60.1406 C576.0156,59.7344 576.3438,59.2813 576.3438,58.8906 C576.3438,58.4375 575.9531,58.0469 575.4844,58.0469 C575.2656,58.0469 575.0625,58.125 574.875,58.3125 C574.4219,58.7969 574.4219,58.7969 574.2344,58.8906 C573.8125,59.1563 573.125,59.2813 572.3594,59.2813 C570.3125,59.2813 569.0156,58.1875 569.0156,56.4844 L569.0156,55.3906 C569.0156,53.6094 570.2656,52.2969 572,52.2969 C572.5781,52.2969 573.1875,52.4531 573.6563,52.7031 C574.1406,52.9844 574.3125,53.2031 574.4063,53.6094 C574.4688,54.0156 574.5,54.1406 574.6406,54.2656 C574.7813,54.4063 575.0156,54.5156 575.2344,54.5156 C575.5,54.5156 575.7656,54.375 575.9375,54.1563 C576.0469,54 576.0781,53.8125 576.0781,53.3906 L576.0781,51.9688 C576.0781,51.5313 576.0625,51.4063 575.9688,51.25 C575.8125,50.9844 575.5313,50.8438 575.2344,50.8438 C574.9375,50.8438 574.7344,50.9375 574.5156,51.25 L574.3438,51.1719 Z " fill="#000000"/><text fill="#000000" font-family="sans-serif" font-size="14" lengthAdjust="spacing" textLength="78" x="586" y="60.3467">BaseEntity</text><line style="stroke:#181818;stroke-width:0.5;" x1="558" x2="666" y1="71.5" y2="71.5"/><line style="stroke:#181818;stroke-width:0.5;" x1="558" x2="666" y1="79.5" y2="79.5"/></g><!--MD5=[3fd616f346a44cd59a91eb10b19e157c]
class User--><g id="elem_User"><rect codeLine="10" fill="#F1F1F1" height="113.1875" id="User" rx="2.5" ry="2.5" style="stroke:#181818;stroke-width:0.5;" width="233" x="124.5" y="7"/><ellipse cx="221.25" cy="23" fill="#ADD1B2" rx="11" ry="11" style="stroke:#181818;stroke-width:1.0;"/><path d="M223.5938,18.6719 C222.6563,18.2344 222.0625,18.0938 221.1875,18.0938 C218.5625,18.0938 216.5625,20.1719 216.5625,22.8906 L216.5625,24.0156 C216.5625,26.5938 218.6719,28.4844 221.5625,28.4844 C222.7813,28.4844 223.9375,28.1875 224.6875,27.6406 C225.2656,27.2344 225.5938,26.7813 225.5938,26.3906 C225.5938,25.9375 225.2031,25.5469 224.7344,25.5469 C224.5156,25.5469 224.3125,25.625 224.125,25.8125 C223.6719,26.2969 223.6719,26.2969 223.4844,26.3906 C223.0625,26.6563 222.375,26.7813 221.6094,26.7813 C219.5625,26.7813 218.2656,25.6875 218.2656,23.9844 L218.2656,22.8906 C218.2656,21.1094 219.5156,19.7969 221.25,19.7969 C221.8281,19.7969 222.4375,19.9531 222.9063,20.2031 C223.3906,20.4844 223.5625,20.7031 223.6563,21.1094 C223.7188,21.5156 223.75,21.6406 223.8906,21.7656 C224.0313,21.9063 224.2656,22.0156 224.4844,22.0156 C224.75,22.0156 225.0156,21.875 225.1875,21.6563 C225.2969,21.5 225.3281,21.3125 225.3281,20.8906 L225.3281,19.4688 C225.3281,19.0313 225.3125,18.9063 225.2188,18.75 C225.0625,18.4844 224.7813,18.3438 224.4844,18.3438 C224.1875,18.3438 223.9844,18.4375 223.7656,18.75 L223.5938,18.6719 Z " fill="#000000"/><text fill="#000000" font-family="sans-serif" font-size="14" lengthAdjust="spacing" textLength="31" x="241.75" y="27.8467">User</text><line style="stroke:#181818;stroke-width:0.5;" x1="125.5" x2="356.5" y1="39" y2="39"/><ellipse cx="135.5" cy="50" fill="none" rx="3" ry="3" style="stroke:#038048;stroke-width:1.0;"/><text fill="#000000" font-family="sans-serif" font-size="14" lengthAdjust="spacing" textLength="163" x="144.5" y="55.9951">id: number | undefined</text><ellipse cx="135.5" cy="66.2969" fill="none" rx="3" ry="3" style="stroke:#038048;stroke-width:1.0;"/><text fill="#000000" font-family="sans-serif" font-size="14" lengthAdjust="spacing" textLength="207" x="144.5" y="72.292">firstName: string | undefined</text><ellipse cx="135.5" cy="82.5938" fill="none" rx="3" ry="3" style="stroke:#038048;stroke-width:1.0;"/><text fill="#000000" font-family="sans-serif" font-size="14" lengthAdjust="spacing" textLength="203" x="144.5" y="88.5889">lastName: string | undefined</text><ellipse cx="135.5" cy="98.8906" fill="none" rx="3" ry="3" style="stroke:#038048;stroke-width:1.0;"/><text fill="#000000" font-family="sans-serif" font-size="14" lengthAdjust="spacing" textLength="176" x="144.5" y="104.8857">age: number | undefined</text><line style="stroke:#181818;stroke-width:0.5;" x1="125.5" x2="356.5" y1="112.1875" y2="112.1875"/></g><!--MD5=[4296a1ab0576a383a1a509d52c22ebf0]
class Type--><g id="elem_Type"><rect codeLine="19" fill="#F1F1F1" height="113.1875" id="Type" rx="2.5" ry="2.5" style="stroke:#181818;stroke-width:0.5;" width="69" x="392.5" y="7"/><ellipse cx="407.95" cy="23" fill="#EB937F" rx="11" ry="11" style="stroke:#181818;stroke-width:1.0;"/><path d="M406.7469,23.875 L408.2,23.875 L408.2,23.9844 C408.2,24.3906 408.2313,24.5469 408.3094,24.7031 C408.4656,24.9531 408.7469,25.1094 409.0438,25.1094 C409.2938,25.1094 409.5594,24.9688 409.7156,24.75 C409.8406,24.5938 409.8719,24.4375 409.8719,23.9844 L409.8719,22.0625 C409.8719,21.9063 409.8719,21.8594 409.8563,21.7031 C409.7938,21.2344 409.4813,20.9219 409.0281,20.9219 C408.7781,20.9219 408.5125,21.0625 408.3406,21.2813 C408.2313,21.4531 408.2,21.6094 408.2,22.0625 L408.2,22.1875 L406.7469,22.1875 L406.7469,19.7813 L410.7313,19.7813 L410.7313,20.6406 C410.7313,21.0469 410.7625,21.2188 410.8406,21.375 C411.0125,21.625 411.2938,21.7813 411.575,21.7813 C411.8406,21.7813 412.1063,21.6406 412.2781,21.4219 C412.3875,21.25 412.4188,21.1094 412.4188,20.6406 L412.4188,18.0938 L404.7938,18.0938 C404.3563,18.0938 404.2313,18.1094 404.075,18.2031 C403.825,18.3594 403.6688,18.6563 403.6688,18.9375 C403.6688,19.2188 403.8094,19.4688 404.0281,19.6406 C404.1844,19.75 404.3719,19.7813 404.7938,19.7813 L405.0438,19.7813 L405.0438,26.2969 L404.7938,26.2969 C404.3875,26.2969 404.2313,26.3125 404.075,26.4219 C403.825,26.5938 403.6688,26.8594 403.6688,27.1563 C403.6688,27.4219 403.8094,27.6719 404.0281,27.8281 C404.1688,27.9531 404.4031,28 404.7938,28 L412.7938,28 L412.7938,25.4219 C412.7938,24.9844 412.7625,24.8438 412.6844,24.6875 C412.5125,24.4375 412.2313,24.2813 411.95,24.2813 C411.6844,24.2813 411.4188,24.3906 411.2469,24.6406 C411.1375,24.7969 411.1063,24.9375 411.1063,25.4219 L411.1063,26.2969 L406.7469,26.2969 L406.7469,23.875 Z " fill="#000000"/><text fill="#000000" font-family="sans-serif" font-size="14" lengthAdjust="spacing" textLength="36" x="422.05" y="27.8467">Type</text><line style="stroke:#181818;stroke-width:0.5;" x1="393.5" x2="460.5" y1="39" y2="39"/><text fill="#000000" font-family="sans-serif" font-size="14" lengthAdjust="spacing" textLength="57" x="398.5" y="55.9951">CREATE</text><text fill="#000000" font-family="sans-serif" font-size="14" lengthAdjust="spacing" textLength="40" x="398.5" y="72.292">READ</text><text fill="#000000" font-family="sans-serif" font-size="14" lengthAdjust="spacing" textLength="57" x="398.5" y="88.5889">UPDATE</text><text fill="#000000" font-family="sans-serif" font-size="14" lengthAdjust="spacing" textLength="55" x="398.5" y="104.8857">DELETE</text><line style="stroke:#181818;stroke-width:0.5;" x1="393.5" x2="460.5" y1="112.1875" y2="112.1875"/></g><!--MD5=[607c01281c15983c44675f9e6dea3db6]
class TodoService--><g id="elem_TodoService"><rect codeLine="25" fill="#F1F1F1" height="64.2969" id="TodoService" rx="2.5" ry="2.5" style="stroke:#181818;stroke-width:0.5;" width="468" x="7" y="237"/><ellipse cx="192.25" cy="253" fill="#ADD1B2" rx="11" ry="11" style="stroke:#181818;stroke-width:1.0;"/><path d="M194.5938,248.6719 C193.6563,248.2344 193.0625,248.0938 192.1875,248.0938 C189.5625,248.0938 187.5625,250.1719 187.5625,252.8906 L187.5625,254.0156 C187.5625,256.5938 189.6719,258.4844 192.5625,258.4844 C193.7813,258.4844 194.9375,258.1875 195.6875,257.6406 C196.2656,257.2344 196.5938,256.7813 196.5938,256.3906 C196.5938,255.9375 196.2031,255.5469 195.7344,255.5469 C195.5156,255.5469 195.3125,255.625 195.125,255.8125 C194.6719,256.2969 194.6719,256.2969 194.4844,256.3906 C194.0625,256.6563 193.375,256.7813 192.6094,256.7813 C190.5625,256.7813 189.2656,255.6875 189.2656,253.9844 L189.2656,252.8906 C189.2656,251.1094 190.5156,249.7969 192.25,249.7969 C192.8281,249.7969 193.4375,249.9531 193.9063,250.2031 C194.3906,250.4844 194.5625,250.7031 194.6563,251.1094 C194.7188,251.5156 194.75,251.6406 194.8906,251.7656 C195.0313,251.9063 195.2656,252.0156 195.4844,252.0156 C195.75,252.0156 196.0156,251.875 196.1875,251.6563 C196.2969,251.5 196.3281,251.3125 196.3281,250.8906 L196.3281,249.4688 C196.3281,249.0313 196.3125,248.9063 196.2188,248.75 C196.0625,248.4844 195.7813,248.3438 195.4844,248.3438 C195.1875,248.3438 194.9844,248.4375 194.7656,248.75 L194.5938,248.6719 Z " fill="#000000"/><text fill="#000000" font-family="sans-serif" font-size="14" lengthAdjust="spacing" textLength="89" x="212.75" y="257.8467">TodoService</text><line style="stroke:#181818;stroke-width:0.5;" x1="8" x2="474" y1="269" y2="269"/><line style="stroke:#181818;stroke-width:0.5;" x1="8" x2="474" y1="277" y2="277"/><ellipse cx="18" cy="288" fill="#84BE84" rx="3" ry="3" style="stroke:#038048;stroke-width:1.0;"/><text fill="#000000" font-family="sans-serif" font-size="14" lengthAdjust="spacing" textLength="442" x="27" y="293.9951">execute(type: number, params: Params): Promise&lt;unknown&gt;</text></g><!--MD5=[94ae539cce1b455668c4d34eee34237f]
reverse link BaseEntity to Todo--><g id="link_BaseEntity_Todo"><path d="M612,107.959 C612,128.887 612,154.778 612,179.593 " fill="none" id="BaseEntity-backto-Todo" style="stroke:#181818;stroke-width:1.0;"/><polygon fill="none" points="605,107.844,612,87.844,619,107.844,605,107.844" style="stroke:#181818;stroke-width:1.0;"/></g><!--MD5=[0f642182e37e6c6f47940bf5eb65baaf]
@startuml
class Todo extends BaseEntity {
    +id: number
    +title: string
    +completed: boolean
    +dueDate: Date | null
    +createdAt: Date
    +completedAt: Date | null
    +status: string
}
class User {
    +id: number | undefined
    +firstName: string | undefined
    +lastName: string | undefined
    +age: number | undefined
}
class Todo {
    +greeting(): string
}
enum Type {
    CREATE
    READ
    UPDATE
    DELETE
}
class TodoService {
    +execute(type: number, params: Params): Promise<unknown>
}
@enduml

PlantUML version 1.2022.4beta2(Unknown compile time)
(GPL source distribution)
Java Runtime: Java(TM) SE Runtime Environment
JVM: Java HotSpot(TM) 64-Bit Server VM
Default Encoding: UTF-8
Language: en
Country: US
--></g></svg>